<svg width="121" height="47" viewBox="0 0 121 47" fill="none" xmlns="http://www.w3.org/2000/svg">
<path fill-rule="evenodd" clip-rule="evenodd" d="M107.514 9.25498C105.668 8.08652 103.508 7.51421 101.325 7.6157C100.076 7.59602 98.8309 7.78272 97.6417 8.16827L93.8105 1.33482C96.2423 0.577631 98.7788 0.210837 101.325 0.248104C104.684 0.170743 108.017 0.837486 111.088 2.20052C113.708 3.37171 115.952 5.24614 117.571 7.6157C119.086 9.82288 119.936 12.4181 120.021 15.0938V15.1491C120.02 15.316 119.982 15.4806 119.908 15.6305C119.835 15.7805 119.729 15.9118 119.597 16.0148C119.351 16.241 119.029 16.3659 118.695 16.3647H112.561C112.15 16.3958 111.742 16.2709 111.419 16.0148C111.105 15.6661 110.889 15.2402 110.793 14.7807C110.412 12.6002 109.245 10.6346 107.514 9.25498ZM118.768 29.9579C119.131 29.9553 119.482 30.094 119.744 30.3447L119.652 30.4C119.786 30.5178 119.888 30.6671 119.949 30.8344C120.01 31.0017 120.028 31.1816 120.002 31.3578C119.941 34.0631 119.096 36.6926 117.571 38.928C115.919 41.2093 113.678 42.9984 111.087 44.1037C108.012 45.4694 104.671 46.1362 101.307 46.0561C95.4989 46.0561 90.9985 44.558 87.8059 41.5619C86.1525 39.8752 84.8515 37.8763 83.9787 35.6817C83.1059 33.487 82.6788 31.1405 82.7223 28.7791V23.2534V17.5251C82.6889 15.1701 83.1245 12.8319 84.0036 10.6468C84.8827 8.46176 86.1877 6.47342 87.8427 4.79759L88.6347 4.11609L93.1658 11.9994C92.3362 13.8151 91.903 15.7867 91.8949 17.783V23.0876V28.5028C92.0975 35.2994 95.284 38.7069 101.307 38.7069C103.477 38.8008 105.624 38.2288 107.459 37.0676C109.217 35.706 110.4 33.7341 110.774 31.5419C110.878 31.0852 111.093 30.6612 111.401 30.3079C111.724 30.0518 112.131 29.9268 112.543 29.9579H118.768ZM16.9482 0.892765H14.7563V8.26036H16.5982C19.4107 8.02181 22.2037 8.90207 24.3711 10.7101C26.1919 12.8403 27.1162 15.5934 26.9497 18.3908C26.9497 20.0163 27.0056 21.2584 27.0438 22.1064V22.1065V22.1065C27.0636 22.546 27.0786 22.8797 27.0786 23.1061C27.0786 23.7691 27.0786 25.3532 26.9497 27.895C27.148 30.7254 26.2734 33.5267 24.5 35.7415C22.3819 37.5002 19.6532 38.3479 16.9114 38.0991H8.93595V0.892765H1.56836C1.36326 0.883199 1.15849 0.917706 0.967858 0.993961C0.777222 1.07022 0.605144 1.18645 0.463221 1.33482C0.1705 1.64195 0.0115274 2.05263 0.021166 2.4768V43.9748C0.0175878 44.1764 0.0549153 44.3766 0.130894 44.5634C0.206872 44.7502 0.319925 44.9196 0.463221 45.0615C0.600959 45.2051 0.767043 45.3186 0.950943 45.3947C1.13484 45.4708 1.33255 45.5079 1.53152 45.5035H17.2613C23.5422 45.5035 28.1838 44.1037 31.1861 41.2672C34.1884 38.4306 35.7908 34.0653 35.9566 28.116C35.9566 26.547 36.0087 25.3129 36.0467 24.4138V24.4138L36.0467 24.4137C36.0684 23.8985 36.0855 23.4933 36.0855 23.1981C36.0855 22.3877 36.0855 20.6932 35.9566 18.225C35.711 6.65791 29.3749 0.880486 16.9482 0.892765ZM69.1107 27.2135L78.3202 43.4775C78.4439 43.6907 78.5134 43.931 78.5228 44.1774C78.5231 44.3578 78.4856 44.5362 78.4126 44.7012C78.3397 44.8662 78.2329 45.014 78.0992 45.1352C77.8571 45.3697 77.5337 45.5017 77.1967 45.5035H71.4684C70.8998 45.5405 70.3371 45.3704 69.8843 45.0246C69.4834 44.6744 69.1468 44.2567 68.8897 43.7906L60.8038 28.687H52.0916V43.9748C52.0952 44.1764 52.0578 44.3766 51.9819 44.5634C51.9059 44.7502 51.7928 44.9196 51.6495 45.0615C51.4993 45.209 51.3205 45.3243 51.1241 45.4003C50.9278 45.4763 50.718 45.5114 50.5076 45.5035H44.6872C44.4873 45.5036 44.2893 45.4639 44.1049 45.3868C43.9204 45.3098 43.7531 45.1969 43.6126 45.0547C43.4721 44.9125 43.3612 44.7438 43.2864 44.5584C43.2116 44.373 43.1744 44.1746 43.1768 43.9748V2.47681C43.1572 2.05779 43.3027 1.64778 43.582 1.33483C43.7239 1.18646 43.896 1.07023 44.0867 0.993973C44.2773 0.917719 44.4821 0.883211 44.6872 0.892777H52.0547V21.5036H60.8038C62.8455 21.6646 64.8741 21.0606 66.4952 19.8091C67.1445 19.171 67.6459 18.3983 67.9641 17.5454C68.2823 16.6925 68.4097 15.7802 68.3371 14.8728C68.4045 13.9547 68.275 13.0328 67.9574 12.1688C67.6397 11.3048 67.1412 10.5186 66.4952 9.86282C64.8997 8.55048 62.8657 7.89224 60.8038 8.02092H57.8567V0.83752H60.9695C65.3303 0.585136 69.6389 1.89076 73.1261 4.52132C74.6046 5.78857 75.7697 7.38086 76.5303 9.17351C77.2908 10.9662 77.626 12.9105 77.5098 14.8544C77.6024 17.624 76.8298 20.3537 75.2995 22.664C73.7731 24.8002 71.6051 26.394 69.1107 27.2135Z" fill="#564499"/>
</svg>
