<svg width="121" height="118" viewBox="0 0 121 118" fill="none" xmlns="http://www.w3.org/2000/svg">
<path fill-rule="evenodd" clip-rule="evenodd" d="M120.022 0.853516H0.0214844V117.451H120.022V0.853516ZM74.0088 114.448V109.78L95.1015 109.771C97.2295 109.771 98.963 107.547 98.963 104.804L107.974 12.637C107.974 9.89288 105.845 7.66687 103.237 7.66687H15.2274C12.6014 7.66687 10.4733 9.89287 10.4733 12.637L19.5866 104.804C19.5866 107.547 21.32 109.771 23.4481 109.771H45.2272V114.448H74.0088ZM26.5032 21.1615H85.4222C79.6211 23.3361 61.961 35.2931 57.5504 43.3323H26.5549L26.5032 21.1615ZM72.5847 112.764C72.5847 102.494 72.619 92.7172 73.46 84.6884H48.3168C47.476 92.7172 47.0469 102.494 47.0469 112.764H72.5847ZM33.952 73.0865V76.1982H29.8673V79.3113H33.952V82.878H24.6154V66.2801H33.952V69.977H29.8673V73.0865H33.952ZM55.6621 76.1982V73.0865H51.5951V69.977H55.6621V66.2801H46.3433V82.878H55.6621V79.3113H51.5951V76.1982H55.6621ZM79.5863 73.0865V76.1982H75.5016V79.3113H79.5863V82.878H70.2498V66.2801H79.5863V69.977H75.5016V73.0865H79.5863ZM40.9539 79.3113V66.2801H35.7021V82.878H45.0382V79.3113H40.9539ZM63.1967 77.4978L61.2054 66.2801H56.6235L59.2317 82.878H65.9766L69.1345 66.2801H65.2386L63.1967 77.4978ZM86.8468 66.2801H81.8005V82.8762H86.8468V71.2037C87.1245 69.3905 89.6953 69.8781 89.6953 70.9155V82.8778H94.7582V68.8098C94.7582 65.8269 90.5533 64.6272 86.8806 67.2532L86.8468 71.1425V66.2801ZM93.4713 44.4974C85.0446 47.2211 76.3433 57.594 75.8285 63.9459L51.9555 63.8841C55.2162 46.0541 70.285 30.3658 93.4713 19.9926V44.4974Z" fill="white"/>
</svg>
