<svg width="120" height="97" viewBox="0 0 120 97" fill="none" xmlns="http://www.w3.org/2000/svg">
<path fill-rule="evenodd" clip-rule="evenodd" d="M38.9878 0.152344H120L119.974 96.1018H0V33.486L31.3543 59.6935H110.08L38.9878 0.152344ZM7.66094 72.0156V86.3047H12.7197V78.9665H18.9592V76.3925H12.7197V71.9838H19.3011V69.4537H9.9442C7.66051 69.4532 7.66071 70.671 7.66093 71.9771L7.66094 72.0156ZM57.832 69.4531H52.9363V86.3041H57.832V69.4531ZM36.8891 80.2129C36.8901 80.537 36.8911 80.8528 36.8911 81.1434C36.8913 82.7552 36.9015 84.6224 39.0773 85.9526C40.7645 86.9843 45.4104 87.3403 47.5942 85.9437C49.5781 84.6742 49.8829 82.7507 49.8829 80.6149V69.4531H44.9851C44.9851 69.4531 44.988 81.2391 44.9851 82.5328C44.9821 83.8265 44.5441 84.3604 43.2131 84.3413C41.5965 84.3186 41.5979 83.0532 41.5985 82.4612V82.4275V80.0163H36.8885L36.8891 80.2129ZM92.9383 86.3044H85.3397C83.5762 86.3044 82.4837 86.2507 82.488 84.0049C82.4913 82.4334 82.488 69.4531 82.488 69.4531H87.3787V83.7883H92.9383V86.3044ZM94.231 69.4531V86.3044H96.9294V74.4618L100.221 86.3044H104.311L107.52 74.377L107.515 86.3044H112.265V69.4531H105.535L102.583 80.5141L99.6789 69.4531H94.231ZM20.9151 69.4531H25.7368V82.091C25.7368 83.1762 25.9111 83.6715 26.4285 83.9705C27.2951 84.4716 28.9908 84.4711 29.8611 83.9844C30.3422 83.7148 30.6103 83.3343 30.6143 82.1699C30.6183 80.8736 30.6143 69.4531 30.6143 69.4531H35.4191V80.4901L35.4192 80.5969C35.4204 81.4763 35.4228 83.2496 34.8053 84.2826C34.2818 85.1577 33.4169 85.9854 31.8774 86.417C29.7628 87.0098 26.5501 86.9956 24.579 86.4033C22.4461 85.7627 20.9189 84.4907 20.9149 81.7308C20.9104 78.9711 20.9151 69.4531 20.9151 69.4531ZM61.0153 72.0155V86.3046H66.0738V78.9664H72.3133V76.3924H66.0738V71.9837H72.6547V69.4536H63.2981C61.0148 69.4531 61.015 70.6707 61.0153 71.9767V72.0155ZM79.2976 69.4531H74.402V86.3041H79.2976V69.4531ZM14.8058 21.5643H18.3958V27.5715C18.3958 27.944 18.4208 28.3158 18.4709 28.6855C18.5638 29.3676 18.9235 29.9846 19.4713 30.4019C19.8285 30.6731 20.2495 30.847 20.6934 30.9075C20.9839 30.9471 21.2763 30.9709 21.5689 30.9801C23.5511 31.0371 25.5337 31.0371 27.5161 30.9801C27.8085 30.9709 28.1009 30.9473 28.3909 30.9075C29.073 30.8151 29.6905 30.4554 30.1069 29.9071C30.3787 29.5504 30.5533 29.1296 30.6132 28.6853C30.6631 28.3158 30.6886 27.9438 30.6886 27.5713V17.562H26.2728V26.1287C26.2728 26.2788 26.2582 26.4286 26.229 26.5759C26.1991 26.7295 26.1315 26.8734 26.032 26.9938C25.8732 27.1868 25.6445 27.3091 25.3961 27.3336C24.8281 27.3897 24.2565 27.3897 23.688 27.3336C23.5327 27.3187 23.3836 27.2646 23.2535 27.1778C23.0467 27.0374 22.9029 26.8211 22.8549 26.5759C22.8264 26.4286 22.8118 26.2788 22.8118 26.1287V17.562H14.8058V15.0045H46.0131L37.8849 8.18464H10.9713C10.6278 8.18464 10.2848 8.21315 9.94598 8.27063C9.29028 8.38184 8.70574 8.74915 8.32123 9.29081C8.10282 9.59828 7.95675 9.95098 7.89384 10.3228C7.83635 10.6618 7.80761 11.0049 7.80761 11.3481V31.0166H14.8056L14.8058 21.5643ZM33.1935 17.562V27.6868C33.1935 28.2294 33.1608 28.771 33.0953 29.3101C32.9928 30.1465 32.6651 30.9398 32.1453 31.6033C31.3886 32.5702 30.2784 33.1969 29.0596 33.3458C28.5203 33.4113 27.9789 33.4448 27.4358 33.4448H10.7039L15.659 37.6025H28.5971C29.569 37.6025 30.5383 37.4899 31.4847 37.2687C33.4902 36.7996 35.2271 35.5527 36.3127 33.8024C36.7587 33.0845 37.0839 32.2997 37.2764 31.477C37.4981 30.5308 37.6098 29.5613 37.6098 28.5894V17.562H33.1935ZM40.0635 17.562H44.4795V31.0164H40.0635V17.562ZM46.9331 40.0295H18.5521L26.4311 46.6411H50.2955C50.7363 46.6411 51.1764 46.6027 51.6116 46.5275C52.2661 46.413 52.8487 46.0431 53.2311 45.5C53.4057 45.2517 53.5334 44.9739 53.609 44.6804C53.6465 44.5331 53.6778 44.3852 53.7023 44.2351C53.7688 43.827 53.8025 43.4145 53.8025 43.0007V21.5412L46.9331 15.7766V40.0295Z" fill="white"/>
</svg>
