<svg width="121" height="118" viewBox="0 0 121 118" fill="none" xmlns="http://www.w3.org/2000/svg">
<path fill-rule="evenodd" clip-rule="evenodd" d="M120.021 0.853271H0.020752V117.451H120.021V0.853271ZM74.0081 114.448V109.78L95.1008 109.771C97.2288 109.771 98.9623 107.547 98.9623 104.804L107.973 12.6368C107.973 9.89264 105.844 7.66663 103.236 7.66663H15.2267C12.6007 7.66663 10.4726 9.89263 10.4726 12.6368L19.5859 104.804C19.5859 107.547 21.3193 109.771 23.4474 109.771H45.2265V114.448H74.0081ZM26.5025 21.1613H85.4215C79.6204 23.3359 61.9603 35.2929 57.5497 43.3321H26.5542L26.5025 21.1613ZM72.584 112.764C72.584 102.494 72.6183 92.717 73.4593 84.6882H48.3161C47.4753 92.717 47.0462 102.494 47.0462 112.764H72.584ZM33.9513 73.0863V76.198H29.8666V79.3111H33.9513V82.8778H24.6147V66.2799H33.9513V69.9768H29.8666V73.0863H33.9513ZM55.6614 76.198V73.0863H51.5944V69.9768H55.6614V66.2799H46.3426V82.8778H55.6614V79.3111H51.5944V76.198H55.6614ZM79.5856 73.0863V76.198H75.5009V79.3111H79.5856V82.8778H70.2491V66.2799H79.5856V69.9768H75.5009V73.0863H79.5856ZM40.9532 79.3111V66.2799H35.7014V82.8778H45.0375V79.3111H40.9532ZM63.196 77.4976L61.2047 66.2799H56.6228L59.231 82.8778H65.9759L69.1338 66.2799H65.2379L63.196 77.4976ZM86.8461 66.2799H81.7998V82.876H86.8461V71.2035C87.1238 69.3903 89.6946 69.8779 89.6946 70.9153V82.8776H94.7575V68.8096C94.7575 65.8267 90.5526 64.627 86.8799 67.253L86.8461 71.1423V66.2799ZM93.4706 44.4972C85.0439 47.2209 76.3426 57.5938 75.8278 63.9457L51.9548 63.8839C55.2155 46.0539 70.2843 30.3656 93.4706 19.9924V44.4972Z" fill="#564499"/>
</svg>
