<svg width="172" height="121" viewBox="0 0 172 121" fill="none" xmlns="http://www.w3.org/2000/svg">
<path fill-rule="evenodd" clip-rule="evenodd" d="M53.9479 3.11875C58.627 3.11875 62.4152 6.89199 62.4152 11.5411C62.4152 16.1901 58.627 19.9634 53.9479 19.9634C49.2689 19.9634 45.4686 16.1961 45.4686 11.5411C45.4686 6.88599 49.2719 3.11875 53.9479 3.11875ZM53.6 25.5692C60.6546 25.5692 66.3714 19.8704 66.3714 12.8578C66.3714 5.8452 60.6546 0.152344 53.6 0.152344C46.5454 0.152344 40.8226 5.8422 40.8226 12.8578C40.8226 19.8734 46.5424 25.5692 53.6 25.5692ZM43.0181 37.7618C44.3588 39.6604 47.0373 36.502 46.8003 35.9201C46.5664 35.3353 41.6893 35.8691 43.0181 37.7618ZM165.807 89.6844C168.213 89.6844 170.162 91.6071 170.162 94.0006C170.162 96.3941 168.213 98.3227 165.807 98.3227C163.402 98.3227 161.47 96.3791 161.47 94.0006C161.47 91.622 163.408 89.6844 165.807 89.6844ZM165.819 88.8176C162.967 88.8176 160.612 91.1092 160.612 93.9976C160.612 96.886 162.943 99.1745 165.819 99.1745C168.695 99.1745 171.02 96.844 171.02 93.9976C171.02 91.1511 168.677 88.8176 165.819 88.8176ZM163.596 96.796H164.502V94.4385H165.033C165.756 94.4385 166.026 94.7144 166.701 95.9202L167.199 96.796H168.3L167.619 95.7162C166.923 94.6064 166.641 94.4355 166.32 94.3185V94.2915C167.481 94.2255 167.913 93.3557 167.913 92.7378C167.913 92.2849 167.7 91.889 167.376 91.625C166.911 91.2261 166.176 91.2261 165.531 91.2261H163.596V96.796ZM164.502 91.994H165.531C166.08 91.994 166.953 91.994 166.953 92.8248C166.953 93.6556 166.026 93.6676 165.6 93.6676H164.502V91.994ZM133.219 103.542V119.079H133.222C133.222 119.63 133.063 119.657 132.574 119.657H130.822C130.333 119.657 130.333 119.531 130.333 119.079V103.542C130.333 103.119 130.333 102.93 130.885 102.93H132.571C133.09 102.93 133.219 103.029 133.219 103.542ZM131.827 96.664C132.73 96.664 133.51 97.3179 133.54 98.2837C133.567 99.1835 132.874 100.056 131.782 100.056C130.69 100.056 130.033 99.2855 130.033 98.3797C130.033 97.3779 130.789 96.664 131.827 96.664ZM123.642 116.949C123.642 117.792 122.277 118.239 120.783 118.239C117.637 118.239 115.396 115.623 115.396 111.139C115.396 107.228 117.538 104.612 120.525 104.612C122.22 104.612 123.024 105.128 123.645 105.647V116.949H123.642ZM126.497 117.885V97.6089C126.497 97.024 126.338 96.955 125.849 96.955H124.251C123.708 96.955 123.639 97.153 123.639 97.6689V103.524C122.628 103.002 121.623 102.645 120.093 102.645C115.063 102.645 112.472 107.393 112.472 111.364C112.472 117.249 115.747 120.149 120.69 120.149C123.114 120.149 126.494 118.95 126.494 117.885H126.497ZM83.4615 119.016V107.87C83.4615 105.971 83.4315 102.549 76.9078 102.549C74.4363 102.549 72.7507 103.032 71.8418 103.323C70.7381 103.677 70.3811 104.094 70.3811 104.645V119.046C70.3811 119.597 70.5431 119.66 71.002 119.66H72.5917C73.0446 119.66 73.2755 119.6 73.2755 119.016V105.776C73.2755 105.029 74.4993 104.295 76.7788 104.295C80.5701 104.295 80.5701 106.715 80.5701 108.233V119.016C80.5701 119.6 80.768 119.66 81.2869 119.66H83.0746C83.4285 119.6 83.4615 119.304 83.4615 119.016ZM97.6523 111.364C97.6523 114.4 97.0344 116.361 96.1286 117.207C95.2498 118.05 94.4369 118.272 93.2972 118.272C92.1574 118.272 91.3536 118.047 90.4838 117.207C89.5689 116.361 88.9541 114.4 88.9541 111.364C88.9541 108.329 89.5689 106.331 90.4838 105.479C91.3566 104.648 92.1664 104.421 93.2972 104.421C94.4279 104.421 95.2498 104.648 96.1286 105.479C97.0344 106.334 97.6523 108.293 97.6523 111.364ZM100.648 111.364C100.648 107.489 99.41 105.002 97.5323 103.746C96.3596 102.939 94.7969 102.549 93.3002 102.549C91.8035 102.549 90.2558 102.939 89.089 103.746C87.2084 105.005 85.9727 107.492 85.9727 111.364C85.9727 115.236 87.2054 117.69 89.089 118.953C90.2588 119.759 91.8185 120.152 93.3002 120.152C94.7819 120.152 96.3596 119.759 97.5323 118.953C99.413 117.693 100.648 115.206 100.648 111.364ZM107.999 102.549C110.234 102.549 112.216 103.059 112.216 104.226C112.216 105.158 111.605 105.683 110.858 105.683C110.389 105.683 110.062 105.412 109.684 105.098C109.166 104.669 108.552 104.16 107.348 104.16C106.377 104.16 105.696 104.744 105.696 105.617V119.115C105.696 119.633 105.498 119.66 105.105 119.66H103.452C102.996 119.66 102.798 119.633 102.798 119.115V104.385C102.798 103.833 103.191 103.356 104.298 103.059C105.141 102.837 106.245 102.549 107.999 102.549ZM152.118 119.175V97.315C152.118 96.8531 151.896 96.8531 151.5 96.8531H149.784C149.427 96.8531 149.232 96.9191 149.232 97.375V119.142C149.232 119.591 149.328 119.654 149.784 119.654H151.5C151.956 119.654 152.118 119.654 152.118 119.175ZM162.025 119.301C162.025 119.163 161.95 119.07 161.842 118.935C161.828 118.917 161.813 118.898 161.797 118.878L155.633 110.779L155.6 110.743C157.745 109.163 160.012 106.646 161.386 103.932C161.539 103.611 161.566 103.482 161.566 103.287C161.566 102.996 161.404 102.93 160.984 102.93H159.457H159.375C158.851 102.928 158.61 102.928 158.453 103.419C157.544 106.19 155.144 109.163 152.706 110.581C152.613 110.65 152.58 110.743 152.58 110.779C152.58 110.845 152.613 110.905 152.643 110.941L158.423 119.178C158.75 119.657 158.875 119.657 159.391 119.657H161.599C161.701 119.657 162.025 119.63 162.025 119.301ZM142.342 110.088C144.522 111.062 146.953 112.148 146.954 115.142C146.953 118.599 143.897 120.149 140.979 120.149C138.351 120.149 135.748 119.013 135.748 117.69C135.748 116.853 136.435 116.625 136.984 116.625C137.436 116.625 137.814 116.908 138.26 117.242C138.899 117.721 139.678 118.305 141.015 118.305C143.282 118.305 144.353 116.79 144.353 115.467C144.353 113.702 142.634 112.992 140.764 112.219L140.721 112.201C138.351 111.202 136.375 110.008 136.375 107.231C136.375 104.229 138.963 102.648 141.918 102.648C144.158 102.648 146.267 103.356 146.267 104.582C146.267 105.422 145.586 105.713 145.097 105.713C144.69 105.713 144.354 105.494 143.965 105.24C143.433 104.893 142.802 104.48 141.753 104.48C139.938 104.48 138.963 105.743 138.963 106.97C138.963 108.578 140.57 109.296 142.342 110.088ZM14.0529 119.016V107.87C14.0529 105.971 14.0199 102.549 7.49621 102.549C5.02771 102.549 3.33904 103.032 2.43323 103.323C1.32945 103.677 0.978516 104.094 0.978516 104.645V119.046C0.978516 119.597 1.13749 119.66 1.5904 119.66H3.18308C3.63599 119.66 3.86994 119.6 3.86994 119.016V105.776C3.86994 105.029 5.10269 104.295 7.37024 104.295C11.1645 104.295 11.1645 106.715 11.1645 108.233V119.016C11.1645 119.6 11.3655 119.66 11.8844 119.66H13.669C14.0229 119.6 14.0559 119.304 14.0559 119.016H14.0529ZM26.7224 117.207C27.6312 116.361 28.2491 114.4 28.2491 111.364C28.2491 108.293 27.6312 106.334 26.7224 105.479C25.8466 104.648 25.0247 104.421 23.894 104.421C22.7632 104.421 21.9504 104.648 21.0715 105.479C20.1657 106.331 19.5508 108.329 19.5508 111.364C19.5508 114.4 20.1657 116.361 21.0715 117.207C21.9504 118.047 22.7542 118.272 23.894 118.272C25.0337 118.272 25.8436 118.05 26.7224 117.207ZM28.1171 103.746C29.9948 105.002 31.2335 107.489 31.2335 111.364C31.2335 115.206 29.9977 117.693 28.1171 118.953C26.9474 119.759 25.3847 120.152 23.894 120.152C22.4033 120.152 20.8496 119.759 19.6798 118.953C17.7962 117.69 16.5664 115.236 16.5664 111.364C16.5664 107.492 17.7962 105.005 19.6798 103.746C20.8466 102.939 22.4003 102.549 23.894 102.549C25.3877 102.549 26.9474 102.939 28.1171 103.746ZM57.907 111.364C57.907 114.4 57.2922 116.361 56.3743 117.207C55.4955 118.05 54.6887 118.272 53.5489 118.272C52.4091 118.272 51.6023 118.047 50.7235 117.207C49.8147 116.361 49.1998 114.4 49.1998 111.364C49.1998 108.329 49.8117 106.331 50.7235 105.479C51.5993 104.648 52.4181 104.421 53.5489 104.421C54.6797 104.421 55.4955 104.648 56.3743 105.479C57.2892 106.334 57.907 108.293 57.907 111.364ZM60.8884 111.364C60.8884 107.489 59.6527 105.002 57.7691 103.746C56.5993 102.939 55.0486 102.549 53.5489 102.549C52.0492 102.549 50.4955 102.939 49.3288 103.746C47.4481 105.005 46.2124 107.492 46.2124 111.364C46.2124 115.236 47.4511 117.69 49.3288 118.953C50.4955 119.759 52.0552 120.152 53.5489 120.152C55.0426 120.152 56.5993 119.759 57.7691 118.953C59.6557 117.693 60.8884 115.206 60.8884 111.364ZM45.5227 102.933C45.6877 102.933 45.9456 102.933 45.9456 103.263L45.9426 103.257C45.9426 103.317 45.9426 103.38 45.8137 103.77L40.1358 119.175C39.9738 119.63 39.9018 119.654 39.5179 119.654H38.2462C37.9912 119.63 37.9222 119.528 37.7603 119.142L31.8874 103.773C31.8125 103.611 31.7585 103.452 31.7585 103.32C31.7585 102.933 32.0794 102.933 32.2144 102.933H34.191C34.6799 102.933 34.7459 102.999 34.9048 103.452L39.29 115.686L43.5101 103.386C43.6091 103.062 43.6691 102.963 43.9 102.933H45.5227ZM114.371 75.0593C114.539 76.556 115.247 75.9651 115.34 75.2422H115.337C115.727 72.2638 116.383 57.4078 114.512 55.4432C114.251 55.1703 113.819 55.1583 113.792 55.5362C113.665 57.1702 113.456 58.9294 113.259 60.5821C112.929 63.3526 112.635 65.8237 112.826 66.9039C112.941 67.5544 113.14 68.5209 113.359 69.584C113.761 71.5356 114.229 73.8127 114.371 75.0593ZM107.637 63.6526C109.35 62.8997 110.451 55.9021 110.757 50.9531V50.9561L110.769 50.7546C111.067 45.892 111.309 41.9625 105.217 42.5098C106.677 45.4912 106.983 48.7696 104.254 50.6352C101.527 52.4978 99.5841 51.595 99.5841 49.8493C99.5841 48.2387 99.3142 45.7762 97.3556 43.4816C96.4168 43.6076 95.6129 43.6916 94.6681 43.7816C95.241 46.469 95.9609 51.418 93.8763 53.4396C91.7917 55.4642 85.9669 55.6622 79.9411 55.1883C78.7893 55.0953 77.3706 54.6334 76.7527 53.2297C76.4408 52.5188 75.9939 50.7792 75.8439 43.1667C74.8061 43.0017 73.9933 42.8547 72.9645 42.6448C71.8667 49.9873 69.3772 52.7288 66.7617 53.3436C64.1432 53.9585 61.1648 53.3796 61.6987 50.7162C61.8522 49.9573 62.0664 49.1789 62.2993 48.3327C62.8716 46.2526 63.5566 43.7632 63.7293 40.1493C63.6325 40.1128 63.5385 40.0773 63.4473 40.0429C60.5617 38.9537 60.4059 38.8949 59.6442 39.9183C53.9873 47.5278 52.8655 51.697 53.3634 54.7983C53.8613 57.8937 56.5338 61.0671 60.535 63.3826C60.8616 63.5718 61.178 63.7542 61.4852 63.9312C64.9381 65.9217 67.2234 67.239 69.7161 69.9273C69.9951 70.2302 70.373 70.3532 70.475 69.6994C71.8697 60.7312 79.4642 59.4354 89.3442 59.6124C98.6684 59.7772 102.939 61.8739 105.259 63.0126C106.402 63.5736 107.071 63.902 107.637 63.6526ZM50.3619 52.966C49.8267 52.2646 49.227 51.1678 48.6036 50.0276C47.6659 48.3125 46.6747 46.4995 45.7689 45.7882C44.1313 44.4997 42.6182 44.5097 41.4063 44.5176C40.4739 44.5237 39.7198 44.5287 39.2242 43.9405C39.0472 43.7285 38.8854 43.5451 38.7418 43.3822C37.9018 42.4301 37.6802 42.1788 38.6484 40.9981C38.6484 40.9981 39.9231 39.3035 40.457 38.5896C40.7966 38.1337 40.8789 37.4084 40.9494 36.7872C40.9898 36.4317 41.0263 36.1104 41.1049 35.8931C41.3178 35.2993 42.6436 33.5566 43.9423 32.4288C45.376 31.1871 46.5578 31.733 51.0749 34.4474C52.6317 35.3824 53.8819 35.9947 54.8313 36.4597C57.229 37.6342 57.7079 37.8687 56.3628 39.9873C56.204 40.2371 55.9974 40.5427 55.7561 40.8993C54.1935 43.2097 51.1817 47.6624 50.3619 52.966ZM66.0749 40.9081C65.7329 43.8086 65.0731 47.3628 64.4312 49.4834C63.7893 51.601 65.613 51.409 66.4588 51.0701C67.5596 50.6322 69.6441 48.7696 70.6879 42.1469C69.1372 41.784 67.5986 41.37 66.0749 40.9081ZM91.9837 51.7959C93.0875 50.6832 93.1834 46.8649 92.4036 43.9585C87.6135 44.2615 82.7965 44.1055 78.0365 43.4846C78.0579 43.9253 78.0781 44.4086 78.0992 44.9151C78.1877 47.0322 78.2932 49.5555 78.5764 51.0731C78.8643 52.6538 79.5392 52.7678 80.118 52.8547C82.3856 53.1937 90.247 53.5506 91.9837 51.7959ZM104.122 47.8097C104.512 46.58 104.437 45.1403 103.087 42.6838C101.935 42.8097 100.781 42.9807 99.6321 43.1547C100.877 44.9633 101.593 46.9639 101.638 49.6034C102.016 49.7354 103.738 49.0425 104.122 47.8097ZM105.31 40.0053C109.041 39.7234 116.033 39.9723 117.751 48.0137L117.76 48.0107C118.89 53.3003 118.884 68.0318 118.877 83.0098C118.876 84.1688 118.876 85.3293 118.876 86.487C118.876 86.5358 118.876 86.5838 118.876 86.6309C118.879 87.6486 118.88 88.289 117.619 88.2746C113.498 88.2326 113.324 88.4036 112.94 89.4744C112.454 90.832 112.244 91.6581 111.952 92.8113C111.873 93.1232 111.788 93.4589 111.689 93.8355C111.308 95.2752 111.03 95.8031 110.058 95.8031H104.845C104.053 95.8031 103.621 94.8313 104.314 93.5926C110.946 81.685 110.472 72.4228 106.554 67.3658L106.438 67.8001C105.273 72.1619 104.75 74.1172 104.149 74.5674C96.6558 80.1714 92.6109 91.7196 91.7778 94.0981C91.7155 94.2758 91.6712 94.4024 91.6447 94.4714C91.2638 95.4642 90.7689 95.8061 89.5332 95.8061C89.1162 95.8061 87.8645 95.8076 86.622 95.8091C85.3977 95.8106 84.1823 95.8121 83.7833 95.8121C82.1696 95.8121 82.2236 94.5884 83.2494 93.5056C92.2056 84.0395 94.4702 80.4522 97.0796 72.4258C99.7191 64.3244 93.5434 61.7689 88.7923 65.9681C76.5068 60.4042 73.2404 67.6508 73.9663 71.7209C74.4752 74.5674 75.6082 78.2875 76.739 82.0005C78.1677 86.6915 79.5931 91.3714 79.7521 94.2644C79.8211 95.5332 78.6843 95.8031 77.9885 95.8031H72.5086C71.027 95.8031 71.3438 94.5898 71.5491 93.8032C71.5795 93.6869 71.6074 93.5799 71.6267 93.4876C74.3982 80.2452 68.7383 72.6538 63.0365 69.1265C59.6352 71.604 55.1361 86.1181 54.5992 94.0065C54.5392 94.9123 54.0713 95.8001 53.2224 95.8001C53.0591 95.8001 52.6996 95.8008 52.2284 95.8016C50.6487 95.8044 47.8136 95.8094 46.9057 95.8001C45.8679 95.7881 45.7119 94.6573 46.4798 93.2806C49.7251 87.4918 54.8301 78.3556 54.7311 68.6976L54.7309 68.6473C54.725 67.4825 54.7085 64.2317 53.1774 62.4198C50.643 59.4047 48.9202 55.9487 47.4805 53.0605C46.9437 51.9837 46.4463 50.9859 45.9609 50.1193C44.7281 47.9207 43.1535 47.1889 41.9027 46.9609C41.3857 46.8668 40.91 46.8733 40.4539 46.8795C39.7908 46.8886 39.1692 46.8971 38.5224 46.595C37.7635 46.2426 37.2567 45.5903 36.7181 44.8968C36.4818 44.5927 36.2394 44.2806 35.9669 43.9825C35.2231 43.1637 34.6862 41.9939 35.565 40.8841C35.9174 40.4419 36.2425 40.0423 36.5377 39.6796C37.5337 38.4554 38.1882 37.6511 38.3964 37.0449C38.6019 36.4532 38.617 36.0978 38.6349 35.6741C38.6408 35.5351 38.647 35.3887 38.6604 35.2243C38.7046 34.6378 39.8589 33.2475 41.0005 31.8724C41.0966 31.7567 41.1926 31.641 41.2878 31.526C41.7527 30.9651 41.3658 30.0113 40.529 29.0455C39.6952 28.0767 37.1967 24.6754 37.1967 19.0665C37.1967 16.841 37.9855 16.9549 38.5374 18.4696C39.0953 19.9903 41.5278 26.0131 47.8175 28.2387C54.1043 30.4672 59.7161 28.6466 63.6693 25.3982C65.1301 24.1985 65.634 24.8853 64.3112 27.0269C62.5836 29.8224 59.7431 31.46 56.4768 33.2237C56.4301 33.249 56.383 33.2739 56.3365 33.2986C55.6983 33.6367 55.1427 33.9311 56.5488 34.5824C65.262 38.6076 76.5877 41.439 86.7167 41.439C92.0517 41.439 97.2962 40.857 101.256 40.4175C102.837 40.242 104.214 40.0892 105.31 40.0053Z" fill="white"/>
</svg>
