<svg width="120" height="36" viewBox="0 0 120 36" fill="none" xmlns="http://www.w3.org/2000/svg">
<path fill-rule="evenodd" clip-rule="evenodd" d="M96.573 6.43378C96.573 3.20031 99.1942 0.579102 102.428 0.579102C105.661 0.579102 108.282 3.20031 108.282 6.43378C108.282 9.66719 105.661 12.2884 102.428 12.2884C99.1942 12.2884 96.573 9.66719 96.573 6.43378ZM62.9942 31.842C63.5218 31.842 64.4137 31.796 65.279 31.7514L65.4114 31.7446C65.8347 31.7446 66.017 31.9436 66.017 32.295V34.9661C66.0413 35.2714 65.8177 35.5403 65.5133 35.5715C64.6071 35.6223 63.4475 35.6689 62.791 35.6689C57.7578 35.6689 54.0325 32.9511 54.0325 26.779V3.29264C54.0112 3.12795 54.0678 2.96274 54.1856 2.84574C54.3035 2.72874 54.4691 2.67329 54.6336 2.69574H57.2541C57.5547 2.69574 57.7578 2.89894 57.8088 3.25031L58.1597 9.342H64.7045C64.855 9.32604 65.005 9.37867 65.1126 9.48542C65.2201 9.5921 65.2739 9.74157 65.2591 9.89235V12.4323C65.2591 12.8345 65.0605 13.0377 64.7045 13.0377H58.1597V26.5842C58.1597 29.882 59.87 31.842 62.9942 31.842ZM0.147552 34.9739C0.255274 35.0816 0.405957 35.1348 0.557432 35.1186H3.58C3.98217 35.1186 4.18113 34.9154 4.18113 34.564L4.18112 13.1604C6.10235 12.5731 8.09879 12.2679 10.1077 12.2545C14.6374 12.2545 17.3044 14.2695 17.3044 19.5061V34.564C17.2881 34.7155 17.3413 34.8661 17.449 34.9739C17.5568 35.0816 17.7075 35.1348 17.8589 35.1186H20.8222C21.2244 35.1186 21.4234 34.9154 21.4234 34.564V19.4045C21.4234 11.6999 16.8429 8.52922 10.0951 8.52922C6.77375 8.53657 3.48708 9.2043 0.426199 10.4934C0.151461 10.6155 -0.0176785 10.8963 0.00286974 11.1962V34.564C-0.013359 34.7155 0.0398302 34.8661 0.147552 34.9739ZM47.8391 24.0908C48.1905 24.0908 48.3937 23.9088 48.3937 23.4854V18.5494C48.3937 11.6534 43.4111 8.52922 37.8697 8.52922C32.3284 8.52922 27.1934 11.6534 27.1934 18.5494V26.2074C27.1934 32.5531 32.3791 35.6731 37.819 35.6731C41.4725 35.7195 45.0173 34.431 47.7884 32.0494C48.0889 31.7954 48.1397 31.5457 47.89 31.2451L46.4295 29.3316C46.3535 29.1924 46.2192 29.0945 46.0634 29.065C45.9076 29.0355 45.7467 29.0774 45.6251 29.1792C43.7582 30.6397 41.3918 31.9986 37.9205 31.9986C34.191 31.9986 31.3716 29.9836 31.3716 26.2074V24.0908H47.8391ZM31.3716 18.5494C31.3716 14.2188 34.0936 12.2545 37.8697 12.2545C41.5442 12.2545 44.3636 14.2695 44.3636 18.5494V20.6661H31.3716V18.5494ZM68.8828 32.4473C71.7749 34.5642 75.272 35.6937 78.8563 35.6689C84.7451 35.6689 89.0753 32.9003 89.0629 27.7865C89.0629 22.1308 83.7756 20.9708 79.7494 20.1665C76.164 19.4554 73.2006 18.7018 73.2006 15.9332C73.2006 13.6642 75.3173 12.2545 78.8438 12.2545C81.3097 12.2943 83.7287 12.9336 85.8923 14.1171C86.0117 14.2142 86.1702 14.2483 86.3196 14.209C86.4685 14.1697 86.5896 14.0616 86.6456 13.9182L88.0085 11.6534C88.116 11.536 88.1556 11.3722 88.1143 11.2189C88.0736 11.0655 87.957 10.9436 87.8053 10.8956C85.147 9.34176 82.1219 8.5249 79.0425 8.5292C74.0093 8.5292 69.1239 10.794 69.1239 15.9332C69.1239 21.7709 75.3173 23.1806 78.9412 23.9384C81.7478 24.4929 84.8674 25.1449 84.8674 27.9642C84.8674 30.5847 82.3279 31.9944 78.9412 31.9944C76.0247 31.9548 73.2006 30.9649 70.8977 29.175C70.5462 28.9041 70.2966 28.9718 70.0934 29.3274L68.7345 31.643C68.6446 31.7683 68.6095 31.925 68.6372 32.0767C68.6655 32.2285 68.7538 32.3623 68.8828 32.4473ZM114.848 2.68728C112.779 2.68728 111.102 4.36463 111.102 6.43378C111.102 8.50289 112.779 10.1802 114.848 10.1802C116.917 10.1802 118.595 8.50289 118.595 6.43378C118.595 4.36463 116.917 2.68728 114.848 2.68728ZM109.696 18.8288C109.696 15.9835 112.003 13.6769 114.848 13.6769C117.694 13.6769 120 15.9835 120 18.8288C120 21.6741 117.694 23.9807 114.848 23.9807C112.003 23.9807 109.696 21.6741 109.696 18.8288ZM102.428 26.7705C99.9705 26.7705 97.9785 28.7625 97.9785 31.2197C97.9785 33.6769 99.9705 35.6689 102.428 35.6689C104.885 35.6689 106.877 33.6769 106.877 31.2197C106.877 28.7625 104.885 26.7705 102.428 26.7705Z" fill="white"/>
</svg>
