<svg width="240" height="74" viewBox="0 0 240 74" fill="none" xmlns="http://www.w3.org/2000/svg">
<path fill-rule="evenodd" clip-rule="evenodd" d="M0 73.4387V0.81543H24.3253V24.9057H48.4155V0.81543H72.7407V73.4387H48.4155V49.2309H24.3253V73.4387H0ZM10.6167 12.6438L17.8888 8.80632V5.55637H5.96762V8.46659H10.7788C11.0565 8.46659 11.342 8.45977 11.6298 8.44826C11.8122 8.43614 12.0027 8.43054 12.2048 8.42461C12.2712 8.42266 12.3389 8.42067 12.4079 8.4184C12.6838 8.41159 12.9404 8.40008 13.1676 8.37258L5.96762 12.1711V15.4073H17.8888V12.4993H13.9084C13.4995 12.4993 13.0946 12.5061 12.6985 12.5176C12.3937 12.5258 12.0794 12.5432 11.7477 12.5616L11.7476 12.5616L11.6298 12.5682C11.2562 12.5934 10.916 12.6186 10.6167 12.6438ZM11.9178 20.4957C10.6885 20.4957 9.79801 20.6862 9.249 21.0672C8.70046 21.4459 8.43146 21.9967 8.43146 22.7174C8.43146 23.445 8.70046 23.9935 9.249 24.3745C9.79801 24.7556 10.6885 24.9461 11.9178 24.9461C13.0884 24.9461 13.9661 24.751 14.5573 24.3653C15.1518 23.9798 15.4437 23.429 15.4437 22.7174C15.4437 22.0105 15.1518 21.4619 14.5573 21.0718C13.9661 20.6908 13.0884 20.4957 11.9178 20.4957ZM11.9275 17.3145C12.9654 17.3145 13.8688 17.4431 14.6409 17.7002C15.4102 17.9618 16.057 18.3268 16.5738 18.7973C17.0894 19.2677 17.4759 19.8347 17.7302 20.4957C17.9849 21.1613 18.1056 21.898 18.1056 22.7174C18.1056 23.5391 17.9849 24.2805 17.7302 24.9461C17.4759 25.6071 17.0894 26.1716 16.5738 26.6445C16.057 27.1127 15.4102 27.4777 14.6409 27.7278C13.8688 27.9848 12.9654 28.1088 11.9275 28.1088C10.9038 28.1088 10.0046 27.9757 9.23477 27.7117C8.46222 27.4455 7.81544 27.076 7.30086 26.5985C6.78122 26.1234 6.39702 25.5566 6.13858 24.9001C5.88841 24.2415 5.76492 23.5138 5.76492 22.7174C5.76492 21.9233 5.88841 21.1957 6.13858 20.5439C6.39702 19.8805 6.78122 19.316 7.30086 18.834C7.81544 18.3519 8.46222 17.9755 9.23477 17.7116C10.0046 17.4454 10.9038 17.3145 11.9275 17.3145ZM17.8888 33.4083H5.96762V30.2065H17.8888V33.4083ZM14.9972 35.8252C15.7767 36.0685 16.3936 36.4082 16.8481 36.8374C17.3048 37.2712 17.634 37.8037 17.824 38.4257C18.0164 39.0431 18.1118 39.734 18.1118 40.4936C18.1118 41.313 18.0058 42.059 17.7913 42.7222C17.5738 43.3856 17.2189 43.9501 16.7228 44.4206C16.2275 44.8889 15.5857 45.2492 14.7971 45.5063C14.0089 45.7588 13.0404 45.8827 11.8973 45.8827C10.8117 45.8827 9.88311 45.7611 9.11147 45.5131C8.34212 45.2653 7.70543 44.9096 7.20692 44.4459C6.70611 43.9823 6.33888 43.4108 6.10937 42.7268C5.88169 42.0474 5.76923 41.2717 5.76923 40.4018C5.76923 39.6444 5.83854 38.9902 5.98589 38.4394C6.13049 37.8909 6.33062 37.4341 6.58952 37.0555C6.84795 36.6837 7.15459 36.3899 7.5053 36.1695C7.84958 35.9514 8.23104 35.8046 8.64279 35.7196L9.59988 38.5404C9.08209 38.6735 8.73827 38.887 8.57715 39.1922C8.41694 39.4952 8.33569 39.945 8.33569 40.5487C8.33569 40.8838 8.37288 41.1868 8.45 41.4529C8.52711 41.717 8.6919 41.9419 8.94254 42.1301C9.18904 42.3183 9.54801 42.4652 10.0153 42.5639C10.4844 42.6694 11.1124 42.7222 11.8973 42.7222C12.6667 42.7222 13.2928 42.6579 13.7689 42.5387C14.244 42.417 14.6088 42.2517 14.8705 42.0383C15.1304 41.8295 15.302 41.5747 15.3938 41.2786C15.481 40.9871 15.527 40.6611 15.527 40.3122C15.527 39.8326 15.3769 39.4287 15.0767 39.1004C14.7764 38.7792 14.2168 38.5955 13.3989 38.5611V40.4225H11.1914V35.4672H12.0769C13.2492 35.4672 14.2187 35.5866 14.9972 35.8252ZM5.96762 56.2844H17.8888V47.2759H15.2668V53.085H13.0046V48.435H10.3803V53.085H8.58825V47.3861H5.96762V56.2844ZM9.13861 62.128C9.2933 62.089 9.47692 62.0729 9.69405 62.0729C9.87675 62.0729 10.0526 62.089 10.2201 62.128C10.3945 62.1647 10.5446 62.2428 10.6704 62.3644C10.7957 62.4838 10.8999 62.6697 10.9784 62.9153C11.0537 63.1654 11.0955 63.4982 11.0955 63.9045V65.4331H8.49642V63.8195C8.49642 63.4179 8.51754 63.1035 8.56115 62.8739C8.60245 62.6444 8.67361 62.4677 8.76771 62.3529C8.86778 62.2359 8.99263 62.1647 9.13861 62.128ZM13.493 63.8356L17.8888 61.5611V57.8773L12.6167 60.8014C12.2683 60.1955 11.8386 59.7089 11.3291 59.3371C10.821 58.9675 10.188 58.7839 9.43745 58.7839C8.80673 58.7839 8.26691 58.8643 7.82026 59.018C7.37408 59.1764 7.00868 59.4404 6.73143 59.8144C6.44958 60.1816 6.24715 60.6706 6.10943 61.2833C5.98044 61.8939 5.91296 62.6536 5.91296 63.5648V68.6532H17.8888V65.4331H13.493V63.8356ZM100.519 18.3529H103.942C105.914 18.3529 106.872 19.0933 106.872 20.4621C106.872 21.7764 106.46 23.0089 103.777 23.0089H100.519V18.3529ZM103.502 26.2106L107.226 33.0297H112.045L107.637 25.4464C109.661 24.8152 111.171 23.1742 111.171 20.4062C111.171 16.9863 108.787 14.9864 104.297 14.9864H96.4106V33.0297H100.519V26.2106H103.502ZM116.439 24.7051C116.522 23.2821 116.933 22.3777 118.362 22.3777C119.537 22.3777 120.054 23.1191 120.109 24.7051H116.439ZM118.44 29.9633C117.152 29.9633 116.386 29.0314 116.331 27.2788H124.3C124.3 23.064 123.503 19.0093 118.331 19.0093C114.388 19.0093 112.195 22.2676 112.195 26.2106C112.195 30.6472 114.471 33.3579 118.466 33.3579C121.205 33.3579 123.477 31.9899 124.079 28.8937L120.382 28.2396C120.162 29.1692 119.836 29.9633 118.44 29.9633ZM131.594 22.1872C130.469 22.1872 130.031 22.8988 130.031 23.8856C130.031 24.8152 130.359 25.6093 131.594 25.6093C132.633 25.6093 133.152 24.9507 133.152 23.8856C133.152 22.8711 132.687 22.1872 131.594 22.1872ZM133.399 32.9204H130.112C129.567 32.9204 129.265 33.3051 129.265 33.7687C129.265 34.4527 129.812 35.0012 131.647 35.0012C133.617 35.0012 134.218 34.2622 134.218 33.6334C134.218 33.3579 134.084 32.9204 133.399 32.9204ZM136.492 21.2003C136.957 21.8866 137.203 22.6784 137.203 23.6392C137.203 26.5954 135.234 28.32 131.594 28.32C130.907 28.32 130.279 28.2396 129.677 28.1556C129.511 28.2649 129.289 28.4838 129.289 28.8409C129.289 29.1976 129.511 29.4974 130.248 29.4974H134.358C137.231 29.4974 138.299 30.5095 138.299 32.7827C138.299 36.0961 135.727 37.6568 131.319 37.6568C127.678 37.6568 125.295 36.2888 125.295 34.0693C125.295 33.0586 125.812 32.0166 127.512 31.7972V31.6893C126.252 31.0581 125.95 30.0996 125.95 29.1692C125.95 28.2924 126.528 27.4455 127.678 26.9787V26.8694C126.606 26.1579 125.978 25.0608 125.978 23.6392C125.978 20.4062 128.306 19.0093 131.594 19.0093C132.66 19.0093 133.181 19.1484 134.053 19.4229C134.634 17.9976 136.08 17.3137 137.669 17.3137C137.915 17.3137 138.165 17.3398 138.382 17.3674V20.8454C137.532 20.8454 136.903 20.8721 136.492 21.2003ZM140.233 19.3389V33.0297H144.338V19.3389H140.233ZM140.233 14.9864V18.3818H144.338V14.9864H140.233ZM152.585 22.3777C151.106 22.3777 150.473 23.3096 150.473 26.1846C150.473 28.8937 151.079 29.9633 152.585 29.9633C154.035 29.9633 154.638 28.8937 154.638 26.1846C154.638 23.3096 154.008 22.3777 152.585 22.3777ZM152.585 33.3579C148.013 33.3579 146.369 30.4545 146.369 26.1846C146.369 21.9967 148.067 19.0093 152.585 19.0093C157.048 19.0093 158.745 21.9967 158.745 26.1846C158.745 30.4545 157.102 33.3579 152.585 33.3579ZM167.975 24.1849V33.0297H172.083V23.9407C172.083 20.5714 170.58 19.0093 167.895 19.0093C166.417 19.0093 165.241 19.7773 164.721 21.1452H164.61V19.3389H160.608V33.0297H164.721V24.2666C164.721 22.7069 165.265 22.1872 166.392 22.1872C167.511 22.1872 167.975 22.7069 167.975 24.1849ZM106.79 58.1183V50.4515H100.519V58.1183H96.4106V40.0759H100.519V47.028H106.79V40.0759H111.007V58.1183H106.79ZM116.999 51.2732C116.999 48.3982 117.63 47.4663 119.112 47.4663C120.533 47.4663 121.165 48.3982 121.165 51.2732C121.165 53.9824 120.559 55.0533 119.112 55.0533C117.604 55.0533 116.999 53.9824 116.999 51.2732ZM112.894 51.2732C112.894 55.5431 114.538 58.4465 119.112 58.4465C123.628 58.4465 125.27 55.5431 125.27 51.2732C125.27 47.0839 123.572 44.0993 119.112 44.0993C114.594 44.0993 112.894 47.0839 112.894 51.2732ZM134.051 58.1183H129.945L125.645 44.4275H129.945L131.643 51.7652C131.724 52.1233 131.919 53.4637 131.97 53.8754H132.025C132.08 53.4361 132.301 52.0943 132.38 51.7652L134.051 44.4275H138.379L134.051 58.1183ZM142.887 49.796C142.969 48.3707 143.378 47.4663 144.805 47.4663C145.982 47.4663 146.5 48.2077 146.557 49.796H142.887ZM144.886 55.0533C143.599 55.0533 142.833 54.12 142.777 52.3689H150.745C150.745 48.1526 149.952 44.0993 144.776 44.0993C140.834 44.0993 138.642 47.3562 138.642 51.2994C138.642 55.735 140.918 58.4465 144.914 58.4465C147.651 58.4465 149.927 57.0763 150.527 53.9824L146.829 53.326C146.611 54.2578 146.282 55.0533 144.886 55.0533ZM158.232 47.2483C156.863 47.2483 156.204 48.5359 156.204 51.3269C156.204 54.0925 156.863 55.2434 158.314 55.2434C159.655 55.2434 160.395 53.7368 160.395 51.2732C160.395 48.8366 159.819 47.2483 158.232 47.2483ZM160.505 58.1183V56.2844H160.395C159.874 57.3793 158.727 58.4465 157.079 58.4465C153.797 58.4465 152.044 55.8447 152.044 51.3269C152.044 47.0013 153.986 44.0993 157.38 44.0993C158.727 44.0993 159.984 44.7833 160.42 45.66V40.0759H164.528V58.1183H160.505ZM165.745 54.5048C166.378 57.3242 168.868 58.4465 171.553 58.4465C174.507 58.4465 177.604 56.9959 177.604 53.6005C177.604 50.4902 174.69 49.8862 172.5 49.4323C171.183 49.1592 170.127 48.9405 170.127 48.2628C170.127 47.5214 170.976 47.2483 171.851 47.2483C172.948 47.2483 173.498 47.7395 173.854 48.5634L177.248 47.7395C177.004 45.6311 174.675 44.0993 171.851 44.0993C168.924 44.0993 166.157 45.5232 166.157 48.4533C166.157 51.6007 169.002 52.2173 171.176 52.6883C172.518 52.9793 173.605 53.2147 173.605 53.9572C173.605 54.9693 172.428 55.27 171.497 55.27C170.294 55.27 169.635 54.6972 169.444 53.6565L165.745 54.5048ZM183.678 58.4465C180.75 58.4465 179.71 56.8582 179.71 54.3404V47.604H178.012V44.4275H179.71V42.5938L183.188 40.0759H183.816V44.4275H186.47V47.604H183.816V53.7657C183.816 54.5318 184.064 54.9532 184.801 54.9532C185.186 54.9532 185.535 54.8499 185.809 54.6572L186.939 57.3793C186.198 58.0366 184.908 58.4465 183.678 58.4465ZM191.682 54.12C191.682 52.8899 192.178 52.3414 194.805 52.3137V53.8209C194.805 54.805 194.421 55.5165 193.107 55.5165C191.957 55.5165 191.682 54.86 191.682 54.12ZM195.077 56.8858V58.1183H199.103C199.078 58.0029 199.055 57.909 199.034 57.8234C198.961 57.5223 198.911 57.322 198.911 56.6402V48.4257C198.911 46.5368 197.544 44.0993 193.434 44.0993C190.284 44.0993 187.876 45.3318 187.714 47.9323L191.516 48.7264C191.656 47.7945 192.342 47.4663 193.272 47.4663C194.338 47.4663 194.805 47.9599 194.805 49.057V49.6836C190.395 49.7133 187.576 50.6177 187.576 54.3404C187.576 56.777 188.973 58.4465 191.352 58.4465C193.298 58.4465 194.173 57.982 195.077 56.8858ZM206.687 47.2483C205.317 47.2483 204.656 48.5359 204.656 51.3269C204.656 54.0925 205.317 55.2434 206.768 55.2434C208.108 55.2434 208.849 53.7368 208.849 51.2732C208.849 48.8366 208.272 47.2483 206.687 47.2483ZM208.956 58.1183V56.2844H208.849C208.329 57.3793 207.178 58.4465 205.538 58.4465C202.248 58.4465 200.496 55.8447 200.496 51.3269C200.496 47.0013 202.441 44.0993 205.837 44.0993C207.178 44.0993 208.439 44.7833 208.874 45.66V40.0759H212.981V58.1183H208.956ZM218.878 49.796C218.957 48.3707 219.368 47.4663 220.795 47.4663C221.972 47.4663 222.489 48.2077 222.543 49.796H218.878ZM220.876 55.0533C219.588 55.0533 218.822 54.12 218.768 52.3689H226.733C226.733 48.1526 225.938 44.0993 220.766 44.0993C216.825 44.0993 214.631 47.3562 214.631 51.2994C214.631 55.735 216.911 58.4465 220.902 58.4465C223.641 58.4465 225.914 57.0763 226.514 53.9824L222.818 53.326C222.6 54.2578 222.273 55.0533 220.876 55.0533ZM235.894 58.1183V49.2726C235.894 47.7945 235.426 47.2758 234.305 47.2758C233.182 47.2758 232.633 47.7945 232.633 49.3576V58.1183H228.528V44.4275H232.527V46.2362H232.633C233.155 44.8659 234.333 44.0993 235.812 44.0993C238.496 44.0993 240 45.66 240 49.028V58.1183H235.894Z" fill="#564499"/>
</svg>
