<svg width="240" height="38" viewBox="0 0 240 38" fill="none" xmlns="http://www.w3.org/2000/svg">
<path fill-rule="evenodd" clip-rule="evenodd" d="M3.10833 37.2969L3.1104 37.2974H3.108L3.10833 37.2969ZM0 36.4478L3.10833 37.2969L11.196 23.6054L18.2976 37.2206H21.2616L28.3632 23.6054L36.4512 37.2974L39.5616 36.4478V1.72946L36.408 0.956665L28.1808 16.7271L21.2184 4.93826H18.3408L11.3784 16.7271L3.1536 0.956665L0 1.72946V36.4478ZM19.7808 32.8334L13.2 20.2167L19.7808 9.07346L26.3616 20.2167L19.7808 32.8334ZM3.3432 30.3326V8.54786L9.37679 20.1159L3.3432 30.3326ZM36.2208 30.3326L30.1872 20.1159L36.2208 8.54786V30.3326ZM57.8857 1.75598V36.4216H62.4601V7.29278C62.4601 7.00238 62.6017 6.95438 62.7961 6.95438C62.9905 6.95438 63.1345 7.00238 63.2305 7.29278L72.6673 36.4216H79.9369L89.3737 7.29278C89.4697 7.00238 89.6161 6.95438 89.8081 6.95438C90.0001 6.95438 90.1441 7.00238 90.1441 7.29278V36.424H94.7185V1.75598H86.5105L76.6849 32.0416C76.5889 32.284 76.4929 32.332 76.3009 32.332C76.1089 32.332 76.0129 32.2816 75.9169 32.0416L66.0937 1.75598H57.8857ZM124.922 36.4216V11.3849V11.3825H120.588V24.3832C120.588 30.4024 117.698 33.292 112.884 33.292C108.55 33.292 106.142 30.8848 106.142 26.3104V11.3849H101.81V27.0304C101.81 33.5296 105.662 37.1416 111.922 37.1416C115.582 37.1416 118.085 35.7952 119.77 33.676L119.805 33.6318C119.975 33.4184 120.075 33.292 120.3 33.292C120.54 33.292 120.636 33.388 120.636 33.628V36.4216H124.922ZM131.671 1.75598H136.006V36.424H131.671V1.75598ZM140.51 11.3848V15.2368H144.055V29.1999C144.055 34.0863 146.39 36.4215 151.277 36.4215H155.611V32.5695H149.112C148.872 32.5695 148.725 32.5239 148.581 32.3775C148.437 32.2311 148.389 32.0871 148.389 31.8471V15.2368H155.611V11.3848H148.389V4.64316H144.057V11.3848H140.51ZM166.224 1.75598H160.776V6.78398H166.224V1.75598ZM161.332 11.3849H165.667V36.4217H161.332V11.3849ZM173.94 36.4216V1.75598H178.562V32.2816H194.693V36.424H173.94V36.4216ZM209.913 37.1438C217.185 37.1438 222.962 32.5694 222.962 23.903C222.962 15.2366 217.185 10.6623 209.913 10.6623C202.641 10.6623 196.865 15.2366 196.865 23.903C196.865 32.5694 202.641 37.1438 209.913 37.1438ZM209.913 33.2918C204.859 33.2918 201.247 29.9222 201.247 23.903C201.247 17.8862 204.859 14.5142 209.913 14.5142C214.968 14.5142 218.58 17.8862 218.58 23.903C218.58 29.9198 214.968 33.2918 209.913 33.2918ZM224.897 15.2368V11.3848H228.444V4.64316H232.778V11.3848H240V15.2368H232.778V31.8471C232.778 32.0871 232.826 32.2311 232.97 32.3775C233.114 32.5239 233.258 32.5695 233.501 32.5695H240V36.4215H235.668C230.782 36.4215 228.446 34.0863 228.446 29.1999V15.2368H224.899H224.897Z" fill="#564499"/>
</svg>
