<svg width="241" height="49" viewBox="0 0 241 49" fill="none" xmlns="http://www.w3.org/2000/svg">
<path fill-rule="evenodd" clip-rule="evenodd" d="M110.105 34.8392H115.455V7.0953L110.105 12.1297V34.8392ZM98.2329 34.8392H103.584V15.2054H98.2329V34.8392ZM98.2329 12.0773H103.584V7.20346H98.2346V12.079L98.2329 12.0773ZM86.2072 14.6122C84.8041 14.5534 83.4115 14.8779 82.1789 15.5507C80.9463 16.2236 79.9202 17.2195 79.2108 18.4315C78.8369 17.2469 78.0722 16.2241 77.0418 15.5303C76.0113 14.8366 74.7759 14.5129 73.5377 14.6122C72.1589 14.6054 70.8026 14.9609 69.6044 15.643C68.4062 16.3252 67.4082 17.31 66.7103 18.4991H66.6325C66.6325 17.5071 66.6325 15.1445 66.6325 15.1445H61.8584V34.8494H67.0669V24.8651C67.0669 21.2436 69.0745 18.6258 71.4844 18.6258C73.6222 18.6258 74.8913 20.4848 74.8913 22.9217V34.8494H79.8513V25.0561C79.8513 21.0915 81.7103 18.6258 84.1911 18.6258C86.4066 18.6258 87.6775 20.4848 87.6775 23.8748V34.8477H92.9163V23.3408C92.9197 18.4991 91.1824 14.6156 86.2072 14.6156V14.6122ZM184.85 14.6122C178.428 14.6122 174.019 18.6478 174.019 24.9767C174.063 27.7753 175.205 30.4446 177.198 32.4099C179.191 34.3751 181.876 35.4791 184.675 35.4842C187.474 35.4893 190.163 34.3951 192.164 32.4371C194.164 30.4792 195.315 27.814 195.37 25.0155C195.428 23.6241 195.195 22.2358 194.686 20.9398C194.176 19.6438 193.401 18.4686 192.411 17.4898C191.42 16.5109 190.236 15.75 188.934 15.2559C187.632 14.7618 186.241 14.5454 184.85 14.6207V14.6122ZM184.656 31.7077C181.482 31.6942 179.586 28.8788 179.586 25.0291C179.586 20.8346 181.593 18.2693 184.703 18.2693C187.851 18.2693 189.898 20.8042 189.898 24.8465C189.898 28.8889 187.914 31.7077 184.656 31.7077ZM210.247 14.6071C208.948 14.545 207.657 14.8395 206.513 15.4589C205.37 16.0782 204.418 16.9987 203.76 18.1205H203.683V15.0905L198.483 15.0634V34.8358H203.613V25.9619C203.532 24.3908 203.825 22.8229 204.469 21.3872C204.879 20.6104 205.484 19.9535 206.225 19.481C206.965 19.0084 207.816 18.7365 208.693 18.6917C212.114 18.6917 212.452 21.6154 212.452 25.389V34.8443H217.581V23.4016C217.579 18.1408 215.572 14.6071 210.247 14.6071ZM169.749 31.0909C167.222 31.0909 166.497 29.6173 166.497 26.643V19.1193H171.567V15.1344H166.497V7.19163L161.596 11.8424V15.1344H157.679V19.1193H161.527V27.6721C161.527 32.8569 163.614 35.2076 168.199 35.2076C169.456 35.2357 170.71 35.0687 171.917 34.7125L171.8 30.785C171.134 30.9832 170.443 31.0862 169.749 31.0909ZM240.022 25.2319C240.022 18.1341 236.887 14.6071 231.095 14.6071C229.736 14.565 228.382 14.8042 227.119 15.3098C225.856 15.8155 224.712 16.5766 223.757 17.5454C222.802 18.5142 222.057 19.6699 221.57 20.94C221.083 22.21 220.863 23.5671 220.925 24.926C220.925 31.5168 225.383 35.4358 231.951 35.4358C234.241 35.473 236.513 35.0315 238.622 34.1396L238.545 29.9451C236.739 31.0178 234.673 31.5722 232.572 31.5472C228.958 31.5472 226.328 29.3215 226.25 26.3084H239.939C239.987 25.9514 240.015 25.592 240.022 25.2319ZM226.173 23.089C226.473 19.6145 228.608 18.2338 230.904 18.2338C233.47 18.2338 235.244 19.5367 235.244 23.089H226.173ZM138.424 25.2352C138.424 18.1374 135.289 14.6105 129.497 14.6105C128.138 14.5684 126.784 14.8076 125.521 15.3132C124.258 15.8188 123.113 16.5799 122.159 17.5488C121.204 18.5176 120.459 19.6733 119.972 20.9434C119.485 22.2134 119.265 23.5705 119.327 24.9294C119.327 31.5202 123.785 35.4392 130.352 35.4392C132.642 35.4763 134.915 35.0348 137.024 34.143L136.947 29.9485C135.141 31.0211 133.074 31.5755 130.974 31.5506C127.36 31.5506 124.721 29.3249 124.652 26.3117H138.341C138.389 25.9537 138.417 25.5931 138.424 25.2319V25.2352ZM124.566 23.089C124.867 19.6145 127.003 18.2338 129.298 18.2338C131.863 18.2338 133.638 19.5367 133.638 23.089H124.574H124.566ZM150.263 23.209C147.426 22.293 146.466 21.688 146.466 20.3614C146.466 19.0348 147.892 18.1645 149.642 18.1645C151.251 18.1755 152.839 18.5322 154.299 19.2106V15.2628C152.724 14.7574 151.077 14.5125 149.424 14.5379C144.643 14.5379 141.352 16.9663 141.352 20.7028C141.352 23.5994 143.154 24.9463 146.963 26.2424C150.15 27.3477 150.889 28.022 150.889 29.3959C150.889 30.8053 149.231 31.6334 147.482 31.6334C145.565 31.6077 143.676 31.1776 141.937 30.371V34.4759C143.815 35.0861 145.779 35.388 147.754 35.3699C152.612 35.3699 156.097 33.0192 156.097 28.9768C156.089 25.6239 153.807 24.3497 150.272 23.2056L150.263 23.209ZM24.497 48.1611L0.0214844 24.1537L24.497 0.144531L48.9709 24.1537L24.497 48.1611Z" fill="white"/>
</svg>
