<svg width="240" height="38" viewBox="0 0 240 38" fill="none" xmlns="http://www.w3.org/2000/svg">
<path fill-rule="evenodd" clip-rule="evenodd" d="M0 36.4482L3.10833 37.2973L11.196 23.6058L18.2976 37.221H21.2616L28.3632 23.6058L36.4512 37.2978L39.5616 36.4482V1.72983L36.408 0.957031L28.1808 16.7275L21.2184 4.93863H18.3408L11.3784 16.7275L3.1536 0.957031L0 1.72983V36.4482ZM19.7808 32.8338L13.2 20.2171L19.7808 9.07383L26.3616 20.2171L19.7808 32.8338ZM3.3432 30.333V8.54823L9.37679 20.1163L3.3432 30.333ZM36.2208 30.333L30.1872 20.1163L36.2208 8.54823V30.333ZM57.8857 1.75635V36.422H62.4601V7.29315C62.4601 7.00275 62.6017 6.95475 62.7961 6.95475C62.9905 6.95475 63.1345 7.00275 63.2305 7.29315L72.6673 36.422H79.9369L89.3737 7.29315C89.4697 7.00275 89.6161 6.95475 89.8081 6.95475C90.0001 6.95475 90.1441 7.00275 90.1441 7.29315V36.4244H94.7185V1.75635H86.5105L76.6849 32.042C76.5889 32.2844 76.4929 32.3324 76.3009 32.3324C76.1089 32.3324 76.0129 32.282 75.9169 32.042L66.0937 1.75635H57.8857ZM124.922 36.422V11.3853V11.3829H120.588V24.3836C120.588 30.4028 117.698 33.2924 112.884 33.2924C108.55 33.2924 106.142 30.8852 106.142 26.3108V11.3853H101.81V27.0308C101.81 33.53 105.662 37.142 111.922 37.142C115.582 37.142 118.085 35.7956 119.77 33.6764L119.805 33.6322C119.975 33.4188 120.075 33.2924 120.3 33.2924C120.54 33.2924 120.636 33.3884 120.636 33.6284V36.422H124.922ZM131.671 1.75635H136.006V36.4244H131.671V1.75635ZM140.51 11.3852V15.2372H144.055V29.2003C144.055 34.0867 146.39 36.4219 151.277 36.4219H155.611V32.5699H149.112C148.872 32.5699 148.725 32.5243 148.581 32.3779C148.437 32.2315 148.389 32.0875 148.389 31.8475V15.2372H155.611V11.3852H148.389V4.64353H144.057V11.3852H140.51ZM166.224 1.75635H160.776V6.78435H166.224V1.75635ZM161.332 11.3853H165.667V36.4221H161.332V11.3853ZM173.94 36.422V1.75635H178.562V32.282H194.693V36.4244H173.94V36.422ZM209.913 37.1442C217.185 37.1442 222.962 32.5698 222.962 23.9034C222.962 15.237 217.185 10.6627 209.913 10.6627C202.641 10.6627 196.865 15.237 196.865 23.9034C196.865 32.5698 202.641 37.1442 209.913 37.1442ZM209.913 33.2922C204.859 33.2922 201.247 29.9226 201.247 23.9034C201.247 17.8866 204.859 14.5146 209.913 14.5146C214.968 14.5146 218.58 17.8866 218.58 23.9034C218.58 29.9202 214.968 33.2922 209.913 33.2922ZM224.897 15.2372V11.3852H228.444V4.64353H232.778V11.3852H240V15.2372H232.778V31.8475C232.778 32.0875 232.826 32.2315 232.97 32.3779C233.114 32.5243 233.258 32.5699 233.501 32.5699H240V36.4219H235.668C230.782 36.4219 228.446 34.0867 228.446 29.2003V15.2372H224.899H224.897Z" fill="white"/>
</svg>
