<svg width="241" height="87" viewBox="0 0 241 87" fill="none" xmlns="http://www.w3.org/2000/svg">
<path fill-rule="evenodd" clip-rule="evenodd" d="M93.8252 67.5823L93.8353 67.5792V67.5876H93.8268L93.8252 67.5823ZM93.8252 67.5823C79.996 71.8294 71.1684 71.5744 67.5878 66.8087C64.2772 62.4058 66.5887 55.4968 69.8569 50.5013C70.204 49.9662 70.6623 49.3569 71.1843 48.663C71.2734 48.5445 71.3646 48.4234 71.4572 48.2999C75.1911 43.3722 81.4397 35.1254 76.0124 26.2181C69.6706 15.8123 69.5775 4.3311 73.4723 0.148438L74.8524 1.43541C71.491 5.04233 71.8043 15.7106 77.6211 25.2444C83.7162 35.2367 76.7455 44.4525 72.9819 49.4281L72.9643 49.4514L72.9318 49.4941C72.3272 50.2892 71.7978 50.9854 71.4318 51.5428C68.6461 55.8016 66.3685 62.0587 69.0949 65.6826C71.1947 68.4767 77.0962 70.7543 93.2765 65.7842L93.8252 67.5823ZM3.79774 33.1356H3.78927H0.0214844V46.2848H7.574V40.6881H16.3627C18.6149 40.6881 22.8145 40.6881 22.8145 51.221C22.8145 61.7539 18.6149 61.7539 16.3627 61.7539H0.0214844V69.3064H16.3542C22.9753 69.3064 26.3113 65.8265 27.9454 62.9139C29.5711 60.0012 30.3585 56.1826 30.3585 51.221C30.3585 46.2594 29.5711 42.4408 27.9454 39.5282C26.3113 36.6071 22.9753 33.1356 16.3542 33.1356H3.79774ZM37.4286 61.8216V69.2302H58.181V61.8216H37.4286ZM37.4199 40.6204V33.2034H58.1808V40.6204H37.4199ZM37.4199 47.6818V55.0904H58.1808V47.6818H37.4199ZM81.6429 15.8715C79.9072 17.5903 78.3323 19.2668 76.9522 20.9348C76.9522 20.9348 76.3511 19.5377 76.1309 18.962C77.4856 17.3956 78.9166 15.9139 80.3221 14.5168L81.6514 15.8631L81.6429 15.8715ZM71.44 45.9292L72.6761 44.2189H72.6677C69.374 37.0897 70.2122 31.129 73.8107 25.2614L72.8201 23.2801C70.9573 26.0996 69.5349 29.1477 68.9845 32.4498C68.2733 36.7425 69.0777 41.2046 71.44 45.9292ZM87.409 86.1471L87.4059 86.1455C87.5377 85.8937 89.2954 82.4437 89.1955 76.825C89.1616 75.047 88.933 72.9387 88.3319 70.551L86.4946 70.9659C87.0534 73.1589 87.2735 75.0978 87.3074 76.7319C87.4344 81.9899 85.741 85.2581 85.741 85.2581L87.4059 86.1455L87.4005 86.1556H87.409V86.1471ZM84.9705 66.4361L86.8501 66.0466H86.8586C85.3684 62.4397 83.0146 58.4179 79.3738 54.1675C77.7651 52.2878 76.3935 50.4844 75.2504 48.7571L74.065 50.3489C75.1742 51.9915 76.4697 53.6764 77.9429 55.3952C81.3297 59.3577 83.548 63.0917 84.9705 66.4361ZM117.771 33.1356H90.7277V40.6881H113.995V46.2848H121.548V33.1356H117.771ZM101.938 69.7721V46.2594H109.491V69.7721H101.938ZM151.546 69.7721H152.503C155.542 69.7721 156.033 68.375 156.033 66.9441V66.7579H154.001C154.001 67.5199 153.714 67.6469 152.613 67.6469H151.25C150.149 67.6469 149.785 67.0881 149.785 66.199V65.8434H156.025V64.5057C156.025 61.4999 155.288 60.5262 152.376 60.5262H151.343C148.616 60.5262 147.795 61.7116 147.795 64.5395V65.7842C147.795 68.646 148.659 69.7636 151.538 69.7636L151.546 69.7721ZM152.537 62.6937C153.874 62.6937 154.001 63.515 154.001 64.1416H149.81C149.81 63.5997 149.903 62.6937 151.173 62.6937H152.537ZM161.537 60.577H162.215H162.223C164.636 60.577 165.601 61.974 165.601 64.7596V69.7551H163.425V65.2592C163.425 63.6505 162.9 62.736 161.537 62.736H161.224C159.996 62.736 159.353 63.6843 159.353 65.2592V69.7551H157.151V60.577H159.31V61.9148C159.548 61.3051 159.979 60.577 161.537 60.577ZM171.935 60.577H171.257C169.699 60.577 169.268 61.3051 169.03 61.9148V60.577H166.871V69.7551H169.073V65.2592C169.073 63.6843 169.716 62.736 170.944 62.736H171.257C172.62 62.736 173.145 63.6505 173.145 65.2592V69.7551H175.321V64.7596C175.321 61.974 174.356 60.577 171.943 60.577H171.935ZM176.473 67.0203H178.395H178.403V67.0373C178.403 67.3929 178.522 67.7824 179.216 67.7824H181.621C182.29 67.7824 182.476 67.503 182.476 67.0373C182.476 66.6055 182.307 66.3261 181.621 66.3091L178.7 66.2329C177.303 66.1906 176.49 65.6148 176.49 63.7606V63.3118C176.49 61.5846 177.099 60.5431 179.055 60.5431H181.985C183.746 60.5431 184.593 61.102 184.593 63.2949H182.552C182.552 62.8123 182.188 62.5667 181.468 62.5667H179.199C178.581 62.5667 178.412 62.8292 178.412 63.2356C178.412 63.642 178.539 63.7944 179.182 63.8114L182.027 63.8876C183.983 63.9384 184.635 64.7258 184.635 66.4869V66.9695C184.635 68.8069 183.729 69.7721 182.027 69.7721H178.937C177.455 69.7721 176.473 69.1964 176.473 67.0203ZM189.707 67.5453C188.776 67.5453 188.386 67.0457 188.386 65.9281V63.1425H192.967V60.577H188.386V58.8159H186.219V60.577H185.423V63.1425H186.219V65.7842C186.219 68.4597 187.158 69.7636 189.58 69.7636H190.3C193.39 69.7636 193.898 67.9263 193.881 66.0128H191.646C191.663 66.7579 191.46 67.5538 190.283 67.5538H189.707V67.5453ZM202.864 64.3109H200.688C200.688 63.642 200.4 62.7276 199.3 62.7276H198.741C197.708 62.7276 197.132 63.6589 197.132 64.9205V69.7551H194.922V60.577H197.132V61.9317C197.378 61.212 197.843 60.577 198.953 60.577H199.825C202.212 60.577 202.864 62.1942 202.864 64.3109ZM210.12 65.2931C210.12 66.8171 209.663 67.4098 208.325 67.4098H207.513C206.175 67.4098 205.718 66.8171 205.718 65.2931V64.9205C205.718 63.532 206.116 62.88 207.589 62.88H208.241C209.723 62.88 210.112 63.532 210.112 64.9205V65.2931H210.12ZM207.293 60.5347C204.592 60.5347 203.796 61.7793 203.796 64.8443V65.6064C203.796 68.6883 204.803 69.7721 206.624 69.7721H209.231C211.213 69.7721 212.051 68.6545 212.051 65.6064V64.8443C212.051 61.6692 211.136 60.5347 208.41 60.5347H207.293ZM223.422 60.577H224.015V60.5854C226.411 60.5854 227.198 62.0164 227.198 64.1162V69.7636H224.972V64.6919C224.972 63.7098 224.845 62.7445 223.414 62.7445H223.024C221.813 62.7445 221.331 63.5573 221.331 64.8613V69.7636H219.104V64.802C219.104 63.5573 218.774 62.736 217.411 62.736H217.021C215.87 62.736 215.489 63.515 215.489 64.7427V69.7551H213.262V60.577H215.489V61.991C215.683 61.2797 216.293 60.577 217.809 60.577H218.274C220.374 60.577 220.899 61.2459 221.17 61.9148C221.449 61.212 221.915 60.577 223.422 60.577ZM234.785 52.3302C236.004 52.4487 236.885 52.9144 237.452 53.2615C237.579 53.3378 237.655 53.4732 237.655 53.5748C237.655 53.7272 237.57 53.8881 237.418 54.0405C237.393 54.0659 237.342 54.0913 237.308 54.1082C237.274 54.1167 237.215 54.1252 237.198 54.1252C237.039 54.1252 236.96 54.072 236.829 53.9834L236.828 53.9833C236.764 53.9397 236.686 53.8875 236.58 53.8288C236.402 53.7357 236.207 53.6341 236.021 53.5579C235.699 53.4224 234.81 53.1853 234.082 53.2192C233.566 53.2446 231.703 53.4394 230.247 55.5646L230.242 55.5714C230.15 55.7014 228.944 57.4153 230.018 59.9589C230.272 60.4923 230.721 61.1866 231.457 61.7624C231.83 62.0248 232.16 62.2196 232.516 62.372C232.854 62.5159 233.21 62.626 233.566 62.6768C233.659 62.6937 234.607 62.8631 235.598 62.5667C236.444 62.3466 237.393 61.8132 238.129 60.8818C238.146 60.8607 238.163 60.8396 238.18 60.8182C238.225 60.7621 238.273 60.7036 238.316 60.6363C238.764 59.9504 239.027 59.2307 239.095 58.528C239.095 58.4695 239.107 58.3827 239.114 58.329C239.118 58.305 239.12 58.2877 239.12 58.2824C239.128 58.1131 239.128 57.9184 239.12 57.7067C239.12 57.6051 239.061 57.2156 239.052 57.1902C238.975 57.2676 238.897 57.3462 238.82 57.4253L238.678 57.5712L238.677 57.5716C238.395 57.8608 238.112 58.1514 237.824 58.4094C237.774 58.4772 237.655 58.4941 237.638 58.4941H232.27C232.195 58.4805 232.181 58.4723 232.16 58.4608C232.155 58.458 232.15 58.4551 232.143 58.4518C231.957 58.3756 231.889 58.1808 231.889 58.0538V57.9438C231.889 57.7406 232.067 57.639 232.143 57.6136C232.152 57.6112 232.163 57.6083 232.174 57.6052C232.203 57.5971 232.235 57.5882 232.253 57.5882H237.333C237.333 57.5882 237.349 57.5748 237.368 57.5602L237.381 57.5497L237.389 57.544L237.399 57.5364L237.41 57.5289C237.594 57.3498 237.779 57.1688 237.965 56.9872L237.966 56.9861C238.332 56.6272 238.701 56.2656 239.078 55.9117C239.12 55.8694 239.264 55.8355 239.315 55.8355C239.433 55.8355 239.569 55.8694 239.653 56.0387C239.713 56.1403 239.738 56.2504 239.763 56.3605C239.899 56.7669 239.975 57.1817 240 57.5966C240.034 58.0369 240.017 58.0623 240.017 58.0792V58.3417L240.013 58.3881C239.981 58.731 239.945 59.1022 239.848 59.4424C239.704 59.942 239.196 61.3559 238.129 62.2365C237.579 62.7445 236.825 63.1425 236.343 63.3118C235.48 63.6906 234.089 63.6551 233.92 63.6508L233.904 63.6505C233.405 63.6166 232.88 63.4896 232.372 63.3118C231.542 62.9985 230.467 62.2619 229.798 61.3898C229.01 60.3484 228.773 59.2815 228.723 58.9513C228.28 56.5952 229.396 55.0944 229.698 54.6884L229.726 54.6507L229.739 54.6332C230.365 53.8627 232.025 52.1439 234.768 52.3556L234.785 52.3302ZM238.883 54.8025C238.883 54.5909 238.603 54.2437 238.366 54.2437V54.2522H238.358C238.315 54.2522 238.265 54.2691 238.222 54.2945C238.188 54.3115 238.146 54.3453 238.121 54.3707C238.002 54.4895 237.883 54.6091 237.763 54.7291L237.597 54.8959L237.594 54.899C237.242 55.2536 236.888 55.6095 236.537 55.9541C236.52 55.971 236.487 55.9964 236.487 55.9964H231.262C231.127 55.9879 230.873 56.1742 230.873 56.3689V59.6795C230.881 59.8319 230.975 59.9589 231.127 60.0351C231.186 60.069 231.22 60.069 231.271 60.069H237.443C237.714 60.0266 237.833 59.8065 237.833 59.6033C237.833 59.4678 237.833 59.4509 237.799 59.3832C237.74 59.2731 237.672 59.2308 237.587 59.1884C237.553 59.1715 237.46 59.1461 237.46 59.1461H231.787V56.9023H236.766C236.783 56.9108 236.901 56.8769 236.952 56.8346C237.331 56.4914 237.701 56.1275 238.069 55.7661C238.228 55.6104 238.386 55.455 238.544 55.3021L238.551 55.2948L238.559 55.2875C238.566 55.281 238.573 55.2747 238.58 55.2684C238.597 55.2527 238.615 55.2375 238.633 55.2226C238.684 55.1797 238.732 55.1383 238.764 55.0904C238.84 54.9888 238.883 54.8957 238.883 54.8025ZM145.704 56.86L142.927 67.1558H142.757L140.175 56.86H137.914L135.349 67.2235H135.23L132.385 56.86H130.133L133.672 69.7552H136.864L139.049 60.9834L141.233 69.7552H144.434L147.956 56.86H145.704ZM134.689 47.2839V46.2932H130.658V51.6782H134.748V50.6791H131.844V49.3583H134.451V48.4354H131.844V47.2839H134.689ZM136.45 47.7665V48.3084H136.475C136.611 48.0798 136.788 47.9189 137 47.8173C137.22 47.7157 137.44 47.6649 137.661 47.6649C137.948 47.6649 138.185 47.7072 138.363 47.7834C138.541 47.8596 138.694 47.9697 138.795 48.1052C138.897 48.2406 138.973 48.41 139.015 48.6132C139.058 48.8079 139.083 49.0281 139.083 49.2736V51.6698H138.008V49.4684C138.008 49.1466 137.957 48.9095 137.855 48.7487C137.754 48.5878 137.576 48.5116 137.322 48.5116C137.034 48.5116 136.822 48.5963 136.687 48.7741C136.56 48.9434 136.492 49.2313 136.492 49.6292V51.6698H135.417V47.7665H136.45ZM144.282 51.6274C144.485 51.5343 144.646 51.3819 144.773 51.1702V51.1618H144.79V51.6613H145.806V46.2763H144.73V48.2407H144.714C144.595 48.0544 144.434 47.902 144.222 47.8088C144.011 47.7157 143.791 47.6649 143.562 47.6649C143.274 47.6649 143.029 47.7242 142.808 47.8342C142.588 47.9443 142.411 48.0967 142.267 48.283C142.123 48.4693 142.021 48.6809 141.945 48.9265C141.869 49.172 141.835 49.4176 141.835 49.6885C141.835 49.9594 141.869 50.2219 141.945 50.4759C142.013 50.7299 142.123 50.9501 142.267 51.1448C142.411 51.3396 142.597 51.492 142.817 51.602C143.037 51.7121 143.3 51.7714 143.587 51.7714C143.85 51.7714 144.079 51.7206 144.282 51.6274ZM144.578 48.8503C144.646 48.9603 144.697 49.0874 144.73 49.2398L144.722 49.2482C144.747 49.4006 144.764 49.553 144.764 49.7139C144.764 49.8748 144.756 50.0272 144.722 50.1796C144.688 50.332 144.637 50.4675 144.57 50.586C144.502 50.7045 144.409 50.7977 144.29 50.8654C144.172 50.9331 144.028 50.967 143.85 50.967C143.689 50.967 143.545 50.9331 143.427 50.8569C143.308 50.7807 143.206 50.6876 143.13 50.5691C143.054 50.4505 142.995 50.3151 142.961 50.1627C142.927 50.0187 142.91 49.8663 142.91 49.7139C142.91 49.553 142.927 49.4006 142.961 49.2482C142.995 49.0958 143.046 48.9688 143.122 48.8503C143.19 48.7317 143.283 48.6386 143.41 48.5709C143.537 48.5031 143.681 48.4693 143.858 48.4693C144.036 48.4693 144.18 48.5031 144.299 48.5709C144.409 48.6471 144.502 48.7402 144.578 48.8503ZM147.762 50.7299C147.922 50.8823 148.151 50.967 148.456 50.967C148.676 50.967 148.854 50.9162 149.015 50.8061C149.167 50.6961 149.269 50.586 149.303 50.459H150.242C150.09 50.9247 149.861 51.2633 149.548 51.4581C149.235 51.6613 148.862 51.7629 148.414 51.7629C148.109 51.7629 147.829 51.7121 147.584 51.619C147.338 51.5174 147.127 51.3819 146.957 51.2041C146.788 51.0263 146.652 50.8061 146.559 50.5521C146.466 50.2981 146.424 50.0272 146.424 49.7224C146.424 49.4175 146.475 49.1635 146.568 48.9095C146.661 48.6555 146.796 48.4439 146.974 48.2576C147.152 48.0713 147.364 47.9274 147.601 47.8258C147.838 47.7242 148.117 47.6649 148.414 47.6649C148.744 47.6649 149.032 47.7326 149.277 47.8596C149.523 47.9866 149.726 48.1644 149.887 48.3761C150.048 48.5963 150.158 48.8418 150.234 49.1127C150.302 49.3922 150.327 49.68 150.31 49.9764H147.499C147.516 50.3235 147.601 50.5775 147.762 50.7299ZM148.972 48.6809C148.845 48.537 148.651 48.4693 148.388 48.4693C148.219 48.4693 148.075 48.4947 147.965 48.5539C147.855 48.6132 147.762 48.6809 147.694 48.7656C147.626 48.8503 147.575 48.9434 147.55 49.0365C147.525 49.1297 147.508 49.2143 147.499 49.2905H149.243C149.193 49.0196 149.099 48.8164 148.972 48.6725V48.6809ZM152.046 51.6698V46.2848H150.97V51.6698H152.046ZM154.941 48.9688L154.943 48.9519H156.017C156.034 48.7487 156.11 48.5963 156.228 48.5031C156.347 48.41 156.516 48.3676 156.728 48.3676C156.781 48.3676 156.83 48.3723 156.876 48.3767C156.918 48.3807 156.959 48.3846 156.999 48.3846C157.084 48.4015 157.16 48.4269 157.219 48.4608C157.287 48.5031 157.338 48.5539 157.371 48.6217C157.414 48.6894 157.431 48.7825 157.431 48.9011C157.431 49.0111 157.397 49.0958 157.329 49.1551C157.261 49.2143 157.16 49.2567 157.041 49.2905C156.923 49.3244 156.779 49.3413 156.626 49.3583L156.581 49.3634C156.442 49.3787 156.297 49.3947 156.152 49.4175C155.991 49.4429 155.831 49.4768 155.67 49.5192C155.509 49.5615 155.373 49.6292 155.246 49.7139C155.119 49.807 155.018 49.9171 154.941 50.061C154.865 50.205 154.823 50.3912 154.823 50.6114C154.823 50.8061 154.857 50.9839 154.925 51.1279C154.992 51.2718 155.085 51.3988 155.204 51.492C155.323 51.5851 155.466 51.6613 155.627 51.7036C155.788 51.746 155.958 51.7714 156.144 51.7714C156.389 51.7714 156.626 51.746 156.855 51.6698C157.084 51.5936 157.287 51.475 157.456 51.2972C157.456 51.3649 157.465 51.4242 157.482 51.492C157.492 51.5334 157.502 51.5717 157.513 51.6088L157.532 51.6782H158.616C158.574 51.5936 158.548 51.475 158.515 51.3141C158.481 51.1533 158.481 50.9839 158.481 50.8061V48.7741C158.481 48.537 158.421 48.3507 158.32 48.2068C158.218 48.0628 158.083 47.9443 157.913 47.8681C157.744 47.7919 157.558 47.7326 157.363 47.7072C157.168 47.6818 156.965 47.6649 156.77 47.6649C156.559 47.6649 156.339 47.6903 156.127 47.7326C155.915 47.775 155.72 47.8427 155.551 47.9443C155.382 48.0459 155.238 48.1729 155.128 48.3422C155.02 48.5078 154.961 48.7057 154.943 48.9519H154.941V48.9688ZM157.244 49.8578C157.308 49.8341 157.364 49.8103 157.405 49.7727V50.1542C157.405 50.1846 157.402 50.2168 157.398 50.2522C157.394 50.2955 157.388 50.3438 157.388 50.3997C157.38 50.5013 157.338 50.5945 157.287 50.6961C157.236 50.7977 157.151 50.8823 157.033 50.9501C156.914 51.0178 156.753 51.0517 156.542 51.0517C156.457 51.0517 156.372 51.0432 156.296 51.0263C156.212 51.0178 156.144 50.9839 156.085 50.9501C156.025 50.9162 155.974 50.8654 155.941 50.7977C155.907 50.7299 155.89 50.6453 155.89 50.5521C155.89 50.459 155.907 50.3743 155.941 50.3066C155.983 50.2388 156.025 50.188 156.085 50.1457C156.144 50.1034 156.212 50.0695 156.288 50.0441C156.364 50.0187 156.44 50.0018 156.525 49.9848C156.567 49.9806 156.609 49.9742 156.652 49.9679C156.694 49.9615 156.736 49.9552 156.779 49.951C156.863 49.9425 156.948 49.934 157.024 49.9171C157.101 49.9002 157.177 49.8832 157.244 49.8578ZM158.904 47.7665V48.4693H159.547V51.6528H160.623V48.4693H161.359V47.7496H160.623V47.5125C160.623 47.3516 160.657 47.2331 160.716 47.1654C160.775 47.0976 160.885 47.0638 161.029 47.0638C161.165 47.0638 161.292 47.0722 161.419 47.0892V46.2933C161.372 46.2933 161.325 46.289 161.279 46.2848C161.232 46.2806 161.186 46.2763 161.139 46.2763H160.851C160.411 46.2763 160.089 46.3864 159.869 46.6065C159.657 46.8267 159.547 47.1146 159.547 47.4617V47.7665H158.904Z" fill="white"/>
</svg>
