<svg width="121" height="47" viewBox="0 0 121 47" fill="none" xmlns="http://www.w3.org/2000/svg">
<path fill-rule="evenodd" clip-rule="evenodd" d="M107.515 9.2551C105.669 8.08664 103.509 7.51433 101.326 7.61582C100.077 7.59614 98.8316 7.78284 97.6424 8.16839L93.8112 1.33494C96.243 0.577753 98.7795 0.210959 101.326 0.248226C104.685 0.170865 108.018 0.837608 111.089 2.20064C113.709 3.37183 115.953 5.24626 117.572 7.61582C119.087 9.823 119.937 12.4182 120.022 15.0939V15.1492C120.021 15.3161 119.983 15.4807 119.909 15.6306C119.836 15.7806 119.73 15.9119 119.598 16.0149C119.352 16.2411 119.03 16.366 118.696 16.3648H112.562C112.151 16.3959 111.743 16.271 111.42 16.0149C111.106 15.6662 110.89 15.2403 110.794 14.7808C110.413 12.6003 109.246 10.6347 107.515 9.2551ZM118.769 29.958C119.132 29.9554 119.483 30.0941 119.745 30.3448L119.653 30.4001C119.787 30.5179 119.889 30.6672 119.95 30.8345C120.011 31.0018 120.029 31.1817 120.003 31.3579C119.942 34.0632 119.097 36.6927 117.572 38.9281C115.92 41.2094 113.679 42.9985 111.088 44.1038C108.013 45.4695 104.672 46.1363 101.308 46.0562C95.4996 46.0562 90.9992 44.5581 87.8066 41.562C86.1532 39.8753 84.8522 37.8764 83.9794 35.6818C83.1066 33.4871 82.6795 31.1406 82.723 28.7792V23.2535V17.5252C82.6896 15.1702 83.1252 12.832 84.0043 10.6469C84.8834 8.46188 86.1884 6.47354 87.8434 4.79771L88.6354 4.11621L93.1665 11.9995C92.3369 13.8152 91.9037 15.7868 91.8956 17.7831V23.0877V28.5029C92.0982 35.2995 95.2847 38.707 101.308 38.707C103.478 38.8009 105.625 38.2289 107.46 37.0677C109.218 35.7061 110.401 33.7342 110.775 31.542C110.879 31.0853 111.094 30.6613 111.402 30.308C111.725 30.0519 112.132 29.9269 112.544 29.958H118.769ZM16.9489 0.892887H14.757V8.26048H16.5989C19.4114 8.02193 22.2044 8.90219 24.3718 10.7102C26.1926 12.8404 27.1169 15.5935 26.9504 18.3909C26.9504 20.0164 27.0063 21.2585 27.0445 22.1065C27.0643 22.546 27.0793 22.8798 27.0793 23.1062C27.0793 23.7692 27.0793 25.3533 26.9504 27.8951C27.1487 30.7255 26.2741 33.5268 24.5007 35.7416C22.3826 37.5003 19.6539 38.348 16.9121 38.0992H8.93668V0.892887H1.56909C1.36399 0.883321 1.15922 0.917828 0.96859 0.994083C0.777954 1.07034 0.605876 1.18657 0.463953 1.33494C0.171232 1.64207 0.0122598 2.05275 0.0218984 2.47692V43.9749C0.0183202 44.1765 0.0556477 44.3767 0.131626 44.5635C0.207604 44.7503 0.320657 44.9197 0.463953 45.0616C0.601691 45.2052 0.767775 45.3187 0.951675 45.3948C1.13557 45.4709 1.33328 45.508 1.53225 45.5036H17.262C23.5429 45.5036 28.1845 44.1038 31.1868 41.2673C34.1891 38.4307 35.7915 34.0654 35.9573 28.1161C35.9573 26.5471 36.0094 25.313 36.0474 24.4139C36.0691 23.8987 36.0862 23.4934 36.0862 23.1982C36.0862 22.3878 36.0862 20.6933 35.9573 18.2251C35.7117 6.65803 29.3756 0.880608 16.9489 0.892887ZM69.1114 27.2136L78.3209 43.4776C78.4446 43.6908 78.5141 43.9311 78.5235 44.1775C78.5238 44.3579 78.4863 44.5363 78.4133 44.7013C78.3404 44.8663 78.2336 45.0141 78.0999 45.1353C77.8578 45.3698 77.5344 45.5018 77.1974 45.5036H71.4691C70.9005 45.5406 70.3378 45.3705 69.885 45.0247C69.4841 44.6745 69.1475 44.2568 68.8904 43.7907L60.8045 28.6871H52.0923V43.9749C52.0959 44.1765 52.0585 44.3767 51.9826 44.5635C51.9066 44.7503 51.7935 44.9197 51.6502 45.0616C51.5 45.2091 51.3212 45.3244 51.1248 45.4004C50.9285 45.4764 50.7187 45.5115 50.5083 45.5036H44.6879C44.488 45.5037 44.29 45.464 44.1056 45.3869C43.9211 45.3099 43.7538 45.197 43.6133 45.0548C43.4728 44.9126 43.3619 44.7439 43.2871 44.5585C43.2123 44.3731 43.1751 44.1747 43.1775 43.9749V2.47693C43.1579 2.05791 43.3034 1.6479 43.5827 1.33495C43.7246 1.18658 43.8967 1.07035 44.0874 0.994095C44.278 0.917841 44.4828 0.883333 44.6879 0.892899H52.0554V21.5037H60.8045C62.8462 21.6647 64.8748 21.0607 66.4959 19.8092C67.1452 19.1711 67.6466 18.3984 67.9648 17.5455C68.283 16.6926 68.4104 15.7803 68.3378 14.8729C68.4052 13.9548 68.2757 13.0329 67.9581 12.1689C67.6404 11.3049 67.1419 10.5187 66.4959 9.86294C64.9004 8.5506 62.8664 7.89236 60.8045 8.02104H57.8574V0.837642H60.9702C65.331 0.585258 69.6396 1.89088 73.1268 4.52144C74.6053 5.78869 75.7704 7.38098 76.531 9.17363C77.2915 10.9663 77.6267 12.9106 77.5105 14.8545C77.6031 17.6241 76.8305 20.3538 75.3002 22.6641C73.7738 24.8003 71.6058 26.3941 69.1114 27.2136Z" fill="white"/>
</svg>
