<svg width="120" height="38" viewBox="0 0 120 38" fill="none" xmlns="http://www.w3.org/2000/svg">
<path fill-rule="evenodd" clip-rule="evenodd" d="M30.981 36.7665H26.7038C25.455 36.7665 25.2156 36.6 25.2156 35.1639V15.162C25.2156 11.3844 25.2156 5.35885 15.5789 5.35885C10.1986 5.35885 7.13905 6.48279 7.13905 8.01258V35.143C7.13905 36.5792 6.73318 36.7457 5.51559 36.7457H1.51939C0.395457 36.7457 0 36.5376 0 35.1847V5.36926C0 4.00597 0.884576 3.20465 3.61115 2.40333C5.77576 1.76852 10.0321 0.873535 15.735 0.873535C32.2714 0.873535 32.3547 9.06367 32.3547 14.1214V35.1639C32.3547 36.5167 32.0321 36.7665 30.981 36.7665ZM69.8713 36.7665H65.5941C64.3453 36.7665 64.1059 36.6 64.1059 35.1639V15.162C64.1059 11.3844 64.1059 5.35885 54.4693 5.35885C49.089 5.35885 46.0294 6.48279 46.0294 8.01258V35.143C46.0294 36.5792 45.6235 36.7457 44.4059 36.7457H40.4097C39.2858 36.7457 38.8903 36.5376 38.8903 35.1847V5.36926C38.8903 4.00597 39.7749 3.20465 42.5015 2.40333C44.6661 1.76852 48.9225 0.873535 54.6254 0.873535C71.1617 0.873535 71.245 9.06367 71.245 14.1214V35.1639C71.245 36.5167 70.9224 36.7665 69.8713 36.7665ZM112.84 4.96337C112.799 2.94446 114.443 1.321 116.42 1.321C118.387 1.321 120 2.92364 120 4.90093C120 6.90944 118.345 8.5433 116.306 8.48086C114.432 8.42882 112.871 6.847 112.84 4.96337ZM119.407 4.90093C119.407 3.14218 117.888 1.74768 116.098 1.935C114.734 2.07029 113.621 3.1734 113.444 4.52628C113.225 6.32666 114.63 7.88767 116.41 7.88767C118.064 7.88767 119.407 6.5452 119.407 4.90093ZM115.66 3.47525H116.368C116.742 3.47525 117.346 3.47525 117.346 4.04762C117.346 4.6304 116.711 4.6304 116.42 4.6304H115.66V3.47525ZM115.035 6.79501H115.66V5.16114H116.024C116.524 5.16114 116.701 5.35887 117.169 6.19141L117.512 6.79501H118.272L117.804 6.05613C117.325 5.28602 117.127 5.17155 116.909 5.0883V5.06748C117.71 5.02586 118.012 4.42226 118.012 3.99558C118.012 3.68338 117.866 3.4024 117.637 3.22548C117.315 2.95491 116.815 2.95491 116.368 2.95491H115.035V6.79501ZM110.561 14.6418C110.925 17.9719 108.792 19.6994 106.617 19.6994C106.346 19.6994 82.7231 19.6578 82.7543 19.6474C82.7543 19.8357 82.7637 20.024 82.7736 20.2213L82.7751 20.251C83.0665 24.1744 86.1677 31.5111 95.7628 31.5111C99.1658 31.5111 102.257 30.2103 104.557 28.0977C104.983 27.7647 105.389 27.4213 105.785 27.0466C107.158 25.7042 107.647 25.3711 108.709 25.3711C109.031 25.444 110.239 25.9331 109.843 27.6919C109.021 30.8659 103.911 37.3806 94.566 37.3806C94.2018 37.3806 93.8479 37.3701 93.5045 37.3597C84.0656 36.7249 76.6039 30.2831 76.6039 19.6058C76.6039 19.4497 76.6039 19.2832 76.6143 19.1271C76.6559 18.2841 76.7288 17.4828 76.8433 16.7023C77.041 15.2766 77.3532 13.9653 77.759 12.7477C80.496 4.568 87.5102 1.0401 94.181 0.925629C98.6767 0.925629 102.652 2.66356 105.566 5.31729C108.334 7.82532 110.155 11.1555 110.561 14.6105V14.6418ZM100.685 15.8385C101.216 15.8385 101.632 15.7449 101.944 15.5888C102.777 15.1725 102.943 14.2983 102.943 13.3721C102.943 13.1536 102.933 12.935 102.912 12.7269C102.527 8.52257 98.4373 5.44217 94.2642 5.44217C88.2699 5.44217 83.6285 9.48 82.8896 15.8385H100.685Z" fill="#564499"/>
</svg>
