<svg width="120" height="36" viewBox="0 0 120 36" fill="none" xmlns="http://www.w3.org/2000/svg">
<path fill-rule="evenodd" clip-rule="evenodd" d="M96.573 6.43415C96.573 3.20068 99.1942 0.579468 102.428 0.579468C105.661 0.579468 108.282 3.20068 108.282 6.43415C108.282 9.66756 105.661 12.2888 102.428 12.2888C99.1942 12.2888 96.573 9.66756 96.573 6.43415ZM62.9942 31.8424C63.5218 31.8424 64.4137 31.7964 65.279 31.7518L65.4114 31.745C65.8347 31.745 66.017 31.944 66.017 32.2954V34.9665C66.0413 35.2718 65.8177 35.5407 65.5133 35.5719C64.6071 35.6227 63.4475 35.6693 62.791 35.6693C57.7578 35.6693 54.0325 32.9515 54.0325 26.7794V3.29301C54.0112 3.12832 54.0678 2.96311 54.1856 2.84611C54.3035 2.72911 54.4691 2.67366 54.6336 2.69611H57.2541C57.5547 2.69611 57.7578 2.89931 57.8088 3.25068L58.1597 9.34237H64.7045C64.855 9.32641 65.005 9.37904 65.1126 9.48579C65.2201 9.59247 65.2739 9.74194 65.2591 9.89272V12.4327C65.2591 12.8349 65.0605 13.0381 64.7045 13.0381H58.1597V26.5846C58.1597 29.8824 59.87 31.8424 62.9942 31.8424ZM0.147552 34.9743C0.255274 35.082 0.405957 35.1352 0.557432 35.119H3.58C3.98217 35.119 4.18113 34.9158 4.18113 34.5644L4.18112 13.1608C6.10235 12.5735 8.09879 12.2683 10.1077 12.2549C14.6374 12.2549 17.3044 14.2699 17.3044 19.5065V34.5644C17.2881 34.7159 17.3413 34.8665 17.449 34.9743C17.5568 35.082 17.7075 35.1352 17.8589 35.119H20.8222C21.2244 35.119 21.4234 34.9158 21.4234 34.5644V19.4049C21.4234 11.7003 16.8429 8.52959 10.0951 8.52959C6.77375 8.53694 3.48708 9.20467 0.426199 10.4938C0.151461 10.6159 -0.0176785 10.8967 0.00286975 11.1966V34.5644C-0.013359 34.7159 0.0398302 34.8665 0.147552 34.9743ZM47.8391 24.0912C48.1905 24.0912 48.3937 23.9092 48.3937 23.4858V18.5498C48.3937 11.6538 43.4111 8.52959 37.8697 8.52959C32.3284 8.52959 27.1934 11.6538 27.1934 18.5498V26.2078C27.1934 32.5535 32.3791 35.6735 37.819 35.6735C41.4725 35.7199 45.0173 34.4314 47.7884 32.0498C48.0889 31.7958 48.1397 31.5461 47.89 31.2455L46.4295 29.332C46.3535 29.1928 46.2192 29.0949 46.0634 29.0654C45.9076 29.0359 45.7467 29.0778 45.6251 29.1796C43.7582 30.6401 41.3918 31.999 37.9205 31.999C34.191 31.999 31.3716 29.984 31.3716 26.2078V24.0912H47.8391ZM31.3716 18.5498C31.3716 14.2192 34.0936 12.2549 37.8697 12.2549C41.5442 12.2549 44.3636 14.2699 44.3636 18.5498V20.6665H31.3716V18.5498ZM68.8828 32.4477C71.7749 34.5646 75.272 35.6941 78.8563 35.6693C84.7451 35.6693 89.0753 32.9007 89.0629 27.7869C89.0629 22.1312 83.7756 20.9712 79.7494 20.1669C76.164 19.4558 73.2006 18.7022 73.2006 15.9336C73.2006 13.6646 75.3173 12.2549 78.8438 12.2549C81.3097 12.2947 83.7287 12.934 85.8923 14.1175C86.0117 14.2146 86.1702 14.2487 86.3196 14.2094C86.4685 14.1701 86.5896 14.062 86.6456 13.9186L88.0085 11.6538C88.116 11.5364 88.1556 11.3726 88.1143 11.2193C88.0736 11.0659 87.957 10.944 87.8053 10.896C85.147 9.34213 82.1219 8.52527 79.0425 8.52957C74.0093 8.52957 69.1239 10.7944 69.1239 15.9336C69.1239 21.7713 75.3173 23.181 78.9412 23.9388C81.7478 24.4933 84.8674 25.1453 84.8674 27.9646C84.8674 30.5851 82.3279 31.9948 78.9412 31.9948C76.0247 31.9552 73.2006 30.9653 70.8977 29.1754C70.5462 28.9045 70.2966 28.9722 70.0934 29.3278L68.7345 31.6434C68.6446 31.7687 68.6095 31.9254 68.6372 32.0771C68.6655 32.2289 68.7538 32.3627 68.8828 32.4477ZM114.848 2.68765C112.779 2.68765 111.102 4.365 111.102 6.43415C111.102 8.50326 112.779 10.1806 114.848 10.1806C116.917 10.1806 118.595 8.50326 118.595 6.43415C118.595 4.365 116.917 2.68765 114.848 2.68765ZM109.696 18.8292C109.696 15.9839 112.003 13.6773 114.848 13.6773C117.694 13.6773 120 15.9839 120 18.8292C120 21.6745 117.694 23.9811 114.848 23.9811C112.003 23.9811 109.696 21.6745 109.696 18.8292ZM102.428 26.7709C99.9705 26.7709 97.9785 28.7629 97.9785 31.2201C97.9785 33.6773 99.9705 35.6693 102.428 35.6693C104.885 35.6693 106.877 33.6773 106.877 31.2201C106.877 28.7629 104.885 26.7709 102.428 26.7709Z" fill="#564499"/>
</svg>
