<svg width="172" height="121" viewBox="0 0 172 121" fill="none" xmlns="http://www.w3.org/2000/svg">
<path fill-rule="evenodd" clip-rule="evenodd" d="M53.9486 3.11875C58.6277 3.11875 62.4159 6.89199 62.4159 11.5411C62.4159 16.1901 58.6277 19.9634 53.9486 19.9634C49.2696 19.9634 45.4693 16.1961 45.4693 11.5411C45.4693 6.88599 49.2726 3.11875 53.9486 3.11875ZM53.6007 25.5692C60.6553 25.5692 66.3721 19.8704 66.3721 12.8578C66.3721 5.8452 60.6553 0.152344 53.6007 0.152344C46.5461 0.152344 40.8233 5.8422 40.8233 12.8578C40.8233 19.8734 46.5431 25.5692 53.6007 25.5692ZM43.0188 37.7618C44.3595 39.6604 47.038 36.502 46.801 35.9201C46.5671 35.3353 41.69 35.8691 43.0188 37.7618ZM165.808 89.6844C168.214 89.6844 170.163 91.6071 170.163 94.0006C170.163 96.3941 168.214 98.3227 165.808 98.3227C163.403 98.3227 161.471 96.3791 161.471 94.0006C161.471 91.622 163.409 89.6844 165.808 89.6844ZM165.82 88.8176C162.968 88.8176 160.613 91.1092 160.613 93.9976C160.613 96.886 162.944 99.1745 165.82 99.1745C168.696 99.1745 171.021 96.844 171.021 93.9976C171.021 91.1511 168.678 88.8176 165.82 88.8176ZM163.597 96.796H164.503V94.4385H165.034C165.757 94.4385 166.027 94.7144 166.702 95.9202L167.2 96.796H168.301L167.62 95.7162C166.924 94.6064 166.642 94.4355 166.321 94.3185V94.2915C167.482 94.2255 167.914 93.3557 167.914 92.7378C167.914 92.2849 167.701 91.889 167.377 91.625C166.912 91.2261 166.177 91.2261 165.532 91.2261H163.597V96.796ZM164.503 91.994H165.532C166.081 91.994 166.954 91.994 166.954 92.8248C166.954 93.6556 166.027 93.6676 165.601 93.6676H164.503V91.994ZM133.22 103.542V119.079H133.223C133.223 119.63 133.064 119.657 132.575 119.657H130.823C130.334 119.657 130.334 119.531 130.334 119.079V103.542C130.334 103.119 130.334 102.93 130.886 102.93H132.572C133.091 102.93 133.22 103.029 133.22 103.542ZM131.828 96.664C132.731 96.664 133.511 97.3179 133.541 98.2837C133.568 99.1835 132.875 100.056 131.783 100.056C130.691 100.056 130.034 99.2855 130.034 98.3797C130.034 97.3779 130.79 96.664 131.828 96.664ZM123.643 116.949C123.643 117.792 122.278 118.239 120.784 118.239C117.638 118.239 115.397 115.623 115.397 111.139C115.397 107.228 117.539 104.612 120.526 104.612C122.221 104.612 123.025 105.128 123.646 105.647V116.949H123.643ZM126.498 117.885V97.6089C126.498 97.024 126.339 96.955 125.85 96.955H124.252C123.709 96.955 123.64 97.153 123.64 97.6689V103.524C122.629 103.002 121.624 102.645 120.094 102.645C115.064 102.645 112.473 107.393 112.473 111.364C112.473 117.249 115.748 120.149 120.691 120.149C123.115 120.149 126.495 118.95 126.495 117.885H126.498ZM83.4622 119.016V107.87C83.4622 105.971 83.4322 102.549 76.9085 102.549C74.437 102.549 72.7514 103.032 71.8425 103.323C70.7388 103.677 70.3818 104.094 70.3818 104.645V119.046C70.3818 119.597 70.5438 119.66 71.0027 119.66H72.5924C73.0453 119.66 73.2762 119.6 73.2762 119.016V105.776C73.2762 105.029 74.5 104.295 76.7795 104.295C80.5708 104.295 80.5708 106.715 80.5708 108.233V119.016C80.5708 119.6 80.7687 119.66 81.2876 119.66H83.0753C83.4292 119.6 83.4622 119.304 83.4622 119.016ZM97.653 111.364C97.653 114.4 97.0351 116.361 96.1293 117.207C95.2505 118.05 94.4376 118.272 93.2979 118.272C92.1581 118.272 91.3543 118.047 90.4845 117.207C89.5696 116.361 88.9548 114.4 88.9548 111.364C88.9548 108.329 89.5696 106.331 90.4845 105.479C91.3573 104.648 92.1671 104.421 93.2979 104.421C94.4286 104.421 95.2505 104.648 96.1293 105.479C97.0351 106.334 97.653 108.293 97.653 111.364ZM100.649 111.364C100.649 107.489 99.4107 105.002 97.533 103.746C96.3603 102.939 94.7976 102.549 93.3009 102.549C91.8042 102.549 90.2565 102.939 89.0897 103.746C87.2091 105.005 85.9734 107.492 85.9734 111.364C85.9734 115.236 87.2061 117.69 89.0897 118.953C90.2595 119.759 91.8192 120.152 93.3009 120.152C94.7826 120.152 96.3603 119.759 97.533 118.953C99.4137 117.693 100.649 115.206 100.649 111.364ZM108 102.549C110.235 102.549 112.217 103.059 112.217 104.226C112.217 105.158 111.606 105.683 110.859 105.683C110.39 105.683 110.063 105.412 109.685 105.098C109.167 104.669 108.553 104.16 107.349 104.16C106.378 104.16 105.697 104.744 105.697 105.617V119.115C105.697 119.633 105.499 119.66 105.106 119.66H103.453C102.997 119.66 102.799 119.633 102.799 119.115V104.385C102.799 103.833 103.192 103.356 104.299 103.059C105.142 102.837 106.246 102.549 108 102.549ZM152.119 119.175V97.315C152.119 96.8531 151.897 96.8531 151.501 96.8531H149.785C149.428 96.8531 149.233 96.9191 149.233 97.375V119.142C149.233 119.591 149.329 119.654 149.785 119.654H151.501C151.957 119.654 152.119 119.654 152.119 119.175ZM162.026 119.301C162.026 119.163 161.951 119.07 161.843 118.935C161.829 118.917 161.814 118.898 161.798 118.878L155.634 110.779L155.601 110.743C157.746 109.163 160.013 106.646 161.387 103.932C161.54 103.611 161.567 103.482 161.567 103.287C161.567 102.996 161.405 102.93 160.985 102.93H159.458L159.376 102.93C158.852 102.928 158.611 102.928 158.454 103.419C157.545 106.19 155.145 109.163 152.707 110.581C152.614 110.65 152.581 110.743 152.581 110.779C152.581 110.845 152.614 110.905 152.644 110.941L158.424 119.178C158.751 119.657 158.876 119.657 159.392 119.657H161.6C161.702 119.657 162.026 119.63 162.026 119.301ZM142.343 110.088C144.523 111.062 146.954 112.148 146.955 115.142C146.954 118.599 143.898 120.149 140.98 120.149C138.352 120.149 135.749 119.013 135.749 117.69C135.749 116.853 136.436 116.625 136.985 116.625C137.437 116.625 137.815 116.908 138.261 117.242C138.9 117.721 139.679 118.305 141.016 118.305C143.283 118.305 144.354 116.79 144.354 115.467C144.354 113.702 142.635 112.992 140.765 112.219L140.722 112.201C138.352 111.202 136.376 110.008 136.376 107.231C136.376 104.229 138.964 102.648 141.919 102.648C144.159 102.648 146.268 103.356 146.268 104.582C146.268 105.422 145.587 105.713 145.098 105.713C144.691 105.713 144.355 105.494 143.966 105.24C143.434 104.893 142.803 104.48 141.754 104.48C139.939 104.48 138.964 105.743 138.964 106.97C138.964 108.578 140.571 109.296 142.343 110.088ZM14.0536 119.016V107.87C14.0536 105.971 14.0206 102.549 7.49694 102.549C5.02844 102.549 3.33977 103.032 2.43396 103.323C1.33018 103.677 0.979248 104.094 0.979248 104.645V119.046C0.979248 119.597 1.13822 119.66 1.59113 119.66H3.18381C3.63672 119.66 3.87067 119.6 3.87067 119.016V105.776C3.87067 105.029 5.10342 104.295 7.37097 104.295C11.1652 104.295 11.1652 106.715 11.1652 108.233V119.016C11.1652 119.6 11.3662 119.66 11.8851 119.66H13.6697C14.0236 119.6 14.0566 119.304 14.0566 119.016H14.0536ZM26.7231 117.207C27.6319 116.361 28.2498 114.4 28.2498 111.364C28.2498 108.293 27.6319 106.334 26.7231 105.479C25.8473 104.648 25.0254 104.421 23.8947 104.421C22.7639 104.421 21.9511 104.648 21.0722 105.479C20.1664 106.331 19.5515 108.329 19.5515 111.364C19.5515 114.4 20.1664 116.361 21.0722 117.207C21.9511 118.047 22.7549 118.272 23.8947 118.272C25.0344 118.272 25.8443 118.05 26.7231 117.207ZM28.1178 103.746C29.9955 105.002 31.2342 107.489 31.2342 111.364C31.2342 115.206 29.9984 117.693 28.1178 118.953C26.9481 119.759 25.3854 120.152 23.8947 120.152C22.404 120.152 20.8503 119.759 19.6805 118.953C17.7969 117.69 16.5671 115.236 16.5671 111.364C16.5671 107.492 17.7969 105.005 19.6805 103.746C20.8473 102.939 22.401 102.549 23.8947 102.549C25.3884 102.549 26.9481 102.939 28.1178 103.746ZM57.9077 111.364C57.9077 114.4 57.2929 116.361 56.375 117.207C55.4962 118.05 54.6894 118.272 53.5496 118.272C52.4098 118.272 51.603 118.047 50.7242 117.207C49.8154 116.361 49.2005 114.4 49.2005 111.364C49.2005 108.329 49.8124 106.331 50.7242 105.479C51.6 104.648 52.4188 104.421 53.5496 104.421C54.6804 104.421 55.4962 104.648 56.375 105.479C57.2899 106.334 57.9077 108.293 57.9077 111.364ZM60.8891 111.364C60.8891 107.489 59.6534 105.002 57.7698 103.746C56.6 102.939 55.0493 102.549 53.5496 102.549C52.0499 102.549 50.4962 102.939 49.3295 103.746C47.4488 105.005 46.2131 107.492 46.2131 111.364C46.2131 115.236 47.4518 117.69 49.3295 118.953C50.4962 119.759 52.0559 120.152 53.5496 120.152C55.0433 120.152 56.6 119.759 57.7698 118.953C59.6564 117.693 60.8891 115.206 60.8891 111.364ZM45.5234 102.933C45.6884 102.933 45.9463 102.933 45.9463 103.263L45.9433 103.257C45.9433 103.317 45.9433 103.38 45.8144 103.77L40.1365 119.175C39.9745 119.63 39.9025 119.654 39.5186 119.654H38.2469C37.9919 119.63 37.9229 119.528 37.761 119.142L31.8881 103.773C31.8132 103.611 31.7592 103.452 31.7592 103.32C31.7592 102.933 32.0801 102.933 32.2151 102.933H34.1917C34.6806 102.933 34.7466 102.999 34.9055 103.452L39.2907 115.686L43.5108 103.386C43.6098 103.062 43.6698 102.963 43.9007 102.933H45.5234ZM114.372 75.0593C114.54 76.556 115.248 75.9651 115.341 75.2422H115.338C115.728 72.2638 116.384 57.4078 114.513 55.4432C114.252 55.1703 113.82 55.1583 113.793 55.5362C113.666 57.1702 113.457 58.9294 113.26 60.5821C112.93 63.3526 112.636 65.8237 112.827 66.9039C112.942 67.5544 113.141 68.5209 113.36 69.584C113.762 71.5356 114.23 73.8127 114.372 75.0593ZM107.638 63.6526C109.351 62.8997 110.452 55.9021 110.758 50.9531V50.9561L110.77 50.7546C111.068 45.892 111.31 41.9625 105.218 42.5098C106.678 45.4912 106.984 48.7696 104.255 50.6352C101.528 52.4978 99.5848 51.595 99.5848 49.8493C99.5848 48.2387 99.3149 45.7762 97.3563 43.4816C96.4175 43.6076 95.6136 43.6916 94.6688 43.7816C95.2417 46.469 95.9616 51.418 93.877 53.4396C91.7924 55.4642 85.9676 55.6622 79.9418 55.1883C78.79 55.0953 77.3713 54.6334 76.7534 53.2297C76.4415 52.5188 75.9946 50.7792 75.8446 43.1667C74.8068 43.0017 73.994 42.8547 72.9652 42.6448C71.8674 49.9873 69.3779 52.7288 66.7624 53.3436C64.1439 53.9585 61.1655 53.3796 61.6994 50.7162C61.8529 49.9573 62.0671 49.1789 62.3 48.3327C62.8723 46.2526 63.5573 43.7632 63.73 40.1493C63.6332 40.1128 63.5392 40.0773 63.448 40.0429C60.5624 38.9537 60.4066 38.8949 59.6449 39.9183C53.988 47.5278 52.8662 51.697 53.3641 54.7983C53.862 57.8937 56.5345 61.0671 60.5357 63.3826C60.8623 63.5718 61.1787 63.7542 61.4859 63.9312C64.9388 65.9217 67.2241 67.239 69.7168 69.9273C69.9958 70.2302 70.3737 70.3532 70.4757 69.6994C71.8704 60.7312 79.4649 59.4354 89.3449 59.6124C98.6691 59.7772 102.94 61.8739 105.26 63.0126C106.403 63.5736 107.072 63.902 107.638 63.6526ZM50.3626 52.966C49.8274 52.2646 49.2277 51.1678 48.6043 50.0276C47.6666 48.3125 46.6754 46.4995 45.7696 45.7882C44.132 44.4997 42.6189 44.5097 41.407 44.5176C40.4746 44.5237 39.7205 44.5287 39.2249 43.9405C39.0479 43.7285 38.8861 43.5451 38.7425 43.3822C37.9025 42.4301 37.6809 42.1788 38.6491 40.9981C38.6491 40.9981 39.9238 39.3035 40.4577 38.5896C40.7973 38.1337 40.8796 37.4084 40.9501 36.7872C40.9905 36.4317 41.027 36.1104 41.1056 35.8931C41.3185 35.2993 42.6443 33.5566 43.943 32.4288C45.3767 31.1871 46.5585 31.733 51.0756 34.4474C52.6324 35.3824 53.8826 35.9947 54.832 36.4597C57.2297 37.6342 57.7086 37.8687 56.3635 39.9873C56.2047 40.2371 55.9981 40.5427 55.7568 40.8993C54.1942 43.2097 51.1824 47.6624 50.3626 52.966ZM66.0756 40.9081C65.7336 43.8086 65.0738 47.3628 64.4319 49.4834C63.79 51.601 65.6137 51.409 66.4595 51.0701C67.5603 50.6322 69.6448 48.7696 70.6886 42.1469C69.1379 41.784 67.5993 41.37 66.0756 40.9081ZM91.9844 51.7959C93.0882 50.6832 93.1841 46.8649 92.4043 43.9585C87.6142 44.2615 82.7972 44.1055 78.0372 43.4846C78.0586 43.9253 78.0788 44.4086 78.0999 44.9151C78.1884 47.0322 78.2939 49.5555 78.5771 51.0731C78.865 52.6538 79.5399 52.7678 80.1187 52.8547C82.3863 53.1937 90.2477 53.5506 91.9844 51.7959ZM104.123 47.8097C104.513 46.58 104.438 45.1403 103.088 42.6838C101.936 42.8097 100.782 42.9807 99.6328 43.1547C100.878 44.9633 101.594 46.9639 101.639 49.6034C102.017 49.7354 103.739 49.0425 104.123 47.8097ZM105.311 40.0053C109.042 39.7234 116.034 39.9723 117.752 48.0137L117.761 48.0107C118.891 53.3003 118.885 68.0318 118.878 83.0098C118.877 84.1688 118.877 85.3293 118.877 86.487C118.877 86.5358 118.877 86.5838 118.877 86.6309C118.88 87.6486 118.881 88.289 117.62 88.2746C113.499 88.2326 113.325 88.4036 112.941 89.4744C112.455 90.832 112.245 91.6581 111.953 92.8113C111.874 93.1232 111.789 93.4589 111.69 93.8355C111.309 95.2752 111.031 95.8031 110.059 95.8031H104.846C104.054 95.8031 103.622 94.8313 104.315 93.5926C110.947 81.685 110.473 72.4228 106.555 67.3658L106.439 67.8001C105.274 72.1619 104.751 74.1172 104.15 74.5674C96.6565 80.1714 92.6116 91.7196 91.7785 94.0981C91.7162 94.2758 91.6719 94.4024 91.6454 94.4714C91.2645 95.4642 90.7696 95.8061 89.5339 95.8061C89.1169 95.8061 87.8652 95.8076 86.6227 95.8091C85.3984 95.8106 84.183 95.8121 83.784 95.8121C82.1703 95.8121 82.2243 94.5884 83.2501 93.5056C92.2063 84.0395 94.4709 80.4522 97.0803 72.4258C99.7198 64.3244 93.5441 61.7689 88.793 65.9681C76.5075 60.4042 73.2411 67.6508 73.967 71.7209C74.4759 74.5674 75.6089 78.2875 76.7397 82.0005C78.1684 86.6915 79.5938 91.3714 79.7528 94.2644C79.8218 95.5332 78.685 95.8031 77.9892 95.8031H72.5093C71.0277 95.8031 71.3445 94.5898 71.5498 93.8032C71.5802 93.6869 71.6081 93.5799 71.6274 93.4876C74.3989 80.2452 68.739 72.6538 63.0372 69.1265C59.6359 71.604 55.1368 86.1181 54.5999 94.0065C54.5399 94.9123 54.072 95.8001 53.2231 95.8001C53.0598 95.8001 52.7003 95.8008 52.2291 95.8016C50.6494 95.8044 47.8143 95.8094 46.9064 95.8001C45.8686 95.7881 45.7126 94.6573 46.4805 93.2806C49.7258 87.4918 54.8308 78.3556 54.7318 68.6976L54.7316 68.6473C54.7257 67.4825 54.7092 64.2317 53.1781 62.4198C50.6437 59.4047 48.9209 55.9487 47.4812 53.0605C46.9444 51.9837 46.447 50.9859 45.9616 50.1193C44.7288 47.9207 43.1542 47.1889 41.9034 46.9609C41.3864 46.8668 40.9107 46.8733 40.4546 46.8795C39.7915 46.8886 39.1699 46.8971 38.5231 46.595C37.7642 46.2426 37.2574 45.5903 36.7188 44.8968C36.4825 44.5927 36.2401 44.2806 35.9676 43.9825C35.2238 43.1637 34.6869 41.9939 35.5657 40.8841C35.9181 40.4419 36.2432 40.0423 36.5384 39.6796C37.5344 38.4554 38.1889 37.6511 38.3971 37.0449C38.6026 36.4532 38.6177 36.0978 38.6356 35.6741C38.6415 35.5351 38.6477 35.3887 38.6611 35.2243C38.7053 34.6378 39.8596 33.2475 41.0012 31.8724C41.0973 31.7567 41.1933 31.641 41.2885 31.526C41.7534 30.9651 41.3665 30.0113 40.5297 29.0455C39.6959 28.0767 37.1974 24.6754 37.1974 19.0665C37.1974 16.841 37.9862 16.9549 38.5381 18.4696C39.096 19.9903 41.5285 26.0131 47.8182 28.2387C54.105 30.4672 59.7168 28.6466 63.67 25.3982C65.1308 24.1985 65.6347 24.8853 64.3119 27.0269C62.5843 29.8224 59.7438 31.46 56.4775 33.2237C56.4308 33.249 56.3837 33.2739 56.3372 33.2986C55.699 33.6367 55.1434 33.9311 56.5495 34.5824C65.2627 38.6076 76.5884 41.439 86.7174 41.439C92.0524 41.439 97.2969 40.857 101.257 40.4175C102.838 40.242 104.215 40.0892 105.311 40.0053Z" fill="#564499"/>
</svg>
