<svg width="241" height="49" viewBox="0 0 241 49" fill="none" xmlns="http://www.w3.org/2000/svg">
<path fill-rule="evenodd" clip-rule="evenodd" d="M110.104 34.8387H115.454V7.09481L110.104 12.1292V34.8387ZM98.2322 34.8387H103.583V15.2049H98.2322V34.8387ZM98.2322 12.0768H103.583V7.20297H98.2339V12.0785L98.2322 12.0768ZM86.2065 14.6117C84.8034 14.5529 83.4108 14.8774 82.1782 15.5502C80.9456 16.2231 79.9195 17.219 79.2101 18.431C78.8362 17.2464 78.0715 16.2236 77.0411 15.5298C76.0106 14.8361 74.7752 14.5124 73.537 14.6117C72.1582 14.6049 70.8019 14.9604 69.6037 15.6425C68.4055 16.3247 67.4075 17.3095 66.7096 18.4986H66.6318C66.6318 17.5066 66.6318 15.144 66.6318 15.144H61.8577V34.8489H67.0662V24.8646C67.0662 21.2431 69.0738 18.6253 71.4837 18.6253C73.6215 18.6253 74.8906 20.4843 74.8906 22.9212V34.8489H79.8506V25.0556C79.8506 21.091 81.7096 18.6253 84.1904 18.6253C86.4059 18.6253 87.6768 20.4843 87.6768 23.8743V34.8472H92.9156V23.3403C92.919 18.4986 91.1817 14.6151 86.2065 14.6151V14.6117ZM184.849 14.6117C178.427 14.6117 174.018 18.6473 174.018 24.9762C174.062 27.7748 175.204 30.4441 177.197 32.4094C179.19 34.3746 181.875 35.4786 184.674 35.4837C187.473 35.4888 190.162 34.3946 192.163 32.4366C194.163 30.4787 195.314 27.8135 195.369 25.015C195.427 23.6236 195.194 22.2353 194.685 20.9393C194.175 19.6433 193.4 18.4681 192.41 17.4893C191.419 16.5104 190.235 15.7495 188.933 15.2554C187.631 14.7613 186.24 14.5449 184.849 14.6202V14.6117ZM184.655 31.7072C181.481 31.6937 179.585 28.8783 179.585 25.0286C179.585 20.8341 181.592 18.2688 184.702 18.2688C187.85 18.2688 189.897 20.8037 189.897 24.846C189.897 28.8884 187.913 31.7072 184.655 31.7072ZM210.246 14.6066C208.947 14.5445 207.656 14.839 206.512 15.4584C205.369 16.0777 204.417 16.9982 203.759 18.12H203.682V15.09L198.482 15.0629V34.8353H203.612V25.9614C203.531 24.3903 203.824 22.8224 204.468 21.3867C204.878 20.6099 205.483 19.953 206.224 19.4805C206.964 19.0079 207.815 18.736 208.692 18.6912C212.113 18.6912 212.451 21.6149 212.451 25.3885V34.8438H217.58V23.4011C217.578 18.1403 215.571 14.6066 210.246 14.6066ZM169.748 31.0904C167.221 31.0904 166.496 29.6168 166.496 26.6425V19.1188H171.566V15.1339H166.496V7.19114L161.595 11.8419V15.1339H157.678V19.1188H161.526V27.6716C161.526 32.8564 163.613 35.2071 168.198 35.2071C169.455 35.2352 170.709 35.0682 171.916 34.712L171.799 30.7845C171.133 30.9827 170.442 31.0857 169.748 31.0904ZM240.021 25.2314C240.021 18.1336 236.886 14.6066 231.094 14.6066C229.735 14.5645 228.381 14.8037 227.118 15.3093C225.855 15.815 224.711 16.5761 223.756 17.5449C222.801 18.5137 222.056 19.6694 221.569 20.9395C221.082 22.2095 220.862 23.5666 220.924 24.9255C220.924 31.5163 225.382 35.4353 231.95 35.4353C234.24 35.4725 236.512 35.031 238.621 34.1391L238.544 29.9446C236.738 31.0173 234.672 31.5717 232.571 31.5467C228.957 31.5467 226.327 29.321 226.249 26.3079H239.938C239.986 25.9509 240.014 25.5915 240.021 25.2314ZM226.172 23.0885C226.472 19.614 228.607 18.2333 230.903 18.2333C233.469 18.2333 235.243 19.5362 235.243 23.0885H226.172ZM138.423 25.2347C138.423 18.1369 135.288 14.61 129.496 14.61C128.137 14.5679 126.783 14.8071 125.52 15.3127C124.257 15.8183 123.112 16.5794 122.158 17.5483C121.203 18.5171 120.458 19.6728 119.971 20.9429C119.484 22.2129 119.264 23.57 119.326 24.9289C119.326 31.5197 123.784 35.4387 130.351 35.4387C132.641 35.4758 134.914 35.0343 137.023 34.1425L136.946 29.948C135.14 31.0206 133.073 31.575 130.973 31.5501C127.359 31.5501 124.72 29.3244 124.651 26.3112H138.34C138.388 25.9532 138.416 25.5926 138.423 25.2314V25.2347ZM124.565 23.0885C124.866 19.614 127.002 18.2333 129.297 18.2333C131.862 18.2333 133.637 19.5362 133.637 23.0885H124.573H124.565ZM150.262 23.2085C147.425 22.2925 146.465 21.6875 146.465 20.3609C146.465 19.0343 147.891 18.164 149.641 18.164C151.25 18.175 152.838 18.5317 154.298 19.2101V15.2623C152.723 14.7569 151.076 14.512 149.423 14.5374C144.642 14.5374 141.351 16.9658 141.351 20.7023C141.351 23.5989 143.153 24.9458 146.962 26.2419C150.149 27.3472 150.888 28.0215 150.888 29.3954C150.888 30.8048 149.23 31.6329 147.481 31.6329C145.564 31.6072 143.675 31.1771 141.936 30.3705V34.4754C143.814 35.0856 145.778 35.3875 147.753 35.3694C152.611 35.3694 156.096 33.0187 156.096 28.9763C156.088 25.6234 153.806 24.3492 150.271 23.2051L150.262 23.2085ZM24.4963 48.1606L0.020752 24.1532L24.4963 0.144043L48.9702 24.1532L24.4963 48.1606Z" fill="#564499"/>
</svg>
