<svg width="120" height="38" viewBox="0 0 120 38" fill="none" xmlns="http://www.w3.org/2000/svg">
<path fill-rule="evenodd" clip-rule="evenodd" d="M30.981 36.766H26.7038C25.455 36.766 25.2156 36.5995 25.2156 35.1634V15.1615C25.2156 11.3839 25.2156 5.35836 15.5789 5.35836C10.1986 5.35836 7.13905 6.4823 7.13905 8.01209V35.1425C7.13905 36.5787 6.73318 36.7452 5.51559 36.7452H1.51939C0.395457 36.7452 0 36.5371 0 35.1842V5.36877C0 4.00548 0.884576 3.20416 3.61115 2.40284C5.77576 1.76803 10.0321 0.873047 15.735 0.873047C32.2714 0.873047 32.3547 9.06318 32.3547 14.1209V35.1634C32.3547 36.5162 32.0321 36.766 30.981 36.766ZM69.8713 36.766H65.5941C64.3453 36.766 64.1059 36.5995 64.1059 35.1634V15.1615C64.1059 11.3839 64.1059 5.35836 54.4693 5.35836C49.089 5.35836 46.0294 6.4823 46.0294 8.01209V35.1425C46.0294 36.5787 45.6235 36.7452 44.4059 36.7452H40.4097C39.2858 36.7452 38.8903 36.5371 38.8903 35.1842V5.36877C38.8903 4.00548 39.7749 3.20416 42.5015 2.40284C44.6661 1.76803 48.9225 0.873047 54.6254 0.873047C71.1617 0.873047 71.245 9.06318 71.245 14.1209V35.1634C71.245 36.5162 70.9224 36.766 69.8713 36.766ZM112.84 4.96288C112.799 2.94397 114.443 1.32051 116.42 1.32051C118.387 1.32051 120 2.92315 120 4.90044C120 6.90895 118.345 8.54281 116.306 8.48037C114.432 8.42833 112.871 6.84651 112.84 4.96288ZM119.407 4.90044C119.407 3.14169 117.888 1.74719 116.098 1.93451C114.734 2.0698 113.621 3.17291 113.444 4.52579C113.225 6.32617 114.63 7.88718 116.41 7.88718C118.064 7.88718 119.407 6.54471 119.407 4.90044ZM115.66 3.47476H116.368C116.742 3.47476 117.346 3.47476 117.346 4.04713C117.346 4.62991 116.711 4.62991 116.42 4.62991H115.66V3.47476ZM115.035 6.79452H115.66V5.16065H116.024C116.524 5.16065 116.701 5.35838 117.169 6.19092L117.512 6.79452H118.272L117.804 6.05564C117.325 5.28553 117.127 5.17106 116.909 5.08781V5.06699C117.71 5.02537 118.012 4.42177 118.012 3.99509C118.012 3.68289 117.866 3.40191 117.637 3.22499C117.315 2.95442 116.815 2.95442 116.368 2.95442H115.035V6.79452ZM110.561 14.6413C110.925 17.9714 108.792 19.6989 106.617 19.6989C106.346 19.6989 82.7231 19.6573 82.7543 19.6469C82.7543 19.8352 82.7637 20.0235 82.7736 20.2208L82.7751 20.2505C83.0665 24.1739 86.1677 31.5106 95.7628 31.5106C99.1658 31.5106 102.257 30.2098 104.557 28.0972C104.983 27.7642 105.389 27.4208 105.785 27.0461C107.158 25.7037 107.647 25.3706 108.709 25.3706C109.031 25.4435 110.239 25.9326 109.843 27.6914C109.021 30.8654 103.911 37.3801 94.566 37.3801C94.2018 37.3801 93.8479 37.3696 93.5045 37.3592C84.0656 36.7244 76.6039 30.2826 76.6039 19.6053C76.6039 19.4492 76.6039 19.2827 76.6143 19.1266C76.6559 18.2836 76.7288 17.4823 76.8433 16.7018C77.041 15.2761 77.3532 13.9648 77.759 12.7472C80.496 4.56751 87.5102 1.03961 94.181 0.925141C98.6767 0.925141 102.652 2.66307 105.566 5.3168C108.334 7.82483 110.155 11.155 110.561 14.61V14.6413ZM100.685 15.838C101.216 15.838 101.632 15.7444 101.944 15.5883C102.777 15.172 102.943 14.2978 102.943 13.3716C102.943 13.1531 102.933 12.9345 102.912 12.7264C102.527 8.52208 98.4373 5.44168 94.2642 5.44168C88.2699 5.44168 83.6285 9.47951 82.8896 15.838H100.685Z" fill="white"/>
</svg>
