<svg width="241" height="87" viewBox="0 0 241 87" fill="none" xmlns="http://www.w3.org/2000/svg">
<path fill-rule="evenodd" clip-rule="evenodd" d="M93.8245 67.5827L93.8346 67.5796V67.588H93.8261L93.8245 67.5827ZM93.8245 67.5827C79.9953 71.8298 71.1677 71.5748 67.5871 66.8091C64.2765 62.4062 66.588 55.4972 69.8562 50.5017C70.2033 49.9666 70.6616 49.3573 71.1836 48.6634L71.1838 48.6632C71.2729 48.5447 71.3639 48.4238 71.4565 48.3003C75.1904 43.3726 81.439 35.1258 76.0117 26.2185C69.6699 15.8127 69.5768 4.33147 73.4716 0.148804L74.8517 1.43578C71.4903 5.0427 71.8036 15.711 77.6204 25.2448C83.7155 35.2371 76.7448 44.4529 72.9812 49.4285L72.9636 49.4518L72.9311 49.4945C72.3265 50.2896 71.7971 50.9858 71.4311 51.5432C68.6454 55.802 66.3678 62.0591 69.0942 65.683C71.194 68.4771 77.0955 70.7547 93.2758 65.7846L93.8245 67.5827ZM3.79701 33.136H3.78854H0.020752V46.2852H7.57327V40.6885H16.362C18.6142 40.6885 22.8138 40.6885 22.8138 51.2214C22.8138 61.7543 18.6142 61.7543 16.362 61.7543H0.020752V69.3068H16.3535C22.9746 69.3068 26.3106 65.8269 27.9447 62.9143C29.5704 60.0016 30.3578 56.183 30.3578 51.2214C30.3578 46.2598 29.5704 42.4412 27.9447 39.5286C26.3106 36.6075 22.9746 33.136 16.3535 33.136H3.79701ZM37.4279 61.822V69.2306H58.1803V61.822H37.4279ZM37.4192 40.6208V33.2038H58.1801V40.6208H37.4192ZM37.4192 47.6822V55.0908H58.1801V47.6822H37.4192ZM81.6422 15.8719C79.9065 17.5907 78.3316 19.2672 76.9515 20.9352C76.9515 20.9352 76.3504 19.5381 76.1302 18.9624C77.4849 17.396 78.9159 15.9143 80.3214 14.5172L81.6507 15.8635L81.6422 15.8719ZM71.4393 45.9296L72.6754 44.2193H72.667C69.3733 37.0901 70.2115 31.1294 73.81 25.2618L72.8194 23.2805C70.9566 26.1 69.5342 29.1481 68.9838 32.4502C68.2726 36.7429 69.077 41.205 71.4393 45.9296ZM87.4083 86.1475L87.4052 86.1459C87.537 85.8941 89.2947 82.4441 89.1948 76.8254C89.1609 75.0474 88.9323 72.9391 88.3312 70.5514L86.4939 70.9663C87.0527 73.1593 87.2728 75.0982 87.3067 76.7323C87.4337 81.9903 85.7403 85.2585 85.7403 85.2585L87.4052 86.1459L87.3998 86.156H87.4083V86.1475ZM84.9698 66.4365L86.8494 66.047H86.8579C85.3677 62.4401 83.0139 58.4183 79.3731 54.1679C77.7644 52.2882 76.3928 50.4848 75.2497 48.7575L74.0643 50.3493C75.1735 51.9919 76.469 53.6768 77.9422 55.3956C81.329 59.3581 83.5473 63.0921 84.9698 66.4365ZM117.77 33.136H90.727V40.6885H113.994V46.2852H121.547V33.136H117.77ZM101.937 69.7725V46.2598H109.49V69.7725H101.937ZM151.545 69.7725H152.502C155.541 69.7725 156.032 68.3754 156.032 66.9445V66.7583H154C154 67.5203 153.713 67.6473 152.612 67.6473H151.249C150.148 67.6473 149.784 67.0885 149.784 66.1994V65.8438H156.024V64.5061C156.024 61.5003 155.287 60.5266 152.375 60.5266H151.342C148.615 60.5266 147.794 61.712 147.794 64.5399V65.7846C147.794 68.6464 148.658 69.764 151.537 69.764L151.545 69.7725ZM152.536 62.6941C153.873 62.6941 154 63.5154 154 64.142H149.809C149.809 63.6001 149.902 62.6941 151.172 62.6941H152.536ZM161.536 60.5774H162.214H162.222C164.635 60.5774 165.6 61.9744 165.6 64.76V69.7555H163.424V65.2596C163.424 63.6509 162.899 62.7364 161.536 62.7364H161.223C159.995 62.7364 159.352 63.6847 159.352 65.2596V69.7555H157.15V60.5774H159.309V61.9152C159.547 61.3055 159.978 60.5774 161.536 60.5774ZM171.934 60.5774H171.256C169.698 60.5774 169.267 61.3055 169.029 61.9152V60.5774H166.87V69.7555H169.072V65.2596C169.072 63.6847 169.715 62.7364 170.943 62.7364H171.256C172.619 62.7364 173.144 63.6509 173.144 65.2596V69.7555H175.32V64.76C175.32 61.9744 174.355 60.5774 171.942 60.5774H171.934ZM176.472 67.0207H178.394H178.402V67.0377C178.402 67.3933 178.521 67.7828 179.215 67.7828H181.62C182.289 67.7828 182.475 67.5034 182.475 67.0377C182.475 66.6059 182.306 66.3265 181.62 66.3095L178.699 66.2333C177.302 66.191 176.489 65.6152 176.489 63.761V63.3122C176.489 61.585 177.098 60.5435 179.054 60.5435H181.984C183.745 60.5435 184.592 61.1024 184.592 63.2953H182.551C182.551 62.8127 182.187 62.5671 181.467 62.5671H179.198C178.58 62.5671 178.411 62.8296 178.411 63.236C178.411 63.6424 178.538 63.7948 179.181 63.8118L182.026 63.888C183.982 63.9388 184.634 64.7262 184.634 66.4873V66.9699C184.634 68.8073 183.728 69.7725 182.026 69.7725H178.936C177.454 69.7725 176.472 69.1968 176.472 67.0207ZM189.706 67.5457C188.775 67.5457 188.385 67.0461 188.385 65.9285V63.1429H192.966V60.5774H188.385V58.8163H186.218V60.5774H185.422V63.1429H186.218V65.7846C186.218 68.4601 187.157 69.764 189.579 69.764H190.299C193.389 69.764 193.897 67.9267 193.88 66.0132H191.645C191.662 66.7583 191.459 67.5542 190.282 67.5542H189.706V67.5457ZM202.863 64.3113H200.687C200.687 63.6424 200.399 62.728 199.299 62.728H198.74C197.707 62.728 197.131 63.6593 197.131 64.9209V69.7555H194.921V60.5774H197.131V61.9321C197.377 61.2124 197.842 60.5774 198.952 60.5774H199.824C202.211 60.5774 202.863 62.1946 202.863 64.3113ZM210.119 65.2935C210.119 66.8175 209.662 67.4102 208.324 67.4102H207.512C206.174 67.4102 205.717 66.8175 205.717 65.2935V64.9209C205.717 63.5324 206.115 62.8804 207.588 62.8804H208.24C209.722 62.8804 210.111 63.5324 210.111 64.9209V65.2935H210.119ZM207.292 60.5351C204.591 60.5351 203.795 61.7797 203.795 64.8447V65.6068C203.795 68.6887 204.802 69.7725 206.623 69.7725H209.23C211.212 69.7725 212.05 68.6549 212.05 65.6068V64.8447C212.05 61.6696 211.135 60.5351 208.409 60.5351H207.292ZM223.421 60.5774H224.014V60.5858C226.41 60.5858 227.197 62.0168 227.197 64.1166V69.764H224.971V64.6923C224.971 63.7102 224.844 62.7449 223.413 62.7449H223.023C221.812 62.7449 221.33 63.5577 221.33 64.8617V69.764H219.103V64.8024C219.103 63.5577 218.773 62.7364 217.41 62.7364H217.02C215.869 62.7364 215.488 63.5154 215.488 64.7431V69.7555H213.261V60.5774H215.488V61.9914C215.682 61.2801 216.292 60.5774 217.808 60.5774H218.273C220.373 60.5774 220.898 61.2463 221.169 61.9152C221.448 61.2124 221.914 60.5774 223.421 60.5774ZM234.784 52.3306C236.003 52.4491 236.884 52.9148 237.451 53.2619C237.578 53.3382 237.654 53.4736 237.654 53.5752C237.654 53.7276 237.569 53.8885 237.417 54.0409C237.392 54.0663 237.341 54.0917 237.307 54.1086C237.273 54.1171 237.214 54.1256 237.197 54.1256C237.038 54.1256 236.959 54.0724 236.828 53.9838L236.827 53.9837C236.763 53.9401 236.685 53.8879 236.579 53.8292C236.401 53.7361 236.206 53.6345 236.02 53.5583C235.698 53.4228 234.809 53.1857 234.081 53.2196C233.565 53.245 231.702 53.4398 230.246 55.565L230.241 55.5718C230.149 55.7018 228.943 57.4157 230.017 59.9593C230.271 60.4927 230.72 61.187 231.456 61.7628C231.829 62.0252 232.159 62.22 232.515 62.3724C232.853 62.5163 233.209 62.6264 233.565 62.6772C233.658 62.6941 234.606 62.8635 235.597 62.5671C236.443 62.347 237.392 61.8136 238.128 60.8822C238.145 60.8611 238.162 60.84 238.179 60.8186C238.224 60.7625 238.272 60.704 238.315 60.6367C238.763 59.9508 239.026 59.2311 239.094 58.5284C239.094 58.4699 239.106 58.3831 239.113 58.3294C239.117 58.3054 239.119 58.2881 239.119 58.2828C239.127 58.1135 239.127 57.9188 239.119 57.7071C239.119 57.6055 239.06 57.216 239.051 57.1906C238.974 57.268 238.896 57.3466 238.819 57.4257L238.677 57.5716L238.676 57.572C238.394 57.8612 238.111 58.1518 237.823 58.4098C237.773 58.4776 237.654 58.4945 237.637 58.4945H232.269C232.194 58.4809 232.18 58.4727 232.159 58.4612C232.154 58.4584 232.149 58.4555 232.142 58.4522C231.956 58.376 231.888 58.1812 231.888 58.0542V57.9442C231.888 57.741 232.066 57.6394 232.142 57.614C232.151 57.6116 232.162 57.6087 232.173 57.6056C232.202 57.5975 232.234 57.5886 232.252 57.5886H237.332C237.332 57.5886 237.348 57.5752 237.367 57.5606L237.38 57.5501L237.388 57.5444L237.398 57.5368L237.409 57.5293C237.593 57.3502 237.778 57.1692 237.964 56.9876L237.964 56.9873L237.964 56.9869L237.965 56.9865L237.965 56.9864L237.965 56.9863C238.331 56.6274 238.7 56.266 239.077 55.9121C239.119 55.8698 239.263 55.8359 239.314 55.8359C239.432 55.8359 239.568 55.8698 239.652 56.0391C239.712 56.1407 239.737 56.2508 239.762 56.3609C239.898 56.7673 239.974 57.1821 239.999 57.597C240.033 58.0373 240.016 58.0627 240.016 58.0796V58.3421L240.012 58.3885C239.98 58.7314 239.944 59.1026 239.847 59.4428C239.703 59.9424 239.195 61.3563 238.128 62.2369C237.578 62.7449 236.824 63.1429 236.342 63.3122C235.479 63.691 234.088 63.6555 233.919 63.6512L233.903 63.6509C233.404 63.617 232.879 63.49 232.371 63.3122C231.541 62.9989 230.466 62.2623 229.797 61.3902C229.009 60.3488 228.772 59.2819 228.722 58.9517C228.279 56.5956 229.395 55.0948 229.697 54.6888L229.725 54.6511L229.738 54.6336C230.364 53.8631 232.024 52.1443 234.767 52.356L234.784 52.3306ZM238.882 54.8029C238.882 54.5913 238.602 54.2441 238.365 54.2441V54.2526H238.357C238.314 54.2526 238.264 54.2695 238.221 54.2949C238.187 54.3119 238.145 54.3457 238.12 54.3711C238.001 54.4899 237.882 54.6095 237.762 54.7295L237.596 54.8963L237.593 54.8994C237.241 55.254 236.887 55.6099 236.536 55.9545C236.519 55.9714 236.486 55.9968 236.486 55.9968H231.261C231.126 55.9883 230.872 56.1746 230.872 56.3693V59.6799C230.88 59.8323 230.974 59.9593 231.126 60.0355C231.185 60.0694 231.219 60.0694 231.27 60.0694H237.442C237.713 60.027 237.832 59.8069 237.832 59.6037C237.832 59.4682 237.832 59.4513 237.798 59.3836C237.739 59.2735 237.671 59.2312 237.586 59.1888C237.552 59.1719 237.459 59.1465 237.459 59.1465H231.786V56.9027H236.765C236.782 56.9112 236.9 56.8773 236.951 56.835C237.33 56.4918 237.7 56.1279 238.068 55.7665L238.068 55.7663C238.227 55.6106 238.385 55.4554 238.543 55.3025L238.55 55.2952L238.558 55.2879C238.565 55.2814 238.572 55.2751 238.579 55.2688C238.596 55.2531 238.614 55.2379 238.632 55.223L238.632 55.2229L238.632 55.2227C238.683 55.1798 238.731 55.1387 238.763 55.0908C238.839 54.9892 238.882 54.8961 238.882 54.8029ZM145.703 56.8604L142.926 67.1562H142.756L140.174 56.8604H137.913L135.348 67.2239H135.229L132.384 56.8604H130.132L133.671 69.7556H136.863L139.048 60.9838L141.232 69.7556H144.433L147.955 56.8604H145.703ZM134.688 47.2843V46.2936H130.657V51.6786H134.747V50.6795H131.843V49.3587H134.45V48.4358H131.843V47.2843H134.688ZM136.449 47.7669V48.3088H136.474C136.61 48.0802 136.787 47.9193 136.999 47.8177C137.219 47.7161 137.439 47.6653 137.66 47.6653C137.947 47.6653 138.184 47.7076 138.362 47.7838C138.54 47.86 138.693 47.9701 138.794 48.1056C138.896 48.241 138.972 48.4104 139.014 48.6136C139.057 48.8083 139.082 49.0285 139.082 49.274V51.6702H138.007V49.4688C138.007 49.147 137.956 48.9099 137.854 48.7491C137.753 48.5882 137.575 48.512 137.321 48.512C137.033 48.512 136.821 48.5967 136.686 48.7745C136.559 48.9438 136.491 49.2317 136.491 49.6296V51.6702H135.416V47.7669H136.449ZM144.281 51.6278C144.484 51.5347 144.645 51.3823 144.772 51.1706V51.1622H144.789V51.6617H145.805V46.2767H144.729V48.2411H144.713C144.594 48.0548 144.433 47.9024 144.221 47.8092C144.01 47.7161 143.79 47.6653 143.561 47.6653C143.273 47.6653 143.028 47.7246 142.807 47.8346C142.587 47.9447 142.41 48.0971 142.266 48.2834C142.122 48.4697 142.02 48.6813 141.944 48.9269C141.868 49.1724 141.834 49.418 141.834 49.6889C141.834 49.9598 141.868 50.2223 141.944 50.4763C142.012 50.7303 142.122 50.9505 142.266 51.1452C142.41 51.34 142.596 51.4924 142.816 51.6024C143.036 51.7125 143.299 51.7718 143.586 51.7718C143.849 51.7718 144.078 51.721 144.281 51.6278ZM144.577 48.8507C144.645 48.9607 144.696 49.0878 144.729 49.2402L144.721 49.2486C144.746 49.401 144.763 49.5534 144.763 49.7143C144.763 49.8752 144.755 50.0276 144.721 50.18C144.687 50.3324 144.636 50.4679 144.569 50.5864C144.501 50.7049 144.408 50.7981 144.289 50.8658C144.171 50.9335 144.027 50.9674 143.849 50.9674C143.688 50.9674 143.544 50.9335 143.426 50.8573C143.307 50.7811 143.205 50.688 143.129 50.5695C143.053 50.4509 142.994 50.3155 142.96 50.1631C142.926 50.0191 142.909 49.8667 142.909 49.7143C142.909 49.5534 142.926 49.401 142.96 49.2486C142.994 49.0962 143.045 48.9692 143.121 48.8507C143.189 48.7321 143.282 48.639 143.409 48.5713C143.536 48.5035 143.68 48.4697 143.857 48.4697C144.035 48.4697 144.179 48.5035 144.298 48.5713C144.408 48.6475 144.501 48.7406 144.577 48.8507ZM147.761 50.7303C147.921 50.8827 148.15 50.9674 148.455 50.9674C148.675 50.9674 148.853 50.9166 149.014 50.8065C149.166 50.6965 149.268 50.5864 149.302 50.4594H150.241C150.089 50.9251 149.86 51.2637 149.547 51.4585C149.234 51.6617 148.861 51.7633 148.413 51.7633C148.108 51.7633 147.828 51.7125 147.583 51.6194C147.337 51.5178 147.126 51.3823 146.956 51.2045C146.787 51.0267 146.651 50.8065 146.558 50.5525C146.465 50.2985 146.423 50.0276 146.423 49.7228C146.423 49.4179 146.474 49.1639 146.567 48.9099C146.66 48.6559 146.795 48.4443 146.973 48.258C147.151 48.0717 147.363 47.9278 147.6 47.8262C147.837 47.7246 148.116 47.6653 148.413 47.6653C148.743 47.6653 149.031 47.733 149.276 47.86C149.522 47.987 149.725 48.1648 149.886 48.3765C150.047 48.5967 150.157 48.8422 150.233 49.1131C150.301 49.3926 150.326 49.6804 150.309 49.9768H147.498C147.515 50.3239 147.6 50.5779 147.761 50.7303ZM148.971 48.6813C148.844 48.5374 148.65 48.4697 148.387 48.4697C148.218 48.4697 148.074 48.4951 147.964 48.5543C147.854 48.6136 147.761 48.6813 147.693 48.766C147.625 48.8507 147.574 48.9438 147.549 49.0369C147.524 49.1301 147.507 49.2147 147.498 49.2909H149.242C149.192 49.02 149.098 48.8168 148.971 48.6729V48.6813ZM152.045 51.6702V46.2852H150.969V51.6702H152.045ZM154.94 48.9692L154.942 48.9523H156.016C156.033 48.7491 156.109 48.5967 156.227 48.5035C156.346 48.4104 156.515 48.368 156.727 48.368C156.78 48.368 156.829 48.3727 156.875 48.3771C156.917 48.3811 156.958 48.385 156.998 48.385C157.083 48.4019 157.159 48.4273 157.218 48.4612C157.286 48.5035 157.337 48.5543 157.37 48.6221C157.413 48.6898 157.43 48.7829 157.43 48.9015C157.43 49.0115 157.396 49.0962 157.328 49.1555C157.26 49.2147 157.159 49.2571 157.04 49.2909C156.922 49.3248 156.778 49.3417 156.625 49.3587L156.58 49.3638C156.441 49.3791 156.296 49.3951 156.151 49.4179C155.99 49.4433 155.83 49.4772 155.669 49.5196C155.508 49.5619 155.372 49.6296 155.245 49.7143C155.118 49.8074 155.017 49.9175 154.94 50.0614C154.864 50.2054 154.822 50.3916 154.822 50.6118C154.822 50.8065 154.856 50.9843 154.924 51.1283C154.991 51.2722 155.084 51.3992 155.203 51.4924C155.322 51.5855 155.465 51.6617 155.626 51.704C155.787 51.7464 155.957 51.7718 156.143 51.7718C156.388 51.7718 156.625 51.7464 156.854 51.6702C157.083 51.594 157.286 51.4754 157.455 51.2976C157.455 51.3653 157.464 51.4246 157.481 51.4924C157.491 51.5338 157.501 51.5721 157.512 51.6092L157.531 51.6786H158.615C158.573 51.594 158.547 51.4754 158.514 51.3145C158.48 51.1537 158.48 50.9843 158.48 50.8065V48.7745C158.48 48.5374 158.42 48.3511 158.319 48.2072C158.217 48.0632 158.082 47.9447 157.912 47.8685C157.743 47.7923 157.557 47.733 157.362 47.7076C157.167 47.6822 156.964 47.6653 156.769 47.6653C156.558 47.6653 156.338 47.6907 156.126 47.733C155.914 47.7754 155.719 47.8431 155.55 47.9447C155.381 48.0463 155.237 48.1733 155.127 48.3426C155.019 48.5082 154.96 48.7061 154.942 48.9523H154.94V48.9692ZM157.243 49.8582C157.307 49.8345 157.363 49.8107 157.404 49.7731V50.1546C157.404 50.185 157.401 50.2172 157.397 50.2526C157.393 50.2959 157.387 50.3442 157.387 50.4001C157.379 50.5017 157.337 50.5949 157.286 50.6965C157.235 50.7981 157.15 50.8827 157.032 50.9505C156.913 51.0182 156.752 51.0521 156.541 51.0521C156.456 51.0521 156.371 51.0436 156.295 51.0267C156.211 51.0182 156.143 50.9843 156.084 50.9505C156.024 50.9166 155.973 50.8658 155.94 50.7981C155.906 50.7303 155.889 50.6457 155.889 50.5525C155.889 50.4594 155.906 50.3747 155.94 50.307C155.982 50.2392 156.024 50.1884 156.084 50.1461C156.143 50.1038 156.211 50.0699 156.287 50.0445C156.363 50.0191 156.439 50.0022 156.524 49.9852C156.566 49.981 156.608 49.9746 156.651 49.9683C156.693 49.9619 156.735 49.9556 156.778 49.9514C156.862 49.9429 156.947 49.9344 157.023 49.9175C157.1 49.9006 157.176 49.8836 157.243 49.8582ZM158.903 47.7669V48.4697H159.546V51.6532H160.622V48.4697H161.358V47.75H160.622V47.5129C160.622 47.352 160.656 47.2335 160.715 47.1658C160.774 47.098 160.884 47.0642 161.028 47.0642C161.164 47.0642 161.291 47.0726 161.418 47.0896V46.2937C161.371 46.2937 161.324 46.2894 161.278 46.2852C161.231 46.281 161.185 46.2767 161.138 46.2767H160.85C160.41 46.2767 160.088 46.3868 159.868 46.6069C159.656 46.8271 159.546 47.115 159.546 47.4621V47.7669H158.903Z" fill="#564499"/>
</svg>
