<svg width="646" height="391" viewBox="0 0 646 391" fill="none" xmlns="http://www.w3.org/2000/svg">
<path d="M353.016 139.569L428.273 61.1378H475.833C522.061 61.1378 559.682 96.3755 559.682 139.692C559.682 183.009 522.061 218.261 475.833 218.261H428.289L353.013 139.569H353.016ZM272.59 139.692L204.737 210.412C199.964 215.393 193.119 218.261 185.959 218.261H149.655C113.977 218.261 83.4486 197.257 71.3706 167.758H169.273C174.16 167.758 178.869 165.938 182.325 162.7L202.154 144.116C204.409 142.004 204.409 138.581 202.139 136.468L180.876 116.653C177.402 113.432 172.729 111.626 167.842 111.626H71.3706C83.4486 82.127 113.977 61.1378 149.655 61.1378H185.959C193.119 61.1378 199.964 63.9914 204.753 68.9725L272.59 139.692ZM342.046 211.946L387.279 259.232C396.412 268.747 409.479 274.221 423.156 274.221H475.836C555.009 274.221 619.405 213.866 619.405 139.69C619.405 65.5138 555.009 5.16043 475.833 5.16043H423.154C409.495 5.16043 396.412 10.6352 387.276 20.1495L312.742 97.8397L249.152 31.5614C233.073 14.7837 210.032 5.16043 185.957 5.16043H149.653C70.4976 5.16043 6.08594 65.5187 6.08594 139.692C6.08594 213.866 70.5002 274.224 149.658 274.224H185.962C210.038 274.224 233.078 264.601 249.157 247.823L312.861 181.436L342.048 211.946H342.046Z" fill="url(#paint0_linear_207_7252)"/>
<path d="M267.773 134.532L267.441 134.878L199.589 205.597C194.718 210.68 187.741 213.6 180.45 213.6H144.146C108.272 213.6 77.5565 192.481 65.3986 162.787L65.1163 162.098H65.8614H163.764C168.529 162.098 173.114 160.323 176.474 157.174L196.303 138.591C198.347 136.676 198.347 133.589 196.289 131.674L196.289 131.674L175.027 111.859L267.773 134.532ZM267.773 134.532L267.441 134.186M267.773 134.532L267.441 134.186M267.441 134.186L199.604 63.4659L199.604 63.4655C194.717 58.3825 187.74 55.4774 180.45 55.4774H144.146C108.273 55.4774 77.5565 76.5819 65.3986 106.276L65.1163 106.966M267.441 134.186L65.1163 106.966M65.1163 106.966H65.8614M65.1163 106.966H65.8614M65.8614 106.966H162.333C167.097 106.966 171.647 108.726 175.026 111.858L65.8614 106.966ZM337.707 207.286H337.709L336.9 206.44L307.713 175.93L307.352 175.552L306.991 175.929L243.287 242.316L243.287 242.316C227.306 258.992 204.398 268.563 180.452 268.563H144.149C65.2359 268.563 1.07666 208.399 1.07666 134.532C1.07666 60.6645 65.2333 0.5 144.144 0.5H180.447C204.392 0.5 227.3 10.0716 243.281 26.7469L243.282 26.7471L306.872 93.0255L307.233 93.4015L307.593 93.0255L382.128 15.3354C391.166 5.92289 404.117 0.5 417.644 0.5H470.324C549.255 0.5 613.396 60.6596 613.396 134.529C613.396 208.399 549.255 268.561 470.327 268.561H417.647C404.102 268.561 391.166 263.138 382.131 253.726L337.707 207.286ZM337.707 207.286L382.13 253.726L337.707 207.286ZM422.403 55.6312L347.293 133.908H346.333L347.142 134.754L422.418 213.446L422.566 213.6H422.779H470.324C516.797 213.6 554.673 178.155 554.673 134.532C554.673 90.9086 516.797 55.4774 470.324 55.4774H422.764H422.551L422.403 55.6312Z" stroke="#564499"/>
<path d="M437.041 261.517C437.041 261.517 436.986 261.517 436.965 261.553C436.553 261.764 436.136 261.954 435.709 262.149C432.972 263.411 430.168 264.539 427.306 265.529C420.242 268.011 412.783 269.639 405.253 269.557C399.441 269.496 393.712 268.263 388.455 265.94C383.198 263.617 378.538 260.26 374.792 256.098C368.875 249.533 365.14 241.596 362.375 233.495C359.463 224.942 357.247 216.353 353.639 208.031C351.33 202.735 349.015 196.786 344.041 193.051C341.485 191.151 338.288 190.483 335.754 188.582C333.062 186.555 331.111 183.794 330.171 180.681C329.761 179.34 329.499 177.963 329.386 176.572C328.915 171.08 330.483 165.347 332.408 160.262L322.58 154.066C319.915 152.376 318.741 148.719 320.326 146.094C320.778 145.344 321.399 144.694 322.145 144.19C322.891 143.687 323.745 143.341 324.648 143.176C325.486 143.026 326.348 143.038 327.181 143.21C328.015 143.382 328.803 143.712 329.496 144.178L349.789 157.832C349.789 157.832 351.352 153.101 356.14 154.56C360.609 155.931 376.542 161.792 375.999 179.885C375.923 182.642 376.7 185.361 378.237 187.714L397.284 217.247C398.635 219.332 400.437 221.129 402.575 222.523C404.712 223.916 407.137 224.875 409.694 225.337C412.251 225.799 414.883 225.755 417.421 225.206C419.958 224.658 422.345 223.618 424.427 222.152L452.348 202.632L457.778 198.851L459.094 197.937L459.396 197.726L459.528 197.623" fill="white"/>
<path d="M437.041 261.517C437.041 261.517 436.986 261.517 436.965 261.553C436.553 261.764 436.136 261.954 435.709 262.149C432.972 263.411 430.168 264.539 427.306 265.529C420.242 268.011 412.783 269.639 405.253 269.557C399.441 269.496 393.712 268.263 388.455 265.94C383.198 263.617 378.538 260.26 374.792 256.098C368.875 249.533 365.14 241.596 362.375 233.495C359.463 224.942 357.247 216.353 353.639 208.031C351.33 202.735 349.015 196.786 344.041 193.051C341.485 191.151 338.288 190.483 335.754 188.582C333.062 186.555 331.111 183.794 330.171 180.681C329.761 179.34 329.499 177.963 329.386 176.572C328.915 171.08 330.483 165.347 332.408 160.262L322.58 154.066C319.915 152.376 318.741 148.719 320.326 146.094C320.778 145.344 321.399 144.694 322.145 144.19C322.891 143.687 323.745 143.341 324.648 143.176C325.486 143.026 326.348 143.038 327.181 143.21C328.015 143.382 328.803 143.712 329.496 144.178L349.789 157.832C349.789 157.832 351.352 153.101 356.14 154.56C360.609 155.931 376.542 161.792 375.999 179.885C375.923 182.642 376.7 185.361 378.237 187.714L397.284 217.247C398.635 219.332 400.437 221.129 402.575 222.523C404.712 223.916 407.137 224.875 409.694 225.337C412.251 225.799 414.883 225.755 417.421 225.206C419.958 224.658 422.345 223.618 424.427 222.152L452.348 202.632L457.778 198.851L459.094 197.937L459.396 197.726L459.528 197.623" stroke="#564499" stroke-miterlimit="10"/>
<path d="M452.641 203.037L452.349 202.631L452.641 203.037L452.641 203.037L452.642 203.037L452.644 203.035L452.653 203.029L452.689 203.003L452.828 202.904C452.948 202.819 453.119 202.697 453.327 202.552C453.742 202.261 454.299 201.874 454.869 201.493C455.441 201.111 456.018 200.738 456.476 200.47C456.706 200.336 456.895 200.235 457.033 200.173C457.066 200.158 457.093 200.147 457.115 200.138C459.815 201.001 461.72 202.674 462.959 204.152C463.586 204.899 464.039 205.592 464.333 206.097C464.481 206.349 464.588 206.553 464.659 206.693C464.661 206.699 464.664 206.704 464.667 206.71L442.349 258.41L436.743 260.863L436.743 260.864L428.039 264.661C431.634 250.3 430.912 239.699 429.247 232.632C428.396 229.019 427.299 226.334 426.41 224.547C425.966 223.653 425.574 222.984 425.291 222.535C425.23 222.439 425.174 222.352 425.123 222.276L452.636 203.041L452.636 203.041L452.641 203.037ZM457.18 200.118C457.179 200.118 457.175 200.119 457.167 200.12C457.176 200.118 457.18 200.117 457.18 200.118Z" fill="#BBB4D6" stroke="#564499"/>
<path d="M514.894 171.563L514.943 171.583L514.995 171.593C533.949 175.143 544.824 180.593 551.174 186.916C557.509 193.225 559.4 200.464 560.245 207.759C560.499 209.951 560.656 212.12 560.813 214.273C560.919 215.731 561.024 217.181 561.158 218.627C561.488 222.179 561.991 225.638 563.112 228.859C564.236 232.087 565.981 235.074 568.792 237.681C571.596 240.282 575.439 242.485 580.732 244.182C587.248 246.97 598.703 258.34 595.59 276.976C593.51 287.033 586.28 293.886 579.502 298.241C576.118 300.416 572.862 301.957 570.452 302.955C569.248 303.453 568.256 303.815 567.567 304.052C567.289 304.148 567.059 304.223 566.886 304.279C566.793 304.09 566.659 303.808 566.478 303.395C566.027 302.373 565.281 300.562 564.11 297.421C562.933 294.265 559.338 285.385 556.042 277.303C554.393 273.26 552.817 269.414 551.654 266.579C551.073 265.161 550.594 263.996 550.261 263.185L549.875 262.248L549.774 262.002L549.749 261.941L549.748 261.94L549.744 261.925L549.709 261.81C549.678 261.709 549.632 261.56 549.572 261.364C549.451 260.973 549.271 260.398 549.038 259.663C548.572 258.193 547.89 256.081 547.028 253.513C545.303 248.378 542.855 241.417 539.961 234.115C537.068 226.816 533.727 219.166 530.215 212.659C526.713 206.171 523.006 200.749 519.361 197.971C515.412 194.957 511.326 192.772 507.548 190.951C506.276 190.338 505.045 189.768 503.867 189.224C501.528 188.142 499.4 187.157 497.576 186.119C492.205 183.061 489.454 179.719 487.533 177.384C487.404 177.226 487.278 177.074 487.156 176.926L487.155 176.926C486.974 176.708 486.788 176.485 486.597 176.258C484.77 174.082 482.541 171.427 481.174 167.597C479.669 163.383 479.196 157.7 481.601 149.648C482.815 145.582 483.434 143.001 483.592 141.392C483.67 140.593 483.643 139.969 483.473 139.507C483.385 139.267 483.254 139.06 483.073 138.898C482.89 138.737 482.68 138.642 482.463 138.593C482.054 138.501 481.591 138.564 481.164 138.647C480.965 138.686 480.756 138.733 480.545 138.781C480.522 138.786 480.498 138.791 480.475 138.797C480.238 138.85 479.998 138.903 479.751 138.949C478.795 139.129 477.802 139.191 476.84 138.748C476.793 138.685 476.725 138.597 476.638 138.489C476.458 138.264 476.192 137.954 475.847 137.601C475.157 136.896 474.141 136.015 472.84 135.32C471.536 134.624 469.94 134.112 468.101 134.162C466.26 134.212 464.21 134.825 462.001 136.326C459.901 137.753 458.641 137.824 457.887 137.443C457.102 137.046 456.598 136.035 456.329 134.653C456.066 133.305 456.057 131.764 456.118 130.543C456.148 129.936 456.195 129.416 456.235 129.047C456.255 128.863 456.272 128.718 456.285 128.619C456.292 128.569 456.297 128.531 456.3 128.506L456.304 128.478L456.305 128.472L456.305 128.47L456.305 128.47L456.305 128.47L456.577 126.627L455.419 128.087L451.781 132.673C451.76 132.677 451.738 132.68 451.714 132.684C451.551 132.711 451.312 132.747 451.015 132.786C450.419 132.865 449.59 132.954 448.657 133C446.899 133.085 444.843 133.006 443.278 132.445C443.294 132.295 443.316 132.1 443.347 131.864C443.429 131.252 443.57 130.369 443.808 129.29C444.286 127.132 445.153 124.201 446.708 121.109C449.815 114.934 455.665 108.12 466.686 105.521C477.652 102.935 486.408 107.593 492.584 114.881C498.773 122.184 502.323 132.084 502.818 139.797C502.936 141.63 503.026 143.403 503.113 145.113C503.394 150.644 503.641 155.509 504.68 159.578C505.366 162.259 506.401 164.629 508.035 166.646C509.671 168.666 511.887 170.308 514.894 171.563Z" fill="#2C0CAD" stroke="#564499"/>
<path d="M216.436 389.519H200.111C197.403 389.519 194.748 389.513 192.377 388.53C190.002 387.546 188.157 385.777 186.337 383.945L186.334 383.941C180.009 377.689 174.782 372.286 169.551 366.874L169.339 366.655C164.278 361.421 159.199 356.167 153.11 350.124L156.97 346.388C159.199 344.636 162.043 343.71 164.961 343.792L216.436 389.519ZM216.436 389.519L190.713 363.338L172.786 346.844M216.436 389.519L172.786 346.844M172.786 346.844C170.672 344.963 167.887 343.874 164.961 343.792L172.786 346.844Z" fill="#EF3922" stroke="#564499"/>
<path d="M465.22 323.553C456.507 325.317 447.752 326.995 438.955 328.587C428.582 330.471 418.205 332.314 407.825 334.115L398.145 323.024L382.24 338.476C353.698 343.271 325.102 347.764 296.451 351.955L296.583 351.832L371.484 281.039C376.603 276.197 383.051 272.773 390.116 271.146C397.181 269.519 404.588 269.751 411.521 271.818L441.022 280.633C445.898 296.329 454.13 310.931 465.22 323.553Z" fill="white"/>
<path d="M443.311 225.774C439.609 237.779 438.742 250.555 440.267 263.31C440.633 266.581 441.181 269.834 441.912 273.071C442.587 276.307 443.454 279.492 444.43 282.677C448.859 296.919 455.951 310.311 465.375 322.232C465.002 322.304 464.646 322.391 464.322 322.458C453.688 310.079 445.769 295.855 441.019 280.602C440.075 277.519 439.253 274.437 438.594 271.355C437.936 268.273 437.388 265.093 437.015 261.944C435.55 249.641 436.395 237.322 439.965 225.759C442.589 217.239 447.312 209.417 453.753 202.92C455.36 201.286 457.107 199.778 458.975 198.409L459.068 198.342L459.37 198.132L459.501 198.024C461.264 196.769 463.117 195.63 465.046 194.613C469.262 192.364 473.797 190.686 478.516 189.63C475.33 190.64 472.254 191.932 469.329 193.488C467.327 194.547 465.404 195.735 463.576 197.043L463.445 197.145L463.143 197.356H463.11L463.017 197.423C461.08 198.838 459.27 200.397 457.604 202.087C450.932 208.83 446.037 216.942 443.311 225.774Z" fill="#BBB4D6"/>
<path d="M503.304 283.491L502.851 283.278L502.727 283.543L502.896 283.781L503.304 283.491ZM503.304 283.491C502.896 283.781 502.896 283.781 502.897 283.781L502.897 283.782L502.899 283.785L502.906 283.795L502.936 283.836L503.052 283.999L503.506 284.635C503.905 285.194 504.492 286.015 505.243 287.065C506.745 289.165 508.907 292.183 511.543 295.851C516.592 302.878 523.381 312.294 530.613 322.229C521.425 319.096 510.218 318.234 498.939 318.626C487.135 319.037 475.21 320.824 465.359 322.852C456.079 311.035 449.283 296.651 444.897 282.551C443.924 279.376 443.062 276.206 442.391 272.99C441.718 269.762 441.135 266.515 440.753 263.273L440.753 263.272C439.235 250.578 440.099 237.873 443.778 225.942C446.486 217.188 451.346 209.145 457.97 202.46L457.971 202.459C459.606 200.8 461.383 199.268 463.283 197.877H463.311L463.44 197.787L463.742 197.576L463.753 197.569L463.763 197.561L463.887 197.464C465.694 196.172 467.594 194.998 469.574 193.951L469.575 193.95C472.467 192.412 475.508 191.134 478.658 190.134C486.96 188.255 495.672 188.316 503.52 190.644L503.59 190.665H503.591C508.242 192.82 513.597 195.321 518.688 199.206C525.896 206.12 529.724 215.444 533.413 224.635L533.413 224.636C538.496 237.29 543.593 249.931 548.705 262.558C548.712 262.59 548.721 262.621 548.732 262.652C548.736 262.688 548.745 262.734 548.764 262.785C548.778 262.822 548.795 262.856 548.813 262.885C548.814 262.887 548.815 262.889 548.816 262.892C532.223 259.896 520.779 264.854 513.459 270.644C509.74 273.586 507.092 276.737 505.373 279.154C504.514 280.362 503.885 281.388 503.471 282.114C503.264 282.478 503.11 282.766 503.008 282.965C502.956 283.064 502.918 283.141 502.892 283.194C502.879 283.221 502.869 283.241 502.862 283.255L502.854 283.271L502.852 283.276L502.851 283.278C502.851 283.278 502.851 283.278 503.304 283.491Z" fill="#BBB4D6" stroke="#564499"/>
<path d="M572.332 319.345C571.279 316.741 570.226 314.136 569.195 311.532L569.08 311.265C557.38 282.155 545.663 253.061 533.93 223.982C530.244 214.812 526.377 205.36 519.067 198.358C503.831 183.79 476.946 185.177 459.565 197.603L459.434 197.706L459.319 197.778C457.341 199.213 455.494 200.799 453.796 202.519C447.354 209.018 442.631 216.843 440.008 225.364C435.516 239.881 435.329 255.595 438.637 270.96C439.289 274.073 440.117 277.15 441.055 280.206C445.934 295.902 454.168 310.504 465.258 323.126C456.538 324.883 447.783 326.561 438.993 328.161C391.647 336.756 344.144 344.534 296.484 351.493C267.811 355.7 237.433 360.226 208.683 363.822L197.714 365.091C196.513 365.232 195.292 365.121 194.143 364.765C192.993 364.41 191.942 363.819 191.067 363.036L173.121 346.5C170.916 344.537 168.016 343.404 164.975 343.319C161.935 343.234 158.967 344.201 156.641 346.037L152.396 350.147C165.059 362.697 173.324 371.81 185.988 384.36C187.831 386.188 189.728 388.053 192.191 389.055C194.654 390.056 197.429 390.082 200.116 390.082H215.824C229.107 390.082 242.398 390.082 255.696 390.082L524.946 390.134C535.975 390.134 547.378 390.067 557.491 385.931C562.37 383.911 566.761 380.984 570.396 377.327" stroke="#564499" stroke-miterlimit="10"/>
<path d="M481.461 253.602L575.306 384.144C576.615 385.963 578.381 387.454 580.448 388.485C582.515 389.516 584.821 390.055 587.164 390.056H628.028C629.628 390.056 631.163 389.461 632.294 388.402C633.426 387.342 634.061 385.905 634.061 384.406C634.061 382.907 633.426 381.47 632.294 380.41C631.163 379.35 629.628 378.755 628.028 378.755H608.756C605.643 378.756 602.601 377.885 600.02 376.255C597.44 374.625 595.437 372.31 594.271 369.606L568.116 309.071" stroke="#564499" stroke-miterlimit="10"/>
<path d="M296.479 351.493L296.611 351.37L371.518 280.602C376.636 275.759 383.083 272.333 390.147 270.702C397.211 269.07 404.619 269.296 411.555 271.355L441.05 280.176" stroke="#564499" stroke-miterlimit="10"/>
<path d="M572.586 319.433L572.323 319.346" stroke="#564499" stroke-miterlimit="10"/>
<path d="M407.968 333.79L398.183 322.581L382.108 338.166" stroke="#564499" stroke-miterlimit="10"/>
<path d="M520.434 200.012V199.997" stroke="#564499" stroke-miterlimit="10"/>
<path d="M585.337 379.901C587.799 379.815 590.264 379.889 592.714 380.122C594.716 380.312 596.805 380.425 598.698 381.298C600.272 382.028 601.912 383.78 601.829 385.922C601.681 390.103 597.003 390.072 594.442 390.072" stroke="#564499" stroke-miterlimit="10"/>
<path d="M586.319 390.056H594.436H594.551H619.401" stroke="#564499" stroke-miterlimit="10"/>
<path d="M349.837 157.787C349.837 157.787 346.673 165.004 357.587 169.812" stroke="#564499" stroke-miterlimit="10"/>
<path d="M330.669 165.691C330.669 165.691 329.572 174.424 341.962 177.686C346.35 178.842 349.903 174.09 347.233 170.638L347.101 170.479" stroke="#564499" stroke-miterlimit="10"/>
<path d="M329.358 176.475C329.358 176.475 333.494 184.062 340.327 183.219C346.36 182.475 344.416 177.66 344.416 177.66" stroke="#564499" stroke-miterlimit="10"/>
<path d="M332.419 160.214L339.62 164.761" stroke="#564499" stroke-miterlimit="10"/>
<path d="M566.471 304.844C580.346 300.796 590.158 292.684 594.337 279.467C598.341 266.799 595.736 252.395 583.089 244.966C576.787 241.304 569.345 238.442 565.434 232.17C560.098 223.591 563.696 213.127 561.853 203.845C559.939 194.208 553.017 185.67 544.719 179.947C538.568 175.728 531.417 172.967 523.878 171.903C518.311 171.117 513.244 172.416 509.437 167.793C503.405 160.493 503.361 148.565 503.311 139.776C503.278 133.026 501.578 126.306 497.871 120.517L497.788 120.389C494.847 115.722 490.697 111.824 485.723 109.056C476.399 104.002 463.318 103.534 453.912 108.733C452.57 109.484 451.3 110.343 450.117 111.301C441.424 118.272 437.267 130.051 437.47 140.541" stroke="#564499" stroke-miterlimit="10"/>
<path d="M455.136 127.719C454.653 130.801 452.646 133.658 449.103 134.515C445.077 135.471 442.944 139.139 441.814 142.827C440.205 148.235 440.622 153.996 442.993 159.153C445.187 164.002 449.108 169.55 455.734 170.454C467.86 172.072 473.887 167.284 473.887 167.284" stroke="#564499" stroke-miterlimit="10"/>
<path d="M465.238 144.225C466.389 144.225 467.322 143.351 467.322 142.273C467.322 141.195 466.389 140.321 465.238 140.321C464.087 140.321 463.154 141.195 463.154 142.273C463.154 143.351 464.087 144.225 465.238 144.225Z" fill="#564499"/>
<path d="M446.931 142.934C448.082 142.934 449.015 142.061 449.015 140.982C449.015 139.904 448.082 139.03 446.931 139.03C445.78 139.03 444.847 139.904 444.847 140.982C444.847 142.061 445.78 142.934 446.931 142.934Z" fill="#564499"/>
<path d="M455.135 127.719C454.67 129.574 454.739 131.512 455.338 133.334C455.432 133.631 455.553 133.92 455.7 134.197C457.143 137.382 460.505 139.914 466.461 139.601C479.426 138.928 484.05 138.137 482.997 143.736C482.558 145.704 481.928 147.629 481.115 149.49C479.689 153.024 478.697 159.117 480.161 165.733V165.769C481.85 173.511 491.607 185.731 505.11 190.129" stroke="#564499" stroke-miterlimit="10"/>
<path d="M456.276 142.745C456.276 142.745 454.082 150.235 454.307 151.339C454.532 152.444 457.329 151.591 457.329 151.591" stroke="#564499" stroke-miterlimit="10"/>
<path d="M457.785 158.448C461.969 160.565 466.818 159.229 468.715 155.69" stroke="#564499" stroke-miterlimit="10"/>
<path d="M475.489 150.043C479.089 146.472 478.841 140.778 474.935 137.325C471.03 133.872 464.946 133.968 461.347 137.539C457.748 141.11 457.996 146.804 461.901 150.257C465.807 153.71 471.89 153.614 475.489 150.043Z" stroke="#564499" stroke-miterlimit="10"/>
<path d="M451.205 147.958C454.805 144.387 454.556 138.693 450.651 135.24C446.746 131.787 440.662 131.883 437.063 135.454C433.464 139.025 433.712 144.719 437.617 148.172C441.522 151.625 447.606 151.529 451.205 147.958Z" stroke="#564499" stroke-miterlimit="10"/>
<path d="M458.821 142.961L453.726 142.524" stroke="#564499" stroke-miterlimit="10"/>
<path opacity="0.4" d="M450.201 147.07C453.289 144.006 453.076 139.121 449.725 136.159C446.376 133.197 441.157 133.279 438.069 136.343C434.981 139.406 435.194 144.291 438.544 147.254C441.894 150.216 447.113 150.133 450.201 147.07Z" fill="url(#paint1_linear_207_7252)"/>
<path opacity="0.4" d="M474.519 149.174C477.621 146.096 477.408 141.188 474.042 138.212C470.676 135.237 465.433 135.319 462.331 138.397C459.229 141.476 459.443 146.383 462.808 149.359C466.174 152.335 471.417 152.252 474.519 149.174Z" fill="url(#paint2_linear_207_7252)"/>
<path d="M465.145 194.196L462.403 183.302L459.32 170.916" stroke="#564499" stroke-miterlimit="10"/>
<path d="M646 390.036H159.383" stroke="#564499" stroke-miterlimit="10"/>
<defs>
<linearGradient id="paint0_linear_207_7252" x1="6.08594" y1="5.16043" x2="619.405" y2="253.469" gradientUnits="userSpaceOnUse">
<stop stop-color="#564499"/>
<stop offset="1" stop-color="#EF3922"/>
</linearGradient>
<linearGradient id="paint1_linear_207_7252" x1="444.135" y1="133.99" x2="444.135" y2="149.422" gradientUnits="userSpaceOnUse">
<stop stop-color="#EF3922"/>
<stop offset="1" stop-color="#564499"/>
</linearGradient>
<linearGradient id="paint2_linear_207_7252" x1="468.425" y1="136.034" x2="468.425" y2="151.538" gradientUnits="userSpaceOnUse">
<stop stop-color="#EF3922"/>
<stop offset="1" stop-color="#564499"/>
</linearGradient>
</defs>
</svg>
