<svg width="646" height="391" viewBox="0 0 646 391" fill="none" xmlns="http://www.w3.org/2000/svg">
<path d="M353.016 139.569L428.273 61.1378H475.833C522.061 61.1378 559.682 96.3755 559.682 139.692C559.682 183.009 522.061 218.261 475.833 218.261H428.289L353.013 139.569H353.016ZM272.59 139.692L204.737 210.412C199.964 215.393 193.119 218.261 185.959 218.261H149.655C113.977 218.261 83.4486 197.257 71.3706 167.758H169.273C174.16 167.758 178.869 165.938 182.325 162.7L202.154 144.116C204.409 142.004 204.409 138.581 202.139 136.468L180.876 116.653C177.402 113.432 172.729 111.626 167.842 111.626H71.3706C83.4486 82.127 113.977 61.1378 149.655 61.1378H185.959C193.119 61.1378 199.964 63.9914 204.753 68.9725L272.59 139.692ZM342.046 211.946L387.279 259.232C396.412 268.747 409.479 274.221 423.156 274.221H475.836C555.009 274.221 619.405 213.866 619.405 139.69C619.405 65.5138 555.009 5.16043 475.833 5.16043H423.154C409.495 5.16043 396.412 10.6352 387.276 20.1495L312.742 97.8397L249.152 31.5614C233.073 14.7837 210.032 5.16043 185.957 5.16043H149.653C70.4976 5.16043 6.08594 65.5187 6.08594 139.692C6.08594 213.866 70.5002 274.224 149.658 274.224H185.962C210.038 274.224 233.078 264.601 249.157 247.823L312.861 181.436L342.048 211.946H342.046Z" fill="url(#paint0_linear_207_7252)"/>
<path fill-rule="evenodd" clip-rule="evenodd" d="M347.504 134.408L422.779 213.1H470.324C516.552 213.1 554.173 177.848 554.173 134.532C554.173 91.215 516.552 55.9774 470.324 55.9774H422.764L347.506 134.408H347.504ZM347.08 133.408H345.163L422.352 214.1H470.324C517.042 214.1 555.173 178.461 555.173 134.532C555.173 90.6022 517.041 54.9774 470.324 54.9774H422.338L347.08 133.408ZM268.466 134.532L199.95 205.943C194.981 211.129 187.872 214.1 180.45 214.1H144.146C108.077 214.1 77.1736 192.866 64.9359 162.977L64.3713 161.598H163.764C168.407 161.598 172.868 159.868 176.132 156.81L195.961 138.226L196.645 138.956L176.816 157.539C173.36 160.778 168.651 162.598 163.764 162.598H65.8614C65.9983 162.932 66.1376 163.266 66.2792 163.598C78.6322 192.57 108.872 213.1 144.146 213.1H180.45C187.61 213.1 194.455 210.232 199.228 205.251L267.08 134.532L199.244 63.812C194.455 58.831 187.61 55.9774 180.45 55.9774H144.146C108.872 55.9774 78.6322 76.4933 66.2792 105.466C66.1376 105.798 65.9983 106.131 65.8614 106.466H162.333C167.22 106.466 171.892 108.271 175.367 111.493L196.63 131.308C198.9 133.421 198.9 136.843 196.645 138.956L195.961 138.226C197.794 136.509 197.794 133.758 195.948 132.04L174.687 112.226C171.403 109.181 166.976 107.466 162.333 107.466H64.3713L64.9359 106.087C77.1737 76.1973 108.078 54.9774 144.146 54.9774H180.45C187.871 54.9774 194.98 57.934 199.964 63.119L199.965 63.1198L268.466 134.532ZM336.538 206.785L336.536 206.783L307.351 176.275L243.648 242.662C227.568 259.44 204.528 269.063 180.452 269.063H144.149C64.9909 269.063 0.57666 208.705 0.57666 134.532C0.57666 60.3582 64.9883 0 144.144 0H180.447C204.523 0 227.563 9.62324 243.642 26.401L307.233 92.6793L381.767 14.9891C390.903 5.47479 403.986 0 417.644 0H470.324C549.5 0 613.896 60.3534 613.896 134.529C613.896 208.705 549.5 269.061 470.327 269.061H417.647C403.97 269.061 390.903 263.586 381.769 254.072L336.539 206.789L336.538 206.787L336.536 206.786H336.539L336.538 206.785ZM338.877 207.786H338.88L307.353 174.83L242.926 241.97C227.043 258.543 204.267 268.063 180.452 268.063H144.149C65.4809 268.063 1.57666 208.093 1.57666 134.532C1.57666 60.9707 65.4784 1 144.144 1H180.447C204.262 1 227.038 10.5199 242.92 27.0929L307.233 94.1237L382.488 15.6817C391.429 6.37098 404.248 1 417.644 1H470.324C549.01 1 612.896 60.9659 612.896 134.529C612.896 208.093 549.01 268.061 470.327 268.061H417.647C404.232 268.061 391.429 262.69 382.491 253.379L338.877 207.786Z" fill="#564499"/>
<path d="M437.041 261.517C437.041 261.517 436.986 261.517 436.965 261.553C436.553 261.764 436.136 261.954 435.709 262.149C432.972 263.411 430.168 264.539 427.306 265.529C420.242 268.011 412.783 269.639 405.253 269.557C399.441 269.496 393.712 268.263 388.455 265.94C383.198 263.617 378.538 260.26 374.792 256.098C368.875 249.533 365.14 241.596 362.375 233.495C359.463 224.942 357.247 216.353 353.639 208.031C351.33 202.735 349.015 196.786 344.041 193.051C341.485 191.151 338.288 190.483 335.754 188.582C333.062 186.555 331.111 183.794 330.171 180.681C329.761 179.34 329.499 177.963 329.386 176.572C328.915 171.08 330.483 165.347 332.408 160.262L322.58 154.066C319.915 152.376 318.741 148.719 320.326 146.094C320.778 145.344 321.399 144.694 322.145 144.19C322.891 143.687 323.745 143.341 324.648 143.176C325.486 143.026 326.348 143.038 327.181 143.21C328.015 143.382 328.803 143.712 329.496 144.178L349.789 157.832C349.789 157.832 351.352 153.101 356.14 154.56C360.609 155.931 376.542 161.792 375.999 179.885C375.923 182.642 376.7 185.361 378.237 187.714L397.284 217.247C398.635 219.332 400.437 221.129 402.575 222.523C404.712 223.916 407.137 224.875 409.694 225.337C412.251 225.799 414.883 225.755 417.421 225.206C419.958 224.658 422.345 223.618 424.427 222.152L452.348 202.632L457.778 198.851L459.094 197.937L459.396 197.726L459.528 197.623" fill="white"/>
<path d="M437.041 261.517C437.041 261.517 436.986 261.517 436.965 261.553C436.553 261.764 436.136 261.954 435.709 262.149C432.972 263.411 430.168 264.539 427.306 265.529C420.242 268.011 412.783 269.639 405.253 269.557C399.441 269.496 393.712 268.263 388.455 265.94C383.198 263.617 378.538 260.26 374.792 256.098C368.875 249.533 365.14 241.596 362.375 233.495C359.463 224.942 357.247 216.353 353.639 208.031C351.33 202.735 349.015 196.786 344.041 193.051C341.485 191.151 338.288 190.483 335.754 188.582C333.062 186.555 331.111 183.794 330.171 180.681C329.761 179.34 329.499 177.963 329.386 176.572C328.915 171.08 330.483 165.347 332.408 160.262L322.58 154.066C319.915 152.376 318.741 148.719 320.326 146.094C320.778 145.344 321.399 144.694 322.145 144.19C322.891 143.687 323.745 143.341 324.648 143.176C325.486 143.026 326.348 143.038 327.181 143.21C328.015 143.382 328.803 143.712 329.496 144.178L349.789 157.832C349.789 157.832 351.352 153.101 356.14 154.56C360.609 155.931 376.542 161.792 375.999 179.885C375.923 182.642 376.7 185.361 378.237 187.714L397.284 217.247C398.635 219.332 400.437 221.129 402.575 222.523C404.712 223.916 407.137 224.875 409.694 225.337C412.251 225.799 414.883 225.755 417.421 225.206C419.958 224.658 422.345 223.618 424.427 222.152L452.348 202.632L457.778 198.851L459.094 197.937L459.396 197.726L459.528 197.623" stroke="#564499" stroke-miterlimit="10"/>
<path d="M452.639 203.037L452.348 202.631L452.639 203.037L452.64 203.037L452.64 203.037L452.642 203.035L452.652 203.029L452.688 203.003L452.826 202.904C452.946 202.819 453.118 202.697 453.325 202.552C453.741 202.261 454.298 201.874 454.868 201.493C455.439 201.111 456.017 200.738 456.475 200.47C456.705 200.336 456.894 200.235 457.031 200.173C457.064 200.158 457.092 200.147 457.113 200.138C459.813 201.001 461.719 202.674 462.958 204.152C463.584 204.899 464.037 205.592 464.332 206.097C464.479 206.349 464.587 206.553 464.657 206.693C464.66 206.699 464.663 206.704 464.665 206.71L442.347 258.41L436.742 260.863L436.741 260.864L428.038 264.661C431.632 250.3 430.911 239.699 429.246 232.632C428.394 229.019 427.298 226.334 426.409 224.547C425.965 223.653 425.573 222.984 425.289 222.535C425.228 222.439 425.172 222.352 425.122 222.276L452.634 203.041L452.634 203.041L452.639 203.037ZM457.178 200.118C457.178 200.118 457.173 200.119 457.165 200.12C457.174 200.118 457.178 200.117 457.178 200.118Z" fill="#BBB4D6" stroke="#564499"/>
<path d="M514.893 171.563L514.942 171.583L514.993 171.593C533.948 175.143 544.823 180.593 551.172 186.916C557.508 193.225 559.398 200.464 560.243 207.759C560.497 209.951 560.655 212.12 560.811 214.273C560.917 215.731 561.023 217.181 561.157 218.627C561.487 222.179 561.989 225.638 563.111 228.859C564.234 232.087 565.98 235.074 568.791 237.681C571.595 240.282 575.437 242.485 580.73 244.182C587.246 246.97 598.702 258.34 595.589 276.976C593.509 287.033 586.278 293.886 579.501 298.241C576.116 300.416 572.861 301.957 570.451 302.955C569.247 303.453 568.255 303.815 567.566 304.052C567.287 304.148 567.058 304.223 566.884 304.279C566.791 304.09 566.658 303.808 566.476 303.395C566.026 302.373 565.28 300.562 564.108 297.421C562.931 294.265 559.337 285.385 556.041 277.303C554.392 273.26 552.816 269.414 551.653 266.579C551.071 265.161 550.592 263.996 550.259 263.185L549.874 262.248L549.773 262.002L549.747 261.941L549.747 261.94L549.743 261.925L549.708 261.81C549.677 261.709 549.631 261.56 549.57 261.364C549.449 260.973 549.27 260.398 549.037 259.663C548.571 258.193 547.889 256.081 547.026 253.513C545.302 248.378 542.853 241.417 539.96 234.115C537.067 226.816 533.725 219.166 530.213 212.659C526.711 206.171 523.004 200.749 519.36 197.971C515.41 194.957 511.324 192.772 507.547 190.951C506.274 190.338 505.043 189.768 503.866 189.224C501.527 188.142 499.398 187.157 497.574 186.119C492.203 183.061 489.453 179.719 487.532 177.384C487.402 177.226 487.277 177.074 487.154 176.926L487.154 176.926C486.973 176.708 486.786 176.485 486.595 176.258C484.768 174.082 482.54 171.427 481.172 167.597C479.668 163.383 479.195 157.7 481.599 149.648C482.813 145.582 483.432 143.001 483.59 141.392C483.669 140.593 483.641 139.969 483.472 139.507C483.383 139.267 483.253 139.06 483.071 138.898C482.889 138.737 482.678 138.642 482.462 138.593C482.053 138.501 481.59 138.564 481.163 138.647C480.964 138.686 480.754 138.733 480.544 138.781C480.52 138.786 480.497 138.791 480.473 138.797C480.237 138.85 479.996 138.903 479.749 138.949C478.793 139.129 477.801 139.191 476.838 138.748C476.791 138.685 476.724 138.597 476.637 138.489C476.456 138.264 476.191 137.954 475.845 137.601C475.156 136.896 474.139 136.015 472.838 135.32C471.535 134.624 469.938 134.112 468.1 134.162C466.258 134.212 464.208 134.825 462 136.326C459.9 137.753 458.639 137.824 457.886 137.443C457.1 137.046 456.597 136.035 456.327 134.653C456.065 133.305 456.056 131.764 456.117 130.543C456.147 129.936 456.194 129.416 456.233 129.047C456.253 128.863 456.271 128.718 456.284 128.619C456.29 128.569 456.295 128.531 456.299 128.506L456.303 128.478L456.304 128.472L456.304 128.47L456.304 128.47L456.304 128.47L456.575 126.627L455.417 128.087L451.779 132.673C451.759 132.677 451.737 132.68 451.713 132.684C451.549 132.711 451.311 132.747 451.013 132.786C450.418 132.865 449.589 132.954 448.656 133C446.897 133.085 444.842 133.006 443.277 132.445C443.292 132.295 443.315 132.1 443.346 131.864C443.427 131.252 443.568 130.369 443.807 129.29C444.284 127.132 445.151 124.201 446.707 121.109C449.813 114.934 455.663 108.12 466.685 105.521C477.65 102.935 486.407 107.593 492.582 114.881C498.772 122.184 502.322 132.084 502.817 139.797C502.935 141.63 503.025 143.403 503.111 145.113C503.392 150.644 503.639 155.509 504.679 159.578C505.364 162.259 506.4 164.629 508.034 166.646C509.67 168.666 511.885 170.308 514.893 171.563Z" fill="#2C0CAD" stroke="#564499"/>
<path d="M216.436 389.519H200.111C197.403 389.519 194.748 389.513 192.377 388.53C190.002 387.546 188.157 385.777 186.337 383.945L186.334 383.941C180.009 377.689 174.782 372.286 169.551 366.874L169.339 366.655C164.278 361.421 159.199 356.167 153.11 350.124L156.97 346.388C159.199 344.636 162.043 343.71 164.961 343.792L216.436 389.519ZM216.436 389.519L190.713 363.338L172.786 346.844M216.436 389.519L172.786 346.844M172.786 346.844C170.672 344.963 167.887 343.874 164.961 343.792L172.786 346.844Z" fill="#EF3922" stroke="#564499"/>
<path d="M465.22 323.553C456.507 325.317 447.752 326.995 438.955 328.587C428.582 330.471 418.205 332.314 407.825 334.115L398.145 323.024L382.24 338.476C353.698 343.271 325.102 347.764 296.451 351.955L296.583 351.832L371.484 281.039C376.603 276.197 383.051 272.773 390.116 271.146C397.181 269.519 404.588 269.751 411.521 271.818L441.022 280.633C445.898 296.329 454.13 310.931 465.22 323.553Z" fill="white"/>
<path d="M443.31 225.774C439.608 237.779 438.741 250.555 440.266 263.31C440.631 266.581 441.18 269.834 441.911 273.071C442.586 276.307 443.452 279.492 444.428 282.677C448.858 296.919 455.949 310.311 465.374 322.232C465.001 322.304 464.644 322.391 464.321 322.458C453.686 310.079 445.767 295.855 441.017 280.602C440.074 277.519 439.251 274.437 438.593 271.355C437.935 268.273 437.386 265.093 437.013 261.944C435.549 249.641 436.394 237.322 439.964 225.759C442.588 217.239 447.31 209.417 453.752 202.92C455.359 201.286 457.105 199.778 458.973 198.409L459.066 198.342L459.368 198.132L459.5 198.024C461.262 196.769 463.115 195.63 465.045 194.613C469.261 192.364 473.796 190.686 478.514 189.63C475.329 190.64 472.253 191.932 469.328 193.488C467.325 194.547 465.403 195.735 463.575 197.043L463.443 197.145L463.141 197.356H463.109L463.015 197.423C461.079 198.838 459.268 200.397 457.602 202.087C450.93 208.83 446.035 216.942 443.31 225.774Z" fill="#BBB4D6"/>
<path d="M503.302 283.491L502.849 283.278L502.725 283.543L502.895 283.781L503.302 283.491ZM503.302 283.491C502.895 283.781 502.895 283.781 502.895 283.781L502.896 283.782L502.897 283.785L502.905 283.795L502.934 283.836L503.05 283.999L503.505 284.635C503.904 285.194 504.49 286.015 505.241 287.065C506.744 289.165 508.906 292.183 511.541 295.851C516.59 302.878 523.38 312.294 530.612 322.229C521.423 319.096 510.217 318.234 498.937 318.626C487.133 319.037 475.208 320.824 465.357 322.852C456.078 311.035 449.281 296.651 444.895 282.551C443.922 279.376 443.06 276.206 442.39 272.99C441.717 269.762 441.133 266.515 440.751 263.273L440.751 263.272C439.234 250.578 440.098 237.873 443.777 225.942C446.485 217.188 451.344 209.145 457.968 202.46L457.969 202.459C459.605 200.8 461.381 199.268 463.281 197.877H463.31L463.439 197.787L463.741 197.576L463.751 197.569L463.762 197.561L463.885 197.464C465.692 196.172 467.593 194.998 469.573 193.951L469.574 193.95C472.466 192.412 475.507 191.134 478.657 190.134C486.958 188.255 495.671 188.316 503.519 190.644L503.588 190.665H503.589C508.241 192.82 513.596 195.321 518.686 199.206C525.894 206.12 529.723 215.444 533.411 224.635L533.411 224.636C538.494 237.29 543.592 249.931 548.704 262.558C548.71 262.59 548.72 262.621 548.731 262.652C548.735 262.688 548.744 262.734 548.763 262.785C548.777 262.822 548.794 262.856 548.812 262.885C548.813 262.887 548.813 262.889 548.814 262.892C532.221 259.896 520.777 264.854 513.458 270.644C509.738 273.586 507.091 276.737 505.372 279.154C504.512 280.362 503.884 281.388 503.47 282.114C503.262 282.478 503.109 282.766 503.006 282.965C502.955 283.064 502.916 283.141 502.89 283.194C502.877 283.221 502.867 283.241 502.861 283.255L502.853 283.271L502.85 283.276L502.85 283.278C502.85 283.278 502.849 283.278 503.302 283.491Z" fill="#BBB4D6" stroke="#564499"/>
<path d="M572.332 319.345C571.279 316.741 570.226 314.136 569.195 311.532L569.08 311.265C557.38 282.155 545.663 253.061 533.93 223.982C530.244 214.812 526.377 205.36 519.067 198.358C503.831 183.79 476.946 185.177 459.565 197.603L459.434 197.706L459.319 197.778C457.341 199.213 455.494 200.799 453.796 202.519C447.354 209.018 442.631 216.843 440.008 225.364C435.516 239.881 435.329 255.595 438.637 270.96C439.289 274.073 440.117 277.15 441.055 280.206C445.934 295.902 454.168 310.504 465.258 323.126C456.538 324.883 447.783 326.561 438.993 328.161C391.647 336.756 344.144 344.534 296.484 351.493C267.811 355.7 237.433 360.226 208.683 363.822L197.714 365.091C196.513 365.232 195.292 365.121 194.143 364.765C192.993 364.41 191.942 363.819 191.067 363.036L173.121 346.5C170.916 344.537 168.016 343.404 164.975 343.319C161.935 343.234 158.967 344.201 156.641 346.037L152.396 350.147C165.059 362.697 173.324 371.81 185.988 384.36C187.831 386.188 189.728 388.053 192.191 389.055C194.654 390.056 197.429 390.082 200.116 390.082H215.824C229.107 390.082 242.398 390.082 255.696 390.082L524.946 390.134C535.975 390.134 547.378 390.067 557.491 385.931C562.37 383.911 566.761 380.984 570.396 377.327" stroke="#564499" stroke-miterlimit="10"/>
<path d="M481.459 253.602L575.305 384.144C576.613 385.963 578.379 387.454 580.446 388.485C582.514 389.516 584.82 390.055 587.162 390.056H628.027C629.627 390.056 631.161 389.461 632.293 388.402C633.424 387.342 634.06 385.905 634.06 384.406C634.06 382.907 633.424 381.47 632.293 380.41C631.161 379.35 629.627 378.755 628.027 378.755H608.754C605.641 378.756 602.6 377.885 600.019 376.255C597.438 374.625 595.436 372.31 594.27 369.606L568.114 309.071" stroke="#564499" stroke-miterlimit="10"/>
<path d="M296.479 351.493L296.611 351.37L371.518 280.602C376.636 275.759 383.083 272.333 390.147 270.702C397.211 269.07 404.619 269.296 411.555 271.355L441.05 280.176" stroke="#564499" stroke-miterlimit="10"/>
<path d="M572.585 319.433L572.321 319.346" stroke="#564499" stroke-miterlimit="10"/>
<path d="M407.968 333.79L398.183 322.581L382.108 338.166" stroke="#564499" stroke-miterlimit="10"/>
<path d="M520.433 200.012V199.997" stroke="#564499" stroke-miterlimit="10"/>
<path d="M585.336 379.901C587.797 379.815 590.262 379.889 592.713 380.122C594.714 380.312 596.804 380.425 598.696 381.298C600.27 382.028 601.91 383.78 601.828 385.922C601.68 390.103 597.001 390.072 594.44 390.072" stroke="#564499" stroke-miterlimit="10"/>
<path d="M586.317 390.056H594.434H594.55H619.4" stroke="#564499" stroke-miterlimit="10"/>
<path d="M349.837 157.787C349.837 157.787 346.673 165.004 357.587 169.812" stroke="#564499" stroke-miterlimit="10"/>
<path d="M330.669 165.691C330.669 165.691 329.572 174.424 341.962 177.686C346.35 178.842 349.903 174.09 347.233 170.638L347.101 170.479" stroke="#564499" stroke-miterlimit="10"/>
<path d="M329.358 176.475C329.358 176.475 333.494 184.062 340.327 183.219C346.36 182.475 344.416 177.66 344.416 177.66" stroke="#564499" stroke-miterlimit="10"/>
<path d="M332.419 160.214L339.62 164.761" stroke="#564499" stroke-miterlimit="10"/>
<path d="M566.469 304.844C580.345 300.796 590.157 292.684 594.336 279.467C598.34 266.799 595.734 252.395 583.087 244.966C576.786 241.304 569.343 238.442 565.433 232.17C560.096 223.591 563.694 213.127 561.851 203.845C559.937 194.208 553.016 185.67 544.718 179.947C538.567 175.728 531.416 172.967 523.877 171.903C518.31 171.117 513.242 172.416 509.436 167.793C503.403 160.493 503.359 148.565 503.31 139.776C503.277 133.026 501.577 126.306 497.869 120.517L497.787 120.389C494.845 115.722 490.696 111.824 485.721 109.056C476.397 104.002 463.317 103.534 453.911 108.733C452.568 109.484 451.299 110.343 450.116 111.301C441.423 118.272 437.266 130.051 437.469 140.541" stroke="#564499" stroke-miterlimit="10"/>
<path d="M455.134 127.719C454.652 130.801 452.644 133.658 449.101 134.515C445.076 135.471 442.942 139.139 441.812 142.827C440.204 148.235 440.62 153.996 442.992 159.153C445.185 164.002 449.107 169.55 455.732 170.454C467.858 172.072 473.886 167.284 473.886 167.284" stroke="#564499" stroke-miterlimit="10"/>
<path d="M465.236 144.225C466.388 144.225 467.321 143.351 467.321 142.273C467.321 141.195 466.388 140.321 465.236 140.321C464.085 140.321 463.152 141.195 463.152 142.273C463.152 143.351 464.085 144.225 465.236 144.225Z" fill="#564499"/>
<path d="M446.929 142.934C448.081 142.934 449.013 142.061 449.013 140.982C449.013 139.904 448.081 139.03 446.929 139.03C445.779 139.03 444.845 139.904 444.845 140.982C444.845 142.061 445.779 142.934 446.929 142.934Z" fill="#564499"/>
<path d="M455.134 127.719C454.668 129.574 454.738 131.512 455.337 133.334C455.431 133.631 455.552 133.92 455.699 134.197C457.141 137.382 460.503 139.914 466.459 139.601C479.425 138.928 484.048 138.137 482.995 143.736C482.556 145.704 481.927 147.629 481.114 149.49C479.688 153.024 478.695 159.117 480.16 165.733V165.769C481.849 173.511 491.606 185.731 505.109 190.129" stroke="#564499" stroke-miterlimit="10"/>
<path d="M456.275 142.745C456.275 142.745 454.081 150.235 454.306 151.339C454.531 152.444 457.328 151.591 457.328 151.591" stroke="#564499" stroke-miterlimit="10"/>
<path d="M457.783 158.448C461.968 160.565 466.816 159.229 468.714 155.69" stroke="#564499" stroke-miterlimit="10"/>
<path d="M475.488 150.043C479.087 146.472 478.839 140.778 474.934 137.325C471.029 133.872 464.945 133.968 461.346 137.539C457.747 141.11 457.995 146.804 461.9 150.257C465.805 153.71 471.889 153.614 475.488 150.043Z" stroke="#564499" stroke-miterlimit="10"/>
<path d="M451.204 147.958C454.803 144.387 454.555 138.693 450.65 135.24C446.744 131.787 440.661 131.883 437.062 135.454C433.463 139.025 433.71 144.719 437.616 148.172C441.521 151.625 447.605 151.529 451.204 147.958Z" stroke="#564499" stroke-miterlimit="10"/>
<path d="M458.819 142.961L453.724 142.524" stroke="#564499" stroke-miterlimit="10"/>
<path opacity="0.4" d="M450.2 147.07C453.287 144.006 453.074 139.121 449.724 136.159C446.374 133.197 441.155 133.279 438.067 136.343C434.98 139.406 435.192 144.291 438.543 147.254C441.893 150.216 447.112 150.133 450.2 147.07Z" fill="url(#paint1_linear_207_7252)"/>
<path opacity="0.4" d="M474.517 149.174C477.62 146.096 477.406 141.188 474.041 138.212C470.675 135.237 465.432 135.319 462.33 138.397C459.227 141.476 459.441 146.383 462.806 149.359C466.172 152.335 471.415 152.252 474.517 149.174Z" fill="url(#paint2_linear_207_7252)"/>
<path d="M465.143 194.196L462.401 183.302L459.319 170.916" stroke="#564499" stroke-miterlimit="10"/>
<path d="M646 390.036H159.383" stroke="#564499" stroke-miterlimit="10"/>
<defs>
<linearGradient id="paint0_linear_207_7252" x1="6.08594" y1="5.16043" x2="619.405" y2="253.469" gradientUnits="userSpaceOnUse">
<stop stop-color="#564499"/>
<stop offset="1" stop-color="#EF3922"/>
</linearGradient>
<linearGradient id="paint1_linear_207_7252" x1="444.133" y1="133.99" x2="444.133" y2="149.422" gradientUnits="userSpaceOnUse">
<stop stop-color="#EF3922"/>
<stop offset="1" stop-color="#564499"/>
</linearGradient>
<linearGradient id="paint2_linear_207_7252" x1="468.424" y1="136.034" x2="468.424" y2="151.538" gradientUnits="userSpaceOnUse">
<stop stop-color="#EF3922"/>
<stop offset="1" stop-color="#564499"/>
</linearGradient>
</defs>
</svg>
