<svg width="421" height="415" viewBox="0 0 421 415" fill="none" xmlns="http://www.w3.org/2000/svg">
<path d="M60.3616 187.702C75.6821 166.288 98.6419 156.582 98.6419 156.582C99.3914 156.27 96.1979 126.932 96.1327 124.851C95.1644 90.5793 100.848 54.9199 126.611 30.1724C158.816 -0.743417 217.249 -7.14908 254.193 18.8972C253.728 18.5527 266.348 8.60438 267.414 7.96661C274.31 3.80526 282.09 1.3313 290.123 0.746274C322.449 -1.58136 352.094 23.818 364.221 54.5428C376.348 85.2676 373.564 155.274 351.316 175.464" stroke="#564499" stroke-miterlimit="10"/>
<path d="M46.5494 224.851C47.346 216.417 49.5144 208.17 52.9691 200.434C53.2982 199.699 53.6427 198.979 54.0025 198.274" stroke="#564499" stroke-miterlimit="10"/>
<path d="M86.501 313.971C82.7768 310.587 79.3272 307.142 76.1663 303.678" stroke="#564499" stroke-miterlimit="10"/>
<path d="M396.84 213.32C396.868 215.648 396.84 218.022 396.729 220.401C396.067 235.116 392.916 250.325 385.039 262.718C383.605 265.004 382.006 267.182 380.254 269.235C363.495 267.024 360.995 249.929 341.615 240.265C318.399 228.66 280.384 232.817 280.384 232.817L299.112 215.541C298.111 163.514 259.915 166.707 259.915 166.707L257.973 171.46C259.448 167.155 260.939 163.141 262.447 159.417L262.531 159.221C280.221 115.285 298.549 109.838 312.808 103.493C316.214 102.684 319.702 102.268 323.203 102.255C359.659 102.059 381.054 139.185 390.411 169.072C392.739 176.52 396.319 192.451 396.798 210.364C396.808 211.323 396.84 212.324 396.84 213.32Z" fill="#BBB4D6" stroke="#564499"/>
<path d="M417.324 408.321C414.493 412.217 409.824 414.34 405.01 414.34H349.706C347.581 414.371 345.472 413.956 343.517 413.123C341.561 412.29 339.802 411.057 338.351 409.503C338.155 409.304 337.971 409.093 337.802 408.87C336.069 406.723 334.985 404.126 334.678 401.385C334.399 398.866 336.271 396.627 338.803 396.729C339.762 396.766 340.676 397.15 341.375 397.809C342.073 398.468 342.509 399.358 342.602 400.314C342.602 400.514 342.644 400.71 342.672 400.905C342.876 402.041 343.376 403.104 344.119 403.987C344.777 404.764 345.603 405.382 346.534 405.794C347.466 406.206 348.479 406.402 349.496 406.366H405.248C406.246 406.383 407.236 406.184 408.149 405.782C409.063 405.38 409.879 404.785 410.541 404.038C411.287 403.174 411.796 402.131 412.018 401.012C412.24 399.892 412.167 398.734 411.807 397.651L386.906 323.609C386.703 323.041 386.462 322.487 386.184 321.952C384.723 318.864 382.406 316.26 379.509 314.45C376.612 312.639 373.256 311.698 369.84 311.738C359.356 311.864 346.047 311.892 344.794 311.892C316.895 311.789 304.2 311.789 297.217 311.975C297.696 310.259 298.563 308.676 299.75 307.348C299.75 307.348 299.778 307.32 299.778 307.306C301.481 305.491 303.812 304.394 306.295 304.238C316.639 303.391 326.881 301.846 336.829 299.145C354.384 294.388 371.129 286.227 382.763 273.104C388.425 266.751 392.706 259.291 395.332 251.196C397.37 244.769 398.654 238.126 399.159 231.402C399.339 229.279 399.451 227.14 399.494 224.987V224.889C399.494 224.396 399.522 223.888 399.522 223.395C399.585 220.327 399.445 217.259 399.103 214.21C402.143 214.234 405.054 215.439 407.222 217.571C407.412 218.072 407.552 218.592 407.641 219.121C407.725 219.623 407.767 220.13 407.766 220.639V280.855C407.771 284.968 406.96 289.041 405.378 292.837C403.796 296.634 401.477 300.079 398.553 302.972C393.712 307.767 392.334 315.043 394.629 321.444L419.376 395.081C420.124 397.29 420.328 399.647 419.971 401.952C419.613 404.257 418.705 406.442 417.324 408.321Z" fill="#564499" stroke="#564499"/>
<path d="M76.1709 406.462V237.648H86.501V406.532L76.1709 406.462Z" fill="#564499" stroke="#564499"/>
<path d="M280.389 232.793C287.786 232.007 296.342 231.076 304.559 231.262" stroke="#564499" stroke-miterlimit="10"/>
<path d="M240.093 240.25C226.993 243.555 214.246 248.327 203.372 256.26C185.123 269.555 176.781 294.358 184.239 315.847C184.239 315.875 213.567 400.475 213.567 400.475H205.848C204.185 400.475 202.538 400.804 201.002 401.443C199.466 402.082 198.073 403.019 196.901 404.2C194.606 406.481 193.475 410.284 193.475 413.776H262.945L236.545 327.42C235.887 325.292 235.739 323.038 236.113 320.841C236.488 318.645 237.373 316.567 238.7 314.777C240.026 312.987 241.755 311.534 243.747 310.536C245.739 309.537 247.939 309.022 250.167 309.032C265.208 309.455 279.178 310.033 294.392 309.372" fill="white"/>
<path d="M240.093 240.25C226.993 243.555 214.246 248.327 203.372 256.26C185.123 269.555 176.781 294.358 184.239 315.847C184.239 315.875 213.567 400.475 213.567 400.475H205.848C204.185 400.475 202.538 400.804 201.002 401.443C199.466 402.082 198.073 403.019 196.901 404.2C194.606 406.481 193.475 410.284 193.475 413.776H262.945L236.545 327.42C235.887 325.292 235.739 323.038 236.113 320.841C236.488 318.645 237.373 316.567 238.7 314.777C240.026 312.987 241.755 311.534 243.747 310.536C245.739 309.537 247.939 309.022 250.167 309.032C265.208 309.455 279.178 310.033 294.392 309.372C296.488 299.125 304.156 300.193 306.609 299.988C309.063 299.784 315.311 300.787 341.615 292.958C362.659 286.695 375.852 274.691 379.819 269.472C366.04 266.967 367.606 260.704 347.878 243.794C332.096 230.266 296.627 230.851 280.865 232.834C267.337 243.606 248.047 242.267 240.093 240.25Z" fill="white"/>
<path d="M240.093 240.25C226.993 243.555 214.246 248.327 203.372 256.26C185.123 269.555 176.781 294.358 184.239 315.847C184.239 315.875 213.567 400.475 213.567 400.475H205.848C204.185 400.475 202.538 400.804 201.002 401.443C199.466 402.082 198.073 403.019 196.901 404.2C194.606 406.481 193.475 410.284 193.475 413.776H262.945L236.545 327.42C235.887 325.292 235.739 323.038 236.113 320.841C236.488 318.645 237.373 316.567 238.7 314.777C240.026 312.987 241.755 311.534 243.747 310.536C245.739 309.537 247.939 309.022 250.167 309.032C265.208 309.455 279.178 310.033 294.392 309.372" stroke="#564499" stroke-miterlimit="10"/>
<path d="M240.093 240.25C226.993 243.555 214.246 248.327 203.372 256.26C185.123 269.555 176.781 294.358 184.239 315.847C184.239 315.875 213.567 400.475 213.567 400.475H205.848C204.185 400.475 202.538 400.804 201.002 401.443C199.466 402.082 198.073 403.019 196.901 404.2C194.606 406.481 193.475 410.284 193.475 413.776H262.945L236.545 327.42C235.887 325.292 235.739 323.038 236.113 320.841C236.488 318.645 237.373 316.567 238.7 314.777C240.026 312.987 241.755 311.534 243.747 310.536C245.739 309.537 247.939 309.022 250.167 309.032C265.208 309.455 279.178 310.033 294.392 309.372C296.488 299.125 304.156 300.193 306.609 299.988C309.063 299.784 315.311 300.787 341.615 292.958C362.659 286.695 375.852 274.691 379.819 269.472C366.04 266.967 367.606 260.704 347.878 243.794C332.096 230.266 296.627 230.851 280.865 232.834C267.337 243.606 248.047 242.267 240.093 240.25Z" stroke="#564499" stroke-miterlimit="10"/>
<path d="M396.947 221.103V221.01C396.272 202.855 395.36 184.941 390.393 169.057C381.036 139.171 359.64 102.045 323.185 102.24C319.684 102.254 316.196 102.669 312.789 103.479C288.759 109.191 272.07 133.812 262.512 159.207L262.429 159.402C261.516 161.839 260.672 164.269 259.896 166.693C259.37 168.324 258.721 169.913 257.955 171.446C255.027 177.345 250.386 182.224 244.64 185.443C238.894 188.661 232.31 190.07 225.75 189.485C181.618 185.472 123.455 183.182 105.136 214.19" stroke="#564499" stroke-miterlimit="10"/>
<path d="M324.73 187.334C318.306 195.09 311.542 202.581 304.55 209.824C290.235 224.665 277.884 240.428 255.669 241.48C237.946 242.332 221.076 235.531 204.317 230.815C186.389 225.773 177.316 221.742 160.608 216.649C155.797 215.188 150.805 214.404 145.777 214.321L128.957 214.451" stroke="#564499" stroke-miterlimit="10"/>
<path d="M259.128 401.566C260.729 400.848 262.466 400.48 264.221 400.486H271.958C271.958 400.486 255.785 369.049 242.853 348.124" stroke="#564499" stroke-miterlimit="10"/>
<path d="M269.751 309.443L323.846 414.34H262.657H251.558" stroke="#564499" stroke-miterlimit="10"/>
<path d="M417.324 408.321C414.493 412.218 409.824 414.34 405.01 414.34H349.706C345.12 414.34 340.646 412.441 337.788 408.856C336.055 406.709 334.971 404.112 334.664 401.371C334.385 398.852 336.257 396.613 338.789 396.715C339.748 396.752 340.662 397.136 341.361 397.795C342.059 398.454 342.495 399.344 342.588 400.3C342.701 401.652 343.231 402.935 344.105 403.973C344.773 404.738 345.601 405.348 346.529 405.759C347.459 406.17 348.466 406.372 349.482 406.352H405.248C406.246 406.369 407.236 406.17 408.149 405.768C409.063 405.366 409.879 404.771 410.541 404.024C411.287 403.16 411.796 402.117 412.018 400.998C412.24 399.878 412.167 398.72 411.807 397.637L386.906 323.609C385.645 320.104 383.325 317.078 380.267 314.951C377.209 312.824 373.564 311.701 369.84 311.738C359.356 311.864 346.047 311.892 344.794 311.892C313.73 311.794 301.5 311.794 295.02 312.031C294.919 312.03 294.819 312.01 294.726 311.971C294.633 311.932 294.549 311.874 294.478 311.803C294.407 311.731 294.351 311.646 294.313 311.553C294.275 311.459 294.256 311.359 294.257 311.259C294.247 308.384 295.302 305.608 297.217 303.466C297.225 303.46 297.231 303.453 297.236 303.445C297.241 303.437 297.244 303.428 297.245 303.419C298.951 301.608 301.28 300.513 303.763 300.356C314.107 299.509 324.348 297.963 334.297 295.263C351.852 290.505 368.597 282.345 380.23 269.221C385.893 262.869 390.173 255.408 392.8 247.314C394.832 240.888 396.111 234.249 396.612 227.529C396.795 225.399 396.907 223.261 396.947 221.114V221.011C396.947 220.523 396.975 220.015 396.975 219.522C397.039 216.454 396.899 213.386 396.556 210.337C401.621 210.309 406.728 213.991 407.613 219.131C407.697 219.632 407.739 220.139 407.738 220.648V280.855C407.743 284.968 406.932 289.041 405.35 292.837C403.768 296.634 401.449 300.079 398.526 302.972C393.684 307.767 392.306 315.043 394.601 321.444L419.349 395.081C420.1 397.289 420.309 399.644 419.956 401.949C419.604 404.254 418.701 406.439 417.324 408.321Z" stroke="#564499" stroke-miterlimit="10"/>
<path d="M151.619 224.857H7.53354C4.00349 224.857 1.14185 227.719 1.14185 231.249V231.253C1.14185 234.783 4.00349 237.645 7.53354 237.645H151.619C155.149 237.645 158.011 234.783 158.011 231.253V231.249C158.011 227.719 155.149 224.857 151.619 224.857Z" stroke="#564499" stroke-miterlimit="10"/>
<path d="M110.816 407.264H52.5548C50.5777 407.264 48.9749 408.867 48.9749 410.844C48.9749 412.821 50.5777 414.424 52.5548 414.424H110.816C112.793 414.424 114.395 412.821 114.395 410.844C114.395 408.867 112.793 407.264 110.816 407.264Z" stroke="#564499" stroke-miterlimit="10"/>
<path d="M68.1127 219.117V219.759C68.2058 224.177 72.3629 224.852 75.9475 224.88L145.246 224.834C148.281 224.834 150.786 222.506 150.79 219.648V219.527C150.735 216.733 148.295 214.457 145.297 214.452C145.297 214.452 106.528 214.313 76.5015 214.224C75.9615 215.798 74.5928 217.017 72.8843 218.014C71.4147 218.784 69.7713 219.164 68.1127 219.117Z" stroke="#564499" stroke-miterlimit="10"/>
<path d="M30.0046 156.875C30.019 157.611 30.2294 158.329 30.6144 158.956L62.7358 212.906C63.1515 213.555 63.6972 214.11 64.3377 214.538C64.9787 214.966 65.7012 215.257 66.4601 215.392C67.7435 215.645 69.0735 215.5 70.2727 214.978C72.2419 214.102 73.3778 212.338 73.3406 210.55C73.3336 210.326 73.3103 210.101 73.2707 209.88C73.172 209.387 72.9891 208.915 72.7307 208.484L40.6093 154.534C39.2127 152.173 35.7958 151.247 33.0491 152.462C31.0893 153.319 29.9534 155.083 30.0046 156.875Z" stroke="#564499" stroke-miterlimit="10"/>
<path d="M116.863 214.452C116.863 214.452 120.731 210.77 129.627 204.923" stroke="#564499" stroke-miterlimit="10"/>
<path d="M148.407 153.933L134.306 169.57C133.324 170.659 131.961 171.33 130.499 171.444C129.036 171.557 127.586 171.105 126.448 170.18C125.819 169.669 125.306 169.031 124.942 168.308C124.578 167.585 124.371 166.792 124.336 165.983C124.301 165.174 124.438 164.366 124.738 163.614C125.037 162.862 125.494 162.182 126.075 161.619L128.655 159.124C128.752 158.984 128.864 158.858 128.976 158.728L130.838 156.675L146.852 139.274C148.796 137.137 151.243 135.522 153.971 134.576C156.7 133.629 159.622 133.381 162.47 133.855L162.708 133.897" stroke="#564499" stroke-miterlimit="10"/>
<path d="M168.266 158.165H154.161C152.556 158.165 151.017 157.527 149.882 156.392C148.747 155.257 148.109 153.718 148.109 152.113C148.109 150.508 148.747 148.968 149.882 147.834C151.017 146.699 152.556 146.061 154.161 146.061H174.178" stroke="#564499" stroke-miterlimit="10"/>
<path d="M157.452 158.165C157.257 160.637 156.312 162.466 154.92 163.751C151.335 167.01 144.762 166.651 140.19 164.412" stroke="#564499" stroke-miterlimit="10"/>
<path d="M130.861 156.666C126.806 151.782 127.64 145.144 130.791 140.009C143.803 118.762 168.606 131.848 184.914 141.005C194.621 146.482 203.901 152.685 212.673 159.561C220.438 165.613 227.626 172.857 236.955 176.497C242.541 178.68 249.138 179.202 254.696 176.683" stroke="#564499" stroke-miterlimit="10"/>
<path d="M154.92 163.715C164.759 170.977 174.155 178.823 183.056 187.21" stroke="#564499" stroke-miterlimit="10"/>
<path d="M274.644 49.5002C276.999 51.6509 280.617 51.7673 283.61 51.4786C287.437 51.1295 291.226 50.2031 294.974 49.421L297.25 49.3046H297.283C297.719 49.3093 298.15 49.3991 298.552 49.5704C298.954 49.7413 299.318 49.9899 299.623 50.3013C299.929 50.6132 300.17 50.9819 300.333 51.3869C300.497 51.7919 300.578 52.2249 300.574 52.6611C300.626 57.5743 300.136 62.4781 299.112 67.2833L303.474 69.6435C304.037 68.0701 303.404 65.8029 304.74 65.6307C305.597 64.0339 306.872 62.9958 308.874 64.1829C312.794 66.5105 314.339 73.3491 310.564 76.4821L312.985 81.0071C313.829 82.5936 315.197 83.8375 316.856 84.5269C318.515 85.2164 320.362 85.3085 322.081 84.7871L319.609 79.3219C325.41 80.3507 329.469 73.1117 327.7 68.6939C326.494 65.6586 326.555 63.2984 328.166 60.3469C328.273 60.1468 327.179 59.8814 327.272 59.6766C327.328 57.5119 326.727 55.1936 325.684 54.0903C323.85 52.1164 320.159 51.7626 320.913 48.7646C321.248 47.4602 321.372 46.1102 321.28 44.7657C321.084 43.0084 320.513 41.3134 319.606 39.7953C318.7 38.2767 317.479 36.97 316.025 35.9626C312.971 33.9562 309.554 35.7764 306.29 35.7252C302.329 35.6833 299.489 32.3222 295.337 32.271C293.27 32.2384 291.612 33.0437 289.843 34.0446C288.363 34.8965 286.906 35.7857 285.491 36.7494C284.076 37.713 282.819 38.5463 281.129 38.5509C278.927 38.5789 276.799 37.1823 274.583 37.834C273.463 38.1357 272.478 38.8088 271.79 39.7427C271.087 43.1783 272.358 47.4286 274.644 49.5002Z" fill="#2C0CAD" stroke="#564499"/>
<path d="M303.493 69.1329C303.777 67.9202 304.195 66.7429 304.74 65.6228C305.597 64.0261 306.877 62.988 308.874 64.1751C312.794 66.5027 314.339 73.3413 310.564 76.4743L312.985 80.9992C313.828 82.5853 315.197 83.8296 316.856 84.5191C318.515 85.2085 320.362 85.3002 322.081 84.7793" stroke="#564499" stroke-linecap="round" stroke-linejoin="round"/>
<path d="M319.609 79.314L322.072 84.7886C322.691 86.0967 324.465 90.1189 326.322 94.2993C327.644 97.2926 329.022 100.374 330.046 102.642" stroke="#564499" stroke-linecap="round" stroke-linejoin="round"/>
<path d="M279.718 59.6547C279.718 59.6547 286.976 57.8484 290.146 63.351" stroke="#564499" stroke-miterlimit="10"/>
<path d="M281.855 76.0833C279.9 76.6186 277.27 77.0981 275.761 75.3943L279.048 68.4765C279.846 66.7802 280.043 64.8627 279.606 63.0392C278.89 59.9714 277.097 55.3114 279.02 51.266" stroke="#564499" stroke-miterlimit="10"/>
<path d="M286.739 66.8118C287.29 65.898 286.865 64.6322 285.79 63.9847C284.716 63.3371 283.398 63.5527 282.848 64.4665C282.296 65.3803 282.721 66.6461 283.796 67.2936C284.87 67.9417 286.188 67.7256 286.739 66.8118Z" fill="black" stroke="#564499"/>
<path d="M297.329 110.365L295.607 91.2505" stroke="#564499" stroke-miterlimit="10"/>
<path d="M303.474 69.6344C303.474 69.4668 303.474 69.2945 303.474 69.1269C303.483 68.9472 303.483 68.7671 303.474 68.5869" stroke="#564499" stroke-linecap="round" stroke-linejoin="round"/>
<path d="M303.479 69.6408L301.98 68.8354L299.112 67.2759" stroke="#564499" stroke-linecap="round" stroke-linejoin="round"/>
<path d="M291.477 76.5753C291.477 76.5753 291.333 81.4168 285.798 83.4093" stroke="#564499" stroke-miterlimit="10"/>
<path d="M319.609 79.3134C325.41 80.3423 329.469 73.1033 327.7 68.6854C326.494 65.6502 326.555 63.29 328.166 60.3385C328.273 60.1384 328.361 59.9428 328.454 59.7473C329.651 57.1078 329.227 54.4915 327.346 52.2477C325.563 50.1249 322.877 49.38 323.65 46.2843C323.997 44.9403 324.126 43.5493 324.032 42.1643C323.831 40.3567 323.245 38.6133 322.314 37.0514C321.382 35.4896 320.127 34.1456 318.632 33.1098C315.494 31.0289 311.961 32.9143 308.581 32.8631C304.512 32.8026 301.575 29.339 297.306 29.2878C295.169 29.2878 293.447 30.0839 291.631 31.1174C290.104 31.9972 288.591 32.9236 287.148 33.9105C285.705 34.8974 284.355 35.7726 282.642 35.7726C280.37 35.7726 278.177 34.3761 275.906 35.0278C273.634 35.6795 272.284 37.5603 271.837 39.7389C271.111 43.1559 272.382 47.4248 274.667 49.515C277.023 51.6658 280.64 51.7821 283.633 51.4935C287.46 51.1444 291.249 50.218 294.997 49.4359L297.273 49.3195H297.306C297.743 49.3237 298.174 49.414 298.575 49.5848C298.977 49.7562 299.341 50.0043 299.647 50.3162C299.952 50.6276 300.194 50.9968 300.357 51.4013C300.52 51.8063 300.601 52.2393 300.597 52.6759C300.649 57.5891 300.159 62.4925 299.135 67.2982" stroke="#564499" stroke-miterlimit="10"/>
<path d="M304.354 84.6112C304.354 84.6112 295.704 96.1005 288.019 93.5261C280.333 90.9517 279.942 76.7299 279.942 76.7299" stroke="#564499" stroke-linecap="round" stroke-linejoin="round"/>
<path d="M76.1709 406.462V237.648H86.501V406.532" stroke="#564499" stroke-miterlimit="10"/>
<path d="M134.26 414.339H328.045" stroke="#564499" stroke-miterlimit="10"/>
<path d="M155.972 83.5725L153.612 83.1442C153.23 81.8081 152.695 80.5231 152.029 79.3079L153.398 77.3433C154.115 76.319 153.98 74.9363 153.1 74.0517L150.027 70.979C149.147 70.0991 147.764 69.9781 146.735 70.6811L144.771 72.0498C143.556 71.384 142.266 70.844 140.934 70.4669L140.506 68.1064C140.278 66.8774 139.221 65.9835 137.969 65.9835H133.62C132.368 65.9835 131.307 66.8774 131.083 68.1064L130.655 70.4669C129.319 70.8487 128.034 71.3841 126.818 72.0498L124.854 70.6811C123.83 69.9641 122.447 70.0991 121.562 70.979L118.49 74.0517C117.61 74.9317 117.489 76.3143 118.192 77.3433L119.56 79.3079C118.895 80.523 118.355 81.8127 117.977 83.1442L115.58 83.5725C114.351 83.8007 113.457 84.8575 113.457 86.1099V90.4582C113.457 91.7106 114.351 92.7721 115.58 92.9955L117.94 93.4239C118.322 94.76 118.857 96.045 119.523 97.2602L118.154 99.2248C117.437 100.249 117.573 101.632 118.452 102.516L121.525 105.589C122.405 106.469 123.788 106.59 124.817 105.887L126.781 104.518C127.996 105.184 129.286 105.724 130.618 106.101L131.06 108.48C131.288 109.709 132.345 110.603 133.597 110.603H137.946C139.198 110.603 140.259 109.709 140.483 108.48L140.911 106.12C142.247 105.738 143.532 105.203 144.748 104.537L146.712 105.906C147.736 106.623 149.119 106.488 150.004 105.608L153.086 102.521C153.966 101.641 154.087 100.258 153.384 99.2295L152.015 97.2648C152.681 96.0497 153.221 94.76 153.598 93.4285L155.958 93.0002C157.187 92.772 158.081 91.7153 158.081 90.4629V86.1145C158.081 84.8575 157.197 83.796 155.972 83.5725ZM155.293 90.2813L152.979 90.7003C152.001 90.8773 151.228 91.5803 150.953 92.5487C150.618 93.7545 150.129 94.9184 149.524 96.0031C149.035 96.8737 149.082 97.9213 149.655 98.7314L150.991 100.663L148.165 103.489L146.233 102.153C145.409 101.581 144.361 101.534 143.504 102.023C142.406 102.642 141.251 103.122 140.05 103.452C139.096 103.713 138.383 104.5 138.202 105.477L137.783 107.791H133.788L133.369 105.477C133.192 104.5 132.489 103.727 131.521 103.452C130.315 103.117 129.151 102.628 128.066 102.023C127.196 101.534 126.148 101.581 125.338 102.153L123.406 103.489L120.58 100.663L121.916 98.7314C122.489 97.9073 122.535 96.8598 122.046 96.0031C121.427 94.9044 120.948 93.7498 120.617 92.5487C120.342 91.5943 119.57 90.882 118.592 90.7003L116.278 90.2813V86.2867L118.592 85.8677C119.57 85.6908 120.343 84.9878 120.617 84.0194C120.952 82.8136 121.441 81.6497 122.046 80.565C122.535 79.6943 122.489 78.6468 121.916 77.8367L120.58 75.9046L123.406 73.0786L125.338 74.4148C126.162 74.9874 127.21 75.034 128.066 74.5451C129.165 73.9259 130.32 73.4464 131.521 73.1159C132.475 72.8412 133.187 72.0684 133.369 71.0907L133.788 68.7768H137.783L138.202 71.0907C138.379 72.0684 139.082 72.8413 140.05 73.1159C141.256 73.4511 142.42 73.9399 143.504 74.5451C144.375 75.034 145.423 74.9874 146.233 74.4148L148.165 73.0786L150.991 75.9046L149.655 77.8367C149.082 78.6608 149.035 79.7083 149.524 80.565C150.143 81.6637 150.623 82.8183 150.953 84.0194C151.214 84.9738 152.001 85.6861 152.979 85.8677L155.293 86.2867V90.2813ZM135.766 76.1555C129.081 76.1555 123.643 81.5887 123.643 88.279C123.643 94.9646 129.076 100.403 135.766 100.403C142.452 100.403 147.89 94.9694 147.89 88.279C147.89 81.5935 142.457 76.1555 135.766 76.1555ZM135.766 97.6088C130.617 97.6088 126.437 93.4234 126.437 88.2789C126.437 83.1298 130.622 78.949 135.766 78.949C140.916 78.949 145.096 83.1344 145.096 88.2789C145.101 93.4281 140.916 97.6088 135.766 97.6088Z" fill="url(#paint0_linear_489_945)"/>
<path d="M257.215 124.286L255.441 121.726C255.418 121.688 255.418 121.688 255.441 121.656C256.321 120.096 257.015 118.425 257.49 116.697C257.504 116.66 257.504 116.66 257.536 116.651L260.6 116.092C261.959 115.841 262.946 114.663 262.946 113.28V107.917C262.946 106.534 261.959 105.356 260.6 105.105L257.536 104.546C257.499 104.532 257.499 104.532 257.49 104.5C257.001 102.772 256.312 101.101 255.441 99.5412C255.418 99.504 255.418 99.504 255.441 99.4714L257.215 96.9108C258.002 95.7795 257.858 94.2431 256.88 93.2654L253.09 89.4757C252.113 88.498 250.576 88.3537 249.445 89.1405L246.884 90.9143C246.847 90.9376 246.847 90.9376 246.814 90.9143C245.255 90.0344 243.583 89.3407 241.856 88.8658C241.819 88.8518 241.819 88.8518 241.81 88.8192L241.251 85.7558C240.999 84.3964 239.822 83.4093 238.439 83.4093H233.075C231.693 83.4093 230.515 84.3963 230.263 85.7558L229.705 88.8192C229.691 88.8565 229.691 88.8565 229.658 88.8658C227.931 89.3407 226.274 90.0343 224.7 90.9143C224.663 90.9376 224.663 90.9376 224.63 90.9143L222.069 89.1405C220.938 88.3537 219.402 88.498 218.424 89.4757L214.634 93.2654C213.657 94.2431 213.526 95.7702 214.299 96.9108L216.073 99.4714C216.096 99.5086 216.096 99.5086 216.073 99.5412C215.193 101.101 214.499 102.772 214.024 104.5C214.01 104.537 214.01 104.537 213.978 104.546L210.933 105.109C209.574 105.361 208.587 106.543 208.587 107.926V113.289C208.587 114.672 209.574 115.85 210.933 116.101L213.996 116.66C214.034 116.674 214.034 116.674 214.043 116.707C214.532 118.434 215.221 120.105 216.092 121.665C216.115 121.702 216.115 121.702 216.092 121.735L214.318 124.295C213.531 125.427 213.675 126.963 214.653 127.941L218.443 131.731C219.42 132.708 220.947 132.853 222.088 132.066L224.649 130.292C224.686 130.269 224.686 130.269 224.718 130.292C226.278 131.172 227.949 131.866 229.677 132.34C229.714 132.354 229.714 132.354 229.723 132.387L230.282 135.45C230.533 136.81 231.711 137.797 233.094 137.797H238.457C239.84 137.797 241.018 136.81 241.269 135.45L241.828 132.387C241.842 132.35 241.842 132.35 241.875 132.34C243.602 131.852 245.273 131.163 246.833 130.292C246.833 130.259 246.847 130.259 246.847 130.259C246.847 130.259 246.861 130.259 246.884 130.273L249.445 132.047C250.576 132.834 252.112 132.69 253.09 131.712L256.88 127.922C257.858 126.959 258.002 125.422 257.215 124.286ZM254.915 125.957L251.125 129.747C251.102 129.77 251.079 129.77 251.042 129.761L248.481 127.987C247.573 127.354 246.419 127.308 245.455 127.843C244.086 128.616 242.629 129.212 241.116 129.645C240.054 129.943 239.268 130.799 239.077 131.884L238.518 134.948C238.504 134.985 238.495 134.994 238.458 134.994H233.094C233.057 134.994 233.034 134.98 233.034 134.948L232.475 131.884C232.27 130.799 231.497 129.943 230.436 129.645C228.923 129.226 227.47 128.62 226.097 127.843C225.655 127.592 225.18 127.475 224.691 127.475C224.118 127.475 223.559 127.643 223.071 127.987L220.51 129.761C220.473 129.784 220.45 129.784 220.426 129.747L216.637 125.957C216.613 125.934 216.613 125.911 216.623 125.874L218.396 123.313C219.03 122.405 219.076 121.251 218.541 120.287C217.768 118.918 217.172 117.461 216.739 115.948C216.441 114.886 215.584 114.1 214.5 113.909L211.436 113.35C211.399 113.336 211.39 113.327 211.39 113.29V107.926C211.39 107.889 211.404 107.866 211.436 107.866L214.5 107.307C215.584 107.102 216.441 106.329 216.739 105.268C217.158 103.755 217.763 102.302 218.541 100.929C219.076 99.9651 219.03 98.8059 218.396 97.9026L216.618 95.3374C216.595 95.3001 216.595 95.2769 216.632 95.2536L220.422 91.4639C220.445 91.4406 220.468 91.4406 220.505 91.4499L223.066 93.2237C223.974 93.8569 225.128 93.9034 226.092 93.368C227.461 92.5952 228.918 91.9853 230.431 91.5663C231.493 91.2684 232.28 90.4117 232.47 89.327L233.029 86.2636C233.043 86.2263 233.052 86.217 233.09 86.217H238.453C238.49 86.217 238.513 86.231 238.513 86.2636L239.072 89.327C239.277 90.4117 240.05 91.2684 241.111 91.5663C242.624 91.9853 244.077 92.5906 245.45 93.368C246.414 93.9034 247.573 93.8569 248.476 93.2237L251.037 91.4499C251.074 91.4266 251.098 91.4266 251.121 91.4639L254.911 95.2536C254.934 95.2769 254.934 95.3001 254.925 95.3374L253.151 97.898C252.518 98.8058 252.471 99.9605 253.006 100.924C253.779 102.293 254.375 103.75 254.808 105.263C255.106 106.325 255.963 107.112 257.047 107.302L260.111 107.861C260.148 107.875 260.157 107.884 260.157 107.922V113.285C260.157 113.322 260.143 113.345 260.111 113.345L257.047 113.904C255.963 114.109 255.106 114.882 254.808 115.943C254.389 117.456 253.784 118.909 253.006 120.282C252.471 121.246 252.518 122.405 253.151 123.308L254.925 125.869C254.938 125.911 254.938 125.934 254.915 125.957ZM235.772 95.9801C227.713 95.9801 221.148 102.535 221.148 110.604C221.148 118.663 227.703 125.228 235.772 125.228C243.831 125.228 250.396 118.673 250.396 110.604C250.386 102.55 243.831 95.9801 235.772 95.9801ZM235.772 122.443C229.254 122.443 223.946 117.14 223.946 110.617C223.946 104.099 229.249 98.7919 235.772 98.7919C242.29 98.7919 247.597 104.095 247.597 110.617C247.597 117.126 242.294 122.443 235.772 122.443Z" fill="url(#paint1_linear_489_945)"/>
<path fill-rule="evenodd" clip-rule="evenodd" d="M210.769 37.488C210.69 37.4908 210.611 37.4921 210.531 37.4921L210.531 37.4919C210.128 37.4919 209.727 37.4575 209.33 37.3889L198.614 51.0535C198.615 51.1054 198.616 51.1575 198.616 51.2096C198.616 52.1401 198.434 53.0222 198.08 53.826L197.99 61.2796H199.264C202.026 61.2796 204.274 63.5279 204.274 66.2918C204.274 66.7963 203.866 67.2044 203.362 67.2044H180.804C180.299 67.2044 179.891 66.7963 179.891 66.2918C179.891 63.5278 182.139 61.2796 184.901 61.2796H185.702L185.793 53.7824C185.448 52.9722 185.274 52.1066 185.274 51.2076C185.274 48.2136 187.242 45.6145 190.103 44.7943L203.523 31.2564C203.489 30.9791 203.471 30.7034 203.471 30.4321C203.471 26.5406 206.637 23.3723 210.531 23.3723C214.424 23.3723 217.593 26.5386 217.591 30.4321C217.591 31.0134 217.523 31.5759 217.391 32.094L221.452 52.6729C222.83 53.3705 223.723 54.8016 223.723 56.3844C223.723 58.6846 221.857 60.5562 219.563 60.5562C219.521 60.5562 219.48 60.5556 219.438 60.5544L218.204 64.5151C218.082 64.9065 217.722 65.157 217.333 65.157C217.242 65.157 217.151 65.1439 217.062 65.1143C216.58 64.9659 216.311 64.4539 216.461 63.9716L217.667 60.1008C216.291 59.4021 215.391 57.9843 215.391 56.3845C215.391 55.5571 215.642 54.7487 216.107 54.0582L210.769 37.488ZM220.315 54.1716C220.334 54.1788 220.352 54.1855 220.371 54.1915C221.29 54.5294 221.898 55.4045 221.898 56.3845C221.898 57.6774 220.85 58.7292 219.563 58.7292C219.372 58.7292 219.188 58.7069 219.016 58.6642C217.955 58.4064 217.218 57.4697 217.218 56.3845C217.218 55.8225 217.428 55.2715 217.812 54.8338C218.249 54.3366 218.888 54.0492 219.563 54.0492C219.831 54.0492 220.085 54.0911 220.315 54.1716ZM216.068 34.8238L219.502 52.2243C218.828 52.2339 218.175 52.4051 217.594 52.7145L212.591 37.1863C213.974 36.7754 215.185 35.943 216.068 34.8238ZM205.4 31.433C205.773 33.3943 207.259 34.9847 209.197 35.4903C209.892 35.6758 210.618 35.7203 211.285 35.6016C213.348 35.3159 215.031 33.8319 215.576 31.8026C215.702 31.3779 215.765 30.916 215.765 30.4318C215.765 27.5458 213.417 25.1974 210.531 25.1974L210.53 25.1969C207.644 25.1969 205.296 27.5455 205.296 30.43C205.296 30.7289 205.325 31.0399 205.386 31.3611C205.392 31.3849 205.396 31.4089 205.4 31.433ZM204.078 33.2903L192.862 44.6032C195.254 44.9315 197.251 46.5329 198.131 48.712L207.475 36.7961C205.961 36.0688 204.753 34.817 204.078 33.2903ZM196.378 53.1594C196.354 53.2018 196.333 53.2462 196.316 53.2922C195.506 54.9782 193.802 56.0565 191.946 56.0565C190.052 56.0565 188.323 54.9435 187.542 53.2221C187.247 52.5896 187.101 51.9162 187.101 51.2113C187.101 48.9706 188.618 47.034 190.788 46.5035C191.18 46.4126 191.571 46.3663 191.946 46.3663C194.463 46.3663 196.583 48.327 196.772 50.8293L196.774 50.8604C196.781 50.9693 196.789 51.0896 196.789 51.2114C196.789 51.9095 196.651 52.5644 196.378 53.1594ZM196.164 61.2796L196.223 56.3218C195.043 57.309 193.535 57.8818 191.946 57.8818C190.318 57.8818 188.779 57.2848 187.59 56.2607L187.53 61.2796H196.164ZM186.622 63.1068L186.606 63.1069H186.595L186.585 63.1068H184.901C183.462 63.1068 182.243 64.0658 181.85 65.3791H202.316C201.922 64.0658 200.703 63.1068 199.264 63.1068H197.081L197.066 63.1069H197.057L197.048 63.1068H186.622ZM191.946 54.1348C193.558 54.1348 194.869 52.8234 194.869 51.2114C194.869 49.5995 193.558 48.2881 191.946 48.2881C190.334 48.2881 189.023 49.5995 189.023 51.2114C189.023 52.8234 190.334 54.1348 191.946 54.1348ZM191.946 50.1133C192.551 50.1133 193.042 50.6049 193.042 51.2095C193.042 51.8142 192.551 52.3058 191.946 52.3058C191.341 52.3077 190.848 51.8161 190.848 51.2114C190.848 50.6067 191.341 50.1133 191.946 50.1133ZM213.777 30.4324C213.777 32.2205 212.321 33.6767 210.531 33.6767C208.741 33.6767 207.286 32.2224 207.286 30.4324C207.286 28.6424 208.741 27.1881 210.531 27.1862C212.321 27.1862 213.777 28.6424 213.777 30.4324ZM211.95 30.4324C211.95 29.6496 211.313 29.0133 210.531 29.0133C209.748 29.0133 209.112 29.6496 209.112 30.4324C209.112 31.2152 209.748 31.8514 210.531 31.8514C211.313 31.8514 211.95 31.2151 211.95 30.4324Z" fill="url(#paint2_linear_489_945)"/>
<defs>
<linearGradient id="paint0_linear_489_945" x1="135.769" y1="65.9835" x2="135.769" y2="110.603" gradientUnits="userSpaceOnUse">
<stop stop-color="#EF3922"/>
<stop offset="1" stop-color="#564499"/>
</linearGradient>
<linearGradient id="paint1_linear_489_945" x1="235.766" y1="83.4093" x2="235.766" y2="137.797" gradientUnits="userSpaceOnUse">
<stop stop-color="#EF3922"/>
<stop offset="1" stop-color="#564499"/>
</linearGradient>
<linearGradient id="paint2_linear_489_945" x1="201.807" y1="23.3723" x2="201.807" y2="67.2045" gradientUnits="userSpaceOnUse">
<stop stop-color="#EF3922"/>
<stop offset="1" stop-color="#564499"/>
</linearGradient>
</defs>
</svg>
