<svg width="103" height="48" viewBox="0 0 103 48" fill="none" xmlns="http://www.w3.org/2000/svg">
<path d="M57.97 23.978L70.5451 9.98618H78.4921C86.2165 9.98618 92.5027 16.2725 92.5027 24C92.5027 31.7275 86.2165 38.0164 78.4921 38.0164H70.5477L57.97 23.978ZM44.5312 24L33.1935 36.6161C32.3959 37.5047 31.2522 38.0164 30.0558 38.0164H23.9896C18.0279 38.0164 12.9269 34.2694 10.9087 29.0069H27.2676C28.0842 29.0069 28.871 28.6822 29.4485 28.1045L32.7619 24.7893C33.1387 24.4123 33.1387 23.8018 32.7593 23.4249L29.2064 19.8899C28.6259 19.3152 27.8451 18.9931 27.0285 18.9931H10.9087C12.9269 13.7306 18.0279 9.98618 23.9896 9.98618H30.0558C31.2522 9.98618 32.3959 10.4952 33.1961 11.3839L44.5312 24ZM56.137 36.8899L63.6951 45.3256C65.2213 47.0229 67.4047 47.9996 69.6901 47.9996H78.4926C91.722 47.9996 102.482 37.2323 102.482 23.9996C102.482 10.7668 91.722 0 78.4921 0H69.6896C67.4073 0 65.2213 0.976684 63.6947 2.67401L51.2404 16.5337L40.6149 4.70984C37.9282 1.71675 34.0783 0 30.0553 0H23.9892C10.7628 0 0 10.7677 0 24C0 37.2323 10.7633 48 23.9901 48H30.0562C34.0792 48 37.929 46.2832 40.6157 43.2902L51.2603 31.4469L56.137 36.8899Z" fill="url(#paint0_linear_204_6801)"/>
<defs>
<linearGradient id="paint0_linear_204_6801" x1="7.63553e-07" y1="24" x2="102.482" y2="24" gradientUnits="userSpaceOnUse">
<stop stop-color="#0FC1E5"/>
<stop offset="0.510417" stop-color="#2C0CAD"/>
<stop offset="1" stop-color="#EF3922"/>
</linearGradient>
</defs>
</svg>
