<svg width="109" height="91" viewBox="0 0 109 91" fill="none" xmlns="http://www.w3.org/2000/svg">
<path d="M9.73138 61.7921C9.36476 62.0886 9.11679 62.5182 8.9857 63.078H13.0603C12.9999 62.5656 12.7914 62.1488 12.4333 61.8271C12.0729 61.5054 11.6187 61.3439 11.069 61.3439C10.5193 61.3439 10.0962 61.4935 9.73183 61.7921H9.73138ZM8.53775 68.6986C7.77118 68.2402 7.1797 67.6243 6.76109 66.8487C6.34248 66.0752 6.13184 65.2164 6.13184 64.2748C6.13184 63.3333 6.35048 62.4288 6.7882 61.6656C7.2237 60.9045 7.81296 60.301 8.55464 59.8612C9.2981 59.4196 10.1358 59.1997 11.069 59.1997C12.1106 59.1997 12.9896 59.4134 13.706 59.8426C14.4246 60.2718 14.9725 60.8466 15.3493 61.5682C15.7266 62.2881 15.9137 63.101 15.9137 64.0071C15.9137 64.1978 15.9053 64.3846 15.8866 64.5691C15.8697 64.7536 15.8368 64.9133 15.7888 65.0438H8.93148C9.00436 65.6513 9.25011 66.139 9.66872 66.508C10.0873 66.877 10.625 67.0619 11.2832 67.0619C11.7622 67.0619 12.1728 66.9664 12.5124 66.7779C12.8541 66.5872 13.1207 66.3235 13.3123 65.9898L15.4662 67.0102C15.1662 67.7234 14.6414 68.2982 13.8873 68.7336C13.1332 69.169 12.252 69.3871 11.2481 69.3871C10.2442 69.3871 9.30255 69.157 8.5382 68.6986H8.53775Z" fill="white"/>
<path d="M19.9715 64.2749L16.5239 59.4131H19.6484L21.5504 62.2029L23.4524 59.4131H26.5769L23.1293 64.2749L26.5391 69.1717H23.4355L21.5504 66.3488L19.6653 69.1717H16.5426L19.9715 64.2749Z" fill="white"/>
<path d="M34.7615 66.2221C35.2384 65.7221 35.4801 65.0792 35.4801 64.2934C35.4801 63.5075 35.2384 62.8788 34.7615 62.3726C34.2825 61.8642 33.6719 61.6116 32.9307 61.6116C32.1894 61.6116 31.6059 61.8624 31.1456 62.3624C30.683 62.8642 30.4541 63.5075 30.4541 64.2934C30.4541 65.0792 30.6834 65.7367 31.1456 66.2327C31.6059 66.7265 32.1997 66.973 32.9307 66.973C33.6617 66.973 34.2825 66.7243 34.7615 66.2221ZM27.7602 59.4129H30.2746V60.4333C30.9682 59.6098 31.9659 59.1992 33.272 59.1992C34.2052 59.1992 35.0486 59.4253 35.8027 59.8775C36.5547 60.3319 37.1546 60.9417 37.5963 61.7111C38.0398 62.4784 38.2607 63.3394 38.2607 64.2934C38.2607 65.2473 38.042 66.0916 37.6065 66.8672C37.1692 67.6406 36.5733 68.2548 35.8192 68.707C35.0651 69.1614 34.2092 69.3875 33.2529 69.3875C32.7031 69.3875 32.1841 69.3065 31.701 69.145C31.2158 68.9853 30.7989 68.7446 30.4532 68.4212V72.7476H27.7598V59.4134L27.7602 59.4129Z" fill="white"/>
<path d="M43.0441 61.7921C42.6797 62.0886 42.4317 62.5182 42.3006 63.078H46.3752C46.3148 62.5656 46.1046 62.1488 45.7464 61.8271C45.3883 61.5054 44.9341 61.3439 44.3822 61.3439C43.8302 61.3439 43.4116 61.4935 43.045 61.7921H43.0441ZM41.8505 68.6986C41.0861 68.2402 40.4924 67.6243 40.0738 66.8487C39.6552 66.0752 39.4468 65.2164 39.4468 64.2748C39.4468 63.3333 39.6632 62.4288 40.1009 61.6656C40.5382 60.9045 41.1279 60.301 41.8696 59.8612C42.6113 59.4196 43.4485 59.1997 44.3817 59.1997C45.4234 59.1997 46.3024 59.4134 47.0209 59.8426C47.7395 60.2718 48.2852 60.8466 48.6625 61.5682C49.0393 62.2881 49.2291 63.101 49.2291 64.0071C49.2291 64.1978 49.2207 64.3846 49.202 64.5691C49.1833 64.7536 49.15 64.9133 49.1042 65.0438H42.2469C42.3175 65.6513 42.5633 66.139 42.9823 66.508C43.4009 66.877 43.9404 67.0619 44.599 67.0619C45.0758 67.0619 45.4865 66.9664 45.8277 66.7779C46.1695 66.5872 46.4339 66.3235 46.6254 65.9898L48.7794 67.0102C48.4816 67.7234 47.9546 68.2982 47.2005 68.7336C46.4463 69.169 45.5673 69.3871 44.5635 69.3871C43.5596 69.3871 42.6179 69.157 41.8514 68.6986H41.8505Z" fill="white"/>
<path d="M50.8071 59.4129H53.3193V60.8792C53.5712 60.2717 53.9276 59.8589 54.388 59.6368C54.8484 59.4169 55.3777 59.3071 55.9776 59.3071H56.5504V61.6301H55.7069C55.0488 61.6301 54.5173 61.8292 54.1112 62.2274C53.7028 62.6279 53.501 63.1898 53.501 63.9177V69.1711H50.8076V59.4124L50.8071 59.4129Z" fill="white"/>
<path d="M57.7354 59.4127H60.4288V69.1714H57.7354V59.4127ZM57.7354 55.8579H60.4288V58.5375H57.7354V55.8579Z" fill="white"/>
<path d="M65.6056 61.7921C65.2412 62.0886 64.9933 62.5182 64.8622 63.078H68.9368C68.8763 62.5656 68.6679 62.1488 68.3075 61.8271C67.9493 61.5054 67.4952 61.3439 66.9432 61.3439C66.3913 61.3439 65.9727 61.4935 65.6061 61.7921H65.6056ZM64.412 68.6986C63.6476 68.2402 63.0539 67.6243 62.6353 66.8487C62.2167 66.0752 62.0083 65.2164 62.0083 64.2748C62.0083 63.3333 62.2269 62.4288 62.6624 61.6656C63.0997 60.9045 63.6894 60.301 64.4311 59.8612C65.1728 59.4196 66.01 59.1997 66.9432 59.1997C67.9849 59.1997 68.8639 59.4134 69.5825 59.8426C70.301 60.2718 70.849 60.8466 71.224 61.5682C71.6009 62.2881 71.7906 63.101 71.7906 64.0071C71.7906 64.1978 71.7822 64.3846 71.7635 64.5691C71.7448 64.7536 71.7137 64.9133 71.6657 65.0438H64.8084C64.879 65.6513 65.1248 66.139 65.5439 66.508C65.9625 66.877 66.502 67.0619 67.1605 67.0619C67.6374 67.0619 68.048 66.9664 68.3897 66.7779C68.7315 66.5872 68.9981 66.3235 69.1874 65.9898L71.3436 67.0102C71.0436 67.7234 70.5166 68.2982 69.7624 68.7336C69.0083 69.169 68.1293 69.3871 67.1254 69.3871C66.1216 69.3871 65.1799 69.157 64.4133 68.6986H64.412Z" fill="white"/>
<path d="M73.3691 59.4129H75.8835V60.6116C76.1332 60.1346 76.4981 59.7797 76.9771 59.5474C77.4562 59.3151 78.0063 59.1992 78.6289 59.1992C79.3706 59.1992 80.0203 59.355 80.5767 59.6638C81.1326 59.9749 81.5659 60.4063 81.8787 60.9602C82.1889 61.5142 82.3453 62.1611 82.3453 62.8996V69.1716H79.6519V63.4699C79.6519 62.9098 79.4853 62.462 79.1497 62.1217C78.8142 61.7815 78.3832 61.6116 77.8561 61.6116C77.3291 61.6116 76.8998 61.7815 76.5647 62.1217C76.2292 62.462 76.0626 62.9098 76.0626 63.4699V69.1716H73.3691V59.4129Z" fill="white"/>
<path d="M86.284 68.7172C85.501 68.2694 84.8779 67.6592 84.4175 66.8836C83.9572 66.1097 83.7261 65.2407 83.7261 64.2743C83.7261 63.308 83.9532 62.443 84.4095 61.6757C84.8637 60.9063 85.4863 60.3005 86.276 59.8607C87.0657 59.4191 87.9509 59.1992 88.9321 59.1992C89.6613 59.1992 90.3381 59.3236 90.9612 59.5744C91.582 59.8253 92.1152 60.174 92.5587 60.6195C93.0005 61.0678 93.3169 61.5943 93.5084 62.2023L91.1754 63.2018C91.0087 62.7142 90.7234 62.3266 90.3235 62.0403C89.9213 61.754 89.4591 61.6111 88.9321 61.6111C88.226 61.6111 87.6447 61.862 87.1905 62.362C86.7364 62.8637 86.5093 63.5071 86.5093 64.2929C86.5093 65.0787 86.7364 65.7221 87.1905 66.2216C87.6447 66.7234 88.226 66.9725 88.9321 66.9725C89.4693 66.9725 89.936 66.8314 90.3319 66.5451C90.7279 66.2588 91.0087 65.8712 91.1754 65.3814L93.5084 66.4017C93.3293 66.9721 93.0187 67.4845 92.5752 67.9384C92.1335 68.3906 91.6002 68.745 90.9776 69.0004C90.3546 69.2574 89.6738 69.3862 88.9321 69.3862C87.9509 69.3862 87.0679 69.1623 86.2844 68.7163L86.284 68.7172Z" fill="white"/>
<path d="M98.2929 61.7921C97.9263 62.0886 97.6783 62.5182 97.5472 63.078H101.622C101.561 62.5656 101.353 62.1488 100.993 61.8271C100.634 61.5054 100.18 61.3439 99.6283 61.3439C99.0764 61.3439 98.6577 61.4935 98.2929 61.7921ZM97.0993 68.6986C96.3327 68.2402 95.739 67.6243 95.3204 66.8487C94.9018 66.0752 94.6934 65.2164 94.6934 64.2748C94.6934 63.3333 94.912 62.4288 95.3475 61.6656C95.7848 60.9045 96.3745 60.301 97.1162 59.8612C97.8578 59.4196 98.6951 59.1997 99.6283 59.1997C100.67 59.1997 101.549 59.4134 102.268 59.8426C102.986 60.2718 103.534 60.8466 103.911 61.5682C104.288 62.2881 104.475 63.101 104.475 64.0071C104.475 64.1978 104.467 64.3846 104.448 64.5691C104.432 64.7536 104.398 64.9133 104.35 65.0438H97.493C97.5659 65.6513 97.8094 66.139 98.2285 66.508C98.6471 66.877 99.1866 67.0619 99.8451 67.0619C100.324 67.0619 100.733 66.9664 101.074 66.7779C101.416 66.5872 101.683 66.3235 101.874 65.9898L104.028 67.0102C103.728 67.7234 103.201 68.2982 102.447 68.7336C101.693 69.169 100.814 69.3871 99.81 69.3871C98.8062 69.3871 97.8645 69.157 97.0997 68.6986H97.0993Z" fill="white"/>
<path d="M33.1963 83.7726C33.7172 83.4509 34.1318 83.0133 34.4357 82.4598C34.7397 81.9063 34.8939 81.2837 34.8939 80.593C34.8939 79.9023 34.7397 79.278 34.4357 78.7245C34.1313 78.1705 33.7172 77.7329 33.1963 77.4117C32.6777 77.09 32.0925 76.9285 31.4468 76.9285C30.8011 76.9285 30.2385 77.0904 29.7239 77.4117C29.2093 77.7334 28.8053 78.1687 28.5138 78.7161C28.2201 79.2639 28.0721 79.8899 28.0721 80.593C28.0721 81.2961 28.2201 81.9058 28.5138 82.4598C28.8053 83.0138 29.2075 83.4514 29.7159 83.7726C30.2243 84.0961 30.8011 84.2558 31.4468 84.2558C32.0925 84.2558 32.6777 84.0961 33.1963 83.7726ZM28.9529 84.9443C28.2343 84.5089 27.6677 83.9133 27.2553 83.1563C26.8429 82.3992 26.6367 81.5448 26.6367 80.5926C26.6367 79.6404 26.8429 78.7696 27.2553 78.0187C27.6677 77.2679 28.2303 76.6745 28.9426 76.2413C29.655 75.806 30.4656 75.5878 31.3757 75.5878C32.1298 75.5878 32.8048 75.7369 33.4048 76.0356C34.0025 76.3321 34.4984 76.7365 34.8943 77.2489V71.8521H36.2399V85.3814H34.8943V83.8257C34.5339 84.3859 34.0447 84.8213 33.4216 85.1301C32.7991 85.4412 32.1178 85.5969 31.3761 85.5969C30.4785 85.5969 29.6701 85.3792 28.9538 84.9434L28.9529 84.9443Z" fill="white"/>
<path d="M41.7679 77.1959C41.3137 77.4366 40.9325 77.7724 40.6285 78.206C40.3223 78.6414 40.1348 79.156 40.0619 79.7533H46.2193C46.2069 79.1808 46.0674 78.6768 45.7963 78.2436C45.5274 77.8082 45.1693 77.4658 44.7195 77.2149C44.2716 76.9662 43.7779 76.8397 43.2406 76.8397C42.7033 76.8397 42.2221 76.96 41.7679 77.1963V77.1959ZM40.9511 84.9444C40.2263 84.509 39.6553 83.9117 39.2367 83.1484C38.8181 82.3851 38.6074 81.5223 38.6074 80.556C38.6074 79.5896 38.8114 78.737 39.218 77.9923C39.6264 77.2476 40.1783 76.6609 40.8782 76.2313C41.5782 75.8021 42.3656 75.5884 43.2406 75.5884C43.9343 75.5884 44.5529 75.7171 45.0968 75.972C45.6425 76.2291 46.1051 76.5733 46.4882 77.0091C46.8713 77.4445 47.165 77.9321 47.3672 78.4755C47.5712 79.0171 47.6734 79.5746 47.6734 80.1454C47.6734 80.2657 47.6672 80.3985 47.6547 80.5476C47.6423 80.6971 47.6254 80.8485 47.6005 81.0038H40.0264C40.0495 81.6945 40.2201 82.2878 40.5387 82.7812C40.8551 83.2767 41.2658 83.6608 41.7679 83.9342C42.2701 84.2081 42.8096 84.3448 43.3824 84.3448C44.0885 84.3448 44.6822 84.1789 45.159 83.8449C45.6381 83.5108 46.0278 83.094 46.3278 82.594L47.4756 83.2019C47.2841 83.6311 46.9904 84.0276 46.5966 84.3904C46.2007 84.7532 45.7323 85.0457 45.1861 85.2656C44.6427 85.4855 44.0405 85.5975 43.3824 85.5975C42.4865 85.5975 41.6741 85.3798 40.9516 84.9439L40.9511 84.9444Z" fill="white"/>
<path d="M50.9584 84.8988C50.2625 84.4342 49.7608 83.8037 49.4502 83.005L50.5812 82.4701C50.8562 83.0528 51.2415 83.5174 51.737 83.8639C52.2347 84.2081 52.7827 84.3825 53.3808 84.3825C53.979 84.3825 54.4389 84.2413 54.8348 83.9612C55.2286 83.6811 55.4263 83.3143 55.4263 82.8621C55.4263 82.5281 55.3303 82.2626 55.1388 82.0679C54.9473 81.871 54.7264 81.7192 54.4762 81.6117C54.2243 81.5037 54.0034 81.4272 53.8119 81.3794L52.4289 80.9852C51.5437 80.7361 50.9042 80.3839 50.5083 79.9317C50.1146 79.4795 49.9168 78.9547 49.9168 78.3596C49.9168 77.7994 50.0608 77.31 50.3479 76.8932C50.6354 76.4764 51.0229 76.1547 51.5144 75.9286C52.0036 75.7025 52.5498 75.5884 53.1475 75.5884C53.9598 75.5884 54.6993 75.7999 55.3641 76.2229C56.0285 76.6459 56.4973 77.233 56.7724 77.9839L55.6245 78.5189C55.385 77.9839 55.0415 77.5627 54.5935 77.26C54.1438 76.9552 53.6434 76.8038 53.0937 76.8038C52.544 76.8038 52.125 76.9406 51.8023 77.2145C51.4793 77.4883 51.3171 77.8348 51.3171 78.2516C51.3171 78.5733 51.4006 78.8303 51.569 79.0211C51.7357 79.21 51.9294 79.3529 52.1521 79.4485C52.3729 79.5441 52.5667 79.6166 52.7351 79.6644L54.3327 80.129C55.1095 80.3551 55.7156 80.7055 56.1533 81.1825C56.5906 81.6595 56.8097 82.2197 56.8097 82.8626C56.8097 83.3873 56.6617 83.8581 56.3702 84.2749C56.0765 84.6917 55.6725 85.0152 55.1579 85.2475C54.6433 85.4798 54.0518 85.5979 53.3813 85.5979C52.4605 85.5979 51.6521 85.3634 50.9584 84.8988Z" fill="white"/>
<path d="M59.1782 75.8019H60.5238V85.3823H59.1782V75.8019ZM59.1782 72.0684H60.5238V74.0325H59.1782V72.0684Z" fill="white"/>
<path d="M69.3918 83.4241C69.894 83.1091 70.298 82.6856 70.6041 82.1569C70.9081 81.6259 71.0605 81.0454 71.0605 80.4149C71.0605 79.7844 70.9085 79.2016 70.6041 78.6707C70.298 78.1419 69.894 77.7185 69.3918 77.4034C68.8897 77.0862 68.3275 76.9287 67.7045 76.9287C67.0815 76.9287 66.4962 77.0862 65.9816 77.4034C65.467 77.7185 65.0631 78.1375 64.7693 78.6623C64.4756 79.187 64.3298 79.7698 64.3298 80.4149C64.3298 81.06 64.4756 81.6259 64.7693 82.1569C65.0631 82.6856 65.463 83.1091 65.9714 83.4241C66.4798 83.7414 67.0588 83.8989 67.7045 83.8989C68.3502 83.8989 68.8897 83.7414 69.3918 83.4241ZM65.2546 88.6532C64.5173 88.2116 63.9881 87.6453 63.665 86.9546L64.9044 86.2948C65.0959 86.7471 65.4355 87.1391 65.9269 87.4727C66.4167 87.8068 67.0455 87.9727 67.812 87.9727C68.3973 87.9727 68.9346 87.8607 69.4265 87.6346C69.918 87.4085 70.3117 87.0745 70.6117 86.6329C70.9094 86.1931 71.0596 85.6497 71.0596 85.0068V83.4701C70.7015 84.0303 70.2162 84.4657 69.6056 84.7745C68.9954 85.0838 68.3369 85.2391 67.6307 85.2391C66.7348 85.2391 65.9269 85.0254 65.2079 84.5962C64.4894 84.167 63.9245 83.5861 63.5121 82.8542C63.0997 82.1202 62.8936 81.3069 62.8936 80.4153C62.8936 79.5237 63.0997 78.6937 63.5121 77.9658C63.9245 77.2397 64.4871 76.6614 65.1995 76.2318C65.9118 75.8026 66.7224 75.5889 67.6303 75.5889C68.3364 75.5889 68.9883 75.738 69.5883 76.0366C70.186 76.3331 70.6757 76.7375 71.0587 77.2499V75.8021H72.4066V85.0068C72.4066 85.828 72.2106 86.5643 71.8213 87.2134C71.4338 87.8625 70.8943 88.3749 70.2068 88.7506C69.5194 89.1262 68.7319 89.3147 67.8467 89.3147C66.8531 89.3147 65.9887 89.0926 65.2533 88.6532H65.2546Z" fill="white"/>
<path d="M75.1699 75.8021H76.5177V76.9822C76.8053 76.553 77.1866 76.2149 77.6656 75.9636C78.1447 75.7127 78.6824 75.5884 79.2823 75.5884C79.9635 75.5884 80.5759 75.7441 81.1216 76.053C81.6655 76.364 82.0966 76.7892 82.413 77.3304C82.7294 77.8737 82.8898 78.4835 82.8898 79.1618V85.382H81.542V79.6803C81.542 78.8113 81.3127 78.1352 80.8523 77.6521C80.3897 77.1706 79.7898 76.9282 79.0485 76.9282C78.3073 76.9282 77.7132 77.1729 77.2341 77.6622C76.7573 78.1498 76.5177 78.8237 76.5177 79.6803V85.382H75.1699V75.8016V75.8021Z" fill="white"/>
<path d="M61.3975 27.1493L74.3452 12.8111H82.5277C90.481 12.8111 96.9535 19.253 96.9535 27.1718C96.9535 35.0907 90.481 41.5353 82.5277 41.5353H74.3479L61.3971 27.1493H61.3975ZM47.5606 27.1718L35.887 40.1003C35.0657 41.011 33.8881 41.5353 32.6563 41.5353H26.4104C20.2721 41.5353 15.0198 37.6955 12.9419 32.3027H29.7855C30.6263 32.3027 31.4364 31.97 32.031 31.378L35.4426 27.9807C35.8305 27.5944 35.8305 26.9688 35.4399 26.5825L31.7817 22.96C31.184 22.3711 30.3801 22.041 29.5393 22.041H12.9419C15.0198 16.6482 20.2721 12.8111 26.4104 12.8111H32.6563C33.8881 12.8111 35.0657 13.3327 35.8896 14.2433L47.5606 27.1718ZM59.5102 40.3809L67.2923 49.0254C68.8637 50.7647 71.1119 51.7656 73.4649 51.7656H82.5282C96.1496 51.7656 107.229 40.7318 107.229 27.1714C107.229 13.611 96.1496 2.57764 82.5277 2.57764H73.4644C71.1145 2.57764 68.8637 3.5785 67.2919 5.31785L54.4686 19.5207L43.5282 7.40409C40.7619 4.33689 36.798 2.57764 32.6558 2.57764H26.4099C12.7917 2.57764 1.70996 13.6119 1.70996 27.1718C1.70996 40.7318 12.7921 51.7661 26.4108 51.7661H32.6567C36.7989 51.7661 40.7628 50.0068 43.5291 46.9396L54.4891 34.8031L59.5107 40.3809H59.5102Z" fill="white"/>
</svg>
