<svg width="1512" height="490" viewBox="0 0 1512 490" fill="none" xmlns="http://www.w3.org/2000/svg">
<path d="M190.616 342.732C186.036 347.349 181.5 352.487 176.666 357.154C175.336 358.451 173.976 359.705 172.585 360.915C171.04 362.259 169.447 363.538 167.815 364.709C167.697 364.367 167.552 364.036 167.382 363.717C164.645 358.297 157.22 354.867 156.298 348.721C155.458 342.981 160.634 337.708 159.789 332.082C158.835 325.719 151.009 321.942 149.562 315.725C148.64 311.866 149.464 307.417 149.128 303.439C148.744 298.991 147.992 294.582 146.879 290.258C147.421 290.22 147.963 290.204 148.505 290.187C159.507 290.003 170.336 296.182 173.896 304.864C176.763 311.91 175.305 319.991 179.115 326.576C179.345 327.001 179.604 327.411 179.891 327.8C180.396 328.491 180.938 329.154 181.516 329.784L182.725 331.041C182.926 331.242 183.148 331.426 183.348 331.643C183.549 331.86 183.766 332.049 183.966 332.266C185.863 334.082 187.798 335.908 189.055 338.076C189.169 338.265 189.27 338.46 189.359 338.662C189.473 338.863 189.575 339.071 189.662 339.285C189.776 339.518 189.863 339.74 189.944 339.957C190.025 340.174 190.128 340.499 190.215 340.726C190.334 341.133 190.448 341.518 190.535 341.919C190.535 342.022 190.535 342.109 190.567 342.19C190.6 342.271 190.567 342.255 190.567 342.293C190.575 342.325 190.575 342.358 190.567 342.39C190.567 342.461 190.567 342.51 190.6 342.558V342.591C190.592 342.639 190.598 342.687 190.616 342.732Z" stroke="#564499"/>
<path d="M229.237 316.354C229.121 318.244 229.121 320.139 229.237 322.029C225.931 322.836 222.674 323.725 219.482 324.798C217.498 325.454 215.552 326.175 213.607 326.999C208.209 329.188 203.125 332.086 198.491 335.616C199.501 333.894 200.212 332.014 200.594 330.056C200.594 329.974 200.626 329.888 200.643 329.79C201.483 325.731 201.548 321.465 203.461 317.585C207.022 310.431 217.433 305.244 228.332 304.908H228.533C229.524 304.908 230.532 304.908 231.541 304.957C230.412 308.674 229.64 312.491 229.237 316.354Z" stroke="#564499"/>
<path d="M224.284 311.13L219.449 324.777C217.466 325.433 215.52 326.153 213.574 326.977C216.68 320.94 220.235 315.482 224.284 311.13Z" stroke="#564499"/>
<path d="M176.666 357.155C172.016 335.352 166.471 313.722 155.632 299.669L172.585 360.917M176.666 357.155C175.336 358.452 173.976 359.706 172.585 360.917M176.666 357.155L172.585 360.917" stroke="#564499"/>
<path d="M190.741 343.09C190.741 342.982 190.724 342.873 190.692 342.77C190.725 342.971 190.741 343.09 190.741 343.09Z" stroke="#564499" stroke-miterlimit="10"/>
<path d="M307.536 165.1C314.435 190.941 321.551 218.782 320.966 245.345C320.343 273.337 306.089 296.832 280.551 308.755C263.929 316.511 246.06 317.936 229.221 322.018C225.915 322.825 222.658 323.714 219.465 324.787C217.482 325.443 215.536 326.164 213.59 326.987C208.197 329.182 203.119 332.083 198.491 335.616" stroke="#564499" stroke-miterlimit="10"/>
<path d="M31.7745 18.0195C31.7745 18.0195 -0.397027 10.6757 -27.1759 19.7267C-30.5118 20.8258 -33.7441 22.2187 -36.8339 23.889C-52.0092 32.1001 -63.4611 47.5301 -62.621 75.5555C-62.1712 90.1888 -63.0275 104.622 -65.9108 118.626C-66.8538 123.171 -68.0191 127.67 -69.4065 132.121C-72.8053 143.005 -77.7107 153.36 -83.9802 162.884C-103.947 193.158 -100.922 224.625 -78.7773 253.805C-77.6174 255.334 -76.4251 256.846 -75.2002 258.325" stroke="#564499" stroke-miterlimit="10"/>
<path d="M261.473 6.26843H68.7878C46.5643 6.26843 28.5483 24.2843 28.5483 46.5081V228.108C28.5483 250.332 46.5643 268.348 68.7878 268.348H261.473C283.697 268.348 301.713 250.332 301.713 228.108V46.5081C301.713 24.2843 283.697 6.26843 261.473 6.26843Z" fill="#BBB4D6" stroke="#564499"/>
<path d="M263.441 0.676514H66.8239C42.4681 0.676514 22.7235 20.4209 22.7235 44.7769V229.839C22.7235 254.195 42.4681 273.94 66.8239 273.94H263.441C287.797 273.94 307.541 254.195 307.541 229.839V44.7769C307.541 20.4209 287.797 0.676514 263.441 0.676514Z" stroke="#564499" stroke-miterlimit="10"/>
<path d="M270.156 23.4881H213.688C206.014 23.4881 199.786 30.187 199.786 38.4304V169.133C199.786 177.392 206.014 184.108 213.688 184.108H270.156C277.847 184.108 284.096 177.392 284.096 169.133V38.4304C284.096 30.187 277.847 23.4881 270.156 23.4881ZM280.096 169.702C280.086 172.449 278.99 175.081 277.046 177.024C275.103 178.966 272.47 180.061 269.723 180.07H214.159C211.408 180.061 208.771 178.965 206.824 177.021C204.877 175.077 203.777 172.443 203.764 169.691V37.8938C203.777 35.1422 204.877 32.5072 206.824 30.5631C208.771 28.619 211.408 27.5235 214.159 27.5149H269.723C272.472 27.5236 275.107 28.6201 277.05 30.5647C278.994 32.5093 280.089 35.1444 280.096 37.8938V169.702Z" fill="white" stroke="#564499"/>
<path d="M269.414 199.445H212.945C205.277 199.445 199.044 206.144 199.044 214.388V234.267C199.044 242.532 205.277 249.247 212.945 249.247H269.414C277.104 249.247 283.353 242.532 283.353 234.267V214.388C283.353 206.144 277.104 199.445 269.414 199.445ZM279.353 234.842C279.346 237.591 278.251 240.225 276.307 242.169C274.364 244.113 271.729 245.208 268.98 245.215H213.417C210.666 245.208 208.029 244.113 206.082 242.17C204.135 240.227 203.035 237.593 203.022 234.842V213.851C203.035 211.099 204.135 208.465 206.082 206.521C208.029 204.576 210.665 203.481 213.417 203.472H268.98C271.73 203.481 274.364 204.577 276.308 206.522C278.251 208.467 279.346 211.102 279.353 213.851V234.842Z" fill="white" stroke="#564499"/>
<path d="M142.868 213.895L60.1198 212.681C59.2293 212.667 58.3811 212.3 57.7616 211.661C57.1416 211.022 56.8007 210.162 56.8137 209.272C56.8126 208.964 56.8565 208.657 56.9438 208.362C57.1573 207.661 57.5925 207.049 58.1838 206.617C58.7751 206.185 59.4905 205.957 60.2227 205.966L142.971 207.17C142.352 208.13 142.006 209.241 141.969 210.383C141.924 211.616 142.236 212.836 142.868 213.895Z" fill="white"/>
<path d="M162.932 211.726C162.722 212.426 162.293 213.039 161.707 213.474C161.121 213.91 160.41 214.144 159.68 214.144L153.719 214.057C154.358 213.058 154.706 211.9 154.725 210.714C154.742 209.528 154.43 208.36 153.822 207.342L159.783 207.429C160.672 207.447 161.518 207.816 162.137 208.454C162.756 209.092 163.098 209.949 163.089 210.838C163.079 211.14 163.026 211.439 162.932 211.726Z" fill="#564499"/>
<path d="M162.737 225.053C162.527 225.751 162.097 226.362 161.511 226.795C160.925 227.228 160.214 227.459 159.485 227.454L77.2407 226.251C78.0087 225.335 78.5014 224.22 78.6618 223.035C78.8217 221.851 78.6428 220.645 78.1458 219.557L159.561 220.717C160.45 220.735 161.297 221.103 161.917 221.741C162.535 222.38 162.877 223.237 162.867 224.126C162.87 224.44 162.826 224.752 162.737 225.053Z" fill="#564499"/>
<path d="M67.3444 226.1L59.9302 225.991C59.0419 225.978 58.1948 225.615 57.5742 224.978C56.9536 224.343 56.61 223.487 56.6187 222.598C56.6225 222.285 56.668 221.973 56.7542 221.672C56.9623 220.974 57.3921 220.363 57.9796 219.933C58.5666 219.503 59.2782 219.276 60.006 219.287L66.6127 219.39C66.2263 220.192 66.0084 221.064 65.9732 221.954C65.9184 223.455 66.4046 224.927 67.3444 226.1Z" fill="white"/>
<path d="M137.015 240.597L60.2335 239.481C59.3452 239.461 58.5003 239.092 57.8814 238.454C57.263 237.817 56.9199 236.961 56.9275 236.072C56.9297 235.771 56.9768 235.471 57.0684 235.183C57.2765 234.483 57.7063 233.869 58.2922 233.434C58.8786 232.998 59.5897 232.764 60.3203 232.766L136.988 233.893C136.362 234.9 136.03 236.061 136.03 237.245C136.03 238.431 136.362 239.591 136.988 240.597H137.015Z" fill="white"/>
<path d="M163.057 238.532C162.849 239.231 162.418 239.842 161.832 240.274C161.245 240.706 160.533 240.936 159.805 240.927L147.741 240.77L137.015 240.624C136.389 239.618 136.057 238.457 136.057 237.272C136.057 236.087 136.389 234.926 137.015 233.92L147.941 234.082L159.865 234.256C160.752 234.27 161.598 234.635 162.217 235.271C162.837 235.907 163.179 236.761 163.171 237.649C163.174 237.947 163.136 238.245 163.057 238.532Z" fill="#564499"/>
<path d="M153.686 214.057C152.853 215.36 151.575 216.316 150.091 216.747C148.606 217.179 147.015 217.057 145.613 216.404C144.211 215.752 143.094 214.612 142.469 213.198C141.844 211.784 141.753 210.191 142.214 208.715C142.674 207.239 143.655 205.98 144.973 205.172C146.291 204.365 147.858 204.063 149.382 204.323C150.906 204.583 152.284 205.388 153.26 206.586C154.236 207.786 154.743 209.298 154.689 210.844C154.649 211.986 154.303 213.095 153.686 214.057Z" fill="white"/>
<path d="M77.2299 226.252C76.6229 226.979 75.8604 227.562 74.9992 227.957C74.1374 228.353 73.1987 228.55 72.2508 228.535C71.3035 228.521 70.3707 228.295 69.522 227.873C68.6727 227.452 67.9291 226.846 67.3443 226.1C66.4089 224.926 65.926 223.454 65.984 221.954C66.0198 221.065 66.2371 220.192 66.6235 219.39C67.1677 218.285 68.0202 217.36 69.0781 216.728C70.1355 216.096 71.3539 215.784 72.5852 215.83C73.7711 215.867 74.9228 216.238 75.9075 216.901C76.8917 217.563 77.6695 218.49 78.1513 219.575C78.6483 220.662 78.8271 221.867 78.6672 223.052C78.5068 224.237 78.0142 225.352 77.2462 226.268L77.2299 226.252Z" fill="white"/>
<path d="M147.741 240.77C146.975 241.926 145.854 242.801 144.547 243.262C143.239 243.723 141.817 243.746 140.497 243.326C139.175 242.906 138.027 242.067 137.226 240.936C136.424 239.804 136.013 238.443 136.056 237.058C136.096 235.947 136.423 234.866 137.004 233.92C137.45 233.206 138.033 232.589 138.719 232.102C139.405 231.616 140.181 231.27 141.001 231.085C141.822 230.899 142.671 230.879 143.499 231.023C144.328 231.168 145.12 231.476 145.828 231.928C146.537 232.381 147.15 232.969 147.63 233.66C148.111 234.35 148.449 235.128 148.627 235.95C148.805 236.773 148.818 237.622 148.666 238.449C148.514 239.276 148.199 240.065 147.741 240.77Z" fill="white"/>
<path d="M56.1797 39.3512L56.3206 58.9652C56.3569 62.3862 57.714 65.6613 60.109 68.1045C62.504 70.5478 65.7509 71.971 69.1708 72.0756L88.5843 72.4116C90.2536 72.4371 91.9115 72.1271 93.4588 71.5C95.0061 70.8724 96.4115 69.9407 97.5919 68.7598C98.7723 67.5794 99.7034 66.1735 100.33 64.6256C100.956 63.0783 101.266 61.4204 101.239 59.7511L101.093 40.1371C101.059 36.7161 99.7034 33.4415 97.309 30.9983C94.9145 28.5556 91.6676 27.1341 88.2483 27.032L68.8348 26.6906C67.1655 26.665 65.5076 26.975 63.9603 27.6023C62.4129 28.2294 61.0076 29.161 59.8272 30.342C58.6467 31.5229 57.7156 32.9288 57.0891 34.4762C56.4626 36.024 56.1531 37.6819 56.1797 39.3512Z" fill="white" stroke="#564499"/>
<path d="M59.1658 44.2734L59.2687 58.4731C59.3007 61.4436 60.4801 64.2868 62.5602 66.4076C64.6397 68.5289 67.4591 69.764 70.428 69.8545L87.2888 70.1472C88.7386 70.1694 90.1786 69.9001 91.5221 69.3554C92.8662 68.8112 94.0873 68.0026 95.1133 66.9777C96.1392 65.9529 96.9489 64.7323 97.4947 63.3888C98.0405 62.0452 98.3114 60.6063 98.2909 59.156V58.1967C95.9224 53.3514 91.3102 46.0998 86.3674 50.4356C79.273 56.6683 76.0266 51.926 71.8913 45.8072C68.4389 40.6855 63.1872 36.9459 59.1658 44.2734Z" fill="white" stroke="#564499"/>
<path d="M90.8876 42.312C93.0295 40.8893 93.5812 37.9529 92.1201 35.7541C90.6595 33.5553 87.7388 32.9261 85.5969 34.3487C83.4555 35.772 82.9038 38.7078 84.365 40.9066C85.8256 43.1054 88.7463 43.7347 90.8876 42.312Z" fill="white" stroke="#564499"/>
<path d="M168.953 47.2868C165.92 47.2857 162.959 48.2239 160.48 49.9728C158.001 51.7212 156.123 54.1948 155.106 57.0532C154.089 59.9115 153.981 63.0149 154.798 65.9367C155.616 68.8584 157.317 71.4561 159.669 73.372L121.189 151.801C120.952 151.764 120.713 151.74 120.474 151.731C119.86 151.739 119.251 151.834 118.664 152.012L93.63 120.909C94.7475 119.366 95.3806 117.526 95.4483 115.622C95.5155 113.718 95.0142 111.837 94.0083 110.22C93.0024 108.602 91.538 107.321 89.8004 106.54C88.0634 105.758 86.1329 105.512 84.2549 105.831C82.3775 106.152 80.6378 107.024 79.2574 108.337C77.8775 109.65 76.9199 111.344 76.5069 113.204C76.0939 115.063 76.2446 117.004 76.9388 118.777C77.6331 120.551 78.8401 122.078 80.4058 123.163L62.8622 173.09C61.3327 173.181 59.8818 173.8 58.7561 174.839C57.631 175.879 56.8999 177.277 56.6885 178.795C56.4766 180.312 56.7964 181.857 57.5942 183.165C58.392 184.473 59.6179 185.465 61.0639 185.972C62.5104 186.479 64.087 186.469 65.527 185.945C66.9671 185.421 68.1811 184.415 68.9631 183.097C69.7452 181.779 70.0471 180.231 69.8168 178.716C69.587 177.201 68.8396 175.813 67.702 174.786L85.2457 124.854C85.4624 124.854 85.6738 124.887 85.8906 124.887C87.1951 124.887 88.4856 124.621 89.6844 124.106L114.713 155.199C114.185 156.156 113.906 157.229 113.9 158.321C113.874 159.207 114.027 160.088 114.348 160.913C114.669 161.739 115.153 162.491 115.77 163.126C116.387 163.761 117.126 164.266 117.942 164.611C118.758 164.956 119.634 165.134 120.52 165.134C121.406 165.134 122.282 164.956 123.098 164.611C123.914 164.266 124.653 163.761 125.27 163.126C125.887 162.491 126.371 161.739 126.691 160.913C127.013 160.088 127.166 159.207 127.14 158.321C127.136 156.848 126.636 155.42 125.72 154.267L164.2 75.838C166.223 76.5501 168.377 76.8108 170.511 76.6022C172.645 76.3935 174.708 75.7198 176.554 74.6294C178.401 73.5384 179.985 72.0566 181.198 70.2882C182.411 68.5197 183.221 66.5074 183.574 64.392C183.926 62.2767 183.811 60.1099 183.237 58.0439C182.662 55.9779 181.643 54.0626 180.249 52.4328C178.856 50.8026 177.123 49.4975 175.172 48.6081C173.22 47.7193 171.098 47.2684 168.953 47.2868Z" fill="white" stroke="#564499"/>
<path d="M215.455 75.5491H266.942" stroke="#564499" stroke-miterlimit="10"/>
<path d="M215.455 83.501H266.942" stroke="#564499" stroke-miterlimit="10"/>
<path d="M215.455 91.4462H266.942" stroke="#564499" stroke-miterlimit="10"/>
<path d="M215.455 99.3922H266.942" stroke="#564499" stroke-miterlimit="10"/>
<path d="M215.455 107.342H266.942" stroke="#564499" stroke-miterlimit="10"/>
<path d="M215.455 153.756H266.942" stroke="#564499" stroke-miterlimit="10"/>
<path d="M215.455 160.771H266.942" stroke="#564499" stroke-miterlimit="10"/>
<path d="M256.124 214.474C256.642 214.903 257.057 215.443 257.338 216.054C257.619 216.664 257.76 217.33 257.75 218.002L257.631 233.898C257.627 234.498 257.504 235.091 257.27 235.644C257.036 236.197 256.696 236.697 256.267 237.117C255.839 237.538 255.333 237.87 254.776 238.094C254.219 238.318 253.624 238.43 253.024 238.424L229.177 238.218C227.968 238.206 226.813 237.715 225.965 236.852C225.118 235.99 224.647 234.826 224.657 233.616L224.798 217.709C224.844 216.511 225.346 215.376 226.201 214.535C227.056 213.695 228.201 213.214 229.4 213.189L253.247 213.395C254.303 213.404 255.322 213.786 256.124 214.474Z" fill="white" stroke="#564499"/>
<path d="M252.753 217.38L241.632 226.935C241.49 227.056 241.31 227.122 241.123 227.122C240.936 227.122 240.755 227.056 240.613 226.935L229.291 217.18C229.166 217.074 229.077 216.933 229.037 216.774C228.997 216.616 229.008 216.449 229.068 216.296C229.128 216.145 229.234 216.015 229.371 215.926C229.509 215.838 229.67 215.795 229.833 215.803L252.277 216.004C252.434 216.009 252.587 216.062 252.713 216.155C252.841 216.249 252.936 216.379 252.988 216.528C253.04 216.677 253.045 216.838 253.003 216.991C252.961 217.142 252.874 217.278 252.753 217.38Z" fill="white" stroke="#564499"/>
<path d="M241.947 120.116C239.571 120.114 237.248 120.816 235.271 122.135C233.294 123.453 231.754 125.328 230.843 127.523C229.932 129.717 229.692 132.132 230.155 134.463C230.617 136.793 231.76 138.934 233.439 140.615C235.119 142.295 237.258 143.44 239.588 143.905C241.918 144.369 244.334 144.132 246.529 143.223C248.724 142.314 250.601 140.775 251.921 138.8C253.241 136.825 253.946 134.502 253.946 132.126C253.946 130.55 253.637 128.989 253.034 127.532C252.432 126.075 251.548 124.751 250.433 123.636C249.32 122.521 247.996 121.636 246.54 121.032C245.084 120.428 243.523 120.117 241.947 120.116ZM241.947 141.253C241.481 141.253 241.034 141.068 240.705 140.739C240.375 140.409 240.191 139.963 240.191 139.497C240.191 139.032 240.375 138.584 240.705 138.255C241.034 137.926 241.481 137.741 241.947 137.741C242.412 137.741 242.859 137.926 243.188 138.255C243.518 138.584 243.703 139.032 243.703 139.497C243.703 139.963 243.518 140.409 243.188 140.739C242.859 141.068 242.412 141.253 241.947 141.253ZM244.152 127.747C243.784 130.354 243.469 133.091 242.694 135.617C242.622 135.754 242.514 135.869 242.381 135.949C242.248 136.03 242.096 136.072 241.941 136.072C241.786 136.072 241.634 136.03 241.501 135.949C241.368 135.869 241.26 135.754 241.188 135.617C240.638 133.714 240.218 131.777 239.93 129.817C239.687 128.397 238.846 126.083 239.654 124.707C240.353 123.465 242.331 123.319 243.448 123.964C244.873 124.728 244.32 126.414 244.152 127.725V127.747Z" fill="white" stroke="#564499"/>
<path d="M241.947 141.253C241.481 141.253 241.034 141.068 240.705 140.739C240.375 140.409 240.191 139.963 240.191 139.497C240.191 139.032 240.375 138.584 240.705 138.255C241.034 137.926 241.481 137.741 241.947 137.741C242.412 137.741 242.859 137.926 243.188 138.255C243.518 138.584 243.703 139.032 243.703 139.497C243.703 139.963 243.518 140.409 243.188 140.739C242.859 141.068 242.412 141.253 241.947 141.253ZM244.152 127.747C243.784 130.354 243.469 133.091 242.694 135.617C242.622 135.754 242.514 135.869 242.381 135.949C242.248 136.03 242.096 136.072 241.941 136.072C241.786 136.072 241.634 136.03 241.501 135.949C241.368 135.869 241.26 135.754 241.188 135.617C240.638 133.714 240.218 131.777 239.93 129.817C239.687 128.397 238.846 126.083 239.654 124.707C240.353 123.465 242.331 123.319 243.448 123.964C244.873 124.728 244.32 126.414 244.152 127.725V127.747Z" fill="white" stroke="#564499"/>
<path d="M169.165 73.0462C175.121 73.0462 179.95 68.2178 179.95 62.261C179.95 56.3047 175.121 51.4757 169.165 51.4757C163.209 51.4757 158.38 56.3047 158.38 62.261C158.38 68.2178 163.209 73.0462 169.165 73.0462Z" fill="white"/>
<path d="M172.541 404.008C172.539 404.827 172.265 406.233 171.797 406.905C171.33 407.577 170.497 408.192 169.73 408.478L131.712 422.833C131.712 422.833 129.483 418.638 126.599 413.067L105.249 377.465C99.4231 407.437 93.3535 436.857 89.3266 455.56L85.4461 474.183L101.001 479.299C101.936 479.524 102.768 480.057 103.364 480.812C103.961 481.566 104.287 482.499 104.291 483.461C104.289 484.114 104.2 485.221 103.914 485.807C103.627 486.393 102.786 487.407 102.272 487.808C101.757 488.209 100.986 488.545 100.348 488.681C99.7097 488.817 99.0485 488.806 98.4155 488.649L62.529 479.302L62.5311 469.695L62.0437 469.511L62.7862 366.715C62.7862 366.715 62.8411 355.26 62.7671 352.371C62.693 349.482 60.7668 345.555 55.2106 347.926C49.6544 350.296 27.5579 358.384 27.5579 358.384C23.1408 359.761 18.4744 361.024 13.7051 362.048C13.6536 362.055 13.6032 362.066 13.5533 362.081C1.97729 365.115 -10.1141 365.637 -21.908 363.609C-22.011 363.609 -22.1302 363.56 -22.2278 363.539C-23.0841 363.376 -23.9404 363.186 -24.7805 362.997C-25.0352 362.948 -25.2845 362.899 -25.5392 362.829C-26.2763 362.661 -27.0134 362.444 -27.7505 362.243C-28.157 362.124 -28.558 362.027 -28.9428 361.907C-29.3276 361.788 -29.6149 361.691 -29.9509 361.571C-36.2985 359.578 -42.161 356.283 -47.164 351.897C-51.0001 348.676 -54.2525 344.819 -56.7786 340.494C-57.8626 338.781 -58.876 336.982 -59.8191 335.134C-65.5423 323.834 -66.2431 320.769 -66.2431 320.769C-69.9073 319.478 -72.7058 317.75 -76.104 315.867C-76.104 315.867 -83.1727 271.409 -66.8376 227.417C-67.1504 224.695 -67.094 221.944 -66.6696 219.238C-63.2281 194.557 -44.2861 169.187 -21.6858 158.911C-9.57812 153.405 10.166 144.955 3.78695 128.132C1.77081 122.81 -1.09081 118.225 -1.63279 112.702C-1.68156 112.16 -1.7466 111.678 -1.78454 111.142C-2.68964 98.1342 4.88173 85.7826 17.1412 81.333C21.1523 79.8225 25.4399 79.1862 29.7171 79.467C33.9944 79.7472 38.1622 80.9379 41.9419 82.9589C43.2475 83.6477 44.4187 84.5658 45.3997 85.6688C49.1285 85.7663 53.8111 86.4221 56.0115 87.4464C59.7403 89.1916 62.7266 92.2483 64.9595 95.6898C69.0785 102.105 70.7321 109.795 69.6151 117.336C68.9734 121.509 67.4867 125.508 65.2468 129.086C64.1422 130.879 62.8604 132.557 61.4204 134.094C60.1576 135.417 58.3637 137.346 56.6348 138.056C56.6543 138.071 56.6782 138.08 56.7026 138.08C56.7269 138.08 56.7513 138.071 56.7703 138.056L56.2663 146.115C66.618 143.757 94.2749 134.045 114.55 93.9447C116.013 90.8392 117.52 87.7499 119.103 84.6932C123.785 75.5935 128.804 66.5425 135.454 58.7164C137.08 56.8195 139.486 55.1069 142.072 55.9307C144.337 56.6515 145.865 59.1825 144.288 61.307L133.405 76.1788L136.879 75.729C137.258 75.8206 137.612 75.9934 137.917 76.2357C138.222 76.4785 138.471 76.7842 138.645 77.1327C138.819 77.4812 138.916 77.8633 138.927 78.2524C138.938 78.6421 138.865 79.029 138.711 79.3873C138.711 79.3873 136.172 84.5961 136.511 84.6119C136.85 84.6277 137.551 83.3871 137.551 83.3871C138.267 82.5416 139.282 82.0056 140.384 81.8912C141.486 81.7768 142.589 82.0928 143.463 82.773C144.338 83.4537 144.915 84.4455 145.075 85.5419C145.234 86.6378 144.965 87.7532 144.321 88.655L138.587 96.0638C137.819 97.0421 136.843 97.8382 135.73 98.3943L124.382 103.868C127.738 107.994 130.93 113.004 133.801 117.481C127.57 129.425 120.194 140.08 111.905 150.7C97.9332 168.699 77.8792 189.837 53.3169 198.248C52.7749 213.125 50.2246 227.102 46.1436 241.524C58.8854 241.524 70.1838 241.523 82.4758 241.523L91.8507 216.053C92.2767 214.886 93.6597 213.807 94.6776 213.095C95.6954 212.383 96.9078 212.002 98.15 212.003H135.194C135.838 212.005 136.477 212.13 137.075 212.371C137.982 212.746 138.759 213.382 139.306 214.198C139.853 215.014 140.146 215.974 140.148 216.956C140.141 217.559 140.133 218.579 139.918 219.142L137.208 226.187H137.127L126.487 226.187L123.637 234.202L129.015 234.202C129.834 234.202 130.639 234.404 131.361 234.79C132.082 235.177 132.696 235.735 133.15 236.417C133.603 237.098 133.881 237.88 133.958 238.695C134.036 239.51 134.056 240.714 133.74 241.468L129.296 252.144C127.955 255.349 125.565 258.648 122.848 260.814C120.131 262.981 116.898 264.64 113.474 265.235L113.003 265.316L112.258 266.786L112.707 265.897C112.561 266.249 112.409 266.363 112.258 266.786L124.718 266.881C123.558 270.921 120.845 276.606 115.504 276.685C110.162 276.764 92.1006 276.405 92.1006 276.405C93.4609 277.918 94.0201 278.405 95.6515 280.557C130.089 278.958 118.574 308.369 116.768 315.721C131.205 342.806 143.851 373.366 149.632 403.807L167.246 400.198C167.85 399.997 168.493 399.943 169.123 400.039C169.752 400.135 170.35 400.379 170.867 400.751C171.383 401.123 171.804 401.612 172.095 402.178C172.387 402.744 172.54 403.371 172.541 404.008Z" fill="white"/>
<path d="M112.258 266.786L113.003 265.316L113.474 265.235C116.898 264.64 120.131 262.981 122.848 260.814C125.565 258.648 127.955 255.349 129.296 252.144L133.74 241.468C134.056 240.714 134.036 239.51 133.958 238.695C133.881 237.88 133.603 237.098 133.15 236.417C132.696 235.735 132.082 235.177 131.361 234.79C130.639 234.404 129.834 234.202 129.015 234.202L123.637 234.202L126.487 226.187L137.127 226.187H137.208L139.918 219.142C140.133 218.579 140.141 217.559 140.148 216.956C140.146 215.974 139.853 215.014 139.306 214.198C138.759 213.382 137.982 212.746 137.075 212.371C136.477 212.13 135.838 212.005 135.194 212.003H98.15C96.9078 212.002 95.6954 212.383 94.6776 213.095C93.6597 213.807 92.2767 214.886 91.8507 216.053L82.4758 241.523C70.1838 241.523 58.8854 241.524 46.1436 241.524C50.2246 227.102 52.775 213.125 53.3169 198.248C77.8792 189.837 97.9332 168.699 111.905 150.7C120.194 140.08 127.57 129.425 133.801 117.481C130.93 113.004 127.738 107.994 124.382 103.868L135.73 98.3943C136.843 97.8382 137.819 97.0421 138.587 96.0638L144.321 88.655C144.965 87.7532 145.234 86.6378 145.075 85.5419C144.915 84.4455 144.338 83.4537 143.463 82.773C142.589 82.0928 141.486 81.7768 140.384 81.8912C139.282 82.0056 138.267 82.5416 137.551 83.3871C137.551 83.3871 136.85 84.6277 136.511 84.6119C136.172 84.5961 138.711 79.3873 138.711 79.3873C138.865 79.029 138.938 78.6421 138.927 78.2524C138.916 77.8633 138.819 77.4812 138.645 77.1327C138.471 76.7842 138.222 76.4785 137.917 76.2357C137.612 75.9934 137.258 75.8206 136.879 75.729L133.405 76.1788L144.288 61.307C145.865 59.1825 144.337 56.6515 142.072 55.9307C139.486 55.1069 137.08 56.8195 135.454 58.7164C128.804 66.5425 123.785 75.5935 119.103 84.6932C117.52 87.7499 116.013 90.8392 114.55 93.9447C94.2749 134.045 66.618 143.757 56.2663 146.115L56.7703 138.056C56.7513 138.071 56.7269 138.08 56.7026 138.08C56.6782 138.08 56.6543 138.071 56.6348 138.056C58.3637 137.346 60.1576 135.417 61.4204 134.094C62.8604 132.557 64.1422 130.879 65.2468 129.086C67.4867 125.508 68.9734 121.509 69.6151 117.336C70.7321 109.795 69.0785 102.105 64.9595 95.6899C62.7266 92.2483 59.7403 89.1916 56.0115 87.4464C53.8111 86.4221 49.1285 85.7663 45.3997 85.6688C44.4187 84.5658 43.2475 83.6477 41.9419 82.9589C38.1622 80.9379 33.9944 79.7472 29.7171 79.467C25.4399 79.1862 21.1523 79.8225 17.1412 81.333C4.88173 85.7826 -2.68963 98.1342 -1.78454 111.142C-1.7466 111.678 -1.68157 112.16 -1.63279 112.702C-1.09082 118.225 1.77081 122.81 3.78695 128.132C10.166 144.955 -9.57812 153.405 -21.6858 158.911C-44.2861 169.187 -63.2281 194.557 -66.6696 219.238C-67.094 221.944 -67.1504 224.695 -66.8376 227.417C-83.1727 271.409 -76.104 315.867 -76.104 315.867C-72.7058 317.75 -69.9073 319.478 -66.2431 320.769C-66.2431 320.769 -65.5423 323.834 -59.8191 335.134C-58.876 336.982 -57.8626 338.781 -56.7786 340.494C-54.2525 344.819 -51.0001 348.676 -47.164 351.897C-42.161 356.283 -36.2985 359.578 -29.9509 361.571C-29.6149 361.691 -29.3276 361.788 -28.9428 361.907C-28.558 362.027 -28.157 362.124 -27.7505 362.243C-27.0134 362.444 -26.2763 362.661 -25.5392 362.829C-25.2845 362.899 -25.0352 362.948 -24.7805 362.997C-23.9404 363.186 -23.0841 363.376 -22.2278 363.539C-22.1302 363.56 -22.011 363.609 -21.908 363.609C-10.1141 365.637 1.97729 365.115 13.5533 362.081C13.6032 362.066 13.6536 362.055 13.7051 362.048C18.4744 361.024 23.1408 359.761 27.5579 358.385C27.5579 358.385 49.6544 350.296 55.2106 347.926C60.7668 345.555 62.693 349.482 62.7671 352.371C62.8411 355.26 62.7862 366.715 62.7862 366.715L62.0437 469.511L62.5311 469.695L62.529 479.302L98.4155 488.649C99.0485 488.806 99.7097 488.817 100.348 488.681C100.986 488.545 101.757 488.209 102.272 487.808C102.786 487.407 103.627 486.393 103.914 485.807C104.2 485.221 104.289 484.114 104.291 483.461C104.287 482.499 103.961 481.566 103.364 480.812C102.768 480.057 101.936 479.524 101.001 479.299L85.4461 474.183L89.3266 455.56C93.3535 436.857 99.4231 407.437 105.249 377.465L126.599 413.067C129.483 418.638 131.712 422.833 131.712 422.833L169.73 408.478C170.497 408.192 171.33 407.577 171.797 406.905C172.265 406.233 172.539 404.827 172.541 404.008C172.54 403.371 172.387 402.744 172.095 402.178C171.804 401.612 171.383 401.123 170.867 400.751C170.35 400.379 169.752 400.135 169.123 400.039C168.493 399.943 167.85 399.997 167.246 400.198L149.632 403.807C143.851 373.366 131.205 342.806 116.768 315.721C118.574 308.369 130.089 278.958 95.6515 280.557C94.0201 278.405 93.4609 277.918 92.1006 276.405C92.1006 276.405 110.162 276.764 115.504 276.685C120.845 276.606 123.558 270.921 124.718 266.881L112.258 266.786ZM112.258 266.786L112.707 265.897C112.561 266.249 112.409 266.363 112.258 266.786Z" stroke="#564499"/>
<path d="M139.671 217.666C139.664 218.268 139.554 218.865 139.348 219.427L136.988 225.806H126.948L130.439 215.953C130.824 214.861 131.567 213.944 132.538 213.364C133.508 212.785 134.643 212.58 135.745 212.784C136.846 212.988 137.844 213.589 138.561 214.482C139.279 215.375 139.672 216.502 139.671 217.666Z" fill="white"/>
<path d="M114.886 225.807H97.8519" stroke="#564499" stroke-linecap="round" stroke-linejoin="round"/>
<path d="M112.789 232.224H95.7545" stroke="#564499" stroke-linecap="round" stroke-linejoin="round"/>
<path d="M116.252 315.721C123.863 295.469 122.057 279.216 95.4841 280.506C90.0264 273.292 84.8941 269.756 84.8941 269.756C84.8941 269.756 53.0447 274.536 38.593 276.482L37.5031 279.857C37.5031 279.857 32.2785 295.623 26.371 303.455C20.4635 311.286 4.57279 320.798 -18.3256 324.462C-41.224 328.126 -59.2338 323.611 -63.3636 321.313C-67.4934 319.015 -67.6289 321.232 -60.2364 335.795C-52.8439 350.357 -41.4624 360.828 -22.347 364.281C-10.5569 366.311 1.5318 365.79 13.1035 362.752C13.1035 362.752 32.5703 359.811 53.5202 349.728C61.3229 345.167 61.4654 351.545 61.4654 351.545L61.6155 470.193L85.0288 474.865L105.479 379.409L126.826 413.66L149.662 404.599C144.742 376.331 129.668 337.393 116.252 315.721Z" fill="#BBB4D6" stroke="#564499"/>
<path d="M27.4332 159.051C31.3143 159.293 35.1206 160.225 38.6738 161.805C41.7256 163.162 44.4252 165.202 46.5649 167.766C51.0145 173.143 52.4236 180.411 52.8084 187.397C52.9114 189.277 52.9602 191.191 52.9439 193.055C52.8626 209.596 50.1094 225.964 45.5894 241.968C59.6265 241.968 72.9428 241.968 86.5084 241.968H120.577L122.138 238.06L123.384 234.917H128.641C129.46 234.917 130.266 235.119 130.988 235.506C131.71 235.893 132.325 236.451 132.779 237.133C133.233 237.814 133.511 238.598 133.589 239.413C133.667 240.228 133.542 241.05 133.227 241.805L128.777 252.45C127.432 255.653 125.303 258.467 122.586 260.632C119.868 262.797 116.651 264.244 113.228 264.839L112.756 264.926L111.515 265.143C104.935 266.503 90.2263 268.872 75.8694 271.072C62.7374 273.104 49.8926 274.985 43.8171 275.858C41.5137 276.194 39.1615 276.443 36.7714 276.595C22.588 277.467 7.94386 274.313 4.15004 258.168C1.67864 247.827 2.22063 236.678 2.33444 225.915" stroke="#564499" stroke-miterlimit="10"/>
<path d="M98.5023 488.317L62.4557 479.185L63.0641 469.976L85.0018 474.871L100.551 479.993C101.641 480.252 102.586 480.929 103.183 481.877C103.78 482.825 103.981 483.97 103.743 485.065C103.624 485.629 103.391 486.163 103.06 486.634C102.73 487.106 102.306 487.506 101.817 487.809C101.327 488.113 100.781 488.315 100.211 488.402C99.6416 488.49 99.0606 488.46 98.5023 488.317Z" fill="white" stroke="#564499" stroke-miterlimit="10"/>
<path d="M84.6603 269.69C93.8738 277.494 100.653 288.263 106.848 298.457C125.961 331.063 141.368 364.269 149.231 404.468L166.834 400.853C167.833 400.528 168.92 400.607 169.861 401.074C170.803 401.54 171.525 402.355 171.872 403.347C172.22 404.338 172.166 405.426 171.721 406.378C171.277 407.33 170.479 408.07 169.495 408.441L131.747 422.532C131.747 422.532 120.702 401.899 105.266 377.548C82.6441 341.821 40.8417 286.757 29.8071 298.501" stroke="#564499" stroke-miterlimit="10"/>
<path d="M169.861 401.074C168.92 400.608 167.833 400.528 166.834 400.853L148.993 404.293L126.949 413.174L131.747 422.532L169.495 408.441C170.479 408.07 171.277 407.33 171.721 406.378C172.166 405.426 172.22 404.338 171.872 403.347C171.525 402.355 170.803 401.54 169.861 401.074Z" fill="white" stroke="#564499" stroke-miterlimit="10"/>
<path d="M51.7299 147.432C51.7299 147.432 88.7467 144.868 114.122 94.6325C114.122 94.6325 122.143 100.166 133.324 117.477C133.324 117.477 101.955 181.142 52.8084 197.943" stroke="#564499" stroke-miterlimit="10"/>
<path d="M47.9362 94.5518C47.5395 96.5669 46.5834 98.4302 45.1775 99.9282C43.6508 101.597 41.8737 103.018 39.9096 104.139C36.2133 106.34 32.0997 108.004 28.9942 110.974C25.8849 113.964 24.0238 118.02 23.7858 122.328C23.569 126.74 25.1462 131.308 26.1055 135.438C29.146 148.787 28.1704 161.616 26.4903 175.051C24.8969 187.728 21.5041 200.134 14.9246 211.168C7.16351 224.176 -5.57829 234.587 -19.9189 239.931C-31.8423 244.38 -55.0117 248.326 -63.7754 235.947C-65.2875 232.04 -65.3038 227.568 -64.7185 223.357C-61.2769 198.654 -42.3349 173.301 -19.7346 163.025C-7.62695 157.518 12.1171 149.058 5.73812 132.23C3.70572 126.924 0.860359 122.344 0.31839 116.8C0.269608 116.296 0.220818 115.792 0.172043 115.255C-0.738472 102.248 6.8329 89.9017 19.0923 85.4467C23.103 83.9319 27.3911 83.2934 31.6688 83.5742C35.9466 83.8544 40.1144 85.0473 43.8931 87.0726C45.2344 87.7864 46.4355 88.7375 47.4376 89.88C47.5064 89.9575 47.5682 90.041 47.6218 90.1293C47.6983 90.3212 47.7595 90.5185 47.8061 90.7201C48.1053 91.9758 48.1497 93.2788 47.9362 94.5518Z" fill="#2C0CAD" stroke="#564499"/>
<path d="M3.37507 128.793C1.35351 123.482 -1.50269 118.902 -2.04467 113.363C-2.09886 112.854 -2.14765 112.344 -2.18559 111.802C-3.10152 98.7949 4.47528 86.4541 16.7293 81.9937C20.741 80.4805 25.0296 79.8426 29.3085 80.1233C33.5869 80.4035 37.7557 81.5959 41.5354 83.6196C42.8736 84.3361 44.0708 85.2894 45.0691 86.4325L45.3238 86.7414C46.2089 87.8232 46.8522 89.0816 47.2099 90.4322C47.5681 91.7834 47.6326 93.1952 47.3996 94.5729C47.005 96.5825 46.055 98.4415 44.6572 99.9384C43.125 101.61 41.3447 103.036 39.3784 104.166C35.6821 106.366 31.574 108.019 28.4576 110.989C25.3467 113.987 23.4904 118.056 23.2655 122.371C23.0433 126.782 24.6259 131.346 25.5689 135.487C28.6094 148.835 27.6392 161.658 25.9591 175.089C24.3657 187.765 20.9784 200.176 14.388 211.211C6.62692 224.218 -6.10947 234.635 -20.4555 239.974C-32.612 244.504 -56.448 248.515 -64.8215 235.253C-67.6343 230.803 -67.8186 225.172 -67.0923 219.959C-63.6508 195.261 -44.698 169.896 -22.1085 159.626C-9.97916 154.055 9.76494 145.616 3.37507 128.793Z" stroke="#564499" stroke-miterlimit="10"/>
<path d="M49.9143 113.774C51.0785 113.774 52.0226 112.831 52.0226 111.666C52.0226 110.502 51.0785 109.558 49.9143 109.558C48.7501 109.558 47.806 110.502 47.806 111.666C47.806 112.831 48.7501 113.774 49.9143 113.774Z" fill="#564499"/>
<path d="M49.4212 104.871C49.4212 104.871 42.2834 108.09 44.5434 114.35" stroke="#564499" stroke-miterlimit="10"/>
<path d="M61.014 134.74C59.7133 136.089 57.8056 138.149 56.0171 138.799C52.7608 141.188 51.448 143.575 50.3738 145.604C49.2997 147.633 47.9869 150.139 52.4028 155.152C56.8187 160.165 64.9344 166.967 64.9344 176.277C64.9344 185.586 58.2991 191.247 53.0477 192.798C52.849 182.464 51.943 167.546 38.8676 161.868C38.527 159.601 37.832 154.132 37.7229 150.259C37.597 145.792 38.1974 143.294 39.308 140.013C40.9865 140.712 42.7848 141.081 44.6031 141.097C48.6896 141.075 51.9414 138.56 54.1093 135.347C54.5835 134.643 55.009 133.908 55.3829 133.146C56.4392 131.003 57.1471 128.705 57.4804 126.339C57.7568 124.312 56.9818 120.811 59.0684 119.591C59.8813 119.098 63.8106 118.67 62.3202 117.174C62.0465 116.928 61.7446 116.715 61.4205 116.54C60.0428 115.691 58.8868 114.526 58.0495 113.142C56.4073 110.4 56.1038 107.007 55.5618 103.657C55.4534 103.029 55.3504 102.411 55.2312 101.788C54.4562 98.2257 52.9094 94.8769 50.7003 91.9779C49.2337 90.0192 47.5335 88.2464 45.6383 86.699C49.0299 86.1527 52.5078 86.6438 55.616 88.1082C59.3448 89.8425 62.3202 92.8992 64.5531 96.3462C67.7784 101.307 69.5198 107.086 69.5723 113.003C69.6255 118.92 67.9871 124.73 64.8512 129.748C63.7375 131.533 62.4524 133.204 61.014 134.74Z" fill="#2C0CAD" stroke="#564499" stroke-miterlimit="10"/>
<path d="M39.308 140.013L31.78 134.718" stroke="#564499" stroke-miterlimit="10"/>
<path d="M52.0932 127.585C52.0932 127.585 47.1775 130.387 45.0475 123.938" stroke="#564499" stroke-miterlimit="10"/>
<path d="M132.589 76.6899C132.589 76.6899 124.526 84.8687 136.522 84.7519" stroke="#564499" stroke-miterlimit="10"/>
<path d="M140.122 217.314C140.115 217.942 140.005 218.565 139.797 219.152L137.052 225.806L126.642 225.806L130.149 215.527C130.537 214.387 131.285 213.431 132.262 212.826C133.238 212.222 135.063 212.008 136.172 212.221C137.28 212.434 138.284 213.061 139.006 213.992C139.728 214.923 140.123 216.099 140.122 217.314Z" stroke="#564499" stroke-miterlimit="10"/>
<path d="M-67.2333 228.094C-83.5738 272.086 -76.0838 315.807 -76.0838 315.807C-51.4023 329.54 -16.407 328.348 8.65925 316.278C17.5259 311.996 27.0864 305.547 30.9561 296.095C33.796 289.174 36.4016 283.651 38.8351 276.633" stroke="#564499" stroke-miterlimit="10"/>
<path d="M-81.3246 365.355H62.4773" stroke="#564499" stroke-miterlimit="10"/>
<path d="M45.6003 241.979L44.0502 247.22" stroke="#564499" stroke-miterlimit="10"/>
<path d="M241.86 46.8094C243.85 46.8094 245.464 45.1959 245.464 43.2052C245.464 41.2151 243.85 39.6011 241.86 39.6011C239.869 39.6011 238.256 41.2151 238.256 43.2052C238.256 45.1959 239.869 46.8094 241.86 46.8094Z" fill="white" stroke="#564499"/>
<path d="M231.795 59.5018C231.795 56.8326 232.856 54.2723 234.743 52.3851C236.631 50.4974 239.191 49.4373 241.86 49.4373C244.529 49.4373 247.089 50.4974 248.976 52.3851C250.864 54.2723 251.924 56.8326 251.924 59.5018H231.795Z" fill="white" stroke="#564499"/>
<path d="M1349.94 125.96C1347.68 120.784 1344.08 108.205 1349.8 108.205C1356.54 108.205 1362.1 129.001 1362.65 131.152L1362.7 131.331L1405.73 148.756C1407.14 149.325 1408.65 149.609 1410.17 149.59C1411.69 149.57 1413.19 149.249 1414.58 148.643C1415.98 148.038 1417.24 147.161 1418.29 146.064C1419.34 144.967 1420.17 143.671 1420.71 142.252L1440.96 89.9514L1376.61 65.0803L1335.13 49.0541L1311.82 110.427L1349.94 125.96Z" fill="white" stroke="#564499" stroke-miterlimit="10"/>
<path d="M1470.39 92.5844C1480.69 86.8557 1496.73 98.5461 1503.83 105.109C1512.12 112.74 1518.81 122.453 1523.95 132.452C1547.31 177.848 1559.58 231.855 1540.39 281.045C1533.93 297.698 1523.84 312.705 1510.87 324.983C1503.57 331.849 1488.56 338.326 1486.37 348.83C1485.9 351.438 1486.09 354.121 1486.91 356.639C1489.81 366.265 1498.57 372.936 1505.25 379.944C1537.37 413.66 1514.15 465.928 1479.81 488.453" stroke="#564499" stroke-miterlimit="10"/>
<path d="M1218.57 269.594C1228.59 258.944 1241.41 251.746 1254.29 245.123C1268.24 237.953 1281.97 230.734 1294.65 221.423C1302.37 215.766 1309.68 209.563 1316.51 202.86" stroke="#564499" stroke-miterlimit="10"/>
<path d="M1202.29 404.485C1189.48 371.386 1186.23 333.448 1199.59 300.388" stroke="#564499" stroke-miterlimit="10"/>
<path d="M1370.18 62.3319V26.8542C1370.18 24.4106 1369.21 22.0671 1367.48 20.3392C1365.75 18.6113 1363.41 17.6406 1360.97 17.6406H1243.48C1241.04 17.6406 1238.69 18.6113 1236.97 20.3392C1235.24 22.0671 1234.27 24.4106 1234.27 26.8542V193.685C1234.28 196.121 1235.25 198.455 1236.98 200.175C1238.71 201.894 1241.04 202.86 1243.48 202.86H1360.98C1362.12 202.869 1363.25 202.652 1364.31 202.221" stroke="#564499" stroke-linecap="round" stroke-linejoin="round"/>
<path d="M1357.24 23.2763H1247.23C1242.36 23.2763 1238.41 27.2243 1238.41 32.0941V188.437C1238.41 193.307 1242.36 197.255 1247.23 197.255H1357.24C1362.11 197.255 1366.05 193.307 1366.05 188.437V32.0941C1366.05 27.2243 1362.11 23.2763 1357.24 23.2763Z" fill="#BBB4D6" stroke="#564499"/>
<path d="M1355.52 36.7389H1250.34C1247.9 36.7389 1245.93 38.7139 1245.93 41.1506V64.8999C1245.93 67.3366 1247.9 69.3115 1250.34 69.3115H1355.52C1357.96 69.3115 1359.94 67.3366 1359.94 64.8999V41.1506C1359.94 38.7139 1357.96 36.7389 1355.52 36.7389Z" fill="white" stroke="#564499"/>
<path d="M1302.23 50.4632C1304.09 50.4632 1305.6 48.9538 1305.6 47.0921C1305.6 45.2305 1304.09 43.7211 1302.23 43.7211C1300.37 43.7211 1298.86 45.2305 1298.86 47.0921C1298.86 48.9538 1300.37 50.4632 1302.23 50.4632Z" fill="#BBB4D6" stroke="#564499"/>
<path d="M1292.82 62.3319C1292.82 59.835 1293.81 57.4406 1295.57 55.6748C1297.34 53.9096 1299.73 52.9178 1302.23 52.9178C1304.73 52.9178 1307.12 53.9096 1308.89 55.6748C1310.65 57.4406 1311.65 59.835 1311.65 62.3319H1292.82Z" fill="#BBB4D6" stroke="#564499"/>
<path d="M1302.92 104.221C1299.33 104.219 1295.82 105.282 1292.83 107.276C1289.84 109.271 1287.51 112.106 1286.14 115.424C1284.76 118.742 1284.4 122.393 1285.1 125.916C1285.8 129.44 1287.53 132.676 1290.07 135.215C1292.61 137.755 1295.85 139.485 1299.37 140.185C1302.89 140.885 1306.54 140.525 1309.86 139.149C1313.18 137.774 1316.02 135.445 1318.01 132.457C1320 129.47 1321.07 125.958 1321.06 122.366C1321.06 117.554 1319.15 112.94 1315.75 109.537C1312.35 106.135 1307.73 104.222 1302.92 104.221ZM1302.92 136.132C1302.22 136.132 1301.54 135.853 1301.05 135.356C1300.55 134.859 1300.27 134.185 1300.27 133.482C1300.27 132.779 1300.55 132.105 1301.05 131.608C1301.54 131.111 1302.22 130.832 1302.92 130.832C1303.62 130.832 1304.3 131.111 1304.79 131.608C1305.29 132.105 1305.57 132.779 1305.57 133.482C1305.57 134.185 1305.29 134.859 1304.79 135.356C1304.3 135.853 1303.62 136.132 1302.92 136.132ZM1306.28 115.727C1305.71 119.662 1305.23 123.808 1304.07 127.651C1303.79 128.561 1302.06 128.561 1301.78 127.651C1300.95 124.773 1300.31 121.843 1299.87 118.881C1299.52 116.714 1298.25 113.245 1299.47 111.142C1300.52 109.278 1303.5 109.045 1305.23 110.02C1307.36 111.24 1306.55 113.771 1306.28 115.727Z" fill="white" stroke="#564499"/>
<path d="M1302.92 136.131C1304.38 136.131 1305.57 134.944 1305.57 133.481C1305.57 132.017 1304.38 130.83 1302.92 130.83C1301.46 130.83 1300.27 132.017 1300.27 133.481C1300.27 134.944 1301.46 136.131 1302.92 136.131Z" fill="white" stroke="#564499"/>
<path d="M1306.28 115.727C1305.71 119.661 1305.23 123.807 1304.07 127.65C1303.79 128.561 1302.06 128.561 1301.78 127.65C1300.95 124.773 1300.32 121.843 1299.87 118.881C1299.52 116.713 1298.25 113.244 1299.47 111.142C1300.52 109.277 1303.51 109.044 1305.23 110.02C1307.36 111.239 1306.55 113.77 1306.28 115.727Z" fill="white" stroke="#564499"/>
<path d="M1257.33 83.8586H1345.97" stroke="#564499" stroke-miterlimit="10"/>
<path d="M1257.33 92.579H1345.97" stroke="#564499" stroke-miterlimit="10"/>
<path d="M1257.33 148.771L1344.03 148.771" stroke="#564499" stroke-miterlimit="10"/>
<path d="M1335.13 49.0541L1368.48 61.9422L1440.95 89.8324L1438.75 95.8241L1337.51 56.7663L1316.39 112.269L1311.84 110.427C1310.34 109.815 1335.13 49.0541 1335.13 49.0541Z" fill="white" stroke="#564499"/>
<path d="M1277.92 157.025H1325.38" stroke="#564499" stroke-miterlimit="10"/>
<path d="M1500.38 290.079C1494.73 279.495 1500.56 225.286 1500.99 220.56C1510.13 121.325 1476.58 92.6368 1469.56 85.1359C1468.39 83.9434 1463.75 78.3161 1461.54 75.921C1462.87 82.2191 1463.69 93.8657 1438.49 95.7364L1422.5 137.671C1465.84 114.881 1481.06 152.136 1481.06 152.136C1481.06 152.136 1479.4 172.253 1455.88 189.641C1429.65 210.523 1393.37 191.02 1381.59 182.189L1381.78 186.622L1381.88 199.087C1381.54 208.588 1377.28 219.33 1373.82 227.113C1371.79 231.652 1378.58 235.126 1381.71 236.734L1381.78 236.765C1398.62 245.388 1412.89 258.184 1429.04 267.907C1445.19 277.63 1462.44 285.624 1480.87 289.96C1482.1 290.242 1502.43 293.911 1500.38 290.079Z" fill="#BBB4D6" stroke="#564499"/>
<path d="M1415.79 80.2214C1419.5 77.4942 1423.67 75.4347 1428.09 74.1351" stroke="#564499" stroke-miterlimit="10"/>
<path d="M1399.31 265.198L1369.5 372.964L1342.4 470.963L1325.15 472.589C1321.19 472.954 1317.51 474.783 1314.83 477.717C1312.16 480.651 1310.67 484.48 1310.66 488.453H1364.03L1402.69 421.833L1431.44 372.27L1476.39 294.768C1477.69 292.508 1478.95 290.248 1480.18 287.939C1480.2 287.912 1480.22 287.88 1480.22 287.847" stroke="#564499" stroke-miterlimit="10"/>
<path d="M1431.44 372.269L1473.35 488.452H1412.87C1412.87 484.677 1414.24 481.031 1416.73 478.191C1419.21 475.351 1422.65 473.511 1426.39 473.011L1439.55 471.25C1439.55 471.25 1421.85 447.945 1402.7 421.827" stroke="#564499" stroke-miterlimit="10"/>
<path d="M1438.87 95.3587L1420.71 142.272C1420.16 143.688 1419.33 144.981 1418.28 146.076C1417.23 147.17 1415.97 148.044 1414.57 148.647C1413.18 149.25 1411.68 149.569 1410.16 149.586C1408.64 149.604 1407.13 149.319 1405.73 148.749L1362.69 131.33C1362.67 131.271 1362.65 131.211 1362.64 131.151C1362.1 128.983 1356.54 108.203 1349.79 108.203C1344.62 108.203 1347.09 118.452 1349.25 124.251C1349.5 124.875 1349.74 125.46 1349.95 125.959L1349.61 125.818L1315.92 112.084L1337.17 56.0656L1378.65 72.0918L1438.87 95.3587Z" fill="#BBB4D6" stroke="#564499"/>
<path d="M1483.53 125.298C1485.47 152.105 1479.79 176.563 1451.12 193.5C1408.7 218.582 1352.56 161.756 1331.77 134.181C1328.34 129.652 1325.44 124.742 1323.13 119.548C1322.43 118.036 1321.37 115.731 1320.91 114.132" stroke="#564499" stroke-miterlimit="10"/>
<path d="M1331.43 133.899C1352.21 161.475 1408.35 218.301 1450.77 193.218C1469.26 182.299 1478.19 168.255 1481.68 152.47C1481.68 152.47 1473.32 133.527 1454.98 130.05C1436.63 126.574 1421.7 138.093 1421.7 138.093L1419.89 142.501C1419.89 142.501 1416.37 152.336 1404.31 147.367C1392.25 142.397 1362.99 130.846 1362.99 130.846L1360.67 123.464C1360.67 123.464 1356.72 107.345 1349.24 107.247C1341.77 107.149 1348.79 124.871 1348.79 124.871C1343.86 122.531 1320.09 113.089 1320.09 113.089C1321.05 115.62 1321.71 116.95 1322.78 119.266C1325.38 124.434 1327.99 129.37 1331.43 133.899Z" fill="white" stroke="#564499" stroke-miterlimit="10"/>
<path d="M1375.12 225.335C1359.72 254.206 1337.21 300.523 1349.5 333.99C1353.68 345.371 1360.88 358.92 1369.5 372.968" stroke="#564499" stroke-miterlimit="10"/>
<path d="M1456.04 44.4848C1456.68 47.495 1455.17 51.1299 1453.26 53.3845C1451.2 55.8126 1448.26 57.3236 1445.09 57.5843C1443.06 57.7604 1441.02 57.4038 1439.17 56.5491C1438.64 56.3242 1438.13 56.0543 1437.64 55.7416C1437.45 55.6039 1437.28 55.4202 1437.17 55.2066C1437.06 54.9925 1437 54.7552 1437 54.514C1437 54.2728 1437.06 54.0354 1437.17 53.8219C1437.28 53.6078 1437.45 53.4241 1437.64 53.2864C1439.97 51.6063 1442.1 49.265 1442.71 46.5226C1442.89 45.6793 1442.91 44.8083 1442.75 43.959C1442.59 42.8767 1442.14 41.8573 1441.46 41.0015C1440.78 40.1457 1439.88 39.4834 1438.86 39.0813C1438.54 38.987 1438.21 38.9339 1437.88 38.9241C1436.94 38.8482 1435.71 38.9675 1435.47 39.6612C1436.67 36.2982 1436.72 32.6334 1435.61 29.239C1434.92 27.139 1433.77 25.224 1432.22 23.6406C1432.29 24.254 1432.23 24.8754 1432.03 25.4605C1431.83 26.0455 1431.51 26.5798 1431.08 27.0254C1430.65 27.471 1430.13 27.8169 1429.56 28.0386C1428.98 28.2597 1428.36 28.3513 1427.75 28.3068C1422.97 28.1443 1422.07 23.5917 1422.07 23.5917C1422.07 23.5917 1422.07 23.646 1422.07 23.6785C1419.99 28.8651 1413.94 29.006 1409.61 26.7027C1408.07 25.9138 1406.72 24.805 1405.65 23.4508C1404.42 18.1341 1408.8 12.9962 1413.86 12.2591C1413.96 8.8772 1416.43 5.25676 1419.76 4.98036C1420.92 4.88128 1422.08 5.09504 1423.13 5.59929C1424.18 6.1036 1425.07 6.87992 1425.72 7.8474C1425.81 7.99373 1425.92 8.1509 1426 8.3135C1427.36 6.34071 1429.58 4.17824 1431.96 3.97771C1433.6 3.86216 1435.25 4.25563 1436.66 5.1049C1438.08 5.95417 1439.87 8.72539 1439.87 8.72539C1439.87 8.72539 1441.96 7.53847 1442.17 7.45176C1444.12 6.71088 1446.26 6.6395 1448.25 7.24884C1450.25 7.85818 1452.46 8.55191 1453.18 10.8174C1453.35 11.3594 1453.38 11.769 1453.42 12.2537C1453.54 13.7032 1453.32 15.1605 1452.77 16.5081C1453.54 16.7278 1454.26 17.096 1454.89 17.5921C1456.25 18.5889 1457.16 20.0827 1457.43 21.749C1457.46 21.917 1457.47 22.085 1457.49 22.2531C1457.59 23.523 1457.32 24.7964 1456.7 25.9114C1458.31 26.3692 1459.76 27.2375 1460.93 28.4304C1462.09 29.6233 1462.93 31.0996 1463.34 32.7131C1463.48 33.2469 1463.57 33.7911 1463.61 34.339C1463.79 36.6614 1463.13 38.9713 1461.73 40.8384C1460.34 42.7049 1458.32 44.0013 1456.04 44.4848Z" fill="#2C0CAD" stroke="#564499"/>
<path d="M1413.92 33.6225C1413.92 33.6225 1420.79 33.7201 1422.37 39.5192" stroke="#564499" stroke-miterlimit="10"/>
<path d="M1412.15 50.9998C1410.59 51.3857 1408.96 51.4648 1407.37 51.2328C1407.07 51.1814 1406.79 51.0583 1406.54 50.874C1406.3 50.6892 1406.11 50.4491 1405.98 50.1738C1405.85 49.8985 1405.79 49.5961 1405.81 49.2926C1405.82 48.9891 1405.91 48.6932 1406.06 48.4308C1407.49 46.0082 1408.97 43.6127 1410.57 41.3093C1410.82 41.0161 1410.98 40.653 1411.02 40.2687C1411.02 40.2687 1410.36 33.0984 1411.8 27.5973" stroke="#564499" stroke-miterlimit="10"/>
<path d="M1417.56 39.7251C1417.7 38.5696 1417.02 37.5328 1416.04 37.4093C1415.06 37.2857 1414.14 38.122 1414 39.2769C1413.85 40.4324 1414.53 41.4692 1415.51 41.5928C1416.5 41.7163 1417.41 40.8801 1417.56 39.7251Z" fill="#564499"/>
<path d="M1450.03 56.0612C1450.17 57.4975 1451.56 61.1516 1454.77 66.6162C1457.98 72.0808 1459.46 73.0918 1461.53 76.0024" stroke="#564499" stroke-linecap="round" stroke-linejoin="round"/>
<path d="M1426.78 66.5751L1428.81 81.0024" stroke="#564499" stroke-miterlimit="10"/>
<path d="M1409.67 51.3618C1409.67 51.3618 1412.6 65.6483 1419.83 67.8107C1427.05 69.9732 1433.32 60.9602 1433.32 60.9602" stroke="#564499" stroke-linecap="round" stroke-linejoin="round"/>
<path d="M1411.64 57.8059C1412.6 58.3668 1413.68 58.6795 1414.8 58.7153C1415.91 58.751 1417.01 58.5093 1418 58.0118" stroke="#564499" stroke-linecap="round" stroke-linejoin="round"/>
<path d="M1425.21 7.66233C1425.12 6.5541 1424.75 5.48744 1424.12 4.56766C1423.33 3.34887 1422.15 2.43147 1420.77 1.96217C1419.39 1.49282 1417.9 1.49857 1416.53 1.97859C1415.15 2.45857 1413.98 3.38502 1413.2 4.60993C1412.41 5.83479 1412.06 7.28733 1412.2 8.73543" stroke="#564499" stroke-miterlimit="10" stroke-linecap="round"/>
<path d="M1422.41 17.5274C1422.27 15.9618 1421.76 14.453 1420.91 13.1311C1420.06 11.8092 1418.9 10.7139 1417.53 9.93981C1410.64 6.08637 1401.81 13.571 1404.28 20.9852C1405.15 23.565 1407.21 25.4402 1409.56 26.6868C1413.9 28.9902 1419.97 28.8547 1422.03 23.6626L1422.06 23.5813C1422.06 23.5813 1422.96 28.1285 1427.74 28.2965C1428.35 28.3399 1428.97 28.2472 1429.55 28.0255C1430.12 27.8033 1430.65 27.457 1431.07 27.0113C1431.5 26.5656 1431.83 26.0312 1432.03 25.4459C1432.22 24.8607 1432.29 24.2389 1432.22 23.6246C1436.33 27.8521 1437.41 34.1715 1435.48 39.6509C1435.83 38.6645 1438.19 38.8433 1438.87 39.0709C1441.81 40.0953 1443.37 43.5693 1442.72 46.5177C1442.11 49.2763 1439.98 51.6068 1437.66 53.2977C1437.46 53.4349 1437.3 53.6181 1437.19 53.8311C1437.08 54.0446 1437.02 54.282 1437.02 54.5226C1437.02 54.7632 1437.08 55.0006 1437.19 55.2136C1437.3 55.4272 1437.46 55.6103 1437.66 55.7475C1439.87 57.1669 1442.49 57.8151 1445.1 57.5902C1448.27 57.3289 1451.21 55.819 1453.27 53.3921C1455.33 50.9651 1456.34 47.82 1456.08 44.6479L1456.05 44.4961C1458.14 44.0576 1460.03 42.9309 1461.41 41.2952C1462.79 39.6595 1463.58 37.6092 1463.66 35.4717C1463.73 33.3342 1463.09 31.2313 1461.84 29.4997C1460.58 27.7682 1458.78 26.507 1456.73 25.9172C1457.34 24.8022 1457.62 23.5287 1457.51 22.2589C1457.36 20.5361 1456.53 18.9423 1455.21 17.8254C1453.89 16.7084 1452.18 16.159 1450.46 16.2972" stroke="#564499" stroke-linecap="round" stroke-linejoin="round"/>
<path d="M1424.93 4.3072C1426.23 2.13931 1427.67 0.925288 1430.35 0.703079C1432.01 0.567098 1433.68 0.954771 1435.11 1.81185C1436.55 2.66893 1437.67 3.95259 1438.34 5.48329C1438.25 5.27192 1440.43 4.28011 1440.65 4.19339C1441.52 3.86127 1442.43 3.66036 1443.36 3.59722C1445.84 3.46406 1448.27 4.2917 1450.15 5.90738C1452.03 7.52311 1453.21 9.80206 1453.45 12.2688C1453.57 13.7183 1453.34 15.1756 1452.8 16.5233" stroke="#564499" stroke-linecap="square" stroke-linejoin="round"/>
<path d="M1311.97 247.084C1311.92 234.775 1324.01 231.464 1329.81 231.572C1365.71 232.255 1371.04 174.293 1371.04 174.293" stroke="#564499" stroke-linecap="round" stroke-linejoin="round"/>
<path d="M1257.07 260.358H1228.89" stroke="#564499" stroke-linecap="round" stroke-linejoin="round"/>
<path d="M1358.03 260.358H1304.11" stroke="#564499" stroke-linecap="round" stroke-linejoin="round"/>
<path d="M1296.38 260.358H1264.55" stroke="#564499" stroke-linecap="round" stroke-linejoin="round"/>
<path d="M1295.56 247.084H1264.09" stroke="#564499" stroke-linecap="round" stroke-linejoin="round"/>
<path d="M1320.64 247.084H1303.65" stroke="#564499" stroke-linecap="round" stroke-linejoin="round"/>
<path d="M1363.83 247.084H1331.01" stroke="#564499" stroke-linecap="round" stroke-linejoin="round"/>
<path d="M1256.22 247.084H1250.66" stroke="#564499" stroke-linecap="round" stroke-linejoin="round"/>
<path d="M1294.52 245.892H1301.8C1301.8 245.892 1310.14 253.767 1301.8 262.78V269.078H1294.52" stroke="#564499" stroke-linecap="round" stroke-linejoin="round"/>
<path d="M1262.47 245.892C1262.47 245.892 1270.81 253.767 1262.47 262.78V269.078" stroke="#564499" stroke-linecap="round" stroke-linejoin="round"/>
<path d="M1262.47 269.078H1255.19V262.78C1263.53 253.767 1255.19 245.892 1255.19 245.892H1262.47" stroke="#564499" stroke-linecap="round" stroke-linejoin="round"/>
<path d="M1294.52 245.892C1294.52 245.892 1302.87 253.767 1294.52 262.78V269.078" stroke="#564499" stroke-linecap="round" stroke-linejoin="round"/>
<path d="M1255.19 262.78H1262.47" stroke="#564499" stroke-linecap="round" stroke-linejoin="round"/>
<path d="M1294.52 262.78H1301.8" stroke="#564499" stroke-linecap="round" stroke-linejoin="round"/>
<path d="M1322.58 243.063C1321.65 244.249 1320.99 245.62 1320.64 247.085C1320.18 249.248 1320 251.462 1320.12 253.67C1320.15 255.838 1320.43 258.06 1322.49 259.198C1325.58 260.927 1329.3 258.455 1329.46 254.911C1329.64 252.247 1330.16 249.616 1331.01 247.085C1331.04 246.96 1331.08 246.852 1331.11 246.749" stroke="#564499" stroke-linecap="round" stroke-linejoin="round"/>
<path d="M1331.11 246.732C1333.69 246.191 1337.54 244.776 1339.49 241.128" stroke="#564499" stroke-linecap="round" stroke-linejoin="round"/>
<path d="M1313.51 260.358C1313.51 260.358 1315.54 265.702 1320.64 266.352C1325.74 267.003 1322.51 260.358 1322.51 260.358C1322.51 260.358 1324.63 265.041 1327.18 265.198C1329.74 265.355 1331.95 263.03 1331.07 260.358C1331.07 260.358 1331.85 264.656 1335.63 264.185C1339.42 263.713 1337.86 260.358 1337.86 260.358" stroke="#564499" stroke-linecap="round" stroke-linejoin="round"/>
<g opacity="0.54">
<path opacity="0.54" d="M1255.36 336.457H1255.33C1255.33 336.457 1255.29 336.24 1255.24 335.828C1255.28 335.995 1255.32 336.165 1255.33 336.338C1255.36 336.381 1255.36 336.43 1255.36 336.457Z" fill="#3FBDF1" stroke="#564499"/>
</g>
<path d="M1289.43 333.91C1290.69 326.881 1301.11 322.713 1303.05 315.857C1304.26 311.613 1303.17 306.719 1303.61 302.351C1304.13 297.414 1305.12 292.537 1306.57 287.788C1291.23 286.867 1275.64 293.869 1270.68 303.928C1268.23 308.871 1268.15 314.323 1267.07 319.537V319.9H1267.05C1266.31 323.195 1265.17 326.344 1262.72 329.227C1260.46 331.894 1257.22 334.1 1254.38 336.501C1254.55 337.648 1254.24 342.15 1254.32 344.765C1254.4 347.38 1252.44 352.202 1253.99 362.254C1255.55 372.305 1256.28 369.363 1256.2 374.43C1256.13 378.484 1252.5 386.054 1250.7 389.332C1253.1 393.332 1256.03 397.039 1258.6 399.147C1258.88 399.077 1259.16 398.979 1259.42 398.909C1259.88 398.773 1260.31 398.618 1260.75 398.457L1260.85 398.421C1268.63 395.635 1274.45 390.378 1276.22 384.487C1277.75 379.3 1276.37 373.713 1279.32 368.835C1282.96 362.824 1292.85 359.068 1294.06 352.278C1295.19 345.953 1288.31 340.137 1289.43 333.91Z" fill="#BBB4D6"/>
<path d="M1268.07 319.491C1268.07 319.611 1268.02 319.73 1267.99 319.855C1267.27 323.15 1266.13 326.299 1263.66 329.182C1261.4 331.848 1257.16 333.839 1254.33 336.235C1254.33 336.235 1254.33 336.159 1254.3 336.137C1254.28 335.965 1254.25 335.794 1254.2 335.628C1254.2 335.481 1254.16 335.335 1254.13 335.14C1254.13 335.048 1254.13 334.923 1254.09 334.804C1253.71 333.076 1254.07 331.637 1253.19 330.103C1250.33 325.182 1244.8 321.67 1241.49 316.971C1241.49 316.971 1242.99 292.203 1255.66 284.664C1267.7 277.537 1268.07 315.367 1268.07 319.491Z" fill="#BBB4D6"/>
<path d="M1255.33 336.359V336.478C1255.33 336.478 1255.29 336.261 1255.24 335.849C1255.28 336.016 1255.32 336.186 1255.33 336.359Z" fill="#3FBDF1" stroke="#564499"/>
<path d="M1254.21 336.484C1257.03 334.078 1260.3 331.845 1262.57 329.184C1268.92 321.683 1266.48 312.101 1270.55 303.879C1275.51 293.831 1291.15 286.828 1306.45 287.75C1304.99 292.496 1304 297.373 1303.48 302.313C1303.03 306.708 1304.12 311.607 1302.94 315.862C1300.99 322.712 1290.58 326.869 1289.31 333.904C1288.19 340.126 1295.09 345.941 1293.94 352.266C1292.73 359.057 1282.85 362.808 1279.21 368.818C1276.24 373.696 1277.64 379.284 1276.1 384.481C1274.23 390.746 1267.77 396.285 1259.3 398.892C1259.03 398.984 1258.75 399.076 1258.46 399.147C1255.89 397.039 1252.96 393.337 1250.55 389.332" stroke="#564499" stroke-miterlimit="10"/>
<path d="M1297.09 295.629C1274.22 320.24 1263.49 372.134 1259.29 398.902C1258.94 401.162 1258.64 403.238 1258.37 405.091" stroke="#564499" stroke-miterlimit="10"/>
<path d="M1299.2 420.164L1288.66 482.242C1288.41 483.944 1287.57 485.502 1286.28 486.639C1284.99 487.777 1283.33 488.42 1281.61 488.453H1226.68C1224.95 488.415 1223.28 487.758 1221.99 486.601C1220.7 485.444 1219.86 483.863 1219.63 482.144L1209.93 420.164H1299.2Z" stroke="#564499" stroke-miterlimit="10"/>
<path d="M1309.19 413.249C1308.89 417.162 1305.79 420.175 1302.07 420.175H1207.23C1203.55 420.175 1200.48 417.227 1200.12 413.357C1199.72 408.935 1203.02 405.103 1207.23 405.103H1302.07C1306.25 405.103 1309.53 408.859 1309.19 413.249Z" stroke="#564499" stroke-miterlimit="10"/>
<path d="M1244.34 398.046C1248.41 394.002 1253.39 385.006 1255.61 377.651C1257.42 371.586 1254.22 365.348 1253.49 359.132C1252.34 349.376 1257.18 338.922 1252.08 330.098C1249.24 325.177 1243.71 321.676 1240.39 316.961C1234.28 308.289 1236.63 297.179 1232.72 287.656C1227.96 275.999 1212.96 267.896 1198.23 268.953C1199.63 274.49 1200.59 280.132 1201.08 285.825C1201.52 290.914 1200.47 296.583 1201.62 301.542C1203.49 309.493 1213.48 314.305 1214.71 322.451C1215.79 329.654 1209.17 336.391 1210.26 343.724C1211.43 351.588 1220.91 355.934 1224.41 362.899C1227.26 368.557 1225.93 375.039 1227.41 381.044C1229.26 388.545 1235.82 395.135 1244.34 398.046Z" stroke="#564499" stroke-miterlimit="10"/>
<path d="M1207.22 278.091C1229.17 306.598 1239.5 366.703 1243.53 397.731C1243.88 400.441 1244.19 402.885 1244.43 405.091" stroke="#564499" stroke-miterlimit="10"/>
<path d="M1240.39 316.962C1240.39 316.962 1241.9 292.194 1254.56 284.66C1267.23 277.127 1266.98 319.357 1266.98 319.357" stroke="#564499" stroke-miterlimit="10"/>
<path d="M1254.21 336.483C1254.21 336.483 1251.62 322.311 1256.15 308.382" stroke="#564499" stroke-miterlimit="10"/>
<path d="M1545.73 260.358H1498.32" stroke="#564499" stroke-linecap="round" stroke-linejoin="round"/>
<path d="M1546.5 247.084H1499.84" stroke="#564499" stroke-linecap="round" stroke-linejoin="round"/>
<path d="M1213.78 488.453H1515.75" stroke="#564499" stroke-miterlimit="10"/>
</svg>
