<svg width="83" height="29" viewBox="0 0 83 29" fill="none" xmlns="http://www.w3.org/2000/svg">
<path d="M76.2966 10.1014C76.0851 8.73228 75.5416 7.62514 74.6661 6.77964C73.7903 5.93413 72.628 5.5112 71.1786 5.5112C69.7292 5.5112 68.5588 5.92726 67.6682 6.75957C66.7773 7.59169 66.1963 8.70552 65.924 10.1014H76.2966ZM24.3201 1.0018H31.1786V4.08872C31.5695 3.62546 31.9981 3.18951 32.4643 2.76657C32.9303 2.3507 33.4495 1.98147 34.0207 1.65275C34.5925 1.33034 35.2316 1.07557 35.9383 0.881015C36.6451 0.692961 37.4349 0.599121 38.307 0.599121C39.9014 0.599121 41.2772 0.894202 42.4353 1.49144C43.5935 2.08887 44.4884 2.93419 45.1202 4.0484C46.1727 2.90781 47.3458 2.05523 48.6392 1.47137C49.9323 0.887511 51.4067 0.599121 53.0609 0.599121C55.6175 0.599121 57.6177 1.27032 59.0617 2.61216C59.9615 3.44911 60.5814 4.53135 60.9199 5.8587C61.3765 5.14718 61.9123 4.49437 62.5275 3.90066C63.5843 2.88067 64.8451 2.0755 66.3096 1.48494C67.7739 0.894209 69.3969 0.599121 71.1786 0.599121C73.2015 0.599121 74.953 0.921341 76.4324 1.56541C77.9123 2.20948 79.1426 3.07541 80.124 4.16249C81.1053 5.24975 81.8297 6.49775 82.2981 7.90723C82.7662 9.31652 83 10.786 83 12.3163C83 12.5577 82.9926 12.8126 82.9775 13.0813C82.9625 13.3495 82.9396 13.6314 82.9091 13.9266H66.0151C66.347 15.3224 67.0339 16.3762 68.0759 17.0873C69.1176 17.7988 70.4085 18.1545 71.9483 18.1545C73.0959 18.1545 74.1226 17.9798 75.0287 17.6309C75.9344 17.2819 76.8704 16.7183 77.8365 15.9399L81.7771 19.0402C80.6294 20.3017 79.2406 21.2883 77.6098 21.9996C75.9797 22.7107 74.062 23.0664 71.858 23.0664C70.046 23.0664 68.3626 22.7981 66.8076 22.2612C65.2524 21.7244 63.9088 20.9593 62.7765 19.9663C62.1942 19.4553 61.6778 18.8969 61.2269 18.2902V22.5833H54.3693V10.5712C54.3693 9.12827 54.0235 8.03451 53.3318 7.3031C52.6398 6.56501 51.6473 6.19596 50.3536 6.19596C49.0603 6.19596 48.0451 6.56501 47.3083 7.3031C46.571 8.03451 46.203 9.12827 46.203 10.5712V22.5833H39.345V10.5712C39.345 9.12827 38.999 8.03451 38.307 7.3031C37.6153 6.56501 36.6228 6.19596 35.3295 6.19596C34.0362 6.19596 33.0208 6.56501 32.2838 7.3031C31.5469 8.03451 31.1786 9.12827 31.1786 10.5712V22.5833C27.6873 22.5833 24.1958 22.5833 20.7048 22.5833V28.6242H14.7833V22.5833H0.00983563L0 18.151L15.3682 1.0018H20.7048V17.5065H24.3201V1.0018ZM14.7833 17.5065V8.72504L7.291 17.5065H14.7833Z" fill="#FEFEFE"/>
</svg>
