<svg width="1649" height="490" viewBox="0 0 1649 490" fill="none" xmlns="http://www.w3.org/2000/svg">
<path d="M288.616 342.601C284.036 347.219 279.5 352.357 274.666 357.023C273.336 358.321 271.976 359.574 270.585 360.785C269.04 362.129 267.447 363.408 265.815 364.578C265.697 364.237 265.552 363.906 265.382 363.587C262.645 358.167 255.22 354.736 254.298 348.59C253.458 342.851 258.634 337.577 257.789 331.952C256.835 325.589 249.009 321.811 247.562 315.595C246.64 311.736 247.464 307.286 247.128 303.308C246.744 298.86 245.992 294.451 244.879 290.128C245.421 290.09 245.963 290.073 246.505 290.057C257.507 289.873 268.336 296.051 271.896 304.734C274.763 311.779 273.305 319.86 277.115 326.445C277.345 326.871 277.604 327.28 277.891 327.67C278.396 328.361 278.938 329.023 279.516 329.654L280.725 330.911C280.926 331.112 281.148 331.296 281.348 331.513C281.549 331.729 281.766 331.919 281.966 332.136C283.863 333.951 285.798 335.778 287.055 337.946C287.169 338.134 287.27 338.33 287.359 338.531C287.473 338.732 287.575 338.941 287.662 339.154C287.776 339.387 287.863 339.61 287.944 339.826C288.025 340.043 288.128 340.368 288.215 340.596C288.334 341.003 288.448 341.387 288.535 341.788C288.535 341.891 288.535 341.978 288.567 342.059C288.6 342.141 288.567 342.124 288.567 342.162C288.575 342.194 288.575 342.228 288.567 342.26C288.567 342.33 288.567 342.379 288.6 342.428V342.46C288.592 342.508 288.598 342.557 288.616 342.601Z" stroke="#564499"/>
<path d="M327.237 316.224C327.121 318.114 327.121 320.009 327.237 321.899C323.931 322.706 320.674 323.595 317.482 324.668C315.498 325.324 313.552 326.045 311.607 326.868C306.209 329.058 301.125 331.956 296.491 335.486C297.501 333.764 298.212 331.884 298.594 329.925C298.594 329.844 298.626 329.757 298.643 329.66C299.483 325.6 299.548 321.335 301.461 317.454C305.022 310.3 315.433 305.114 326.332 304.778H326.533C327.524 304.778 328.532 304.778 329.541 304.826C328.412 308.544 327.64 312.36 327.237 316.224Z" stroke="#564499"/>
<path d="M322.284 310.999L317.449 324.646C315.466 325.302 313.52 326.023 311.574 326.847C314.68 320.809 318.235 315.351 322.284 310.999Z" stroke="#564499"/>
<path d="M274.666 357.025C270.016 335.221 264.471 313.592 253.632 299.539L270.585 360.786M274.666 357.025C273.336 358.322 271.976 359.575 270.585 360.786M274.666 357.025L270.585 360.786" stroke="#564499"/>
<path d="M288.741 342.96C288.741 342.851 288.724 342.743 288.692 342.639C288.725 342.84 288.741 342.96 288.741 342.96Z" stroke="#564499" stroke-miterlimit="10"/>
<path d="M405.536 164.97C412.435 190.811 419.551 218.652 418.966 245.214C418.343 273.207 404.089 296.702 378.551 308.625C361.929 316.381 344.06 317.806 327.221 321.887C323.915 322.695 320.658 323.584 317.465 324.657C315.482 325.312 313.536 326.033 311.59 326.857C306.197 329.052 301.119 331.953 296.491 335.485" stroke="#564499" stroke-miterlimit="10"/>
<path d="M129.775 17.8891C129.775 17.8891 97.603 10.5453 70.8241 19.5963C67.4882 20.6954 64.2559 22.0883 61.1661 23.7586C45.9908 31.9697 34.5389 47.3997 35.379 75.4251C35.8288 90.0584 34.9725 104.491 32.0892 118.496C31.1462 123.041 29.9809 127.539 28.5935 131.991C25.1947 142.875 20.2893 153.229 14.0198 162.753C-5.94653 193.028 -2.92232 224.495 19.2227 253.675C20.3826 255.203 21.5749 256.715 22.7998 258.195" stroke="#564499" stroke-miterlimit="10"/>
<path d="M359.473 6.13806H166.788C144.564 6.13806 126.548 24.1539 126.548 46.3778V227.978C126.548 250.201 144.564 268.217 166.788 268.217H359.473C381.697 268.217 399.713 250.201 399.713 227.978V46.3778C399.713 24.1539 381.697 6.13806 359.473 6.13806Z" fill="#BBB4D6" stroke="#564499"/>
<path d="M361.441 0.546143H164.824C140.468 0.546143 120.724 20.2906 120.724 44.6465V229.709C120.724 254.065 140.468 273.809 164.824 273.809H361.441C385.797 273.809 405.541 254.065 405.541 229.709V44.6465C405.541 20.2906 385.797 0.546143 361.441 0.546143Z" stroke="#564499" stroke-miterlimit="10"/>
<path d="M368.156 23.3577H311.688C304.014 23.3577 297.786 30.0566 297.786 38.3V169.002C297.786 177.262 304.014 183.977 311.688 183.977H368.156C375.847 183.977 382.096 177.262 382.096 169.002V38.3C382.096 30.0566 375.847 23.3577 368.156 23.3577ZM378.096 169.571C378.086 172.319 376.99 174.951 375.046 176.894C373.103 178.836 370.47 179.931 367.723 179.939H312.159C309.408 179.931 306.771 178.835 304.824 176.891C302.877 174.947 301.777 172.312 301.764 169.561V37.7634C301.777 35.0118 302.877 32.3768 304.824 30.4327C306.771 28.4886 309.408 27.3931 312.159 27.3845H367.723C370.472 27.3931 373.107 28.4897 375.05 30.4343C376.994 32.3789 378.089 35.014 378.096 37.7634V169.571Z" fill="white" stroke="#564499"/>
<path d="M367.414 199.315H310.945C303.277 199.315 297.044 206.014 297.044 214.257V234.137C297.044 242.402 303.277 249.117 310.945 249.117H367.414C375.104 249.117 381.353 242.402 381.353 234.137V214.257C381.353 206.014 375.104 199.315 367.414 199.315ZM377.353 234.711C377.346 237.46 376.251 240.095 374.307 242.038C372.364 243.982 369.729 245.078 366.98 245.085H311.417C308.666 245.078 306.029 243.983 304.082 242.04C302.135 240.096 301.035 237.462 301.022 234.711V213.721C301.035 210.969 302.135 208.335 304.082 206.39C306.029 204.446 308.665 203.351 311.417 203.342H366.98C369.73 203.351 372.364 204.447 374.308 206.392C376.251 208.336 377.346 210.971 377.353 213.721V234.711Z" fill="white" stroke="#564499"/>
<path d="M240.868 213.765L158.12 212.551C157.229 212.536 156.381 212.169 155.762 211.531C155.142 210.892 154.801 210.032 154.814 209.142C154.813 208.834 154.857 208.527 154.944 208.232C155.157 207.531 155.593 206.919 156.184 206.487C156.775 206.055 157.491 205.826 158.223 205.836L240.971 207.039C240.352 208 240.006 209.111 239.969 210.253C239.924 211.486 240.236 212.705 240.868 213.765Z" fill="white"/>
<path d="M260.932 211.596C260.722 212.295 260.293 212.908 259.707 213.343C259.121 213.779 258.41 214.014 257.68 214.013L251.719 213.927C252.358 212.928 252.706 211.77 252.725 210.584C252.742 209.398 252.43 208.23 251.822 207.212L257.783 207.298C258.672 207.317 259.518 207.685 260.137 208.324C260.756 208.962 261.098 209.818 261.089 210.707C261.079 211.01 261.026 211.309 260.932 211.596Z" fill="#564499"/>
<path d="M260.737 224.923C260.527 225.621 260.097 226.232 259.511 226.665C258.925 227.098 258.214 227.329 257.485 227.324L175.241 226.12C176.009 225.205 176.501 224.09 176.662 222.905C176.822 221.72 176.643 220.514 176.146 219.427L257.561 220.587C258.45 220.604 259.297 220.972 259.917 221.611C260.535 222.249 260.877 223.107 260.867 223.996C260.87 224.31 260.826 224.622 260.737 224.923Z" fill="#564499"/>
<path d="M165.344 225.969L157.93 225.861C157.042 225.848 156.195 225.484 155.574 224.848C154.954 224.212 154.61 223.356 154.619 222.468C154.622 222.155 154.668 221.843 154.754 221.541C154.962 220.844 155.392 220.233 155.98 219.803C156.567 219.372 157.278 219.145 158.006 219.157L164.613 219.26C164.226 220.061 164.008 220.934 163.973 221.823C163.918 223.325 164.405 224.796 165.344 225.969Z" fill="white"/>
<path d="M235.015 240.467L158.234 239.351C157.345 239.331 156.5 238.962 155.881 238.324C155.263 237.686 154.92 236.83 154.927 235.942C154.93 235.64 154.977 235.34 155.068 235.053C155.277 234.353 155.706 233.739 156.292 233.303C156.879 232.868 157.59 232.633 158.32 232.636L234.988 233.763C234.362 234.769 234.03 235.93 234.03 237.115C234.03 238.3 234.362 239.461 234.988 240.467H235.015Z" fill="white"/>
<path d="M261.057 238.402C260.849 239.1 260.418 239.712 259.832 240.143C259.245 240.576 258.533 240.805 257.805 240.797L245.741 240.64L235.015 240.494C234.389 239.488 234.057 238.327 234.057 237.141C234.057 235.957 234.389 234.796 235.015 233.789L245.941 233.952L257.865 234.125C258.752 234.14 259.598 234.505 260.217 235.14C260.837 235.776 261.179 236.631 261.171 237.518C261.174 237.817 261.136 238.114 261.057 238.402Z" fill="#564499"/>
<path d="M251.686 213.927C250.853 215.229 249.575 216.186 248.091 216.617C246.606 217.048 245.015 216.926 243.613 216.274C242.211 215.621 241.094 214.482 240.469 213.068C239.844 211.654 239.753 210.061 240.214 208.585C240.674 207.109 241.655 205.85 242.973 205.042C244.291 204.234 245.858 203.933 247.382 204.193C248.906 204.453 250.284 205.257 251.26 206.456C252.236 207.655 252.743 209.168 252.689 210.713C252.649 211.855 252.303 212.965 251.686 213.927Z" fill="white"/>
<path d="M175.23 226.121C174.623 226.849 173.86 227.432 172.999 227.827C172.137 228.222 171.199 228.419 170.251 228.405C169.303 228.391 168.371 228.164 167.522 227.743C166.673 227.321 165.929 226.715 165.344 225.97C164.409 224.795 163.926 223.324 163.984 221.824C164.02 220.934 164.237 220.062 164.624 219.26C165.168 218.154 166.02 217.23 167.078 216.598C168.135 215.966 169.354 215.654 170.585 215.699C171.771 215.737 172.923 216.108 173.908 216.77C174.892 217.433 175.669 218.359 176.151 219.444C176.648 220.532 176.827 221.737 176.667 222.922C176.507 224.106 176.014 225.221 175.246 226.138L175.23 226.121Z" fill="white"/>
<path d="M245.741 240.64C244.975 241.795 243.854 242.67 242.547 243.131C241.239 243.593 239.817 243.615 238.497 243.195C237.175 242.776 236.027 241.936 235.226 240.805C234.424 239.674 234.013 238.313 234.056 236.927C234.096 235.817 234.423 234.736 235.004 233.789C235.45 233.076 236.033 232.458 236.719 231.972C237.405 231.485 238.181 231.14 239.001 230.954C239.822 230.769 240.671 230.748 241.499 230.893C242.328 231.038 243.12 231.346 243.828 231.798C244.537 232.25 245.15 232.839 245.63 233.529C246.111 234.22 246.449 234.998 246.627 235.82C246.805 236.642 246.818 237.492 246.666 238.319C246.514 239.146 246.199 239.935 245.741 240.64Z" fill="white"/>
<path d="M154.18 39.2208L154.321 58.8348C154.357 62.2558 155.714 65.5309 158.109 67.9741C160.504 70.4173 163.751 71.8406 167.171 71.9452L186.584 72.2812C188.254 72.3067 189.911 71.9966 191.459 71.3696C193.006 70.742 194.411 69.8103 195.592 68.6294C196.772 67.4489 197.703 66.0431 198.33 64.4952C198.956 62.9479 199.266 61.29 199.239 59.6207L199.093 40.0067C199.059 36.5857 197.703 33.3111 195.309 30.8679C192.915 28.4252 189.668 27.0037 186.248 26.9016L166.835 26.5602C165.165 26.5345 163.508 26.8446 161.96 27.4718C160.413 28.099 159.008 29.0306 157.827 30.2116C156.647 31.3925 155.716 32.7984 155.089 34.3457C154.463 35.8936 154.153 37.5515 154.18 39.2208Z" fill="white" stroke="#564499"/>
<path d="M157.166 44.143L157.269 58.3427C157.301 61.3133 158.48 64.1565 160.56 66.2772C162.64 68.3985 165.459 69.6337 168.428 69.7242L185.289 70.0169C186.739 70.0391 188.179 69.7697 189.522 69.225C190.866 68.6809 192.087 67.8723 193.113 66.8474C194.139 65.8225 194.949 64.602 195.495 63.2584C196.04 61.9149 196.311 60.476 196.291 59.0256V58.0663C193.922 53.2211 189.31 45.9695 184.367 50.3053C177.273 56.538 174.027 51.7957 169.891 45.6768C166.439 40.5552 161.187 36.8155 157.166 44.143Z" fill="white" stroke="#564499"/>
<path d="M188.888 42.1816C191.029 40.7589 191.581 37.8225 190.12 35.6237C188.659 33.4249 185.739 32.7957 183.597 34.2184C181.456 35.6416 180.904 38.5775 182.365 40.7763C183.826 42.9751 186.746 43.6043 188.888 42.1816Z" fill="white" stroke="#564499"/>
<path d="M266.953 47.1564C263.92 47.1553 260.959 48.0935 258.48 49.8424C256.001 51.5909 254.123 54.0644 253.106 56.9228C252.089 59.7812 251.981 62.8845 252.798 65.8063C253.616 68.7281 255.317 71.3257 257.669 73.2416L219.189 151.671C218.953 151.633 218.713 151.61 218.474 151.6C217.86 151.608 217.251 151.703 216.664 151.882L191.63 120.778C192.748 119.236 193.381 117.395 193.448 115.492C193.516 113.588 193.014 111.707 192.008 110.09C191.002 108.472 189.538 107.191 187.8 106.409C186.063 105.627 184.133 105.381 182.255 105.701C180.378 106.021 178.638 106.893 177.257 108.206C175.878 109.52 174.92 111.214 174.507 113.073C174.094 114.933 174.245 116.874 174.939 118.647C175.633 120.421 176.84 121.948 178.406 123.033L160.862 172.959C159.333 173.051 157.882 173.669 156.756 174.709C155.631 175.749 154.9 177.147 154.689 178.664C154.477 180.182 154.796 181.726 155.594 183.035C156.392 184.343 157.618 185.335 159.064 185.842C160.51 186.348 162.087 186.339 163.527 185.815C164.967 185.291 166.181 184.284 166.963 182.967C167.745 181.649 168.047 180.101 167.817 178.586C167.587 177.071 166.84 175.682 165.702 174.656L183.246 124.724C183.462 124.724 183.674 124.756 183.891 124.756C185.195 124.756 186.486 124.491 187.684 123.976L212.713 155.069C212.185 156.025 211.906 157.098 211.9 158.191C211.874 159.076 212.027 159.957 212.348 160.783C212.669 161.608 213.153 162.36 213.77 162.996C214.387 163.631 215.126 164.135 215.942 164.481C216.758 164.825 217.634 165.003 218.52 165.003C219.406 165.003 220.282 164.825 221.098 164.481C221.914 164.135 222.653 163.631 223.27 162.996C223.887 162.36 224.371 161.608 224.691 160.783C225.013 159.957 225.166 159.076 225.14 158.191C225.136 156.718 224.636 155.29 223.72 154.137L262.2 75.7076C264.223 76.4197 266.377 76.6804 268.511 76.4718C270.645 76.2631 272.708 75.5894 274.554 74.499C276.401 73.408 277.985 71.9262 279.198 70.1578C280.411 68.3893 281.221 66.377 281.574 64.2616C281.926 62.1463 281.811 59.9795 281.237 57.9135C280.662 55.8475 279.643 53.9322 278.249 52.3025C276.856 50.6722 275.123 49.3671 273.172 48.4778C271.22 47.5889 269.098 47.138 266.953 47.1564Z" fill="white" stroke="#564499"/>
<path d="M313.455 75.4187H364.942" stroke="#564499" stroke-miterlimit="10"/>
<path d="M313.455 83.3706H364.942" stroke="#564499" stroke-miterlimit="10"/>
<path d="M313.455 91.3159H364.942" stroke="#564499" stroke-miterlimit="10"/>
<path d="M313.455 99.2618H364.942" stroke="#564499" stroke-miterlimit="10"/>
<path d="M313.455 107.211H364.942" stroke="#564499" stroke-miterlimit="10"/>
<path d="M313.455 153.626H364.942" stroke="#564499" stroke-miterlimit="10"/>
<path d="M313.455 160.64H364.942" stroke="#564499" stroke-miterlimit="10"/>
<path d="M354.124 214.343C354.642 214.773 355.057 215.312 355.338 215.923C355.619 216.533 355.76 217.2 355.75 217.872L355.631 233.768C355.627 234.368 355.504 234.961 355.27 235.513C355.036 236.066 354.696 236.567 354.267 236.987C353.839 237.408 353.333 237.739 352.776 237.964C352.219 238.187 351.624 238.3 351.024 238.293L327.177 238.087C325.968 238.076 324.813 237.585 323.965 236.722C323.118 235.859 322.647 234.696 322.657 233.486L322.798 217.579C322.844 216.381 323.346 215.245 324.201 214.405C325.056 213.564 326.201 213.083 327.4 213.059L351.247 213.265C352.303 213.274 353.322 213.656 354.124 214.343Z" fill="white" stroke="#564499"/>
<path d="M350.753 217.25L339.632 226.805C339.49 226.926 339.31 226.992 339.123 226.992C338.936 226.992 338.755 226.926 338.613 226.805L327.291 217.049C327.166 216.944 327.077 216.802 327.037 216.644C326.997 216.485 327.008 216.318 327.068 216.166C327.128 216.014 327.234 215.885 327.371 215.796C327.509 215.708 327.67 215.664 327.833 215.673L350.277 215.873C350.434 215.878 350.587 215.931 350.713 216.025C350.841 216.119 350.936 216.248 350.988 216.397C351.04 216.547 351.045 216.708 351.003 216.86C350.961 217.012 350.874 217.148 350.753 217.25Z" fill="white" stroke="#564499"/>
<path d="M339.947 119.986C337.571 119.984 335.248 120.686 333.271 122.005C331.294 123.323 329.754 125.198 328.843 127.392C327.932 129.587 327.692 132.002 328.155 134.332C328.617 136.663 329.76 138.804 331.439 140.484C333.119 142.165 335.258 143.31 337.588 143.775C339.918 144.239 342.334 144.002 344.529 143.093C346.724 142.184 348.601 140.645 349.921 138.669C351.241 136.694 351.946 134.372 351.946 131.996C351.946 130.419 351.637 128.858 351.034 127.402C350.432 125.945 349.548 124.621 348.433 123.506C347.32 122.39 345.996 121.505 344.54 120.902C343.084 120.297 341.523 119.986 339.947 119.986ZM339.947 141.123C339.481 141.123 339.034 140.938 338.705 140.608C338.375 140.279 338.191 139.832 338.191 139.367C338.191 138.901 338.375 138.454 338.705 138.125C339.034 137.796 339.481 137.611 339.947 137.611C340.412 137.611 340.859 137.796 341.188 138.125C341.518 138.454 341.703 138.901 341.703 139.367C341.703 139.832 341.518 140.279 341.188 140.608C340.859 140.938 340.412 141.123 339.947 141.123ZM342.152 127.617C341.784 130.224 341.469 132.961 340.694 135.486C340.622 135.623 340.514 135.739 340.381 135.819C340.248 135.899 340.096 135.941 339.941 135.941C339.786 135.941 339.634 135.899 339.501 135.819C339.368 135.739 339.26 135.623 339.188 135.486C338.638 133.584 338.218 131.646 337.93 129.687C337.687 128.267 336.846 125.953 337.654 124.576C338.353 123.335 340.331 123.189 341.448 123.834C342.873 124.598 342.32 126.283 342.152 127.595V127.617Z" fill="white" stroke="#564499"/>
<path d="M339.947 141.123C339.481 141.123 339.034 140.938 338.705 140.608C338.375 140.279 338.191 139.832 338.191 139.367C338.191 138.901 338.375 138.454 338.705 138.125C339.034 137.795 339.481 137.611 339.947 137.611C340.412 137.611 340.859 137.795 341.188 138.125C341.518 138.454 341.703 138.901 341.703 139.367C341.703 139.832 341.518 140.279 341.188 140.608C340.859 140.938 340.412 141.123 339.947 141.123ZM342.152 127.617C341.784 130.224 341.469 132.961 340.694 135.486C340.622 135.623 340.514 135.739 340.381 135.819C340.248 135.899 340.096 135.941 339.941 135.941C339.786 135.941 339.634 135.899 339.501 135.819C339.368 135.739 339.26 135.623 339.188 135.486C338.638 133.584 338.218 131.646 337.93 129.687C337.687 128.267 336.846 125.953 337.654 124.576C338.353 123.335 340.331 123.189 341.448 123.834C342.873 124.598 342.32 126.283 342.152 127.595V127.617Z" fill="white" stroke="#564499"/>
<path d="M267.165 72.9159C273.121 72.9159 277.95 68.0875 277.95 62.1306C277.95 56.1743 273.121 51.3453 267.165 51.3453C261.209 51.3453 256.38 56.1743 256.38 62.1306C256.38 68.0875 261.209 72.9159 267.165 72.9159Z" fill="white"/>
<path d="M270.541 403.878C270.539 404.696 270.265 406.103 269.797 406.775C269.33 407.447 268.497 408.061 267.73 408.348L229.712 422.703C229.712 422.703 227.483 418.508 224.599 412.936L203.249 377.335C197.423 407.306 191.354 436.727 187.327 455.43L183.446 474.052L199.001 479.169C199.936 479.394 200.768 479.927 201.364 480.682C201.961 481.436 202.287 482.369 202.291 483.331C202.289 483.983 202.2 485.09 201.914 485.677C201.627 486.263 200.786 487.276 200.272 487.678C199.757 488.079 198.986 488.414 198.348 488.55C197.71 488.686 197.049 488.676 196.415 488.518L160.529 479.172L160.531 469.565L160.044 469.38L160.786 366.584C160.786 366.584 160.841 355.13 160.767 352.24C160.693 349.351 158.767 345.425 153.211 347.795C147.654 350.166 125.558 358.254 125.558 358.254C121.141 359.631 116.474 360.894 111.705 361.918C111.654 361.925 111.603 361.936 111.553 361.95C99.9773 364.985 87.8859 365.506 76.092 363.479C75.989 363.479 75.8698 363.43 75.7722 363.408C74.9159 363.246 74.0596 363.056 73.2195 362.866C72.9648 362.818 72.7155 362.769 72.4608 362.698C71.7237 362.53 70.9866 362.314 70.2495 362.113C69.843 361.994 69.442 361.896 69.0572 361.777C68.6724 361.658 68.3851 361.56 68.0491 361.441C61.7015 359.448 55.839 356.153 50.836 351.767C46.9999 348.546 43.7475 344.689 41.2214 340.364C40.1374 338.651 39.124 336.852 38.1809 335.003C32.4577 323.703 31.7569 320.639 31.7569 320.639C28.0927 319.348 25.2942 317.62 21.896 315.737C21.896 315.737 14.8273 271.278 31.1624 227.286C30.8496 224.565 30.906 221.814 31.3304 219.108C34.7719 194.426 53.7139 169.057 76.3142 158.781C88.4219 153.274 108.166 144.825 101.787 128.002C99.7708 122.68 96.9092 118.095 96.3672 112.572C96.3184 112.03 96.2534 111.548 96.2155 111.011C95.3104 98.0038 102.882 85.6523 115.141 81.2027C119.152 79.6922 123.44 79.0559 127.717 79.3366C131.994 79.6168 136.162 80.8076 139.942 82.8286C141.248 83.5174 142.419 84.4355 143.4 85.5384C147.128 85.636 151.811 86.2918 154.012 87.3161C157.74 89.0613 160.727 92.118 162.96 95.5595C167.079 101.974 168.732 109.665 167.615 117.206C166.973 121.379 165.487 125.377 163.247 128.956C162.142 130.749 160.86 132.427 159.42 133.964C158.158 135.286 156.364 137.216 154.635 137.926C154.654 137.941 154.678 137.949 154.703 137.949C154.727 137.949 154.751 137.941 154.77 137.926L154.266 145.985C164.618 143.627 192.275 133.915 212.55 93.8144C214.013 90.7089 215.52 87.6196 217.103 84.5629C221.785 75.4632 226.804 66.4122 233.454 58.5861C235.08 56.6892 237.486 54.9765 240.072 55.8003C242.337 56.5212 243.865 59.0522 242.288 61.1767L231.405 76.0485L234.879 75.5986C235.258 75.6902 235.612 75.8631 235.917 76.1054C236.222 76.3482 236.471 76.6539 236.645 77.0024C236.819 77.3509 236.916 77.7329 236.927 78.1221C236.938 78.5118 236.865 78.8987 236.711 79.257C236.711 79.257 234.172 84.4658 234.511 84.4816C234.85 84.4974 235.551 83.2567 235.551 83.2567C236.267 82.4113 237.282 81.8752 238.384 81.7609C239.486 81.6465 240.589 81.9625 241.463 82.6427C242.338 83.3234 242.915 84.3152 243.075 85.4116C243.234 86.5075 242.965 87.6229 242.321 88.5247L236.587 95.9335C235.819 96.9118 234.843 97.7079 233.73 98.264L222.382 103.738C225.738 107.864 228.93 112.874 231.801 117.351C225.57 129.295 218.194 139.949 209.905 150.57C195.933 168.569 175.879 189.707 151.317 198.118C150.775 212.995 148.225 226.971 144.144 241.393C156.885 241.393 168.184 241.392 180.476 241.392L189.851 215.923C190.277 214.756 191.66 213.676 192.678 212.965C193.695 212.253 194.908 211.871 196.15 211.873H233.194C233.838 211.875 234.477 212 235.075 212.241C235.982 212.616 236.759 213.252 237.306 214.068C237.853 214.884 238.146 215.844 238.148 216.826C238.141 217.428 238.133 218.449 237.918 219.012L235.208 226.056H235.127L224.487 226.056L221.637 234.072L227.015 234.072C227.834 234.072 228.639 234.274 229.361 234.66C230.082 235.046 230.696 235.605 231.15 236.286C231.603 236.968 231.881 237.75 231.958 238.565C232.036 239.379 232.056 240.584 231.74 241.338L227.296 252.014C225.955 255.219 223.565 258.518 220.848 260.684C218.131 262.85 214.898 264.51 211.474 265.104L211.003 265.185L210.258 266.655L210.707 265.766C210.561 266.119 210.409 266.232 210.258 266.655L222.718 266.751C221.558 270.79 218.845 276.476 213.504 276.555C208.162 276.634 190.101 276.275 190.101 276.275C191.461 277.787 192.02 278.275 193.651 280.427C228.089 278.828 216.574 308.238 214.768 315.591C229.205 342.676 241.851 373.236 247.632 403.677L265.246 400.067C265.85 399.867 266.493 399.813 267.123 399.909C267.752 400.005 268.35 400.249 268.867 400.621C269.383 400.993 269.804 401.481 270.095 402.048C270.387 402.614 270.54 403.241 270.541 403.878Z" fill="white"/>
<path d="M210.258 266.655L211.003 265.185L211.474 265.104C214.898 264.51 218.131 262.85 220.848 260.684C223.565 258.518 225.955 255.219 227.296 252.014L231.74 241.338C232.056 240.584 232.036 239.379 231.958 238.565C231.881 237.75 231.603 236.968 231.15 236.286C230.696 235.605 230.082 235.046 229.361 234.66C228.639 234.274 227.834 234.072 227.015 234.072L221.637 234.072L224.487 226.056L235.127 226.056H235.208L237.918 219.012C238.133 218.449 238.141 217.428 238.148 216.826C238.146 215.844 237.853 214.884 237.306 214.068C236.759 213.252 235.982 212.616 235.075 212.241C234.477 212 233.838 211.875 233.194 211.873H196.15C194.908 211.871 193.695 212.253 192.678 212.965C191.66 213.676 190.277 214.756 189.851 215.923L180.476 241.392C168.184 241.392 156.885 241.393 144.144 241.393C148.225 226.971 150.775 212.995 151.317 198.118C175.879 189.707 195.933 168.569 209.905 150.57C218.194 139.949 225.57 129.295 231.801 117.351C228.93 112.874 225.738 107.864 222.382 103.738L233.73 98.264C234.843 97.7079 235.819 96.9118 236.587 95.9335L242.321 88.5247C242.965 87.6229 243.234 86.5075 243.075 85.4116C242.915 84.3152 242.338 83.3234 241.463 82.6427C240.589 81.9625 239.486 81.6465 238.384 81.7609C237.282 81.8752 236.267 82.4113 235.551 83.2567C235.551 83.2567 234.85 84.4974 234.511 84.4816C234.172 84.4658 236.711 79.257 236.711 79.257C236.865 78.8987 236.938 78.5118 236.927 78.1221C236.916 77.7329 236.819 77.3509 236.645 77.0024C236.471 76.6539 236.222 76.3482 235.917 76.1054C235.612 75.8631 235.258 75.6902 234.879 75.5986L231.405 76.0485L242.288 61.1767C243.865 59.0522 242.337 56.5212 240.072 55.8003C237.486 54.9765 235.08 56.6892 233.454 58.5861C226.804 66.4122 221.785 75.4632 217.103 84.5629C215.52 87.6196 214.013 90.7089 212.55 93.8144C192.275 133.915 164.618 143.627 154.266 145.985L154.77 137.926C154.751 137.941 154.727 137.949 154.703 137.949C154.678 137.949 154.654 137.941 154.635 137.926C156.364 137.216 158.158 135.286 159.42 133.964C160.86 132.427 162.142 130.749 163.247 128.956C165.487 125.377 166.973 121.379 167.615 117.206C168.732 109.665 167.079 101.974 162.96 95.5595C160.727 92.118 157.74 89.0613 154.012 87.3161C151.811 86.2918 147.128 85.636 143.4 85.5384C142.419 84.4355 141.248 83.5174 139.942 82.8286C136.162 80.8076 131.994 79.6168 127.717 79.3366C123.44 79.0559 119.152 79.6922 115.141 81.2027C102.882 85.6523 95.3104 98.0038 96.2155 111.011C96.2534 111.548 96.3184 112.03 96.3672 112.572C96.9092 118.095 99.7708 122.68 101.787 128.002C108.166 144.825 88.4219 153.274 76.3142 158.781C53.7139 169.057 34.7719 194.426 31.3304 219.108C30.906 221.814 30.8496 224.565 31.1624 227.286C14.8273 271.278 21.896 315.737 21.896 315.737C25.2942 317.62 28.0927 319.348 31.7569 320.639C31.7569 320.639 32.4577 323.703 38.1809 335.003C39.124 336.852 40.1374 338.651 41.2214 340.364C43.7475 344.689 46.9999 348.546 50.836 351.767C55.839 356.153 61.7015 359.448 68.0491 361.441C68.3851 361.56 68.6724 361.658 69.0572 361.777C69.442 361.896 69.843 361.994 70.2495 362.113C70.9866 362.314 71.7237 362.53 72.4608 362.698C72.7155 362.769 72.9648 362.818 73.2195 362.866C74.0596 363.056 74.9159 363.246 75.7722 363.408C75.8698 363.43 75.989 363.479 76.092 363.479C87.8859 365.506 99.9773 364.985 111.553 361.95C111.603 361.936 111.654 361.925 111.705 361.918C116.474 360.894 121.141 359.631 125.558 358.254C125.558 358.254 147.654 350.166 153.211 347.795C158.767 345.425 160.693 349.351 160.767 352.24C160.841 355.13 160.786 366.584 160.786 366.584L160.044 469.38L160.531 469.565L160.529 479.172L196.415 488.518C197.049 488.676 197.71 488.686 198.348 488.55C198.986 488.414 199.757 488.079 200.272 487.678C200.786 487.276 201.627 486.263 201.914 485.677C202.2 485.09 202.289 483.983 202.291 483.331C202.287 482.369 201.961 481.436 201.364 480.682C200.768 479.927 199.936 479.394 199.001 479.169L183.446 474.052L187.327 455.43C191.354 436.727 197.423 407.306 203.249 377.335L224.599 412.936C227.483 418.508 229.712 422.703 229.712 422.703L267.73 408.348C268.497 408.061 269.33 407.447 269.797 406.775C270.265 406.103 270.539 404.696 270.541 403.878C270.54 403.241 270.387 402.614 270.095 402.048C269.804 401.481 269.383 400.993 268.867 400.621C268.35 400.249 267.752 400.005 267.123 399.909C266.493 399.813 265.85 399.867 265.246 400.067L247.632 403.677C241.851 373.236 229.205 342.676 214.768 315.591C216.574 308.238 228.089 278.828 193.651 280.427C192.02 278.275 191.461 277.787 190.101 276.275C190.101 276.275 208.162 276.634 213.504 276.555C218.845 276.476 221.558 270.79 222.718 266.751L210.258 266.655ZM210.258 266.655L210.707 265.766C210.561 266.119 210.409 266.232 210.258 266.655Z" stroke="#564499"/>
<path d="M237.671 217.536C237.664 218.138 237.554 218.734 237.348 219.297L234.988 225.676H224.948L228.439 215.823C228.824 214.73 229.567 213.814 230.538 213.234C231.508 212.655 232.643 212.449 233.745 212.654C234.846 212.858 235.844 213.459 236.561 214.352C237.279 215.244 237.672 216.371 237.671 217.536Z" fill="white"/>
<path d="M212.886 225.677H195.852" stroke="#564499" stroke-linecap="round" stroke-linejoin="round"/>
<path d="M210.789 232.094H193.755" stroke="#564499" stroke-linecap="round" stroke-linejoin="round"/>
<path d="M214.252 315.591C221.863 295.339 220.057 279.086 193.484 280.376C188.026 273.162 182.894 269.626 182.894 269.626C182.894 269.626 151.045 274.406 136.593 276.351L135.503 279.727C135.503 279.727 130.278 295.493 124.371 303.325C118.463 311.156 102.573 320.668 79.6744 324.331C56.776 327.995 38.7662 323.481 34.6364 321.183C30.5066 318.885 30.3711 321.101 37.7636 335.664C45.1561 350.227 56.5376 360.698 75.653 364.15C87.4431 366.181 99.5318 365.659 111.103 362.622C111.103 362.622 130.57 359.681 151.52 349.598C159.323 345.037 159.465 351.415 159.465 351.415L159.616 470.063L183.029 474.735L203.479 379.279L224.826 413.53L247.662 404.468C242.742 376.201 227.668 337.262 214.252 315.591Z" fill="#BBB4D6" stroke="#564499"/>
<path d="M125.433 158.921C129.314 159.162 133.121 160.095 136.674 161.674C139.726 163.031 142.425 165.071 144.565 167.636C149.015 173.012 150.424 180.28 150.808 187.266C150.911 189.147 150.96 191.06 150.944 192.925C150.863 209.466 148.109 225.833 143.589 241.838C157.626 241.838 170.943 241.838 184.508 241.838H218.577L220.138 237.93L221.384 234.787H226.641C227.46 234.787 228.266 234.989 228.988 235.375C229.71 235.762 230.325 236.321 230.779 237.003C231.233 237.684 231.511 238.468 231.589 239.283C231.667 240.098 231.542 240.92 231.227 241.675L226.777 252.319C225.432 255.523 223.303 258.336 220.586 260.502C217.868 262.667 214.651 264.113 211.228 264.709L210.756 264.796L209.515 265.012C202.935 266.373 188.226 268.741 173.869 270.942C160.737 272.974 147.893 274.855 141.817 275.727C139.514 276.063 137.162 276.313 134.771 276.464C120.588 277.337 105.944 274.183 102.15 258.037C99.6786 247.696 100.221 236.548 100.334 225.784" stroke="#564499" stroke-miterlimit="10"/>
<path d="M196.502 488.187L160.456 479.055L161.064 469.846L183.002 474.741L198.551 479.862C199.641 480.122 200.586 480.798 201.183 481.747C201.78 482.695 201.981 483.84 201.743 484.935C201.624 485.499 201.391 486.033 201.06 486.504C200.73 486.976 200.306 487.376 199.817 487.679C199.327 487.983 198.781 488.185 198.211 488.272C197.642 488.359 197.061 488.33 196.502 488.187Z" fill="white" stroke="#564499" stroke-miterlimit="10"/>
<path d="M182.66 269.56C191.874 277.364 198.653 288.132 204.848 298.327C223.961 330.933 239.368 364.139 247.231 404.338L264.834 400.723C265.833 400.398 266.92 400.477 267.861 400.943C268.803 401.409 269.525 402.225 269.872 403.216C270.22 404.207 270.166 405.296 269.721 406.247C269.277 407.2 268.479 407.94 267.495 408.31L229.747 422.402C229.747 422.402 218.702 401.769 203.266 377.418C180.644 341.691 138.842 286.626 127.807 298.371" stroke="#564499" stroke-miterlimit="10"/>
<path d="M267.861 400.943C266.92 400.477 265.833 400.398 264.834 400.723L246.993 404.162L224.949 413.044L229.747 422.402L267.495 408.31C268.479 407.94 269.277 407.2 269.721 406.247C270.166 405.296 270.22 404.207 269.872 403.216C269.525 402.225 268.803 401.409 267.861 400.943Z" fill="white" stroke="#564499" stroke-miterlimit="10"/>
<path d="M149.73 147.301C149.73 147.301 186.747 144.738 212.122 94.5021C212.122 94.5021 220.143 100.036 231.324 117.346C231.324 117.346 199.955 181.012 150.808 197.813" stroke="#564499" stroke-miterlimit="10"/>
<path d="M145.936 94.4215C145.539 96.4366 144.583 98.2999 143.178 99.7979C141.651 101.467 139.874 102.888 137.91 104.009C134.213 106.209 130.1 107.873 126.994 110.843C123.885 113.833 122.024 117.89 121.786 122.198C121.569 126.609 123.146 131.178 124.105 135.308C127.146 148.657 126.17 161.485 124.49 174.921C122.897 187.598 119.504 200.003 112.925 211.038C105.164 224.045 92.4217 234.457 78.0811 239.801C66.1577 244.25 42.9883 248.196 34.2246 235.817C32.7125 231.909 32.6962 227.438 33.2815 223.227C36.7231 198.524 55.6651 173.17 78.2654 162.894C90.3731 157.388 110.117 148.928 103.738 132.1C101.706 126.794 98.8604 122.214 98.3184 116.67C98.2696 116.166 98.2208 115.661 98.172 115.125C97.2615 102.118 104.833 89.7714 117.092 85.3164C121.103 83.8016 125.391 83.1631 129.669 83.4439C133.947 83.7241 138.114 84.9169 141.893 86.9423C143.234 87.6561 144.435 88.6072 145.438 89.7497C145.506 89.8272 145.568 89.9107 145.622 89.999C145.698 90.1909 145.76 90.3882 145.806 90.5898C146.105 91.8455 146.15 93.1484 145.936 94.4215Z" fill="#2C0CAD" stroke="#564499"/>
<path d="M101.375 128.663C99.3535 123.351 96.4973 118.772 95.9553 113.233C95.9011 112.723 95.8524 112.214 95.8144 111.672C94.8985 98.6645 102.475 86.3238 114.729 81.8633C118.741 80.3501 123.03 79.7122 127.309 79.993C131.587 80.2732 135.756 81.4655 139.535 83.4892C140.874 84.2057 142.071 85.1591 143.069 86.3021L143.324 86.611C144.209 87.6928 144.852 88.9512 145.21 90.3018C145.568 91.653 145.633 93.0648 145.4 94.4425C145.005 96.4522 144.055 98.3111 142.657 99.8081C141.125 101.48 139.345 102.906 137.378 104.035C133.682 106.236 129.574 107.889 126.458 110.859C123.347 113.857 121.49 117.926 121.266 122.24C121.043 126.652 122.626 131.215 123.569 135.356C126.609 148.705 125.639 161.528 123.959 174.958C122.366 187.635 118.978 200.046 112.388 211.081C104.627 224.088 91.8905 234.505 77.5445 239.843C65.388 244.374 41.552 248.385 33.1785 235.123C30.3657 230.673 30.1814 225.042 30.9077 219.828C34.3492 195.13 53.302 169.766 75.8915 159.496C88.0208 153.924 107.765 145.486 101.375 128.663Z" stroke="#564499" stroke-miterlimit="10"/>
<path d="M147.914 113.644C149.078 113.644 150.023 112.7 150.023 111.536C150.023 110.372 149.078 109.427 147.914 109.427C146.75 109.427 145.806 110.372 145.806 111.536C145.806 112.7 146.75 113.644 147.914 113.644Z" fill="#564499"/>
<path d="M147.421 104.741C147.421 104.741 140.283 107.96 142.543 114.22" stroke="#564499" stroke-miterlimit="10"/>
<path d="M159.014 134.609C157.713 135.959 155.806 138.018 154.017 138.669C150.761 141.058 149.448 143.445 148.374 145.474C147.3 147.503 145.987 150.009 150.403 155.022C154.819 160.034 162.934 166.837 162.934 176.146C162.934 185.456 156.299 191.116 151.048 192.668C150.849 182.334 149.943 167.415 136.868 161.738C136.527 159.471 135.832 154.001 135.723 150.128C135.597 145.662 136.197 143.163 137.308 139.883C138.987 140.582 140.785 140.95 142.603 140.967C146.69 140.945 149.941 138.43 152.109 135.216C152.584 134.512 153.009 133.777 153.383 133.016C154.439 130.872 155.147 128.574 155.48 126.209C155.757 124.182 154.982 120.68 157.068 119.461C157.881 118.968 161.811 118.54 160.32 117.044C160.047 116.797 159.745 116.584 159.421 116.41C158.043 115.561 156.887 114.396 156.049 113.012C154.407 110.269 154.104 106.876 153.562 103.527C153.453 102.898 153.35 102.28 153.231 101.657C152.456 98.0953 150.909 94.7465 148.7 91.8475C147.234 89.8888 145.534 88.116 143.638 86.5686C147.03 86.0223 150.508 86.5134 153.616 87.9778C157.345 89.7121 160.32 92.7688 162.553 96.2158C165.778 101.177 167.52 106.956 167.572 112.873C167.625 118.79 165.987 124.599 162.851 129.618C161.737 131.402 160.452 133.074 159.014 134.609Z" fill="#2C0CAD" stroke="#564499" stroke-miterlimit="10"/>
<path d="M137.308 139.883L129.78 134.588" stroke="#564499" stroke-miterlimit="10"/>
<path d="M150.093 127.455C150.093 127.455 145.178 130.257 143.048 123.807" stroke="#564499" stroke-miterlimit="10"/>
<path d="M230.589 76.5594C230.589 76.5594 222.526 84.7383 234.522 84.6215" stroke="#564499" stroke-miterlimit="10"/>
<path d="M238.122 217.184C238.115 217.812 238.005 218.434 237.797 219.021L235.052 225.676L224.642 225.676L228.149 215.397C228.537 214.257 229.285 213.301 230.262 212.696C231.238 212.092 233.063 211.877 234.172 212.09C235.28 212.304 236.284 212.931 237.006 213.862C237.728 214.793 238.123 215.969 238.122 217.184Z" stroke="#564499" stroke-miterlimit="10"/>
<path d="M30.7667 227.963C14.4262 271.955 21.9162 315.676 21.9162 315.676C46.5977 329.41 81.593 328.217 106.659 316.148C115.526 311.866 125.086 305.417 128.956 295.965C131.796 289.044 134.402 283.521 136.835 276.502" stroke="#564499" stroke-miterlimit="10"/>
<path d="M16.6754 365.224H160.477" stroke="#564499" stroke-miterlimit="10"/>
<path d="M143.6 241.849L142.05 247.09" stroke="#564499" stroke-miterlimit="10"/>
<path d="M39.5792 338.782C39.5792 338.782 33.249 327.487 31.1895 319.97" stroke="#564499" stroke-miterlimit="10"/>
<path d="M70.824 19.5957V131.99H28.5934C29.9847 127.543 31.1499 123.044 32.0891 118.495C34.9724 104.49 35.8288 90.0304 35.3789 75.4242C34.5389 47.3987 45.9745 31.9687 61.166 23.7581C64.2558 22.0878 67.4881 20.6948 70.824 19.5957Z" stroke="#564499" stroke-miterlimit="10"/>
<path d="M61.1662 23.7578V118.495H32.0731C34.9564 104.49 35.8127 90.0303 35.3628 75.4241C34.539 47.3986 45.9747 31.9795 61.1662 23.7578Z" stroke="#564499" stroke-miterlimit="10"/>
<path d="M339.86 46.679C341.85 46.679 343.464 45.0655 343.464 43.0748C343.464 41.0847 341.85 39.4707 339.86 39.4707C337.869 39.4707 336.256 41.0847 336.256 43.0748C336.256 45.0655 337.869 46.679 339.86 46.679Z" fill="white" stroke="#564499"/>
<path d="M329.795 59.3715C329.795 56.7022 330.856 54.142 332.743 52.2548C334.631 50.3671 337.191 49.307 339.86 49.307C342.529 49.307 345.089 50.3671 346.976 52.2548C348.864 54.142 349.924 56.7022 349.924 59.3715H329.795Z" fill="white" stroke="#564499"/>
<path d="M1447.94 125.83C1445.68 120.654 1442.08 108.075 1447.8 108.075C1454.54 108.075 1460.1 128.87 1460.65 131.022L1460.7 131.201L1503.73 148.625C1505.14 149.195 1506.65 149.478 1508.17 149.459C1509.69 149.44 1511.19 149.118 1512.58 148.513C1513.98 147.908 1515.24 147.031 1516.29 145.933C1517.34 144.836 1518.17 143.54 1518.71 142.121L1538.96 89.821L1474.61 64.9499L1433.13 48.9237L1409.82 110.297L1447.94 125.83Z" fill="white" stroke="#564499" stroke-miterlimit="10"/>
<path d="M1568.39 92.454C1578.69 86.7253 1594.73 98.4157 1601.83 104.979C1610.12 112.61 1616.81 122.322 1621.95 132.322C1645.31 177.717 1657.58 231.725 1638.39 280.914C1631.93 297.567 1621.84 312.575 1608.87 324.852C1601.57 331.719 1586.56 338.196 1584.37 348.699C1583.9 351.307 1584.09 353.991 1584.91 356.509C1587.81 366.134 1596.57 372.806 1603.25 379.814C1635.37 413.53 1612.15 465.798 1577.81 488.322" stroke="#564499" stroke-miterlimit="10"/>
<path d="M1316.57 269.463C1326.59 258.813 1339.41 251.616 1352.29 244.993C1366.24 237.823 1379.97 230.604 1392.65 221.293C1400.37 215.636 1407.68 209.433 1414.51 202.73" stroke="#564499" stroke-miterlimit="10"/>
<path d="M1300.29 404.354C1287.48 371.256 1284.23 333.318 1297.59 300.258" stroke="#564499" stroke-miterlimit="10"/>
<path d="M1468.18 62.2015V26.7238C1468.18 24.2802 1467.21 21.9367 1465.48 20.2089C1463.75 18.4809 1461.41 17.5103 1458.97 17.5103H1341.48C1339.04 17.5103 1336.69 18.4809 1334.97 20.2089C1333.24 21.9367 1332.27 24.2802 1332.27 26.7238V193.554C1332.28 195.991 1333.25 198.325 1334.98 200.044C1336.71 201.764 1339.04 202.73 1341.48 202.73H1458.98C1460.12 202.738 1461.25 202.521 1462.31 202.09" stroke="#564499" stroke-linecap="round" stroke-linejoin="round"/>
<path d="M1455.24 23.146H1345.23C1340.36 23.146 1336.41 27.0939 1336.41 31.9638V188.307C1336.41 193.177 1340.36 197.125 1345.23 197.125H1455.24C1460.11 197.125 1464.05 193.177 1464.05 188.307V31.9638C1464.05 27.0939 1460.11 23.146 1455.24 23.146Z" fill="#BBB4D6" stroke="#564499"/>
<path d="M1453.52 36.6085H1348.34C1345.9 36.6085 1343.93 38.5835 1343.93 41.0202V64.7695C1343.93 67.2062 1345.9 69.1811 1348.34 69.1811H1453.52C1455.96 69.1811 1457.94 67.2062 1457.94 64.7695V41.0202C1457.94 38.5835 1455.96 36.6085 1453.52 36.6085Z" fill="white" stroke="#564499"/>
<path d="M1400.23 50.3329C1402.09 50.3329 1403.6 48.8235 1403.6 46.9618C1403.6 45.1001 1402.09 43.5907 1400.23 43.5907C1398.37 43.5907 1396.86 45.1001 1396.86 46.9618C1396.86 48.8235 1398.37 50.3329 1400.23 50.3329Z" fill="#BBB4D6" stroke="#564499"/>
<path d="M1390.82 62.2016C1390.82 59.7047 1391.81 57.3102 1393.57 55.5445C1395.34 53.7793 1397.73 52.7875 1400.23 52.7875C1402.73 52.7875 1405.12 53.7793 1406.89 55.5445C1408.65 57.3102 1409.65 59.7047 1409.65 62.2016H1390.82Z" fill="#BBB4D6" stroke="#564499"/>
<path d="M1400.92 104.091C1397.33 104.089 1393.82 105.152 1390.83 107.146C1387.84 109.14 1385.51 111.975 1384.14 115.294C1382.76 118.612 1382.4 122.263 1383.1 125.786C1383.8 129.309 1385.53 132.545 1388.07 135.085C1390.61 137.625 1393.85 139.354 1397.37 140.054C1400.89 140.755 1404.54 140.394 1407.86 139.019C1411.18 137.643 1414.02 135.314 1416.01 132.327C1418 129.34 1419.07 125.828 1419.06 122.236C1419.06 117.424 1417.15 112.809 1413.75 109.407C1410.35 106.004 1405.73 104.092 1400.92 104.091ZM1400.92 136.002C1400.22 136.002 1399.54 135.723 1399.05 135.226C1398.55 134.728 1398.27 134.055 1398.27 133.352C1398.27 132.649 1398.55 131.975 1399.05 131.478C1399.54 130.981 1400.22 130.702 1400.92 130.702C1401.62 130.702 1402.3 130.981 1402.79 131.478C1403.29 131.975 1403.57 132.649 1403.57 133.352C1403.57 134.055 1403.29 134.728 1402.79 135.226C1402.3 135.723 1401.62 136.002 1400.92 136.002ZM1404.28 115.597C1403.71 119.532 1403.23 123.678 1402.07 127.52C1401.79 128.431 1400.06 128.431 1399.78 127.52C1398.95 124.642 1398.31 121.713 1397.87 118.751C1397.52 116.583 1396.25 113.115 1397.47 111.012C1398.52 109.147 1401.5 108.914 1403.23 109.89C1405.36 111.109 1404.55 113.64 1404.28 115.597Z" fill="white" stroke="#564499"/>
<path d="M1400.92 136C1402.38 136 1403.57 134.814 1403.57 133.35C1403.57 131.887 1402.38 130.7 1400.92 130.7C1399.46 130.7 1398.27 131.887 1398.27 133.35C1398.27 134.814 1399.46 136 1400.92 136Z" fill="white" stroke="#564499"/>
<path d="M1404.28 115.596C1403.71 119.531 1403.23 123.677 1402.07 127.52C1401.79 128.43 1400.06 128.43 1399.78 127.52C1398.95 124.642 1398.32 121.713 1397.87 118.751C1397.52 116.583 1396.25 113.114 1397.47 111.011C1398.52 109.147 1401.51 108.914 1403.23 109.889C1405.36 111.109 1404.55 113.64 1404.28 115.596Z" fill="white" stroke="#564499"/>
<path d="M1355.33 83.7281H1443.97" stroke="#564499" stroke-miterlimit="10"/>
<path d="M1355.33 92.4486H1443.97" stroke="#564499" stroke-miterlimit="10"/>
<path d="M1355.33 148.64L1442.03 148.64" stroke="#564499" stroke-miterlimit="10"/>
<path d="M1433.13 48.9237L1466.48 61.8118L1538.95 89.702L1536.75 95.6937L1435.51 56.6359L1414.39 112.139L1409.84 110.297C1408.34 109.684 1433.13 48.9237 1433.13 48.9237Z" fill="white" stroke="#564499"/>
<path d="M1375.92 156.895H1423.38" stroke="#564499" stroke-miterlimit="10"/>
<path d="M1598.38 289.949C1592.73 279.364 1598.56 225.156 1598.99 220.43C1608.13 121.195 1574.58 92.5064 1567.56 85.0055C1566.39 83.813 1561.75 78.1857 1559.54 75.7906C1560.87 82.0887 1561.69 93.7353 1536.49 95.606L1520.5 137.541C1563.84 114.751 1579.06 152.006 1579.06 152.006C1579.06 152.006 1577.4 172.123 1553.88 189.511C1527.65 210.393 1491.37 190.89 1479.59 182.058L1479.78 186.492L1479.88 198.957C1479.54 208.458 1475.28 219.2 1471.82 226.983C1469.79 231.521 1476.58 234.995 1479.71 236.603L1479.78 236.635C1496.62 245.258 1510.89 258.054 1527.04 267.777C1543.19 277.5 1560.44 285.494 1578.87 289.83C1580.1 290.112 1600.43 293.781 1598.38 289.949Z" fill="#BBB4D6" stroke="#564499"/>
<path d="M1513.79 80.091C1517.5 77.3638 1521.67 75.3043 1526.09 74.0046" stroke="#564499" stroke-miterlimit="10"/>
<path d="M1497.31 265.067L1467.5 372.833L1440.4 470.833L1423.15 472.459C1419.19 472.824 1415.51 474.652 1412.83 477.586C1410.16 480.521 1408.67 484.35 1408.66 488.322H1462.03L1500.69 421.703L1529.44 372.14L1574.39 294.637C1575.69 292.377 1576.95 290.117 1578.18 287.808C1578.2 287.782 1578.22 287.75 1578.22 287.716" stroke="#564499" stroke-miterlimit="10"/>
<path d="M1529.44 372.139L1571.35 488.322H1510.87C1510.87 484.547 1512.24 480.901 1514.73 478.061C1517.21 475.221 1520.65 473.38 1524.39 472.881L1537.55 471.12C1537.55 471.12 1519.85 447.815 1500.7 421.697" stroke="#564499" stroke-miterlimit="10"/>
<path d="M1536.87 95.2284L1518.71 142.142C1518.16 143.558 1517.33 144.851 1516.28 145.945C1515.23 147.04 1513.97 147.914 1512.57 148.516C1511.18 149.12 1509.68 149.439 1508.16 149.456C1506.64 149.473 1505.13 149.189 1503.73 148.618L1460.69 131.199C1460.67 131.141 1460.65 131.081 1460.64 131.02C1460.1 128.852 1454.54 108.073 1447.79 108.073C1442.62 108.073 1445.09 118.322 1447.25 124.121C1447.5 124.744 1447.74 125.33 1447.95 125.828L1447.61 125.687L1413.92 111.954L1435.17 55.9353L1476.65 71.9615L1536.87 95.2284Z" fill="#BBB4D6" stroke="#564499"/>
<path d="M1581.53 125.168C1583.47 151.975 1577.79 176.433 1549.12 193.37C1506.7 218.452 1450.56 161.626 1429.77 134.05C1426.34 129.522 1423.44 124.611 1421.13 119.417C1420.43 117.906 1419.37 115.6 1418.91 114.001" stroke="#564499" stroke-miterlimit="10"/>
<path d="M1429.43 133.769C1450.21 161.344 1506.35 218.17 1548.77 193.088C1567.26 182.169 1576.19 168.124 1579.68 152.339C1579.68 152.339 1571.32 133.397 1552.98 129.92C1534.63 126.443 1519.7 137.963 1519.7 137.963L1517.89 142.371C1517.89 142.371 1514.37 152.206 1502.31 147.236C1490.25 142.267 1460.99 130.716 1460.99 130.716L1458.67 123.334C1458.67 123.334 1454.72 107.215 1447.24 107.117C1439.77 107.018 1446.79 124.74 1446.79 124.74C1441.86 122.401 1418.09 112.959 1418.09 112.959C1419.05 115.49 1419.71 116.82 1420.78 119.135C1423.38 124.304 1425.99 129.24 1429.43 133.769Z" fill="white" stroke="#564499" stroke-miterlimit="10"/>
<path d="M1473.12 225.204C1457.72 254.075 1435.21 300.392 1447.5 333.859C1451.68 345.241 1458.88 358.79 1467.5 372.838" stroke="#564499" stroke-miterlimit="10"/>
<path d="M1554.04 44.3544C1554.68 47.3647 1553.17 50.9996 1551.26 53.2542C1549.2 55.6822 1546.26 57.1933 1543.09 57.4539C1541.06 57.6301 1539.02 57.2735 1537.17 56.4188C1536.64 56.1939 1536.13 55.924 1535.64 55.6112C1535.45 55.4736 1535.28 55.2898 1535.17 55.0763C1535.06 54.8622 1535 54.6248 1535 54.3837C1535 54.1425 1535.06 53.9051 1535.17 53.6916C1535.28 53.4775 1535.45 53.2938 1535.64 53.1561C1537.97 51.476 1540.1 49.1346 1540.71 46.3923C1540.89 45.549 1540.91 44.678 1540.75 43.8287C1540.59 42.7464 1540.14 41.727 1539.46 40.8712C1538.78 40.0154 1537.88 39.3531 1536.86 38.951C1536.54 38.8567 1536.21 38.8035 1535.88 38.7938C1534.94 38.7179 1533.71 38.8371 1533.47 39.5309C1534.67 36.1679 1534.72 32.5031 1533.61 29.1087C1532.92 27.0087 1531.77 25.0937 1530.22 23.5102C1530.29 24.1237 1530.23 24.7451 1530.03 25.3301C1529.83 25.9152 1529.51 26.4495 1529.08 26.8951C1528.65 27.3407 1528.13 27.6866 1527.56 27.9083C1526.98 28.1294 1526.36 28.221 1525.75 28.1765C1520.97 28.0139 1520.07 23.4614 1520.07 23.4614C1520.07 23.4614 1520.07 23.5157 1520.07 23.5482C1517.99 28.7348 1511.94 28.8757 1507.61 26.5723C1506.07 25.7834 1504.72 24.6747 1503.65 23.3205C1502.42 18.0037 1506.8 12.8659 1511.86 12.1288C1511.96 8.74688 1514.43 5.12645 1517.76 4.85004C1518.92 4.75097 1520.08 4.96472 1521.13 5.46897C1522.18 5.97328 1523.07 6.7496 1523.72 7.71708C1523.81 7.86341 1523.92 8.02059 1524 8.18318C1525.36 6.21039 1527.58 4.04792 1529.96 3.84739C1531.6 3.73184 1533.25 4.12531 1534.66 4.97458C1536.08 5.82386 1537.87 8.59508 1537.87 8.59508C1537.87 8.59508 1539.96 7.40815 1540.17 7.32144C1542.12 6.58056 1544.26 6.50918 1546.25 7.11852C1548.25 7.72787 1550.46 8.4216 1551.18 10.6871C1551.35 11.229 1551.38 11.6386 1551.42 12.1234C1551.54 13.5729 1551.32 15.0301 1550.77 16.3778C1551.54 16.5975 1552.26 16.9657 1552.89 17.4618C1554.25 18.4586 1555.16 19.9524 1555.43 21.6187C1555.46 21.7867 1555.47 21.9547 1555.49 22.1227C1555.59 23.3926 1555.32 24.6661 1554.7 25.7811C1556.31 26.2389 1557.76 27.1072 1558.93 28.3001C1560.09 29.493 1560.93 30.9693 1561.34 32.5828C1561.48 33.1166 1561.57 33.6608 1561.61 34.2087C1561.79 36.5311 1561.13 38.8409 1559.73 40.708C1558.34 42.5746 1556.32 43.871 1554.04 44.3544Z" fill="#2C0CAD" stroke="#564499"/>
<path d="M1511.92 33.4922C1511.92 33.4922 1518.79 33.5897 1520.37 39.3889" stroke="#564499" stroke-miterlimit="10"/>
<path d="M1510.15 50.8694C1508.59 51.2553 1506.96 51.3344 1505.37 51.1024C1505.07 51.051 1504.79 50.9279 1504.54 50.7437C1504.3 50.5588 1504.11 50.3188 1503.98 50.0434C1503.85 49.7681 1503.79 49.4657 1503.81 49.1622C1503.82 48.8587 1503.91 48.5628 1504.06 48.3004C1505.49 45.8778 1506.97 43.4823 1508.57 41.1789C1508.82 40.8857 1508.98 40.5226 1509.02 40.1383C1509.02 40.1383 1508.36 32.968 1509.8 27.4669" stroke="#564499" stroke-miterlimit="10"/>
<path d="M1515.56 39.5948C1515.7 38.4393 1515.02 37.4025 1514.04 37.279C1513.06 37.1554 1512.14 37.9916 1512 39.1466C1511.85 40.3021 1512.53 41.3389 1513.51 41.4624C1514.5 41.586 1515.41 40.7498 1515.56 39.5948Z" fill="#564499"/>
<path d="M1548.03 55.9309C1548.17 57.3671 1549.56 61.0212 1552.77 66.4858C1555.98 71.9504 1557.46 72.9615 1559.53 75.8721" stroke="#564499" stroke-linecap="round" stroke-linejoin="round"/>
<path d="M1524.78 66.4447L1526.81 80.872" stroke="#564499" stroke-miterlimit="10"/>
<path d="M1507.67 51.2314C1507.67 51.2314 1510.6 65.5179 1517.83 67.6803C1525.05 69.8428 1531.32 60.8298 1531.32 60.8298" stroke="#564499" stroke-linecap="round" stroke-linejoin="round"/>
<path d="M1509.64 57.6755C1510.6 58.2365 1511.68 58.5492 1512.8 58.585C1513.91 58.6207 1515.01 58.379 1516 57.8815" stroke="#564499" stroke-linecap="round" stroke-linejoin="round"/>
<path d="M1523.21 7.53202C1523.12 6.42379 1522.75 5.35713 1522.12 4.43735C1521.33 3.21856 1520.15 2.30116 1518.77 1.83186C1517.39 1.36251 1515.9 1.36826 1514.53 1.84828C1513.15 2.32826 1511.98 3.25471 1511.2 4.47962C1510.41 5.70448 1510.06 7.15702 1510.2 8.60512" stroke="#564499" stroke-miterlimit="10" stroke-linecap="round"/>
<path d="M1520.41 17.397C1520.27 15.8314 1519.76 14.3226 1518.91 13.0007C1518.06 11.6788 1516.9 10.5835 1515.53 9.8094C1508.64 5.95596 1499.81 13.4406 1502.28 20.8548C1503.15 23.4346 1505.21 25.3098 1507.56 26.5564C1511.9 28.8598 1517.97 28.7243 1520.03 23.5322L1520.06 23.4509C1520.06 23.4509 1520.96 27.9981 1525.74 28.1661C1526.35 28.2095 1526.97 28.1168 1527.55 27.8951C1528.12 27.6729 1528.65 27.3266 1529.07 26.8809C1529.5 26.4352 1529.83 25.9008 1530.03 25.3155C1530.22 24.7303 1530.29 24.1085 1530.22 23.4942C1534.33 27.7217 1535.41 34.0411 1533.48 39.5204C1533.83 38.5341 1536.19 38.7129 1536.87 38.9405C1539.81 39.9649 1541.37 43.4389 1540.72 46.3872C1540.11 49.1459 1537.98 51.4764 1535.66 53.1673C1535.46 53.3045 1535.3 53.4876 1535.19 53.7006C1535.08 53.9142 1535.02 54.1516 1535.02 54.3922C1535.02 54.6328 1535.08 54.8702 1535.19 55.0832C1535.3 55.2968 1535.46 55.4799 1535.66 55.6171C1537.87 57.0365 1540.49 57.6847 1543.1 57.4598C1546.27 57.1985 1549.21 55.6886 1551.27 53.2616C1553.33 50.8347 1554.34 47.6896 1554.08 44.5174L1554.05 44.3657C1556.14 43.9272 1558.03 42.8005 1559.41 41.1648C1560.79 39.5291 1561.58 37.4788 1561.66 35.3413C1561.73 33.2037 1561.09 31.1009 1559.84 29.3693C1558.58 27.6378 1556.78 26.3766 1554.73 25.7868C1555.34 24.6718 1555.62 23.3983 1555.51 22.1285C1555.36 20.4057 1554.53 18.8119 1553.21 17.695C1551.89 16.578 1550.18 16.0286 1548.46 16.1667" stroke="#564499" stroke-linecap="round" stroke-linejoin="round"/>
<path d="M1522.93 4.17687C1524.23 2.00898 1525.67 0.794955 1528.35 0.572746C1530.01 0.436765 1531.68 0.824438 1533.11 1.68152C1534.55 2.53859 1535.67 3.82226 1536.34 5.35295C1536.25 5.14158 1538.43 4.14977 1538.65 4.06306C1539.52 3.73094 1540.43 3.53002 1541.36 3.46689C1543.84 3.33372 1546.27 4.16137 1548.15 5.77705C1550.03 7.39278 1551.21 9.67172 1551.45 12.1385C1551.57 13.588 1551.34 15.0452 1550.8 16.393" stroke="#564499" stroke-linecap="square" stroke-linejoin="round"/>
<path d="M1409.97 246.953C1409.92 234.645 1422.01 231.334 1427.81 231.442C1463.71 232.125 1469.04 174.162 1469.04 174.162" stroke="#564499" stroke-linecap="round" stroke-linejoin="round"/>
<path d="M1355.07 260.228H1326.89" stroke="#564499" stroke-linecap="round" stroke-linejoin="round"/>
<path d="M1456.03 260.228H1402.11" stroke="#564499" stroke-linecap="round" stroke-linejoin="round"/>
<path d="M1394.38 260.228H1362.55" stroke="#564499" stroke-linecap="round" stroke-linejoin="round"/>
<path d="M1393.56 246.953H1362.09" stroke="#564499" stroke-linecap="round" stroke-linejoin="round"/>
<path d="M1418.64 246.953H1401.65" stroke="#564499" stroke-linecap="round" stroke-linejoin="round"/>
<path d="M1461.83 246.953H1429.01" stroke="#564499" stroke-linecap="round" stroke-linejoin="round"/>
<path d="M1354.22 246.953H1348.66" stroke="#564499" stroke-linecap="round" stroke-linejoin="round"/>
<path d="M1392.52 245.762H1399.8C1399.8 245.762 1408.14 253.636 1399.8 262.649V268.947H1392.52" stroke="#564499" stroke-linecap="round" stroke-linejoin="round"/>
<path d="M1360.47 245.762C1360.47 245.762 1368.81 253.636 1360.47 262.649V268.947" stroke="#564499" stroke-linecap="round" stroke-linejoin="round"/>
<path d="M1360.47 268.947H1353.19V262.649C1361.53 253.636 1353.19 245.762 1353.19 245.762H1360.47" stroke="#564499" stroke-linecap="round" stroke-linejoin="round"/>
<path d="M1392.52 245.762C1392.52 245.762 1400.87 253.636 1392.52 262.649V268.947" stroke="#564499" stroke-linecap="round" stroke-linejoin="round"/>
<path d="M1353.19 262.649H1360.47" stroke="#564499" stroke-linecap="round" stroke-linejoin="round"/>
<path d="M1392.52 262.649H1399.8" stroke="#564499" stroke-linecap="round" stroke-linejoin="round"/>
<path d="M1420.58 242.933C1419.65 244.118 1418.99 245.49 1418.64 246.954C1418.18 249.117 1418 251.331 1418.12 253.539C1418.15 255.707 1418.43 257.929 1420.49 259.068C1423.58 260.796 1427.3 258.325 1427.46 254.781C1427.64 252.116 1428.16 249.485 1429.01 246.954C1429.04 246.83 1429.08 246.721 1429.11 246.618" stroke="#564499" stroke-linecap="round" stroke-linejoin="round"/>
<path d="M1429.11 246.602C1431.69 246.06 1435.54 244.646 1437.49 240.998" stroke="#564499" stroke-linecap="round" stroke-linejoin="round"/>
<path d="M1411.51 260.228C1411.51 260.228 1413.54 265.572 1418.64 266.222C1423.74 266.873 1420.51 260.228 1420.51 260.228C1420.51 260.228 1422.63 264.911 1425.18 265.068C1427.74 265.225 1429.95 262.9 1429.07 260.228C1429.07 260.228 1429.85 264.526 1433.63 264.054C1437.42 263.583 1435.86 260.228 1435.86 260.228" stroke="#564499" stroke-linecap="round" stroke-linejoin="round"/>
<g opacity="0.54">
<path opacity="0.54" d="M1353.36 336.327H1353.33C1353.33 336.327 1353.29 336.11 1353.24 335.698C1353.28 335.865 1353.32 336.035 1353.33 336.207C1353.36 336.251 1353.36 336.3 1353.36 336.327Z" fill="#3FBDF1" stroke="#564499"/>
</g>
<path d="M1387.43 333.78C1388.69 326.75 1399.11 322.583 1401.05 315.727C1402.26 311.483 1401.17 306.589 1401.61 302.221C1402.13 297.283 1403.12 292.407 1404.57 287.658C1389.23 286.736 1373.64 293.739 1368.68 303.798C1366.23 308.741 1366.15 314.193 1365.07 319.407V319.77H1365.05C1364.31 323.065 1363.17 326.214 1360.72 329.097C1358.46 331.764 1355.22 333.969 1352.38 336.37C1352.55 337.518 1352.24 342.02 1352.32 344.635C1352.4 347.25 1350.44 352.071 1351.99 362.123C1353.55 372.175 1354.28 369.233 1354.2 374.3C1354.13 378.353 1350.5 385.923 1348.7 389.202C1351.1 393.202 1354.03 396.909 1356.6 399.017C1356.88 398.947 1357.16 398.849 1357.42 398.779C1357.88 398.642 1358.31 398.488 1358.75 398.327L1358.85 398.291C1366.63 395.505 1372.45 390.248 1374.22 384.357C1375.75 379.17 1374.37 373.582 1377.32 368.704C1380.96 362.694 1390.85 358.938 1392.06 352.147C1393.19 345.822 1386.31 340.007 1387.43 333.78Z" fill="#BBB4D6"/>
<path d="M1366.07 319.361C1366.07 319.48 1366.02 319.6 1365.99 319.724C1365.27 323.019 1364.13 326.168 1361.66 329.052C1359.4 331.718 1355.16 333.709 1352.33 336.104C1352.33 336.104 1352.33 336.028 1352.3 336.007C1352.28 335.835 1352.25 335.664 1352.2 335.497C1352.2 335.351 1352.16 335.205 1352.13 335.009C1352.13 334.917 1352.13 334.793 1352.09 334.673C1351.71 332.946 1352.07 331.506 1351.19 329.973C1348.33 325.052 1342.8 321.54 1339.49 316.841C1339.49 316.841 1340.99 292.073 1353.66 284.534C1365.7 277.407 1366.07 315.237 1366.07 319.361Z" fill="#BBB4D6"/>
<path d="M1353.33 336.229V336.348C1353.33 336.348 1353.29 336.131 1353.24 335.719C1353.28 335.886 1353.32 336.056 1353.33 336.229Z" fill="#3FBDF1" stroke="#564499"/>
<path d="M1352.21 336.354C1355.03 333.947 1358.3 331.714 1360.57 329.053C1366.92 321.552 1364.48 311.97 1368.55 303.748C1373.51 293.7 1389.15 286.698 1404.45 287.619C1402.99 292.366 1402 297.243 1401.48 302.182C1401.03 306.578 1402.12 311.477 1400.94 315.731C1398.99 322.582 1388.58 326.739 1387.31 333.774C1386.19 339.996 1393.09 345.811 1391.94 352.136C1390.73 358.927 1380.85 362.677 1377.21 368.688C1374.24 373.565 1375.64 379.153 1374.1 384.351C1372.23 390.616 1365.77 396.155 1357.3 398.762C1357.03 398.854 1356.75 398.946 1356.46 399.017C1353.89 396.908 1350.96 393.207 1348.55 389.201" stroke="#564499" stroke-miterlimit="10"/>
<path d="M1395.09 295.498C1372.22 320.109 1361.49 372.003 1357.29 398.772C1356.94 401.032 1356.64 403.107 1356.37 404.961" stroke="#564499" stroke-miterlimit="10"/>
<path d="M1397.2 420.034L1386.66 482.111C1386.41 483.813 1385.57 485.372 1384.28 486.509C1382.99 487.647 1381.33 488.289 1379.61 488.322H1324.68C1322.95 488.284 1321.28 487.628 1319.99 486.471C1318.7 485.314 1317.86 483.733 1317.63 482.014L1307.93 420.034H1397.2Z" stroke="#564499" stroke-miterlimit="10"/>
<path d="M1407.19 413.119C1406.89 417.032 1403.79 420.045 1400.07 420.045H1305.23C1301.55 420.045 1298.48 417.097 1298.12 413.227C1297.72 408.805 1301.02 404.973 1305.23 404.973H1400.07C1404.25 404.973 1407.53 408.729 1407.19 413.119Z" stroke="#564499" stroke-miterlimit="10"/>
<path d="M1342.34 397.915C1346.41 393.872 1351.39 384.875 1353.61 377.521C1355.42 371.456 1352.22 365.218 1351.49 359.002C1350.34 349.246 1355.18 338.791 1350.08 329.968C1347.24 325.047 1341.71 321.546 1338.39 316.831C1332.28 308.159 1334.63 297.049 1330.72 287.526C1325.96 275.868 1310.96 267.766 1296.23 268.823C1297.63 274.359 1298.59 280.002 1299.08 285.694C1299.52 290.783 1298.47 296.452 1299.62 301.411C1301.49 309.362 1311.48 314.175 1312.71 322.321C1313.79 329.524 1307.17 336.26 1308.26 343.593C1309.43 351.457 1318.91 355.804 1322.41 362.768C1325.26 368.426 1323.93 374.908 1325.41 380.914C1327.26 388.414 1333.82 395.005 1342.34 397.915Z" stroke="#564499" stroke-miterlimit="10"/>
<path d="M1305.22 277.96C1327.17 306.468 1337.5 366.573 1341.53 397.601C1341.88 400.311 1342.19 402.755 1342.43 404.961" stroke="#564499" stroke-miterlimit="10"/>
<path d="M1338.39 316.832C1338.39 316.832 1339.9 292.063 1352.56 284.53C1365.23 276.996 1364.98 319.227 1364.98 319.227" stroke="#564499" stroke-miterlimit="10"/>
<path d="M1352.21 336.353C1352.21 336.353 1349.62 322.18 1354.15 308.252" stroke="#564499" stroke-miterlimit="10"/>
<path d="M1643.73 260.228H1596.32" stroke="#564499" stroke-linecap="round" stroke-linejoin="round"/>
<path d="M1644.5 246.953H1597.84" stroke="#564499" stroke-linecap="round" stroke-linejoin="round"/>
<path d="M1311.78 488.322H1613.75" stroke="#564499" stroke-miterlimit="10"/>
</svg>
