<svg width="531" height="376" viewBox="0 0 531 376" fill="none" xmlns="http://www.w3.org/2000/svg">
<g clip-path="url(#clip0_156_295)">
<path opacity="0.1" d="M64.939 159.031C109.899 56.9999 228.953 10.6877 330.854 55.59C432.756 100.492 478.916 219.606 433.956 321.637C388.997 423.669 348.323 292.103 246.422 247.2C144.521 202.298 19.9793 261.063 64.939 159.031Z" fill="white"/>
<path d="M157.483 221.895C157.483 221.895 133.661 214.234 128.758 194.882C128.758 194.882 148.223 185.39 145.117 164.505C144.062 157.66 138.611 147.831 144.531 147.597C150.391 147.363 163.227 149.586 167.857 144.321C171.432 140.226 170.612 136.95 170.612 136.95C170.612 136.95 170.787 142.8 184.092 146.193C184.092 146.193 185.791 154.442 183.564 163.51C181.337 172.578 176.238 181.821 165.513 181.353L157.483 221.895Z" fill="white" stroke="#564499"/>
<path d="M220.136 206.802L218.437 276.536C251.844 293.327 315.611 318.19 318.131 210.604C318.131 210.604 315.083 182.348 323.054 178.662C331.084 174.976 343.978 163.334 327.333 135.078L338.175 124.255C339.641 122.734 340.461 120.745 340.403 118.639C340.344 116.533 339.524 114.543 338 113.081C336.476 111.618 334.483 110.799 332.373 110.858C330.263 110.916 328.271 111.735 326.805 113.256L305.237 136.072C305.237 136.072 302.131 130.222 296.563 133.264C291.054 136.306 270.716 149.235 279.918 176.263L255.947 245.062C256.357 216.221 220.136 206.802 220.136 206.802Z" fill="white" stroke="#564499"/>
<path d="M34.1106 287.301C34.1106 287.301 45.4222 226.985 112.178 201.712C112.178 201.712 122.552 197.734 128.823 194.458C129.585 200.249 136.325 206.685 138.494 206.626C150.86 206.802 156.311 206.685 156.311 206.685C161.351 206.743 163.227 192.527 163.227 192.527C172.428 192.469 217.03 200.542 239.419 214.524C239.419 214.524 219.843 250.62 230.334 282.153L219.375 277.063C219.375 277.063 226.056 339.134 216.62 373.826H54.0964C54.0964 373.884 68.5728 327.96 34.1106 287.301Z" fill="white"/>
<path d="M34.1106 287.301C34.1106 287.301 45.4222 226.985 112.178 201.712C112.178 201.712 122.552 197.734 128.823 194.458C129.585 200.249 136.325 206.685 138.494 206.626C150.86 206.802 156.311 206.685 156.311 206.685C161.351 206.743 163.227 192.527 163.227 192.527C172.428 192.469 217.03 200.542 239.419 214.524C239.419 214.524 219.843 250.62 230.334 282.153L219.375 277.063C219.375 277.063 226.056 339.134 216.62 373.826H54.0964C54.0964 373.884 68.5728 327.96 34.1106 287.301Z" fill="#564499" fill-opacity="0.4"/>
<path d="M218.378 265.363C218.378 265.363 218.906 271.505 219.375 277.063L218.378 265.363Z" fill="#564499" fill-opacity="0.4"/>
<path d="M219.375 277.063L230.334 282.153C219.843 250.62 239.419 214.524 239.419 214.524C217.03 200.542 172.428 192.469 163.227 192.527C163.227 192.527 161.351 206.743 156.311 206.685C156.311 206.685 150.86 206.802 138.494 206.626C136.325 206.685 129.585 200.249 128.823 194.458C122.552 197.734 112.178 201.712 112.178 201.712C45.4222 226.985 34.1106 287.301 34.1106 287.301C68.5728 327.96 54.0964 373.884 54.0964 373.826H216.62C226.056 339.134 219.375 277.063 219.375 277.063ZM219.375 277.063C218.906 271.505 218.378 265.363 218.378 265.363" stroke="#564499"/>
<path d="M94.7712 262.847V290.811" stroke="#564499" stroke-miterlimit="10"/>
<path d="M305.237 136.072C305.237 136.072 310.981 144.789 298.731 153.74" stroke="#564499" stroke-miterlimit="10"/>
<path d="M330.908 141.864C330.908 141.864 334.483 153.096 320.065 160.351C314.966 162.925 309.34 157.543 311.743 152.336C311.801 152.277 311.801 152.16 311.86 152.102" stroke="#564499" stroke-miterlimit="10"/>
<path d="M335.304 155.729C335.304 155.729 332.139 166.669 323.523 167.196C317.755 167.55 317.059 163.177 317.061 161.031" stroke="#564499" stroke-miterlimit="10"/>
<path d="M187.139 145.316C187.198 144.965 169.029 145.082 170.846 135.429C171.08 137.125 170.963 138.822 170.436 140.402C170.318 140.694 170.201 141.045 170.084 141.338C168.912 144.087 166.45 146.427 162.406 147.012C161.41 147.129 160.355 147.188 159.3 147.129C156.369 146.954 153.849 146.778 151.681 146.72C144.472 146.427 141.893 146.954 142.713 151.576C143.182 153.682 143.768 155.729 144.589 157.718C145.996 161.462 146.992 167.956 145.527 175.093V175.152C143.827 183.401 138.435 189.778 126.889 195.745C124.838 196.798 122.669 197.909 120.501 198.67C100.573 206.1 52.7482 224.645 32.9383 293.444C30.8284 300.756 29.2459 307.426 28.1323 313.51L27.6049 313.217C14.0661 305.144 5.21611 286.95 7.91214 271.33C9.26015 263.549 14.3005 258.167 20.8062 254.072C25.3777 251.264 30.2423 248.923 34.3449 245.472C47.8837 233.947 37.0409 215.987 44.5429 202.18C52.9827 186.677 66.2284 177.083 83.5181 176.322C87.8552 176.498 92.7784 177.024 97.5257 176.79C104.442 177.024 111.475 176.498 116.515 171.993C120.501 168.483 121.321 162.749 122.845 158.011C124.545 152.629 125.951 147.188 127.065 141.63C128.12 136.365 129.995 131.334 132.75 126.771C135.68 121.798 139.842 117.644 144.823 114.661C149.16 112.203 154.025 110.799 159.007 110.448C163.52 110.741 167.974 112.028 171.901 114.31C173.249 115.129 174.538 116.006 175.71 117.059C184.385 124.372 187.315 134.142 187.139 145.316Z" fill="#2C0CAD"/>
<path d="M319.831 166.552C319.831 166.552 317.018 170.004 318.541 173.28C320.065 176.556 323.875 177.317 327.567 175.912" stroke="#564499" stroke-miterlimit="10"/>
<path d="M327.391 135.078L319.655 142.8" stroke="#564499" stroke-miterlimit="10"/>
<path d="M121.614 268.873L127.885 214.758C128.12 212.593 129.175 210.546 130.816 209.083C132.457 207.621 134.567 206.802 136.794 206.802H194.583C195.872 206.802 197.103 207.094 198.275 207.562C199.447 208.089 200.444 208.849 201.323 209.785C202.143 210.721 202.788 211.833 203.198 213.003C203.609 214.231 203.726 215.46 203.609 216.747L195.169 294.731C194.934 296.954 193.88 299.001 192.238 300.464C190.597 301.926 188.429 302.745 186.202 302.745H165.513" fill="#564499"/>
<path d="M189.971 220.952C191.26 220.952 192.315 219.899 192.315 218.612C192.315 217.325 191.26 216.272 189.971 216.272C188.681 216.272 187.626 217.325 187.626 218.612C187.626 219.899 188.681 220.952 189.971 220.952Z" fill="white"/>
<path d="M477.079 246.515L528.597 114.767C529.242 112.193 529.3 109.561 528.714 106.986C528.187 104.412 527.014 102.014 525.432 99.9077C523.791 97.8601 521.74 96.1635 519.395 94.9935C517.051 93.8234 514.413 93.2384 511.776 93.2384H307.171C302.6 93.2384 298.087 94.7595 294.511 97.6261C290.878 100.493 288.357 104.412 287.303 108.917L230.92 240.664C230.334 243.18 230.276 245.871 230.862 248.387C231.448 250.961 232.561 253.359 234.203 255.407C235.844 257.454 237.895 259.093 240.239 260.263C242.584 261.433 245.162 262.018 247.8 262.018H457.328C461.9 262.018 466.295 260.497 469.929 257.689C473.446 254.88 476.024 250.961 477.079 246.515Z" fill="url(#paint0_linear_156_295)"/>
<path d="M326.395 116.288C328.915 112.544 333.018 110.848 335.538 112.544C338.058 114.241 338.117 118.628 335.597 122.373C335.186 122.958 334.776 123.484 334.307 124.011L352.886 163.09C355.817 161.101 359.099 160.633 361.443 162.154C362.967 163.149 363.788 164.845 364.081 166.834L376.74 162.564L387.818 158.878C388.99 158.469 390.221 158.059 391.451 157.708C391.92 156.362 392.565 155.075 393.327 153.847C396.843 148.582 402.587 146.242 406.162 148.582C409.737 150.922 409.796 157.065 406.397 162.271L427.496 191.054C432.068 187.31 437.518 186.14 441.269 188.597C446.368 191.99 446.427 200.824 441.445 208.371C441.269 208.664 441.035 208.898 440.8 209.19L454.867 228.379C454.925 228.437 454.984 228.496 454.984 228.554C455.335 229.081 455.57 229.666 455.687 230.309C455.804 230.953 455.804 231.596 455.687 232.24C455.57 232.884 455.335 233.469 454.925 233.995C454.574 234.522 454.105 234.99 453.577 235.341C453.05 235.692 452.464 235.926 451.819 236.043C451.174 236.16 450.529 236.16 449.885 236.043C449.24 235.926 448.654 235.692 448.127 235.282C447.599 234.931 447.13 234.463 446.779 233.937L434.295 215.333C430.368 217.614 426.148 218.082 423.042 216.035C418.177 212.817 417.943 204.568 422.28 197.314L402.06 166.834C399.071 168.882 395.788 169.35 393.444 167.829C392.096 166.893 391.217 165.489 390.924 163.909C390.396 164.026 389.928 164.202 389.4 164.319L378.147 167.361L363.729 171.222C363.26 172.977 362.557 174.615 361.561 176.078C358.044 181.343 352.3 183.683 348.725 181.343C345.15 178.944 345.091 172.743 348.608 167.478C349.135 166.717 349.722 166.015 350.366 165.313L332.725 125.473C330.615 126.936 328.271 127.287 326.571 126.175C323.934 124.479 323.934 120.091 326.395 116.288Z" fill="white"/>
<path d="M460.728 118.453H488.098C489.329 118.453 490.56 118.102 491.615 117.4C492.67 116.698 493.49 115.762 494.018 114.592C494.193 114.241 494.252 113.89 494.252 113.48C494.252 112.72 493.959 112.018 493.432 111.491C492.904 110.965 492.201 110.672 491.439 110.672H462.31C463.717 113.012 463.013 116.23 460.728 118.453Z" fill="white"/>
<path d="M443.086 115.645C443.086 116.405 443.379 117.107 443.907 117.634C444.434 118.16 445.137 118.453 445.899 118.453H460.786C463.072 116.171 463.775 113.012 462.369 110.672H449.24C448.009 110.672 446.779 111.023 445.724 111.725C444.669 112.427 443.848 113.363 443.321 114.533C443.145 114.884 443.086 115.294 443.086 115.645Z" fill="#EF3922"/>
<path d="M449.885 118.453C449.943 118.628 450.06 118.745 450.178 118.862C452.112 121.554 456.332 121.788 459.672 119.389C460.083 119.096 460.434 118.804 460.786 118.453C463.072 116.171 463.775 113.012 462.368 110.672C462.31 110.497 462.193 110.38 462.075 110.263C460.141 107.572 455.921 107.338 452.639 109.736C452.229 110.029 451.877 110.321 451.526 110.672C449.24 112.954 448.537 116.171 449.885 118.453Z" fill="white"/>
<path d="M436.17 132.786C436.17 133.546 436.463 134.248 436.991 134.775C437.518 135.302 438.221 135.594 438.983 135.594H467.702C466.295 133.254 466.999 130.095 469.284 127.813H442.324C441.093 127.813 439.863 128.164 438.808 128.866C437.753 129.568 436.932 130.504 436.405 131.674C436.287 132.025 436.17 132.435 436.17 132.786Z" fill="#EF3922"/>
<path d="M467.702 135.594H481.182C482.413 135.594 483.644 135.243 484.699 134.541C485.754 133.839 486.574 132.903 487.102 131.733C487.278 131.382 487.336 130.972 487.336 130.621C487.336 130.27 487.278 129.861 487.102 129.568C486.926 129.276 486.75 128.925 486.516 128.632C486.281 128.398 485.93 128.164 485.578 128.047C485.226 127.93 484.875 127.813 484.523 127.813H469.285C466.999 130.095 466.354 133.312 467.702 135.594Z" fill="white"/>
<path d="M467.702 135.594C467.761 135.77 467.819 135.887 467.936 136.004C469.871 138.695 474.09 138.929 477.373 136.53C477.783 136.238 478.134 135.945 478.486 135.594C480.713 133.312 481.417 130.153 480.069 127.813C480.01 127.638 479.893 127.521 479.776 127.404C477.841 124.713 473.563 124.479 470.281 126.877C469.871 127.17 469.519 127.462 469.167 127.813C466.999 130.095 466.354 133.312 467.702 135.594Z" fill="white"/>
<path d="M458.149 152.618H475.321C476.552 152.618 477.783 152.267 478.838 151.565C479.893 150.863 480.713 149.927 481.241 148.757C481.417 148.406 481.475 147.997 481.475 147.646C481.475 146.885 481.182 146.183 480.655 145.656C480.127 145.13 479.424 144.837 478.662 144.837H459.731C461.079 147.177 460.434 150.337 458.149 152.618Z" fill="#EF3922"/>
<path d="M430.309 149.869C430.309 150.629 430.602 151.331 431.13 151.858C431.657 152.384 432.361 152.677 433.123 152.677H458.149C460.434 150.395 461.079 147.236 459.731 144.896H436.405C435.174 144.896 433.943 145.247 432.888 145.949C431.833 146.651 431.013 147.587 430.485 148.757C430.368 149.05 430.309 149.459 430.309 149.869Z" fill="white"/>
<path d="M447.306 152.618C447.365 152.794 447.482 152.911 447.599 153.028C449.533 155.719 453.753 155.953 457.035 153.554C457.445 153.262 457.797 152.969 458.149 152.618C460.435 150.337 461.079 147.178 459.731 144.837C459.673 144.662 459.555 144.545 459.438 144.428C457.504 141.795 453.284 141.561 449.943 143.901C449.533 144.194 449.182 144.486 448.83 144.837C446.661 147.119 445.899 150.337 447.306 152.618Z" fill="white"/>
<path d="M347.025 232.942H364.198C365.429 232.942 366.66 232.591 367.714 231.889C368.769 231.187 369.59 230.251 370.117 229.081C370.293 228.671 370.411 228.203 370.352 227.735C370.293 227.267 370.176 226.799 369.883 226.448C369.649 226.039 369.297 225.746 368.828 225.512C368.418 225.278 367.949 225.161 367.48 225.161H348.549C349.956 227.501 349.253 230.66 347.025 232.942Z" fill="#EF3922"/>
<path d="M278.804 230.134C278.804 230.485 278.863 230.836 279.039 231.187C279.156 231.538 279.391 231.83 279.625 232.064C279.859 232.298 280.211 232.532 280.563 232.649C280.914 232.766 281.266 232.883 281.618 232.883H347.026C349.311 230.602 349.956 227.443 348.608 225.103H284.958C283.728 225.103 282.497 225.454 281.442 226.156C280.387 226.858 279.566 227.794 279.039 228.964C278.863 229.373 278.804 229.724 278.804 230.134Z" fill="white"/>
<path d="M336.183 232.942C336.241 233.118 336.359 233.235 336.476 233.352C338.41 236.043 342.63 236.277 345.912 233.878C346.322 233.586 346.674 233.293 347.026 232.942C349.311 230.66 349.956 227.501 348.608 225.161C348.549 224.986 348.432 224.869 348.315 224.752C346.381 222.119 342.102 221.885 338.82 224.225C338.41 224.518 338.058 224.81 337.707 225.161C335.48 227.443 334.835 230.602 336.183 232.942Z" fill="white"/>
<path d="M28.1324 317.02C25.9639 316.143 23.8539 315.148 21.8026 313.919C8.26387 305.846 -0.586136 287.652 2.10989 272.032C3.4579 264.251 8.4983 258.869 15.0625 254.774C19.6341 251.965 24.4986 249.625 28.6013 246.174C42.14 234.649 31.2973 216.689 38.7993 202.882C47.8837 186.15 62.5361 176.322 81.8771 176.965C91.1374 177.258 103.152 179.423 110.713 172.636C114.698 169.126 115.519 163.393 117.043 158.654C118.742 153.272 120.149 147.831 121.263 142.274C122.259 137.008 124.193 131.977 126.889 127.414C129.82 122.441 133.981 118.288 138.963 115.304C148.34 109.922 161.41 109.395 170.846 114.953C172.194 115.772 173.483 116.65 174.656 117.644C183.388 125.132 187.55 137.652 187.374 148.884" stroke="#564499" stroke-miterlimit="10"/>
<path d="M169.674 135.195C170.143 138.471 172.194 141.513 175.769 142.449C179.813 143.502 181.923 147.422 183.095 151.341C184.736 157.133 184.326 163.276 181.923 168.775C179.696 173.982 175.769 179.891 169.146 180.827C157.014 182.582 150.978 177.434 150.978 177.434" stroke="#564499" stroke-miterlimit="10"/>
<path d="M159.534 152.804C160.707 152.804 161.644 151.868 161.644 150.698C161.644 149.528 160.707 148.592 159.534 148.592C158.362 148.592 157.425 149.528 157.425 150.698C157.483 151.868 158.421 152.804 159.534 152.804Z" fill="#564499"/>
<path d="M177.938 151.4C179.11 151.4 180.048 150.464 180.048 149.294C180.048 148.124 179.11 147.188 177.938 147.188C176.766 147.188 175.828 148.124 175.828 149.294C175.828 150.464 176.766 151.4 177.938 151.4Z" fill="#564499"/>
<path d="M168.56 151.224C168.56 151.224 170.729 159.239 170.553 160.409C170.319 161.579 167.505 160.702 167.505 160.702" stroke="#564499" stroke-miterlimit="10"/>
<path d="M167.036 168.015C162.816 170.296 157.952 168.834 156.076 165.089" stroke="#564499" stroke-miterlimit="10"/>
<path d="M162.934 159.239C166.861 155.554 167.095 149.469 163.52 145.667C159.886 141.864 153.791 141.747 149.923 145.433C145.996 149.118 145.761 155.203 149.336 159.005C152.912 162.808 159.007 162.925 162.934 159.239Z" stroke="url(#paint1_linear_156_295)" stroke-miterlimit="10"/>
<path d="M187.257 157.016C191.183 153.331 191.418 147.246 187.843 143.444C184.209 139.641 178.114 139.524 174.245 143.21C170.318 146.895 170.084 152.98 173.659 156.782C177.234 160.585 183.33 160.702 187.257 157.016Z" stroke="url(#paint2_linear_156_295)" stroke-miterlimit="10"/>
<path d="M165.981 151.458L171.08 150.99" stroke="#564499" stroke-miterlimit="10"/>
<path opacity="0.4" d="M186.319 156.022C189.66 152.863 189.894 147.656 186.788 144.38C183.682 141.104 178.465 141.045 175.125 144.204C171.784 147.363 171.549 152.57 174.656 155.846C177.762 159.122 182.978 159.181 186.319 156.022Z" fill="url(#paint3_linear_156_295)"/>
<path opacity="0.4" d="M163.754 158.596C167.154 155.378 167.329 150.113 164.223 146.837C161.117 143.561 155.842 143.444 152.443 146.661C149.043 149.879 148.868 155.144 151.974 158.42C155.08 161.696 160.355 161.813 163.754 158.596Z" fill="url(#paint4_linear_156_295)"/>
<path d="M171.198 255.71C172.311 250.386 169.322 245.238 164.575 244.302C159.827 243.366 155.08 246.876 154.025 252.258C152.912 257.582 155.901 262.73 160.648 263.666C165.337 264.602 170.084 261.092 171.198 255.71Z" fill="white"/>
<path d="M36.3377 278.818C36.3377 278.818 53.2172 252.2 94.5367 281.217L94.7712 290.811C94.7712 290.811 111.533 271.154 122.845 268.58C134.157 266.006 142.655 263.139 162.582 267.703C172.018 269.867 177.176 274.547 176.59 279.813C175.945 285.253 164.575 283.732 164.575 283.732C164.575 283.732 174.831 284.376 173.542 291.513C172.311 298.65 160.414 296.369 160.414 296.369C160.414 296.369 168.619 296.135 165.747 302.512C163.285 307.894 154.26 306.49 154.26 306.49C154.26 306.49 157.893 309.707 153.849 312.398C149.278 315.441 145.351 313.568 136.794 315.616C128.237 317.664 125.424 319.828 121.263 323.163C117.101 326.497 108.193 335.624 99.9288 348.026C91.6649 360.37 83.2251 373.065 61.3053 373.416C39.3854 373.767 31.1801 365.636 27.0188 351.536C22.8576 337.437 25.495 319.887 28.2496 307.192C31.0629 294.438 36.3377 278.818 36.3377 278.818Z" fill="white" stroke="#564499"/>
<path d="M162.055 296.603C162.055 296.603 167.388 296.544 166.099 301.459C163.989 309.649 147.52 305.963 139.842 304.208" stroke="#564499" stroke-miterlimit="10"/>
<path d="M150.977 281.451C157.073 282.796 158.304 282.855 164.223 283.732C167.974 284.317 176.472 284.727 176.648 278.994C176.765 273.904 171.08 270.92 167.036 269.341C162.406 267.586 157.542 266.416 152.56 265.948C150.509 265.714 148.457 265.538 146.406 265.48C132.105 264.894 115.695 268.346 105.848 279.462C83.1079 305.261 52.8069 321.817 52.8069 321.817" stroke="#564499" stroke-miterlimit="10"/>
<path d="M167.271 284.025C170.201 285.253 175.183 287.886 173.132 292.976C172.194 295.316 170.553 296.135 168.208 296.486C163.227 297.188 157.893 296.135 152.97 295.14C151.153 294.789 147.93 294.087 146.171 293.561" stroke="#564499" stroke-miterlimit="10"/>
</g>
<defs>
<linearGradient id="paint0_linear_156_295" x1="230.404" y1="177.635" x2="529.136" y2="177.635" gradientUnits="userSpaceOnUse">
<stop stop-color="#EF3922"/>
<stop offset="1" stop-color="#564499"/>
</linearGradient>
<linearGradient id="paint1_linear_156_295" x1="146.453" y1="152.328" x2="166.313" y2="152.328" gradientUnits="userSpaceOnUse">
<stop stop-color="#EF3922"/>
<stop offset="1" stop-color="#564499"/>
</linearGradient>
<linearGradient id="paint2_linear_156_295" x1="170.794" y1="150.111" x2="190.654" y2="150.111" gradientUnits="userSpaceOnUse">
<stop stop-color="#EF3922"/>
<stop offset="1" stop-color="#564499"/>
</linearGradient>
<linearGradient id="paint3_linear_156_295" x1="180.724" y1="141.869" x2="180.724" y2="158.351" gradientUnits="userSpaceOnUse">
<stop stop-color="#EF3922"/>
<stop offset="1" stop-color="#564499"/>
</linearGradient>
<linearGradient id="paint4_linear_156_295" x1="158.089" y1="144.305" x2="158.089" y2="160.937" gradientUnits="userSpaceOnUse">
<stop stop-color="#EF3922"/>
<stop offset="1" stop-color="#564499"/>
</linearGradient>
<clipPath id="clip0_156_295">
<rect width="531" height="375" fill="white" transform="translate(0 0.512207)"/>
</clipPath>
</defs>
</svg>
