<svg width="461" height="545" viewBox="0 0 461 545" fill="none" xmlns="http://www.w3.org/2000/svg">
<path d="M237.143 95.0861C357.739 95.0861 455.5 192.723 455.5 313.164C455.5 433.604 357.739 531.242 237.143 531.242C206.932 531.242 191.589 525.115 185.312 514.314C182.168 508.905 181.252 502.254 181.95 494.457C182.649 486.658 184.959 477.755 188.224 467.879C191.282 458.629 195.168 448.55 199.332 437.75C199.613 437.021 199.895 436.288 200.179 435.553C204.66 423.924 209.413 411.489 213.757 398.402C222.446 372.227 229.509 343.419 229.509 313.164C229.509 282.909 222.446 254.101 213.757 227.926C209.413 214.838 204.66 202.404 200.179 190.775C199.896 190.04 199.613 189.307 199.332 188.578C195.168 177.778 191.282 167.699 188.224 158.449C184.959 148.573 182.649 139.67 181.95 131.871C181.252 124.074 182.168 117.423 185.312 112.014C191.589 101.213 206.932 95.0861 237.143 95.0861Z" stroke="#564499"/>
<path d="M106.858 325.749C106.858 325.749 108.442 302.35 112.068 280.619C115.687 258.888 115.053 241.116 132.118 220.696C149.19 200.277 149.323 168.345 147.667 155.957C146.011 143.562 140.409 138.643 133.829 139.23C127.248 139.81 126.003 147.345 126.269 154.12C126.71 165.172 127.737 175.023 118.878 174.461C107.65 173.741 103.299 164.665 106.387 150.258C108.164 141.979 121.295 129.385 111.028 123.354C101.414 117.698 91.2975 127.79 86.6141 134.74C81.9308 141.689 79.1718 154.302 79.1718 154.302C79.1718 154.302 67.7759 152.103 63.9439 162.2C63.1583 166.853 67.1428 172.029 67.1428 172.029C67.1428 172.029 56.6224 171.457 55.3896 180.739C54.3079 188.867 56.5378 190.632 56.5378 190.632C56.5378 190.632 50.7435 191.808 54.4046 200.73C58.0657 209.651 57.5349 208.199 57.5349 208.199C60.5444 215.408 61.0338 223.428 58.9127 230.945L52.2654 254.845L21.5424 366.884C20.9804 372.196 21.5606 377.568 23.2466 382.638C24.9326 387.708 27.6882 392.355 31.3201 396.271C34.958 400.187 39.3876 403.281 44.3187 405.336C49.2499 407.39 54.5617 408.369 59.9038 408.2L111.415 406.569L119.972 323.634C115.627 324.262 111.258 324.969 106.858 325.755V325.749Z" fill="white" stroke="#564499"/>
<path d="M429.727 468.885C429.002 445.281 424.258 421.562 415.895 400.961C413.091 393.987 409.755 387.243 405.905 380.783C405.887 380.735 405.857 380.692 405.815 380.662C401.071 372.57 395.264 365.156 388.55 358.611C380.519 350.979 371.514 344.44 361.773 339.164C361.767 339.158 361.755 339.158 361.749 339.158C361.743 339.158 361.731 339.158 361.725 339.164C355.53 335.774 349.107 332.837 342.49 330.378C336.042 327.973 325.007 325.187 318.317 323.567C316.601 323.138 258.267 318.056 258.267 318.056C252.224 318.122 246.181 318.171 240.205 318.219C199.051 318.431 160.696 317.724 119.978 323.628L111.421 406.563L185.34 404.218C185.34 404.218 174.281 476.723 197.631 543.088L415.804 543.783C415.895 543.547 416.553 542.417 416.644 542.181C418.058 539.105 419.345 535.939 420.499 532.693C427.449 513.368 430.386 491.172 429.727 468.879V468.885Z" fill="#BBB4D6" stroke="#564499"/>
<path d="M361.955 339.219C349.669 332.602 336.34 327.9 322.768 324.667L316.757 323.283C316.757 323.283 315.492 319.21 314.543 316.68C312.99 312.734 310.247 305.263 309.449 301.105C308.476 296.192 308.395 291.749 308.903 286.769C310.86 269.384 313.637 265.632 319.861 260.701C325.052 256.616 328.579 254.791 331.522 248.404C333.069 244.809 333.107 238.874 328.998 235.514C324.442 231.828 320.043 232.18 314.592 232.748C287.286 235.069 284.491 221.415 276.877 204.187C275.668 201.389 274.411 198.434 272.435 196.053C270.169 193.309 267.033 192.693 264.464 190.475C263.371 189.52 262.621 187.961 263.147 186.607C263.455 185.961 263.908 185.393 264.464 184.939C269.317 180.468 275.148 177.186 281.488 175.361C291.519 172.461 302.119 172.128 312.307 174.4C322.943 177.923 332.503 184.595 338.939 194.79C347.816 208.876 349.956 223.488 344.982 238.052C339.888 252.966 334.201 270.485 343.773 284.837C356.518 303.903 364.469 316.437 361.955 339.219Z" fill="#2C0CAD"/>
<path d="M239.848 261.499C243.057 294.573 262.401 295.334 262.401 295.334C262.401 295.334 260.358 307.734 258.243 318.962C257.935 320.558 257.639 322.129 257.373 323.682C255.989 331.242 254.883 337.962 254.835 339.998C254.484 356.919 270.48 366.678 285.932 366.515C307.615 366.28 320.293 346.108 318.251 325.906C316.915 322.22 315.549 318.533 314.214 314.847C312.498 310.121 310.268 305.523 309.301 300.543C308.449 295.636 308.352 290.626 309.023 285.695C309.893 278.323 311.325 267.33 317.55 262.399C322.741 258.314 328.161 255.631 331.122 249.244C333.237 244.687 333.141 238.819 329.031 235.459C324.475 231.773 317.266 232.22 311.815 232.758C276.656 236.354 270.806 200.766 261.295 195.769C253.499 191.653 247.649 200.887 245.818 204.313L245.746 204.458C245.746 204.495 245.728 204.525 245.704 204.549C245.371 205.153 245.208 205.558 245.208 205.558C245.208 205.558 236.639 228.419 239.848 261.499Z" fill="white" stroke="#564499"/>
<path d="M142.379 101.853C140.989 103.116 139.878 104.657 139.122 106.373C138.367 108.09 137.974 109.951 137.98 111.83V113.45C137.98 119.106 133.883 124.176 128.311 124.744C126.806 124.901 125.284 124.738 123.845 124.267C122.407 123.795 121.084 123.034 119.954 122.019C118.83 121.01 117.929 119.771 117.307 118.387C116.69 117.003 116.364 115.51 116.358 114V111.83C116.358 109.939 115.959 108.071 115.186 106.349C114.418 104.621 113.3 103.08 111.898 101.811C116.63 104.192 121.851 105.437 127.145 105.443C132.439 105.449 137.666 104.222 142.398 101.853H142.373H142.379Z" fill="#564499"/>
<path d="M262.401 295.334C262.401 295.334 260.358 307.734 258.243 318.962C252.2 319.029 246.157 319.077 240.18 319.125C237.159 302.12 240.44 288.801 244.338 279.924C249.251 291.128 256.672 294.536 262.401 295.334Z" fill="#2C0CAD"/>
<path d="M343.855 543.474V543.401C343.892 543.299 343.922 543.196 343.946 543.094" stroke="black" stroke-width="5.5" stroke-miterlimit="10"/>
<path d="M327.908 407.578C327.908 407.578 341.058 413.965 349.699 433.908C354.044 443.933 357.265 457.415 357.078 475.242V475.29C356.981 486.657 355.482 499.783 352.002 514.909V514.993" stroke="#564499" stroke-miterlimit="10"/>
<path d="M79.0483 154.41C81.3689 145.629 85.0914 136.577 87.8893 132.77C92.2887 126.847 98.0296 121.203 105.414 121.711C110.158 122.019 114.817 124.642 115.029 129.839C115.228 135.477 109.282 141.738 107.372 147.037C105.559 152.15 104.731 158.102 105.686 163.48C106.641 168.859 111.469 173.059 116.679 174.213C118.655 174.733 120.758 174.449 122.522 173.421C127.622 170.194 126.553 161.601 126.347 156.531C126.106 150.844 126.112 144.415 130.964 140.523C134.53 137.664 139.938 139.562 142.567 142.704C147.136 148.143 147.359 156.332 147.589 163.027C148.272 183.199 144.688 202.537 132.94 219.518C126.897 228.286 120.673 236.154 118.226 246.911C110.611 280.341 109.765 303.516 105.39 337.466" stroke="#564499" stroke-miterlimit="10"/>
<path d="M56.5405 190.72C55.3942 189.678 49.1422 166.858 75.9603 173.167C102.779 179.477 112.497 211.632 89.9984 208.006" stroke="#564499" stroke-miterlimit="10"/>
<path d="M66.944 171.783C66.944 171.783 57.5168 160.332 71.6092 154.863C85.7017 149.394 135.207 175.507 102.381 200.949" stroke="#564499" stroke-miterlimit="10"/>
<path d="M270.861 294.79C268.123 295.54 265.265 295.727 262.455 295.334C256.702 294.536 249.281 291.104 244.392 279.924C243.377 277.64 242.549 275.277 241.927 272.854C239.437 263.602 238.349 250.73 239.806 232.782C240.09 229.332 240.513 225.827 241.099 222.328C242.072 216.242 243.637 210.266 245.77 204.483C245.77 204.483 245.77 204.434 245.819 204.41C251.149 190.318 260.521 178.425 276.282 173.85C288.102 170.442 300.665 170.623 312.383 174.37C323.019 177.893 332.579 184.565 339.015 194.759C347.892 208.846 350.031 223.458 345.058 238.022C339.963 252.936 334.277 270.455 343.849 284.807C356.576 303.903 364.381 316.318 361.915 339.101" stroke="#564499" stroke-miterlimit="10"/>
<path d="M235.013 318.168C230.384 295.972 236.633 279.788 241.54 271.189" stroke="#564499" stroke-miterlimit="10"/>
<path d="M241.099 222.304C241.099 222.304 251.233 211.71 262.975 228.443" stroke="#564499" stroke-miterlimit="10"/>
<path d="M266.903 275.646C271.188 278.42 276.989 276.697 280.144 272.425C283.57 267.79 284.942 261.602 285.685 255.988C285.733 255.583 285.788 255.184 285.824 254.779C280.597 262.992 270.45 264.962 261.519 265.82C261.857 268.509 262.854 271.065 264.426 273.271C265.096 274.208 265.936 275.017 266.903 275.646Z" stroke="#564499" stroke-miterlimit="10"/>
<path d="M313.441 312.618L313.417 312.593" stroke="black" stroke-width="5.5" stroke-miterlimit="10"/>
<path d="M273.574 219.046C273.574 219.046 277.019 213.469 288.791 217.578C300.563 221.687 300.702 228.401 300.702 228.401" stroke="#564499" stroke-miterlimit="10"/>
<path d="M246.816 232.915C246.816 232.915 252.255 230.166 256.515 232.915" stroke="#564499" stroke-miterlimit="10"/>
<path d="M276.125 235.447C276.125 235.447 281.564 232.698 285.794 235.447" stroke="#564499" stroke-miterlimit="10"/>
<path d="M261.501 237.012C261.501 237.012 257.826 249.038 258.11 250.839C258.394 252.64 262.679 251.383 262.679 251.383" stroke="#564499" stroke-miterlimit="10"/>
<path d="M290.29 249.703C295.922 244.083 295.813 234.855 290.06 229.09C284.307 223.325 275.073 223.204 269.447 228.824C263.815 234.444 263.924 243.672 269.677 249.437C275.43 255.202 284.663 255.323 290.29 249.703Z" stroke="#564499" stroke-miterlimit="10"/>
<path d="M253.56 245.237C259.186 239.617 259.083 230.389 253.33 224.624C247.577 218.859 238.343 218.738 232.717 224.358C227.091 229.978 227.194 239.206 232.947 244.971C238.7 250.736 247.934 250.857 253.56 245.237Z" stroke="#564499" stroke-miterlimit="10"/>
<path d="M242.815 223.603C244.417 223.597 246.006 223.923 247.474 224.57C248.943 225.216 250.26 226.159 251.342 227.344C252.424 228.528 253.246 229.924 253.753 231.447C254.261 232.97 254.448 234.577 254.291 236.178C254.037 238.862 252.786 241.357 250.786 243.17C248.786 244.983 246.181 245.98 243.486 245.968C241.885 245.974 240.295 245.648 238.827 245.001C237.358 244.355 236.041 243.412 234.959 242.228C233.877 241.043 233.056 239.647 232.548 238.124C232.04 236.602 231.859 234.994 232.01 233.393C232.264 230.71 233.515 228.214 235.515 226.401C237.515 224.588 240.12 223.591 242.815 223.603ZM242.815 221.935C239.709 221.929 236.706 223.083 234.403 225.168C232.101 227.259 230.663 230.129 230.373 233.229C230.064 236.644 231.092 240.052 233.243 242.717C235.394 245.388 238.5 247.116 241.909 247.539C242.428 247.6 242.954 247.636 243.48 247.636C246.592 247.648 249.596 246.494 251.904 244.403C254.212 242.312 255.651 239.436 255.941 236.336C256.255 232.921 255.222 229.513 253.07 226.842C250.919 224.171 247.813 222.443 244.405 222.026C243.885 221.965 243.359 221.929 242.833 221.929H242.815V221.935Z" fill="white"/>
<path d="M265.356 237.484L257.645 236.547" stroke="#564499" stroke-miterlimit="10"/>
<path opacity="0.4" d="M289.111 248.518C294.103 243.539 294.012 235.351 288.906 230.244C283.805 225.132 275.623 225.029 270.632 230.009C265.64 234.988 265.731 243.176 270.831 248.283C275.931 253.395 284.114 253.498 289.105 248.518H289.111Z" fill="url(#paint0_linear_548_618)"/>
<path opacity="0.4" d="M252.381 244.053C257.373 239.067 257.282 230.885 252.182 225.766C247.075 220.654 238.893 220.545 233.895 225.531C228.904 230.516 228.995 238.698 234.095 243.817C239.201 248.929 247.384 249.038 252.381 244.053Z" fill="url(#paint1_linear_548_618)"/>
<path d="M125.308 34.062C107.783 34.9564 93.2796 49.0005 91.8837 66.477C91.4667 71.3538 92.071 76.2607 93.6543 80.8897C95.2376 85.5187 97.7756 89.767 101.093 93.3686C103.541 96.0578 106.393 98.3481 109.554 100.155C110.375 100.632 111.155 101.182 111.88 101.799C116.612 104.186 121.833 105.437 127.133 105.443C132.433 105.449 137.914 104.18 142.651 101.811C143.757 101.146 144.301 100.832 144.978 100.451C147.262 99.2969 150.93 95.9369 153.475 93.133C153.541 93.0423 153.608 92.9577 153.686 92.8731C158.303 87.6459 161.276 81.1737 162.225 74.2665C163.18 67.3593 162.068 60.3252 159.04 54.0404C156.013 47.7616 151.19 42.5102 145.19 38.9569C139.189 35.4036 132.275 33.6994 125.308 34.062ZM147.244 89.4225C147.178 89.4709 147.123 89.5373 147.081 89.6099C145.111 91.7672 142.809 93.6043 140.27 95.0486C139.636 95.3931 139.056 95.8221 138.53 96.3177C134.88 98.1427 130.849 99.0975 126.764 99.0975C122.679 99.0975 118.648 98.1487 114.998 96.3177C114.43 95.8342 113.826 95.4052 113.185 95.0244C108.303 92.2144 104.411 87.9661 102.042 82.8598C99.6732 77.7534 98.9359 72.0366 99.9451 66.4951C100.948 60.9536 103.643 55.8594 107.662 51.9132C111.675 47.9671 116.817 45.3565 122.371 44.444C127.924 43.5315 133.629 44.3594 138.699 46.8189C143.763 49.2785 147.945 53.2427 150.671 58.1678C153.396 63.0929 154.526 68.7432 153.916 74.3451C153.305 79.941 150.973 85.2105 147.244 89.4346V89.4225Z" stroke="#564499" stroke-miterlimit="10"/>
<path d="M63.8557 544C68.1342 541.994 460.613 544 460.613 544" stroke="#564499" stroke-miterlimit="10"/>
<path d="M127.132 21.414L126.782 0.124268" stroke="#564499" stroke-miterlimit="10"/>
<path d="M86.5298 41.2171L71.7908 25.8496" stroke="#564499" stroke-miterlimit="10"/>
<path d="M167.887 42.172L182.953 27.1248" stroke="#564499" stroke-miterlimit="10"/>
<path d="M393.741 514.957L394.255 515.005C393.977 515.054 393.65 515.102 393.366 515.169H392.931L352.014 514.957H347.391L278.645 514.607H277.865C277.805 514.619 277.738 514.619 277.678 514.607H277.636C277.2 514.607 276.771 514.582 276.342 514.516C280.016 514.099 283.503 512.655 286.392 510.34C286.845 509.959 287.31 509.597 287.733 509.186L287.782 509.138C287.878 509.059 287.975 508.968 288.06 508.878C291.553 505.421 293.644 500.798 293.934 495.891V494.785C293.916 490.205 292.314 485.775 289.413 482.234C286.513 478.693 282.476 476.257 277.986 475.339C277.98 475.339 277.974 475.333 277.962 475.333C277.95 475.333 277.944 475.333 277.938 475.339C277.49 475.224 276.977 475.151 276.505 475.079L277.515 475.012C277.678 475 277.847 475 278.01 475.012H278.808L336.888 475.315L347.578 475.363L357.066 475.411H362.208C367.109 475.907 371.647 478.197 374.953 481.847C378.259 485.497 380.096 490.241 380.108 495.16C380.108 496.097 380.035 497.033 379.896 497.958C379.213 502.557 376.935 506.775 373.466 509.869C369.998 512.969 365.55 514.752 360.903 514.915H360.299H394.804C394.303 514.933 393.977 514.933 393.741 514.957Z" fill="white"/>
<path d="M301.336 538.972C302.642 540.283 304.195 541.323 305.905 542.036C307.615 542.743 309.446 543.112 311.295 543.106H277.587C271.133 543.106 267.628 541.534 265.072 538.972C262.431 536.331 260.945 532.748 260.938 529.013C260.938 521.29 267.278 514.945 277.587 514.945H311.295C308.509 514.945 305.784 515.761 303.47 517.308C301.149 518.855 299.342 521.054 298.279 523.629C297.215 526.203 296.931 529.037 297.475 531.769C298.019 534.5 299.36 537.008 301.336 538.978V538.972Z" stroke="#564499" stroke-miterlimit="10"/>
<path d="M393.88 514.999C393.88 514.999 393.934 514.999 393.959 514.999C393.934 514.999 393.904 514.999 393.88 514.999C393.789 514.993 393.699 514.975 393.608 514.957H360.903C365.157 514.727 369.224 513.138 372.5 510.419C372.995 510.014 373.467 509.585 373.914 509.132C374.288 508.769 374.639 508.382 374.971 507.977C375.225 507.699 375.455 507.397 375.672 507.089C375.811 506.92 375.932 506.757 376.047 506.593C376.271 506.297 376.47 505.977 376.651 505.651C376.929 505.27 377.171 504.865 377.383 504.442C377.606 504.037 377.812 503.626 377.987 503.197C378.077 503.01 378.15 502.798 378.271 502.593C378.434 502.17 378.573 501.747 378.712 501.324C378.905 500.72 379.093 500.079 379.232 499.451C379.316 499.112 379.377 498.768 379.419 498.417C379.443 498.333 379.461 498.248 379.467 498.157C379.492 498.091 379.51 498.018 379.516 497.946C379.516 497.71 379.582 497.499 379.606 497.263V497.124C379.697 496.471 379.733 495.807 379.727 495.148C379.733 494.846 379.721 494.538 379.679 494.235V494.024C379.679 493.728 379.655 493.426 379.606 493.13C379.449 491.498 379.075 489.896 378.501 488.362C378.18 487.443 377.775 486.555 377.292 485.709C376.851 484.857 376.331 484.053 375.745 483.291C375.594 483.068 375.425 482.856 375.249 482.657C375.177 482.584 375.11 482.488 375.014 482.397C374.699 481.986 374.355 481.599 373.98 481.243C373.702 480.965 373.376 480.681 373.092 480.379C372.808 480.077 372.337 479.72 371.938 479.436C371.539 479.152 371.279 478.946 370.929 478.711C370.409 478.33 369.859 477.998 369.285 477.702C368.753 477.393 368.191 477.121 367.617 476.898C366.952 476.614 366.269 476.36 365.574 476.149C365.339 476.064 365.091 475.997 364.843 475.961C364.197 475.78 363.538 475.635 362.873 475.538C362.541 475.466 362.214 475.441 361.864 475.399H361.816C361.767 475.411 361.719 475.411 361.677 475.399H361.864C362.214 475.441 362.541 475.466 362.873 475.538C363.538 475.635 364.197 475.78 364.843 475.961C365.091 475.997 365.339 476.064 365.574 476.149C366.269 476.36 366.952 476.614 367.617 476.898C368.191 477.121 368.753 477.387 369.285 477.702C369.859 477.998 370.409 478.33 370.929 478.711C371.279 478.946 371.539 479.152 371.938 479.436C372.337 479.72 372.808 480.077 373.092 480.379C373.376 480.681 373.702 480.965 373.98 481.243C374.355 481.599 374.699 481.986 375.014 482.397C375.11 482.488 375.177 482.584 375.249 482.657C375.425 482.856 375.594 483.068 375.745 483.291C376.331 484.053 376.851 484.857 377.292 485.709C377.775 486.555 378.18 487.443 378.501 488.362C379.075 489.896 379.449 491.498 379.606 493.13C379.655 493.426 379.679 493.722 379.679 494.024V494.235C379.721 494.538 379.733 494.846 379.727 495.148C379.733 495.807 379.697 496.471 379.606 497.124V497.263C379.582 497.499 379.516 497.71 379.516 497.946C379.516 498.018 379.492 498.091 379.467 498.157C379.467 498.248 379.443 498.333 379.419 498.417C379.377 498.768 379.316 499.112 379.232 499.451C379.093 500.079 378.905 500.72 378.712 501.324C378.573 501.747 378.434 502.17 378.271 502.593C378.15 502.798 378.077 503.01 377.987 503.197C377.812 503.626 377.606 504.037 377.383 504.442C377.171 504.865 376.923 505.27 376.651 505.651C376.47 505.977 376.271 506.297 376.047 506.593C375.932 506.757 375.811 506.92 375.672 507.089C375.461 507.403 375.225 507.699 374.971 507.977C374.639 508.382 374.288 508.769 373.914 509.132C373.467 509.585 372.995 510.014 372.5 510.419C369.224 513.138 365.157 514.727 360.903 514.957H393.608C393.687 514.945 393.765 514.945 393.844 514.957H393.608C393.699 514.981 393.789 514.993 393.88 514.999Z" fill="#3FBDF1"/>
<path d="M412.764 495.444C412.764 495.819 412.764 496.218 412.716 496.592C412.668 497.227 412.601 497.837 412.505 498.447C412.456 498.774 412.39 499.106 412.317 499.432C412.178 500.037 412.015 500.701 411.828 501.312C411.616 501.983 411.362 502.647 411.072 503.288C410.976 503.542 410.861 503.783 410.722 504.013C410.722 504.086 410.674 504.134 410.625 504.2C410.486 504.509 410.323 504.805 410.16 505.095C409.9 505.566 409.616 506.031 409.314 506.479C408.957 507.023 408.558 507.512 408.16 508.008C407.755 508.497 407.32 508.968 406.866 509.416C406.389 509.899 405.881 510.358 405.344 510.781L404.739 511.271C404.05 511.791 403.331 512.262 402.576 512.679C402.225 512.866 401.851 513.06 401.476 513.247C401.44 513.271 401.397 513.289 401.355 513.289C400.932 513.501 400.509 513.67 400.086 513.833C399.663 513.996 399.24 514.159 398.799 514.298C398.352 514.419 397.905 514.558 397.457 514.655L397.089 514.721C396.738 514.8 396.388 514.866 396.031 514.921C395.397 515.03 394.762 515.102 394.122 515.144C393.735 515.187 393.342 515.199 392.949 515.193H392.853L352.001 514.993L342.375 514.945L278.21 514.619C277.974 514.619 277.738 514.601 277.503 514.57C276.965 514.57 276.536 514.842 275.998 514.8C280.645 514.244 284.863 511.76 288.078 508.358C291.293 504.956 293.208 500.532 293.499 495.861V494.852C293.505 490.247 291.915 485.781 289.009 482.216C286.096 478.65 282.041 476.197 277.533 475.284C277.061 475.188 276.59 475.121 276.101 475.049C276.566 474.994 277.037 474.964 277.509 474.958C277.672 474.946 277.841 474.946 278.004 474.958H278.403L342.568 475.284L357.072 475.357H362.214L393.034 475.52C394.043 475.52 395.058 475.605 396.055 475.756C398.612 476.173 401.059 477.085 403.265 478.433C403.549 478.596 403.803 478.783 404.062 478.946C404.848 479.484 405.591 480.07 406.292 480.711C406.528 480.923 406.74 481.134 406.975 481.37C408.764 483.183 410.202 485.316 411.205 487.661L411.562 488.579C411.683 488.875 411.779 489.183 411.864 489.492C412.468 491.419 412.77 493.432 412.77 495.45L412.764 495.444Z" stroke="#564499" stroke-miterlimit="10"/>
<path d="M379.697 495.087C379.697 495.746 379.667 496.405 379.6 497.064V497.203C379.552 497.511 379.509 497.807 379.461 498.097C379.461 498.188 379.437 498.272 379.413 498.357C379.37 498.707 379.31 499.052 379.225 499.39C379.086 499.994 378.899 500.653 378.706 501.264C378.567 501.687 378.428 502.11 378.265 502.533C378.144 502.744 378.071 502.956 377.981 503.137C377.805 503.566 377.6 503.977 377.376 504.382C377.165 504.805 376.917 505.21 376.645 505.59C376.464 505.917 376.264 506.237 376.041 506.533C375.926 506.696 375.805 506.859 375.666 507.029C375.455 507.337 375.219 507.639 374.965 507.917C374.633 508.322 374.282 508.709 373.908 509.071C373.46 509.518 372.983 509.935 372.493 510.334C369.224 513.066 365.157 514.673 360.903 514.915H278.3C277.551 514.915 276.777 514.872 275.998 514.8C276.505 514.74 277.007 514.655 277.503 514.54C277.545 514.552 277.587 514.552 277.623 514.54H277.666C281.473 513.742 284.972 511.857 287.721 509.101L287.77 509.053C291.269 505.518 293.311 500.798 293.499 495.831V495.051C293.462 490.211 291.661 485.545 288.434 481.932C285.207 478.318 280.778 476.003 275.974 475.411C276.493 475.345 277.007 475.321 277.527 475.296C277.66 475.272 277.793 475.272 277.926 475.296C277.932 475.296 277.944 475.29 277.95 475.29C277.956 475.29 277.968 475.29 277.974 475.296C278.077 475.284 278.173 475.284 278.276 475.296H359.845C360.413 475.296 360.951 475.296 361.495 475.369H361.682C361.731 475.381 361.779 475.381 361.821 475.369H361.918L362.879 475.508C363.544 475.605 364.202 475.744 364.849 475.931C365.085 475.979 365.345 476.046 365.58 476.118C366.275 476.33 366.958 476.584 367.623 476.868C368.185 477.103 368.753 477.387 369.291 477.671C369.859 477.974 370.409 478.312 370.934 478.681C371.285 478.916 371.617 479.146 371.944 479.406C372.27 479.666 372.717 480.01 373.098 480.348C373.478 480.687 373.702 480.953 373.986 481.213C374.343 481.593 374.693 481.968 375.019 482.367C375.116 482.457 375.183 482.554 375.255 482.627L375.751 483.261C376.319 484.035 376.832 484.838 377.298 485.678C377.757 486.537 378.156 487.425 378.506 488.331C379.062 489.872 379.431 491.474 379.612 493.099C379.612 493.408 379.661 493.704 379.685 493.994V494.205C379.697 494.477 379.697 494.785 379.697 495.087Z" stroke="#564499" stroke-miterlimit="10"/>
<path opacity="0.4" d="M394.774 543.094H277.575C274.964 543.166 272.36 542.791 269.87 541.994C269.375 541.806 268.909 541.619 268.462 541.389C268.015 541.154 267.616 540.918 267.217 540.682C266.818 540.447 266.468 540.145 266.111 539.861C265.761 539.552 265.434 539.256 265.126 538.942C263.519 537.335 262.322 535.358 261.652 533.189C261.222 531.835 261.011 530.427 261.017 529.007C261.017 528.457 261.047 527.907 261.114 527.363C261.204 526.596 261.367 525.841 261.603 525.109C261.929 523.949 262.437 522.849 263.108 521.846C263.489 521.194 263.948 520.583 264.468 520.033C264.788 519.677 265.126 519.338 265.483 519.018C268.347 516.462 272.505 514.885 277.647 514.885H394.774H393.741C393.662 514.872 393.584 514.872 393.505 514.885C393.269 514.885 393.318 514.885 393.433 514.885C393.439 514.891 393.445 514.897 393.457 514.897C393.469 514.897 393.475 514.897 393.481 514.885C393.535 514.897 393.59 514.897 393.644 514.885H393.765C393.505 514.933 393.245 514.957 392.985 515.024H392.834C389.632 515.658 386.749 517.386 384.67 519.906C382.591 522.426 381.455 525.587 381.443 528.856C381.461 532.301 382.73 535.618 385.021 538.199C387.305 540.773 390.453 542.435 393.868 542.858C393.294 543.075 392.756 543.094 394.774 543.094Z" fill="white"/>
<path d="M393.832 543.027C393.294 543.075 392.756 543.094 392.212 543.094H311.277C309.428 543.094 307.603 542.725 305.899 542.018C304.195 541.311 302.648 540.271 301.342 538.96C299.735 537.353 298.538 535.377 297.868 533.207C297.451 531.853 297.245 530.445 297.263 529.025C297.269 525.297 298.756 521.719 301.391 519.078C304.026 516.438 307.603 514.951 311.332 514.933H392.212C392.611 514.933 393.034 514.933 393.421 514.981C393.493 514.993 393.56 514.993 393.632 514.981H393.753C393.493 515.03 393.233 515.054 392.973 515.12H392.834C389.632 515.755 386.749 517.483 384.67 520.003C382.597 522.523 381.455 525.683 381.443 528.953C381.461 532.397 382.73 535.715 385.021 538.295C387.305 540.87 390.453 542.532 393.868 542.955L393.832 543.027Z" fill="white" stroke="#564499" stroke-miterlimit="10"/>
<path d="M297.243 529.025C297.243 532.754 298.724 536.337 301.364 538.972C304.005 541.613 307.583 543.094 311.311 543.094H276.698C270.262 543.094 266.739 541.522 264.176 538.96C262.871 537.655 261.838 536.108 261.131 534.404C260.424 532.699 260.067 530.874 260.067 529.025C260.067 521.278 266.388 514.933 276.698 514.933H311.311C307.583 514.945 304.005 516.438 301.371 519.078C298.736 521.719 297.249 525.297 297.243 529.025Z" stroke="#564499" stroke-miterlimit="10"/>
<path d="M42.4332 490.084L0.482211 382.614C-0.0374927 380.535 -0.0737526 378.366 0.367391 376.269C0.814578 374.172 1.72708 372.202 3.04447 370.516C4.36186 368.824 6.04787 367.458 7.97561 366.521C9.90335 365.585 12.0184 365.095 14.1577 365.095H180.813C184.554 365.095 188.186 366.352 191.129 368.667C194.066 370.981 196.145 374.22 197.015 377.858L242.942 485.316C243.438 487.389 243.462 489.552 243.002 491.631C242.543 493.716 241.619 495.668 240.301 497.342C238.984 499.016 237.298 500.369 235.382 501.3C233.46 502.23 231.357 502.714 229.224 502.714H58.5863C54.8698 502.714 51.2621 501.469 48.3372 499.185C45.4124 496.894 43.3336 493.698 42.4332 490.09V490.084Z" fill="white"/>
<path d="M42.4332 490.084L0.482211 382.614C-0.0374927 380.535 -0.0737526 378.366 0.367391 376.269C0.814578 374.172 1.72708 372.202 3.04447 370.516C4.36186 368.824 6.04787 367.458 7.97561 366.521C9.90335 365.585 12.0184 365.095 14.1577 365.095H180.813C184.554 365.095 188.186 366.352 191.129 368.667C194.066 370.981 196.145 374.22 197.015 377.858L242.942 485.316C243.438 487.389 243.462 489.552 243.002 491.631C242.543 493.716 241.619 495.668 240.301 497.342C238.984 499.016 237.298 500.369 235.382 501.3C233.46 502.23 231.357 502.714 229.224 502.714H58.5863C54.8698 502.714 51.2621 501.469 48.3372 499.185C45.4124 496.894 43.3336 493.698 42.4332 490.09V490.084Z" fill="url(#paint2_linear_548_618)"/>
<path d="M165.107 388.639C163.071 385.575 159.741 384.215 157.662 385.617C155.584 387.019 155.553 390.603 157.59 393.667C157.91 394.132 158.273 394.573 158.666 394.978L143.558 426.867C141.141 425.26 138.5 424.861 136.602 426.13C135.992 426.577 135.484 427.151 135.116 427.81C134.747 428.475 134.536 429.206 134.481 429.967L124.16 426.481L115.137 423.459L112.188 422.492C111.82 421.386 111.306 420.329 110.659 419.356C107.795 415.053 103.118 413.144 100.199 415.083C97.2801 417.023 97.2499 421.985 100.036 426.257L82.8674 449.722C79.1207 446.646 74.7032 445.698 71.6454 447.728C67.4878 450.502 67.4153 457.723 71.5064 463.863C71.6696 464.105 71.8569 464.31 72.0261 464.54L60.5624 480.203L60.4597 480.355C60.1394 480.79 59.9037 481.285 59.7829 481.817C59.656 482.343 59.6439 482.893 59.7345 483.424C59.8252 483.956 60.0306 484.47 60.3268 484.923C60.6229 485.376 61.0096 485.763 61.4628 486.065C61.9161 486.367 62.4237 486.573 62.9555 486.663C63.4873 486.76 64.0372 486.748 64.5629 486.627C65.0887 486.506 65.5903 486.277 66.0254 485.956C66.4605 485.636 66.8291 485.231 67.1071 484.766L77.3017 469.423C80.5166 471.29 83.9491 471.646 86.4449 469.979C90.4212 467.332 90.6085 460.636 87.0492 454.69L103.517 429.835C105.934 431.484 108.629 431.907 110.551 430.632C111.626 429.877 112.358 428.723 112.587 427.429L113.796 427.774L122.975 430.282L134.723 433.448C135.079 434.856 135.672 436.192 136.475 437.4C139.334 441.697 144.017 443.613 146.936 441.673C149.855 439.733 149.891 434.675 147.033 430.378C146.61 429.756 146.138 429.164 145.619 428.62L159.995 396.114C161.729 397.323 163.621 397.595 165.017 396.682C167.126 395.335 167.156 391.709 165.107 388.639Z" fill="white"/>
<path d="M55.7281 390.404H33.4594C32.4381 390.404 31.435 390.114 30.5708 389.552C29.7127 388.996 29.0359 388.198 28.625 387.261C28.4981 386.971 28.4316 386.663 28.4255 386.349C28.4316 385.738 28.6793 385.158 29.1084 384.735C29.5375 384.306 30.1236 384.07 30.7279 384.064H54.4107C53.3109 385.944 53.9152 388.554 55.7281 390.404Z" fill="white"/>
<path d="M70.1469 388.119C70.1469 388.724 69.8991 389.304 69.4701 389.733C69.041 390.162 68.4609 390.404 67.8566 390.404H55.7281C53.879 388.554 53.3109 385.944 54.4289 384.064H65.1251C66.1464 384.064 67.1495 384.354 68.0076 384.904C68.8658 385.46 69.5426 386.252 69.9596 387.189C70.0865 387.485 70.1469 387.799 70.1469 388.119Z" fill="#EF3922"/>
<path d="M64.5751 390.404C64.5086 390.525 64.4361 390.639 64.3575 390.754C62.7621 392.924 59.3176 393.129 56.6405 391.171C56.3202 390.941 56.0181 390.682 55.7401 390.404C53.8909 388.554 53.3229 385.944 54.4408 384.065C54.5013 383.938 54.5738 383.823 54.6584 383.714C56.2356 381.532 59.6802 381.345 62.3573 383.285C62.6836 383.521 62.9857 383.78 63.2698 384.065C65.1068 385.92 65.6749 388.506 64.5751 390.404Z" fill="white"/>
<path d="M75.7485 402.103C75.7485 402.713 75.5007 403.293 75.0656 403.716C74.6366 404.146 74.0504 404.387 73.4461 404.387H50.0655C51.1955 402.49 50.6335 399.903 48.7783 398.048H70.7388C71.7661 398.048 72.7693 398.338 73.6274 398.894C74.4855 399.45 75.1623 400.248 75.5733 401.184C75.6941 401.475 75.7546 401.783 75.7485 402.097V402.103Z" fill="#EF3922"/>
<path d="M50.0654 404.405H39.0671C38.0458 404.405 37.0426 404.115 36.1845 403.565C35.3264 403.009 34.6496 402.218 34.2326 401.281C34.1057 400.991 34.0392 400.677 34.0332 400.356C34.0332 400.054 34.0876 399.758 34.2024 399.48C34.3172 399.202 34.4864 398.948 34.6979 398.737C34.9094 398.525 35.1633 398.356 35.4412 398.241C35.7192 398.127 36.0153 398.066 36.3175 398.066H48.7783C50.6335 399.903 51.1955 402.49 50.0654 404.405Z" fill="white"/>
<path d="M50.0653 404.405C50.017 404.532 49.9505 404.647 49.8659 404.756C48.2887 406.943 44.8381 407.131 42.161 405.191C41.8286 404.955 41.5144 404.689 41.2243 404.405C39.4114 402.556 38.8071 399.964 39.9251 398.066C39.9855 397.945 40.058 397.83 40.1426 397.722C41.7319 395.546 45.1765 395.347 47.8596 397.299C48.1738 397.534 48.476 397.788 48.754 398.066C50.6334 399.903 51.1954 402.49 50.0653 404.405Z" fill="white"/>
<path d="M57.855 418.304H43.8593C42.838 418.304 41.8349 418.014 40.9768 417.458C40.1187 416.902 39.4418 416.111 39.0249 415.174C38.898 414.884 38.8315 414.576 38.8254 414.262C38.8254 413.651 39.0672 413.065 39.5023 412.636C39.9313 412.207 40.5175 411.959 41.1278 411.959H56.5256C55.4499 413.827 56.018 416.419 57.855 418.304Z" fill="#EF3922"/>
<path d="M80.5406 416.002C80.5406 416.606 80.2929 417.186 79.8638 417.609C79.4347 418.038 78.8546 418.274 78.2503 418.274H57.855C56.042 416.419 55.4377 413.826 56.5497 411.929H75.5309C76.5522 411.929 77.5493 412.225 78.4014 412.781C79.2534 413.337 79.9242 414.135 80.3352 415.071C80.4681 415.361 80.5346 415.682 80.5406 416.002Z" fill="white"/>
<path d="M66.6839 418.304C66.6234 418.425 66.5509 418.54 66.4663 418.649C64.8891 420.836 61.4445 421.024 58.7675 419.084C58.4472 418.842 58.139 418.582 57.855 418.304C56.042 416.449 55.4377 413.857 56.5497 411.959C56.6101 411.838 56.6886 411.723 56.7672 411.615C58.3626 409.445 61.8071 409.252 64.4842 411.192C64.8045 411.427 65.1006 411.681 65.3846 411.959C67.2096 413.784 67.8139 416.389 66.6839 418.304Z" fill="white"/>
<path d="M148.35 483.775H134.348C133.327 483.775 132.324 483.485 131.466 482.929C130.608 482.373 129.931 481.581 129.514 480.645C129.381 480.361 129.314 480.046 129.308 479.732C129.308 479.122 129.55 478.536 129.985 478.107C130.414 477.677 131 477.43 131.611 477.43H147.015C145.945 479.339 146.513 481.92 148.35 483.775Z" fill="#EF3922"/>
<path d="M203.916 481.503C203.916 481.799 203.855 482.095 203.741 482.373C203.626 482.651 203.457 482.899 203.245 483.11C203.034 483.322 202.78 483.491 202.502 483.606C202.224 483.72 201.928 483.775 201.632 483.775H148.35C146.537 481.92 145.933 479.327 147.045 477.43H198.906C199.927 477.43 200.924 477.726 201.777 478.282C202.629 478.838 203.299 479.635 203.71 480.566C203.843 480.862 203.91 481.176 203.916 481.497V481.503Z" fill="white"/>
<path d="M157.179 483.775C157.118 483.896 157.046 484.011 156.961 484.12C155.384 486.307 151.939 486.494 149.262 484.555C148.942 484.319 148.634 484.059 148.35 483.775C146.537 481.92 145.933 479.327 147.045 477.43C147.105 477.309 147.184 477.194 147.262 477.085C148.857 474.916 152.302 474.723 154.979 476.662C155.299 476.898 155.595 477.152 155.88 477.43C157.729 479.285 158.297 481.89 157.179 483.775Z" fill="white"/>
<path d="M71.9235 216.968C77.7127 221.047 87.569 219.234 90.0829 211.982C92.2101 205.824 85.333 200.271 80.8249 197.4C75.084 193.75 68.2976 190.843 61.4569 190.239C48.7363 189.151 54.4107 200.724 54.4107 200.724" stroke="#564499" stroke-miterlimit="10"/>
<defs>
<linearGradient id="paint0_linear_548_618" x1="279.871" y1="226.341" x2="279.871" y2="252.186" gradientUnits="userSpaceOnUse">
<stop stop-color="#EF3922"/>
<stop offset="1" stop-color="#564499"/>
</linearGradient>
<linearGradient id="paint1_linear_548_618" x1="243.138" y1="221.861" x2="243.138" y2="247.723" gradientUnits="userSpaceOnUse">
<stop stop-color="#EF3922"/>
<stop offset="1" stop-color="#564499"/>
</linearGradient>
<linearGradient id="paint2_linear_548_618" x1="0.0591955" y1="433.895" x2="243.335" y2="433.895" gradientUnits="userSpaceOnUse">
<stop stop-color="#EF3922"/>
<stop offset="1" stop-color="#564499"/>
</linearGradient>
</defs>
</svg>
