<svg width="624" height="627" viewBox="0 0 624 627" fill="none" xmlns="http://www.w3.org/2000/svg">
<path d="M468.811 103.8C553.748 222.393 526.588 387.298 408.147 472.126C289.707 556.955 124.837 529.585 39.8994 410.992C18.6291 381.294 13.8147 361.853 20.0384 348.02C23.1541 341.095 29.0659 335.498 37.2333 330.688C45.4018 325.878 55.7889 321.879 67.7985 318.134C79.0463 314.627 91.6914 311.35 105.239 307.84C106.154 307.603 107.073 307.365 107.997 307.126C122.582 303.344 138.15 299.261 154.071 294.319C185.912 284.433 219.192 271.099 248.92 249.807C278.648 228.516 301.986 201.3 321.595 174.336C331.4 160.853 340.276 147.428 348.552 134.837C349.076 134.04 349.597 133.246 350.116 132.456C357.801 120.76 364.973 109.842 371.915 100.322C379.326 90.1575 386.457 81.6108 393.64 75.4255C400.823 69.2411 408.025 65.4458 415.584 64.7252C430.684 63.2856 447.541 74.1021 468.811 103.8Z" stroke="#564499"/>
<path d="M145.858 326.119C145.858 326.119 147.442 302.72 151.068 280.989C154.687 259.258 154.053 241.485 171.118 221.066C188.19 200.646 188.323 168.715 186.667 156.327C185.011 143.932 179.409 139.013 172.829 139.599C166.248 140.18 165.003 147.715 165.269 154.49C165.71 165.542 166.737 175.392 157.878 174.83C146.65 174.111 142.299 165.035 145.387 150.628C147.164 142.349 160.295 129.755 150.028 123.724C140.414 118.068 130.298 128.16 125.614 135.109C120.931 142.059 118.172 154.672 118.172 154.672C118.172 154.672 106.776 152.473 102.944 162.569C102.158 167.223 106.143 172.399 106.143 172.399C106.143 172.399 95.6224 171.827 94.3896 181.109C93.3079 189.237 95.5378 191.002 95.5378 191.002C95.5378 191.002 89.7435 192.178 93.4046 201.1C97.0657 210.021 96.5349 208.569 96.5349 208.569C99.5444 215.778 100.034 223.797 97.9127 231.315L91.2654 255.215L60.5424 367.254C59.9804 372.566 60.5606 377.938 62.2466 383.008C63.9326 388.078 66.6882 392.725 70.3201 396.641C73.958 400.557 78.3876 403.651 83.3187 405.706C88.2499 407.76 93.5617 408.739 98.9038 408.57L150.415 406.939L158.972 324.004C154.627 324.632 150.258 325.339 145.858 326.125V326.119Z" fill="white" stroke="#564499"/>
<path d="M468.727 469.255C468.002 445.65 463.258 421.931 454.895 401.331C452.091 394.357 448.755 387.613 444.905 381.153C444.887 381.104 444.857 381.062 444.815 381.032C440.071 372.94 434.264 365.525 427.55 358.981C419.518 351.348 410.514 344.81 400.773 339.534C400.767 339.528 400.755 339.528 400.749 339.528C400.743 339.528 400.731 339.528 400.725 339.534C394.53 336.144 388.107 333.207 381.49 330.748C375.042 328.342 364.007 325.557 357.317 323.937C355.601 323.508 297.267 318.426 297.267 318.426C291.224 318.492 285.181 318.541 279.205 318.589C238.051 318.8 199.696 318.093 158.978 323.998L150.421 406.933L224.34 404.588C224.34 404.588 213.281 477.092 236.631 543.457L454.804 544.152C454.895 543.917 455.553 542.787 455.644 542.551C457.058 539.475 458.345 536.308 459.499 533.063C466.449 513.738 469.386 491.541 468.727 469.249V469.255Z" fill="#BBB4D6" stroke="#564499"/>
<path d="M400.955 339.589C388.67 332.972 375.341 328.27 361.768 325.037L355.757 323.653C355.757 323.653 354.492 319.58 353.543 317.049C351.99 313.103 349.247 305.632 348.449 301.475C347.476 296.562 347.396 292.118 347.903 287.139C349.86 269.754 352.637 266.002 358.861 261.071C364.052 256.986 367.579 255.161 370.522 248.774C372.069 245.178 372.108 239.244 367.998 235.884C363.442 232.197 359.043 232.55 353.592 233.118C326.286 235.439 323.491 221.785 315.877 204.556C314.668 201.758 313.411 198.803 311.435 196.422C309.169 193.679 306.033 193.062 303.465 190.845C302.371 189.89 301.621 188.331 302.147 186.977C302.455 186.33 302.909 185.762 303.465 185.309C308.317 180.837 314.149 177.556 320.488 175.731C330.519 172.83 341.119 172.498 351.307 174.77C361.943 178.293 371.503 184.965 377.939 195.159C386.817 209.246 388.956 223.858 383.982 238.422C378.888 253.336 373.202 270.855 382.774 285.207C395.519 304.273 403.469 316.807 400.955 339.589Z" fill="#2C0CAD"/>
<path d="M278.848 261.869C282.057 294.942 301.401 295.704 301.401 295.704C301.401 295.704 299.358 308.104 297.243 319.332C296.935 320.928 296.639 322.499 296.373 324.052C294.989 331.612 293.883 338.332 293.835 340.368C293.484 357.289 309.48 367.048 324.932 366.885C346.615 366.649 359.293 346.478 357.251 326.276C355.915 322.589 354.549 318.903 353.214 315.217C351.498 310.491 349.268 305.892 348.301 300.913C347.449 296.006 347.352 290.996 348.023 286.065C348.893 278.693 350.325 267.7 356.55 262.769C361.741 258.684 367.161 256.001 370.122 249.613C372.237 245.057 372.141 239.189 368.031 235.829C363.475 232.143 356.266 232.59 350.815 233.128C315.656 236.724 309.806 201.136 300.295 196.138C292.499 192.023 286.649 201.257 284.818 204.683L284.746 204.828C284.746 204.865 284.728 204.895 284.704 204.919C284.371 205.523 284.208 205.928 284.208 205.928C284.208 205.928 275.639 228.789 278.848 261.869Z" fill="white" stroke="#564499"/>
<path d="M181.379 102.223C179.989 103.486 178.878 105.027 178.122 106.743C177.367 108.46 176.974 110.321 176.98 112.2V113.82C176.98 119.476 172.883 124.546 167.311 125.114C165.806 125.271 164.284 125.108 162.845 124.637C161.407 124.165 160.084 123.404 158.954 122.389C157.83 121.38 156.929 120.141 156.307 118.757C155.69 117.373 155.364 115.88 155.358 114.37V112.2C155.358 110.309 154.959 108.441 154.186 106.719C153.418 104.991 152.3 103.45 150.898 102.181C155.63 104.562 160.851 105.807 166.145 105.813C171.439 105.819 176.666 104.592 181.398 102.223H181.373H181.379Z" fill="#564499"/>
<path d="M301.401 295.704C301.401 295.704 299.358 308.104 297.243 319.332C291.2 319.399 285.157 319.447 279.18 319.495C276.159 302.49 279.44 289.171 283.338 280.294C288.251 291.498 295.672 294.906 301.401 295.704Z" fill="#2C0CAD"/>
<path d="M382.855 543.844V543.771C382.892 543.669 382.922 543.566 382.946 543.463" stroke="black" stroke-width="5.5" stroke-miterlimit="10"/>
<path d="M366.908 407.948C366.908 407.948 380.058 414.335 388.699 434.277C393.044 444.303 396.265 457.785 396.078 475.612V475.66C395.981 487.027 394.482 500.153 391.002 515.279V515.363" stroke="#564499" stroke-miterlimit="10"/>
<path d="M118.048 154.78C120.369 145.999 124.091 136.947 126.889 133.139C131.289 127.217 137.03 121.573 144.414 122.081C149.158 122.389 153.817 125.011 154.029 130.208C154.228 135.847 148.282 142.107 146.372 147.407C144.559 152.519 143.731 158.472 144.686 163.85C145.641 169.229 150.469 173.428 155.679 174.583C157.655 175.102 159.758 174.818 161.522 173.791C166.622 170.564 165.553 161.971 165.347 156.901C165.106 151.214 165.112 144.784 169.964 140.893C173.53 138.034 178.938 139.932 181.567 143.074C186.136 148.513 186.359 156.701 186.589 163.397C187.272 183.569 183.688 202.907 171.94 219.888C165.897 228.656 159.673 236.524 157.226 247.281C149.611 280.711 148.765 303.886 144.39 337.836" stroke="#564499" stroke-miterlimit="10"/>
<path d="M95.5405 191.09C94.3942 190.048 88.1422 167.228 114.96 173.537C141.779 179.847 151.497 212.001 128.998 208.376" stroke="#564499" stroke-miterlimit="10"/>
<path d="M105.944 172.153C105.944 172.153 96.5168 160.702 110.609 155.233C124.702 149.764 174.207 175.877 141.381 201.318" stroke="#564499" stroke-miterlimit="10"/>
<path d="M309.861 295.16C307.123 295.909 304.265 296.097 301.455 295.704C295.702 294.906 288.281 291.474 283.392 280.294C282.377 278.01 281.549 275.647 280.927 273.224C278.437 263.972 277.349 251.1 278.806 233.152C279.09 229.702 279.513 226.197 280.099 222.698C281.072 216.612 282.637 210.636 284.77 204.852C284.77 204.852 284.77 204.804 284.819 204.78C290.149 190.688 299.521 178.795 315.282 174.22C327.102 170.812 339.665 170.993 351.383 174.74C362.019 178.263 371.579 184.935 378.015 195.129C386.892 209.216 389.031 223.828 384.058 238.391C378.963 253.306 373.277 270.825 382.849 285.177C395.576 304.273 403.381 316.688 400.915 339.47" stroke="#564499" stroke-miterlimit="10"/>
<path d="M274.37 320.202C269.741 298.006 275.989 281.823 280.896 273.224" stroke="#564499" stroke-miterlimit="10"/>
<path d="M280.099 222.673C280.099 222.673 290.233 212.08 301.975 228.813" stroke="#564499" stroke-miterlimit="10"/>
<path d="M305.903 276.016C310.188 278.789 315.989 277.067 319.144 272.795C322.57 268.16 323.942 261.971 324.685 256.357C324.733 255.953 324.788 255.554 324.824 255.149C319.597 263.361 309.45 265.331 300.519 266.19C300.857 268.879 301.854 271.435 303.426 273.641C304.096 274.577 304.936 275.387 305.903 276.016Z" stroke="#564499" stroke-miterlimit="10"/>
<path d="M352.441 312.988L352.417 312.963" stroke="black" stroke-width="5.5" stroke-miterlimit="10"/>
<path d="M312.574 219.416C312.574 219.416 316.019 213.838 327.791 217.948C339.563 222.057 339.702 228.771 339.702 228.771" stroke="#564499" stroke-miterlimit="10"/>
<path d="M285.816 233.285C285.816 233.285 291.255 230.535 295.515 233.285" stroke="#564499" stroke-miterlimit="10"/>
<path d="M315.125 235.817C315.125 235.817 320.564 233.068 324.794 235.817" stroke="#564499" stroke-miterlimit="10"/>
<path d="M300.501 237.382C300.501 237.382 296.826 249.408 297.11 251.209C297.394 253.01 301.679 251.753 301.679 251.753" stroke="#564499" stroke-miterlimit="10"/>
<path d="M329.29 250.073C334.922 244.453 334.813 235.225 329.06 229.46C323.307 223.695 314.073 223.574 308.447 229.194C302.815 234.814 302.924 244.042 308.677 249.807C314.43 255.572 323.664 255.693 329.29 250.073Z" stroke="#564499" stroke-miterlimit="10"/>
<path d="M292.56 245.607C298.186 239.987 298.083 230.759 292.33 224.994C286.577 219.229 277.343 219.108 271.717 224.728C266.091 230.348 266.194 239.576 271.947 245.341C277.7 251.106 286.934 251.227 292.56 245.607Z" stroke="#564499" stroke-miterlimit="10"/>
<path d="M281.815 223.973C283.417 223.967 285.006 224.293 286.474 224.94C287.943 225.586 289.26 226.529 290.342 227.713C291.424 228.898 292.246 230.294 292.753 231.817C293.261 233.339 293.448 234.947 293.291 236.548C293.037 239.231 291.786 241.727 289.786 243.54C287.786 245.353 285.181 246.35 282.486 246.338C280.885 246.344 279.295 246.018 277.827 245.371C276.358 244.725 275.041 243.782 273.959 242.597C272.877 241.413 272.056 240.017 271.548 238.494C271.04 236.971 270.859 235.364 271.01 233.762C271.264 231.079 272.515 228.584 274.515 226.771C276.515 224.958 279.12 223.961 281.815 223.973ZM281.815 222.305C278.709 222.299 275.706 223.453 273.403 225.538C271.101 227.629 269.663 230.499 269.373 233.599C269.064 237.014 270.092 240.422 272.243 243.087C274.394 245.758 277.5 247.486 280.909 247.909C281.428 247.97 281.954 248.006 282.48 248.006C285.592 248.018 288.596 246.864 290.904 244.773C293.212 242.682 294.651 239.806 294.941 236.705C295.255 233.291 294.222 229.883 292.07 227.212C289.919 224.541 286.813 222.812 283.405 222.395C282.885 222.335 282.359 222.299 281.833 222.299H281.815V222.305Z" fill="white"/>
<path d="M304.356 237.854L296.645 236.917" stroke="#564499" stroke-miterlimit="10"/>
<path opacity="0.4" d="M328.112 248.888C333.103 243.909 333.012 235.72 327.906 230.614C322.806 225.502 314.623 225.399 309.632 230.378C304.64 235.358 304.731 243.546 309.831 248.653C314.932 253.765 323.114 253.868 328.105 248.888H328.112Z" fill="url(#paint0_linear_123_1931)"/>
<path opacity="0.4" d="M291.381 244.422C296.373 239.437 296.282 231.255 291.182 226.136C286.076 221.024 277.893 220.915 272.896 225.9C267.904 230.886 267.995 239.068 273.095 244.187C278.202 249.299 286.384 249.408 291.381 244.422Z" fill="url(#paint1_linear_123_1931)"/>
<path d="M164.308 34.432C146.783 35.3264 132.28 49.3704 130.884 66.847C130.467 71.7237 131.071 76.6307 132.654 81.2597C134.238 85.8887 136.776 90.137 140.093 93.7386C142.541 96.4278 145.393 98.7181 148.554 100.525C149.375 101.002 150.155 101.552 150.88 102.169C155.612 104.556 160.833 105.807 166.133 105.813C171.433 105.819 176.914 104.55 181.651 102.181C182.757 101.516 183.301 101.202 183.978 100.821C186.262 99.6669 189.93 96.3069 192.475 93.5029C192.541 93.4123 192.608 93.3277 192.686 93.2431C197.303 88.0158 200.276 81.5437 201.225 74.6365C202.18 67.7293 201.068 60.6951 198.04 54.4104C195.013 48.1316 190.19 42.8802 184.19 39.3269C178.189 35.7736 171.275 34.0694 164.308 34.432ZM186.244 89.7925C186.178 89.8408 186.123 89.9073 186.081 89.9798C184.111 92.1372 181.809 93.9743 179.27 95.4186C178.636 95.7631 178.056 96.1921 177.53 96.6876C173.88 98.5126 169.849 99.4674 165.764 99.4674C161.679 99.4674 157.648 98.5187 153.998 96.6876C153.43 96.2042 152.826 95.7751 152.185 95.3944C147.303 92.5844 143.411 88.3361 141.042 83.2297C138.673 78.1233 137.936 72.4066 138.945 66.8651C139.948 61.3236 142.643 56.2293 146.662 52.2832C150.675 48.3371 155.817 45.7265 161.371 44.814C166.924 43.9015 172.629 44.7294 177.699 47.1889C182.763 49.6484 186.945 53.6127 189.671 58.5378C192.396 63.4629 193.526 69.1131 192.916 74.7151C192.305 80.3109 189.973 85.5805 186.244 89.8046V89.7925Z" stroke="#564499" stroke-miterlimit="10"/>
<path d="M102.856 544.37C107.134 542.364 499.613 544.37 499.613 544.37" stroke="#564499" stroke-miterlimit="10"/>
<path d="M166.132 21.7839L165.782 0.494141" stroke="#564499" stroke-miterlimit="10"/>
<path d="M125.53 41.587L110.791 26.2195" stroke="#564499" stroke-miterlimit="10"/>
<path d="M206.887 42.5418L221.953 27.4946" stroke="#564499" stroke-miterlimit="10"/>
<path d="M432.741 515.327L433.255 515.375C432.977 515.424 432.65 515.472 432.366 515.538H431.931L391.014 515.327H386.391L317.645 514.976H316.865C316.805 514.989 316.738 514.989 316.678 514.976H316.636C316.2 514.976 315.771 514.952 315.342 514.886C319.016 514.469 322.503 513.025 325.392 510.71C325.845 510.329 326.31 509.967 326.733 509.556L326.782 509.507C326.878 509.429 326.975 509.338 327.06 509.248C330.553 505.791 332.644 501.168 332.934 496.261V495.155C332.916 490.575 331.314 486.145 328.413 482.604C325.513 479.062 321.476 476.627 316.986 475.709C316.98 475.709 316.974 475.703 316.962 475.703C316.95 475.703 316.944 475.703 316.938 475.709C316.49 475.594 315.977 475.521 315.505 475.449L316.515 475.382C316.678 475.37 316.847 475.37 317.01 475.382H317.808L375.888 475.684L386.578 475.733L396.066 475.781H401.208C406.109 476.277 410.647 478.567 413.953 482.217C417.259 485.867 419.096 490.611 419.108 495.53C419.108 496.467 419.035 497.403 418.896 498.328C418.213 502.927 415.935 507.145 412.466 510.239C408.998 513.339 404.55 515.121 399.903 515.285H399.299H433.804C433.303 515.303 432.977 515.303 432.741 515.327Z" fill="white"/>
<path d="M340.336 539.342C341.642 540.653 343.195 541.693 344.905 542.406C346.615 543.113 348.446 543.482 350.295 543.476H316.587C310.133 543.476 306.628 541.904 304.072 539.342C301.431 536.701 299.945 533.118 299.938 529.383C299.938 521.66 306.278 515.315 316.587 515.315H350.295C347.509 515.315 344.784 516.131 342.47 517.678C340.149 519.225 338.342 521.424 337.279 523.999C336.215 526.573 335.931 529.407 336.475 532.139C337.019 534.87 338.36 537.378 340.336 539.348V539.342Z" stroke="#564499" stroke-miterlimit="10"/>
<path d="M432.88 515.369C432.88 515.369 432.934 515.369 432.959 515.369C432.934 515.369 432.904 515.369 432.88 515.369C432.789 515.363 432.699 515.345 432.608 515.327H399.903C404.157 515.097 408.224 513.508 411.5 510.789C411.995 510.384 412.467 509.955 412.914 509.501C413.288 509.139 413.639 508.752 413.971 508.347C414.225 508.069 414.455 507.767 414.672 507.459C414.811 507.29 414.932 507.126 415.047 506.963C415.271 506.667 415.47 506.347 415.651 506.021C415.929 505.64 416.171 505.235 416.383 504.812C416.606 504.407 416.812 503.996 416.987 503.567C417.077 503.38 417.15 503.168 417.271 502.963C417.434 502.54 417.573 502.117 417.712 501.694C417.905 501.089 418.093 500.449 418.232 499.82C418.316 499.482 418.377 499.138 418.419 498.787C418.443 498.702 418.461 498.618 418.467 498.527C418.492 498.461 418.51 498.388 418.516 498.316C418.516 498.08 418.582 497.869 418.606 497.633V497.494C418.697 496.841 418.733 496.176 418.727 495.518C418.733 495.216 418.721 494.907 418.679 494.605V494.394C418.679 494.098 418.655 493.795 418.606 493.499C418.449 491.868 418.075 490.266 417.501 488.731C417.18 487.813 416.775 486.925 416.292 486.078C415.851 485.226 415.331 484.423 414.745 483.661C414.594 483.438 414.425 483.226 414.249 483.027C414.177 482.954 414.11 482.858 414.014 482.767C413.699 482.356 413.355 481.969 412.98 481.613C412.702 481.335 412.376 481.051 412.092 480.749C411.808 480.446 411.337 480.09 410.938 479.806C410.539 479.522 410.279 479.316 409.929 479.081C409.409 478.7 408.859 478.368 408.285 478.071C407.753 477.763 407.191 477.491 406.617 477.268C405.952 476.984 405.269 476.73 404.574 476.518C404.339 476.434 404.091 476.367 403.843 476.331C403.197 476.15 402.538 476.005 401.873 475.908C401.541 475.836 401.214 475.811 400.864 475.769H400.816C400.767 475.781 400.719 475.781 400.677 475.769H400.864C401.214 475.811 401.541 475.836 401.873 475.908C402.538 476.005 403.197 476.15 403.843 476.331C404.091 476.367 404.339 476.434 404.574 476.518C405.269 476.73 405.952 476.984 406.617 477.268C407.191 477.491 407.753 477.757 408.285 478.071C408.859 478.368 409.409 478.7 409.929 479.081C410.279 479.316 410.539 479.522 410.938 479.806C411.337 480.09 411.808 480.446 412.092 480.749C412.376 481.051 412.702 481.335 412.98 481.613C413.355 481.969 413.699 482.356 414.014 482.767C414.11 482.858 414.177 482.954 414.249 483.027C414.425 483.226 414.594 483.438 414.745 483.661C415.331 484.423 415.851 485.226 416.292 486.078C416.775 486.925 417.18 487.813 417.501 488.731C418.075 490.266 418.449 491.868 418.606 493.499C418.655 493.795 418.679 494.092 418.679 494.394V494.605C418.721 494.907 418.733 495.216 418.727 495.518C418.733 496.176 418.697 496.841 418.606 497.494V497.633C418.582 497.869 418.516 498.08 418.516 498.316C418.516 498.388 418.492 498.461 418.467 498.527C418.467 498.618 418.443 498.702 418.419 498.787C418.377 499.138 418.316 499.482 418.232 499.82C418.093 500.449 417.905 501.089 417.712 501.694C417.573 502.117 417.434 502.54 417.271 502.963C417.15 503.168 417.077 503.38 416.987 503.567C416.812 503.996 416.606 504.407 416.383 504.812C416.171 505.235 415.923 505.64 415.651 506.021C415.47 506.347 415.271 506.667 415.047 506.963C414.932 507.126 414.811 507.29 414.672 507.459C414.461 507.773 414.225 508.069 413.971 508.347C413.639 508.752 413.288 509.139 412.914 509.501C412.467 509.955 411.995 510.384 411.5 510.789C408.224 513.508 404.157 515.097 399.903 515.327H432.608C432.687 515.315 432.765 515.315 432.844 515.327H432.608C432.699 515.351 432.789 515.363 432.88 515.369Z" fill="#3FBDF1"/>
<path d="M451.764 495.814C451.764 496.189 451.764 496.587 451.716 496.962C451.668 497.597 451.601 498.207 451.505 498.817C451.456 499.144 451.39 499.476 451.317 499.802C451.178 500.407 451.015 501.071 450.828 501.682C450.616 502.352 450.362 503.017 450.072 503.658C449.976 503.912 449.861 504.153 449.722 504.383C449.722 504.455 449.674 504.504 449.625 504.57C449.486 504.878 449.323 505.175 449.16 505.465C448.9 505.936 448.616 506.401 448.314 506.849C447.957 507.392 447.558 507.882 447.16 508.377C446.755 508.867 446.32 509.338 445.866 509.785C445.389 510.269 444.881 510.728 444.344 511.151L443.739 511.641C443.05 512.16 442.331 512.632 441.576 513.049C441.225 513.236 440.851 513.429 440.476 513.617C440.44 513.641 440.397 513.659 440.355 513.659C439.932 513.871 439.509 514.04 439.086 514.203C438.663 514.366 438.24 514.529 437.799 514.668C437.352 514.789 436.905 514.928 436.457 515.025L436.089 515.091C435.738 515.17 435.388 515.236 435.031 515.291C434.397 515.399 433.762 515.472 433.122 515.514C432.735 515.557 432.342 515.569 431.949 515.563H431.853L391.001 515.363L381.375 515.315L317.21 514.989C316.974 514.989 316.738 514.97 316.503 514.94C315.965 514.94 315.536 515.212 314.998 515.17C319.645 514.614 323.863 512.13 327.078 508.728C330.293 505.326 332.208 500.902 332.499 496.231V495.222C332.505 490.617 330.915 486.151 328.009 482.586C325.096 479.02 321.041 476.567 316.533 475.654C316.061 475.558 315.59 475.491 315.101 475.419C315.566 475.364 316.037 475.334 316.509 475.328C316.672 475.316 316.841 475.316 317.004 475.328H317.403L381.568 475.654L396.072 475.727H401.214L432.034 475.89C433.043 475.89 434.058 475.974 435.055 476.126C437.612 476.543 440.059 477.455 442.265 478.803C442.549 478.966 442.803 479.153 443.062 479.316C443.848 479.854 444.591 480.44 445.292 481.081C445.528 481.292 445.74 481.504 445.975 481.74C447.764 483.552 449.202 485.686 450.205 488.03L450.562 488.949C450.683 489.245 450.779 489.553 450.864 489.861C451.468 491.789 451.77 493.802 451.77 495.82L451.764 495.814Z" stroke="#564499" stroke-miterlimit="10"/>
<path d="M418.697 495.457C418.697 496.116 418.667 496.775 418.6 497.433V497.572C418.552 497.881 418.509 498.177 418.461 498.467C418.461 498.557 418.437 498.642 418.413 498.727C418.37 499.077 418.31 499.422 418.225 499.76C418.086 500.364 417.899 501.023 417.706 501.633C417.567 502.056 417.428 502.479 417.265 502.902C417.144 503.114 417.071 503.325 416.981 503.507C416.805 503.936 416.6 504.347 416.376 504.752C416.165 505.175 415.917 505.579 415.645 505.96C415.464 506.287 415.264 506.607 415.041 506.903C414.926 507.066 414.805 507.229 414.666 507.398C414.455 507.707 414.219 508.009 413.965 508.287C413.633 508.692 413.282 509.078 412.908 509.441C412.46 509.888 411.983 510.305 411.493 510.704C408.224 513.435 404.157 515.043 399.903 515.285H317.3C316.551 515.285 315.777 515.242 314.998 515.17C315.505 515.109 316.007 515.025 316.503 514.91C316.545 514.922 316.587 514.922 316.623 514.91H316.666C320.473 514.112 323.972 512.227 326.721 509.471L326.77 509.423C330.269 505.888 332.311 501.168 332.499 496.201V495.421C332.462 490.581 330.661 485.915 327.434 482.302C324.207 478.688 319.778 476.373 314.974 475.781C315.493 475.715 316.007 475.69 316.527 475.666C316.66 475.642 316.793 475.642 316.926 475.666C316.932 475.666 316.944 475.66 316.95 475.66C316.956 475.66 316.968 475.66 316.974 475.666C317.077 475.654 317.173 475.654 317.276 475.666H398.845C399.413 475.666 399.951 475.666 400.495 475.739H400.682C400.731 475.751 400.779 475.751 400.821 475.739H400.918L401.879 475.878C402.544 475.975 403.202 476.114 403.849 476.301C404.085 476.349 404.345 476.416 404.58 476.488C405.275 476.7 405.958 476.954 406.623 477.238C407.185 477.473 407.753 477.757 408.291 478.041C408.859 478.343 409.409 478.682 409.934 479.05C410.285 479.286 410.617 479.516 410.944 479.776C411.27 480.035 411.717 480.38 412.098 480.718C412.478 481.057 412.702 481.323 412.986 481.582C413.343 481.963 413.693 482.338 414.019 482.737C414.116 482.827 414.183 482.924 414.255 482.997L414.751 483.631C415.319 484.405 415.832 485.208 416.298 486.048C416.757 486.906 417.156 487.795 417.506 488.701C418.062 490.242 418.431 491.844 418.612 493.469C418.612 493.777 418.661 494.073 418.685 494.364V494.575C418.697 494.847 418.697 495.155 418.697 495.457Z" stroke="#564499" stroke-miterlimit="10"/>
<path opacity="0.4" d="M433.774 543.463H316.575C313.964 543.536 311.36 543.161 308.87 542.364C308.375 542.176 307.909 541.989 307.462 541.759C307.015 541.524 306.616 541.288 306.217 541.052C305.818 540.817 305.468 540.514 305.111 540.23C304.761 539.922 304.434 539.626 304.126 539.312C302.519 537.704 301.322 535.728 300.652 533.559C300.222 532.205 300.011 530.797 300.017 529.377C300.017 528.827 300.047 528.277 300.114 527.733C300.204 526.966 300.367 526.21 300.603 525.479C300.929 524.319 301.437 523.219 302.108 522.216C302.489 521.563 302.948 520.953 303.468 520.403C303.788 520.047 304.126 519.708 304.483 519.388C307.347 516.832 311.505 515.254 316.647 515.254H433.774H432.741C432.662 515.242 432.584 515.242 432.505 515.254C432.269 515.254 432.318 515.254 432.433 515.254C432.439 515.26 432.445 515.267 432.457 515.267C432.469 515.267 432.475 515.267 432.481 515.254C432.535 515.267 432.59 515.267 432.644 515.254H432.765C432.505 515.303 432.245 515.327 431.985 515.393H431.834C428.632 516.028 425.749 517.756 423.67 520.276C421.591 522.796 420.455 525.957 420.443 529.226C420.461 532.671 421.73 535.988 424.021 538.569C426.305 541.143 429.453 542.805 432.868 543.228C432.294 543.445 431.756 543.463 433.774 543.463Z" fill="white"/>
<path d="M432.832 543.397C432.294 543.445 431.756 543.463 431.212 543.463H350.277C348.428 543.463 346.603 543.095 344.899 542.388C343.195 541.681 341.648 540.641 340.342 539.33C338.735 537.723 337.538 535.746 336.868 533.577C336.451 532.223 336.245 530.815 336.263 529.395C336.269 525.667 337.756 522.089 340.391 519.448C343.026 516.808 346.603 515.321 350.332 515.303H431.212C431.611 515.303 432.034 515.303 432.421 515.351C432.493 515.363 432.56 515.363 432.632 515.351H432.753C432.493 515.399 432.233 515.424 431.973 515.49H431.834C428.632 516.125 425.749 517.853 423.67 520.373C421.597 522.893 420.455 526.053 420.443 529.323C420.461 532.767 421.73 536.085 424.021 538.665C426.305 541.24 429.453 542.901 432.868 543.324L432.832 543.397Z" fill="white" stroke="#564499" stroke-miterlimit="10"/>
<path d="M336.243 529.395C336.243 533.124 337.724 536.707 340.364 539.342C343.005 541.983 346.583 543.463 350.311 543.463H315.698C309.262 543.463 305.739 541.892 303.176 539.33C301.871 538.025 300.838 536.478 300.131 534.774C299.424 533.069 299.067 531.244 299.067 529.395C299.067 521.648 305.388 515.303 315.698 515.303H350.311C346.583 515.315 343.005 516.808 340.371 519.448C337.736 522.089 336.249 525.667 336.243 529.395Z" stroke="#564499" stroke-miterlimit="10"/>
<path d="M81.4332 490.454L39.4822 382.984C38.9625 380.905 38.9262 378.736 39.3674 376.639C39.8146 374.542 40.7271 372.572 42.0445 370.886C43.3619 369.194 45.0479 367.828 46.9756 366.891C48.9033 365.954 51.0184 365.465 53.1577 365.465H219.813C223.554 365.465 227.186 366.722 230.129 369.036C233.066 371.351 235.145 374.59 236.015 378.228L281.942 485.686C282.438 487.758 282.462 489.922 282.002 492.001C281.543 494.086 280.619 496.037 279.301 497.711C277.984 499.385 276.298 500.739 274.382 501.67C272.46 502.6 270.357 503.084 268.224 503.084H97.5863C93.8698 503.084 90.2621 501.839 87.3372 499.555C84.4124 497.264 82.3336 494.067 81.4332 490.46V490.454Z" fill="white"/>
<path d="M81.4332 490.454L39.4822 382.984C38.9625 380.905 38.9262 378.736 39.3674 376.639C39.8146 374.542 40.7271 372.572 42.0445 370.886C43.3619 369.194 45.0479 367.828 46.9756 366.891C48.9033 365.954 51.0184 365.465 53.1577 365.465H219.813C223.554 365.465 227.186 366.722 230.129 369.036C233.066 371.351 235.145 374.59 236.015 378.228L281.942 485.686C282.438 487.758 282.462 489.922 282.002 492.001C281.543 494.086 280.619 496.037 279.301 497.711C277.984 499.385 276.298 500.739 274.382 501.67C272.46 502.6 270.357 503.084 268.224 503.084H97.5863C93.8698 503.084 90.2621 501.839 87.3372 499.555C84.4124 497.264 82.3336 494.067 81.4332 490.46V490.454Z" fill="url(#paint2_linear_123_1931)"/>
<path d="M204.107 389.009C202.071 385.945 198.741 384.585 196.662 385.987C194.584 387.389 194.553 390.973 196.59 394.037C196.91 394.502 197.273 394.943 197.666 395.348L182.558 427.237C180.141 425.63 177.5 425.231 175.602 426.5C174.992 426.947 174.484 427.521 174.116 428.18C173.747 428.845 173.536 429.576 173.481 430.337L163.16 426.85L154.137 423.829L151.188 422.862C150.82 421.756 150.306 420.699 149.659 419.726C146.795 415.423 142.118 413.513 139.199 415.453C136.28 417.393 136.25 422.354 139.036 426.627L121.867 450.092C118.121 447.016 113.703 446.067 110.645 448.098C106.488 450.872 106.415 458.093 110.506 464.233C110.67 464.475 110.857 464.68 111.026 464.91L99.5624 480.573L99.4597 480.724C99.1394 481.159 98.9037 481.655 98.7829 482.187C98.656 482.713 98.6439 483.262 98.7345 483.794C98.8252 484.326 99.0306 484.84 99.3268 485.293C99.6229 485.746 100.01 486.133 100.463 486.435C100.916 486.737 101.424 486.943 101.955 487.033C102.487 487.13 103.037 487.118 103.563 486.997C104.089 486.876 104.59 486.647 105.025 486.326C105.46 486.006 105.829 485.601 106.107 485.136L116.302 469.792C119.517 471.66 122.949 472.016 125.445 470.348C129.421 467.702 129.609 461.006 126.049 455.059L142.517 430.204C144.934 431.854 147.629 432.277 149.551 431.002C150.626 430.247 151.358 429.092 151.587 427.799L152.796 428.144L161.975 430.652L173.723 433.818C174.079 435.226 174.672 436.562 175.475 437.77C178.334 442.067 183.017 443.983 185.936 442.043C188.855 440.103 188.891 435.045 186.033 430.748C185.61 430.126 185.138 429.534 184.619 428.99L198.995 396.484C200.729 397.693 202.621 397.965 204.017 397.052C206.126 395.705 206.156 392.079 204.107 389.009Z" fill="white"/>
<path d="M94.7281 390.773H72.4594C71.4381 390.773 70.435 390.483 69.5708 389.921C68.7127 389.365 68.0359 388.568 67.625 387.631C67.4981 387.341 67.4316 387.033 67.4255 386.718C67.4316 386.108 67.6793 385.528 68.1084 385.105C68.5375 384.676 69.1236 384.44 69.7279 384.434H93.4107C92.3109 386.314 92.9152 388.924 94.7281 390.773Z" fill="white"/>
<path d="M109.147 388.489C109.147 389.093 108.899 389.674 108.47 390.103C108.041 390.532 107.461 390.773 106.857 390.773H94.7281C92.879 388.924 92.3109 386.314 93.4289 384.434H104.125C105.146 384.434 106.15 384.724 107.008 385.274C107.866 385.83 108.543 386.622 108.96 387.558C109.086 387.855 109.147 388.169 109.147 388.489Z" fill="#EF3922"/>
<path d="M103.575 390.773C103.509 390.894 103.436 391.009 103.358 391.124C101.762 393.293 98.3176 393.499 95.6405 391.541C95.3202 391.311 95.0181 391.051 94.7401 390.773C92.8909 388.924 92.3229 386.314 93.4408 384.434C93.5013 384.307 93.5738 384.192 93.6584 384.084C95.2356 381.902 98.6802 381.715 101.357 383.655C101.684 383.89 101.986 384.15 102.27 384.434C104.107 386.289 104.675 388.876 103.575 390.773Z" fill="white"/>
<path d="M114.749 402.473C114.749 403.083 114.501 403.663 114.066 404.086C113.637 404.515 113.05 404.757 112.446 404.757H89.0655C90.1955 402.859 89.6335 400.273 87.7783 398.418H109.739C110.766 398.418 111.769 398.708 112.627 399.264C113.486 399.82 114.162 400.617 114.573 401.554C114.694 401.844 114.755 402.152 114.749 402.467V402.473Z" fill="#EF3922"/>
<path d="M89.0654 404.775H78.0671C77.0458 404.775 76.0426 404.485 75.1845 403.935C74.3264 403.379 73.6496 402.588 73.2326 401.651C73.1057 401.361 73.0392 401.047 73.0332 400.726C73.0332 400.424 73.0876 400.128 73.2024 399.85C73.3172 399.572 73.4864 399.318 73.6979 399.107C73.9094 398.895 74.1633 398.726 74.4412 398.611C74.7192 398.496 75.0153 398.436 75.3175 398.436H87.7783C89.6335 400.273 90.1955 402.859 89.0654 404.775Z" fill="white"/>
<path d="M89.0653 404.775C89.017 404.902 88.9505 405.017 88.8659 405.126C87.2887 407.313 83.8381 407.501 81.161 405.561C80.8286 405.325 80.5144 405.059 80.2243 404.775C78.4114 402.926 77.8071 400.334 78.9251 398.436C78.9855 398.315 79.058 398.2 79.1426 398.092C80.7319 395.916 84.1765 395.717 86.8596 397.669C87.1738 397.904 87.476 398.158 87.754 398.436C89.6334 400.273 90.1954 402.859 89.0653 404.775Z" fill="white"/>
<path d="M96.855 418.674H82.8593C81.838 418.674 80.8349 418.384 79.9768 417.828C79.1187 417.272 78.4418 416.481 78.0249 415.544C77.898 415.254 77.8315 414.946 77.8254 414.631C77.8254 414.021 78.0672 413.435 78.5023 413.006C78.9313 412.577 79.5175 412.329 80.1278 412.329H95.5256C94.4499 414.196 95.018 416.789 96.855 418.674Z" fill="#EF3922"/>
<path d="M119.541 416.372C119.541 416.976 119.293 417.556 118.864 417.979C118.435 418.408 117.855 418.644 117.25 418.644H96.855C95.042 416.789 94.4377 414.196 95.5497 412.299H114.531C115.552 412.299 116.549 412.595 117.401 413.151C118.253 413.707 118.924 414.504 119.335 415.441C119.468 415.731 119.535 416.051 119.541 416.372Z" fill="white"/>
<path d="M105.684 418.674C105.623 418.795 105.551 418.91 105.466 419.019C103.889 421.206 100.445 421.394 97.7675 419.454C97.4472 419.212 97.139 418.952 96.855 418.674C95.042 416.819 94.4377 414.226 95.5497 412.329C95.6101 412.208 95.6886 412.093 95.7672 411.985C97.3626 409.815 100.807 409.622 103.484 411.561C103.804 411.797 104.101 412.051 104.385 412.329C106.21 414.154 106.814 416.759 105.684 418.674Z" fill="white"/>
<path d="M187.35 484.145H173.348C172.327 484.145 171.324 483.855 170.466 483.299C169.608 482.743 168.931 481.951 168.514 481.014C168.381 480.73 168.314 480.416 168.308 480.102C168.308 479.492 168.55 478.905 168.985 478.476C169.414 478.047 170 477.799 170.611 477.799H186.015C184.945 479.709 185.513 482.289 187.35 484.145Z" fill="#EF3922"/>
<path d="M242.916 481.873C242.916 482.169 242.855 482.465 242.741 482.743C242.626 483.021 242.457 483.268 242.245 483.48C242.034 483.691 241.78 483.861 241.502 483.975C241.224 484.09 240.928 484.145 240.632 484.145H187.35C185.537 482.289 184.933 479.697 186.045 477.799H237.906C238.927 477.799 239.924 478.096 240.777 478.652C241.629 479.208 242.299 480.005 242.71 480.936C242.843 481.232 242.91 481.546 242.916 481.866V481.873Z" fill="white"/>
<path d="M196.179 484.145C196.118 484.266 196.046 484.38 195.961 484.489C194.384 486.677 190.939 486.864 188.262 484.924C187.942 484.689 187.634 484.429 187.35 484.145C185.537 482.29 184.933 479.697 186.045 477.8C186.105 477.679 186.184 477.564 186.262 477.455C187.857 475.286 191.302 475.092 193.979 477.032C194.299 477.268 194.595 477.522 194.88 477.8C196.729 479.655 197.297 482.259 196.179 484.145Z" fill="white"/>
<path d="M110.924 217.337C116.713 221.416 126.569 219.604 129.083 212.352C131.21 206.194 124.333 200.64 119.825 197.77C114.084 194.12 107.298 191.213 100.457 190.609C87.7365 189.521 93.4109 201.094 93.4109 201.094" stroke="#564499" stroke-miterlimit="10"/>
<defs>
<linearGradient id="paint0_linear_123_1931" x1="318.871" y1="226.711" x2="318.871" y2="252.556" gradientUnits="userSpaceOnUse">
<stop stop-color="#EF3922"/>
<stop offset="1" stop-color="#564499"/>
</linearGradient>
<linearGradient id="paint1_linear_123_1931" x1="282.139" y1="222.23" x2="282.139" y2="248.092" gradientUnits="userSpaceOnUse">
<stop stop-color="#EF3922"/>
<stop offset="1" stop-color="#564499"/>
</linearGradient>
<linearGradient id="paint2_linear_123_1931" x1="39.0592" y1="434.265" x2="282.335" y2="434.265" gradientUnits="userSpaceOnUse">
<stop stop-color="#EF3922"/>
<stop offset="1" stop-color="#564499"/>
</linearGradient>
</defs>
</svg>
