<svg width="134" height="134" viewBox="0 0 134 134" fill="none" xmlns="http://www.w3.org/2000/svg">
<path fill-rule="evenodd" clip-rule="evenodd" d="M52.2293 61.7397C50.7709 63.1252 48.7345 63.6408 46.7866 63.12C44.6512 62.5471 43.0054 60.7711 42.6148 58.5888C42.4429 57.6617 41.5471 57.0472 40.6252 57.2139C39.6981 57.3805 39.0836 58.2711 39.2502 59.1983C39.8805 62.6723 42.4898 65.5056 45.9013 66.4171C46.6982 66.6306 47.5002 66.7348 48.292 66.7348C50.5993 66.7348 52.8441 65.8598 54.5732 64.2192C55.2555 63.5681 55.2867 62.49 54.6409 61.8077C53.995 61.1202 52.922 61.0887 52.2293 61.7397ZM60.4272 57.7137V76.0257C60.4272 79.1976 57.8438 81.7757 54.672 81.7757C51.5053 81.7757 48.9324 79.1976 48.9324 76.0257C48.9324 74.6299 49.4376 73.2809 50.3594 72.2288C50.9844 71.5205 50.9167 70.4424 50.2084 69.8173C49.4949 69.1975 48.422 69.2652 47.7969 69.9736C46.3281 71.6402 45.5209 73.7809 45.5157 75.9996C43.9949 75.2548 42.8179 73.8693 42.4116 72.1506C42.3022 71.7079 42.0262 71.3225 41.6356 71.0829C41.2502 70.8433 40.7866 70.7756 40.3387 70.8798C39.8908 70.9892 39.4324 71.0465 38.9742 71.0465C35.896 71.0465 33.3335 68.5517 33.2346 65.4839C33.2971 63.8642 34.0418 62.3329 35.2971 61.2809C36.021 60.6767 36.12 59.5986 35.5158 58.8746C34.9065 58.1507 33.8284 58.0569 33.1044 58.6611C31.7033 59.8381 30.7137 61.3903 30.1981 63.1037C28.5522 62.0673 27.4741 60.2288 27.4741 58.2027C27.4741 54.76 30.2762 51.9579 33.7241 51.9579H47.5681C47.2035 52.4058 46.8702 52.8797 46.5889 53.4057C46.1514 54.2391 46.4639 55.2703 47.292 55.7183C47.5473 55.8537 47.8285 55.9162 48.0941 55.9162C48.7035 55.9162 49.292 55.5881 49.5993 55.0099C50.6045 53.1245 52.5472 51.9578 54.6775 51.9578C57.8493 51.963 60.4272 54.5471 60.4272 57.7137ZM33.7192 48.5471H47.5632C47.1986 48.0939 46.8653 47.62 46.584 47.094C46.1465 46.2607 46.459 45.2295 47.2871 44.7867C48.1257 44.3439 49.1517 44.6564 49.5945 45.4898C50.4538 47.0939 51.9851 48.172 53.7455 48.4586H55.5007C58.2767 48.0523 60.4278 45.6826 60.4278 42.7919L60.433 24.4852C60.433 21.3134 57.8497 18.7352 54.6778 18.7352C51.5111 18.7352 48.9382 21.3134 48.9382 24.4852C48.9382 25.8863 49.4434 27.2352 50.3653 28.2822C50.9903 28.9905 50.9226 30.0686 50.2142 30.6936C49.8861 30.9801 49.4903 31.1207 49.084 31.1207C48.6101 31.1207 48.1361 30.9228 47.8028 30.5426C46.334 28.8759 45.5268 26.7353 45.5216 24.5166C44.0008 25.2614 42.8237 26.6521 42.4174 28.3655C42.3081 28.8082 42.032 29.1937 41.6414 29.4332C41.2508 29.6728 40.782 29.7405 40.3393 29.6364C39.907 29.527 39.4487 29.4697 38.98 29.4697C35.9018 29.4697 33.3393 31.9645 33.2404 35.0322C33.3029 36.652 34.0477 38.1781 35.3029 39.2301C36.0269 39.8395 36.1258 40.9124 35.5217 41.6364C35.1779 42.0374 34.6987 42.2457 34.2039 42.2457C33.8185 42.2457 33.4279 42.1155 33.1102 41.8499C31.7091 40.6728 30.7195 39.1207 30.2039 37.4072C28.5581 38.4385 27.4799 40.277 27.4799 42.277C27.4747 45.7458 30.2765 48.5471 33.7192 48.5471ZM92.5685 50.1721C92.5685 51.2659 93.4591 52.1565 94.5581 52.1565C95.6467 52.1565 96.5373 51.2659 96.5373 50.1721C96.5373 49.0784 95.6467 48.1877 94.5581 48.1877C93.4592 48.1877 92.5685 49.0783 92.5685 50.1721ZM77.3805 23.2601C78.3336 23.807 79.5472 23.4841 80.0941 22.5362C80.3597 22.0778 80.4327 21.5414 80.292 21.031C80.1566 20.5205 79.8285 20.0883 79.365 19.8226C78.9066 19.557 78.3702 19.4841 77.8598 19.6247C77.3441 19.7601 76.9223 20.0935 76.6566 20.5518C76.115 21.4945 76.4378 22.7133 77.3805 23.2601ZM82.6617 38.8588C82.6617 39.9525 83.5523 40.8432 84.6513 40.8432C85.7503 40.8432 86.6409 39.9526 86.6409 38.8588C86.6409 37.765 85.7503 36.8744 84.6513 36.8744C83.5576 36.8744 82.6617 37.765 82.6617 38.8588ZM82.6617 60.8068C82.6617 61.9005 83.5523 62.7912 84.6513 62.7912C85.7503 62.7912 86.6409 61.9006 86.6409 60.8068C86.6409 59.713 85.7503 58.8224 84.6513 58.8224C83.5576 58.8224 82.6617 59.7182 82.6617 60.8068ZM80.094 77.8175C79.8336 77.3591 79.4013 77.0258 78.8909 76.8904C78.719 76.8435 78.5523 76.8227 78.3856 76.8227H78.3752H78.37C78.0263 76.8227 77.6929 76.9164 77.3857 77.0883C76.4377 77.6352 76.12 78.8487 76.6617 79.8019C76.9273 80.2602 77.3544 80.5883 77.8648 80.7238C78.3804 80.8592 78.9117 80.7915 79.37 80.5259C79.8283 80.2602 80.1565 79.8331 80.2971 79.3227C80.4325 78.8071 80.3648 78.2758 80.094 77.8175ZM54.6726 85.1924C50.9956 85.1924 47.8133 82.9997 46.3601 79.8487C43.3497 79.2914 40.7872 77.2445 39.5789 74.4424C39.381 74.458 39.1831 74.4632 38.9747 74.4632C34.4799 74.4632 30.657 71.1195 29.9383 66.7862C26.4695 65.4372 24.0581 62.0206 24.0581 58.234C24.0581 54.9163 25.7143 51.9996 28.2455 50.2548C25.7195 48.51 24.0581 45.5986 24.0581 42.3018C24.0581 38.4944 26.4695 35.0726 29.9383 33.7236C30.6571 29.3851 34.4799 26.0466 38.9747 26.0466C39.1779 26.0466 39.381 26.0518 39.5789 26.0674C40.7925 23.2653 43.3549 21.2185 46.3601 20.6611C47.8132 17.5153 50.9852 15.3226 54.6726 15.3226C59.73 15.3226 63.8393 19.4319 63.8393 24.4841V35.2341H70.459L76.6673 29.031V26.6561C76.3288 26.5415 75.9954 26.4061 75.6725 26.2186C73.0944 24.729 72.2037 21.4216 73.6985 18.8436C74.4173 17.5936 75.584 16.703 76.9745 16.328C78.3704 15.9582 79.8235 16.1457 81.0735 16.8697C83.6568 18.3593 84.5423 21.6666 83.0527 24.25C82.3704 25.4375 81.2923 26.2552 80.0839 26.6614V29.7448C80.0839 30.1979 79.9016 30.6302 79.5839 30.9531L72.3756 38.1562C72.0527 38.4739 71.6204 38.6562 71.1725 38.6562H63.8391V41.8592H72.1413L76.3391 37.6614C76.6621 37.3384 77.0944 37.1614 77.5423 37.1614H79.5423C80.261 35.0259 82.2611 33.4687 84.6412 33.4687C87.6204 33.4687 90.0423 35.8906 90.0423 38.8698C90.0423 41.849 87.6204 44.2708 84.6412 44.2708C82.2609 44.2708 80.2609 42.7135 79.5423 40.5782H78.2454L74.0527 44.776C73.7298 45.0989 73.2975 45.276 72.8496 45.276L63.5007 45.2656C63.1621 46.4479 62.61 47.526 61.8704 48.4635H89.4584C90.1771 46.3228 92.1772 44.7708 94.5573 44.7708C97.5313 44.7708 99.9584 47.1927 99.9584 50.1719C99.9584 53.1511 97.5313 55.5729 94.5573 55.5729C92.1771 55.5729 90.1771 54.0156 89.4584 51.8803H61.7397C62.5158 52.8126 63.0991 53.8959 63.4585 55.0833H73.1148C73.5627 55.0833 74.0002 55.2656 74.3179 55.5833L77.8335 59.1041H79.5523C80.2711 56.9687 82.2711 55.4115 84.6512 55.4115C87.6304 55.4115 90.0523 57.8333 90.0523 60.8125C90.0523 63.7917 87.6304 66.2136 84.6512 66.2136C82.271 66.2136 80.271 64.6563 79.5523 62.5209H77.1252C76.6721 62.5209 76.2398 62.3439 75.9221 62.0209L72.4013 58.5001H63.844V61.7032H71.1773C71.6304 61.7032 72.0627 61.8855 72.3804 62.2032L79.5887 69.4063C79.9064 69.7292 80.0887 70.1615 80.0887 70.6146V73.7135C81.2918 74.1146 82.3699 74.9219 83.0575 76.1094C83.7763 77.3594 83.969 78.8125 83.5992 80.2083C83.2242 81.599 82.3336 82.7657 81.0784 83.4843C80.2503 83.9687 79.3232 84.2083 78.3857 84.2083C77.917 84.2083 77.4482 84.1458 76.9794 84.026C75.5888 83.651 74.4221 82.7604 73.7034 81.5104C72.2086 78.9323 73.0993 75.6197 75.6774 74.1301C76.0004 73.9479 76.3337 73.7968 76.6722 73.6822V71.3177L70.464 65.1146H63.8442V76.0261C63.8442 81.0834 59.73 85.1924 54.6726 85.1924ZM52.23 39.0151C50.7716 37.6244 48.7352 37.1088 46.7821 37.6296C44.6466 38.2025 43.0061 39.9837 42.6154 42.1608C42.4644 42.9889 41.7457 43.5671 40.9384 43.5671C40.8342 43.5671 40.7353 43.5566 40.6311 43.541C39.704 43.3743 39.0895 42.4837 39.2562 41.5566C39.8864 38.0826 42.4958 35.2493 45.902 34.3326C49.0062 33.5045 52.2509 34.3274 54.5843 36.5357C55.2666 37.1867 55.2978 38.2649 54.652 38.9523C53.9957 39.6294 52.9226 39.6609 52.23 39.0151ZM49.6258 95.1551C49.6258 93.1551 48.0008 91.5248 45.9956 91.5248C44.0008 91.5248 42.3705 93.1551 42.3705 95.1551C42.3705 97.1551 44.0008 98.7853 45.9956 98.7853C48.0008 98.7853 49.6258 97.1551 49.6258 95.1551ZM53.0425 95.1551C53.0425 98.1239 51.1936 100.665 48.5789 101.697C48.2925 110.603 45.1882 117.858 42.1674 124.874C41.5997 126.197 41.0372 127.509 40.4956 128.817C40.23 129.478 39.5893 129.874 38.9174 129.874H38.907C38.6883 129.874 38.4747 129.832 38.2664 129.744C37.3966 129.384 36.9799 128.39 37.3341 127.515C37.881 126.192 38.4487 124.858 39.0268 123.525C41.8549 116.952 44.7664 110.165 45.1518 102.14C41.657 101.723 38.9488 98.7489 38.9488 95.15C38.9488 91.2645 42.105 88.1031 45.9852 88.1031C49.881 88.1135 53.0425 91.2696 53.0425 95.1551ZM82.9545 95.5301C82.9545 97.5301 84.5796 99.1551 86.5796 99.1551C88.5796 99.1551 90.2047 97.5301 90.2047 95.5301C90.2047 93.5249 88.5796 91.8998 86.5796 91.8998C84.5796 91.8998 82.9545 93.5301 82.9545 95.5301ZM80.7201 99.4311C69.1889 104.379 62.6001 113.41 59.4694 128.519C59.2976 129.326 58.584 129.878 57.7976 129.878H57.7872C57.6726 129.878 57.5632 129.868 57.4486 129.842C56.5215 129.649 55.933 128.748 56.1257 127.821C59.5268 111.409 66.7924 101.603 79.5684 96.2012C79.5475 95.9772 79.5319 95.7533 79.5319 95.5241C79.5319 91.6387 82.6882 88.4772 86.5735 88.4772C90.459 88.4772 93.6151 91.6387 93.6151 95.5241C93.6151 99.4044 90.4588 102.566 86.5735 102.566C84.1308 102.571 81.9805 101.322 80.7201 99.4311ZM119.069 78.8325C118.622 80.7595 117.028 82.4106 114.33 83.7335C113.507 84.1606 112.444 84.7127 113.788 89.369C114.158 90.3377 114.033 91.4106 113.429 92.4106C112.715 93.6033 111.392 94.5929 109.934 95.2961C111.523 96.5825 112.799 98.1554 112.944 99.9263C113.028 100.942 112.762 102.437 111.033 103.765C110.194 104.39 109.257 105.791 109.215 111.26C109.319 113.244 108.397 114.504 107.621 115.192C105.523 117.041 101.632 117.4 95.3767 116.312C89.6371 115.01 85.1736 115.421 82.022 117.504C79.0012 119.504 76.9908 123.197 76.0532 128.468C75.8918 129.395 74.9959 130.01 74.074 129.848C73.1417 129.682 72.5271 128.796 72.6885 127.869C73.8031 121.64 76.3083 117.197 80.1364 114.655C84.0895 112.036 89.4437 111.463 96.0484 112.963C102.783 114.135 104.804 113.119 105.361 112.624C105.585 112.426 105.845 112.098 105.809 111.322C105.851 105.64 106.767 102.692 108.965 101.041C109.569 100.577 109.548 100.286 109.538 100.192C109.476 99.3899 108.048 97.7962 105.09 96.1868C104.424 95.8275 104.075 95.0722 104.231 94.3275C104.392 93.5879 105.017 93.041 105.772 92.9786C108.048 92.7963 110.351 91.2338 110.569 90.515C110.554 90.4785 110.543 90.4368 110.528 90.3952C109.455 86.7181 108.882 82.6921 112.783 80.6712C114.528 79.817 115.538 78.916 115.736 78.0566C115.892 77.3848 115.58 76.5358 114.804 75.5358C111.882 72.3588 109.528 69.0722 107.809 65.7702C106.111 62.5098 105.491 59.291 105.861 55.6348C106.007 54.1608 106.08 52.6556 106.08 51.166C106.08 26.7593 86.2197 6.90063 61.8144 6.90063C37.4091 6.90063 17.5491 26.7606 17.5491 51.166C17.5491 61.6348 21.2679 71.7913 28.0335 79.77C30.4657 82.6449 31.7887 85.723 32.2053 89.4678C33.4501 100.869 30.3668 114.515 23.2835 128.921C22.9866 129.525 22.3876 129.874 21.7575 129.874C21.5022 129.874 21.2418 129.817 21.0022 129.697C20.1533 129.281 19.8043 128.26 20.221 127.411C27.0179 113.583 29.9866 100.593 28.8095 89.8375C28.471 86.8063 27.4033 84.3063 25.4241 81.9781C18.1481 73.3844 14.1323 62.4421 14.1323 51.1661C14.1375 24.8848 35.5337 3.49414 61.8257 3.49414C88.1177 3.49414 109.508 24.8848 109.508 51.1768C109.508 52.7757 109.425 54.3956 109.269 55.9893C108.967 58.9529 109.467 61.5623 110.847 64.2029C112.435 67.2551 114.633 70.3123 117.378 73.2863C117.404 73.3227 117.441 73.354 117.467 73.3904C118.93 75.2654 119.472 77.0987 119.071 78.8331L119.069 78.8325Z" fill="url(#paint0_linear_493_948)"/>
<defs>
<linearGradient id="paint0_linear_493_948" x1="66.6656" y1="3.49414" x2="66.6656" y2="129.878" gradientUnits="userSpaceOnUse">
<stop stop-color="#EF3922"/>
<stop offset="1" stop-color="#564499"/>
</linearGradient>
</defs>
</svg>
