<svg width="125" height="125" viewBox="0 0 125 125" fill="none" xmlns="http://www.w3.org/2000/svg">
<path d="M73.4427 32.1878C73.9687 32.3753 74.4843 32.5732 74.9843 32.7815C75.5207 33.0003 76.0259 33.2294 76.4895 33.4482H76.4947C78.328 34.3753 80.4947 34.344 82.302 33.3753L82.5207 33.2659V33.2607C84.453 32.2711 86.802 32.6409 88.3333 34.1773L89.677 35.5211C89.7031 35.5523 89.7395 35.5836 89.7656 35.62L91.0208 36.8752V36.87C92.5624 38.396 92.9374 40.7503 91.9427 42.6774L91.8229 42.8961L91.8281 42.9013C90.8541 44.7035 90.8229 46.8753 91.7499 48.7035C91.9687 49.1722 92.1979 49.6722 92.4166 50.2139C92.6302 50.7243 92.8385 51.2399 93.0104 51.7555C93.6614 53.6981 95.2134 55.2033 97.1718 55.8024L97.4062 55.8805V55.8753C99.4791 56.5264 100.88 58.4586 100.859 60.6357V64.4274V64.4222C100.88 66.5993 99.479 68.5316 97.4062 69.1826L97.1718 69.2608C95.2134 69.8545 93.6614 71.3597 93.0104 73.3024C92.8229 73.8284 92.6301 74.344 92.4166 74.844C92.1979 75.3752 91.9687 75.8752 91.7499 76.3544C90.8229 78.1825 90.8541 80.3492 91.8281 82.1565L91.9479 82.3857L91.9427 82.3805C92.9374 84.3127 92.5624 86.6617 91.0208 88.1878L88.3333 90.8857C88.3021 90.9273 88.2656 90.9586 88.2239 90.9898C87.4948 91.6877 86.5729 92.1409 85.5781 92.2971C84.5364 92.4638 83.4635 92.2919 82.5207 91.8127L82.302 91.6982V91.693C80.4946 90.7294 78.328 90.7034 76.4946 91.62C76.0259 91.8492 75.5259 92.0679 74.9894 92.2867C74.479 92.5002 73.9634 92.6982 73.4478 92.8857H73.4426C72.4895 93.2086 71.6249 93.7503 70.9166 94.469C70.2187 95.1982 69.7031 96.0783 69.401 97.0367L69.3229 97.2711C68.6719 99.344 66.7396 100.75 64.5677 100.729H60.776C58.6041 100.75 56.6718 99.344 56.0156 97.2711C56.0156 97.2503 55.9947 97.2242 55.9895 97.193L55.9427 97.0367C55.6406 96.0784 55.1197 95.1982 54.4167 94.469C53.7135 93.7502 52.8437 93.2086 51.8907 92.8857C51.3646 92.6982 50.849 92.5002 50.3491 92.2867C49.8126 92.0679 49.3074 91.844 48.8335 91.62C47.0001 90.7034 44.8387 90.7294 43.0313 91.6929L42.8022 91.8075L42.8074 91.8127C40.8803 92.8023 38.5314 92.4273 37.0052 90.8857H37L34.3178 88.2034C32.7762 86.6722 32.4011 84.3231 33.3907 82.3961L33.5105 82.1669C34.4844 80.3648 34.5105 78.1981 33.5886 76.37C33.3594 75.896 33.1407 75.3856 32.9219 74.8544C32.7084 74.3544 32.5105 73.8335 32.323 73.3128L32.3178 73.3075C31.9948 72.3544 31.4532 71.4898 30.7344 70.7815C30.0052 70.0836 29.1303 69.5628 28.1667 69.2607L27.9323 69.1826C25.8594 68.5316 24.4531 66.5993 24.4739 64.4222V60.6305V60.6357C24.4531 58.4586 25.8594 56.5316 27.9323 55.8753L28.0156 55.8545L28.1667 55.7972V55.8024C29.125 55.5003 30.0052 54.9795 30.7344 54.2816C31.4532 53.5785 31.9948 52.7138 32.3178 51.7556C32.5052 51.24 32.7032 50.7243 32.9167 50.214C33.1355 49.6775 33.3594 49.1723 33.5834 48.7036H33.5886C34.5105 46.8754 34.4844 44.7036 33.5105 42.9014L33.3907 42.6827V42.6775C32.4011 40.7504 32.7709 38.3963 34.3178 36.8702L37 34.1879C38.526 32.6515 40.875 32.2816 42.8022 33.2712L43.0313 33.3806C44.8387 34.3546 47.0053 34.3806 48.8335 33.4535C49.3074 33.2348 49.8178 33.0056 50.3491 32.7869C50.8543 32.5785 51.3699 32.3806 51.8907 32.1931C53.8281 31.5421 55.3333 29.99 55.9323 28.0368L56.0104 27.7973L56.0052 27.792C56.6614 25.7191 58.5885 24.318 60.7656 24.3336H64.5573H64.5521C66.7292 24.318 68.6614 25.7191 69.3125 27.792L69.3906 28.0316V28.0368C69.9844 29.9952 71.4896 31.542 73.4322 32.1879L73.4427 32.1878ZM4.05732 85.4278C3.38544 86.0736 2.30732 86.058 1.66145 85.3809C1.01041 84.7038 1.03124 83.6309 1.70312 82.9798L8.70832 76.2716C9.03124 75.9122 9.48957 75.709 9.97395 75.709C10.4792 75.709 10.9583 75.933 11.2865 76.3236L17.9895 83.3236C18.6406 83.9955 18.6197 85.0736 17.9426 85.7195C17.2708 86.3705 16.1978 86.3497 15.5468 85.6778L11.677 81.6414L11.6718 106.573C11.6875 110.407 14.7916 113.516 18.6302 113.532H38.6662C39.5465 108.834 43.8537 105.584 48.6089 106.027C53.3641 106.464 56.9996 110.454 56.9996 115.23C56.9996 120.006 53.3641 123.995 48.6089 124.438C43.8537 124.881 39.5464 121.625 38.6662 116.933H18.6249C12.9113 116.912 8.28637 112.287 8.26557 106.573V81.3908L4.05732 85.4278ZM85.5573 121.141C85.8854 121.464 86.0625 121.902 86.0625 122.36C86.0573 122.813 85.8698 123.25 85.5417 123.568C85.2136 123.886 84.7709 124.058 84.3125 124.042C83.8542 124.032 83.4219 123.834 83.1146 123.495L76.4063 116.49C76.0366 116.162 75.8282 115.688 75.8386 115.193C75.8491 114.693 76.0782 114.23 76.4584 113.917L83.4584 107.214C83.7813 106.896 84.2188 106.724 84.6668 106.735C85.1199 106.74 85.5522 106.928 85.8647 107.256C86.1772 107.579 86.3438 108.016 86.3334 108.469C86.323 108.917 86.1355 109.349 85.8074 109.657L81.771 113.527L106.708 113.532C110.542 113.516 113.651 110.407 113.661 106.573V86.5266C108.969 85.6516 105.719 81.3444 106.156 76.5892C106.599 71.834 110.588 68.1985 115.364 68.1985C120.14 68.1985 124.13 71.834 124.568 76.5892C125.01 81.3444 121.76 85.6517 117.068 86.5266V106.573C117.047 112.287 112.422 116.912 106.708 116.933H81.5202L85.5573 121.141ZM121.276 39.6411C121.599 39.3286 122.031 39.1567 122.484 39.1671C122.932 39.1776 123.365 39.3598 123.672 39.688C124.323 40.3598 124.302 41.438 123.63 42.0838L116.625 48.7921V48.7973C116.292 49.1619 115.818 49.3702 115.323 49.3598C114.828 49.3494 114.365 49.1202 114.047 48.74L107.344 41.74C106.724 41.0629 106.76 40.0108 107.422 39.3755C108.089 38.7349 109.135 38.7453 109.792 39.3911L113.661 43.4275V18.4955C113.651 14.657 110.542 11.5528 106.708 11.5424H86.6563C85.7761 16.2612 81.448 19.5268 76.6719 19.084C71.9011 18.6466 68.2448 14.6414 68.2448 9.84445C68.2448 5.04751 71.9011 1.04231 76.6719 0.599648C81.4479 0.156941 85.776 3.42778 86.6563 8.14125H106.708C112.417 8.15687 117.047 12.7819 117.068 18.4954V43.6781L121.276 39.6411ZM39.776 3.92776C39.4583 3.60484 39.2864 3.16735 39.2916 2.71421C39.302 2.26629 39.4895 1.834 39.8124 1.52151C40.1406 1.209 40.5781 1.03713 41.026 1.04755C41.4791 1.05796 41.9062 1.25067 42.2187 1.5788L48.927 8.5788C49.2915 8.90692 49.4947 9.38088 49.4843 9.87568C49.4738 10.3705 49.2499 10.834 48.8749 11.1517L41.8749 17.8548C41.1978 18.4798 40.1405 18.4485 39.4999 17.7819C38.8593 17.1204 38.8697 16.0631 39.5208 15.4069L43.5624 11.5424H18.625C14.7917 11.5528 11.6824 14.6569 11.672 18.4955V38.5475C16.375 39.4225 19.6356 43.7401 19.1928 48.5059C18.7501 53.2715 14.7553 56.9121 9.96878 56.9121C5.18238 56.9121 1.18758 53.2715 0.74478 48.5059C0.302073 43.7403 3.56251 39.4225 8.26558 38.5475V18.4955C8.28641 12.7819 12.9166 8.15694 18.6249 8.14134H43.8129L39.776 3.92776ZM51.9374 111.084C49.9582 109.099 46.8541 108.792 44.526 110.349C42.1926 111.902 41.2864 114.886 42.3593 117.474C43.427 120.063 46.177 121.537 48.927 120.99C51.677 120.443 53.6562 118.032 53.651 115.23C53.6563 113.672 53.0417 112.183 51.9374 111.084ZM119.511 73.2611C117.526 71.2767 114.422 70.9642 112.084 72.5163C109.75 74.0736 108.839 77.0632 109.912 79.657C110.979 82.2507 113.735 83.7247 116.485 83.1778C119.24 82.6361 121.224 80.2194 121.224 77.4174C121.229 75.86 120.61 74.36 119.511 73.2611ZM81.6987 5.69309C79.7143 3.70869 76.6049 3.39616 74.2716 4.95351C71.9383 6.50564 71.0268 9.49511 72.0997 12.089C73.1674 14.6827 75.9227 16.1567 78.6727 15.615C81.4279 15.0681 83.407 12.6566 83.4122 9.84937C83.4175 8.29204 82.7977 6.79723 81.6987 5.69309ZM14.12 43.5051C12.1408 41.5207 9.03665 41.2134 6.70332 42.7655C4.36999 44.3228 3.46372 47.3071 4.53145 49.8958C5.60437 52.4895 8.35439 53.9635 11.1044 53.4166C13.8544 52.8749 15.8388 50.4635 15.8388 47.6614C15.8388 46.104 15.2242 44.6092 14.12 43.5051ZM62.6613 42.2395C68.9739 42.2395 74.9269 45.1717 78.7707 50.1717C82.6144 55.1769 83.9113 61.6873 82.2811 67.7811C80.6508 73.88 76.2811 78.8696 70.4529 81.2864C64.6196 83.7031 57.9999 83.2708 52.5316 80.1197C47.068 76.9635 43.3805 71.4479 42.5524 65.1931C41.7295 58.9379 43.8597 52.6515 48.3232 48.1877C52.1201 44.3752 57.2868 42.2347 62.6672 42.2451L62.6613 42.2395ZM74.6092 50.5884C68.9113 44.8905 59.9839 44.0103 53.2812 48.4843C46.5833 52.9583 43.9739 61.5468 47.0572 68.9896C50.1405 76.4375 58.052 80.6667 65.9532 79.0937C73.8595 77.526 79.5519 70.5937 79.5519 62.5311C79.5571 58.0519 77.7759 53.7551 74.6092 50.5884ZM73.6821 35.9217C73.2342 35.729 72.7707 35.5571 72.3124 35.3905C69.3801 34.3853 67.0988 32.0415 66.1769 29.0831L66.104 28.8436L66.0988 28.8384C65.9998 28.5154 65.7967 28.2342 65.5207 28.0363C65.2446 27.8332 64.9113 27.729 64.5727 27.7394H60.781C60.0831 27.7186 59.4529 28.1717 59.2498 28.8384L59.1561 29.0831C58.229 32.0415 55.9478 34.3853 53.0154 35.3957C52.5518 35.5623 52.0935 35.7342 51.6457 35.9269C51.1978 36.1196 50.7654 36.3071 50.2967 36.5259H50.2915C47.5051 37.8904 44.2342 37.8436 41.4842 36.4061L41.2654 36.2915C40.9634 36.1301 40.6196 36.0728 40.2811 36.1248C39.9477 36.1821 39.6352 36.3436 39.4009 36.5884L36.7134 39.2707H36.7082C36.1978 39.755 36.078 40.5207 36.4217 41.1352L36.5363 41.3539C37.2394 42.7133 37.6196 44.2185 37.6457 45.7498C37.6561 47.2758 37.3176 48.7862 36.6561 50.1665C36.4269 50.6352 36.2342 51.0831 36.0519 51.5154C35.8644 51.9529 35.6873 52.4217 35.5207 52.8851H35.5155C34.5155 55.8226 32.1769 58.1039 29.2133 59.0258L29.0571 59.0727L28.9789 59.0987V59.1039C28.3071 59.307 27.8539 59.9321 27.8644 60.6299V64.4217C27.8592 64.7654 27.9685 65.0987 28.1664 65.38C28.3696 65.6508 28.656 65.8487 28.9789 65.9477L29.2133 66.031C32.1769 66.9529 34.5207 69.2341 35.5207 72.1717C35.6873 72.6352 35.8644 73.0936 36.0519 73.5414C36.2394 73.9894 36.4321 74.4216 36.6561 74.8904H36.6613C37.3227 76.2653 37.6561 77.7758 37.6405 79.307C37.6196 80.8382 37.2446 82.3382 36.5363 83.6977L36.4217 83.9269C36.0832 84.5415 36.203 85.3071 36.7186 85.7862L39.4061 88.4737C39.6457 88.7133 39.9581 88.8747 40.2915 88.9372C40.63 88.9841 40.9738 88.9216 41.2759 88.7653L41.4946 88.6455C44.2498 87.2185 47.5154 87.1767 50.3071 88.531C50.7759 88.7601 51.2238 88.9528 51.6561 89.1351C52.0884 89.3226 52.5675 89.4997 53.0258 89.6664C55.9633 90.6768 58.2394 93.0257 59.1561 95.9893L59.2134 96.1456C59.2134 96.1716 59.2342 96.1924 59.2394 96.2237C59.3384 96.5518 59.5415 96.8331 59.8123 97.0362C60.0936 97.2393 60.4269 97.3435 60.7707 97.3435V97.3383H64.5624V97.3435C65.2603 97.3487 65.8853 96.8956 66.0884 96.2185L66.1769 95.9893C67.0936 93.0257 69.38 90.6768 72.3176 89.6768C72.7811 89.5101 73.2395 89.333 73.6873 89.1455C74.1352 88.958 74.5675 88.7653 75.0363 88.5466H75.0415C77.8279 87.182 81.0988 87.2237 83.8488 88.6612L84.0676 88.7705L84.0728 88.7757C84.3748 88.932 84.7186 88.9893 85.0519 88.9424C85.3592 88.8903 85.6405 88.7549 85.8748 88.5466C85.8905 88.5205 85.9113 88.4997 85.9373 88.4789L88.6248 85.7914H88.6196C88.8644 85.5518 89.0259 85.2445 89.0832 84.906C89.1352 84.5726 89.0779 84.2237 88.9165 83.9268L88.8019 83.6976C87.3644 80.9476 87.3175 77.6768 88.6821 74.8903C88.9009 74.4215 89.104 73.9736 89.2863 73.5466C89.4738 73.0934 89.6456 72.6403 89.8123 72.1716V72.1664C90.8227 69.2446 93.1664 66.9686 96.1196 66.0467L96.3592 65.9634C97.0311 65.7602 97.4842 65.1352 97.4686 64.4322V60.6404V60.6456C97.4738 60.3019 97.3696 59.9686 97.1665 59.6925C96.9634 59.4217 96.6821 59.2186 96.3592 59.1144L96.1196 59.0259C94.6612 58.5675 93.3332 57.7759 92.2342 56.7133C91.1404 55.6404 90.3123 54.3279 89.8071 52.8852C89.6509 52.4216 89.4686 51.9685 89.2811 51.5154C89.104 51.0936 88.9009 50.6352 88.6769 50.1665V50.1613C87.3124 47.3749 87.3592 44.104 88.7967 41.354L88.9113 41.1352C89.0727 40.8331 89.13 40.4894 89.0779 40.1509C89.0206 39.8123 88.8592 39.505 88.6196 39.2602L87.3644 38.0102V38.0154C87.3331 37.9842 87.3019 37.9581 87.2759 37.9269L85.9321 36.5832C85.6925 36.3384 85.3852 36.1769 85.0519 36.1196C84.7134 36.0675 84.3696 36.1248 84.0675 36.2863L83.8488 36.4009C82.4842 37.104 80.9842 37.4842 79.4529 37.5102C77.9217 37.5259 76.4113 37.1873 75.0362 36.5207C74.5675 36.3019 74.1196 36.0988 73.6873 35.9217L73.6821 35.9217Z" fill="url(#paint0_linear_495_956)"/>
<defs>
<linearGradient id="paint0_linear_495_956" x1="62.6562" y1="0.55957" x2="62.6562" y2="124.478" gradientUnits="userSpaceOnUse">
<stop stop-color="#EF3922"/>
<stop offset="1" stop-color="#564499"/>
</linearGradient>
</defs>
</svg>
