<svg width="134" height="134" viewBox="0 0 134 134" fill="none" xmlns="http://www.w3.org/2000/svg">
<path d="M95.8959 64.709H86.3595L68.1409 46.4903C67.3284 45.6779 66.0106 45.6779 65.193 46.4903L46.9743 64.709H37.4379C26.3754 64.709 17.3753 73.7194 17.3753 84.7917V96.0209C17.3753 107.083 26.3753 116.084 37.4379 116.084H40.4639V124.584C40.4639 125.735 41.3962 126.667 42.5473 126.667H90.6099C91.761 126.667 92.6933 125.735 92.6933 124.584V116.094H108.829L101.064 123.86C100.251 124.672 100.251 125.99 101.064 126.807C101.47 127.214 102.001 127.417 102.538 127.417C103.069 127.417 103.605 127.214 104.012 126.807L115.303 115.516C115.704 115.135 115.96 114.609 115.96 114.01C115.96 113.432 115.72 112.912 115.345 112.531L104.017 101.203C103.204 100.391 101.887 100.391 101.069 101.203C100.257 102.016 100.257 103.333 101.069 104.151L108.85 111.932H92.6996V103.427C92.6996 102.276 91.7673 101.344 90.6163 101.344H42.5536C41.4026 101.344 40.4703 102.276 40.4703 103.427V111.922H37.4443C28.6787 111.922 21.5483 104.792 21.5483 96.0258V84.7966C21.5483 76.0206 28.6785 68.8793 37.4443 68.8793H46.9599L65.1999 87.1193C65.6061 87.5255 66.1374 87.7287 66.6739 87.7287C67.2051 87.7287 67.7416 87.5255 68.1479 87.1193L86.3879 68.8793H95.9035C106.966 68.8793 115.966 59.8793 115.966 48.8166V37.5874C115.966 26.5145 106.966 17.5047 95.9035 17.5047H48.1955L48.185 6.27034C48.185 5.1193 47.2528 4.18701 46.1017 4.18701H19.4564C18.3053 4.18701 17.373 5.1193 17.373 6.27034V32.9157C17.373 34.0667 18.3053 34.999 19.4564 34.999H46.1017C47.2528 34.999 48.185 34.0667 48.185 32.9157V21.6657H95.893C104.659 21.6657 111.789 28.8063 111.789 37.583V48.8122C111.789 57.5778 104.659 64.7082 95.893 64.7082L95.8959 64.709ZM44.6306 105.506H88.5266V122.501H44.6306V105.506ZM66.6666 82.6997L50.7706 66.8037L66.6666 50.9077L82.5626 66.8037L66.6666 82.6997ZM44.0213 30.8357H21.5426V8.35701H44.0213V30.8357Z" fill="url(#paint0_linear_493_950)"/>
<defs>
<linearGradient id="paint0_linear_493_950" x1="66.6696" y1="4.18701" x2="66.6696" y2="127.417" gradientUnits="userSpaceOnUse">
<stop stop-color="#EF3922"/>
<stop offset="1" stop-color="#564499"/>
</linearGradient>
</defs>
</svg>
