<svg width="758" height="364" viewBox="0 0 758 364" fill="none" xmlns="http://www.w3.org/2000/svg">
<path d="M43.7002 361.979C1.51714 323.023 -18.7973 256.383 26.7295 211.596C37.9957 200.523 51.6311 192.273 66.2158 186.392C66.7955 186.182 67.3668 185.947 67.9464 185.737" stroke="#564499" stroke-miterlimit="10"/>
<path d="M313.382 31.4707C355.775 35.0833 371.956 54.2803 392.245 79.5179C393.926 81.6098 395.547 83.7185 397.143 85.8273C415.29 109.763 428.875 147.468 465.564 142.78C494.229 139.108 518.769 120.995 544.452 109.267C586.786 89.9439 637.707 70.8561 683.217 91.3301C731.995 113.266 756.031 173.075 756.972 223.525C757.888 274.244 736.363 339.093 687.006 361.979" stroke="#564499" stroke-miterlimit="10"/>
<path d="M342.493 130.574C341.921 153.174 334.315 175.032 320.734 193.105C320.703 193.134 320.677 193.168 320.658 193.206C319.373 194.592 318.062 195.979 316.726 197.314C306.063 208.019 293.388 216.511 279.432 222.3C265.475 228.088 250.511 231.061 235.402 231.046H235.091C217.65 231.046 200.217 231.105 182.801 231.105C169.056 231.105 155.152 231.945 141.542 229.954C137.165 229.323 133.032 227.937 128.554 228.139C111.482 228.929 99.754 245.084 91.6635 258.148C91.5568 258.318 91.4131 258.462 91.2434 258.568C91.1829 258.419 91.1544 258.258 91.1594 258.098C92.2348 238.405 87.9669 218.04 78.1458 200.885C77.9693 200.549 77.7845 200.23 77.5997 199.919C72.1304 190.677 64.8465 182.738 60.1585 173.035C52.0454 156.166 48.4043 137.494 49.5838 118.813C50.7633 100.132 56.7249 82.0676 66.8956 66.353C77.067 50.6392 91.1056 37.8028 107.665 29.0755C124.225 20.3491 142.749 16.0249 161.462 16.5181L236.317 18.5344C265.253 19.3149 292.695 31.5564 312.606 52.5673C332.518 73.5781 343.268 101.638 342.493 130.574Z" fill="#BBB4D6"/>
<path d="M350.399 116.022C350.44 144.511 339.863 171.994 320.734 193.105C320.703 193.133 320.676 193.168 320.658 193.205C319.373 194.592 318.062 195.978 316.726 197.314C306.063 208.019 293.388 216.51 279.432 222.299C265.475 228.088 250.511 231.06 235.401 231.045H235.091C217.649 231.045 200.217 231.104 182.801 231.104C169.056 231.104 155.152 231.944 141.542 229.953C137.165 229.323 133.031 227.936 128.553 228.138C111.482 228.928 99.7538 245.084 91.6633 258.148C91.5566 258.317 91.4129 258.461 91.2432 258.568C91.0508 258.688 90.829 258.753 90.6022 258.758C90.3754 258.763 90.1519 258.705 89.9553 258.592C89.7587 258.479 89.5966 258.315 89.4857 258.117C89.3748 257.918 89.3202 257.694 89.3277 257.467C89.9074 236.674 84.8246 215.368 73.9869 197.557C73.8021 197.221 73.5921 196.877 73.382 196.566C67.3583 187.005 59.4778 178.839 54.269 168.758C45.2233 151.224 40.8403 131.658 41.5402 111.942C42.2401 92.2249 48 73.0195 58.2655 56.1714C68.5319 39.3234 82.9587 25.3991 100.16 15.7376C117.361 6.07523 136.758 1 156.488 1H235.401C250.504 1.00084 265.46 3.97658 279.413 9.75836C293.366 15.5393 306.045 24.0121 316.723 34.6927C327.402 45.3741 335.872 58.0534 341.65 72.008C347.428 85.9626 350.401 100.919 350.399 116.022Z" stroke="#564499" stroke-miterlimit="10"/>
<path d="M281.256 54.8104H215.928C204.894 54.8104 195.949 63.7553 195.949 74.7888V163.036C195.949 174.071 204.894 183.015 215.928 183.015H281.256C292.29 183.015 301.235 174.071 301.235 163.036V74.7888C301.235 63.7553 292.29 54.8104 281.256 54.8104Z" fill="white"/>
<path d="M249.179 90.3808C253.652 90.3808 257.278 86.7548 257.278 82.2819C257.278 77.8091 253.652 74.183 249.179 74.183C244.707 74.183 241.081 77.8091 241.081 82.2819C241.081 86.7548 244.707 90.3808 249.179 90.3808Z" fill="#BBB4D6"/>
<path d="M226.555 118.914C226.555 112.913 228.938 107.159 233.182 102.916C237.424 98.6729 243.179 96.2894 249.179 96.2894C255.18 96.2894 260.935 98.6729 265.177 102.916C269.421 107.159 271.804 112.913 271.804 118.914H226.555Z" fill="#BBB4D6"/>
<path d="M268.579 138.227H228.597C222.913 138.227 218.305 142.834 218.305 148.519V153.568C218.305 159.251 222.913 163.86 228.597 163.86H268.579C274.263 163.86 278.87 159.251 278.87 153.568V148.519C278.87 142.834 274.263 138.227 268.579 138.227Z" fill="#BBB4D6"/>
<path d="M163.117 95.698H99.5273" stroke="white" stroke-width="4.23" stroke-linecap="round" stroke-linejoin="round"/>
<path d="M163.117 110.572H99.5273" stroke="white" stroke-width="4.23" stroke-linecap="round" stroke-linejoin="round"/>
<path d="M163.117 123.842H99.5273" stroke="white" stroke-width="4.23" stroke-linecap="round" stroke-linejoin="round"/>
<path d="M163.117 138.716H99.5273" stroke="white" stroke-width="4.23" stroke-linecap="round" stroke-linejoin="round"/>
<path d="M163.117 82.4272H99.5273" stroke="white" stroke-width="4.23" stroke-linecap="round" stroke-linejoin="round"/>
<path d="M163.117 151.997H99.5273" stroke="white" stroke-width="4.23" stroke-linecap="round" stroke-linejoin="round"/>
<path d="M155.334 215.55C155.335 245.647 177.233 248.553 177.233 248.553C177.233 248.553 189.686 263.497 210.235 262.459C217.624 261.795 223.761 257.755 225.906 255.817L236.803 258.723C236.803 258.723 232.201 227.987 235.696 218.603C239.191 209.218 233.117 197.952 233.117 197.952C222.674 182.973 263.042 182.418 263.042 182.418C263.042 182.418 330.47 160.206 295.336 152.762C260.201 145.319 240.781 173.822 232.444 183.793C224.108 193.764 217.292 181.51 217.292 181.51C217.292 181.51 204.423 171.132 184.29 176.632C164.156 182.133 158.519 185.633 155.334 215.55Z" fill="white"/>
<path d="M456.029 361.99H374.234C360.687 362.01 347.27 359.359 334.747 354.19C322.226 349.02 310.847 341.433 301.26 331.862C301.253 333.859 301.041 335.849 300.63 337.802V283.311C273.745 251.915 242.425 267.886 238.216 270.247C236.351 252.411 234.705 238.322 234.705 238.322C234.705 238.322 230.176 200.063 265.63 186.058C265.915 185.932 266.201 185.822 266.47 185.721C283.063 179.463 298.093 182.554 310.636 188.704C310.846 188.83 311.056 188.914 311.266 189.04C324.515 195.694 334.907 205.7 341.326 211.539C342.006 212.135 342.636 212.715 343.233 213.219C349.836 218.982 367.059 236.003 386.407 249.723L386.726 249.958C400.941 259.981 416.282 268.231 429.38 268.937C429.405 268.987 462.573 302.349 456.029 361.99Z" fill="#BBB4D6"/>
<path d="M449.324 264.062C441.704 267.078 435.159 268.775 428.8 268.985C425.472 269.094 422.145 268.767 418.903 268.011C409.367 265.919 399.37 260.155 386.138 249.973L385.827 249.738C374.41 240.992 360.623 228.97 342.644 213.234C342.048 212.713 341.418 212.134 340.737 211.554C338.981 210.033 337.175 208.462 335.343 206.841C327.766 200.053 319.493 194.086 310.66 189.038C310.45 188.912 310.24 188.828 310.03 188.702C309.19 188.207 308.308 187.761 307.443 187.316C305.497 186.313 303.485 185.445 301.419 184.72C296.358 182.91 291.032 181.948 285.658 181.872L282.356 181.956C239.787 183.208 230.411 193.105 230.411 193.105C234.742 199.012 237.4 205.978 238.106 213.268C234.595 212.696 231.091 213.789 230.486 217.67C229.756 222.434 228.655 226.802 224.228 229.608C221.528 231.186 218.337 231.698 215.28 231.045C215.28 231.045 215.221 231.045 215.196 231.045C214.306 230.784 213.44 230.574 212.676 230.415C212.335 230.335 212.002 230.231 211.676 230.104C202.754 226.853 197.545 228.113 199.242 237.665C201.233 248.898 186.573 250.368 176.911 248.637C159.865 240.967 155.202 211.041 168.712 192.609C169.056 192.138 169.443 191.643 169.837 191.139C170.232 190.635 170.678 190.172 171.072 189.702C172.081 188.607 173.155 187.575 174.29 186.61C174.685 186.274 175.08 185.93 175.491 185.619C175.903 185.308 176.491 184.854 176.987 184.493C177.469 184.109 177.977 183.759 178.508 183.443C183.079 180.436 188.215 178.39 193.602 177.431C198.99 176.472 204.516 176.619 209.844 177.865C214.142 179.392 218.178 181.574 221.808 184.334C221.808 184.334 222.144 183.813 222.824 182.872C224.405 183.807 225.925 184.839 227.378 185.963C227.378 185.963 252.96 146.948 290.06 147.393C293.049 147.419 296.028 147.771 298.94 148.443C327.875 158.676 347.508 195.541 365.21 201.195C366.552 201.623 367.914 201.981 369.293 202.27C382.987 205.202 398.303 202.01 411.896 201.145C420.852 200.573 430.043 200.783 438.705 203.186C439.78 203.48 440.881 203.841 441.956 204.236H442.007C454.104 208.58 466.017 218.216 468.975 231.02C472.293 245.209 461.498 258.484 449.324 264.062Z" fill="#2C0CAD"/>
<path d="M703.254 148.713C702.887 150.205 702.187 151.595 701.206 152.778C700.226 153.961 698.99 154.906 697.591 155.543L674.026 166.776L621.534 186.023L626.575 168.506C628.14 166.212 630.372 164.453 632.968 163.466L678.562 145.999L689.761 141.631C691.986 140.821 694.421 140.802 696.658 141.58C698.894 142.357 700.794 143.883 702.036 145.898C702.584 146.769 702.995 147.718 703.254 148.713Z" fill="#EF3922"/>
<path d="M678.588 141L689.804 136.589C692.296 135.676 695.045 135.763 697.474 136.833C699.904 137.903 701.823 139.872 702.832 142.328C703.841 144.783 703.859 147.533 702.884 150.002C701.908 152.471 700.015 154.465 697.6 155.567L674.034 166.792L639.001 336.498C637.032 343.812 632.707 350.272 626.695 354.88C620.684 359.489 613.322 361.986 605.748 361.988H373.603C360.057 362.008 346.639 359.357 334.118 354.188C321.597 349.019 310.217 341.432 300.629 331.861" stroke="#564499" stroke-miterlimit="10"/>
<path d="M597.649 248.068L596.919 250.084C583.619 285.613 582.099 306.373 582.099 306.373" stroke="#564499" stroke-miterlimit="10"/>
<path d="M244.416 338.734L234.074 233.222C234.067 223.205 236.99 213.404 242.486 205.029C247.981 196.654 255.808 190.07 264.999 186.09C271.717 183.109 279.019 181.675 286.365 181.892C293.711 182.111 300.914 183.976 307.443 187.35C308.283 187.796 309.165 188.241 310.031 188.737C310.241 188.871 310.451 188.947 310.661 189.073C319.486 194.115 327.755 200.077 335.327 206.858C337.158 208.48 338.965 210.051 340.721 211.571C341.401 212.168 342.031 212.748 342.628 213.252C360.59 228.987 374.393 240.976 385.81 249.755L386.121 249.991C403.974 263.71 415.921 269.389 428.775 268.969C436.89 268.709 445.351 265.987 455.869 261.324C495.145 243.883 561.154 255.275 583.829 298.92" stroke="#564499" stroke-miterlimit="10"/>
<path d="M270.444 361.937C270.998 361.937 271.519 361.988 272.04 361.988C279.616 361.988 286.882 358.978 292.239 353.622C297.595 348.264 300.605 340.999 300.605 333.423V252.048" stroke="#564499" stroke-miterlimit="10"/>
<path d="M238.082 213.268C235.015 182.292 198.654 164.75 172.938 181.746C172.518 181.981 172.098 182.267 171.711 182.586L171.392 182.821C170.896 183.191 170.401 183.561 169.905 183.947C168.325 185.194 166.844 186.562 165.477 188.039C165.057 188.509 164.637 189.005 164.242 189.475C163.848 189.946 163.461 190.475 163.117 190.945" stroke="#564499" stroke-miterlimit="10"/>
<path d="M176.97 248.563C181.718 253.297 187.312 257.099 193.462 259.771C218.128 269.718 230.1 250.924 230.1 250.924" stroke="#564499" stroke-miterlimit="10"/>
<path d="M442.494 266.608C443.25 266.339 444.015 266.078 444.745 265.843L444.981 265.768C445.178 265.709 445.371 265.638 445.56 265.558C446.207 265.348 446.837 265.112 447.493 264.852L448.728 264.356C461.136 258.921 472.352 245.453 469.008 231.011C465.766 217.065 451.912 206.866 438.764 203.186C430.102 200.783 420.911 200.573 411.955 201.145C396.976 202.086 379.929 205.883 365.244 201.195C344.745 194.65 321.624 146.217 284.524 145.746C247.424 145.276 221.808 184.325 221.808 184.325" stroke="#564499" stroke-miterlimit="10"/>
<path d="M230.403 193.121C230.403 193.121 238.082 182.721 283.474 181.88L230.403 193.121Z" fill="#564499"/>
<path d="M230.403 193.121C230.403 193.121 238.082 182.721 283.474 181.88" stroke="#564499" stroke-miterlimit="10"/>
<path d="M596.919 250.083L619.434 186.796L621.19 181.848L626.819 166.011C627.249 164.806 627.858 163.673 628.626 162.651C630.194 160.359 632.425 158.6 635.019 157.61L678.588 140.984" stroke="#564499" stroke-miterlimit="10"/>
<path d="M575.503 145.747L563.616 165.515L532.589 207.253L528.456 188.266C528.52 185.509 529.416 182.835 531.027 180.596L558.205 142.681L561.137 139.018C562.542 137.107 564.565 135.742 566.862 135.154C569.16 134.566 571.589 134.791 573.739 135.792C574.887 136.32 575.92 137.068 576.78 137.993C577.088 139.306 577.133 140.667 576.914 141.997C576.695 143.328 576.216 144.602 575.503 145.747Z" fill="#EF3922"/>
<path d="M601.321 237.764L563.632 165.513L575.503 145.736C576.547 144.063 577.086 142.124 577.058 140.151C577.029 138.179 576.434 136.256 575.344 134.613C574.309 133.04 572.854 131.788 571.143 131C568.996 130.003 566.57 129.776 564.275 130.358C561.98 130.939 559.955 132.293 558.541 134.193L555.601 137.889" stroke="#564499" stroke-miterlimit="10"/>
<path d="M555.576 137.892L528.397 175.773C526.802 178.03 525.924 180.714 525.877 183.477C525.813 184.763 525.934 186.05 526.238 187.3L530.271 203.607L531.531 208.715L545.175 263.912" stroke="#564499" stroke-miterlimit="10"/>
<path d="M172.929 181.73C148.196 197.071 151.027 238.019 171.476 247.025C179.289 250.47 201.721 251.31 199.2 237.582C197.52 228.063 202.72 226.803 211.651 230.021C227.101 235.616 230.369 220.662 230.369 219.628" stroke="#564499" stroke-miterlimit="10"/>
<path d="M225.514 255.904L235.62 258.912" stroke="#564499" stroke-miterlimit="10"/>
<path d="M145.793 302.775L136.115 322.745C135.439 324.137 134.253 325.217 132.804 325.761C131.355 326.306 129.753 326.272 128.327 325.669C127.541 325.336 126.833 324.841 126.253 324.215C125.672 323.589 125.231 322.846 124.959 322.037C124.687 321.228 124.589 320.37 124.672 319.52C124.756 318.671 125.02 317.848 125.445 317.108L127.327 313.823C127.387 313.653 127.457 313.488 127.537 313.327L128.839 310.698L139.912 288.384C141.253 285.648 143.259 283.292 145.745 281.531C148.23 279.77 151.119 278.659 154.144 278.302H154.396" stroke="#564499" stroke-miterlimit="10"/>
<path d="M167.199 301.211L152.917 305.344C152.111 305.579 151.267 305.651 150.433 305.559C149.599 305.466 148.791 305.21 148.056 304.805C147.321 304.4 146.673 303.854 146.149 303.199C145.626 302.543 145.236 301.791 145.003 300.984C144.769 300.179 144.696 299.334 144.789 298.5C144.881 297.666 145.137 296.858 145.542 296.123C145.947 295.388 146.493 294.74 147.149 294.216C147.805 293.693 148.557 293.303 149.363 293.07L169.627 287.189" stroke="#564499" stroke-miterlimit="10"/>
<path d="M156.186 304.379C156.724 306.548 156.388 308.84 155.253 310.764C152.582 315.141 145.819 316.645 140.534 315.755" stroke="#564499" stroke-miterlimit="10"/>
<path d="M128.823 310.698C123.295 306.926 122.169 299.961 123.874 293.836C130.814 268.49 159.773 274.513 178.987 278.966C190.438 281.686 201.671 285.256 212.592 289.644C221.632 293.257 230.479 298.104 240.216 299.44" stroke="#564499" stroke-miterlimit="10"/>
<path d="M155.262 310.772C155.262 310.772 157.253 311.477 160.655 312.813C175.375 318.597 189.379 326.056 202.393 335.043C208.787 339.445 217.028 342.428 226.303 344.419" stroke="#564499" stroke-miterlimit="10"/>
<path d="M242.576 325.426C239.557 324.913 236.451 325.422 233.755 326.874C231.057 328.326 228.922 330.637 227.689 333.441C222.371 344.363 229.798 357.292 241.811 359.141C251.818 360.766 261.923 361.718 272.056 361.989" stroke="#564499" stroke-miterlimit="10"/>
<path d="M238.241 270.632L237.771 270.531C237.771 270.531 237.922 270.43 238.241 270.245C238.216 270.371 238.241 270.531 238.241 270.632Z" fill="#2E2E2E"/>
<path d="M201.16 349.132L82.1516 326.516C79.1431 325.945 76.2413 327.92 75.6692 330.928L75.1609 333.602C74.5896 336.611 76.5647 339.514 79.5732 340.085L198.582 362.701C201.591 363.273 204.493 361.297 205.065 358.289L205.573 355.615C206.145 352.606 204.169 349.704 201.16 349.132Z" stroke="#564499" stroke-miterlimit="10"/>
<path d="M94.1333 342.858V361.988" stroke="#564499" stroke-miterlimit="10"/>
<path d="M5.5 361.987H719.461" stroke="#564499" stroke-miterlimit="10"/>
</svg>
