<svg width="24" height="24" viewBox="0 0 24 24" fill="none" xmlns="http://www.w3.org/2000/svg">
<path d="M11.895 0.824219C5.5326 0.824219 0.375 5.98182 0.375 12.3442C0.375 18.7066 5.5326 23.8642 11.895 23.8642C18.2574 23.8642 23.415 18.7066 23.415 12.3442C23.415 5.98182 18.2574 0.824219 11.895 0.824219ZM9.075 17.119H6.7422V9.61182H9.075V17.119ZM7.8942 8.69022C7.1574 8.69022 6.681 8.16822 6.681 7.52262C6.681 6.86382 7.1718 6.35742 7.9242 6.35742C8.6766 6.35742 9.1374 6.86382 9.1518 7.52262C9.1518 8.16822 8.6766 8.69022 7.8942 8.69022ZM17.595 17.119H15.2622V12.9586C15.2622 11.9902 14.9238 11.3326 14.0802 11.3326C13.4358 11.3326 13.053 11.7778 12.8838 12.2062C12.8214 12.3586 12.8058 12.5746 12.8058 12.7894V17.1178H10.4718V12.0058C10.4718 11.0686 10.4418 10.285 10.4106 9.61062H12.4374L12.5442 10.6534H12.591C12.8982 10.1638 13.6506 9.44142 14.9094 9.44142C16.4442 9.44142 17.595 10.4698 17.595 12.6802V17.119Z" fill="white"/>
</svg>
