<svg width="196" height="131" viewBox="0 0 196 131" fill="none" xmlns="http://www.w3.org/2000/svg">
<path d="M175.165 -0.00830078H20C8.95431 -0.00830078 0 8.946 0 19.9917V110.019C0 121.065 8.95431 130.019 20 130.019H175.165C186.211 130.019 195.165 121.065 195.165 110.019V19.9917C195.165 8.94601 186.211 -0.00830078 175.165 -0.00830078Z" fill="#062341"/>
<path d="M152.174 57.6124C151.842 55.464 150.989 53.7268 149.616 52.4001C148.242 51.0734 146.418 50.4098 144.143 50.4098C141.869 50.4098 140.033 51.0627 138.635 52.3686C137.237 53.6743 136.326 55.422 135.899 57.6124H152.174ZM70.6178 43.3341H81.3794V48.1778C81.9928 47.4509 82.6652 46.7668 83.3968 46.1032C84.1281 45.4507 84.9427 44.8713 85.839 44.3555C86.7362 43.8496 87.7389 43.4499 88.8478 43.1446C89.957 42.8495 91.1962 42.7023 92.5646 42.7023C95.0663 42.7023 97.2251 43.1653 99.0423 44.1024C100.86 45.0398 102.264 46.3662 103.255 48.1145C104.907 46.3248 106.747 44.9871 108.777 44.0709C110.806 43.1548 113.119 42.7023 115.715 42.7023C119.726 42.7023 122.865 43.7555 125.131 45.8609C126.543 47.1742 127.515 48.8723 128.047 50.9551C128.763 49.8386 129.604 48.8143 130.569 47.8827C132.227 46.2823 134.206 45.0189 136.504 44.0922C138.801 43.1653 141.348 42.7023 144.143 42.7023C147.318 42.7023 150.066 43.2079 152.387 44.2185C154.709 45.2291 156.64 46.5878 158.18 48.2936C159.72 49.9996 160.856 51.9578 161.591 54.1694C162.326 56.3808 162.692 58.6865 162.692 61.0877C162.692 61.4664 162.681 61.8665 162.657 62.2881C162.634 62.7089 162.598 63.1512 162.55 63.6145H136.041C136.562 65.8045 137.64 67.4581 139.275 68.5739C140.91 69.6904 142.935 70.2485 145.351 70.2485C147.152 70.2485 148.763 69.9744 150.185 69.4268C151.606 68.8792 153.074 67.9949 154.59 66.7734L160.774 71.6381C158.973 73.6176 156.794 75.1656 154.235 76.2818C151.677 77.3976 148.668 77.9557 145.209 77.9557C142.366 77.9557 139.725 77.5347 137.285 76.6923C134.845 75.8499 132.736 74.6495 130.96 73.0913C130.046 72.2895 129.236 71.4133 128.528 70.4613V77.1976H117.768V58.3495C117.768 56.0854 117.225 54.3691 116.14 53.2215C115.054 52.0634 113.497 51.4843 111.467 51.4843C109.438 51.4843 107.845 52.0634 106.689 53.2215C105.532 54.3691 104.954 56.0854 104.954 58.3495V77.1976H94.1933V58.3495C94.1933 56.0854 93.6504 54.3691 92.5646 53.2215C91.4793 52.0634 89.922 51.4843 87.8926 51.4843C85.8632 51.4843 84.2701 52.0634 83.1137 53.2215C81.9573 54.3691 81.3794 56.0854 81.3794 58.3495V77.1976C75.9012 77.1976 70.4228 77.1976 64.9449 77.1976V86.6765H55.6535V77.1976H32.4725L32.457 70.2429L56.5713 43.3341H64.9449V69.2317H70.6178V43.3341ZM55.6535 69.2317V55.4527L43.8973 69.2317H55.6535Z" fill="#FEFEFE"/>
<path fill-rule="evenodd" clip-rule="evenodd" d="M166.16 42.7023C168.087 42.7023 169.65 44.2651 169.65 46.1925C169.65 48.1201 168.087 49.6826 166.16 49.6826C164.232 49.6826 162.67 48.1201 162.67 46.1925C162.67 44.2651 164.232 42.7023 166.16 42.7023ZM166.16 43.4079C167.698 43.4079 168.945 44.655 168.945 46.1925C168.945 47.7302 167.698 48.9776 166.16 48.9776C164.622 48.9776 163.375 47.7302 163.375 46.1925C163.375 44.655 164.622 43.4079 166.16 43.4079Z" fill="#FEFEFE"/>
<path d="M167.919 47.9874H166.968L166.398 47.0424C166.355 46.9709 166.314 46.9074 166.274 46.8502C166.235 46.794 166.195 46.7461 166.156 46.7059C166.115 46.666 166.073 46.6353 166.03 46.6132C165.986 46.5925 165.939 46.5823 165.888 46.5823H165.665V47.9874H164.838V44.3161H166.149C167.04 44.3161 167.486 44.6488 167.486 45.3142C167.486 45.4422 167.466 45.5603 167.426 45.6688C167.387 45.777 167.332 45.8752 167.26 45.9624C167.189 46.049 167.102 46.1242 167.001 46.1872C166.899 46.2507 166.786 46.2997 166.66 46.3353V46.3458C166.716 46.3633 166.768 46.3907 166.82 46.4292C166.872 46.4674 166.92 46.5123 166.968 46.5639C167.016 46.6155 167.062 46.6703 167.106 46.7289C167.149 46.7875 167.189 46.845 167.225 46.9019L167.919 47.9874ZM165.665 44.9357V45.9571H166.023C166.201 45.9571 166.344 45.9055 166.451 45.8032C166.56 45.6994 166.615 45.5699 166.615 45.4168C166.615 45.0952 166.423 44.9357 166.038 44.9357H165.665Z" fill="#FEFEFE"/>
</svg>
