<svg width="421" height="479" viewBox="0 0 421 479" fill="none" xmlns="http://www.w3.org/2000/svg">
<path d="M150.322 430.097C149.299 430.116 148.299 430.408 147.426 430.943C150.007 420.262 155.985 394.622 159.25 377.503C154.22 379.317 141.637 381.857 131.543 377.503C129.688 383.728 125.526 402.379 126.596 416.342C128.795 445.058 141.64 454.826 141.64 454.826C141.64 454.826 148.076 450.184 148.972 449.547C151.129 448.02 152.903 446.014 154.155 443.687C155.407 441.359 156.103 438.773 156.188 436.131V435.859C156.19 434.835 155.918 433.83 155.401 432.946C154.885 432.062 154.142 431.332 153.249 430.832C152.356 430.331 151.346 430.077 150.322 430.097Z" fill="#BBB4D6"/>
<path d="M283.571 116.366C274.355 119.057 263.202 116.318 258.966 107.005C256.479 101.536 259.53 94.022 265.351 90.6949C265.485 90.616 265.767 90.3577 265.828 89.9555C266.046 88.5858 266.349 86.0215 266.681 83.4835C264.547 82.4079 259.759 79.2159 257.486 73.1026C254.298 64.5301 256.046 54.4338 259.939 44.1926L261.38 40.6188H291.196L301.011 62.4347L296.904 75.3962C296.744 77.5831 296.39 83.0988 296.21 87.6643C296.066 91.328 298.679 92.8791 300.391 93.0751C300.866 93.1295 300.906 93.0496 300.917 93.5564C301.136 104.193 293.674 113.414 283.571 116.366Z" fill="white" stroke="#564499" stroke-miterlimit="10"/>
<path d="M191.351 93.798C190.874 94.2383 190.586 94.8475 190.551 95.4958L190.346 138.453C190.345 139.229 190.645 139.976 191.182 140.536C191.72 141.096 192.453 141.427 193.229 141.459L248.011 141.883C248.473 141.885 248.932 141.796 249.36 141.62C249.789 141.445 250.178 141.186 250.506 140.859C250.834 140.533 251.094 140.145 251.272 139.717C251.45 139.29 251.541 138.832 251.541 138.369V97.1327C251.541 96.2062 251.175 95.3172 250.523 94.6587C249.871 94.0008 248.985 93.6269 248.059 93.6183L193.108 93.1369C192.458 93.1203 191.828 93.3578 191.351 93.798Z" fill="url(#paint0_linear_156_503)"/>
<path d="M191.351 93.798C190.874 94.2383 190.586 94.8475 190.551 95.4958L190.346 138.453C190.345 139.229 190.645 139.976 191.182 140.536C191.72 141.096 192.453 141.427 193.229 141.459L248.011 141.883C248.473 141.885 248.932 141.796 249.36 141.62C249.789 141.445 250.178 141.186 250.506 140.859C250.834 140.533 251.094 140.145 251.272 139.717C251.45 139.29 251.541 138.832 251.541 138.369V97.1327C251.541 96.2062 251.175 95.3172 250.523 94.6587C249.871 94.0008 248.985 93.6269 248.059 93.6183L193.108 93.1369C192.458 93.1203 191.828 93.3578 191.351 93.798Z" stroke="#564499" stroke-miterlimit="10"/>
<path d="M187.512 90.4881C175.498 96.5593 171.321 109.526 168.967 121.871C168.381 125.475 168.256 128.749 167.897 131.808C167.897 131.808 170.887 137.165 176.797 139.594C183.372 142.296 189.606 141.491 191.769 141.116L191.522 138.035V135.613C200.284 137.858 203.159 138.242 207.732 137.366C212.304 136.489 216.055 133.341 216.384 130.411C216.647 128.067 214.157 126.714 212.879 126.331C215.918 125.291 220.19 122.772 219.177 118.172C218.366 114.492 215.097 113.937 213.564 114.119C214.203 113.709 215.809 112.465 217.123 110.779C218.766 108.67 218.543 106.856 218.082 105.248C217.397 102.975 214.741 100.73 208.991 104.399C204.391 107.334 194.737 107.137 190.485 106.672V95.5306C190.429 94.7466 190.821 93.1787 192.836 93.1787H201.474C201.5 93.0449 201.511 92.9085 201.506 92.7721C201.499 91.8403 201.27 90.9235 200.837 90.0976C200.127 88.7694 198.925 87.7713 197.488 87.3171C196.052 86.8635 194.495 86.9898 193.15 87.6691L187.512 90.4881Z" fill="white" stroke="#564499" stroke-miterlimit="10"/>
<path d="M302.496 268.068C320.1 227.158 326.492 154.951 326.492 154.951V237.9M300.544 93.1048H300.63H300.688H300.731C300.758 93.1048 300.801 93.1048 300.844 93.1048C300.863 93.1113 300.883 93.1113 300.902 93.1048C307.314 94.0495 313.671 95.2445 319.972 96.6887C329.525 98.8819 338.849 101.845 346.412 108.307C353.003 113.913 358.582 121.166 361.171 129.308C372.265 164.23 368.873 203.173 361.269 237.998M326.492 237.9V255.696C326.492 257.321 326.811 258.93 327.433 260.431C328.054 261.933 328.966 263.297 330.115 264.446C331.264 265.595 332.628 266.506 334.129 267.128C335.631 267.75 337.24 268.069 338.865 268.068H377.913C379.377 268.091 380.798 267.573 381.903 266.612C383.007 265.652 383.719 264.317 383.899 262.864C383.978 262.063 383.887 261.255 383.635 260.492C383.382 259.729 382.971 259.027 382.431 258.431C381.89 257.836 381.23 257.361 380.495 257.036C379.759 256.712 378.963 256.545 378.159 256.546H362.166C361.528 256.544 360.899 256.397 360.327 256.115C359.755 255.833 359.255 255.424 358.864 254.92C358.474 254.415 358.205 253.828 358.076 253.203C357.947 252.578 357.963 251.933 358.122 251.315C359.226 246.957 360.283 242.512 361.269 237.998M326.492 237.9L361.269 237.998" stroke="#564499" stroke-miterlimit="10"/>
<path d="M292.066 440.443H155.47" stroke="#564499" stroke-miterlimit="10"/>
<path d="M164.816 346.565C163.474 356.119 161.473 367.079 159.264 378.05L156.659 378.793C148.322 381.135 139.468 380.876 131.283 378.05L134.695 366.453L113.92 306.008C113.92 306.008 125.829 299.879 138.871 296.065L144.34 296.995C151.465 298.498 166.148 304.142 166.608 325.276C166.64 326.292 166.608 327.362 166.608 328.528C168.678 335.348 167.854 341.36 164.816 346.565Z" fill="white" stroke="#564499"/>
<path d="M115.915 116.48C115.71 115.959 115.309 115.539 114.798 115.31C114.287 115.081 113.707 115.061 113.181 115.255C112.887 115.344 112.615 115.496 112.384 115.699C111.561 116.368 111.373 117.54 111.347 118.652C111.272 121.193 111.127 123.739 110.94 126.269C110.94 126.44 110.913 126.633 110.913 126.804C110.796 128.842 110.881 131.313 110.015 133.089C109.959 133.225 109.864 133.34 109.742 133.421C109.453 133.555 109.148 133.266 108.961 133.004C108.426 132.223 107.891 131.458 107.356 130.661C106.934 130.024 106.458 129.334 105.719 129.131C104.623 128.826 103.58 129.794 102.975 130.779C101.023 133.988 100.836 139.246 103.858 141.937C106.88 144.627 100.113 149.918 95.2672 152.143C94.4558 152.599 93.6058 152.982 92.7264 153.288C92.6836 153.288 94.4756 153.689 94.4328 153.705C90.6616 155.017 86.7333 155.825 82.7503 156.107C78.0217 156.422 73.4108 155.828 70.0569 153.774C70.2014 153.239 71.3461 149.495 71.4156 148.96C71.6617 147.093 71.8382 145.243 71.9505 143.365C72.1538 139.84 72.1377 136.31 72.004 132.795C71.5172 120.15 73.7692 109.527 78.9899 107.906C79.4023 107.782 79.7976 107.608 80.1667 107.387C82.5203 106.087 83.7774 103.343 82.6968 100.754C82.622 100.578 82.5364 100.406 82.4615 100.219C82.377 100.035 82.2807 99.856 82.1726 99.6843C92.368 96.5176 99.2897 98.7161 106.286 102.546C107.618 103.61 108.869 104.77 110.031 106.018C112.769 108.991 114.783 112.557 115.915 116.438V116.48Z" fill="#2C0CAD"/>
<path opacity="0.4" d="M360.994 238.059H326.225V154.955C326.225 154.955 319.806 227.163 302.218 268.073H194.536C207.229 260.006 217.408 247.821 224.186 234.705C226.86 229.516 231.14 221.814 238.254 223.836C239.944 224.312 242.431 224.617 243.689 223.071C244.122 222.477 244.368 221.768 244.395 221.033C245.004 213.458 237.152 207.082 230.68 205.071C224.207 203.06 216.644 204.001 211.492 208.703C207.78 212.1 205.453 216.609 202.736 220.787C201.105 223.262 199.172 225.525 196.98 227.521C199.772 210.565 202.26 194.357 202.618 188.393C209.428 183.017 214.429 174.25 216.205 166.493C218.157 158.02 219.88 149.735 222.913 141.802L247.738 141.888C248.673 141.888 249.569 141.516 250.23 140.855C250.892 140.194 251.263 139.297 251.263 138.362V97.1316C251.264 96.2052 250.899 95.3162 250.246 94.6582C249.593 94.0008 248.707 93.6285 247.781 93.6226L230.877 93.4782C237.02 92.1944 243.249 91.3632 249.514 90.9909C249.642 90.9909 249.76 90.9909 249.872 90.9909C253.996 90.7181 261.223 90.6004 265.384 90.5576C260.426 93.2322 257.361 98.9129 257.896 103.93C257.99 104.999 258.263 106.044 258.703 107.022C262.94 116.33 274.098 119.079 283.309 116.372C293.558 113.382 301.09 103.957 300.64 93.1145C307.059 94.0559 313.414 95.2504 319.704 96.6984C329.263 98.8969 338.587 101.86 346.145 108.322C352.735 113.933 358.32 121.16 360.903 129.328C371.997 164.252 368.585 203.226 360.994 238.059Z" fill="#564499"/>
<path d="M202.896 188.394C202.115 201.157 200.104 213.909 197.922 226.629" stroke="#564499" stroke-miterlimit="10"/>
<path d="M219.256 120.402C218.245 125.392 211.022 127.345 206.748 127.436C200.369 127.501 194.98 126.602 191.578 126.206" stroke="#564499" stroke-miterlimit="10"/>
<path d="M190.171 116.85C195.346 118.345 200.826 118.436 206.047 117.112C210.439 115.983 215.627 113.902 217.927 109.725" stroke="#564499" stroke-miterlimit="10"/>
<path opacity="0.4" d="M223.191 141.802C220.153 149.735 218.435 158.021 216.483 166.494C214.691 174.223 209.7 183.017 202.896 188.393C197.184 192.902 190.187 195.026 182.698 192.18C172.653 188.35 169.128 177.278 167.897 167.516C166.298 155.36 166.201 143.054 167.608 130.874C169.026 134.025 174.819 143.61 192.787 141.091C193.269 141.452 193.849 141.659 194.45 141.685L223.191 141.802Z" fill="#564499"/>
<path d="M168.393 167.453L168.393 167.45C166.855 155.757 166.711 143.923 167.964 132.199C168.974 133.6 170.768 135.971 173.645 137.962C177.448 140.594 183.148 142.59 191.553 141.162C191.83 141.323 192.131 141.413 192.415 141.467C192.765 141.534 193.123 141.552 193.423 141.565L193.432 141.566L193.441 141.566L222.715 141.746C219.969 149.104 218.109 157.192 216.316 164.991C216.209 165.455 216.102 165.919 215.996 166.381C214.226 174.014 209.29 182.704 202.587 188.001C196.973 192.432 190.159 194.48 182.876 191.713C173.12 187.993 169.622 177.203 168.393 167.453Z" stroke="#564499"/>
<path d="M337.704 257.836C340.609 257.746 343.516 257.819 346.413 258.055C348.777 258.247 351.227 258.36 353.479 259.242C355.335 259.981 357.271 261.74 357.175 263.891C356.998 268.106 351.478 268.074 348.451 268.074" stroke="#564499" stroke-miterlimit="10"/>
<path d="M285.754 253.818L310.927 189.324C311.239 188.074 311.26 186.769 310.992 185.509C310.723 184.249 310.171 183.068 309.376 182.053C308.582 181.039 307.567 180.22 306.408 179.657C305.249 179.095 303.977 178.804 302.689 178.808H202.725C200.484 178.812 198.311 179.571 196.553 180.96C194.796 182.349 193.556 184.289 193.033 186.467L165.442 250.945C165.143 252.19 165.13 253.486 165.403 254.737C165.678 255.988 166.232 257.16 167.024 258.165C167.816 259.171 168.827 259.984 169.979 260.543C171.13 261.101 172.394 261.392 173.674 261.392H276.056C278.285 261.391 280.45 260.645 282.207 259.272C283.965 257.9 285.213 255.981 285.754 253.818Z" fill="url(#paint1_linear_156_503)"/>
<path d="M285.288 253.636L285.277 253.666L285.269 253.697C284.755 255.751 283.569 257.575 281.9 258.878L281.9 258.878C280.23 260.182 278.174 260.891 276.056 260.892H173.675C173.674 260.892 173.674 260.892 173.674 260.892C172.47 260.892 171.28 260.618 170.197 260.093C169.113 259.567 168.162 258.802 167.417 257.856L167.417 257.856C166.672 256.91 166.15 255.807 165.892 254.63C165.637 253.467 165.647 252.262 165.919 251.103L193.492 186.664L193.509 186.625L193.519 186.584C194.016 184.515 195.194 182.672 196.863 181.352C198.533 180.033 200.597 179.312 202.726 179.308L302.689 179.308L302.691 179.308C303.902 179.304 305.099 179.578 306.19 180.107C307.28 180.636 308.235 181.407 308.983 182.362C309.73 183.316 310.25 184.428 310.503 185.614L310.992 185.509L310.503 185.614C310.753 186.789 310.735 188.006 310.449 189.172L285.288 253.636Z" stroke="#564499"/>
<path d="M212.124 192.972C213.348 191.138 215.333 190.298 216.595 191.148C217.858 191.999 217.858 194.139 216.638 195.963C216.446 196.243 216.231 196.508 215.996 196.754L225.058 215.888C226.502 214.925 228.091 214.684 229.235 215.444C229.602 215.712 229.906 216.056 230.126 216.453C230.346 216.851 230.476 217.291 230.508 217.744L236.703 215.658L242.116 213.834L243.881 213.256C244.105 212.591 244.414 211.959 244.801 211.373C246.518 208.79 249.326 207.629 251.076 208.806C252.825 209.983 252.846 212.951 251.177 215.514L261.501 229.608C263.753 227.763 266.401 227.191 268.236 228.41C270.734 230.074 270.771 234.412 268.321 238.092C268.219 238.242 268.107 238.36 268.005 238.499L274.874 247.892L274.938 247.983C275.289 248.513 275.415 249.16 275.289 249.783C275.163 250.406 274.794 250.953 274.264 251.304C273.734 251.656 273.087 251.782 272.463 251.655C271.84 251.529 271.293 251.16 270.942 250.63L264.844 241.425C262.913 242.542 260.859 242.756 259.356 241.756C256.97 240.151 256.853 236.15 258.982 232.582L249.102 217.669C247.641 218.659 246.031 218.91 244.876 218.145C244.234 217.69 243.796 217 243.656 216.225L242.918 216.428L237.414 217.931L230.364 219.836C230.144 220.68 229.782 221.482 229.294 222.205C227.577 224.784 224.769 225.95 223.02 224.773C221.27 223.596 221.244 220.574 222.961 217.99C223.213 217.611 223.495 217.253 223.806 216.92L215.178 197.428C214.14 198.14 212.99 198.322 212.166 197.771C210.925 196.947 210.904 194.786 212.124 192.972Z" fill="white"/>
<path d="M277.762 193.998H291.135C291.746 193.997 292.344 193.819 292.856 193.484C293.368 193.15 293.772 192.674 294.018 192.115C294.091 191.946 294.132 191.765 294.136 191.58C294.134 191.215 293.988 190.865 293.73 190.608C293.471 190.35 293.121 190.205 292.756 190.205H278.543C279.212 191.323 278.875 192.891 277.762 193.998Z" fill="white"/>
<path d="M269.118 192.629C269.12 192.992 269.265 193.341 269.522 193.597C269.78 193.854 270.129 193.998 270.493 193.998H277.762C278.875 192.891 279.212 191.324 278.543 190.195H272.124C271.513 190.195 270.916 190.372 270.404 190.706C269.892 191.039 269.488 191.514 269.241 192.073C269.162 192.248 269.12 192.437 269.118 192.629Z" fill="#EF3922"/>
<path d="M272.461 193.999C272.5 194.073 272.545 194.142 272.595 194.208C273.547 195.513 275.617 195.636 277.222 194.465C277.412 194.324 277.591 194.169 277.757 193.999C278.869 192.892 279.206 191.325 278.538 190.196C278.503 190.122 278.46 190.052 278.409 189.988C277.463 188.677 275.393 188.565 273.788 189.726C273.598 189.869 273.419 190.026 273.253 190.196C272.14 191.309 271.803 192.865 272.461 193.999Z" fill="white"/>
<path d="M265.78 201.022C265.783 201.387 265.929 201.735 266.188 201.991C266.447 202.248 266.796 202.392 267.16 202.392H281.191C280.512 201.258 280.849 199.717 281.961 198.588H268.765C268.153 198.589 267.554 198.767 267.042 199.101C266.529 199.436 266.124 199.911 265.877 200.471C265.809 200.647 265.777 200.834 265.78 201.022Z" fill="#EF3922"/>
<path d="M281.17 202.391H287.77C288.381 202.391 288.978 202.215 289.489 201.882C290.001 201.55 290.405 201.076 290.654 200.519C290.729 200.35 290.771 200.169 290.777 199.984C290.777 199.803 290.742 199.624 290.673 199.457C290.604 199.29 290.503 199.138 290.375 199.01C290.248 198.883 290.096 198.782 289.929 198.713C289.762 198.644 289.583 198.609 289.402 198.609H281.94C280.827 199.701 280.49 201.257 281.17 202.391Z" fill="white"/>
<path d="M281.17 202.392C281.201 202.465 281.24 202.536 281.287 202.6C282.234 203.911 284.304 204.028 285.909 202.862C286.099 202.719 286.278 202.561 286.444 202.392C287.546 201.279 287.883 199.717 287.225 198.588C287.186 198.516 287.143 198.447 287.096 198.38C286.139 197.075 284.069 196.957 282.464 198.128C282.274 198.268 282.095 198.421 281.929 198.588C280.827 199.701 280.49 201.258 281.17 202.392Z" fill="white"/>
<path d="M276.478 210.726H284.877C285.488 210.724 286.086 210.547 286.598 210.214C287.111 209.881 287.516 209.406 287.765 208.848C287.838 208.679 287.878 208.497 287.883 208.313C287.883 207.947 287.737 207.595 287.479 207.335C287.22 207.076 286.869 206.929 286.503 206.928H277.275C277.939 208.056 277.596 209.613 276.478 210.726Z" fill="#EF3922"/>
<path d="M262.881 209.362C262.882 209.542 262.918 209.719 262.988 209.885C263.057 210.051 263.158 210.202 263.286 210.329C263.414 210.455 263.565 210.555 263.732 210.623C263.898 210.692 264.076 210.727 264.256 210.726H276.478C277.58 209.613 277.923 208.051 277.259 206.917H265.887C265.275 206.916 264.676 207.095 264.163 207.43C263.651 207.766 263.248 208.244 263.004 208.805C262.925 208.98 262.883 209.17 262.881 209.362Z" fill="white"/>
<path d="M271.194 210.726C271.233 210.799 271.277 210.868 271.327 210.934C272.274 212.245 274.339 212.357 275.949 211.191C276.139 211.05 276.318 210.895 276.484 210.726C277.586 209.613 277.928 208.051 277.265 206.917C277.23 206.843 277.187 206.773 277.136 206.708C276.179 205.409 274.114 205.296 272.504 206.457C272.315 206.598 272.137 206.751 271.969 206.917C270.867 208.03 270.525 209.597 271.194 210.726Z" fill="white"/>
<path d="M222.19 250.029H230.594C231.204 250.028 231.802 249.85 232.313 249.518C232.825 249.184 233.229 248.71 233.477 248.152C233.55 247.983 233.59 247.801 233.595 247.617C233.595 247.251 233.449 246.9 233.19 246.641C232.931 246.382 232.581 246.237 232.215 246.237H222.988C223.635 247.36 223.292 248.917 222.19 250.029Z" fill="#EF3922"/>
<path d="M188.844 248.666C188.845 248.846 188.881 249.023 188.951 249.19C189.02 249.356 189.121 249.506 189.249 249.633C189.376 249.759 189.528 249.859 189.694 249.928C189.861 249.996 190.039 250.031 190.219 250.03H222.191C223.292 248.917 223.635 247.356 222.971 246.227H191.85C191.239 246.226 190.64 246.404 190.128 246.738C189.616 247.073 189.213 247.549 188.967 248.11C188.891 248.285 188.849 248.474 188.844 248.666Z" fill="white"/>
<path d="M216.89 250.031C216.929 250.103 216.973 250.173 217.023 250.239C217.97 251.55 220.035 251.662 221.645 250.501C221.834 250.357 222.012 250.2 222.18 250.031C223.282 248.918 223.624 247.356 222.961 246.227C222.926 246.153 222.883 246.083 222.832 246.019C221.875 244.714 219.81 244.601 218.2 245.762C218.01 245.903 217.831 246.058 217.665 246.227C216.569 247.335 216.221 248.902 216.89 250.031Z" fill="white"/>
<path d="M10.7248 270.631C10.7248 270.631 -6.92716 350.369 38.4812 367.027C83.8897 383.684 206.55 368.038 155.573 310.503C104.596 252.968 10.7248 270.631 10.7248 270.631Z" fill="white" stroke="#564499"/>
<path d="M231.054 93.4787C237.226 92.1912 243.483 91.3567 249.776 90.9807C249.91 90.9807 250.022 90.9807 250.14 90.9807C254.274 90.7079 261.517 90.5902 265.652 90.5474" stroke="#564499" stroke-miterlimit="10"/>
<path d="M200.462 106.676C200.419 106.703 200.393 106.734 200.35 106.761" stroke="#564499" stroke-miterlimit="10"/>
<path d="M270.835 73.1516C267.679 74.8099 264.053 73.6865 262.662 70.8622" stroke="#564499" stroke-miterlimit="10"/>
<path d="M252.514 32.8462C252.372 35.3004 253.002 37.7374 254.315 39.815C255.629 41.8931 257.56 43.5075 259.837 44.4323C260.319 43.5481 261.009 42.7955 261.849 42.2392C265.395 39.9445 264.764 46.0745 274.392 44.4591C287.738 42.2071 291.14 46.8555 291.14 46.8555C291.434 47.262 290.605 49.9152 290.488 50.4019C289.953 53.253 289.418 56.088 288.931 58.9605C288.617 60.7005 288.3 62.4299 287.979 64.1491C288.222 63.9137 288.479 63.6939 288.749 63.4912C290.942 60.0677 294.157 56.2271 297.661 59.3617C298.364 60.0142 298.903 60.8246 299.233 61.726C300.838 66.0855 297.768 68.8884 294.179 70.568C293.232 71.1409 292.226 71.609 291.178 71.9641C291.354 73.066 292.087 77.4576 292.087 77.4683C292.162 77.9177 301.074 72.4242 301.817 71.7555C303.161 69.9791 304.196 67.9903 304.882 65.8715C307.653 57.1311 307.182 45.8338 301.603 38.6446C300.218 36.8634 301.143 35.8363 301.544 34.1032C301.564 34.0096 301.554 33.9128 301.518 33.8251C301.482 33.7368 301.42 33.6619 301.34 33.6095C301.261 33.5571 301.167 33.5298 301.072 33.5309C300.977 33.5325 300.884 33.5619 300.806 33.6165C297.8 35.5047 292.36 33.5737 292.36 33.5737C274.708 22.9716 265.663 29.5298 261.335 29.8614C259.58 29.9818 257.838 29.4859 256.409 28.4599C256.157 28.9563 255.775 29.3746 255.305 29.6704C254.833 29.9663 254.29 30.1283 253.734 30.1396L253.563 31.0596C253.432 31.7587 253.061 32.3905 252.514 32.8462Z" fill="#2C0CAD"/>
<path d="M259.848 44.4537C257.57 43.5294 255.639 41.9151 254.326 39.8369C253.013 37.7588 252.383 35.3218 252.525 32.8676C252.578 31.9251 252.713 30.989 252.932 30.07L253.087 30.1021C253.298 30.1497 253.514 30.1658 253.729 30.1503C254.285 30.1396 254.828 29.9775 255.299 29.6817C255.771 29.3859 256.152 28.967 256.403 28.4706C256.551 28.1946 256.654 27.8967 256.708 27.588L257.532 23.111C257.532 23.111 260.207 26.7322 264.486 26.3952C268.765 26.0582 277.81 19.5003 295.511 30.1075C295.511 30.1075 299.758 31.6748 302.764 29.7865C302.842 29.7325 302.935 29.7025 303.03 29.7015C303.125 29.7004 303.219 29.7277 303.298 29.7801C303.377 29.8325 303.439 29.9074 303.476 29.9951C303.512 30.0834 303.521 30.1802 303.502 30.2733C303.101 32.001 303.368 33.3972 304.754 35.1784C310.333 42.3676 310.804 53.6649 308.033 62.4053C306.82 66.0277 304.665 69.2618 301.79 71.7769C301.047 72.4455 292.135 77.9391 292.06 77.4897C292.06 77.4897 291.328 73.0874 291.151 71.9855L291.108 71.7341L291.36 71.6592C292.313 71.3645 293.246 71.0072 294.152 70.5894C297.741 68.9098 300.828 66.1069 299.207 61.7474C298.877 60.8466 298.338 60.0362 297.634 59.3831C294.13 56.2485 290.916 60.0891 288.723 63.5126C288.298 64.1625 287.951 64.8589 287.685 65.588C287.77 65.1173 287.856 64.6573 287.947 64.1865C288.268 62.4641 288.585 60.7348 288.899 58.9979C289.434 56.1415 289.931 53.3065 290.456 50.4394C290.552 49.9526 291.402 47.2995 291.108 46.8929C291.108 46.8929 287.706 42.2446 274.36 44.4965C264.732 46.1013 265.363 39.9819 261.817 42.2767C260.977 42.833 260.287 43.5861 259.805 44.4698C259.656 44.7581 259.524 45.0544 259.41 45.3577C259.39 45.3957 259.374 45.4353 259.361 45.4754C259.121 46.1387 258.901 46.8073 258.687 47.4599C256.687 53.82 255.366 60.6882 256.072 67.3693C256.933 75.4678 262.833 84.9892 272.221 84.1815C275.174 83.8354 278.055 83.0266 280.758 81.7851" stroke="#564499" stroke-miterlimit="10"/>
<path d="M260.872 61.7142C261.791 61.6879 262.51 60.7668 262.479 59.6564C262.447 58.5459 261.678 57.667 260.759 57.6932C259.841 57.7189 259.121 58.64 259.153 59.7505C259.184 60.861 259.954 61.7398 260.872 61.7142Z" fill="#564499"/>
<path d="M273.442 65.0926C274.361 65.0664 275.08 64.1453 275.049 63.0354C275.017 61.9249 274.247 61.0455 273.329 61.0717C272.41 61.0979 271.692 62.019 271.723 63.129C271.754 64.2394 272.524 65.1188 273.442 65.0926Z" fill="#564499"/>
<path d="M268.016 65.8335C268.016 65.8335 263.154 66.9033 263.646 64.4107C263.796 63.6297 265.015 55.9591 265.015 55.9591C265.015 55.9591 262.747 51.391 256.815 52.4554" stroke="#564499" stroke-miterlimit="10"/>
<path d="M270.199 55.2765C270.199 55.2765 277.907 53.966 280.859 60.1228" stroke="#564499" stroke-miterlimit="10"/>
<path d="M296.869 74.9281L296.163 87.7071C296.096 88.9561 296.488 90.1864 297.265 91.1658C298.043 92.1452 299.152 92.8064 300.384 93.0241H300.544C300.572 93.0166 300.602 93.0166 300.63 93.0241H300.656H300.731" stroke="#564499" stroke-miterlimit="10"/>
<path d="M300.844 93.0829H300.731H300.688H300.656H300.63H300.544H300.384C299.152 92.8652 298.043 92.204 297.265 91.2246C296.488 90.2446 296.096 89.0144 296.163 87.7659L296.869 74.9869" stroke="#564499" stroke-miterlimit="10"/>
<path d="M266.748 83.3855C266.508 83.2893 266.6 90.1553 263.834 96.469" stroke="#564499" stroke-miterlimit="10"/>
<path d="M152.411 268.072L124.126 268.072" stroke="#564499" stroke-miterlimit="10"/>
<path d="M420.685 268.072H194.536" stroke="#564499" stroke-miterlimit="10"/>
<path d="M77.2568 96.1971C92.9296 91.6557 102.89 98.3368 110.015 106.039C117.14 113.742 116.808 122.488 116.808 122.488" stroke="#564499" stroke-miterlimit="10"/>
<path d="M67.8211 158.828C68.0351 162.139 66.0679 174.871 66.0679 174.871C77.9921 172.155 90.3766 173.49 98.8321 174.923C98.8321 174.923 97.6555 171.981 97.7707 169.901C97.7707 166.199 97.6584 161.979 101.157 160.764C104.772 159.477 107.949 157.192 110.32 154.174C114.481 148.943 115.813 142.059 116.551 135.57C117.33 129.375 117.169 123.098 116.075 116.95C116.035 116.628 115.922 116.318 115.745 116.046C115.568 115.773 115.33 115.545 115.052 115.377C114.772 115.211 114.459 115.109 114.135 115.082C113.811 115.054 113.485 115.1 113.181 115.217C111.678 115.709 111.39 117.212 111.347 118.614C111.272 121.154 111.127 123.701 110.94 126.231C110.78 128.354 110.956 131.131 110.015 133.067C109.959 133.203 109.864 133.318 109.742 133.399C109.453 133.516 109.148 133.243 108.961 132.981C108.426 132.2 107.891 131.435 107.356 130.638C106.934 130.002 106.458 129.312 105.719 129.109C104.623 128.804 103.569 129.772 102.975 130.756C101.023 133.966 100.809 139.197 103.858 141.914C106.907 144.632 100.114 149.895 95.2673 152.12C94.2633 152.65 93.2207 153.105 92.1488 153.479C84.5156 156.138 76.2887 157.571 70.0731 153.752L67.8211 158.828Z" fill="white" stroke="#564499" stroke-miterlimit="10"/>
<path d="M125.869 246.847C125.633 259.092 124.082 271.276 121.242 283.189" stroke="#564499" stroke-miterlimit="10"/>
<path d="M164.816 346.565C159.077 356.439 145.463 363.452 128.806 367.817C99.2469 375.562 60.113 374.958 38.4919 367.02C-6.94334 350.368 10.7194 270.629 10.7194 270.629C10.7194 270.629 89.303 255.839 141.703 297.374C146.708 301.331 151.355 305.722 155.589 310.496C161.382 317.048 164.939 323.045 166.619 328.522C168.678 335.348 167.854 341.36 164.816 346.565Z" stroke="#564499" stroke-miterlimit="10"/>
<path d="M134.695 366.471C134.695 366.471 107.164 442.893 153.417 462.412C199.671 481.931 -16.438 484.531 31.2653 462.412C78.9685 440.294 51.5491 371.141 51.5491 371.141" stroke="#564499" stroke-miterlimit="10"/>
<path d="M244.331 221.032C244.305 221.768 244.057 222.479 243.619 223.07C242.362 224.616 239.875 224.311 238.185 223.835C231.076 221.813 226.807 229.516 224.122 234.704C217.339 247.82 207.165 260.006 194.472 268.072C193.648 268.607 192.808 269.11 191.958 269.602C179.553 276.759 163.752 275.671 151.754 268.241L167.229 230.63L168.342 231.527C177.606 238.839 189.01 234.736 196.906 227.521C199.097 225.524 201.031 223.262 202.661 220.786C205.379 216.608 207.706 212.099 211.423 208.702C216.569 204.001 224.1 203.081 230.605 205.07C237.109 207.06 244.919 213.458 244.331 221.032Z" fill="white" stroke="#564499"/>
<path opacity="0.4" d="M142.553 204.509C137.712 198.799 132.513 193.401 126.987 188.35C121.386 184.045 110.383 173.042 78.8086 173.401C47.2342 173.76 25.1081 199.833 21.8789 212.63C19.2956 222.868 20.4039 254.53 21.2809 269.081C37.7459 266.25 80.77 265.302 121.147 284.151C122.17 280.046 124.578 266.862 126.03 246.958L146.624 264.441C148.308 265.88 149.881 267.005 151.794 268.149C154.062 263.058 167.221 230.57 167.221 230.57C167.221 230.57 156.934 221.383 142.553 204.509Z" fill="#564499"/>
<path d="M117.204 239.466L126.03 246.958M126.03 246.958L146.624 264.441C148.308 265.88 149.881 267.005 151.794 268.149C154.062 263.058 167.221 230.57 167.221 230.57C167.221 230.57 156.934 221.383 142.553 204.509C137.712 198.799 132.513 193.401 126.987 188.35C121.386 184.045 110.383 173.042 78.8086 173.401C47.2342 173.76 25.1081 199.833 21.8789 212.63C19.2956 222.868 20.4039 254.53 21.2809 269.081C37.7459 266.25 80.77 265.302 121.147 284.151C122.17 280.046 124.578 266.862 126.03 246.958Z" stroke="#564499" stroke-miterlimit="10"/>
<path d="M244.266 218.364C244.266 218.364 242.522 209.131 226.801 216.337" stroke="#564499" stroke-miterlimit="10"/>
<path d="M235.52 207.282C235.52 207.282 225.721 204.147 220.265 211.636" stroke="#564499" stroke-miterlimit="10"/>
<path d="M37.7056 260.142C40.3219 260.375 42.9557 260.331 45.5634 260.013C52.3798 259.144 58.9003 256.704 64.6115 252.882C68.7812 250.068 72.2559 246.342 74.7732 241.987C77.29 237.631 78.7834 232.76 79.1397 227.742C79.8351 216.215 72.7208 206.094 68.1794 196.033C64.435 187.704 61.707 178.439 63.515 169.485C64.772 163.248 70.5865 155.245 71.4263 148.939C72.0794 143.577 72.2763 138.169 72.0147 132.774C71.5279 120.123 73.7745 109.506 78.9953 107.89C82.087 106.933 83.9432 103.734 82.6968 100.749C81.504 97.8821 79.9688 97.7109 73.9939 94.464C58.4173 85.9911 47.5854 101.787 41.6051 117.016C38.4331 125.088 37.7912 134.053 33.7847 141.745C28.35 152.17 15.9187 158.327 12.7413 169.667C10.7568 176.749 12.8965 184.34 11.9336 191.63C10.361 203.564 1.02682 213.187 1.00007 225.501C0.957281 244.752 19.5775 258.596 37.7056 260.142Z" stroke="#564499" stroke-miterlimit="10"/>
<path d="M164.816 346.566C163.474 356.12 161.473 367.08 159.269 378.051C153.021 409.145 145.073 440.427 145.073 440.427" stroke="#564499" stroke-miterlimit="10"/>
<path d="M166.597 328.523C166.624 327.357 166.64 326.287 166.597 325.27C166.121 303.339 150.352 298.097 143.57 296.84C142.557 296.642 141.534 296.512 140.504 296.449" stroke="#564499" stroke-miterlimit="10"/>
<path d="M147.426 430.943C148.299 430.408 149.299 430.116 150.322 430.097C151.346 430.077 152.356 430.331 153.249 430.832C154.141 431.332 154.884 432.062 155.401 432.946C155.918 433.83 156.19 434.835 156.188 435.859C156.188 435.934 156.188 436.024 156.188 436.131C156.102 438.773 155.407 441.359 154.155 443.687C152.903 446.014 151.129 448.02 148.972 449.547L141.537 454.837" stroke="#564499" stroke-miterlimit="10"/>
<path d="M191.578 135.534C191.578 135.534 191.685 153.721 196.023 160.723" stroke="#564499" stroke-miterlimit="10"/>
<path opacity="0.4" d="M202.176 71.4843C202.65 71.1778 203.026 70.744 203.263 70.2326C203.501 69.7213 203.588 69.1537 203.517 68.5947L203.021 68.6583M202.176 71.4843L205.833 52.2907M202.176 71.4843C201.703 71.7908 201.154 71.9572 200.59 71.9647L202.176 71.4843ZM203.021 68.6583C202.588 65.3764 202.324 62.6728 202.601 60.065C202.88 57.4423 203.701 54.9399 205.401 52.0387M203.021 68.6583C203.081 69.1238 203.008 69.5963 202.81 70.022L202.81 70.0224C202.612 70.4482 202.299 70.8094 201.905 71.0646L201.904 71.0648C201.511 71.3198 201.053 71.4584 200.584 71.4647C200.114 71.4705 199.653 71.3439 199.252 71.0993L199.252 71.0992L199.241 71.0927C189.492 65.4819 180.06 64.9051 170.251 65.0331C168.65 65.054 167.039 65.0935 165.416 65.1334C157.078 65.3379 148.396 65.551 138.838 63.2939L138.838 63.2938C130.455 61.323 120.052 57.2599 112.926 50.7586M203.021 68.6583L209.504 21.8552L209.5 21.8516L209.497 21.8472L209.506 21.8579C209.507 21.86 209.508 21.8621 209.51 21.8642M205.401 52.0387C205.401 52.0385 205.401 52.0382 205.402 52.0379L205.833 52.2907M205.401 52.0387C205.401 52.039 205.401 52.0393 205.401 52.0395L205.833 52.2907M205.401 52.0387C205.838 51.2872 206.304 50.5094 206.784 49.7094C208.028 47.6345 209.362 45.4098 210.5 43.1037C212.075 39.9127 213.233 36.6412 213.234 33.5233M205.833 52.2907C206.263 51.5507 206.725 50.78 207.202 49.9841C210.175 45.0269 213.734 39.0931 213.734 33.5207M213.234 33.5233C213.234 33.5244 213.234 33.5255 213.234 33.5266L213.734 33.5207M213.234 33.5233C213.184 29.3524 211.887 25.2916 209.51 21.8642M213.234 33.5233C213.234 33.5225 213.234 33.5216 213.234 33.5207H213.734M213.734 33.5207L209.51 21.8642M209.51 21.8642C209.511 21.8653 209.512 21.8665 209.514 21.8676L209.52 21.8748L209.52 21.874C209.526 21.8792 209.532 21.8843 209.537 21.8895L209.609 21.9562L209.701 21.9907L209.847 21.6017L209.904 21.5546L209.51 21.8642ZM209.51 21.8642C199.877 12.9691 182.985 7.01834 163.687 7.01834C148.629 7.01834 135.017 10.6443 125.187 16.4797C115.346 22.3216 109.375 30.3205 109.375 39.057V39.0573C109.373 43.2236 110.61 47.2962 112.926 50.7586M112.926 50.7586C112.912 50.7452 112.897 50.7318 112.882 50.7184L112.545 51.0872L112.96 50.8079C112.948 50.7915 112.937 50.7751 112.926 50.7586Z" fill="#564499" stroke="#564499"/>
<path d="M213.648 33.532V33.9866C213.536 40.2825 210.385 46.1344 206.646 51.2C204.143 54.5914 201.174 58.3518 201.88 62.508C202.19 64.3374 203.212 66.001 203.485 67.8571C203.758 69.7132 202.763 71.9866 200.906 72.0829C199.73 72.1417 198.724 71.3019 197.793 70.5798C192.268 66.3005 185.089 64.6958 178.109 64.4176C171.128 64.1395 164.158 65.0542 157.172 65.2521C147.105 65.5409 136.878 64.2839 127.576 60.4379C119.215 56.9503 111.593 51.2803 106.575 43.7327C101.649 36.2921 104.564 25.4975 109.817 19.0305C114.749 12.9646 121.884 9.08115 129.207 6.34776C148.897 -1.00724 171.374 -0.830724 190.797 7.21966C196.563 9.58396 202.126 12.7078 206.459 17.2118C210.685 21.6034 213.611 27.4554 213.648 33.532Z" stroke="#564499" stroke-miterlimit="10"/>
<path d="M139.908 33.1254C139.908 37.0269 136.746 40.1891 132.845 40.1891C128.944 40.1891 125.781 37.0269 125.781 33.1254C125.781 29.2245 128.944 26.0618 132.845 26.0618C136.746 26.0618 139.908 29.2245 139.908 33.1254Z" fill="white" stroke="#564499"/>
<path d="M164.364 33.1254C164.364 37.0269 161.202 40.1891 157.301 40.1891C153.4 40.1891 150.237 37.0269 150.237 33.1254C150.237 29.2245 153.4 26.0618 157.301 26.0618C161.202 26.0618 164.364 29.2245 164.364 33.1254Z" fill="white" stroke="#564499"/>
<path d="M189.296 33.1254C189.296 37.0269 186.134 40.1891 182.233 40.1891C178.332 40.1891 175.169 37.0269 175.169 33.1254C175.169 29.2245 178.332 26.0618 182.233 26.0618C186.134 26.0618 189.296 29.2245 189.296 33.1254Z" fill="white" stroke="#564499"/>
<g opacity="0.2">
<path opacity="0.54" d="M327.573 350.236L324.497 394.634C323.091 397.314 321.333 399.795 319.271 402.01C319.047 401.93 318.822 401.844 318.603 401.743C318.191 401.604 317.784 401.438 317.399 401.277C311.167 398.544 306.433 393.452 305.053 387.68C303.807 382.625 304.93 377.164 302.523 372.414C299.587 366.562 291.6 362.892 290.621 356.291C289.701 350.113 295.264 344.449 294.366 338.393C293.296 331.547 284.925 327.487 283.357 320.8C282.378 316.644 283.256 311.873 282.887 307.593C282.48 302.806 281.676 298.061 280.485 293.407C292.879 292.509 305.492 299.34 309.509 309.123C312.788 317.147 310.814 326.492 315.928 333.788C318.72 337.741 323.369 340.699 325.776 344.834C326.518 346.124 327.059 347.52 327.38 348.974C327.38 349.076 327.38 349.177 327.418 349.257C327.418 349.423 327.461 349.541 327.482 349.664C327.536 350.033 327.573 350.236 327.573 350.236Z" fill="#564499"/>
<path opacity="0.54" d="M327.594 350.197C327.594 350.197 327.557 350.015 327.514 349.663C327.55 349.803 327.577 349.946 327.594 350.09C327.602 350.107 327.606 350.125 327.606 350.143C327.606 350.162 327.602 350.18 327.594 350.197Z" fill="#564499"/>
</g>
<path opacity="0.4" d="M368.542 332.872C366.937 338.639 358.148 342.142 357.089 348.053C356.153 353.295 361.941 358.184 360.983 363.507C359.962 369.214 351.644 372.37 348.59 377.414C346.102 381.512 347.263 386.224 345.979 390.584C344.492 395.537 339.56 399.961 333.056 402.304C332.649 402.448 332.264 402.587 331.852 402.71C331.628 402.774 331.382 402.855 331.157 402.914C329.017 401.143 326.53 398.024 324.513 394.66L327.573 350.236C329.959 348.214 332.687 346.363 334.586 344.116C336.645 341.693 337.603 339.045 338.212 336.269H338.277V335.964C339.17 331.583 339.25 326.994 341.31 322.838C345.487 314.381 358.598 308.486 371.5 309.262C370.282 313.256 369.449 317.358 369.012 321.511C368.643 325.186 369.553 329.305 368.542 332.872Z" fill="#564499"/>
<mask id="path-70-inside-1_156_503" fill="white">
<path d="M338.298 335.926V336.232H338.234L338.298 335.926Z"/>
</mask>
<path d="M338.298 335.926V336.232H338.234L338.298 335.926Z" fill="#3FBDF1"/>
<path d="M338.298 335.926H339.298L337.319 335.72L338.298 335.926ZM338.298 336.232V337.232H339.298V336.232H338.298ZM338.234 336.232L337.255 336.026L337.001 337.232H338.234V336.232ZM337.298 335.926V336.232H339.298V335.926H337.298ZM338.298 335.232H338.234V337.232H338.298V335.232ZM339.212 336.438L339.277 336.132L337.319 335.72L337.255 336.026L339.212 336.438Z" fill="#564499" mask="url(#path-70-inside-1_156_503)"/>
<path opacity="0.3" d="M338.298 335.926L338.234 336.231C337.624 339.007 336.666 341.655 334.607 344.078C332.708 346.325 329.98 348.176 327.594 350.198C327.604 350.17 327.604 350.14 327.594 350.112C327.578 349.968 327.551 349.825 327.514 349.684C327.514 349.561 327.471 349.444 327.45 349.278C327.45 349.198 327.45 349.096 327.413 348.994C327.092 347.54 326.55 346.144 325.808 344.854C323.401 340.719 318.752 337.761 315.96 333.808C315.96 333.808 317.222 312.973 327.883 306.635C337.993 300.644 338.298 332.46 338.298 335.926Z" fill="#564499"/>
<mask id="path-73-inside-2_156_503" fill="white">
<path d="M338.298 335.926V336.232H338.234L338.298 335.926Z"/>
</mask>
<path d="M338.298 335.926V336.232H338.234L338.298 335.926Z" fill="#3FBDF1"/>
<path d="M338.298 335.926H339.298L337.319 335.72L338.298 335.926ZM338.298 336.232V337.232H339.298V336.232H338.298ZM338.234 336.232L337.255 336.026L337.001 337.232H338.234V336.232ZM337.298 335.926V336.232H339.298V335.926H337.298ZM338.298 335.232H338.234V337.232H338.298V335.232ZM339.212 336.438L339.277 336.132L337.319 335.72L337.255 336.026L339.212 336.438Z" fill="#564499" mask="url(#path-73-inside-2_156_503)"/>
<mask id="path-75-inside-3_156_503" fill="white">
<path d="M327.573 350.111V350.234C327.573 350.234 327.535 350.053 327.493 349.7C327.529 349.835 327.555 349.973 327.573 350.111Z"/>
</mask>
<path d="M327.573 350.111V350.234C327.573 350.234 327.535 350.053 327.493 349.7C327.529 349.835 327.555 349.973 327.573 350.111Z" fill="#3FBDF1"/>
<path d="M327.573 350.111H328.573V350.048L328.565 349.986L327.573 350.111ZM327.573 350.234L326.593 350.436L328.573 350.234H327.573ZM327.493 349.7L328.459 349.444L326.5 349.821L327.493 349.7ZM326.573 350.111V350.234H328.573V350.111H326.573ZM327.573 350.234C328.552 350.033 328.552 350.033 328.552 350.033C328.552 350.033 328.552 350.033 328.552 350.033C328.552 350.033 328.552 350.033 328.552 350.033C328.552 350.033 328.553 350.033 328.553 350.034C328.553 350.034 328.553 350.034 328.553 350.034C328.553 350.035 328.553 350.035 328.553 350.035C328.553 350.035 328.553 350.035 328.553 350.034C328.552 350.031 328.551 350.026 328.55 350.018C328.547 350.002 328.542 349.975 328.536 349.937C328.523 349.861 328.505 349.742 328.486 349.58L326.5 349.821C326.523 350.011 326.545 350.158 326.562 350.261C326.571 350.313 326.578 350.353 326.583 350.382C326.586 350.397 326.588 350.409 326.59 350.418C326.591 350.422 326.591 350.426 326.592 350.429C326.592 350.43 326.593 350.432 326.593 350.433C326.593 350.434 326.593 350.434 326.593 350.435C326.593 350.435 326.593 350.435 326.593 350.435C326.593 350.435 326.593 350.436 326.593 350.436C326.593 350.436 326.593 350.436 326.593 350.436C326.593 350.436 326.593 350.436 327.573 350.234ZM326.526 349.956C326.55 350.048 326.569 350.142 326.581 350.237L328.565 349.986C328.542 349.803 328.507 349.622 328.459 349.444L326.526 349.956Z" fill="#564499" mask="url(#path-75-inside-3_156_503)"/>
<path d="M326.621 350.235C328.996 348.213 331.756 346.335 333.66 344.094C339.009 337.787 336.945 329.726 340.373 322.81C344.546 314.364 357.667 308.474 370.564 309.244C369.339 313.238 368.504 317.34 368.071 321.494C367.686 325.195 368.606 329.309 367.595 332.893C365.953 338.659 357.196 342.157 356.132 348.068C355.185 353.305 360.989 358.194 360.031 363.511C359.01 369.224 350.697 372.38 347.637 377.419C345.139 381.521 346.311 386.223 345.016 390.593C343.449 395.862 337.993 400.516 330.884 402.715C330.659 402.789 330.413 402.87 330.183 402.928C328.044 401.158 325.556 398.039 323.534 394.669" stroke="#564499" stroke-miterlimit="10"/>
<path d="M362.69 315.861C343.46 336.556 334.415 380.189 330.895 402.719C330.606 404.618 330.36 406.357 330.125 407.924" stroke="#564499" stroke-miterlimit="10"/>
<path d="M364.466 420.613L355.645 472.814C355.435 474.244 354.726 475.553 353.643 476.51C352.56 477.467 351.174 478.009 349.729 478.04H303.47C302.011 478.007 300.612 477.454 299.525 476.48C298.438 475.506 297.735 474.175 297.543 472.729L289.386 420.607L364.466 420.613Z" stroke="#564499" stroke-miterlimit="10"/>
<path d="M372.869 414.784C372.79 416.332 372.129 417.793 371.018 418.874C369.907 419.955 368.428 420.577 366.878 420.614H287.118C285.585 420.577 284.122 419.969 283.015 418.907C281.908 417.846 281.239 416.41 281.138 414.88C280.801 411.136 283.571 407.926 287.118 407.926H366.878C370.393 407.932 373.153 411.093 372.869 414.784Z" stroke="#564499" stroke-miterlimit="10"/>
<path d="M318.324 401.998C321.748 398.602 325.941 391.027 327.798 384.844C329.327 379.746 326.637 374.499 326.016 369.267C325.054 361.078 329.119 352.273 324.834 344.849C322.443 340.708 317.795 337.766 315.003 333.803C309.862 326.501 311.836 317.162 308.552 309.154C304.534 299.36 291.927 292.529 279.538 293.438C280.722 298.094 281.525 302.838 281.94 307.624C282.309 311.904 281.405 316.675 282.4 320.826C283.967 327.512 292.376 331.561 293.408 338.414C294.318 344.469 288.749 350.139 289.664 356.306C290.648 362.918 298.624 366.571 301.571 372.434C303.967 377.189 302.844 382.645 304.085 387.695C305.642 394.007 311.157 399.554 318.324 401.998Z" stroke="#564499" stroke-miterlimit="10"/>
<path d="M287.102 301.109C305.562 325.094 314.248 375.638 317.667 401.731C317.955 403.994 318.201 406.069 318.421 407.925" stroke="#564499" stroke-miterlimit="10"/>
<path d="M314.992 333.802C314.992 333.802 316.26 312.968 326.915 306.634C337.57 300.301 337.346 335.792 337.346 335.792" stroke="#564499" stroke-miterlimit="10"/>
<path d="M326.621 350.235C326.621 350.235 324.444 338.317 328.263 326.597" stroke="#564499" stroke-miterlimit="10"/>
<path d="M72.0094 132.777C72.2747 138.173 72.0816 143.581 71.4317 148.942C70.5972 155.244 64.772 163.251 63.5097 169.483C61.707 178.448 64.435 187.713 68.1794 196.036C72.7048 206.098 79.8351 216.218 79.1397 227.74C78.7835 232.758 77.2905 237.629 74.7732 241.985C72.2565 246.34 68.7812 250.067 64.6116 252.881C58.9003 256.702 52.3761 259.138 45.5581 259.995C44.606 260.107 43.6378 260.198 42.6696 260.225C42.1347 260.225 41.5998 260.166 41.0649 260.123C22.9314 258.588 4.33263 244.755 4.37542 225.499C4.37542 213.196 13.7256 203.567 15.3036 191.628C16.2718 184.327 14.1322 176.742 16.1113 169.654C19.3208 158.335 31.7253 152.163 37.16 141.743C41.1611 134.051 41.8137 125.075 44.9804 117.008C49.3881 105.775 56.4275 92.9374 66.0558 91.8676C68.8497 92.1843 71.5504 93.0653 73.9939 94.4566C79.9635 97.666 81.4826 97.8693 82.6969 100.731C83.9378 103.721 82.0871 106.915 78.9953 107.872C73.7746 109.525 71.5226 120.132 72.0094 132.777Z" fill="#2C0CAD"/>
<defs>
<linearGradient id="paint0_linear_156_503" x1="220.943" y1="93.1361" x2="220.943" y2="141.883" gradientUnits="userSpaceOnUse">
<stop stop-color="#EF3922"/>
<stop offset="1" stop-color="#564499"/>
</linearGradient>
<linearGradient id="paint1_linear_156_503" x1="238.193" y1="178.808" x2="238.193" y2="261.392" gradientUnits="userSpaceOnUse">
<stop stop-color="#EF3922"/>
<stop offset="1" stop-color="#564499"/>
</linearGradient>
</defs>
</svg>
