<svg width="196" height="131" viewBox="0 0 196 131" fill="none" xmlns="http://www.w3.org/2000/svg">
<rect x="-0.00244141" y="-0.009552" width="195.17" height="130.03" rx="20" fill="#EEEEEE"/>
<path d="M23.4949 65.7427C23.8002 68.7936 26.3932 71.1835 29.546 71.1835C32.6986 71.1835 35.292 68.7936 35.597 65.7427C35.597 65.5395 35.6477 65.3359 35.6477 65.1323C35.6477 61.7763 32.9021 59.0816 29.5458 59.0816C26.1899 59.0816 23.4948 61.8272 23.4948 65.1323C23.4949 65.2852 23.4949 65.5395 23.4949 65.7427ZM13.1725 64.9799C13.1725 55.929 20.495 48.6065 29.546 48.6065C38.5973 48.6065 45.9704 55.929 45.9704 64.9799C45.9704 74.0313 38.5973 81.4044 29.546 81.4044C20.4951 81.4044 13.1725 74.0312 13.1725 64.9799Z" fill="#E63822"/>
<path d="M66.107 64.8785C66.107 69.8614 62.6494 72.048 59.395 72.048C55.7336 72.048 52.9371 69.3528 52.9371 65.1322C52.9371 60.6068 55.8861 57.9627 59.5981 57.9627C63.5136 57.9627 66.107 60.7594 66.107 64.8785ZM55.4286 65.0309C55.4286 67.9801 57.1063 70.2175 59.4963 70.2175C61.8354 70.2175 63.5642 68.0308 63.5642 64.9799C63.5642 62.6919 62.4458 59.7934 59.5473 59.7934C56.6489 59.7934 55.4286 62.4882 55.4286 65.0309Z" fill="#343435"/>
<path d="M80.4973 68.0819C80.4973 69.4547 80.5481 70.726 80.5993 71.7428H78.4127L78.2601 69.5565H78.209C77.5485 70.6243 76.1245 72.048 73.7343 72.048C71.5987 72.048 69.1069 70.8785 69.1069 66.1495V58.268H71.5479V65.7427C71.5479 68.2851 72.3107 70.0142 74.5482 70.0142C76.1751 70.0142 77.3447 68.8953 77.8022 67.7763C77.9552 67.4208 78.0058 66.9629 78.0058 66.5053V58.2679H80.4463L80.4973 68.0819Z" fill="#343435"/>
<path d="M93.057 69.2515C93.7687 69.7089 95.0401 70.2175 96.3115 70.2175C98.0913 70.2175 98.9559 69.3021 98.9559 68.2343C98.9559 67.0649 98.2437 66.4038 96.464 65.7428C94.0231 64.8786 92.9045 63.5564 92.9045 61.929C92.9045 59.7424 94.6334 57.9629 97.5319 57.9629C98.9048 57.9629 100.074 58.3697 100.837 58.7764L100.227 60.5563C99.7182 60.2003 98.7012 59.7934 97.4811 59.7934C96.0065 59.7934 95.2437 60.658 95.2437 61.624C95.2437 62.7425 96.0571 63.251 97.786 63.912C100.125 64.8275 101.345 65.9969 101.345 67.9801C101.345 70.3699 99.5148 72.048 96.3115 72.048C94.837 72.048 93.4637 71.6412 92.4977 71.082L93.057 69.2515Z" fill="#343435"/>
<path d="M117.007 69.2515C117.719 69.7089 118.99 70.2175 120.261 70.2175C122.041 70.2175 122.906 69.3021 122.906 68.2343C122.906 67.0649 122.194 66.4038 120.414 65.7428C117.973 64.8786 116.855 63.5564 116.855 61.929C116.855 59.7424 118.583 57.9629 121.482 57.9629C122.855 57.9629 124.024 58.3697 124.787 58.7764L124.177 60.5563C123.668 60.2003 122.652 59.7934 121.431 59.7934C120.007 59.7934 119.194 60.658 119.194 61.624C119.194 62.7425 120.007 63.251 121.736 63.912C124.075 64.8275 125.296 65.9969 125.296 67.9801C125.296 70.3699 123.465 72.048 120.261 72.048C118.787 72.048 117.414 71.6412 116.448 71.082L117.007 69.2515Z" fill="#343435"/>
<path d="M150.823 61.929C150.823 60.5562 150.772 59.3866 150.72 58.268H152.856L152.958 60.4544H153.06C153.822 59.183 155.043 57.9629 157.28 57.9629C159.111 57.9629 160.534 59.0817 161.094 60.6581H161.145C161.552 59.8952 162.111 59.3361 162.67 58.9289C163.484 58.3188 164.348 57.9629 165.67 57.9629C167.45 57.9629 170.094 59.1323 170.094 63.8103V71.7429H167.704V64.1157C167.704 61.5223 166.738 59.9459 164.806 59.9459C163.433 59.9459 162.314 60.963 161.908 62.1833C161.805 62.5393 161.704 62.9461 161.704 63.4036V71.7429H159.314V63.6579C159.314 61.5223 158.348 59.9459 156.517 59.9459C154.992 59.9459 153.873 61.1662 153.467 62.3869C153.313 62.7425 153.263 63.1494 153.263 63.6072V71.7429H150.873L150.823 61.929Z" fill="#343435"/>
<path d="M173.704 69.2515C174.416 69.7089 175.687 70.2175 176.959 70.2175C178.738 70.2175 179.603 69.3021 179.603 68.2343C179.603 67.0649 178.891 66.4038 177.111 65.7428C174.67 64.8786 173.551 63.5564 173.551 61.929C173.551 59.7424 175.281 57.9629 178.179 57.9629C179.552 57.9629 180.722 58.3697 181.484 58.7764L180.874 60.5563C180.365 60.2003 179.348 59.7934 178.128 59.7934C176.654 59.7934 175.891 60.658 175.891 61.624C175.891 62.7425 176.704 63.251 178.433 63.912C180.772 64.8275 181.992 65.9969 181.992 67.9801C181.992 70.3699 180.162 72.048 176.959 72.048C175.484 72.048 174.111 71.6412 173.145 71.082L173.704 69.2515Z" fill="#343435"/>
<path d="M112.634 58.217L109.939 66.0987C109.583 67.0648 109.329 68.1837 109.075 68.8954H109.024C108.82 68.1837 108.464 67.0141 108.159 66.1495L105.21 58.217H102.515L107.498 70.6749C107.601 70.9803 107.651 71.1834 107.651 71.3364C107.651 71.4888 107.549 71.6919 107.447 71.9463C106.888 73.2177 106.075 74.1329 105.363 74.6922C104.651 75.3027 103.837 75.7094 103.227 75.9126L103.888 77.9469C104.498 77.7944 105.668 77.3873 106.837 76.3704C108.515 74.9466 109.685 72.5566 111.465 67.9295L115.126 58.3189L112.634 58.217Z" fill="#343435"/>
<path d="M147.72 65.4377C147.771 65.1833 147.822 64.7766 147.822 64.2681C147.822 61.7764 146.653 57.912 142.229 57.912C138.313 57.912 135.872 61.1155 135.872 65.1834C135.872 69.2515 138.364 72.048 142.534 72.048C144.67 72.048 146.093 71.4888 146.958 71.082L146.347 69.2003C144.313 70.0649 142.737 70.2173 141.618 69.9631C141.161 69.8613 140.703 69.7088 140.296 69.4546C138.465 68.3361 138.262 65.9969 138.212 65.4884C138.212 65.4378 138.212 65.3866 138.212 65.3866H147.72V65.4377ZM142.025 59.6916C144.771 59.6916 145.483 62.1325 145.432 63.7089H138.262C138.466 62.1325 139.534 59.6916 142.025 59.6916Z" fill="#343435"/>
<path d="M90.057 69.2515C90.057 69.2515 89.1928 69.8614 88.5317 69.8614C87.6672 69.8614 87.1079 69.2515 87.1079 67.624V60.0476H90.6167V58.268H87.1079V53.488L84.5655 55.3187V67.4716C84.5655 69.0479 84.8705 70.2685 85.5825 70.9804C85.9382 71.3872 86.4467 71.692 87.0059 71.8445C89.0402 72.5565 90.6673 71.1328 90.6673 71.1328L90.057 69.2515Z" fill="#343435"/>
<path d="M133.787 69.2515C133.787 69.2515 132.923 69.8614 132.262 69.8614C131.398 69.8614 130.838 69.2515 130.838 67.624V60.0476H134.347V58.268H130.838V53.488L128.296 55.3187V67.4716C128.296 69.0479 128.601 70.2685 129.312 70.9804C129.668 71.3872 130.177 71.692 130.737 71.8445C132.77 72.5565 134.398 71.1328 134.398 71.1328L133.787 69.2515Z" fill="#343435"/>
</svg>
