<svg width="421" height="479" viewBox="0 0 421 479" fill="none" xmlns="http://www.w3.org/2000/svg">
<path d="M150.036 430.532C149.012 430.551 148.013 430.843 147.14 431.378C149.72 420.697 155.698 395.057 158.964 377.938C153.934 379.752 141.35 382.292 131.257 377.938C129.401 384.163 125.24 402.814 126.309 416.777C128.509 445.493 141.353 455.261 141.353 455.261C141.353 455.261 147.79 450.619 148.686 449.982C150.842 448.455 152.616 446.449 153.868 444.122C155.12 441.794 155.816 439.208 155.901 436.566V436.294C155.903 435.27 155.631 434.265 155.115 433.381C154.598 432.497 153.855 431.767 152.962 431.267C152.069 430.766 151.059 430.512 150.036 430.532Z" fill="#BBB4D6"/>
<path d="M283.285 116.801C274.068 119.492 262.915 116.753 258.679 107.441C256.193 101.971 259.243 94.4571 265.064 91.1299C265.198 91.051 265.481 90.7927 265.542 90.3905C265.759 89.0209 266.062 86.4565 266.395 83.9185C264.261 82.8429 259.473 79.6509 257.199 73.5376C254.011 64.9652 255.759 54.8688 259.653 44.6276L261.093 41.0538H290.91L300.724 62.8697L296.617 75.8312C296.457 78.0182 296.104 83.5339 295.924 88.0994C295.779 91.763 298.393 93.3142 300.104 93.5101C300.58 93.5646 300.62 93.4847 300.63 93.9914C300.849 104.628 293.387 113.849 283.285 116.801Z" fill="white" stroke="#564499" stroke-miterlimit="10"/>
<path d="M191.064 94.2331C190.587 94.6734 190.3 95.2826 190.264 95.9309L190.059 138.888C190.058 139.664 190.358 140.411 190.896 140.972C191.433 141.532 192.167 141.862 192.942 141.894L247.724 142.318C248.187 142.32 248.646 142.231 249.074 142.055C249.502 141.88 249.891 141.621 250.219 141.294C250.547 140.968 250.808 140.58 250.985 140.152C251.163 139.725 251.254 139.267 251.254 138.804V97.5678C251.254 96.6413 250.889 95.7523 250.236 95.0938C249.584 94.4359 248.699 94.062 247.772 94.0534L192.821 93.572C192.172 93.5554 191.541 93.7929 191.064 94.2331Z" fill="url(#paint0_linear_410_618)"/>
<path d="M191.064 94.2331C190.587 94.6734 190.3 95.2826 190.264 95.9309L190.059 138.888C190.058 139.664 190.358 140.411 190.896 140.972C191.433 141.532 192.167 141.862 192.942 141.894L247.724 142.318C248.187 142.32 248.646 142.231 249.074 142.055C249.502 141.88 249.891 141.621 250.219 141.294C250.547 140.968 250.808 140.58 250.985 140.152C251.163 139.725 251.254 139.267 251.254 138.804V97.5678C251.254 96.6413 250.888 95.7523 250.236 95.0938C249.584 94.4359 248.699 94.062 247.772 94.0534L192.821 93.572C192.172 93.5554 191.541 93.7929 191.064 94.2331Z" stroke="#564499" stroke-miterlimit="10"/>
<path d="M187.226 90.9231C175.212 96.9943 171.034 109.961 168.68 122.306C168.095 125.91 167.969 129.184 167.61 132.243C167.61 132.243 170.601 137.6 176.51 140.029C183.085 142.731 189.32 141.926 191.483 141.551L191.236 138.47V136.048C199.997 138.293 202.872 138.677 207.445 137.801C212.018 136.924 215.769 133.776 216.097 130.846C216.36 128.502 213.87 127.149 212.593 126.766C215.632 125.726 219.903 123.207 218.89 118.607C218.08 114.927 214.81 114.372 213.277 114.554C213.916 114.144 215.522 112.9 216.837 111.214C218.479 109.105 218.256 107.291 217.795 105.683C217.11 103.41 214.454 101.165 208.705 104.834C204.105 107.769 194.45 107.572 190.198 107.107V95.9655C190.142 95.1816 190.535 93.6137 192.55 93.6137H201.187C201.214 93.4799 201.224 93.3435 201.219 93.2071C201.213 92.2753 200.983 91.3585 200.55 90.5326C199.84 89.2044 198.639 88.2063 197.202 87.7521C195.766 87.2985 194.209 87.4248 192.864 88.1041L187.226 90.9231Z" fill="white" stroke="#564499" stroke-miterlimit="10"/>
<path d="M302.21 268.503C319.814 227.594 326.206 155.386 326.206 155.386V238.335M300.257 93.5399H300.343H300.402H300.445C300.471 93.5399 300.514 93.5399 300.557 93.5399C300.576 93.5463 300.596 93.5463 300.616 93.5399C307.028 94.4846 313.384 95.6796 319.685 97.1238C329.239 99.3169 338.562 102.28 346.126 108.742C352.716 114.348 358.295 121.601 360.884 129.743C371.979 164.665 368.586 203.608 360.982 238.433M326.206 238.335V256.131C326.205 257.756 326.525 259.365 327.146 260.867C327.768 262.368 328.679 263.732 329.828 264.881C330.977 266.03 332.341 266.941 333.843 267.563C335.344 268.185 336.953 268.504 338.578 268.503H377.627C379.091 268.526 380.511 268.008 381.616 267.047C382.721 266.087 383.432 264.752 383.612 263.299C383.691 262.499 383.601 261.69 383.348 260.927C383.095 260.164 382.685 259.462 382.144 258.867C381.603 258.271 380.944 257.796 380.208 257.471C379.473 257.147 378.677 256.98 377.873 256.981H361.879C361.241 256.979 360.612 256.832 360.04 256.55C359.468 256.268 358.968 255.859 358.577 255.355C358.188 254.85 357.918 254.263 357.789 253.638C357.661 253.014 357.676 252.368 357.835 251.75C358.94 247.392 359.996 242.947 360.982 238.433M326.206 238.335L360.982 238.433" stroke="#564499" stroke-miterlimit="10"/>
<path d="M291.779 440.878H155.184" stroke="#564499" stroke-miterlimit="10"/>
<path d="M164.53 347C163.187 356.554 161.186 367.514 158.977 378.485L156.372 379.228C148.035 381.57 139.182 381.311 130.996 378.485L134.409 366.888L113.633 306.443C113.633 306.443 125.543 300.314 138.584 296.5L144.053 297.43C151.178 298.933 165.861 304.577 166.321 325.711C166.354 326.727 166.321 327.797 166.321 328.963C168.392 335.783 167.568 341.796 164.53 347Z" fill="white" stroke="#564499"/>
<path d="M115.628 116.916C115.423 116.394 115.023 115.974 114.512 115.745C114 115.516 113.42 115.496 112.895 115.691C112.601 115.779 112.328 115.931 112.098 116.135C111.274 116.803 111.087 117.975 111.06 119.087C110.985 121.628 110.841 124.174 110.653 126.704C110.653 126.876 110.627 127.068 110.627 127.239C110.509 129.277 110.595 131.749 109.728 133.524C109.672 133.66 109.578 133.775 109.455 133.856C109.166 133.99 108.862 133.701 108.674 133.439C108.139 132.658 107.604 131.893 107.07 131.096C106.647 130.459 106.171 129.769 105.433 129.566C104.336 129.261 103.293 130.229 102.689 131.214C100.736 134.423 100.549 139.681 103.571 142.372C106.593 145.062 99.8269 150.353 94.9806 152.578C94.1691 153.034 93.3192 153.417 92.4398 153.723C92.397 153.723 94.1889 154.124 94.1461 154.14C90.375 155.453 86.4467 156.26 82.4637 156.542C77.7351 156.857 73.1242 156.263 69.7703 154.209C69.9148 153.674 71.0595 149.93 71.129 149.395C71.3751 147.528 71.5516 145.678 71.6639 143.8C71.8672 140.275 71.8511 136.745 71.7174 133.23C71.2306 120.585 73.4826 109.962 78.7033 108.341C79.1157 108.217 79.511 108.043 79.8801 107.822C82.2337 106.522 83.4908 103.778 82.4102 101.189C82.3353 101.013 82.2498 100.841 82.1749 100.654C82.0904 100.47 81.9941 100.291 81.886 100.119C92.0814 96.9527 99.0031 99.1512 106 102.981C107.331 104.045 108.583 105.205 109.744 106.453C112.483 109.426 114.497 112.992 115.628 116.873V116.916Z" fill="#2C0CAD"/>
<path opacity="0.4" d="M360.708 238.494H325.938V155.39C325.938 155.39 319.52 227.598 301.932 268.508H194.249C206.942 260.441 217.122 248.256 223.899 235.14C226.574 229.951 230.853 222.249 237.967 224.271C239.658 224.747 242.145 225.052 243.402 223.506C243.836 222.913 244.082 222.203 244.108 221.468C244.718 213.893 236.865 207.517 230.393 205.506C223.921 203.495 216.357 204.436 211.206 209.138C207.493 212.535 205.167 217.044 202.449 221.222C200.818 223.697 198.885 225.96 196.694 227.956C199.486 211 201.973 194.792 202.332 188.828C209.141 183.452 214.142 174.685 215.918 166.928C217.871 158.455 219.593 150.17 222.626 142.237L247.451 142.323C248.386 142.323 249.283 141.951 249.944 141.29C250.605 140.629 250.976 139.733 250.976 138.798V97.5667C250.978 96.6402 250.612 95.7512 249.959 95.0933C249.307 94.4359 248.42 94.0636 247.494 94.0577L230.591 93.9133C236.734 92.6295 242.963 91.7982 249.227 91.426C249.355 91.426 249.473 91.426 249.585 91.426C253.71 91.1531 260.936 91.0355 265.098 90.9927C260.139 93.6672 257.074 99.348 257.609 104.365C257.703 105.434 257.977 106.479 258.417 107.457C262.653 116.765 273.812 119.514 283.023 116.807C293.272 113.817 300.803 104.392 300.354 93.5495C306.773 94.491 313.127 95.6854 319.418 97.1334C328.977 99.3319 338.3 102.295 345.858 108.757C352.449 114.368 358.033 121.595 360.617 129.763C371.711 164.687 368.298 203.661 360.708 238.494Z" fill="#564499"/>
<path d="M202.61 188.829C201.829 201.592 199.818 214.344 197.635 227.064" stroke="#564499" stroke-miterlimit="10"/>
<path d="M218.969 120.837C217.958 125.827 210.735 127.78 206.461 127.871C200.083 127.936 194.693 127.037 191.291 126.641" stroke="#564499" stroke-miterlimit="10"/>
<path d="M189.884 117.285C195.059 118.78 200.539 118.871 205.76 117.547C210.152 116.418 215.341 114.337 217.641 110.16" stroke="#564499" stroke-miterlimit="10"/>
<path opacity="0.4" d="M222.904 142.238C219.866 150.17 218.149 158.456 216.196 166.929C214.405 174.658 209.414 183.452 202.61 188.828C196.897 193.337 189.9 195.461 182.412 192.615C172.366 188.785 168.841 177.713 167.611 167.951C166.012 155.795 165.914 143.489 167.322 131.309C168.739 134.46 174.532 144.046 192.5 141.526C192.982 141.887 193.562 142.094 194.164 142.12L222.904 142.238Z" fill="#564499"/>
<path d="M168.107 167.888L168.106 167.885C166.568 156.192 166.424 144.358 167.678 132.634C168.688 134.035 170.482 136.406 173.358 138.397C177.162 141.029 182.862 143.025 191.267 141.597C191.544 141.759 191.845 141.848 192.129 141.903C192.478 141.969 192.837 141.987 193.136 142L193.145 142.001L193.155 142.001L222.428 142.181C219.682 149.539 217.823 157.627 216.029 165.426C215.922 165.891 215.816 166.354 215.709 166.817C213.939 174.45 209.003 183.139 202.3 188.436C196.686 192.867 189.872 194.915 182.59 192.148C172.833 188.428 169.335 177.638 168.107 167.888Z" stroke="#564499"/>
<path d="M337.418 258.271C340.322 258.181 343.229 258.254 346.126 258.49C348.49 258.682 350.94 258.795 353.192 259.677C355.048 260.416 356.985 262.175 356.888 264.326C356.712 268.541 351.191 268.509 348.164 268.509" stroke="#564499" stroke-miterlimit="10"/>
<path d="M285.467 254.253L310.64 189.759C310.952 188.509 310.974 187.204 310.705 185.944C310.437 184.684 309.884 183.503 309.09 182.488C308.296 181.474 307.28 180.655 306.122 180.092C304.963 179.53 303.691 179.239 302.402 179.243H202.439C200.198 179.247 198.025 180.006 196.267 181.395C194.509 182.784 193.269 184.724 192.746 186.902L165.155 251.38C164.856 252.625 164.843 253.921 165.117 255.172C165.391 256.423 165.945 257.595 166.738 258.6C167.53 259.606 168.54 260.419 169.692 260.978C170.844 261.536 172.108 261.827 173.388 261.827H275.769C277.999 261.826 280.164 261.08 281.921 259.707C283.678 258.335 284.926 256.416 285.467 254.253Z" fill="url(#paint1_linear_410_618)"/>
<path d="M285.001 254.071L284.99 254.101L284.982 254.132C284.468 256.186 283.282 258.01 281.613 259.313L281.613 259.313C279.944 260.617 277.887 261.326 275.769 261.327H173.388C173.388 261.327 173.388 261.327 173.388 261.327C172.183 261.327 170.994 261.053 169.91 260.528C168.827 260.002 167.876 259.237 167.13 258.291L167.13 258.291C166.385 257.345 165.864 256.242 165.605 255.065C165.351 253.902 165.36 252.697 165.632 251.538L193.206 187.099L193.222 187.06L193.232 187.019C193.729 184.95 194.907 183.107 196.577 181.787C198.247 180.468 200.311 179.747 202.439 179.743L302.402 179.743L302.404 179.743C303.616 179.739 304.812 180.013 305.903 180.542C306.994 181.071 307.949 181.842 308.696 182.797C309.444 183.751 309.964 184.863 310.216 186.049L310.705 185.944L310.216 186.049C310.467 187.224 310.449 188.44 310.163 189.607L285.001 254.071Z" stroke="#564499"/>
<path d="M211.837 193.408C213.062 191.573 215.046 190.733 216.309 191.583C217.571 192.434 217.571 194.574 216.352 196.398C216.159 196.678 215.944 196.943 215.71 197.189L224.771 216.323C226.215 215.36 227.804 215.119 228.949 215.879C229.316 216.147 229.619 216.491 229.839 216.888C230.059 217.286 230.19 217.726 230.222 218.179L236.416 216.093L241.829 214.269L243.594 213.691C243.818 213.026 244.127 212.394 244.515 211.808C246.232 209.225 249.04 208.064 250.789 209.241C252.538 210.418 252.56 213.386 250.891 215.949L261.214 230.043C263.466 228.198 266.114 227.626 267.949 228.845C270.447 230.509 270.484 234.847 268.034 238.527C267.933 238.677 267.821 238.795 267.719 238.934L274.587 248.327L274.651 248.418C275.002 248.948 275.128 249.595 275.002 250.218C274.876 250.841 274.507 251.388 273.977 251.739C273.447 252.091 272.8 252.217 272.177 252.09C271.554 251.964 271.006 251.596 270.656 251.065L264.558 241.86C262.627 242.978 260.572 243.192 259.069 242.191C256.684 240.587 256.566 236.585 258.695 233.018L248.815 218.104C247.355 219.094 245.745 219.345 244.589 218.58C243.948 218.125 243.509 217.435 243.37 216.66L242.632 216.863L237.127 218.366L230.077 220.271C229.857 221.115 229.495 221.917 229.007 222.64C227.29 225.219 224.482 226.385 222.733 225.208C220.984 224.031 220.957 221.009 222.674 218.425C222.926 218.046 223.209 217.688 223.519 217.355L214.891 197.863C213.854 198.575 212.703 198.757 211.88 198.206C210.639 197.382 210.617 195.221 211.837 193.408Z" fill="white"/>
<path d="M277.476 194.433H290.848C291.46 194.432 292.057 194.254 292.569 193.919C293.081 193.585 293.485 193.11 293.732 192.55C293.805 192.381 293.845 192.2 293.849 192.015C293.848 191.65 293.702 191.3 293.443 191.043C293.184 190.785 292.834 190.64 292.469 190.64H278.257C278.925 191.758 278.588 193.326 277.476 194.433Z" fill="white"/>
<path d="M268.831 193.064C268.833 193.427 268.979 193.776 269.236 194.032C269.494 194.289 269.842 194.433 270.206 194.433H277.476C278.588 193.326 278.925 191.759 278.257 190.63H271.838C271.227 190.63 270.629 190.807 270.117 191.141C269.605 191.474 269.201 191.949 268.954 192.508C268.876 192.683 268.834 192.872 268.831 193.064Z" fill="#EF3922"/>
<path d="M272.175 194.435C272.214 194.508 272.258 194.577 272.308 194.643C273.26 195.948 275.331 196.071 276.935 194.9C277.126 194.759 277.304 194.604 277.47 194.435C278.583 193.327 278.92 191.76 278.251 190.631C278.216 190.558 278.173 190.487 278.123 190.423C277.176 189.112 275.106 189 273.501 190.161C273.311 190.304 273.133 190.461 272.966 190.631C271.854 191.744 271.517 193.301 272.175 194.435Z" fill="white"/>
<path d="M265.494 201.457C265.496 201.822 265.643 202.17 265.902 202.426C266.16 202.683 266.509 202.827 266.874 202.827H280.904C280.225 201.693 280.562 200.152 281.675 199.023H268.478C267.867 199.024 267.267 199.202 266.755 199.536C266.242 199.871 265.838 200.346 265.59 200.906C265.523 201.082 265.49 201.269 265.494 201.457Z" fill="#EF3922"/>
<path d="M280.883 202.826H287.484C288.094 202.826 288.691 202.65 289.202 202.317C289.714 201.985 290.119 201.511 290.367 200.954C290.442 200.785 290.484 200.604 290.49 200.419C290.49 200.238 290.456 200.059 290.387 199.892C290.318 199.725 290.217 199.573 290.089 199.445C289.961 199.318 289.809 199.217 289.642 199.148C289.475 199.079 289.296 199.044 289.115 199.044H281.653C280.541 200.136 280.204 201.692 280.883 202.826Z" fill="white"/>
<path d="M280.883 202.827C280.914 202.9 280.954 202.971 281.001 203.035C281.948 204.346 284.018 204.463 285.622 203.297C285.812 203.154 285.991 202.996 286.157 202.827C287.259 201.714 287.596 200.152 286.938 199.023C286.899 198.951 286.856 198.882 286.81 198.815C285.852 197.51 283.782 197.392 282.178 198.563C281.988 198.703 281.808 198.856 281.643 199.023C280.541 200.136 280.204 201.693 280.883 202.827Z" fill="white"/>
<path d="M276.192 211.161H284.59C285.201 211.16 285.799 210.982 286.312 210.649C286.824 210.316 287.23 209.841 287.478 209.283C287.552 209.114 287.592 208.932 287.596 208.748C287.596 208.382 287.451 208.03 287.192 207.77C286.933 207.511 286.582 207.364 286.216 207.363H276.989C277.652 208.491 277.31 210.048 276.192 211.161Z" fill="#EF3922"/>
<path d="M262.594 209.797C262.595 209.977 262.631 210.154 262.701 210.32C262.77 210.486 262.872 210.637 262.999 210.764C263.127 210.89 263.279 210.99 263.445 211.058C263.611 211.127 263.789 211.162 263.969 211.161H276.192C277.294 210.048 277.636 208.486 276.973 207.352H265.601C264.988 207.352 264.389 207.53 263.877 207.866C263.365 208.201 262.961 208.679 262.717 209.24C262.639 209.415 262.597 209.605 262.594 209.797Z" fill="white"/>
<path d="M270.907 211.161C270.946 211.234 270.99 211.303 271.041 211.369C271.987 212.68 274.052 212.792 275.662 211.626C275.852 211.485 276.031 211.33 276.197 211.161C277.299 210.048 277.641 208.486 276.978 207.352C276.943 207.278 276.9 207.208 276.85 207.143C275.892 205.844 273.828 205.731 272.217 206.892C272.029 207.033 271.85 207.186 271.683 207.352C270.581 208.465 270.238 210.032 270.907 211.161Z" fill="white"/>
<path d="M221.904 250.465H230.307C230.918 250.463 231.515 250.285 232.026 249.953C232.538 249.619 232.942 249.145 233.19 248.587C233.264 248.418 233.304 248.236 233.308 248.052C233.308 247.686 233.163 247.335 232.904 247.076C232.645 246.817 232.294 246.672 231.928 246.672H222.701C223.348 247.795 223.006 249.352 221.904 250.465Z" fill="#EF3922"/>
<path d="M188.558 249.101C188.558 249.281 188.595 249.458 188.664 249.625C188.733 249.791 188.835 249.941 188.963 250.068C189.09 250.195 189.241 250.295 189.408 250.363C189.575 250.431 189.753 250.466 189.932 250.465H221.904C223.006 249.353 223.348 247.791 222.685 246.662H191.564C190.952 246.661 190.354 246.839 189.841 247.173C189.33 247.508 188.926 247.984 188.681 248.545C188.604 248.72 188.562 248.909 188.558 249.101Z" fill="white"/>
<path d="M216.603 250.466C216.642 250.538 216.686 250.609 216.737 250.674C217.683 251.985 219.748 252.097 221.358 250.936C221.547 250.792 221.726 250.635 221.893 250.466C222.995 249.353 223.337 247.791 222.674 246.663C222.639 246.588 222.596 246.518 222.546 246.454C221.588 245.149 219.524 245.036 217.913 246.197C217.723 246.338 217.544 246.493 217.379 246.663C216.282 247.77 215.934 249.337 216.603 250.466Z" fill="white"/>
<path d="M10.4382 271.066C10.4382 271.066 -7.21377 350.805 38.1946 367.462C83.6031 384.119 206.263 368.473 155.286 310.938C104.309 253.403 10.4382 271.066 10.4382 271.066Z" fill="white" stroke="#564499"/>
<path d="M230.767 93.9138C236.939 92.6263 243.196 91.7919 249.489 91.4158C249.623 91.4158 249.735 91.4158 249.853 91.4158C253.988 91.143 261.23 91.0253 265.365 90.9825" stroke="#564499" stroke-miterlimit="10"/>
<path d="M200.175 107.111C200.133 107.138 200.106 107.169 200.064 107.196" stroke="#564499" stroke-miterlimit="10"/>
<path d="M270.549 73.5867C267.393 75.2449 263.766 74.1216 262.375 71.2972" stroke="#564499" stroke-miterlimit="10"/>
<path d="M252.228 33.2813C252.086 35.7354 252.715 38.1725 254.028 40.2501C255.342 42.3282 257.273 43.9425 259.551 44.8674C260.033 43.9832 260.723 43.2306 261.562 42.6743C265.108 40.3795 264.477 46.5096 274.106 44.8941C287.452 42.6422 290.854 47.2905 290.854 47.2905C291.148 47.6971 290.319 50.3502 290.201 50.837C289.666 53.6881 289.131 56.5231 288.645 59.3955C288.331 61.1356 288.013 62.865 287.692 64.5842C287.935 64.3488 288.192 64.1289 288.463 63.9262C290.656 60.5028 293.871 56.6621 297.374 59.7967C298.078 60.4493 298.617 61.2597 298.947 62.161C300.552 66.5205 297.481 69.3235 293.892 71.0031C292.945 71.576 291.939 72.044 290.891 72.3992C291.068 73.5011 291.8 77.8927 291.8 77.9034C291.875 78.3527 300.787 72.8592 301.53 72.1906C302.874 70.4141 303.91 68.4253 304.595 66.3066C307.366 57.5662 306.896 46.2689 301.316 39.0797C299.931 37.2984 300.856 36.2714 301.258 34.5383C301.277 34.4447 301.268 34.3479 301.231 34.2601C301.195 34.1719 301.133 34.097 301.053 34.0446C300.974 33.9922 300.881 33.9649 300.785 33.9659C300.69 33.9676 300.598 33.997 300.519 34.0515C297.513 35.9398 292.073 34.0087 292.073 34.0087C274.421 23.4067 265.376 29.9648 261.049 30.2965C259.293 30.4168 257.551 29.921 256.122 28.895C255.871 29.3914 255.489 29.8097 255.018 30.1055C254.547 30.4013 254.004 30.5634 253.447 30.5746L253.276 31.4947C253.145 32.1938 252.775 32.8255 252.228 33.2813Z" fill="#2C0CAD"/>
<path d="M259.561 44.8888C257.284 43.9645 255.353 42.3501 254.039 40.272C252.726 38.1939 252.096 35.7568 252.239 33.3027C252.291 32.3602 252.427 31.4241 252.645 30.5051L252.8 30.5372C253.011 30.5848 253.227 30.6008 253.442 30.5853C253.998 30.5746 254.541 30.4125 255.013 30.1167C255.484 29.8209 255.865 29.4021 256.117 28.9057C256.264 28.6297 256.367 28.3317 256.422 28.0231L257.245 23.546C257.245 23.546 259.92 27.1672 264.199 26.8303C268.478 26.4933 277.524 19.9354 295.224 30.5425C295.224 30.5425 299.471 32.1098 302.477 30.2216C302.555 30.1676 302.648 30.1376 302.743 30.1365C302.838 30.1355 302.932 30.1627 303.011 30.2152C303.091 30.2676 303.153 30.3425 303.189 30.4302C303.226 30.5185 303.235 30.6153 303.215 30.7083C302.814 32.4361 303.082 33.8322 304.467 35.6135C310.046 42.8027 310.517 54.0999 307.746 62.8404C306.533 66.4628 304.379 69.6968 301.504 72.212C300.76 72.8806 291.849 78.3741 291.774 77.9248C291.774 77.9248 291.041 73.5225 290.864 72.4206L290.822 72.1692L291.073 72.0943C292.026 71.7996 292.959 71.4422 293.865 71.0245C297.454 69.3449 300.541 66.5419 298.92 62.1824C298.59 61.2816 298.051 60.4712 297.348 59.8181C293.844 56.6835 290.629 60.5242 288.436 63.9476C288.012 64.5975 287.664 65.294 287.398 66.0231C287.484 65.5523 287.569 65.0923 287.66 64.6216C287.981 62.8992 288.298 61.1698 288.612 59.433C289.147 56.5766 289.645 53.7415 290.169 50.8744C290.265 50.3877 291.116 47.7345 290.822 47.328C290.822 47.328 287.42 42.6796 274.074 44.9316C264.445 46.5363 265.076 40.417 261.53 42.7117C260.691 43.268 260.001 44.0212 259.519 44.9048C259.369 45.1932 259.237 45.4895 259.123 45.7928C259.104 45.8308 259.088 45.8704 259.075 45.9105C258.834 46.5738 258.615 47.2424 258.401 47.895C256.4 54.2551 255.079 61.1233 255.785 67.8043C256.646 75.9028 262.546 85.4242 271.934 84.6165C274.888 84.2704 277.769 83.4617 280.471 82.2201" stroke="#564499" stroke-miterlimit="10"/>
<path d="M260.586 62.1492C261.504 62.123 262.223 61.2018 262.192 60.0914C262.161 58.9809 261.391 58.102 260.472 58.1283C259.554 58.1539 258.835 59.075 258.866 60.1855C258.898 61.296 259.667 62.1748 260.586 62.1492Z" fill="#564499"/>
<path d="M273.156 65.5277C274.074 65.5015 274.793 64.5804 274.762 63.4705C274.73 62.36 273.961 61.4806 273.042 61.5068C272.124 61.533 271.405 62.4541 271.436 63.5641C271.467 64.6745 272.237 65.5539 273.156 65.5277Z" fill="#564499"/>
<path d="M267.73 66.2685C267.73 66.2685 262.867 67.3383 263.359 64.8457C263.509 64.0647 264.729 56.3941 264.729 56.3941C264.729 56.3941 262.461 51.826 256.529 52.8904" stroke="#564499" stroke-miterlimit="10"/>
<path d="M269.912 55.7116C269.912 55.7116 277.62 54.401 280.573 60.5579" stroke="#564499" stroke-miterlimit="10"/>
<path d="M296.583 75.3632L295.876 88.1421C295.809 89.3912 296.201 90.6214 296.978 91.6009C297.756 92.5803 298.866 93.2414 300.097 93.4591H300.257C300.285 93.4516 300.315 93.4516 300.343 93.4591H300.37H300.445" stroke="#564499" stroke-miterlimit="10"/>
<path d="M300.557 93.5179H300.445H300.402H300.37H300.343H300.257H300.097C298.866 93.3002 297.756 92.639 296.978 91.6596C296.201 90.6796 295.809 89.4493 295.876 88.2009L296.583 75.4219" stroke="#564499" stroke-miterlimit="10"/>
<path d="M266.462 83.8206C266.221 83.7244 266.314 90.5904 263.548 96.9041" stroke="#564499" stroke-miterlimit="10"/>
<path d="M152.125 268.507L123.839 268.507" stroke="#564499" stroke-miterlimit="10"/>
<path d="M420.398 268.507H194.249" stroke="#564499" stroke-miterlimit="10"/>
<path d="M76.9702 96.6321C92.643 92.0908 102.603 98.7718 109.728 106.474C116.853 114.177 116.521 122.923 116.521 122.923" stroke="#564499" stroke-miterlimit="10"/>
<path d="M67.5345 159.263C67.7485 162.574 65.7813 175.306 65.7813 175.306C77.7055 172.59 90.09 173.925 98.5455 175.358C98.5455 175.358 97.3689 172.416 97.4841 170.336C97.4841 166.634 97.3717 162.414 100.87 161.199C104.486 159.912 107.662 157.627 110.033 154.609C114.195 149.378 115.527 142.494 116.265 136.005C117.043 129.81 116.883 123.533 115.789 117.385C115.749 117.063 115.636 116.753 115.458 116.481C115.281 116.208 115.044 115.98 114.765 115.812C114.486 115.646 114.172 115.544 113.849 115.517C113.524 115.489 113.198 115.535 112.895 115.652C111.392 116.144 111.103 117.647 111.06 119.049C110.985 121.589 110.841 124.136 110.654 126.666C110.493 128.789 110.67 131.566 109.728 133.502C109.673 133.638 109.578 133.753 109.455 133.834C109.167 133.951 108.862 133.678 108.674 133.416C108.139 132.635 107.605 131.87 107.07 131.073C106.647 130.437 106.171 129.747 105.433 129.544C104.336 129.239 103.282 130.207 102.689 131.191C100.736 134.401 100.522 139.632 103.571 142.349C106.62 145.067 99.827 150.33 94.9807 152.555C93.9767 153.085 92.9341 153.54 91.8622 153.914C84.229 156.573 76.0021 158.006 69.7865 154.187L67.5345 159.263Z" fill="white" stroke="#564499" stroke-miterlimit="10"/>
<path d="M125.583 247.282C125.346 259.527 123.795 271.711 120.956 283.624" stroke="#564499" stroke-miterlimit="10"/>
<path d="M164.53 347C158.79 356.874 145.176 363.887 128.519 368.252C98.9603 375.997 59.8263 375.393 38.2053 367.455C-7.22995 350.803 10.4328 271.064 10.4328 271.064C10.4328 271.064 89.0164 256.274 141.416 297.809C146.422 301.766 151.068 306.157 155.302 310.931C161.095 317.483 164.653 323.48 166.332 328.957C168.392 335.783 167.568 341.795 164.53 347Z" stroke="#564499" stroke-miterlimit="10"/>
<path d="M134.409 366.906C134.409 366.906 106.877 443.328 153.131 462.847C199.384 482.366 -16.7246 484.966 30.9787 462.847C78.6819 440.729 51.2625 371.576 51.2625 371.576" stroke="#564499" stroke-miterlimit="10"/>
<path d="M244.044 221.467C244.018 222.203 243.771 222.914 243.333 223.505C242.076 225.051 239.588 224.746 237.898 224.27C230.789 222.248 226.521 229.951 223.835 235.139C217.053 248.255 206.879 260.441 194.185 268.507C193.362 269.042 192.522 269.545 191.671 270.037C179.267 277.194 163.465 276.106 151.467 268.676L166.942 231.065L168.055 231.962C177.32 239.274 188.724 235.172 196.619 227.956C198.811 225.959 200.744 223.697 202.375 221.221C205.092 217.043 207.419 212.534 211.137 209.137C216.282 204.436 223.814 203.516 230.318 205.505C236.823 207.495 244.633 213.893 244.044 221.467Z" fill="white" stroke="#564499"/>
<path opacity="0.4" d="M142.267 204.944C137.426 199.234 132.226 193.836 126.701 188.785C121.1 184.48 110.096 173.477 78.522 173.836C46.9475 174.195 24.8215 200.268 21.5923 213.065C19.0089 223.303 20.1172 254.965 20.9943 269.516C37.4593 266.686 80.4834 265.737 120.86 284.586C121.883 280.482 124.291 267.297 125.743 247.393L146.337 264.876C148.021 266.315 149.594 267.44 151.508 268.584C153.776 263.493 166.935 231.005 166.935 231.005C166.935 231.005 156.647 221.819 142.267 204.944Z" fill="#564499"/>
<path d="M116.917 239.901L125.743 247.393M125.743 247.393L146.337 264.876C148.021 266.315 149.594 267.44 151.508 268.584C153.776 263.493 166.935 231.005 166.935 231.005C166.935 231.005 156.647 221.819 142.267 204.944C137.426 199.234 132.226 193.836 126.701 188.785C121.1 184.48 110.096 173.477 78.522 173.836C46.9475 174.195 24.8215 200.268 21.5923 213.065C19.0089 223.303 20.1172 254.965 20.9943 269.516C37.4593 266.686 80.4834 265.737 120.86 284.586C121.883 280.482 124.291 267.297 125.743 247.393Z" stroke="#564499" stroke-miterlimit="10"/>
<path d="M243.98 218.799C243.98 218.799 242.236 209.566 226.515 216.772" stroke="#564499" stroke-miterlimit="10"/>
<path d="M235.234 207.717C235.234 207.717 225.434 204.582 219.978 212.071" stroke="#564499" stroke-miterlimit="10"/>
<path d="M37.419 260.577C40.0352 260.81 42.6691 260.766 45.2768 260.448C52.0932 259.579 58.6137 257.139 64.3249 253.317C68.4946 250.503 71.9693 246.777 74.4866 242.422C77.0034 238.066 78.4968 233.195 78.8531 228.177C79.5485 216.65 72.4342 206.529 67.8928 196.468C64.1484 188.139 61.4204 178.875 63.2284 169.92C64.4854 163.683 70.2999 155.68 71.1397 149.374C71.7928 144.012 71.9897 138.604 71.7281 133.209C71.2413 120.558 73.4879 109.941 78.7087 108.325C81.8004 107.368 83.6566 104.169 82.4102 101.184C81.2174 98.3171 79.6822 98.146 73.7073 94.8991C58.1307 86.4261 47.2988 102.222 41.3185 117.451C38.1465 125.523 37.5046 134.488 33.4981 142.18C28.0634 152.605 15.6321 158.762 12.4547 170.102C10.4702 177.184 12.6098 184.775 11.647 192.065C10.0744 203.999 0.740206 213.622 0.71346 225.936C0.670667 245.187 19.2909 259.031 37.419 260.577Z" stroke="#564499" stroke-miterlimit="10"/>
<path d="M164.53 347.001C163.187 356.555 161.186 367.515 158.983 378.486C152.735 409.58 144.786 440.862 144.786 440.862" stroke="#564499" stroke-miterlimit="10"/>
<path d="M166.311 328.958C166.337 327.792 166.354 326.722 166.311 325.705C165.835 303.774 150.066 298.532 143.283 297.275C142.271 297.077 141.247 296.947 140.218 296.885" stroke="#564499" stroke-miterlimit="10"/>
<path d="M147.14 431.378C148.013 430.843 149.012 430.551 150.036 430.532C151.059 430.512 152.069 430.766 152.962 431.267C153.855 431.767 154.598 432.497 155.115 433.381C155.631 434.265 155.903 435.27 155.901 436.294C155.901 436.369 155.901 436.46 155.901 436.566C155.816 439.208 155.12 441.794 153.868 444.122C152.616 446.449 150.842 448.455 148.686 449.982L141.25 455.272" stroke="#564499" stroke-miterlimit="10"/>
<path d="M191.291 135.969C191.291 135.969 191.398 154.156 195.736 161.158" stroke="#564499" stroke-miterlimit="10"/>
<path opacity="0.4" d="M202.523 70.4571L202.523 70.4574C202.326 70.8833 202.012 71.2444 201.618 71.4996L201.618 71.4998C201.224 71.7548 200.767 71.8934 200.297 71.8997C199.828 71.9055 199.366 71.7789 198.965 71.5344L198.966 71.5342L198.954 71.5277C194.143 68.7586 190.91 67.019 188.032 65.9447C185.134 64.8634 182.609 64.4606 179.215 64.3339C177.051 64.2531 174.514 64.2846 171.292 64.3246C169.499 64.3469 167.493 64.3718 165.221 64.3814C158.861 64.4084 150.371 64.3169 138.507 63.7185C130.132 61.7438 119.753 57.6836 112.64 51.1936C110.323 47.7313 109.087 43.6586 109.089 39.4923V39.4921C109.089 30.7555 115.06 22.7567 124.901 16.9148C134.731 11.0793 148.342 7.45337 163.401 7.45337C182.699 7.45337 199.593 13.4048 209.225 22.3008L209.229 22.3055L209.298 22.3903L209.51 22.6499C209.641 22.8112 209.779 22.9798 209.825 23.0363C212.186 26.4387 212.897 29.7504 212.947 33.959C212.946 37.0767 211.788 40.348 210.214 43.5387C209.076 45.8448 207.742 48.0696 206.497 50.1446C206.022 50.9374 205.559 51.7084 205.126 52.4537C201.759 57.144 200.872 59.7003 201.04 61.9675C201.118 63.0227 201.425 63.9896 201.75 65.0156C201.768 65.0709 201.786 65.1264 201.803 65.182C202.151 66.2806 202.524 67.4998 202.735 69.0952C202.794 69.5601 202.721 70.0319 202.523 70.4571Z" fill="#564499" stroke="#564499"/>
<path d="M213.361 33.967V34.4217C213.249 40.7176 210.098 46.5695 206.359 51.6351C203.856 55.0264 200.887 58.7868 201.593 62.9431C201.904 64.7725 202.925 66.436 203.198 68.2922C203.471 70.1483 202.476 72.4217 200.62 72.5179C199.443 72.5768 198.437 71.737 197.507 71.0148C191.981 66.7356 184.803 65.1309 177.822 64.8527C170.841 64.5745 163.872 65.4892 156.886 65.6872C146.819 65.976 136.591 64.719 127.289 60.873C118.928 57.3854 111.306 51.7153 106.289 44.1678C101.362 36.7272 104.277 25.9326 109.53 19.4655C114.462 13.3996 121.598 9.51621 128.921 6.78282C148.611 -0.572184 171.087 -0.395665 190.51 7.65472C196.276 10.019 201.839 13.1429 206.172 17.6468C210.398 22.0384 213.324 27.8905 213.361 33.967Z" stroke="#564499" stroke-miterlimit="10"/>
<path d="M139.622 33.5604C139.622 37.4619 136.459 40.6241 132.558 40.6241C128.657 40.6241 125.494 37.4619 125.494 33.5604C125.494 29.6595 128.657 26.4968 132.558 26.4968C136.459 26.4968 139.622 29.6595 139.622 33.5604Z" fill="white" stroke="#564499"/>
<path d="M164.078 33.5604C164.078 37.4619 160.915 40.6241 157.014 40.6241C153.113 40.6241 149.95 37.4619 149.95 33.5604C149.95 29.6595 153.113 26.4968 157.014 26.4968C160.915 26.4968 164.078 29.6595 164.078 33.5604Z" fill="white" stroke="#564499"/>
<path d="M189.01 33.5604C189.01 37.4619 185.847 40.6241 181.946 40.6241C178.045 40.6241 174.883 37.4619 174.883 33.5604C174.883 29.6595 178.045 26.4968 181.946 26.4968C185.847 26.4968 189.01 29.6595 189.01 33.5604Z" fill="white" stroke="#564499"/>
<g opacity="0.2">
<path opacity="0.54" d="M327.286 350.671L324.211 395.069C322.804 397.749 321.047 400.23 318.985 402.445C318.76 402.365 318.535 402.279 318.316 402.178C317.904 402.039 317.498 401.873 317.112 401.712C310.881 398.979 306.147 393.887 304.767 388.115C303.52 383.06 304.644 377.599 302.237 372.849C299.3 366.997 291.314 363.327 290.335 356.726C289.415 350.548 294.978 344.884 294.079 338.828C293.009 331.982 284.638 327.922 283.071 321.235C282.092 317.079 282.969 312.308 282.6 308.028C282.193 303.241 281.39 298.496 280.198 293.843C292.592 292.944 305.205 299.775 309.222 309.558C312.501 317.582 310.528 326.927 315.641 334.223C318.434 338.176 323.082 341.134 325.489 345.269C326.231 346.559 326.773 347.955 327.094 349.409C327.094 349.511 327.094 349.612 327.131 349.692C327.131 349.858 327.174 349.976 327.195 350.099C327.249 350.468 327.286 350.671 327.286 350.671Z" fill="#564499"/>
<path opacity="0.54" d="M327.308 350.632C327.308 350.632 327.27 350.45 327.227 350.098C327.264 350.238 327.29 350.381 327.308 350.525C327.315 350.542 327.319 350.56 327.319 350.578C327.319 350.597 327.315 350.615 327.308 350.632Z" fill="#564499"/>
</g>
<path opacity="0.4" d="M368.255 333.308C366.65 339.074 357.862 342.578 356.803 348.488C355.867 353.73 361.654 358.619 360.697 363.942C359.675 369.649 351.357 372.805 348.303 377.849C345.816 381.947 346.976 386.659 345.693 391.019C344.206 395.972 339.274 400.396 332.769 402.739C332.363 402.883 331.978 403.022 331.566 403.145C331.341 403.21 331.095 403.29 330.87 403.349C328.731 401.578 326.243 398.46 324.227 395.095L327.286 350.671C329.672 348.649 332.4 346.798 334.299 344.551C336.358 342.128 337.316 339.48 337.926 336.704H337.99V336.399C338.883 332.018 338.963 327.429 341.023 323.273C345.201 314.816 358.311 308.921 371.213 309.697C369.996 313.691 369.163 317.793 368.726 321.946C368.357 325.621 369.266 329.74 368.255 333.308Z" fill="#564499"/>
<mask id="path-70-inside-1_410_618" fill="white">
<path d="M338.011 336.361V336.667H337.947L338.011 336.361Z"/>
</mask>
<path d="M338.011 336.361V336.667H337.947L338.011 336.361Z" fill="#3FBDF1"/>
<path d="M338.011 336.361H339.011L337.033 336.155L338.011 336.361ZM338.011 336.667V337.667H339.011V336.667H338.011ZM337.947 336.667L336.969 336.461L336.715 337.667H337.947V336.667ZM337.011 336.361V336.667H339.011V336.361H337.011ZM338.011 335.667H337.947V337.667H338.011V335.667ZM338.926 336.873L338.99 336.567L337.033 336.155L336.969 336.461L338.926 336.873Z" fill="#564499" mask="url(#path-70-inside-1_410_618)"/>
<path opacity="0.3" d="M338.011 336.361L337.947 336.666C337.337 339.443 336.38 342.09 334.32 344.513C332.421 346.76 329.693 348.611 327.308 350.633C327.317 350.605 327.317 350.575 327.308 350.547C327.291 350.403 327.264 350.26 327.228 350.119C327.228 349.996 327.185 349.879 327.163 349.713C327.163 349.633 327.163 349.531 327.126 349.429C326.805 347.975 326.264 346.579 325.521 345.289C323.114 341.154 318.466 338.196 315.673 334.243C315.673 334.243 316.936 313.408 327.597 307.07C337.706 301.079 338.011 332.895 338.011 336.361Z" fill="#564499"/>
<mask id="path-73-inside-2_410_618" fill="white">
<path d="M338.011 336.361V336.667H337.947L338.011 336.361Z"/>
</mask>
<path d="M338.011 336.361V336.667H337.947L338.011 336.361Z" fill="#3FBDF1"/>
<path d="M338.011 336.361H339.011L337.033 336.155L338.011 336.361ZM338.011 336.667V337.667H339.011V336.667H338.011ZM337.947 336.667L336.969 336.461L336.715 337.667H337.947V336.667ZM337.011 336.361V336.667H339.011V336.361H337.011ZM338.011 335.667H337.947V337.667H338.011V335.667ZM338.926 336.873L338.99 336.567L337.033 336.155L336.969 336.461L338.926 336.873Z" fill="#564499" mask="url(#path-73-inside-2_410_618)"/>
<mask id="path-75-inside-3_410_618" fill="white">
<path d="M327.286 350.546V350.669C327.286 350.669 327.249 350.488 327.206 350.135C327.242 350.27 327.269 350.408 327.286 350.546Z"/>
</mask>
<path d="M327.286 350.546V350.669C327.286 350.669 327.249 350.488 327.206 350.135C327.242 350.27 327.269 350.408 327.286 350.546Z" fill="#3FBDF1"/>
<path d="M327.286 350.546H328.286V350.483L328.278 350.421L327.286 350.546ZM327.286 350.669L326.307 350.871L328.286 350.669H327.286ZM327.206 350.135L328.173 349.879L326.213 350.256L327.206 350.135ZM326.286 350.546V350.669H328.286V350.546H326.286ZM327.286 350.669C328.266 350.468 328.266 350.468 328.266 350.468C328.266 350.468 328.266 350.468 328.266 350.468C328.266 350.468 328.266 350.468 328.266 350.468C328.266 350.468 328.266 350.468 328.266 350.469C328.266 350.469 328.266 350.469 328.266 350.469C328.266 350.47 328.266 350.47 328.266 350.47C328.266 350.47 328.266 350.47 328.266 350.469C328.265 350.466 328.264 350.461 328.263 350.453C328.26 350.437 328.255 350.41 328.249 350.372C328.237 350.297 328.219 350.177 328.199 350.015L326.213 350.256C326.236 350.446 326.259 350.593 326.275 350.697C326.284 350.748 326.291 350.788 326.296 350.818C326.299 350.832 326.301 350.844 326.303 350.853C326.304 350.857 326.305 350.861 326.305 350.864C326.306 350.866 326.306 350.867 326.306 350.868C326.306 350.869 326.306 350.869 326.307 350.87C326.307 350.87 326.307 350.87 326.307 350.87C326.307 350.87 326.307 350.871 326.307 350.871C326.307 350.871 326.307 350.871 326.307 350.871C326.307 350.871 326.307 350.871 327.286 350.669ZM326.239 350.391C326.264 350.483 326.282 350.577 326.294 350.672L328.278 350.421C328.255 350.238 328.22 350.057 328.173 349.879L326.239 350.391Z" fill="#564499" mask="url(#path-75-inside-3_410_618)"/>
<path d="M326.334 350.67C328.709 348.648 331.469 346.77 333.374 344.529C338.723 338.222 336.658 330.161 340.087 323.245C344.259 314.799 357.38 308.909 370.277 309.68C369.053 313.673 368.218 317.775 367.784 321.929C367.399 325.63 368.319 329.744 367.308 333.328C365.666 339.094 356.91 342.592 355.845 348.503C354.898 353.74 360.702 358.629 359.745 363.946C358.723 369.659 350.41 372.815 347.351 377.854C344.853 381.956 346.024 386.658 344.73 391.029C343.162 396.297 337.706 400.951 330.597 403.15C330.373 403.224 330.127 403.305 329.897 403.364C327.757 401.593 325.27 398.474 323.248 395.105" stroke="#564499" stroke-miterlimit="10"/>
<path d="M362.403 316.296C343.173 336.992 334.128 380.624 330.608 403.154C330.319 405.053 330.073 406.792 329.838 408.359" stroke="#564499" stroke-miterlimit="10"/>
<path d="M364.179 421.048L355.358 473.249C355.149 474.679 354.439 475.988 353.357 476.945C352.274 477.902 350.887 478.444 349.442 478.476H303.183C301.724 478.442 300.325 477.889 299.238 476.915C298.152 475.941 297.449 474.61 297.257 473.164L289.099 421.042L364.179 421.048Z" stroke="#564499" stroke-miterlimit="10"/>
<path d="M372.583 415.219C372.503 416.767 371.842 418.228 370.731 419.309C369.62 420.39 368.142 421.012 366.592 421.049H286.831C285.299 421.012 283.835 420.404 282.728 419.342C281.622 418.281 280.952 416.845 280.851 415.315C280.514 411.571 283.285 408.361 286.831 408.361H366.592C370.106 408.367 372.866 411.528 372.583 415.219Z" stroke="#564499" stroke-miterlimit="10"/>
<path d="M318.038 402.433C321.461 399.037 325.655 391.462 327.511 385.279C329.041 380.181 326.35 374.934 325.73 369.702C324.767 361.513 328.832 352.708 324.548 345.284C322.157 341.143 317.508 338.201 314.716 334.238C309.576 326.936 311.549 317.597 308.265 309.589C304.248 299.795 291.64 292.964 279.251 293.873C280.435 298.529 281.239 303.273 281.653 308.059C282.022 312.339 281.118 317.11 282.113 321.261C283.681 327.947 292.089 331.996 293.122 338.849C294.031 344.904 288.463 350.574 289.377 356.741C290.362 363.353 298.337 367.006 301.284 372.869C303.681 377.624 302.557 383.08 303.798 388.13C305.355 394.442 310.87 399.989 318.038 402.433Z" stroke="#564499" stroke-miterlimit="10"/>
<path d="M286.815 301.544C305.275 325.529 313.962 376.073 317.38 402.166C317.669 404.429 317.915 406.504 318.134 408.36" stroke="#564499" stroke-miterlimit="10"/>
<path d="M314.705 334.237C314.705 334.237 315.973 313.403 326.628 307.069C337.284 300.736 337.059 336.227 337.059 336.227" stroke="#564499" stroke-miterlimit="10"/>
<path d="M326.334 350.67C326.334 350.67 324.157 338.752 327.976 327.032" stroke="#564499" stroke-miterlimit="10"/>
<path d="M71.7227 133.213C71.9881 138.608 71.795 144.016 71.145 149.378C70.3106 155.679 64.4854 163.686 63.223 169.918C61.4204 178.883 64.1484 188.148 67.8928 196.471C72.4181 206.533 79.5485 216.653 78.8531 228.175C78.4968 233.193 77.0039 238.064 74.4866 242.42C71.9699 246.775 68.4946 250.502 64.325 253.316C58.6137 257.137 52.0894 259.573 45.2715 260.43C44.3193 260.542 43.3512 260.633 42.383 260.66C41.8481 260.66 41.3132 260.601 40.7782 260.558C22.6448 259.023 4.04601 245.191 4.08881 225.934C4.08881 213.631 13.439 204.003 15.017 192.063C15.9851 184.762 13.8456 177.177 15.8247 170.089C19.0342 158.771 31.4387 152.598 36.8734 142.178C40.8745 134.486 41.5271 125.51 44.6938 117.443C49.1014 106.21 56.1408 93.3726 65.7692 92.3027C68.563 92.6194 71.2638 93.5004 73.7073 94.8917C79.6769 98.1011 81.196 98.3044 82.4102 101.166C83.6512 104.156 81.8004 107.35 78.7087 108.307C73.4879 109.96 71.236 120.567 71.7227 133.213Z" fill="#2C0CAD"/>
<defs>
<linearGradient id="paint0_linear_410_618" x1="220.657" y1="93.5712" x2="220.657" y2="142.318" gradientUnits="userSpaceOnUse">
<stop stop-color="#EF3922"/>
<stop offset="1" stop-color="#564499"/>
</linearGradient>
<linearGradient id="paint1_linear_410_618" x1="237.906" y1="179.243" x2="237.906" y2="261.827" gradientUnits="userSpaceOnUse">
<stop stop-color="#EF3922"/>
<stop offset="1" stop-color="#564499"/>
</linearGradient>
</defs>
</svg>
