<svg width="421" height="479" viewBox="0 0 421 479" fill="none" xmlns="http://www.w3.org/2000/svg">
<path d="M150.322 430.532C149.299 430.551 148.299 430.843 147.426 431.378C150.007 420.697 155.985 395.057 159.25 377.938C154.22 379.752 141.637 382.292 131.543 377.938C129.688 384.163 125.526 402.814 126.596 416.777C128.795 445.493 141.64 455.261 141.64 455.261C141.64 455.261 148.076 450.619 148.972 449.982C151.129 448.455 152.903 446.449 154.155 444.122C155.407 441.794 156.103 439.208 156.188 436.566V436.294C156.19 435.27 155.918 434.265 155.401 433.381C154.885 432.497 154.142 431.767 153.249 431.267C152.356 430.766 151.346 430.512 150.322 430.532Z" fill="#BBB4D6"/>
<path d="M283.571 116.801C274.355 119.492 263.202 116.753 258.966 107.441C256.479 101.971 259.53 94.4571 265.351 91.1299C265.485 91.051 265.767 90.7927 265.828 90.3905C266.046 89.0209 266.349 86.4565 266.681 83.9185C264.547 82.8429 259.759 79.6509 257.486 73.5376C254.298 64.9652 256.046 54.8688 259.939 44.6276L261.38 41.0538H291.196L301.011 62.8697L296.904 75.8312C296.744 78.0182 296.39 83.5339 296.21 88.0994C296.066 91.763 298.679 93.3142 300.391 93.5101C300.866 93.5646 300.906 93.4847 300.917 93.9914C301.136 104.628 293.674 113.849 283.571 116.801Z" fill="white" stroke="#564499" stroke-miterlimit="10"/>
<path d="M191.351 94.2331C190.874 94.6734 190.586 95.2826 190.551 95.9309L190.346 138.888C190.345 139.664 190.645 140.411 191.182 140.972C191.72 141.532 192.453 141.862 193.229 141.894L248.011 142.318C248.473 142.32 248.932 142.231 249.36 142.055C249.789 141.88 250.178 141.621 250.506 141.294C250.834 140.968 251.094 140.58 251.272 140.152C251.45 139.725 251.541 139.267 251.541 138.804V97.5678C251.541 96.6413 251.175 95.7523 250.523 95.0938C249.871 94.4359 248.985 94.062 248.059 94.0534L193.108 93.572C192.458 93.5554 191.828 93.7929 191.351 94.2331Z" fill="url(#paint0_linear_410_618)"/>
<path d="M191.351 94.2331C190.874 94.6734 190.586 95.2826 190.551 95.9309L190.346 138.888C190.345 139.664 190.645 140.411 191.182 140.972C191.72 141.532 192.453 141.862 193.229 141.894L248.011 142.318C248.473 142.32 248.932 142.231 249.36 142.055C249.789 141.88 250.178 141.621 250.506 141.294C250.834 140.968 251.094 140.58 251.272 140.152C251.45 139.725 251.541 139.267 251.541 138.804V97.5678C251.541 96.6413 251.175 95.7523 250.523 95.0938C249.871 94.4359 248.985 94.062 248.059 94.0534L193.108 93.572C192.458 93.5554 191.828 93.7929 191.351 94.2331Z" stroke="#564499" stroke-miterlimit="10"/>
<path d="M187.512 90.9231C175.498 96.9943 171.321 109.961 168.967 122.306C168.381 125.91 168.256 129.184 167.897 132.243C167.897 132.243 170.887 137.6 176.797 140.029C183.372 142.731 189.606 141.926 191.769 141.551L191.522 138.47V136.048C200.284 138.293 203.159 138.677 207.732 137.801C212.304 136.924 216.055 133.776 216.384 130.846C216.647 128.502 214.157 127.149 212.879 126.766C215.918 125.726 220.19 123.207 219.177 118.607C218.366 114.927 215.097 114.372 213.564 114.554C214.203 114.144 215.809 112.9 217.123 111.214C218.766 109.105 218.543 107.291 218.082 105.683C217.397 103.41 214.741 101.165 208.991 104.834C204.391 107.769 194.737 107.572 190.485 107.107V95.9655C190.429 95.1816 190.821 93.6137 192.836 93.6137H201.474C201.5 93.4799 201.511 93.3435 201.506 93.2071C201.499 92.2753 201.27 91.3585 200.837 90.5326C200.127 89.2044 198.925 88.2063 197.488 87.7521C196.052 87.2985 194.495 87.4248 193.15 88.1041L187.512 90.9231Z" fill="white" stroke="#564499" stroke-miterlimit="10"/>
<path d="M302.496 268.503C320.1 227.594 326.492 155.386 326.492 155.386V238.335M300.544 93.5399H300.63H300.688H300.731C300.758 93.5399 300.801 93.5399 300.844 93.5399C300.863 93.5463 300.883 93.5463 300.902 93.5399C307.314 94.4846 313.671 95.6796 319.972 97.1238C329.525 99.3169 338.849 102.28 346.412 108.742C353.003 114.348 358.582 121.601 361.171 129.743C372.265 164.665 368.873 203.608 361.269 238.433M326.492 238.335V256.131C326.492 257.756 326.811 259.365 327.433 260.867C328.054 262.368 328.966 263.732 330.115 264.881C331.264 266.03 332.628 266.941 334.129 267.563C335.631 268.185 337.24 268.504 338.865 268.503H377.913C379.377 268.526 380.798 268.008 381.903 267.047C383.007 266.087 383.719 264.752 383.899 263.299C383.978 262.499 383.887 261.69 383.635 260.927C383.382 260.164 382.971 259.462 382.431 258.867C381.89 258.271 381.23 257.796 380.495 257.471C379.759 257.147 378.963 256.98 378.159 256.981H362.166C361.528 256.979 360.899 256.832 360.327 256.55C359.755 256.268 359.255 255.859 358.864 255.355C358.474 254.85 358.205 254.263 358.076 253.638C357.947 253.014 357.963 252.368 358.122 251.75C359.226 247.392 360.283 242.947 361.269 238.433M326.492 238.335L361.269 238.433" stroke="#564499" stroke-miterlimit="10"/>
<path d="M292.066 440.878H155.47" stroke="#564499" stroke-miterlimit="10"/>
<path d="M164.816 347C163.474 356.554 161.473 367.514 159.264 378.485L156.659 379.228C148.322 381.57 139.468 381.311 131.283 378.485L134.695 366.888L113.92 306.443C113.92 306.443 125.829 300.314 138.871 296.5L144.34 297.43C151.465 298.933 166.148 304.577 166.608 325.711C166.64 326.727 166.608 327.797 166.608 328.963C168.678 335.783 167.854 341.796 164.816 347Z" fill="white" stroke="#564499"/>
<path d="M115.915 116.916C115.71 116.394 115.309 115.974 114.798 115.745C114.287 115.516 113.707 115.496 113.181 115.691C112.887 115.779 112.615 115.931 112.384 116.135C111.561 116.803 111.373 117.975 111.347 119.087C111.272 121.628 111.127 124.174 110.94 126.704C110.94 126.876 110.913 127.068 110.913 127.239C110.796 129.277 110.881 131.749 110.015 133.524C109.959 133.66 109.864 133.775 109.742 133.856C109.453 133.99 109.148 133.701 108.961 133.439C108.426 132.658 107.891 131.893 107.356 131.096C106.934 130.459 106.458 129.769 105.719 129.566C104.623 129.261 103.58 130.229 102.975 131.214C101.023 134.423 100.836 139.681 103.858 142.372C106.88 145.062 100.113 150.353 95.2672 152.578C94.4558 153.034 93.6058 153.417 92.7264 153.723C92.6836 153.723 94.4756 154.124 94.4328 154.14C90.6616 155.453 86.7333 156.26 82.7503 156.542C78.0217 156.857 73.4108 156.263 70.0569 154.209C70.2014 153.674 71.3461 149.93 71.4156 149.395C71.6617 147.528 71.8382 145.678 71.9505 143.8C72.1538 140.275 72.1377 136.745 72.004 133.23C71.5172 120.585 73.7692 109.962 78.9899 108.341C79.4023 108.217 79.7976 108.043 80.1667 107.822C82.5203 106.522 83.7774 103.778 82.6968 101.189C82.622 101.013 82.5364 100.841 82.4615 100.654C82.377 100.47 82.2807 100.291 82.1726 100.119C92.368 96.9527 99.2897 99.1512 106.286 102.981C107.618 104.045 108.869 105.205 110.031 106.453C112.769 109.426 114.783 112.992 115.915 116.873V116.916Z" fill="#2C0CAD"/>
<path opacity="0.4" d="M360.994 238.494H326.225V155.39C326.225 155.39 319.806 227.598 302.218 268.508H194.536C207.229 260.441 217.408 248.256 224.186 235.14C226.86 229.951 231.14 222.249 238.254 224.271C239.944 224.747 242.431 225.052 243.689 223.506C244.122 222.913 244.368 222.203 244.395 221.468C245.004 213.893 237.152 207.517 230.68 205.506C224.207 203.495 216.644 204.436 211.492 209.138C207.78 212.535 205.453 217.044 202.736 221.222C201.105 223.697 199.172 225.96 196.98 227.956C199.772 211 202.26 194.792 202.618 188.828C209.428 183.452 214.429 174.685 216.205 166.928C218.157 158.455 219.88 150.17 222.913 142.237L247.738 142.323C248.673 142.323 249.569 141.951 250.23 141.29C250.892 140.629 251.263 139.733 251.263 138.798V97.5667C251.264 96.6402 250.899 95.7512 250.246 95.0933C249.593 94.4359 248.707 94.0636 247.781 94.0577L230.877 93.9133C237.02 92.6295 243.249 91.7982 249.514 91.426C249.642 91.426 249.76 91.426 249.872 91.426C253.996 91.1531 261.223 91.0355 265.384 90.9927C260.426 93.6672 257.361 99.348 257.896 104.365C257.99 105.434 258.263 106.479 258.703 107.457C262.94 116.765 274.098 119.514 283.309 116.807C293.558 113.817 301.09 104.392 300.64 93.5495C307.059 94.491 313.414 95.6854 319.704 97.1334C329.263 99.3319 338.587 102.295 346.145 108.757C352.735 114.368 358.32 121.595 360.903 129.763C371.997 164.687 368.585 203.661 360.994 238.494Z" fill="#564499"/>
<path d="M202.896 188.829C202.115 201.592 200.104 214.344 197.922 227.064" stroke="#564499" stroke-miterlimit="10"/>
<path d="M219.256 120.837C218.245 125.827 211.022 127.78 206.748 127.871C200.369 127.936 194.98 127.037 191.578 126.641" stroke="#564499" stroke-miterlimit="10"/>
<path d="M190.171 117.285C195.346 118.78 200.826 118.871 206.047 117.547C210.439 116.418 215.627 114.337 217.927 110.16" stroke="#564499" stroke-miterlimit="10"/>
<path opacity="0.4" d="M223.191 142.238C220.153 150.17 218.435 158.456 216.483 166.929C214.691 174.658 209.7 183.452 202.896 188.828C197.184 193.337 190.187 195.461 182.698 192.615C172.653 188.785 169.128 177.713 167.897 167.951C166.298 155.795 166.201 143.489 167.608 131.309C169.026 134.46 174.819 144.046 192.787 141.526C193.269 141.887 193.849 142.094 194.45 142.12L223.191 142.238Z" fill="#564499"/>
<path d="M168.393 167.888L168.393 167.885C166.855 156.192 166.711 144.358 167.964 132.634C168.974 134.035 170.768 136.406 173.645 138.397C177.448 141.029 183.148 143.025 191.553 141.597C191.83 141.759 192.131 141.848 192.415 141.903C192.765 141.969 193.123 141.987 193.423 142L193.432 142.001L193.441 142.001L222.715 142.181C219.969 149.539 218.109 157.627 216.316 165.426C216.209 165.891 216.102 166.354 215.996 166.816C214.226 174.45 209.29 183.139 202.587 188.436C196.973 192.867 190.159 194.915 182.876 192.148C173.12 188.428 169.622 177.638 168.393 167.888Z" stroke="#564499"/>
<path d="M337.704 258.271C340.609 258.181 343.516 258.254 346.413 258.49C348.777 258.682 351.227 258.795 353.479 259.677C355.335 260.416 357.271 262.175 357.175 264.326C356.998 268.541 351.478 268.509 348.451 268.509" stroke="#564499" stroke-miterlimit="10"/>
<path d="M285.754 254.253L310.927 189.759C311.239 188.509 311.26 187.204 310.992 185.944C310.723 184.684 310.171 183.503 309.376 182.488C308.582 181.474 307.567 180.655 306.408 180.092C305.249 179.53 303.977 179.239 302.689 179.243H202.725C200.484 179.247 198.311 180.006 196.553 181.395C194.796 182.784 193.556 184.724 193.033 186.902L165.442 251.38C165.143 252.625 165.13 253.921 165.403 255.172C165.678 256.423 166.232 257.595 167.024 258.6C167.816 259.606 168.827 260.419 169.979 260.978C171.13 261.536 172.394 261.827 173.674 261.827H276.056C278.285 261.826 280.45 261.08 282.207 259.707C283.965 258.335 285.213 256.416 285.754 254.253Z" fill="url(#paint1_linear_410_618)"/>
<path d="M285.288 254.071L285.277 254.101L285.269 254.132C284.755 256.186 283.569 258.01 281.9 259.313L281.9 259.313C280.23 260.617 278.174 261.326 276.056 261.327H173.675C173.674 261.327 173.674 261.327 173.674 261.327C172.47 261.327 171.28 261.053 170.197 260.528C169.113 260.002 168.162 259.237 167.417 258.291L167.417 258.291C166.672 257.345 166.15 256.242 165.892 255.065C165.637 253.902 165.647 252.697 165.919 251.538L193.492 187.099L193.509 187.06L193.519 187.019C194.016 184.95 195.194 183.107 196.863 181.787C198.533 180.468 200.597 179.747 202.726 179.743L302.689 179.743L302.691 179.743C303.902 179.739 305.099 180.013 306.19 180.542C307.28 181.071 308.235 181.842 308.983 182.797C309.73 183.751 310.25 184.863 310.503 186.049L310.992 185.944L310.503 186.049C310.753 187.224 310.735 188.441 310.449 189.607L285.288 254.071Z" stroke="#564499"/>
<path d="M212.124 193.408C213.348 191.573 215.333 190.733 216.595 191.583C217.858 192.434 217.858 194.574 216.638 196.398C216.446 196.678 216.231 196.943 215.996 197.189L225.058 216.323C226.502 215.36 228.091 215.119 229.235 215.879C229.602 216.147 229.906 216.491 230.126 216.888C230.346 217.286 230.476 217.726 230.508 218.179L236.703 216.093L242.116 214.269L243.881 213.691C244.105 213.026 244.414 212.394 244.801 211.808C246.518 209.225 249.326 208.064 251.076 209.241C252.825 210.418 252.846 213.386 251.177 215.949L261.501 230.043C263.753 228.198 266.401 227.626 268.236 228.845C270.734 230.509 270.771 234.847 268.321 238.527C268.219 238.677 268.107 238.795 268.005 238.934L274.874 248.327L274.938 248.418C275.289 248.948 275.415 249.595 275.289 250.218C275.163 250.841 274.794 251.389 274.264 251.739C273.734 252.091 273.087 252.217 272.463 252.09C271.84 251.964 271.293 251.596 270.942 251.065L264.844 241.86C262.913 242.978 260.859 243.192 259.356 242.191C256.97 240.587 256.853 236.585 258.982 233.018L249.102 218.104C247.641 219.094 246.031 219.345 244.876 218.58C244.234 218.125 243.796 217.435 243.656 216.66L242.918 216.863L237.414 218.366L230.364 220.271C230.144 221.115 229.782 221.917 229.294 222.64C227.577 225.219 224.769 226.385 223.02 225.208C221.27 224.031 221.244 221.009 222.961 218.425C223.213 218.046 223.495 217.688 223.806 217.355L215.178 197.863C214.14 198.575 212.99 198.757 212.166 198.206C210.925 197.382 210.904 195.221 212.124 193.408Z" fill="white"/>
<path d="M277.762 194.433H291.135C291.746 194.432 292.344 194.254 292.856 193.919C293.368 193.585 293.772 193.11 294.018 192.55C294.091 192.381 294.132 192.2 294.136 192.015C294.134 191.65 293.988 191.3 293.73 191.043C293.471 190.785 293.121 190.64 292.756 190.64H278.543C279.212 191.758 278.875 193.326 277.762 194.433Z" fill="white"/>
<path d="M269.118 193.064C269.12 193.427 269.265 193.776 269.522 194.032C269.78 194.289 270.129 194.433 270.493 194.433H277.762C278.875 193.326 279.212 191.759 278.543 190.63H272.124C271.513 190.63 270.916 190.807 270.404 191.141C269.892 191.474 269.488 191.949 269.241 192.508C269.162 192.683 269.12 192.872 269.118 193.064Z" fill="#EF3922"/>
<path d="M272.461 194.435C272.5 194.508 272.545 194.577 272.595 194.643C273.547 195.948 275.617 196.071 277.222 194.9C277.412 194.759 277.591 194.604 277.757 194.435C278.869 193.327 279.206 191.76 278.538 190.631C278.503 190.558 278.46 190.487 278.409 190.423C277.463 189.112 275.393 189 273.788 190.161C273.598 190.304 273.419 190.461 273.253 190.631C272.14 191.744 271.803 193.301 272.461 194.435Z" fill="white"/>
<path d="M265.78 201.457C265.783 201.822 265.929 202.17 266.188 202.426C266.447 202.683 266.796 202.827 267.16 202.827H281.191C280.512 201.693 280.849 200.152 281.961 199.023H268.765C268.153 199.024 267.554 199.202 267.042 199.536C266.529 199.871 266.124 200.346 265.877 200.906C265.809 201.082 265.777 201.269 265.78 201.457Z" fill="#EF3922"/>
<path d="M281.17 202.826H287.77C288.381 202.826 288.978 202.65 289.489 202.317C290.001 201.985 290.405 201.511 290.654 200.954C290.729 200.785 290.771 200.604 290.777 200.419C290.777 200.238 290.742 200.059 290.673 199.892C290.604 199.725 290.503 199.573 290.375 199.445C290.248 199.318 290.096 199.217 289.929 199.148C289.762 199.079 289.583 199.044 289.402 199.044H281.94C280.827 200.136 280.49 201.692 281.17 202.826Z" fill="white"/>
<path d="M281.17 202.827C281.201 202.9 281.24 202.971 281.287 203.035C282.234 204.346 284.304 204.463 285.909 203.297C286.099 203.154 286.278 202.996 286.444 202.827C287.546 201.714 287.883 200.152 287.225 199.023C287.186 198.951 287.143 198.882 287.096 198.815C286.139 197.51 284.069 197.392 282.464 198.563C282.274 198.703 282.095 198.856 281.929 199.023C280.827 200.136 280.49 201.693 281.17 202.827Z" fill="white"/>
<path d="M276.478 211.161H284.877C285.488 211.16 286.086 210.982 286.598 210.649C287.111 210.316 287.516 209.842 287.765 209.283C287.838 209.114 287.878 208.932 287.883 208.748C287.883 208.382 287.737 208.03 287.479 207.77C287.22 207.511 286.869 207.364 286.503 207.363H277.275C277.939 208.491 277.596 210.048 276.478 211.161Z" fill="#EF3922"/>
<path d="M262.881 209.797C262.882 209.977 262.918 210.154 262.988 210.32C263.057 210.486 263.158 210.637 263.286 210.764C263.414 210.89 263.565 210.99 263.732 211.058C263.898 211.127 264.076 211.162 264.256 211.161H276.478C277.58 210.048 277.923 208.486 277.259 207.352H265.887C265.275 207.352 264.676 207.53 264.163 207.866C263.651 208.201 263.248 208.679 263.004 209.24C262.925 209.415 262.883 209.605 262.881 209.797Z" fill="white"/>
<path d="M271.194 211.161C271.233 211.234 271.277 211.303 271.327 211.369C272.274 212.68 274.339 212.792 275.949 211.626C276.139 211.485 276.318 211.33 276.484 211.161C277.586 210.048 277.928 208.486 277.265 207.352C277.23 207.278 277.187 207.208 277.136 207.143C276.179 205.844 274.114 205.731 272.504 206.892C272.315 207.033 272.137 207.186 271.969 207.352C270.867 208.465 270.525 210.032 271.194 211.161Z" fill="white"/>
<path d="M222.19 250.465H230.594C231.204 250.463 231.802 250.285 232.313 249.953C232.825 249.619 233.229 249.145 233.477 248.587C233.55 248.418 233.59 248.236 233.595 248.052C233.595 247.686 233.449 247.335 233.19 247.076C232.931 246.817 232.581 246.672 232.215 246.672H222.988C223.635 247.795 223.292 249.352 222.19 250.465Z" fill="#EF3922"/>
<path d="M188.844 249.101C188.845 249.281 188.881 249.458 188.951 249.625C189.02 249.791 189.121 249.941 189.249 250.068C189.376 250.195 189.528 250.295 189.694 250.363C189.861 250.431 190.039 250.466 190.219 250.465H222.191C223.292 249.353 223.635 247.791 222.971 246.662H191.85C191.239 246.661 190.64 246.839 190.128 247.173C189.616 247.508 189.213 247.984 188.967 248.545C188.891 248.72 188.849 248.909 188.844 249.101Z" fill="white"/>
<path d="M216.89 250.466C216.929 250.538 216.973 250.609 217.023 250.674C217.97 251.985 220.035 252.097 221.645 250.936C221.834 250.792 222.012 250.635 222.18 250.466C223.282 249.353 223.624 247.791 222.961 246.663C222.926 246.588 222.883 246.518 222.832 246.454C221.875 245.149 219.81 245.036 218.2 246.197C218.01 246.338 217.831 246.493 217.665 246.663C216.569 247.77 216.221 249.337 216.89 250.466Z" fill="white"/>
<path d="M10.7249 271.066C10.7249 271.066 -6.92714 350.805 38.4813 367.462C83.8897 384.119 206.55 368.473 155.573 310.938C104.596 253.403 10.7249 271.066 10.7249 271.066Z" fill="white" stroke="#564499"/>
<path d="M231.054 93.9138C237.226 92.6263 243.483 91.7919 249.776 91.4158C249.91 91.4158 250.022 91.4158 250.14 91.4158C254.274 91.143 261.517 91.0253 265.652 90.9825" stroke="#564499" stroke-miterlimit="10"/>
<path d="M200.462 107.111C200.419 107.138 200.393 107.169 200.35 107.196" stroke="#564499" stroke-miterlimit="10"/>
<path d="M270.835 73.5867C267.679 75.2449 264.053 74.1216 262.662 71.2972" stroke="#564499" stroke-miterlimit="10"/>
<path d="M252.514 33.2813C252.372 35.7354 253.002 38.1725 254.315 40.2501C255.629 42.3282 257.56 43.9425 259.837 44.8674C260.319 43.9832 261.009 43.2306 261.849 42.6743C265.395 40.3795 264.764 46.5096 274.392 44.8941C287.738 42.6422 291.14 47.2905 291.14 47.2905C291.434 47.6971 290.605 50.3502 290.488 50.837C289.953 53.6881 289.418 56.5231 288.931 59.3955C288.617 61.1356 288.3 62.865 287.979 64.5842C288.222 64.3488 288.479 64.1289 288.749 63.9262C290.942 60.5028 294.157 56.6621 297.661 59.7967C298.364 60.4493 298.903 61.2597 299.233 62.161C300.838 66.5205 297.768 69.3235 294.179 71.0031C293.232 71.576 292.226 72.044 291.178 72.3992C291.354 73.5011 292.087 77.8927 292.087 77.9034C292.162 78.3527 301.074 72.8592 301.817 72.1906C303.161 70.4141 304.196 68.4253 304.882 66.3066C307.653 57.5662 307.182 46.2689 301.603 39.0797C300.218 37.2984 301.143 36.2714 301.544 34.5383C301.564 34.4447 301.554 34.3479 301.518 34.2601C301.482 34.1719 301.42 34.097 301.34 34.0446C301.261 33.9922 301.167 33.9649 301.072 33.9659C300.977 33.9676 300.884 33.997 300.806 34.0515C297.8 35.9398 292.36 34.0087 292.36 34.0087C274.708 23.4067 265.663 29.9648 261.335 30.2965C259.58 30.4168 257.838 29.921 256.409 28.895C256.157 29.3914 255.775 29.8097 255.305 30.1055C254.833 30.4013 254.29 30.5634 253.734 30.5746L253.563 31.4947C253.432 32.1938 253.061 32.8255 252.514 33.2813Z" fill="#2C0CAD"/>
<path d="M259.848 44.8888C257.57 43.9645 255.639 42.3501 254.326 40.272C253.013 38.1939 252.383 35.7568 252.525 33.3027C252.578 32.3602 252.713 31.4241 252.932 30.5051L253.087 30.5372C253.298 30.5848 253.514 30.6008 253.729 30.5853C254.285 30.5746 254.828 30.4125 255.299 30.1167C255.771 29.8209 256.152 29.4021 256.403 28.9057C256.551 28.6297 256.654 28.3317 256.708 28.0231L257.532 23.546C257.532 23.546 260.207 27.1672 264.486 26.8303C268.765 26.4933 277.81 19.9354 295.511 30.5425C295.511 30.5425 299.758 32.1098 302.764 30.2216C302.842 30.1676 302.935 30.1376 303.03 30.1365C303.125 30.1355 303.219 30.1627 303.298 30.2152C303.377 30.2676 303.439 30.3425 303.476 30.4302C303.512 30.5185 303.521 30.6153 303.502 30.7083C303.101 32.4361 303.368 33.8322 304.754 35.6135C310.333 42.8027 310.804 54.0999 308.033 62.8404C306.82 66.4628 304.665 69.6968 301.79 72.212C301.047 72.8806 292.135 78.3741 292.06 77.9248C292.06 77.9248 291.328 73.5225 291.151 72.4206L291.108 72.1692L291.36 72.0943C292.313 71.7996 293.246 71.4422 294.152 71.0245C297.741 69.3449 300.828 66.5419 299.207 62.1824C298.877 61.2816 298.338 60.4712 297.634 59.8181C294.13 56.6835 290.916 60.5242 288.723 63.9476C288.298 64.5975 287.951 65.294 287.685 66.0231C287.77 65.5523 287.856 65.0923 287.947 64.6216C288.268 62.8992 288.585 61.1698 288.899 59.433C289.434 56.5766 289.931 53.7415 290.456 50.8744C290.552 50.3877 291.402 47.7345 291.108 47.328C291.108 47.328 287.706 42.6796 274.36 44.9316C264.732 46.5363 265.363 40.417 261.817 42.7117C260.977 43.268 260.287 44.0212 259.805 44.9048C259.656 45.1932 259.524 45.4895 259.41 45.7928C259.39 45.8308 259.374 45.8704 259.361 45.9105C259.121 46.5738 258.901 47.2424 258.687 47.895C256.687 54.2551 255.366 61.1233 256.072 67.8043C256.933 75.9028 262.833 85.4242 272.221 84.6165C275.174 84.2704 278.055 83.4617 280.758 82.2201" stroke="#564499" stroke-miterlimit="10"/>
<path d="M260.872 62.1492C261.791 62.123 262.51 61.2018 262.479 60.0914C262.447 58.9809 261.678 58.102 260.759 58.1283C259.841 58.1539 259.121 59.075 259.153 60.1855C259.184 61.296 259.954 62.1748 260.872 62.1492Z" fill="#564499"/>
<path d="M273.442 65.5277C274.361 65.5015 275.08 64.5804 275.049 63.4705C275.017 62.36 274.247 61.4806 273.329 61.5068C272.41 61.533 271.692 62.4541 271.723 63.5641C271.754 64.6745 272.524 65.5539 273.442 65.5277Z" fill="#564499"/>
<path d="M268.016 66.2685C268.016 66.2685 263.154 67.3383 263.646 64.8457C263.796 64.0647 265.015 56.3941 265.015 56.3941C265.015 56.3941 262.747 51.826 256.815 52.8904" stroke="#564499" stroke-miterlimit="10"/>
<path d="M270.199 55.7116C270.199 55.7116 277.907 54.401 280.859 60.5579" stroke="#564499" stroke-miterlimit="10"/>
<path d="M296.869 75.3632L296.163 88.1421C296.096 89.3912 296.488 90.6214 297.265 91.6009C298.043 92.5803 299.152 93.2414 300.384 93.4591H300.544C300.572 93.4516 300.602 93.4516 300.63 93.4591H300.656H300.731" stroke="#564499" stroke-miterlimit="10"/>
<path d="M300.844 93.5179H300.731H300.688H300.656H300.63H300.544H300.384C299.152 93.3002 298.043 92.639 297.265 91.6596C296.488 90.6796 296.096 89.4493 296.163 88.2009L296.869 75.4219" stroke="#564499" stroke-miterlimit="10"/>
<path d="M266.748 83.8206C266.508 83.7244 266.6 90.5904 263.834 96.9041" stroke="#564499" stroke-miterlimit="10"/>
<path d="M152.411 268.507L124.126 268.507" stroke="#564499" stroke-miterlimit="10"/>
<path d="M420.685 268.507H194.536" stroke="#564499" stroke-miterlimit="10"/>
<path d="M77.2568 96.6321C92.9296 92.0908 102.89 98.7718 110.015 106.474C117.14 114.177 116.808 122.923 116.808 122.923" stroke="#564499" stroke-miterlimit="10"/>
<path d="M67.8211 159.263C68.0351 162.574 66.0679 175.306 66.0679 175.306C77.9921 172.59 90.3766 173.925 98.8321 175.358C98.8321 175.358 97.6555 172.416 97.7707 170.336C97.7707 166.634 97.6584 162.414 101.157 161.199C104.772 159.912 107.949 157.627 110.32 154.609C114.481 149.378 115.813 142.494 116.551 136.005C117.33 129.81 117.169 123.533 116.075 117.385C116.035 117.063 115.922 116.753 115.745 116.481C115.568 116.208 115.33 115.98 115.051 115.812C114.772 115.646 114.459 115.544 114.135 115.517C113.811 115.489 113.485 115.535 113.181 115.652C111.678 116.144 111.389 117.647 111.347 119.049C111.272 121.589 111.127 124.136 110.94 126.666C110.78 128.789 110.956 131.566 110.015 133.502C109.959 133.638 109.864 133.753 109.742 133.834C109.453 133.951 109.148 133.678 108.961 133.416C108.426 132.635 107.891 131.87 107.356 131.073C106.934 130.437 106.458 129.747 105.719 129.544C104.623 129.239 103.569 130.207 102.975 131.191C101.023 134.401 100.809 139.632 103.858 142.349C106.907 145.067 100.114 150.33 95.2673 152.555C94.2633 153.085 93.2207 153.54 92.1488 153.914C84.5156 156.573 76.2887 158.006 70.0731 154.187L67.8211 159.263Z" fill="white" stroke="#564499" stroke-miterlimit="10"/>
<path d="M125.869 247.282C125.633 259.527 124.082 271.711 121.242 283.624" stroke="#564499" stroke-miterlimit="10"/>
<path d="M164.816 347C159.077 356.874 145.463 363.887 128.806 368.252C99.2469 375.997 60.113 375.393 38.4919 367.455C-6.94334 350.803 10.7194 271.064 10.7194 271.064C10.7194 271.064 89.303 256.274 141.703 297.809C146.708 301.766 151.355 306.157 155.589 310.931C161.382 317.483 164.939 323.48 166.619 328.957C168.678 335.783 167.854 341.795 164.816 347Z" stroke="#564499" stroke-miterlimit="10"/>
<path d="M134.695 366.906C134.695 366.906 107.164 443.328 153.417 462.847C199.671 482.366 -16.438 484.966 31.2653 462.847C78.9685 440.729 51.5491 371.576 51.5491 371.576" stroke="#564499" stroke-miterlimit="10"/>
<path d="M244.331 221.467C244.305 222.203 244.057 222.914 243.619 223.505C242.362 225.051 239.875 224.746 238.185 224.27C231.076 222.248 226.807 229.951 224.122 235.139C217.339 248.255 207.165 260.441 194.472 268.507C193.648 269.042 192.808 269.545 191.958 270.037C179.553 277.194 163.752 276.106 151.754 268.676L167.229 231.065L168.342 231.962C177.606 239.274 189.01 235.172 196.906 227.956C199.097 225.959 201.031 223.697 202.661 221.221C205.379 217.043 207.706 212.534 211.423 209.137C216.569 204.436 224.1 203.516 230.605 205.505C237.109 207.495 244.919 213.893 244.331 221.467Z" fill="white" stroke="#564499"/>
<path opacity="0.4" d="M142.553 204.944C137.712 199.234 132.513 193.836 126.987 188.785C121.386 184.48 110.383 173.477 78.8086 173.836C47.2342 174.195 25.1081 200.268 21.8789 213.065C19.2956 223.303 20.4039 254.965 21.2809 269.516C37.7459 266.686 80.77 265.737 121.147 284.586C122.17 280.482 124.578 267.297 126.03 247.393L146.624 264.876C148.308 266.315 149.881 267.44 151.794 268.584C154.062 263.493 167.221 231.005 167.221 231.005C167.221 231.005 156.934 221.819 142.553 204.944Z" fill="#564499"/>
<path d="M117.204 239.901L126.03 247.393M126.03 247.393L146.624 264.876C148.308 266.315 149.881 267.44 151.794 268.584C154.062 263.493 167.221 231.005 167.221 231.005C167.221 231.005 156.934 221.819 142.553 204.944C137.712 199.234 132.513 193.836 126.987 188.785C121.386 184.48 110.383 173.477 78.8086 173.836C47.2342 174.195 25.1081 200.268 21.8789 213.065C19.2956 223.303 20.4039 254.965 21.2809 269.516C37.7459 266.686 80.77 265.737 121.147 284.586C122.17 280.482 124.578 267.297 126.03 247.393Z" stroke="#564499" stroke-miterlimit="10"/>
<path d="M244.266 218.799C244.266 218.799 242.522 209.566 226.801 216.772" stroke="#564499" stroke-miterlimit="10"/>
<path d="M235.52 207.717C235.52 207.717 225.721 204.582 220.265 212.071" stroke="#564499" stroke-miterlimit="10"/>
<path d="M37.7056 260.577C40.3219 260.81 42.9557 260.766 45.5634 260.448C52.3798 259.579 58.9003 257.139 64.6115 253.317C68.7812 250.503 72.2559 246.777 74.7732 242.422C77.29 238.066 78.7834 233.195 79.1397 228.177C79.8351 216.65 72.7208 206.529 68.1794 196.468C64.435 188.139 61.707 178.875 63.515 169.92C64.772 163.683 70.5865 155.68 71.4263 149.374C72.0794 144.012 72.2763 138.604 72.0147 133.209C71.5279 120.558 73.7745 109.941 78.9953 108.325C82.087 107.368 83.9432 104.169 82.6968 101.184C81.504 98.3171 79.9688 98.146 73.9939 94.8991C58.4173 86.4261 47.5854 102.222 41.6051 117.451C38.4331 125.523 37.7912 134.488 33.7847 142.18C28.35 152.605 15.9187 158.762 12.7413 170.102C10.7568 177.184 12.8965 184.775 11.9336 192.065C10.361 203.999 1.02682 213.622 1.00007 225.936C0.957281 245.187 19.5775 259.031 37.7056 260.577Z" stroke="#564499" stroke-miterlimit="10"/>
<path d="M164.816 347.001C163.474 356.555 161.473 367.515 159.269 378.486C153.021 409.58 145.073 440.862 145.073 440.862" stroke="#564499" stroke-miterlimit="10"/>
<path d="M166.597 328.958C166.624 327.792 166.64 326.722 166.597 325.705C166.121 303.774 150.352 298.532 143.57 297.275C142.557 297.077 141.534 296.947 140.504 296.885" stroke="#564499" stroke-miterlimit="10"/>
<path d="M147.426 431.378C148.299 430.843 149.299 430.551 150.322 430.532C151.346 430.512 152.356 430.766 153.249 431.267C154.141 431.767 154.884 432.497 155.401 433.381C155.918 434.265 156.19 435.27 156.188 436.294C156.188 436.369 156.188 436.46 156.188 436.566C156.102 439.208 155.407 441.794 154.155 444.122C152.903 446.449 151.129 448.455 148.972 449.982L141.537 455.272" stroke="#564499" stroke-miterlimit="10"/>
<path d="M191.578 135.969C191.578 135.969 191.685 154.156 196.023 161.158" stroke="#564499" stroke-miterlimit="10"/>
<path opacity="0.4" d="M202.81 70.4571L202.81 70.4574C202.612 70.8833 202.299 71.2444 201.905 71.4996L201.904 71.4998C201.511 71.7548 201.053 71.8934 200.584 71.8997C200.114 71.9055 199.653 71.7789 199.252 71.5343L199.252 71.5342L199.241 71.5277C194.43 68.7586 191.197 67.019 188.318 65.9447C185.421 64.8634 182.895 64.4606 179.502 64.3339C177.338 64.2531 174.801 64.2846 171.578 64.3246C169.785 64.3469 167.78 64.3718 165.508 64.3814C159.148 64.4084 150.658 64.3169 138.794 63.7185C130.419 61.7438 120.04 57.6836 112.926 51.1936C110.61 47.7313 109.373 43.6586 109.375 39.4923V39.4921C109.375 30.7555 115.346 22.7567 125.187 16.9148C135.017 11.0793 148.629 7.45337 163.687 7.45337C182.986 7.45337 199.879 13.4048 209.512 22.3008L209.515 22.3055L209.585 22.3903L209.796 22.6499C209.928 22.8112 210.065 22.9798 210.111 23.0363C212.473 26.4386 213.184 29.7501 213.234 33.9584C213.233 37.0762 212.075 40.3477 210.5 43.5387C209.362 45.8448 208.028 48.0695 206.784 50.1445C206.308 50.9374 205.846 51.7083 205.413 52.4537C202.046 57.144 201.159 59.7003 201.327 61.9675C201.405 63.0227 201.712 63.9897 202.037 65.0156C202.055 65.0709 202.072 65.1264 202.09 65.182C202.437 66.2802 202.81 67.4989 203.021 69.0934C203.081 69.5589 203.008 70.0313 202.81 70.4571Z" fill="#564499" stroke="#564499"/>
<path d="M213.648 33.967V34.4217C213.536 40.7176 210.385 46.5695 206.646 51.6351C204.143 55.0264 201.174 58.7868 201.88 62.9431C202.19 64.7725 203.212 66.436 203.485 68.2922C203.758 70.1483 202.763 72.4217 200.906 72.5179C199.73 72.5768 198.724 71.737 197.793 71.0148C192.268 66.7356 185.089 65.1309 178.109 64.8527C171.128 64.5745 164.158 65.4892 157.172 65.6872C147.105 65.976 136.878 64.719 127.576 60.873C119.215 57.3854 111.593 51.7153 106.575 44.1678C101.649 36.7272 104.564 25.9326 109.817 19.4655C114.749 13.3996 121.884 9.51621 129.207 6.78282C148.897 -0.572184 171.374 -0.395665 190.797 7.65472C196.563 10.019 202.126 13.1429 206.459 17.6468C210.685 22.0384 213.611 27.8905 213.648 33.967Z" stroke="#564499" stroke-miterlimit="10"/>
<path d="M139.908 33.5604C139.908 37.4619 136.746 40.6241 132.845 40.6241C128.944 40.6241 125.781 37.4619 125.781 33.5604C125.781 29.6595 128.944 26.4968 132.845 26.4968C136.746 26.4968 139.908 29.6595 139.908 33.5604Z" fill="white" stroke="#564499"/>
<path d="M164.364 33.5604C164.364 37.4619 161.202 40.6241 157.301 40.6241C153.4 40.6241 150.237 37.4619 150.237 33.5604C150.237 29.6595 153.4 26.4968 157.301 26.4968C161.202 26.4968 164.364 29.6595 164.364 33.5604Z" fill="white" stroke="#564499"/>
<path d="M189.296 33.5604C189.296 37.4619 186.134 40.6241 182.233 40.6241C178.332 40.6241 175.169 37.4619 175.169 33.5604C175.169 29.6595 178.332 26.4968 182.233 26.4968C186.134 26.4968 189.296 29.6595 189.296 33.5604Z" fill="white" stroke="#564499"/>
<g opacity="0.2">
<path opacity="0.54" d="M327.573 350.671L324.497 395.069C323.091 397.749 321.333 400.23 319.271 402.445C319.047 402.365 318.822 402.279 318.603 402.178C318.191 402.039 317.784 401.873 317.399 401.712C311.167 398.979 306.433 393.887 305.053 388.115C303.807 383.06 304.93 377.599 302.523 372.849C299.587 366.997 291.6 363.327 290.621 356.726C289.701 350.548 295.264 344.884 294.366 338.828C293.296 331.982 284.925 327.922 283.357 321.235C282.378 317.079 283.256 312.308 282.887 308.028C282.48 303.241 281.676 298.496 280.485 293.843C292.879 292.944 305.492 299.775 309.509 309.558C312.788 317.582 310.814 326.927 315.928 334.223C318.72 338.176 323.369 341.134 325.776 345.269C326.518 346.559 327.059 347.955 327.38 349.409C327.38 349.511 327.38 349.612 327.418 349.692C327.418 349.858 327.461 349.976 327.482 350.099C327.536 350.468 327.573 350.671 327.573 350.671Z" fill="#564499"/>
<path opacity="0.54" d="M327.594 350.632C327.594 350.632 327.557 350.45 327.514 350.098C327.55 350.238 327.577 350.381 327.594 350.525C327.602 350.542 327.606 350.56 327.606 350.578C327.606 350.597 327.602 350.615 327.594 350.632Z" fill="#564499"/>
</g>
<path opacity="0.4" d="M368.542 333.308C366.937 339.074 358.148 342.578 357.089 348.488C356.153 353.73 361.941 358.619 360.983 363.942C359.962 369.649 351.644 372.805 348.59 377.849C346.102 381.947 347.263 386.659 345.979 391.019C344.492 395.972 339.56 400.396 333.056 402.739C332.649 402.883 332.264 403.022 331.852 403.145C331.628 403.21 331.382 403.29 331.157 403.349C329.017 401.578 326.53 398.46 324.513 395.095L327.573 350.671C329.959 348.649 332.687 346.798 334.586 344.551C336.645 342.128 337.603 339.48 338.212 336.704H338.277V336.399C339.17 332.018 339.25 327.429 341.31 323.273C345.487 314.816 358.598 308.921 371.5 309.697C370.282 313.691 369.449 317.793 369.012 321.946C368.643 325.621 369.553 329.74 368.542 333.308Z" fill="#564499"/>
<mask id="path-70-inside-1_410_618" fill="white">
<path d="M338.298 336.361V336.667H338.234L338.298 336.361Z"/>
</mask>
<path d="M338.298 336.361V336.667H338.234L338.298 336.361Z" fill="#3FBDF1"/>
<path d="M338.298 336.361H339.298L337.319 336.155L338.298 336.361ZM338.298 336.667V337.667H339.298V336.667H338.298ZM338.234 336.667L337.255 336.461L337.001 337.667H338.234V336.667ZM337.298 336.361V336.667H339.298V336.361H337.298ZM338.298 335.667H338.234V337.667H338.298V335.667ZM339.212 336.873L339.277 336.567L337.319 336.155L337.255 336.461L339.212 336.873Z" fill="#564499" mask="url(#path-70-inside-1_410_618)"/>
<path opacity="0.3" d="M338.298 336.361L338.234 336.666C337.624 339.443 336.666 342.09 334.607 344.513C332.708 346.76 329.98 348.611 327.594 350.633C327.604 350.605 327.604 350.575 327.594 350.547C327.578 350.403 327.551 350.26 327.514 350.119C327.514 349.996 327.471 349.879 327.45 349.713C327.45 349.633 327.45 349.531 327.413 349.429C327.092 347.975 326.55 346.579 325.808 345.289C323.401 341.154 318.752 338.196 315.96 334.243C315.96 334.243 317.222 313.408 327.883 307.07C337.993 301.079 338.298 332.895 338.298 336.361Z" fill="#564499"/>
<mask id="path-73-inside-2_410_618" fill="white">
<path d="M338.298 336.361V336.667H338.234L338.298 336.361Z"/>
</mask>
<path d="M338.298 336.361V336.667H338.234L338.298 336.361Z" fill="#3FBDF1"/>
<path d="M338.298 336.361H339.298L337.319 336.155L338.298 336.361ZM338.298 336.667V337.667H339.298V336.667H338.298ZM338.234 336.667L337.255 336.461L337.001 337.667H338.234V336.667ZM337.298 336.361V336.667H339.298V336.361H337.298ZM338.298 335.667H338.234V337.667H338.298V335.667ZM339.212 336.873L339.277 336.567L337.319 336.155L337.255 336.461L339.212 336.873Z" fill="#564499" mask="url(#path-73-inside-2_410_618)"/>
<mask id="path-75-inside-3_410_618" fill="white">
<path d="M327.573 350.546V350.669C327.573 350.669 327.535 350.488 327.493 350.135C327.529 350.27 327.555 350.408 327.573 350.546Z"/>
</mask>
<path d="M327.573 350.546V350.669C327.573 350.669 327.535 350.488 327.493 350.135C327.529 350.27 327.555 350.408 327.573 350.546Z" fill="#3FBDF1"/>
<path d="M327.573 350.546H328.573V350.483L328.565 350.421L327.573 350.546ZM327.573 350.669L326.593 350.871L328.573 350.669H327.573ZM327.493 350.135L328.459 349.879L326.5 350.256L327.493 350.135ZM326.573 350.546V350.669H328.573V350.546H326.573ZM327.573 350.669C328.552 350.468 328.552 350.468 328.552 350.468C328.552 350.468 328.552 350.468 328.552 350.468C328.552 350.468 328.552 350.468 328.552 350.468C328.552 350.468 328.553 350.468 328.553 350.469C328.553 350.469 328.553 350.469 328.553 350.469C328.553 350.47 328.553 350.47 328.553 350.47C328.553 350.47 328.553 350.47 328.553 350.469C328.552 350.466 328.551 350.461 328.55 350.453C328.547 350.437 328.542 350.41 328.536 350.372C328.523 350.297 328.505 350.177 328.486 350.015L326.5 350.256C326.523 350.446 326.545 350.593 326.562 350.697C326.571 350.748 326.578 350.788 326.583 350.818C326.586 350.832 326.588 350.844 326.59 350.853C326.591 350.857 326.591 350.861 326.592 350.864C326.592 350.866 326.593 350.867 326.593 350.868C326.593 350.869 326.593 350.869 326.593 350.87C326.593 350.87 326.593 350.87 326.593 350.87C326.593 350.87 326.593 350.871 326.593 350.871C326.593 350.871 326.593 350.871 326.593 350.871C326.593 350.871 326.593 350.871 327.573 350.669ZM326.526 350.391C326.55 350.483 326.569 350.577 326.581 350.672L328.565 350.421C328.542 350.238 328.507 350.057 328.459 349.879L326.526 350.391Z" fill="#564499" mask="url(#path-75-inside-3_410_618)"/>
<path d="M326.621 350.67C328.996 348.648 331.756 346.77 333.66 344.529C339.009 338.222 336.945 330.161 340.373 323.245C344.546 314.799 357.667 308.909 370.564 309.68C369.339 313.673 368.504 317.775 368.071 321.929C367.686 325.63 368.606 329.744 367.595 333.328C365.953 339.094 357.196 342.592 356.132 348.503C355.185 353.74 360.989 358.629 360.031 363.946C359.01 369.659 350.697 372.815 347.637 377.854C345.139 381.956 346.311 386.658 345.016 391.029C343.449 396.297 337.993 400.951 330.884 403.15C330.659 403.224 330.413 403.305 330.183 403.364C328.044 401.593 325.556 398.474 323.534 395.105" stroke="#564499" stroke-miterlimit="10"/>
<path d="M362.69 316.296C343.46 336.992 334.415 380.624 330.895 403.154C330.606 405.053 330.36 406.792 330.125 408.359" stroke="#564499" stroke-miterlimit="10"/>
<path d="M364.466 421.048L355.645 473.249C355.435 474.679 354.726 475.988 353.643 476.945C352.56 477.902 351.174 478.444 349.729 478.476H303.47C302.011 478.442 300.612 477.889 299.525 476.915C298.438 475.941 297.735 474.61 297.543 473.164L289.386 421.042L364.466 421.048Z" stroke="#564499" stroke-miterlimit="10"/>
<path d="M372.869 415.219C372.79 416.767 372.129 418.228 371.018 419.309C369.907 420.39 368.428 421.012 366.878 421.049H287.118C285.585 421.012 284.122 420.404 283.015 419.342C281.908 418.281 281.239 416.845 281.138 415.315C280.801 411.571 283.571 408.361 287.118 408.361H366.878C370.393 408.367 373.153 411.528 372.869 415.219Z" stroke="#564499" stroke-miterlimit="10"/>
<path d="M318.324 402.433C321.748 399.037 325.941 391.462 327.798 385.279C329.327 380.181 326.637 374.934 326.016 369.702C325.054 361.513 329.119 352.708 324.834 345.284C322.443 341.143 317.795 338.201 315.003 334.238C309.862 326.936 311.836 317.597 308.552 309.589C304.534 299.795 291.927 292.964 279.538 293.873C280.722 298.529 281.525 303.273 281.94 308.059C282.309 312.339 281.405 317.11 282.4 321.261C283.967 327.947 292.376 331.996 293.408 338.849C294.318 344.904 288.749 350.574 289.664 356.741C290.648 363.353 298.624 367.006 301.571 372.869C303.967 377.624 302.844 383.08 304.085 388.13C305.642 394.442 311.157 399.989 318.324 402.433Z" stroke="#564499" stroke-miterlimit="10"/>
<path d="M287.102 301.544C305.562 325.529 314.248 376.073 317.667 402.166C317.955 404.429 318.201 406.504 318.421 408.36" stroke="#564499" stroke-miterlimit="10"/>
<path d="M314.992 334.237C314.992 334.237 316.26 313.403 326.915 307.069C337.57 300.736 337.346 336.227 337.346 336.227" stroke="#564499" stroke-miterlimit="10"/>
<path d="M326.621 350.67C326.621 350.67 324.444 338.752 328.263 327.032" stroke="#564499" stroke-miterlimit="10"/>
<path d="M72.0094 133.213C72.2747 138.608 72.0816 144.016 71.4316 149.378C70.5972 155.679 64.772 163.686 63.5096 169.918C61.707 178.883 64.435 188.148 68.1794 196.471C72.7047 206.533 79.8351 216.653 79.1397 228.175C78.7834 233.193 77.2905 238.064 74.7732 242.42C72.2565 246.775 68.7812 250.502 64.6116 253.316C58.9003 257.137 52.376 259.573 45.5581 260.43C44.6059 260.542 43.6378 260.633 42.6696 260.66C42.1347 260.66 41.5998 260.601 41.0648 260.558C22.9314 259.023 4.33262 245.191 4.37541 225.934C4.37541 213.631 13.7256 204.003 15.3036 192.063C16.2717 184.762 14.1322 177.177 16.1113 170.089C19.3208 158.771 31.7253 152.598 37.16 142.178C41.1611 134.486 41.8137 125.51 44.9804 117.443C49.388 106.21 56.4274 93.3726 66.0558 92.3027C68.8496 92.6194 71.5504 93.5004 73.9939 94.8917C79.9635 98.1012 81.4826 98.3044 82.6968 101.166C83.9378 104.156 82.087 107.35 78.9953 108.307C73.7746 109.96 71.5226 120.567 72.0094 133.213Z" fill="#2C0CAD"/>
<defs>
<linearGradient id="paint0_linear_410_618" x1="220.943" y1="93.5712" x2="220.943" y2="142.318" gradientUnits="userSpaceOnUse">
<stop stop-color="#EF3922"/>
<stop offset="1" stop-color="#564499"/>
</linearGradient>
<linearGradient id="paint1_linear_410_618" x1="238.193" y1="179.243" x2="238.193" y2="261.827" gradientUnits="userSpaceOnUse">
<stop stop-color="#EF3922"/>
<stop offset="1" stop-color="#564499"/>
</linearGradient>
</defs>
</svg>
