<svg width="60" height="60" viewBox="0 0 60 60" fill="none" xmlns="http://www.w3.org/2000/svg">
<rect x="-0.00146484" width="60" height="60" rx="20" fill="white"/>
<path d="M40.963 42L31.7907 32.8277C31.0583 33.4517 30.2161 33.9346 29.264 34.2764C28.3119 34.6181 27.3549 34.789 26.393 34.789C24.0475 34.789 22.0623 33.9771 20.4374 32.3531C18.8125 30.7282 18 28.7435 18 26.3989C18 24.0543 18.8115 22.0686 20.4344 20.4417C22.0583 18.8139 24.0426 18 26.3872 18C28.7327 18 30.719 18.8125 32.3458 20.4374C33.9727 22.0623 34.7861 24.048 34.7861 26.3945C34.7861 27.412 34.6059 28.3968 34.2456 29.3489C33.8843 30.301 33.4107 31.1154 32.8248 31.7921L41.9971 40.963L40.963 42ZM26.393 33.3228C28.3363 33.3228 29.9773 32.6539 31.3161 31.3161C32.6539 29.9783 33.3228 28.3373 33.3228 26.393C33.3228 24.4498 32.6539 22.8093 31.3161 21.4715C29.9783 20.1337 28.3377 19.4648 26.3945 19.4648C24.4513 19.4648 22.8103 20.1337 21.4715 21.4715C20.1337 22.8093 19.4648 24.4498 19.4648 26.393C19.4648 28.3363 20.1337 29.9768 21.4715 31.3146C22.8093 32.6524 24.4498 33.3228 26.393 33.3228Z" fill="url(#paint0_linear_243_618)"/>
<defs>
<linearGradient id="paint0_linear_243_618" x1="29.9985" y1="18" x2="29.9985" y2="42" gradientUnits="userSpaceOnUse">
<stop stop-color="#EF3922"/>
<stop offset="1" stop-color="#564499"/>
</linearGradient>
</defs>
</svg>
