<svg width="420" height="528" viewBox="0 0 420 528" fill="none" xmlns="http://www.w3.org/2000/svg">
<path d="M140.862 189.525C138.465 196.777 134.488 203.502 130.16 209.701C134.465 212.544 143.901 218.107 146.659 219.228C150.954 220.973 153.009 219.903 155.829 219.198C158.085 218.634 167.292 216.433 171.718 215.434C169.345 207.244 167.985 179.043 167.867 172.639C167.773 167.516 168.024 161.888 168.161 159.714C165.087 157.619 157.892 153.04 153.709 151.489C149.526 149.938 146.482 150.921 145.484 151.607C145.405 152.742 145.178 155.59 144.896 157.893C144.614 160.196 144.234 164.813 144.079 166.834C143.377 174.437 143.26 182.273 140.862 189.525Z" fill="white"/>
<path d="M130.219 253.738C103.61 264.089 75.4803 288.417 83.5508 355.788L85.8315 373.274L60.743 501.114C60.743 501.114 45.3624 510.296 40.45 513.161C35.5375 516.027 34.6018 525.91 45.5378 527.021C51.1521 527.606 52.4971 527.606 58.8716 524.39C65.2461 521.173 89.1065 509.184 97.8202 504.798C106.534 500.412 108.113 492.049 109.166 489.242C109.166 489.242 122.249 482.876 132.324 477.078C135.087 475.432 136.706 473.004 136.922 464.967C137.331 458.007 139.108 410.936 139.108 410.936C139.108 410.936 147.822 386.958 149.459 382.163C151.155 377.367 163.495 355.144 184.08 347.6C204.666 340.056 214.023 337.132 226.947 330.758C239.872 324.383 268.177 313.506 283.967 281.458C292.388 264.323 293.733 251.749 293.733 251.749C293.733 251.749 265.194 273.095 219.754 253.679C205.309 247.48 190.455 235.374 190.455 235.374L130.219 253.738Z" fill="white"/>
<path d="M234.9 144.202C234.316 150.693 234.023 158.588 233.789 168.472C233.789 189.525 210.514 206.952 189.811 210.929L152.318 220.149C147.288 221.143 142.383 217.304 138.932 215.257C135.365 213.152 131.681 210.578 129.108 208.707C125.365 206.017 118.23 208.181 119.692 214.672C119.984 215.9 120.628 217.07 121.447 218.005C122.265 218.941 123.318 219.701 124.488 220.228C125.131 220.52 125.833 220.754 126.534 220.988C126.768 221.046 127.002 221.222 127.178 221.397C127.353 221.631 127.412 221.865 127.412 222.158C127.412 222.45 127.353 222.684 127.178 222.918C127.002 223.152 126.768 223.269 126.534 223.386C123.259 224.497 117.236 225.199 107.528 221.631C95.0714 217.07 94.1357 245.433 111.154 250.404H111.212C126.885 255.141 143.728 254.556 159.927 253.855C178.29 253.153 190.278 252.199 208.29 248.456C263.045 239.734 288.485 208.722 294.844 160.401C297.885 140.284 293.674 123.324 282.914 106.014L282.504 105.37" fill="white"/>
<path d="M234.9 144.202C234.316 150.693 234.023 158.588 233.789 168.472C233.789 189.525 210.514 206.952 189.811 210.929L152.318 220.149C147.288 221.143 142.383 217.304 138.932 215.257C135.365 213.152 131.681 210.578 129.108 208.707C125.365 206.017 118.23 208.181 119.692 214.672C119.984 215.9 120.628 217.07 121.447 218.005C122.265 218.941 123.318 219.701 124.488 220.228C125.131 220.52 125.833 220.754 126.534 220.988C126.768 221.046 127.002 221.222 127.178 221.397C127.353 221.631 127.412 221.865 127.412 222.158C127.412 222.45 127.353 222.684 127.178 222.918C127.002 223.152 126.768 223.269 126.534 223.386C123.259 224.497 117.236 225.199 107.528 221.631C95.0714 217.07 94.1357 245.433 111.154 250.404H111.212C126.885 255.141 143.728 254.556 159.927 253.855C178.29 253.153 190.278 252.199 208.29 248.456C263.045 239.734 288.485 208.722 294.844 160.401C297.885 140.284 293.674 123.324 282.914 106.014L282.504 105.37" stroke="#564499" stroke-miterlimit="10"/>
<path d="M206.654 71.2756L205.66 67.9422C205.66 67.9422 189.285 61.3338 188.817 33.1458C188.349 6.36127 213.847 -1.18283 229.813 6.24431C237.708 9.87016 239.813 29.6369 237.357 42.1519C235.485 51.6259 232.678 52.737 234.784 64.9012C235.895 71.3341 235.719 73.7319 237.708 74.3752L238.702 74.6676C238.702 74.6676 237.532 78.5858 234.55 84.1415C231.567 89.6973 224.725 99.5222 212.268 96.5981C197.121 93.0307 206.654 71.2756 206.654 71.2756Z" fill="white"/>
<path d="M297.593 231.047L393.034 294.207C411.514 306.429 409.175 334.325 388.882 343.273L277.183 392.456C266.773 397.017 255.428 398.83 244.082 397.719C232.795 396.608 221.976 392.631 212.678 386.14L169.752 356.139" stroke="#564499" stroke-miterlimit="10"/>
<path d="M297.593 251.398L294.376 249.293L393.034 314.558C411.573 326.781 409.175 354.677 388.882 363.624L277.183 412.807C266.773 417.369 255.428 419.182 244.082 418.07C232.795 416.959 221.976 412.983 212.678 406.491L158.115 367.659" stroke="#564499" stroke-miterlimit="10"/>
<path d="M380.695 339.764L278.06 384.97C268.527 389.181 258.059 390.818 247.65 389.824C237.24 388.83 227.298 385.145 218.76 379.18L178.115 350.641C180.922 349.004 186.478 346.431 199.051 342.278C216.187 336.021 229.403 329.88 244.725 322.278C256.363 316.547 266.597 308.242 274.668 298.125C282.738 287.949 288.47 276.136 291.452 263.504C293.499 254.79 295.312 245.901 296.774 237.012L387.128 296.721C404.146 307.95 399.292 331.576 380.695 339.764Z" fill="#BBB4D6" stroke="#564499"/>
<path d="M293.733 253.27C254.433 276.662 208.818 249.001 207.824 248.474C275.428 240.053 289.23 185.607 289.23 185.607C274.434 149.407 233.965 161.045 233.965 161.045C232.721 166.7 236.82 170.897 228.622 185.732C226.104 192.089 211.448 203.421 200.415 207.643C187.923 211.547 171.624 215.374 171.624 215.374C167.705 198.707 167.939 159.758 167.939 159.758C149.401 146.775 145.658 152.272 145.658 152.272C151.506 100.809 174.665 86.1299 174.665 86.1299C185.835 76.539 197.589 70.6323 205.894 70.9832L206.83 71.1002C206.83 71.1002 196.829 95.4285 214.257 96.949C228.935 98.2356 235.544 84.2 238.819 74.726C257.942 80.6327 276.89 93.6155 288.996 115.897C315.196 164.553 293.733 253.27 293.733 253.27Z" fill="white"/>
<path d="M293.733 253.27C254.433 276.662 208.924 249.148 207.93 248.621C277.051 238.048 289.23 185.607 289.23 185.607C274.434 149.407 233.965 161.045 233.965 161.045C232.721 166.7 236.82 170.897 228.622 185.732C226.104 192.089 211.448 203.421 200.415 207.643C187.923 211.547 171.624 215.374 171.624 215.374C167.705 198.707 167.939 159.758 167.939 159.758C149.401 146.775 145.658 152.272 145.658 152.272C151.506 100.809 174.665 86.1299 174.665 86.1299C185.835 76.539 197.589 70.6323 205.894 70.9832L206.83 71.1002C206.83 71.1002 196.829 95.4285 214.257 96.949C228.935 98.2356 235.544 84.2 238.819 74.726C257.942 80.6327 276.89 93.6155 288.996 115.897C315.196 164.553 293.733 253.27 293.733 253.27Z" fill="#BBB4D6" stroke="#564499"/>
<path d="M116.125 470.704C116.125 470.704 134.137 463.218 137.587 457.604C137.587 457.604 137.731 470.199 134.897 474.739C133.901 477.535 112.585 487.896 109.572 489.565C108.461 488.161 116.125 470.704 116.125 470.704Z" fill="#564499"/>
<path d="M60.7238 501.138C60.7238 501.138 63.9988 505.582 75.6366 501.138C87.2744 496.693 112.538 480.318 112.538 480.318C112.538 480.318 106.473 499.94 102.947 501.313C98.6641 506.108 61.5384 523.217 56.5352 525.587C51.532 527.957 31.8002 529.131 38.6763 514.764L60.7238 501.138Z" fill="#564499"/>
<path d="M130.219 253.738C103.61 264.089 75.4803 288.417 83.5507 355.788L85.8315 373.274" stroke="#564499" stroke-miterlimit="10"/>
<path d="M130.16 209.701C134.488 203.502 138.465 196.777 140.862 189.525C143.26 182.273 143.377 174.437 144.079 166.834C145.892 146.424 148.64 129.582 156.477 110.575C163.261 94.1419 183.846 72.9716 204.373 70.9832L206.712 70.8078" stroke="#564499" stroke-miterlimit="10"/>
<path d="M169.285 144.202C168.565 149.337 167.804 152.579 167.923 161.134" stroke="#564499" stroke-miterlimit="10"/>
<path d="M243.146 29.7538L238.468 31.5667C238.468 31.6837 238.468 33.5551 238.292 36.0698C238.058 39.1108 237.591 42.1519 236.83 45.1344C237.24 43.0876 237.825 38.2921 235.193 34.9587C235.134 34.9002 235.076 34.8417 235.076 34.7832C233.321 32.6779 231.158 33.4966 229.403 34.9587C228.175 35.9529 227.181 37.181 226.304 38.4675C226.596 34.5493 225.894 30.631 224.257 27.0637C223.204 24.6075 221.801 22.3852 220.046 20.3383C222.678 29.4614 219.286 35.4265 219.286 35.4265C210.28 37.5318 204.081 37.064 199.461 36.3037C195.542 32.6779 196.888 19.5196 196.888 19.5196C192.969 22.7361 193.905 35.1926 193.905 35.1926C193.379 31.9176 193.437 28.6427 194.08 25.4262C192.151 28.1748 190.981 31.4498 190.806 34.8417L190.747 34.7832C190.455 34.7247 190.221 34.6078 189.928 34.5493C189.46 34.3154 188.993 34.023 188.525 33.7306L185.952 31.9761C189.87 12.034 203.554 -0.539548 224.666 3.14478C226.07 3.37871 227.415 3.72959 228.701 4.19745C242.679 11.3907 243.146 29.7538 243.146 29.7538Z" fill="#2C0CAD"/>
<path d="M122.558 224.146L117.236 208.122C117.119 207.771 116.885 207.42 116.651 207.128C116.359 206.836 116.008 206.66 115.657 206.543C115.598 206.543 115.54 206.543 115.482 206.485C115.423 206.426 115.423 206.485 115.365 206.485C115.248 206.485 115.131 206.485 115.014 206.485C114.429 206.485 113.844 206.719 113.435 207.128C113.025 207.537 112.674 208.005 112.44 208.532C112.207 209.058 112.09 209.643 112.09 210.227C112.09 210.695 112.148 211.163 112.324 211.573C113.493 214.964 115.598 221.047 116.534 223.854" stroke="#564499" stroke-miterlimit="10"/>
<path d="M121.388 224.205L115.598 206.543C115.54 206.543 115.482 206.543 115.423 206.485C115.365 206.426 115.365 206.485 115.306 206.485L112.324 205.9C110.686 205.607 109.107 205.257 107.528 204.964C105.598 204.555 103.668 204.262 101.738 203.795C101.271 203.678 100.803 203.561 100.335 203.561C99.75 203.561 99.1652 203.795 98.7558 204.204C98.3465 204.613 97.9956 205.081 97.7617 205.607C97.5277 206.134 97.4108 206.719 97.4108 207.303C97.4108 207.771 97.4692 208.239 97.6447 208.648C98.9313 212.45 101.388 219.585 102.206 221.807L103.2 221.339C104.312 221.047 105.13 220.813 106.709 221.222L112.616 222.918C114.019 223.327 115.423 223.561 116.827 223.737L121.388 224.205Z" fill="url(#paint0_linear_129_2102)" stroke="white" stroke-miterlimit="10"/>
<path d="M117.236 208.122L122.558 224.146C119.419 224.524 117.234 224.109 116.534 223.854C115.598 221.047 113.493 214.964 112.324 211.573C112.148 211.163 112.09 210.695 112.09 210.227C112.09 209.643 112.207 209.058 112.44 208.531C112.674 208.005 113.025 207.537 113.435 207.128C113.844 206.719 114.429 206.485 115.014 206.485H115.365L115.657 206.543C116.008 206.66 116.359 206.836 116.651 207.128C116.885 207.42 117.119 207.771 117.236 208.122Z" fill="url(#paint1_linear_129_2102)" stroke="white" stroke-miterlimit="10"/>
<path d="M189.051 34.1985C189.051 41.801 190.513 49.0527 194.198 55.7781C197.122 61.1584 201.391 66.5972 207.531 68.4101C208.876 68.8194 210.28 68.9949 211.742 68.9949C222.152 68.9364 223.789 56.5968 223.789 56.5968" stroke="#564499" stroke-miterlimit="10"/>
<path d="M237.942 38.643C237.474 42.4443 236.655 46.1871 235.485 49.813C234.082 54.1406 233.789 58.7021 234.55 63.2052L236.187 72.6207C236.246 73.0301 236.48 73.4394 236.713 73.7318C236.947 74.0243 237.357 74.2582 237.766 74.3751C258.352 80.3403 276.598 93.4986 287.183 112.564C300.458 136.307 302.856 164.904 301.803 191.572C300.868 214.672 297.534 237.597 292.271 260.112C289.054 273.855 283.499 287.014 274.726 298.067C261.1 313.564 253.673 317.892 241.041 324.149C224.374 332.454 207.18 339.647 189.519 345.67C180.162 348.77 171.682 353.916 164.547 360.7C157.471 367.484 151.974 375.788 148.465 384.97L107.002 495.149C105.481 499.243 102.499 502.576 98.5804 504.506L58.8715 524.448C53.8421 526.963 48.1109 527.665 42.6721 526.495C41.2686 526.203 39.982 525.442 38.9293 524.39C37.9351 523.337 37.2918 521.992 37.0579 520.588C36.824 519.126 36.9994 517.664 37.6427 516.378C38.286 515.033 39.2802 513.98 40.5083 513.22L60.8014 501.172L88.697 359.004C90.6854 346.314 95.3639 334.208 102.44 323.506C109.516 312.804 118.873 303.739 129.751 297.014C131.213 296.137 132.733 295.318 134.312 294.675L194.782 268.416" stroke="#564499" stroke-miterlimit="10"/>
<path d="M221.333 1.74125C218.117 0.980994 214.783 0.805549 211.45 1.21492C211.333 1.21492 211.157 1.21492 211.04 1.2734" stroke="#564499" stroke-miterlimit="10"/>
<path d="M206.654 71.2756C206.654 71.2756 195.952 95.7793 215.075 97.0075C232.21 98.1186 238.526 74.7845 238.526 74.7845" stroke="#564499" stroke-miterlimit="10"/>
<path d="M236.597 46.0117C236.714 45.5438 238.585 38.9354 235.018 34.7247C231.509 30.5141 226.713 37.7073 226.245 38.4091C227.181 28.1163 219.988 20.2798 219.988 20.2798C222.62 29.4029 219.228 35.368 219.228 35.368C206.128 38.4091 198.935 36.0698 193.847 35.0756C193.32 31.8592 193.379 28.5257 194.022 25.3092C192.034 28.0579 190.923 31.3328 190.747 34.7247H190.689C188.759 34.1984 186.887 33.3797 185.25 32.2685L182.677 30.5141C186.595 10.5719 200.28 -2.00158 221.391 1.68274C242.503 5.36707 243.147 29.6953 243.147 29.6953L238.41 31.5083C238.468 31.5083 238.468 39.5202 236.597 46.0117Z" stroke="#564499" stroke-miterlimit="10"/>
<path d="M197.239 44.959V54.6669C197.239 54.7839 197.239 54.9008 197.297 55.0178C197.356 55.1347 197.414 55.1932 197.531 55.3102C197.648 55.3687 197.765 55.4272 197.882 55.4272C197.999 55.4272 198.116 55.4272 198.233 55.4272C198.993 55.1932 199.695 54.7839 200.28 54.199" stroke="#564499" stroke-miterlimit="10"/>
<path opacity="0.4" d="M191.449 52.3276C194.49 51.158 195.66 46.7134 193.964 42.4443C192.268 38.1751 188.467 35.7189 185.425 36.8886C182.384 38.0582 181.215 42.5028 182.911 46.7719C184.548 51.0411 188.35 53.5558 191.449 52.3276Z" fill="url(#paint2_linear_129_2102)"/>
<path opacity="0.4" d="M209.871 55.1348C212.912 53.9651 214.081 49.5206 212.385 45.2514C210.748 40.9823 206.888 38.5261 203.847 39.6957C200.806 40.8653 199.636 45.3099 201.332 49.579C202.97 53.8482 206.771 56.3044 209.871 55.1348Z" fill="url(#paint3_linear_129_2102)"/>
<path d="M194.666 45.4853C194.666 45.4853 196.478 43.4385 200.28 45.8362" stroke="#564499" stroke-miterlimit="10"/>
<path d="M205.835 67.8253C205.835 67.8253 207.122 72.2698 211.04 86.7148" stroke="#564499" stroke-miterlimit="10"/>
<path d="M108.873 489.944L131.681 477.663C132.968 476.961 134.079 475.908 134.897 474.68C135.716 473.452 136.242 472.049 136.359 470.528C140.161 433.276 138.991 409.766 138.991 409.766" stroke="#564499" stroke-miterlimit="10"/>
<path d="M87.1765 298.359L0.390137 237.714" stroke="#564499" stroke-miterlimit="10"/>
<path d="M83.1998 315.962L0.390137 258.065" stroke="#564499" stroke-miterlimit="10"/>
<path d="M419 199.35V249.585C419 251.866 418.357 254.147 417.07 256.077C415.784 258.007 414.029 259.527 411.924 260.463L349.641 288.066L330.576 317.014C330.108 317.716 329.407 318.301 328.588 318.593C327.769 318.886 326.892 318.886 326.073 318.652C325.254 318.418 324.494 317.892 323.968 317.19C323.442 316.488 323.149 315.669 323.149 314.792V299.821L316.775 302.628C315.371 303.271 313.792 303.505 312.272 303.388C310.751 303.271 309.231 302.745 307.944 301.926C306.657 301.108 305.605 299.938 304.844 298.593C304.084 297.248 303.733 295.727 303.675 294.148V252.217C303.675 247.012 305.195 241.866 308.061 237.48C310.926 233.094 315.02 229.643 319.816 227.596L405.432 190.519C406.894 189.876 408.532 189.583 410.169 189.759C411.807 189.876 413.327 190.461 414.673 191.338C416.018 192.215 417.129 193.443 417.889 194.847C418.591 196.133 419 197.771 419 199.35Z" fill="url(#paint4_linear_129_2102)" stroke="white" stroke-miterlimit="10"/>
<path opacity="0.2" d="M419 199.35V249.585C419 251.866 418.357 254.147 417.07 256.077C415.784 258.007 414.029 259.527 411.924 260.463L349.641 288.066L330.576 317.014C330.108 317.716 329.407 318.301 328.588 318.593C327.769 318.886 326.892 318.886 326.073 318.652C325.254 318.418 324.494 317.892 323.968 317.19C323.442 316.488 323.149 315.669 323.149 314.792V299.821L316.775 302.628C315.371 303.271 313.792 303.505 312.272 303.388C310.751 303.271 309.231 302.745 307.944 301.926C306.657 301.108 305.605 299.938 304.844 298.593C304.084 297.248 303.733 295.727 303.675 294.148V252.217C303.675 247.012 305.195 241.866 308.061 237.48C310.926 233.094 315.02 229.643 319.816 227.596L405.432 190.519C406.894 189.876 408.532 189.583 410.169 189.759C411.807 189.876 413.327 190.461 414.673 191.338C416.018 192.215 417.129 193.443 417.889 194.847C418.591 196.133 419 197.771 419 199.35Z" fill="url(#paint5_linear_129_2102)" stroke="white" stroke-miterlimit="10"/>
<path d="M342.565 265.025C345.606 259.118 344.787 252.568 340.693 250.463C336.6 248.357 330.81 251.398 327.71 257.363C324.669 263.27 325.488 269.82 329.582 271.925C333.734 273.972 339.524 270.931 342.565 265.025Z" fill="white" stroke="white"/>
<path d="M369.174 253.621C372.215 247.714 371.396 241.164 367.302 239.059C363.209 236.953 357.419 239.994 354.32 245.96C351.279 251.866 352.097 258.416 356.191 260.521C360.285 262.627 366.133 259.527 369.174 253.621Z" fill="white" stroke="white"/>
<path d="M394.905 241.34C397.947 235.433 397.128 228.883 393.034 226.778C388.94 224.672 383.151 227.713 380.051 233.678C377.01 239.585 377.829 246.135 381.923 248.24C386.016 250.346 391.806 247.246 394.905 241.34Z" fill="white" stroke="white"/>
<path d="M269.717 163.952C254.782 154.745 234.046 161.052 234.046 161.052C233.929 164.327 233.848 164.67 233.789 168.472C233.789 189.525 210.514 206.953 189.811 210.929L152.054 220.13C147.025 221.124 142.383 217.304 138.932 215.257C135.365 213.152 131.681 210.578 129.108 208.707C125.365 206.017 118.23 208.181 119.692 214.672C119.984 215.9 120.628 217.07 121.447 218.006C122.265 218.941 123.318 219.702 124.488 220.228C125.131 220.52 125.833 220.754 126.534 220.988C126.768 221.047 127.002 221.222 127.178 221.397C127.353 221.631 127.412 221.865 127.412 222.158C127.412 222.45 127.353 222.684 127.178 222.918C127.002 223.152 126.768 223.269 126.534 223.386C123.259 224.497 117.236 225.199 107.528 221.631C95.0714 217.07 94.1357 245.433 111.154 250.404H111.212C126.885 255.141 143.728 254.556 159.927 253.855C178.29 253.153 196.595 250.931 214.607 247.188C223.789 245.258 233.204 243.211 241.567 239.059C256.012 231.924 266.422 223.737 276.305 210.988C283.171 201.383 286.376 194.36 289.194 185.609C287.087 180.781 282.84 171.565 269.717 163.952Z" stroke="#564499" stroke-miterlimit="10"/>
<defs>
<linearGradient id="paint0_linear_129_2102" x1="109.399" y1="203.561" x2="109.399" y2="224.205" gradientUnits="userSpaceOnUse">
<stop stop-color="#EF3922"/>
<stop offset="1" stop-color="#564499"/>
</linearGradient>
<linearGradient id="paint1_linear_129_2102" x1="117.324" y1="206.485" x2="117.324" y2="224.298" gradientUnits="userSpaceOnUse">
<stop stop-color="#EF3922"/>
<stop offset="1" stop-color="#564499"/>
</linearGradient>
<linearGradient id="paint2_linear_129_2102" x1="188.437" y1="36.5975" x2="188.437" y2="52.6393" gradientUnits="userSpaceOnUse">
<stop stop-color="#EF3922"/>
<stop offset="1" stop-color="#564499"/>
</linearGradient>
<linearGradient id="paint3_linear_129_2102" x1="206.859" y1="39.4046" x2="206.859" y2="55.4259" gradientUnits="userSpaceOnUse">
<stop stop-color="#EF3922"/>
<stop offset="1" stop-color="#564499"/>
</linearGradient>
<linearGradient id="paint4_linear_129_2102" x1="361.337" y1="189.709" x2="361.337" y2="318.821" gradientUnits="userSpaceOnUse">
<stop stop-color="#EF3922"/>
<stop offset="1" stop-color="#564499"/>
</linearGradient>
<linearGradient id="paint5_linear_129_2102" x1="361.337" y1="189.709" x2="361.337" y2="318.821" gradientUnits="userSpaceOnUse">
<stop stop-color="#EF3922"/>
<stop offset="1" stop-color="#564499"/>
</linearGradient>
</defs>
</svg>
