<svg width="646" height="556" viewBox="0 0 646 556" fill="none" xmlns="http://www.w3.org/2000/svg">
<path d="M210.929 314.668C218.034 325.812 230.824 332.172 230.824 332.172C238.842 325.233 249.671 312.526 254.083 307.04L259.542 310.106C269.564 315.566 280.334 306.815 288.711 298.439C295.412 291.738 291.503 284.827 288.711 282.209C291.852 284.079 298.882 288.552 301.874 291.483C305.613 295.148 311.447 296.345 314.064 292.979C316.682 289.614 316.832 285.276 313.84 282.434C310.848 279.592 299.929 266.877 277.716 260.221C255.504 253.565 234.039 267.027 226.261 274.805C220.038 281.028 211.502 289.364 208.012 292.755C208.012 292.755 203.824 303.525 210.929 314.668Z" fill="white"/>
<path d="M73.813 200.064L69.4922 234.952C75.2494 229.136 91.5739 219.673 110.814 228.35L106.688 206.303C109.734 207.482 116.591 207.848 119.656 199.878C121.26 195.398 120.207 186.301 119.479 182.312C120.383 182.292 122.58 181.711 124.136 179.541C121.68 177.164 116.473 171.713 115.294 168.931C113.821 165.453 117.004 158.497 111.463 152.367L77.2143 152.779L69.728 177.537L73.813 200.064Z" fill="white"/>
<path d="M238.378 324.744C320.477 316.024 413.142 317.312 413.142 317.312H465.148C468.508 317.317 471.858 316.923 475.127 316.139C483.11 314.236 498.847 310.065 511.337 304.178C519.807 300.179 529.686 306.589 528.963 315.945C528.963 316.06 528.963 316.181 528.92 316.317C530.571 316.318 532.196 316.717 533.659 317.478C535.123 318.241 536.381 319.345 537.328 320.697C538.273 322.049 538.88 323.609 539.095 325.245C539.31 326.881 539.128 328.545 538.563 330.095C521.023 378.302 469.991 376.792 469.991 376.792C463.467 376.985 456.957 377.243 450.426 377.579C392.891 380.376 335.864 388.452 280.039 402.709C264.53 406.651 249.179 412.273 233.656 416.923C220.423 420.922 207.053 424.191 193.311 425.192C166.729 427.116 139.46 420.249 117.549 404.884C69.5572 371.205 28.2535 300.988 61.5025 243.989C73.2412 223.874 99.8233 218.366 118.351 232.544C144.482 252.538 165.356 291.488 176.064 314.465" fill="white"/>
<path d="M238.378 324.744C320.477 316.024 413.142 317.312 413.142 317.312H465.148C468.508 317.317 471.858 316.923 475.127 316.139C483.11 314.236 498.847 310.065 511.337 304.178C519.807 300.179 529.686 306.589 528.963 315.945C528.963 316.06 528.963 316.181 528.92 316.317C530.571 316.318 532.196 316.717 533.659 317.478C535.123 318.241 536.381 319.345 537.328 320.697C538.273 322.049 538.88 323.609 539.095 325.245C539.31 326.881 539.128 328.545 538.563 330.095C521.023 378.302 469.991 376.792 469.991 376.792C463.467 376.985 456.957 377.243 450.426 377.579C392.891 380.376 335.864 388.452 280.039 402.709C264.53 406.651 249.179 412.273 233.656 416.923C220.423 420.922 207.053 424.191 193.311 425.192C166.729 427.116 139.46 420.249 117.549 404.884C69.5572 371.205 28.2535 300.988 61.5025 243.989C73.2412 223.874 99.8233 218.366 118.351 232.544C144.482 252.538 165.356 291.488 176.064 314.465" stroke="#564499" stroke-miterlimit="10"/>
<path d="M116.076 148.848C114.073 152.196 109.881 153.612 106.276 154.335C101.669 155.279 96.9048 155.53 92.2408 155.944L89.5297 156.61C89.0168 156.768 88.5396 157.026 88.1269 157.369C87.7134 157.712 87.3722 158.133 87.1225 158.608C86.8722 159.083 86.7191 159.603 86.6704 160.139C86.6218 160.673 86.6797 161.212 86.84 161.724C88.5175 167.497 90.8251 173.067 93.7216 178.335L89.4295 182.627C88.2134 180.981 88.1562 178.099 86.5252 178.378C84.9586 176.811 83.0988 176.046 81.1745 178.142C77.4118 182.255 78.0198 190.803 83.5494 193.164L82.3119 199.323C81.8848 201.476 80.7252 203.415 79.0299 204.809C77.3338 206.204 75.2078 206.967 73.0124 206.97L73.9639 199.68C67.5258 202.935 60.2222 195.896 60.7301 190.095C61.0591 186.118 60.1578 183.371 57.2177 180.488C57.0246 180.295 58.2049 179.579 58.0261 179.386C57.1963 176.875 57.0818 173.942 57.9045 172.283C59.3351 169.321 63.5485 167.59 61.6099 164.357C60.7594 162.948 60.1385 161.412 59.7715 159.807C59.3824 157.68 59.4532 155.494 59.9804 153.396C60.5076 151.298 61.4776 149.338 62.826 147.647C65.6874 144.213 70.3371 145.136 74.1355 143.92C78.7638 142.489 80.9027 137.532 85.7455 136.001C88.1562 135.235 90.3881 135.586 92.7988 136.137C94.8375 136.609 96.8548 137.138 98.8577 137.768C100.861 138.397 102.62 138.919 104.58 138.333C107.17 137.617 109.166 135.2 111.991 135.178C113.401 135.146 114.781 135.587 115.911 136.43C118 140.186 118.015 145.636 116.076 148.848Z" fill="#2C0CAD"/>
<path d="M26.3806 244.385C26.3806 244.385 -50.3338 159.808 64.3567 116.945C71.0072 114.506 77.9389 112.915 84.9871 112.209C103.293 110.264 143.76 103.346 148.424 79.9833" stroke="#564499" stroke-miterlimit="10"/>
<path d="M354.47 125.459V125.436" stroke="#564499" stroke-miterlimit="10"/>
<path d="M150.126 280.123V280.1" stroke="#564499" stroke-miterlimit="10"/>
<path d="M89.2361 182.055C88.4735 180.737 87.5665 179.508 86.5321 178.393C84.9655 176.826 83.1056 176.061 81.1813 178.156C77.4186 182.27 78.0267 190.818 83.5563 193.179L82.3187 199.338C81.8917 201.491 80.7321 203.429 79.0367 204.824C77.3407 206.218 75.2147 206.982 73.0193 206.985" stroke="#564499" stroke-linecap="round" stroke-linejoin="round"/>
<path d="M69.5571 234.238C69.8719 231.849 70.6516 225.576 71.4027 219.595C72.118 214.051 72.7547 208.715 73.0051 206.955L73.9636 199.68" stroke="#564499" stroke-linecap="round" stroke-linejoin="round"/>
<path d="M113.722 162.555C113.722 162.555 104.587 163.006 102.821 170.567" stroke="#564499" stroke-miterlimit="10"/>
<path d="M117.042 182.534C119.531 182.47 122.764 182.105 123.938 179.58L117.643 172.634C116.107 170.932 115.198 168.757 115.067 166.468C114.817 162.627 115.268 156.532 111.591 152.476" stroke="#564499" stroke-miterlimit="10"/>
<path d="M111.659 172.92C112.689 171.779 112.74 170.147 111.773 169.273C110.806 168.398 109.186 168.614 108.156 169.754C107.125 170.894 107.074 172.527 108.041 173.401C109.008 174.275 110.628 174.06 111.659 172.92Z" fill="#564499" stroke="#564499"/>
<path d="M111.04 228.159L106.514 206.358" stroke="#564499" stroke-miterlimit="10"/>
<path d="M231.267 331.632L200.7 356.626C237.476 412.709 209.642 423.003 209.642 423.003C204.243 424.036 198.791 424.77 193.311 425.199C166.729 427.116 139.46 420.256 117.549 404.89C73.1981 373.773 34.5696 311.495 55.1715 257.272C56.9048 252.686 59.0229 248.254 61.5023 244.024C63.639 240.348 66.3594 237.043 69.557 234.239C75.1538 229.339 82.0461 226.159 89.4063 225.082C96.7657 224.005 104.28 225.076 111.047 228.165C113.637 229.348 116.087 230.816 118.35 232.543C129.932 241.406 140.462 254.003 149.539 267.223C157.599 279.178 164.853 291.657 171.25 304.578C173.017 308.105 174.619 311.438 176.035 314.493C188.876 309.299 199.642 300.479 209.656 290.951C197.546 313.556 231.267 331.632 231.267 331.632Z" fill="white" stroke="#564499"/>
<path opacity="0.4" d="M231.267 331.632L200.701 356.626C237.476 412.709 209.642 423.003 209.642 423.003C204.243 424.036 198.791 424.77 193.311 425.199C166.729 427.116 139.46 420.256 117.549 404.89C73.1983 373.773 34.5699 311.495 55.1718 257.272C56.905 252.686 59.0232 248.254 61.5025 244.024C63.6393 240.348 66.3597 237.043 69.5573 234.239C75.1541 229.339 82.0464 226.159 89.4065 225.082C96.766 224.005 104.281 225.076 111.047 228.165C113.637 229.348 116.087 230.816 118.351 232.543C129.932 241.406 140.462 254.003 149.539 267.223C157.599 279.178 164.853 291.657 171.25 304.578C173.017 308.105 174.619 311.438 176.036 314.493C188.876 309.299 199.642 300.479 209.657 290.951C197.546 313.556 231.267 331.632 231.267 331.632Z" fill="#564499" stroke="#564499"/>
<path d="M209.878 349.915C209.292 350.366 208.684 350.838 208.076 351.289" stroke="#564499" stroke-miterlimit="10"/>
<path d="M119.51 254.898C127.616 270.421 135.724 285.973 143.831 301.553C149.947 313.313 160.284 320.574 174.841 315.001C190.679 308.935 203.455 297.339 215.272 285.522C227.09 273.704 239.064 262.402 256.125 259.355C278.179 255.413 299.046 267.431 314.068 282.618C315.224 283.776 315.955 285.29 316.143 286.915C316.331 288.541 315.966 290.182 315.105 291.574C314.553 292.464 313.815 293.225 312.943 293.804C312.071 294.384 311.083 294.768 310.049 294.932C309.014 295.095 307.957 295.034 306.948 294.752C305.939 294.47 305.003 293.974 304.203 293.298C297.086 287.224 285.504 278.44 277.45 278.326" stroke="#564499" stroke-miterlimit="10"/>
<path d="M255.474 299.163C257.949 300.815 261.383 302.647 264.244 302.647" stroke="#564499" stroke-miterlimit="10"/>
<path d="M287.192 281.338C292.472 283.949 294.396 291.589 290.669 296.153C285.943 302.016 280.023 306.805 273.301 310.202C265.947 313.872 261.226 311.633 253.986 307.155" stroke="#564499" stroke-miterlimit="10"/>
<path d="M274.975 288.184C274.975 288.184 285.433 290.773 285.154 300.924C285.135 301.357 285.058 301.785 284.925 302.197" stroke="#564499" stroke-miterlimit="10"/>
<path d="M267.585 294.578C267.585 294.578 281.613 303.641 274.939 309.342" stroke="#564499" stroke-miterlimit="10"/>
<path d="M538.563 330.101C522.039 375.518 475.778 376.799 470.484 376.799C472.702 372.128 473.303 363.923 468.446 349.544C471.7 344.793 473.412 339.155 473.352 333.396C473.292 327.638 471.462 322.037 468.109 317.354C468.174 317.297 468.21 317.218 468.267 317.161C470.58 317.02 472.876 316.673 475.127 316.124C483.11 314.221 498.848 310.043 511.337 304.163C519.807 300.164 529.686 306.574 528.963 315.923C528.963 316.045 528.963 316.159 528.92 316.295C530.574 316.295 532.204 316.692 533.67 317.456C535.137 318.22 536.397 319.327 537.344 320.683C538.291 322.039 538.896 323.602 539.108 325.243C539.321 326.882 539.134 328.55 538.563 330.101Z" fill="#564499" stroke="#564499"/>
<path d="M326.515 436.624C320.949 446.174 312.286 454.307 303.917 461.404C274.452 486.34 235.96 499.002 197.331 499.496C158.574 499.002 119.939 486.297 90.3378 461.582C-3.19309 383.482 13.7104 291.267 28.8399 248.568C29.3727 247.092 30.0941 245.69 30.9859 244.398C32.1688 242.667 33.7046 241.207 35.4923 240.112C37.28 239.017 39.2789 238.313 41.3584 238.046C49.2987 239.14 56.5093 245.728 55.236 255.929C55.236 256.323 55.0786 256.866 55.0429 257.26C34.4553 311.483 73.0981 373.76 117.421 404.877C137.529 418.991 162.151 425.93 186.615 425.479H186.894C188.993 425.436 191.088 425.339 193.182 425.186C206.924 424.184 220.279 420.894 233.506 416.909C249.029 412.267 264.38 406.637 279.889 402.696C285.34 401.308 290.805 399.97 296.299 398.718C299.469 398.068 302.712 397.844 305.941 398.053C324.991 399.341 338.375 416.28 326.515 436.624Z" stroke="#564499"/>
<path d="M331.222 436.624C325.656 446.174 316.986 454.307 308.617 461.404C277.979 487.356 237.555 500.032 197.31 499.496C158.553 499.002 119.917 486.297 90.3164 461.582C-3.19284 383.482 13.7107 291.267 28.8401 248.568C29.373 247.092 30.0943 245.69 30.9861 244.398C32.1691 242.667 33.7049 241.207 35.4926 240.112C37.2803 239.017 39.2797 238.313 41.3585 238.046C49.2988 239.14 56.5094 245.728 55.2361 255.929C55.2361 256.323 55.0787 256.866 55.043 257.26C34.4555 311.483 73.0982 373.76 117.421 404.877C137.529 418.991 162.151 425.93 186.616 425.479H186.895C190.581 425.536 194.246 425.439 197.889 425.186C211.631 424.184 224.979 420.894 238.213 416.909C253.736 412.267 269.087 406.637 284.596 402.696C290.04 401.308 295.512 399.97 300.999 398.718C302.63 398.385 304.281 398.162 305.942 398.053C327.359 396.615 344.041 414.635 331.222 436.624Z" fill="white" stroke="#564499"/>
<path d="M203.769 499.364L213.183 512.684C213.183 512.684 270.146 514.902 301.32 541.069C307.086 545.912 303.638 555.318 296.113 555.318C294.226 555.325 292.398 554.661 290.955 553.444C283.594 547.264 255.474 527.835 191.866 527.248C129.889 526.669 106.118 545.847 99.5443 552.836C98.7947 553.626 97.8912 554.253 96.8897 554.68C95.8882 555.107 94.8102 555.324 93.7215 555.318H92.4982C84.7726 555.318 81.5035 545.561 87.6053 540.826C113.629 520.589 171.965 514.136 171.965 514.136L181.923 499.114" fill="#564499"/>
<path d="M203.769 499.364L213.183 512.684C213.183 512.684 270.146 514.902 301.32 541.069C307.086 545.912 303.638 555.318 296.113 555.318C294.226 555.325 292.398 554.661 290.955 553.444C283.594 547.264 255.474 527.835 191.866 527.248C129.889 526.669 106.118 545.847 99.5443 552.836C98.7947 553.626 97.8912 554.253 96.8897 554.68C95.8882 555.107 94.8102 555.324 93.7215 555.318H92.4982C84.7726 555.318 81.5035 545.561 87.6053 540.826C113.629 520.589 171.965 514.136 171.965 514.136L181.923 499.114" stroke="#564499"/>
<path d="M455.863 425.507C455.863 425.507 473.31 442.081 467.866 493.464C467.469 497.133 466.194 500.652 464.146 503.722L462.251 506.584C459.142 511.239 454.454 514.613 449.053 516.083C437.657 519.195 416.984 526.406 404.215 540.069C398.821 545.856 402.835 555.284 410.746 555.284C412.221 555.288 413.675 554.927 414.977 554.233C416.278 553.539 417.388 552.533 418.207 551.307C423.408 543.481 439.152 526.863 477.13 527.214C519.964 527.607 537.218 544.64 542.748 551.979C543.512 553.003 544.503 553.834 545.645 554.408C546.786 554.981 548.045 555.281 549.322 555.284C550.923 555.28 552.488 554.81 553.826 553.931C555.163 553.051 556.215 551.8 556.852 550.332C557.489 548.863 557.684 547.24 557.413 545.663C557.141 544.085 556.415 542.62 555.324 541.449C538.62 523.301 518.19 516.534 506.917 514.023C501.253 512.802 496.249 509.509 492.889 504.788C490.316 501.147 488.853 496.838 488.675 492.384C488.046 476.453 487.717 437.782 498.511 425.521" fill="#564499"/>
<path d="M455.863 425.507C455.863 425.507 473.31 442.081 467.866 493.464C467.469 497.133 466.194 500.652 464.146 503.722L462.251 506.584C459.142 511.239 454.454 514.613 449.053 516.083C437.657 519.195 416.984 526.406 404.215 540.069C398.821 545.856 402.835 555.284 410.746 555.284C412.221 555.288 413.675 554.927 414.977 554.233C416.278 553.539 417.388 552.533 418.207 551.307C423.408 543.481 439.152 526.863 477.13 527.214C519.964 527.607 537.218 544.64 542.748 551.979C543.512 553.003 544.503 553.834 545.645 554.408C546.786 554.981 548.045 555.281 549.322 555.284C550.923 555.28 552.488 554.81 553.826 553.931C555.163 553.051 556.215 551.8 556.852 550.332C557.489 548.863 557.684 547.24 557.413 545.663C557.141 544.085 556.415 542.62 555.324 541.449C538.62 523.301 518.19 516.534 506.917 514.023C501.253 512.802 496.249 509.509 492.889 504.788C490.316 501.147 488.853 496.838 488.675 492.384C488.046 476.453 487.717 437.782 498.511 425.521" stroke="#564499"/>
<path d="M233.649 416.929C264.33 402.036 297.629 392.264 330.37 383.065C363.319 373.809 396.589 365.732 429.96 358.143C443.294 355.117 456.75 352.42 470.019 349.008" stroke="#564499" stroke-miterlimit="10"/>
<path d="M262.435 302.44H262.457H262.472" stroke="#564499" stroke-miterlimit="10"/>
<path d="M258.994 300.502C257.069 302.405 250.202 312.57 248.478 314.394C239.007 324.544 228.946 334.127 218.348 343.093C215.68 345.311 212.854 347.6 209.878 349.918C209.292 350.368 208.684 350.84 208.076 351.291C187.903 366.599 161.578 381.335 137.257 371.893C136.613 371.657 135.984 371.385 135.361 371.106C98.0562 354.403 71.982 312.57 69.7072 272.189C69.6286 270.872 69.5856 269.563 69.5713 268.269C69.371 257.231 71.002 246.193 81.5891 240.37" stroke="#564499" stroke-miterlimit="10"/>
<path d="M55.2289 257.116L55.3792 255.943C57.7541 236.9 30.7143 230.476 24.2977 248.567C9.1754 291.259 -7.73525 383.452 85.8169 461.567C146.199 512.006 243.957 512.356 304.11 461.403C312.48 454.314 321.142 446.166 326.715 436.616C340.814 412.466 319.283 393.102 294.997 399.046" stroke="#564499" stroke-miterlimit="10"/>
<path d="M203.769 499.364L213.183 512.684C213.183 512.684 270.146 514.902 301.32 541.069C307.086 545.912 303.638 555.318 296.113 555.318C294.226 555.325 292.398 554.661 290.955 553.444C283.594 547.264 255.474 527.835 191.866 527.248C129.889 526.669 106.118 545.847 99.5443 552.836C98.7947 553.626 97.8912 554.253 96.8897 554.68C95.8882 555.107 94.8102 555.324 93.7215 555.318H92.4982C84.7726 555.318 81.5035 545.561 87.6053 540.826C113.629 520.589 171.965 514.136 171.965 514.136L181.923 499.114" stroke="#564499" stroke-miterlimit="10"/>
<path d="M171.965 303.436C195.843 296.998 205.679 263.312 209.642 240.665" stroke="#564499" stroke-miterlimit="10"/>
<path d="M149.518 267.244C156.151 266.376 162.451 263.821 167.815 259.823C173.179 255.825 177.429 250.519 180.156 244.411C180.727 243.195 181.005 241.864 180.967 240.522C180.93 239.18 180.579 237.866 179.942 236.685C177.338 231.864 173.453 226.277 174.376 220.497C175.041 216.419 178.396 213.551 182.245 212.628C184.196 212.117 186.25 212.152 188.182 212.728C189.34 213.057 190.411 213.638 191.317 214.431C192.222 215.224 192.94 216.208 193.419 217.314C194.356 219.51 193.24 221.684 191.516 223.115C189.792 224.546 187.774 225.054 185.671 225.626C185.4 225.704 184.656 225.862 183.833 226.019" stroke="#564499" stroke-miterlimit="10"/>
<path d="M469.991 348.994C469.991 348.994 517.06 339.137 525.902 324.937C527.559 322.348 528.592 319.41 528.92 316.353" stroke="white" stroke-miterlimit="10"/>
<path d="M537.476 425.507H423.222" stroke="#564499" stroke-miterlimit="10"/>
<path d="M400.159 402.429C400.176 396.313 402.613 390.453 406.936 386.127C411.26 381.803 417.121 379.364 423.236 379.345H537.504C543.621 379.362 549.483 381.8 553.808 386.125C558.134 390.45 560.571 396.313 560.589 402.429" stroke="#564499" stroke-miterlimit="10"/>
<path d="M562.835 410.614C562.84 412.572 562.459 414.512 561.712 416.321C560.965 418.132 559.867 419.776 558.483 421.16C557.098 422.544 555.453 423.641 553.643 424.387C551.832 425.133 549.892 425.514 547.934 425.507H412.735C409.35 425.187 406.227 423.551 404.036 420.953C401.845 418.353 400.761 414.998 401.018 411.609C401.275 408.219 402.852 405.065 405.409 402.826C407.967 400.586 411.301 399.44 414.695 399.633H549.894C552.294 399.63 554.66 400.207 556.787 401.317C558.915 402.427 560.742 404.036 562.112 406.007C562.591 407.496 562.835 409.05 562.835 410.614Z" fill="#BBB4D6"/>
<path d="M562.835 410.613C562.84 412.571 562.458 414.511 561.711 416.321C560.965 418.13 559.867 419.775 558.482 421.159C557.098 422.543 555.452 423.64 553.642 424.386C551.832 425.132 549.892 425.513 547.934 425.506H412.735C410.751 425.55 408.778 425.197 406.933 424.468C405.088 423.738 403.406 422.648 401.988 421.26C400.57 419.872 399.442 418.216 398.673 416.386C397.903 414.558 397.507 412.594 397.507 410.609C397.507 408.625 397.903 406.661 398.673 404.831C399.442 403.002 400.57 401.346 401.988 399.958C403.406 398.57 405.088 397.48 406.933 396.751C408.778 396.022 410.751 395.669 412.735 395.712H547.934C551.082 395.711 554.149 396.706 556.695 398.555C559.243 400.404 561.138 403.012 562.112 406.006C562.591 407.495 562.834 409.049 562.835 410.613Z" stroke="#564499" stroke-miterlimit="10"/>
<path d="M209.385 240.134L209.113 242.431C208.989 243.473 208.487 244.433 207.703 245.13C206.918 245.828 205.906 246.213 204.857 246.215H189.999C188.95 246.213 187.938 245.828 187.153 245.13C186.369 244.433 185.867 243.473 185.743 242.431L183.826 225.978C184.648 225.821 185.392 225.663 185.664 225.584C187.767 225.012 189.806 224.526 191.509 223.074C193.211 221.621 194.37 219.497 193.411 217.272C192.933 216.168 192.215 215.183 191.31 214.39C190.404 213.597 189.333 213.015 188.175 212.687C186.242 212.11 184.189 212.075 182.238 212.587L181.787 208.667C181.721 208.068 181.781 207.461 181.965 206.888C182.148 206.313 182.451 205.785 182.852 205.335C183.254 204.885 183.746 204.526 184.295 204.279C184.845 204.032 185.441 203.904 186.043 203.902H208.841C209.444 203.905 210.038 204.034 210.587 204.281C211.136 204.528 211.627 204.888 212.027 205.337C212.428 205.787 212.73 206.315 212.913 206.889C213.096 207.463 213.157 208.068 213.09 208.667L212.561 213.138" stroke="#564499" stroke-miterlimit="10"/>
<path d="M211.367 223.359L211.345 223.517" stroke="#564499" stroke-miterlimit="10"/>
<path d="M210.25 232.81V232.745" stroke="#564499" stroke-miterlimit="10"/>
<path d="M211.884 232.814C208.594 232.616 208.181 233.162 207.501 233.791C206.82 234.421 206.401 235.284 206.326 236.208C206.252 237.131 206.527 238.05 207.097 238.781C207.667 239.512 208.491 240.002 209.406 240.154C209.8 240.232 210.058 240.266 210.831 240.266C212.69 240.348 213.771 239.776 215.208 237.607C216.795 234.996 217.186 234.206 217.718 232.256C218.151 230.482 218.743 227.798 218.743 227.798C219.179 225.584 219.065 224.552 218.956 222.299M218.956 222.299C218.956 221.333 218.834 220.375 218.72 219.437C218.502 217.869 217.785 216.414 216.676 215.284C215.567 214.155 214.125 213.411 212.561 213.164C212.482 213.164 212.389 213.164 212.31 213.121C209.306 212.749 205.093 213.886 204.313 217.277C203.598 220.339 206.917 222.964 209.642 223.2C209.642 223.2 210.358 223.293 211.366 223.358C213.383 223.493 216.738 223.472 218.956 222.299Z" stroke="#564499" stroke-miterlimit="10"/>
<path d="M213.546 223.417H213.052H209.239L207.535 223.417C206.398 223.421 205.382 223.966 204.559 224.75C203.735 225.533 203.243 226.602 203.183 227.737C203.127 228.84 203.482 229.924 204.181 230.78C204.878 231.637 205.868 232.204 206.96 232.373C211.896 233.167 217.532 233.331 218.498 228.911" stroke="#564499" stroke-miterlimit="10"/>
<path d="M455.863 425.507C455.863 425.507 473.31 442.081 467.866 493.464C467.469 497.133 466.194 500.652 464.146 503.722L462.251 506.584C459.142 511.239 454.454 514.613 449.053 516.083C437.657 519.195 416.984 526.406 404.215 540.069C398.821 545.856 402.835 555.284 410.746 555.284C412.221 555.288 413.675 554.927 414.977 554.233C416.278 553.539 417.388 552.533 418.207 551.307C423.408 543.481 439.152 526.863 477.13 527.214C519.964 527.607 537.218 544.64 542.748 551.979C543.512 553.003 544.503 553.834 545.645 554.408C546.786 554.981 548.045 555.281 549.322 555.284C550.923 555.28 552.488 554.81 553.826 553.931C555.163 553.051 556.215 551.8 556.852 550.332C557.489 548.863 557.684 547.24 557.413 545.663C557.141 544.085 556.415 542.62 555.324 541.449C538.62 523.301 518.19 516.534 506.917 514.023C501.253 512.802 496.249 509.509 492.889 504.788C490.316 501.147 488.853 496.838 488.675 492.384C488.046 476.453 487.717 437.782 498.511 425.521" stroke="#564499" stroke-miterlimit="10"/>
<path opacity="0.7" d="M419.595 305.407V306.566C419.595 314.499 413.2 315.865 407.677 316.001L300.798 318.491C296.113 318.605 292.171 314.513 292.071 309.392V309.177C292.071 304.17 295.762 299.985 300.383 299.878C300.383 299.878 360.179 298.189 406.475 296.916C407.363 299.72 409.509 301.88 412.198 303.576C414.427 304.909 417.002 305.546 419.595 305.407Z" stroke="#564499" stroke-miterlimit="10"/>
<path opacity="0.7" d="M476.407 192.312C476.413 193.617 476.114 194.905 475.535 196.074L427.736 294.062C427.175 295.199 426.372 296.201 425.383 296.995C424.395 297.789 423.245 298.358 422.013 298.661C420.039 299.167 417.95 298.954 416.118 298.061C414.65 297.338 413.415 296.216 412.554 294.825C411.693 293.434 411.24 291.829 411.247 290.192C411.25 289.79 411.279 289.389 411.333 288.99C411.46 288.103 411.725 287.242 412.12 286.436L459.912 188.435C460.775 186.676 462.209 185.261 463.978 184.422C465.748 183.582 467.75 183.366 469.659 183.811C471.567 184.254 473.268 185.331 474.487 186.866C475.704 188.401 476.366 190.302 476.364 192.262L476.407 192.312Z" stroke="#564499" stroke-miterlimit="10"/>
<path d="M89.4366 182.641C89.3794 182.441 89.3007 182.248 89.2363 182.055C89.172 181.861 89.079 181.64 89.0217 181.425" stroke="#564499" stroke-linecap="round" stroke-linejoin="round"/>
<path d="M89.4363 182.648L90.9027 181.174L93.7069 178.335" stroke="#564499" stroke-linecap="round" stroke-linejoin="round"/>
<path d="M105.939 186.527C105.939 186.527 107.821 192.143 115.01 192.522" stroke="#564499" stroke-miterlimit="10"/>
<path d="M73.9639 199.68C67.5258 202.935 60.2222 195.896 60.7301 190.095C61.0591 186.118 60.1578 183.371 57.2177 180.488C57.0246 180.295 56.8458 180.094 56.6741 179.901C55.5546 178.684 54.8271 177.158 54.5846 175.521C54.3421 173.885 54.5967 172.213 55.3149 170.723C56.6526 167.612 59.5354 165.788 57.5325 162.433C56.6533 160.982 56.0117 159.4 55.6297 157.747C55.2298 155.555 55.3049 153.303 55.8493 151.142C56.3937 148.982 57.3944 146.963 58.7843 145.222C61.7315 141.645 66.5315 142.632 70.473 141.38C75.2157 139.871 77.4333 134.77 82.412 133.204C84.9014 132.424 87.212 132.775 89.7014 133.34C91.7973 133.833 93.9004 134.384 95.9391 135.028C97.9778 135.672 99.8377 136.223 101.876 135.614C104.545 134.835 106.598 132.381 109.502 132.36C112.406 132.338 114.638 134.048 115.94 136.437C118 140.186 118.015 145.636 116.076 148.87C114.073 152.218 109.881 153.634 106.276 154.356C101.669 155.301 96.9048 155.551 92.2408 155.966L89.5297 156.631C88.4982 156.952 87.6362 157.667 87.1319 158.622C86.6275 159.577 86.5224 160.693 86.84 161.724C88.5175 167.497 90.8252 173.068 93.7216 178.335" stroke="#564499" stroke-miterlimit="10"/>
<path d="M93.7073 200.502C93.7073 200.502 107.9 210.896 115.99 205.166C124.081 199.437 119.51 182.64 119.51 182.64" stroke="#564499" stroke-linecap="round" stroke-linejoin="round"/>
<path d="M193.991 196.727C193.991 196.727 187.96 192.649 191.795 188.486C195.629 184.323 190.521 178.829 190.521 178.829" stroke="#564499" stroke-miterlimit="10"/>
<path d="M199.556 197.434C199.556 197.434 203.548 194.737 200.987 191.976C198.426 189.215 201.838 185.538 201.838 185.538" stroke="#564499" stroke-miterlimit="10"/>
<path d="M227.061 158.579C270.487 158.579 305.691 123.375 305.691 79.9488C305.691 36.5227 270.487 1.3186 227.061 1.3186C183.635 1.3186 148.431 36.5227 148.431 79.9488C148.431 123.375 183.635 158.579 227.061 158.579Z" stroke="#564499" stroke-miterlimit="10"/>
<path d="M227.061 123.132C250.911 123.132 270.246 103.797 270.246 79.9467C270.246 56.0958 250.911 36.7616 227.061 36.7616C203.21 36.7616 183.876 56.0958 183.876 79.9467C183.876 103.797 203.21 123.132 227.061 123.132Z" stroke="#564499" stroke-miterlimit="10"/>
<path d="M227.061 87.3498C231.15 87.3498 234.465 84.0349 234.465 79.946C234.465 75.8571 231.15 72.5422 227.061 72.5422C222.972 72.5422 219.657 75.8571 219.657 79.946C219.657 84.0349 222.972 87.3498 227.061 87.3498Z" stroke="#564499" stroke-miterlimit="10"/>
<path d="M242.391 55.226L230.959 73.6531" stroke="#564499" stroke-miterlimit="10"/>
<path d="M227.061 36.7616V44.4443" stroke="#564499" stroke-miterlimit="10"/>
<path d="M270.246 79.9473H262.964" stroke="#564499" stroke-miterlimit="10"/>
<path d="M227.061 123.14V115.672" stroke="#564499" stroke-miterlimit="10"/>
<path d="M183.869 79.9473H190.435" stroke="#564499" stroke-miterlimit="10"/>
<path d="M302.422 210.684C318.58 210.684 331.679 197.584 331.679 181.426C331.679 165.267 318.58 152.169 302.422 152.169C286.264 152.169 273.165 165.267 273.165 181.426C273.165 197.584 286.264 210.684 302.422 210.684Z" fill="url(#paint0_linear_112_1076)" stroke="#564499"/>
<path d="M312.043 171.654C311.631 170.703 311.076 169.82 310.398 169.036C309.239 167.665 307.619 166.763 305.843 166.499C304.067 166.236 302.255 166.629 300.748 167.605C299.765 168.246 298.943 169.106 298.348 170.117C297.752 171.129 297.398 172.264 297.315 173.435C295.774 172.871 294.093 172.822 292.523 173.297C290.953 173.771 289.58 174.744 288.611 176.068C287.642 177.391 287.13 178.993 287.151 180.634C287.172 182.273 287.727 183.862 288.731 185.16C290.826 187.892 294.389 189.688 297.615 190.732C299.307 191.274 301.049 191.643 302.816 191.834C303.71 191.934 308.81 192.621 309.254 191.834C312.437 186.855 314.697 177.734 312.043 171.654Z" fill="white" stroke="#564499"/>
<path opacity="0.2" d="M375.344 169.315C384.241 169.315 391.453 162.103 391.453 153.206C391.453 144.309 384.241 137.096 375.344 137.096C366.447 137.096 359.234 144.309 359.234 153.206C359.234 162.103 366.447 169.315 375.344 169.315Z" fill="url(#paint1_linear_112_1076)" stroke="#564499"/>
<path d="M382.333 156.059C382.732 155.653 383.065 155.187 383.32 154.678C383.779 153.801 383.903 152.786 383.667 151.825C383.432 150.863 382.853 150.021 382.04 149.456C381.508 149.089 380.899 148.85 380.26 148.758C379.621 148.667 378.969 148.725 378.356 148.927C378.321 148.024 377.994 147.157 377.423 146.457C376.853 145.757 376.07 145.261 375.193 145.044C374.316 144.828 373.392 144.903 372.561 145.257C371.731 145.611 371.038 146.227 370.587 147.01C369.711 148.781 369.37 150.77 369.607 152.733C369.688 153.701 369.864 154.66 370.136 155.594C370.272 156.073 370.988 158.813 371.474 158.899C374.672 159.435 379.793 158.684 382.333 156.059Z" fill="white" stroke="#564499"/>
<path d="M352.259 229.278L344.601 245.471C341.824 251.343 344.333 258.353 350.205 261.13L366.397 268.788C372.269 271.565 379.28 269.056 382.057 263.184L389.714 246.992C392.491 241.12 389.982 234.109 384.11 231.333L367.918 223.675C362.046 220.898 355.035 223.407 352.259 229.278Z" fill="url(#paint2_linear_112_1076)" stroke="#564499"/>
<path d="M385.344 249.826L379.8 261.551C378.637 263.993 376.555 265.876 374.009 266.789C371.462 267.701 368.658 267.569 366.209 266.422L352.145 259.77C349.705 258.605 347.823 256.523 346.913 253.976C346.001 251.43 346.134 248.627 347.281 246.178L347.653 245.391C351.473 242.344 358.075 238.238 360.486 243.825C363.956 251.894 368.469 249.29 374.235 245.913C379.049 243.066 384.829 242.115 385.344 249.826Z" fill="white" stroke="#564499"/>
<path d="M363.562 237.366C365.952 237.366 367.89 235.428 367.89 233.038C367.89 230.647 365.952 228.71 363.562 228.71C361.172 228.71 359.234 230.647 359.234 233.038C359.234 235.428 361.172 237.366 363.562 237.366Z" fill="white" stroke="#564499"/>
<path d="M437.4 176.168C438.26 177.737 438.885 179.424 439.252 181.175C439.908 184.379 439.719 187.698 438.706 190.806C437.693 193.915 435.889 196.707 433.472 198.909C431.555 200.604 429.116 201.927 427.177 203.701C425.763 204.922 424.722 206.516 424.173 208.301C424.073 208.911 423.827 209.488 423.458 209.982C422.327 211.198 421.219 209.267 420.239 208.938C418.659 208.424 416.946 208.508 415.424 209.174C411.423 210.847 406.968 211.084 402.811 209.847C398.655 208.609 395.056 205.972 392.621 202.383C390.188 198.794 389.07 194.474 389.458 190.155C389.847 185.836 391.716 181.784 394.751 178.686C397.748 175.631 401.668 173.679 405.481 171.69C408.815 169.923 412.134 168.042 415.753 166.983C424.237 164.444 433.293 168.671 437.4 176.168Z" fill="url(#paint3_linear_112_1076)" stroke="#564499"/>
<path d="M403.235 198.265C405.487 198.265 407.312 196.439 407.312 194.187C407.312 191.936 405.487 190.11 403.235 190.11C400.983 190.11 399.157 191.936 399.157 194.187C399.157 196.439 400.983 198.265 403.235 198.265Z" fill="white" stroke="#564499"/>
<path d="M414.216 192.391C416.468 192.391 418.293 190.565 418.293 188.314C418.293 186.062 416.468 184.236 414.216 184.236C411.964 184.236 410.138 186.062 410.138 188.314C410.138 190.565 411.964 192.391 414.216 192.391Z" fill="white" stroke="#564499"/>
<path d="M424.516 186.884C426.768 186.884 428.594 185.058 428.594 182.806C428.594 180.554 426.768 178.729 424.516 178.729C422.265 178.729 420.439 180.554 420.439 182.806C420.439 185.058 422.265 186.884 424.516 186.884Z" fill="white" stroke="#564499"/>
<path d="M300.197 51.0405C300.197 51.0405 327.044 134.077 430.389 129.592C464.726 125.3 505.593 129.592 541.982 177.52C597.3 250.427 575.088 331.646 549.951 383.201" stroke="#564499" stroke-miterlimit="10"/>
<path d="M449.582 83.6522C449.48 84.9048 449.287 86.148 449.003 87.372L445.784 101.335C444.796 105.627 443.688 110.12 440.626 113.253C434.903 119.09 425.389 117.752 417.435 115.986L397.906 111.651C393.421 110.656 388.864 109.633 384.844 107.409C380.823 105.184 377.333 101.543 376.403 97.0434C375.687 93.7242 376.453 90.2906 377.182 86.9857L380.13 73.5802C381.11 69.188 382.211 64.5526 385.38 61.355C391.024 55.6681 400.402 56.9628 408.2 58.6582L428.2 63.0075C440.261 65.6113 450.541 71.2053 449.582 83.6522Z" fill="url(#paint4_linear_112_1076)" stroke="#564499"/>
<path d="M422.649 84.0248C423.486 84.8024 424.103 85.7866 424.438 86.8783C424.773 87.9706 424.815 89.1316 424.559 90.2447C424.303 91.3577 423.758 92.3835 422.98 93.2198C422.202 94.0553 421.217 94.6712 420.124 95.0053L414.173 96.8294L408.221 98.6535C407.129 98.9875 405.968 99.0283 404.855 98.7715C403.742 98.5147 402.716 97.9703 401.88 97.1913C401.045 96.413 400.429 95.4287 400.094 94.3364C399.759 93.2448 399.717 92.0838 399.973 90.9707L401.404 84.9046L402.799 78.8457C403.053 77.7319 403.597 76.7054 404.375 75.8685C405.154 75.0322 406.138 74.4149 407.23 74.0801C408.323 73.7446 409.484 73.7038 410.597 73.9599C411.71 74.2167 412.736 74.7618 413.572 75.5408L418.128 79.7828L422.649 84.0248Z" fill="white" stroke="#564499"/>
<path d="M27.8098 555.286H645.521" stroke="#564499" stroke-miterlimit="10"/>
<defs>
<linearGradient id="paint0_linear_112_1076" x1="302.422" y1="152.169" x2="302.422" y2="210.684" gradientUnits="userSpaceOnUse">
<stop stop-color="#EF3922"/>
<stop offset="1" stop-color="#564499"/>
</linearGradient>
<linearGradient id="paint1_linear_112_1076" x1="375.344" y1="137.096" x2="375.344" y2="169.315" gradientUnits="userSpaceOnUse">
<stop stop-color="#EF3922"/>
<stop offset="1" stop-color="#564499"/>
</linearGradient>
<linearGradient id="paint2_linear_112_1076" x1="367.158" y1="222.543" x2="367.158" y2="269.92" gradientUnits="userSpaceOnUse">
<stop stop-color="#EF3922"/>
<stop offset="1" stop-color="#564499"/>
</linearGradient>
<linearGradient id="paint3_linear_112_1076" x1="414.509" y1="166.243" x2="414.509" y2="210.629" gradientUnits="userSpaceOnUse">
<stop stop-color="#EF3922"/>
<stop offset="1" stop-color="#564499"/>
</linearGradient>
<linearGradient id="paint4_linear_112_1076" x1="412.88" y1="57.2125" x2="412.88" y2="117.495" gradientUnits="userSpaceOnUse">
<stop stop-color="#EF3922"/>
<stop offset="1" stop-color="#564499"/>
</linearGradient>
</defs>
</svg>
