<svg width="646" height="556" viewBox="0 0 646 556" fill="none" xmlns="http://www.w3.org/2000/svg">
<path d="M210.929 314.668C218.034 325.812 230.824 332.172 230.824 332.172C238.842 325.233 249.671 312.526 254.083 307.04L259.542 310.106C269.564 315.566 280.334 306.815 288.711 298.439C295.412 291.738 291.503 284.827 288.711 282.209C291.852 284.079 298.882 288.552 301.874 291.483C305.613 295.148 311.447 296.345 314.064 292.979C316.682 289.614 316.832 285.276 313.84 282.434C310.848 279.592 299.929 266.877 277.716 260.221C255.504 253.565 234.039 267.027 226.261 274.805C220.038 281.028 211.502 289.364 208.012 292.755C208.012 292.755 203.824 303.525 210.929 314.668Z" fill="white"/>
<path d="M73.813 200.064L69.4922 234.952C75.2494 229.136 91.5739 219.673 110.814 228.35L106.688 206.303C109.734 207.482 116.591 207.848 119.656 199.878C121.26 195.398 120.207 186.301 119.479 182.312C120.383 182.292 122.58 181.711 124.136 179.541C121.68 177.164 116.473 171.713 115.294 168.931C113.821 165.453 117.004 158.497 111.463 152.367L77.2143 152.779L69.728 177.537L73.813 200.064Z" fill="white"/>
<path d="M238.378 324.744C320.477 316.024 413.142 317.312 413.142 317.312H465.148C468.508 317.317 471.858 316.923 475.127 316.139C483.11 314.236 498.847 310.065 511.337 304.178C519.807 300.179 529.686 306.589 528.963 315.945C528.963 316.06 528.963 316.181 528.92 316.317C530.571 316.318 532.196 316.717 533.659 317.478C535.123 318.241 536.381 319.345 537.328 320.697C538.273 322.049 538.88 323.609 539.095 325.245C539.31 326.881 539.128 328.545 538.563 330.095C521.023 378.302 469.991 376.792 469.991 376.792C463.467 376.985 456.957 377.243 450.426 377.579C392.891 380.376 335.864 388.452 280.039 402.709C264.53 406.651 249.179 412.273 233.656 416.923C220.423 420.922 207.053 424.191 193.311 425.192C166.729 427.116 139.46 420.249 117.549 404.884C69.5572 371.205 28.2535 300.988 61.5025 243.989C73.2412 223.874 99.8233 218.366 118.351 232.544C144.482 252.538 165.356 291.488 176.064 314.465" fill="white"/>
<path d="M238.378 324.744C320.477 316.024 413.142 317.312 413.142 317.312H465.148C468.508 317.317 471.858 316.923 475.127 316.139C483.11 314.236 498.847 310.065 511.337 304.178C519.807 300.179 529.686 306.589 528.963 315.945C528.963 316.06 528.963 316.181 528.92 316.317C530.571 316.318 532.196 316.717 533.659 317.478C535.123 318.241 536.381 319.345 537.328 320.697C538.273 322.049 538.88 323.609 539.095 325.245C539.31 326.881 539.128 328.545 538.563 330.095C521.023 378.302 469.991 376.792 469.991 376.792C463.467 376.985 456.957 377.243 450.426 377.579C392.891 380.376 335.864 388.452 280.039 402.709C264.53 406.651 249.179 412.273 233.656 416.923C220.423 420.922 207.053 424.191 193.311 425.192C166.729 427.116 139.46 420.249 117.549 404.884C69.5572 371.205 28.2535 300.988 61.5025 243.989C73.2412 223.874 99.8233 218.366 118.351 232.544C144.482 252.538 165.356 291.488 176.064 314.465" stroke="#564499" stroke-miterlimit="10"/>
<path d="M116.076 148.848C114.073 152.196 109.881 153.612 106.276 154.335C101.669 155.279 96.9048 155.53 92.2408 155.944L89.5297 156.61C89.0168 156.768 88.5396 157.026 88.1269 157.369C87.7134 157.712 87.3722 158.133 87.1225 158.608C86.8722 159.083 86.7191 159.603 86.6704 160.139C86.6218 160.673 86.6797 161.212 86.84 161.724C88.5175 167.497 90.8251 173.067 93.7216 178.335L89.4295 182.627C88.2134 180.981 88.1562 178.099 86.5252 178.378C84.9586 176.811 83.0988 176.046 81.1745 178.142C77.4118 182.255 78.0198 190.803 83.5494 193.164L82.3119 199.323C81.8848 201.476 80.7253 203.415 79.0299 204.809C77.3338 206.204 75.2078 206.967 73.0124 206.97L73.9639 199.68C67.5258 202.935 60.2222 195.896 60.7301 190.095C61.0591 186.118 60.1578 183.371 57.2177 180.488C57.0246 180.295 58.2049 179.579 58.0261 179.386C57.1963 176.875 57.0818 173.942 57.9045 172.283C59.3351 169.321 63.5485 167.59 61.6099 164.357C60.7594 162.948 60.1385 161.412 59.7715 159.807C59.3824 157.68 59.4532 155.494 59.9804 153.396C60.5076 151.298 61.4776 149.338 62.826 147.647C65.6874 144.213 70.3371 145.136 74.1355 143.92C78.7638 142.489 80.9027 137.532 85.7455 136.001C88.1562 135.235 90.3881 135.586 92.7988 136.137C94.8375 136.609 96.8548 137.138 98.8577 137.768C100.861 138.397 102.62 138.919 104.58 138.333C107.17 137.617 109.166 135.2 111.991 135.178C113.401 135.146 114.781 135.587 115.911 136.43C118 140.186 118.015 145.636 116.076 148.848Z" fill="#2C0CAD"/>
<path d="M26.3806 244.385C26.3806 244.385 -50.3338 159.808 64.3567 116.945C71.0072 114.506 77.9389 112.915 84.9871 112.209C103.293 110.264 143.76 103.346 148.424 79.9833" stroke="#564499" stroke-miterlimit="10"/>
<path d="M354.47 125.459V125.436" stroke="#564499" stroke-miterlimit="10"/>
<path d="M150.126 280.123V280.1" stroke="#564499" stroke-miterlimit="10"/>
<path d="M89.2361 182.055C88.4735 180.737 87.5665 179.508 86.5321 178.393C84.9655 176.826 83.1056 176.061 81.1813 178.156C77.4186 182.27 78.0267 190.818 83.5563 193.179L82.3187 199.338C81.8917 201.491 80.7321 203.429 79.0367 204.824C77.3407 206.218 75.2147 206.982 73.0193 206.985" stroke="#564499" stroke-linecap="round" stroke-linejoin="round"/>
<path d="M69.5571 234.238C69.8719 231.849 70.6516 225.576 71.4027 219.595C72.118 214.051 72.7547 208.715 73.0051 206.955L73.9636 199.68" stroke="#564499" stroke-linecap="round" stroke-linejoin="round"/>
<path d="M113.722 162.555C113.722 162.555 104.587 163.006 102.821 170.567" stroke="#564499" stroke-miterlimit="10"/>
<path d="M117.042 182.534C119.531 182.47 122.764 182.105 123.938 179.58L117.643 172.634C116.107 170.932 115.198 168.757 115.067 166.468C114.817 162.627 115.268 156.532 111.591 152.476" stroke="#564499" stroke-miterlimit="10"/>
<path d="M111.438 169.644L111.438 169.644C112.145 170.283 112.187 171.59 111.288 172.584C110.388 173.579 109.084 173.67 108.376 173.03C107.669 172.391 107.628 171.084 108.527 170.09L108.527 170.089C109.426 169.094 110.73 169.004 111.438 169.644Z" fill="#564499" stroke="#564499"/>
<path d="M111.04 228.159L106.514 206.358" stroke="#564499" stroke-miterlimit="10"/>
<path d="M117.836 404.481C139.646 419.775 166.798 426.609 193.273 424.7C198.719 424.274 204.137 423.546 209.503 422.52C209.511 422.517 209.52 422.513 209.531 422.509C209.577 422.49 209.647 422.46 209.738 422.419C209.921 422.335 210.189 422.204 210.52 422.016C211.182 421.64 212.095 421.04 213.081 420.147C215.051 418.365 217.322 415.41 218.477 410.726C220.788 401.346 218.644 384.902 200.282 356.9L200.036 356.524L200.384 356.239L230.383 331.709C230.165 331.584 229.897 331.427 229.585 331.24C228.678 330.697 227.4 329.897 225.904 328.866C222.914 326.806 219.047 323.818 215.556 320.111C209.076 313.229 203.788 303.741 208.088 293.115C198.595 301.962 188.334 310.058 176.223 314.956L175.782 315.135L175.582 314.703C174.168 311.653 172.567 308.324 170.803 304.802L170.802 304.8C164.415 291.9 157.173 279.44 149.126 267.504M117.836 404.481C117.836 404.481 117.836 404.481 117.836 404.481L117.549 404.89L117.836 404.481ZM117.836 404.481C95.7264 388.968 75.0399 365.684 62.4535 339.529C49.8676 313.375 45.4007 284.396 55.6389 257.45L55.6392 257.449C57.3625 252.89 59.4685 248.483 61.9336 244.277L61.9346 244.276C64.044 240.646 66.7297 237.383 69.8863 234.615M69.8863 234.615C75.4107 229.779 82.2138 226.64 89.4787 225.577L89.4063 225.082L89.4787 225.577C96.7428 224.514 104.16 225.571 110.839 228.62L110.839 228.62C113.395 229.787 115.813 231.236 118.047 232.94M69.8863 234.615L69.557 234.239M69.8863 234.615C69.8865 234.615 69.8866 234.615 69.8867 234.614L69.557 234.239M118.047 232.94C129.568 241.758 140.063 254.306 149.126 267.504M118.047 232.94L118.35 232.543M118.047 232.94C118.047 232.94 118.047 232.941 118.047 232.941L118.35 232.543M149.126 267.504C149.126 267.504 149.125 267.503 149.125 267.502L149.539 267.223M149.126 267.504C149.126 267.505 149.127 267.505 149.127 267.506L149.539 267.223M149.539 267.223C140.462 254.003 129.932 241.406 118.35 232.543M149.539 267.223C157.599 279.178 164.853 291.657 171.25 304.578C173.017 308.105 174.619 311.438 176.035 314.493L118.35 232.543M118.35 232.543C116.087 230.816 113.637 229.348 111.047 228.165M118.35 232.543L111.047 228.165M209.642 423.003C209.469 422.534 209.468 422.534 209.468 422.534L209.642 423.003ZM209.642 423.003C204.243 424.036 198.791 424.77 193.311 425.199L200.7 356.626C237.476 412.709 209.642 423.003 209.642 423.003ZM111.047 228.165C104.28 225.076 96.7657 224.005 89.4063 225.082C82.0461 226.159 75.1538 229.339 69.557 234.239M111.047 228.165L61.5023 244.024M69.557 234.239C66.3594 237.043 63.639 240.348 61.5023 244.024M61.5023 244.024C59.0229 248.254 56.9048 252.686 55.1715 257.272L61.5023 244.024Z" fill="white" stroke="#564499"/>
<path opacity="0.4" d="M117.837 404.481C139.646 419.775 166.798 426.609 193.273 424.7C198.719 424.274 204.137 423.546 209.504 422.52C209.511 422.517 209.521 422.513 209.531 422.509C209.577 422.49 209.647 422.46 209.738 422.419C209.921 422.335 210.189 422.204 210.52 422.016C211.182 421.64 212.095 421.04 213.081 420.147C215.051 418.365 217.323 415.41 218.477 410.726C220.788 401.346 218.645 384.902 200.283 356.9L200.036 356.524L200.384 356.239L230.383 331.709C230.165 331.584 229.897 331.427 229.585 331.24C228.679 330.697 227.4 329.897 225.904 328.866C222.914 326.806 219.047 323.818 215.556 320.111C209.076 313.229 203.788 303.741 208.088 293.115C198.596 301.962 188.334 310.058 176.223 314.956L175.782 315.135L175.582 314.703C174.168 311.653 172.568 308.324 170.803 304.802L170.802 304.8C164.415 291.9 157.173 279.44 149.126 267.504M117.837 404.481C117.837 404.481 117.837 404.481 117.837 404.481L117.549 404.89L117.837 404.481ZM117.837 404.481C95.7266 388.968 75.0402 365.684 62.4538 339.529C49.8678 313.375 45.401 284.396 55.6392 257.45L55.6395 257.449C57.3628 252.89 59.4687 248.483 61.9339 244.277L61.9348 244.276C64.0442 240.646 66.7299 237.383 69.8866 234.615M69.8866 234.615C75.411 229.779 82.2141 226.64 89.4789 225.577L89.4065 225.082L89.479 225.577C96.7431 224.514 104.16 225.571 110.839 228.62L110.839 228.62C113.395 229.787 115.813 231.236 118.047 232.94M69.8866 234.615L69.5573 234.239M69.8866 234.615C69.8867 234.615 69.8868 234.615 69.8869 234.614L69.5573 234.239M118.047 232.94C129.568 241.758 140.063 254.306 149.126 267.504M118.047 232.94L118.351 232.543M118.047 232.94C118.047 232.94 118.047 232.941 118.047 232.941L118.351 232.543M149.126 267.504C149.126 267.504 149.125 267.503 149.125 267.502L149.539 267.223M149.126 267.504C149.127 267.505 149.127 267.505 149.127 267.506L149.539 267.223M149.539 267.223C140.462 254.003 129.932 241.406 118.351 232.543M149.539 267.223C157.599 279.178 164.853 291.657 171.25 304.578C173.017 308.105 174.619 311.438 176.036 314.493L118.351 232.543M118.351 232.543C116.087 230.816 113.637 229.348 111.047 228.165M118.351 232.543L111.047 228.165M209.642 423.003C209.469 422.534 209.469 422.534 209.468 422.534L209.642 423.003ZM209.642 423.003C204.243 424.036 198.791 424.77 193.311 425.199L200.701 356.626C237.476 412.709 209.642 423.003 209.642 423.003ZM111.047 228.165C104.281 225.076 96.766 224.005 89.4065 225.082C82.0464 226.159 75.1541 229.339 69.5573 234.239M111.047 228.165L61.5025 244.024M69.5573 234.239C66.3597 237.043 63.6393 240.348 61.5025 244.024M61.5025 244.024C59.0232 248.254 56.905 252.686 55.1718 257.272L61.5025 244.024Z" fill="#564499" stroke="#564499"/>
<path d="M209.878 349.915C209.292 350.366 208.684 350.838 208.076 351.289" stroke="#564499" stroke-miterlimit="10"/>
<path d="M119.51 254.898C127.616 270.421 135.724 285.973 143.831 301.553C149.947 313.313 160.284 320.574 174.841 315.001C190.679 308.935 203.455 297.339 215.272 285.522C227.09 273.704 239.064 262.402 256.125 259.355C278.179 255.413 299.046 267.431 314.068 282.618C315.224 283.776 315.955 285.29 316.143 286.915C316.331 288.541 315.966 290.182 315.105 291.574C314.553 292.464 313.815 293.225 312.943 293.804C312.071 294.384 311.083 294.768 310.049 294.932C309.014 295.095 307.957 295.034 306.948 294.752C305.939 294.47 305.003 293.974 304.203 293.298C297.086 287.224 285.504 278.44 277.45 278.326" stroke="#564499" stroke-miterlimit="10"/>
<path d="M255.474 299.163C257.949 300.815 261.383 302.647 264.244 302.647" stroke="#564499" stroke-miterlimit="10"/>
<path d="M287.192 281.338C292.472 283.949 294.396 291.589 290.669 296.153C285.943 302.016 280.023 306.805 273.301 310.202C265.947 313.872 261.226 311.633 253.986 307.155" stroke="#564499" stroke-miterlimit="10"/>
<path d="M274.975 288.184C274.975 288.184 285.433 290.773 285.154 300.924C285.135 301.357 285.058 301.785 284.925 302.197" stroke="#564499" stroke-miterlimit="10"/>
<path d="M267.585 294.578C267.585 294.578 281.613 303.641 274.939 309.342" stroke="#564499" stroke-miterlimit="10"/>
<path d="M538.094 329.929L538.093 329.93C529.889 352.481 514.312 364.065 500.119 370.02C486.994 375.528 475.057 376.218 471.255 376.291C473.265 371.38 473.555 363.212 468.999 349.62C472.219 344.827 473.912 339.169 473.852 333.391C473.793 327.756 472.069 322.269 468.904 317.618C471.041 317.455 473.161 317.118 475.244 316.61C483.234 314.705 499.012 310.518 511.55 304.615L511.551 304.615C519.697 300.769 529.156 306.944 528.465 315.885L528.463 315.904V315.923C528.463 316.047 528.461 316.09 528.444 316.145L528.238 316.796L528.921 316.795C530.494 316.795 532.044 317.173 533.439 317.9C534.834 318.626 536.033 319.679 536.934 320.969C537.835 322.259 538.41 323.747 538.613 325.307C538.815 326.867 538.637 328.453 538.094 329.929Z" fill="#564499" stroke="#564499"/>
<path d="M326.083 436.372L326.515 436.624L326.083 436.372C320.563 445.844 311.958 453.931 303.594 461.022C274.23 485.873 235.857 498.502 197.331 498.995C158.677 498.502 120.159 485.83 90.6582 461.199C43.9877 422.227 24.8926 379.76 19.336 341.727C13.7774 303.682 21.7625 270.04 29.3107 248.737C29.8289 247.301 30.5303 245.939 31.3974 244.682L31.3987 244.68C32.5418 243.008 34.0259 241.596 35.7534 240.539L35.7535 240.539C37.4621 239.492 39.3703 238.815 41.3562 238.55C49.0528 239.642 55.9694 246.017 54.7399 255.867L54.736 255.898V255.929C54.736 256.073 54.706 256.264 54.6614 256.503C54.6551 256.536 54.6484 256.571 54.6415 256.607C54.609 256.778 54.5725 256.969 54.5523 257.143C44.2257 284.402 48.782 313.65 61.4399 339.95C74.1068 366.269 94.9065 389.682 117.133 405.287L117.421 404.877L117.133 405.287C137.333 419.465 162.059 426.431 186.62 425.979L186.894 425.979L186.905 425.979C189.011 425.936 191.116 425.838 193.219 425.685C207.014 424.679 220.409 421.377 233.649 417.388C239.492 415.641 245.297 413.759 251.087 411.881C260.726 408.755 270.328 405.641 280.012 403.18L279.889 402.696L280.012 403.18C285.458 401.794 290.917 400.457 296.404 399.207C299.529 398.567 302.726 398.346 305.909 398.552C315.3 399.187 323.247 403.676 327.393 410.453C331.527 417.212 331.935 426.334 326.083 436.372Z" stroke="#564499"/>
<path d="M331.222 436.624L330.79 436.372C337.113 425.526 336.128 415.742 331.019 408.851C325.891 401.936 316.543 397.842 305.975 398.552L305.974 398.552C304.338 398.66 302.711 398.879 301.104 399.207C295.625 400.457 290.158 401.794 284.719 403.18L284.719 403.18C275.035 405.641 265.433 408.755 255.795 411.881C250.004 413.759 244.2 415.641 238.357 417.388C238.357 417.388 238.357 417.388 238.356 417.388L238.213 416.909C224.979 420.894 211.631 424.184 197.889 425.186L331.222 436.624ZM331.222 436.624L330.79 436.372C325.27 445.843 316.658 453.931 308.294 461.022C277.759 486.887 237.457 499.531 197.317 498.996C158.66 498.503 120.139 485.831 90.6369 461.199C43.9772 422.228 24.8874 379.76 19.3335 341.727C13.7777 303.682 21.7627 270.04 29.3109 248.737C29.8292 247.301 30.5305 245.939 31.3977 244.682L31.3989 244.68M331.222 436.624L31.3989 244.68M31.3989 244.68C32.5421 243.008 34.0261 241.596 35.7536 240.539L35.7538 240.539M31.3989 244.68L35.7538 240.539M35.7538 240.539C37.4623 239.492 39.3711 238.815 41.3563 238.55C49.0529 239.642 55.9695 246.017 54.74 255.867L54.7361 255.898M35.7538 240.539L54.7361 255.898M54.7361 255.898V255.929M54.7361 255.898V255.929M54.7361 255.929C54.7361 256.073 54.7061 256.264 54.6615 256.503C54.6551 256.536 54.6485 256.571 54.6416 256.607C54.6091 256.778 54.5726 256.969 54.5524 257.143L54.7361 255.929Z" fill="white" stroke="#564499"/>
<mask id="path-26-inside-1_112_1076" fill="white">
<path d="M203.769 499.364L213.183 512.684C213.183 512.684 270.146 514.902 301.32 541.069C307.086 545.912 303.638 555.318 296.113 555.318C294.226 555.325 292.398 554.661 290.955 553.444C283.594 547.264 255.474 527.835 191.866 527.248C129.889 526.669 106.118 545.847 99.5443 552.836C98.7947 553.626 97.8912 554.253 96.8897 554.68C95.8882 555.107 94.8102 555.324 93.7215 555.318H92.4982C84.7726 555.318 81.5035 545.561 87.6053 540.826C113.629 520.589 171.965 514.136 171.965 514.136L181.923 499.114"/>
</mask>
<path d="M203.769 499.364L213.183 512.684C213.183 512.684 270.146 514.902 301.32 541.069C307.086 545.912 303.638 555.318 296.113 555.318C294.226 555.325 292.398 554.661 290.955 553.444C283.594 547.264 255.474 527.835 191.866 527.248C129.889 526.669 106.118 545.847 99.5443 552.836C98.7947 553.626 97.8912 554.253 96.8897 554.68C95.8882 555.107 94.8102 555.324 93.7215 555.318H92.4982C84.7726 555.318 81.5035 545.561 87.6053 540.826C113.629 520.589 171.965 514.136 171.965 514.136L181.923 499.114" fill="#564499"/>
<path d="M213.183 512.684L212.367 513.261L212.651 513.664L213.144 513.683L213.183 512.684ZM301.32 541.069L301.964 540.303L301.963 540.303L301.32 541.069ZM296.113 555.318V554.318L296.109 554.318L296.113 555.318ZM290.955 553.444L291.6 552.68L291.598 552.678L290.955 553.444ZM191.866 527.248L191.857 528.248L191.857 528.248L191.866 527.248ZM99.5443 552.836L100.27 553.525L100.273 553.521L99.5443 552.836ZM96.8897 554.68L97.2814 555.6L97.282 555.6L96.8897 554.68ZM93.7215 555.318L93.7267 554.318H93.7215V555.318ZM87.6053 540.826L88.2184 541.616L88.2192 541.615L87.6053 540.826ZM171.965 514.136L172.075 515.13L172.54 515.079L172.799 514.689L171.965 514.136ZM202.953 499.942L212.367 513.261L214 512.107L204.586 498.787L202.953 499.942ZM213.183 512.684C213.144 513.683 213.144 513.683 213.145 513.683C213.145 513.683 213.145 513.683 213.146 513.683C213.148 513.683 213.15 513.683 213.153 513.684C213.159 513.684 213.169 513.684 213.182 513.685C213.209 513.686 213.249 513.688 213.302 513.69C213.408 513.695 213.568 513.703 213.777 513.714C214.197 513.736 214.819 513.773 215.623 513.828C217.231 513.939 219.565 514.127 222.466 514.434C228.267 515.048 236.327 516.138 245.355 518.042C263.444 521.857 285.282 528.912 300.678 541.835L301.963 540.303C286.185 527.059 263.954 519.921 245.768 516.085C236.658 514.164 228.529 513.064 222.676 512.445C219.749 512.135 217.39 511.945 215.761 511.833C214.946 511.777 214.314 511.74 213.884 511.717C213.669 511.705 213.505 511.697 213.394 511.692C213.338 511.69 213.296 511.688 213.267 511.687C213.253 511.686 213.242 511.686 213.234 511.685C213.231 511.685 213.228 511.685 213.226 511.685C213.225 511.685 213.224 511.685 213.223 511.685C213.223 511.685 213.222 511.685 213.183 512.684ZM300.677 541.834C305.724 546.073 302.71 554.318 296.113 554.318V556.318C304.566 556.318 308.448 545.75 301.964 540.303L300.677 541.834ZM296.109 554.318C294.459 554.324 292.861 553.744 291.6 552.68L290.311 554.209C291.935 555.578 293.992 556.326 296.116 556.318L296.109 554.318ZM291.598 552.678C284.05 546.34 255.702 526.837 191.875 526.248L191.857 528.248C255.247 528.833 283.139 548.187 290.312 554.21L291.598 552.678ZM191.876 526.248C129.673 525.667 105.615 544.923 98.8159 552.151L100.273 553.521C106.622 546.772 130.105 527.671 191.857 528.248L191.876 526.248ZM98.8191 552.148C98.1636 552.838 97.3735 553.387 96.4975 553.76L97.282 555.6C98.4089 555.12 99.4257 554.413 100.27 553.525L98.8191 552.148ZM96.498 553.76C95.6217 554.133 94.6788 554.323 93.7267 554.318L93.7162 556.318C94.9416 556.325 96.1547 556.08 97.2814 555.6L96.498 553.76ZM93.7215 554.318H92.4982V556.318H93.7215V554.318ZM92.4982 554.318C85.7471 554.318 82.8519 545.78 88.2184 541.616L86.9922 540.036C80.1551 545.342 83.798 556.318 92.4982 556.318V554.318ZM88.2192 541.615C101.044 531.642 121.943 525.007 139.771 520.866C148.66 518.802 156.74 517.367 162.599 516.448C165.527 515.989 167.899 515.659 169.538 515.444C170.357 515.337 170.993 515.258 171.423 515.206C171.639 515.181 171.802 515.161 171.912 515.149C171.967 515.142 172.008 515.138 172.035 515.135C172.049 515.133 172.059 515.132 172.066 515.131C172.069 515.131 172.072 515.131 172.073 515.13C172.074 515.13 172.075 515.13 172.075 515.13C172.075 515.13 172.075 515.13 171.965 514.136C171.855 513.142 171.855 513.142 171.855 513.142C171.854 513.142 171.853 513.142 171.852 513.143C171.85 513.143 171.847 513.143 171.844 513.144C171.836 513.144 171.825 513.146 171.811 513.147C171.782 513.151 171.739 513.155 171.683 513.162C171.57 513.175 171.403 513.194 171.184 513.221C170.747 513.273 170.105 513.353 169.278 513.461C167.625 513.678 165.236 514.011 162.289 514.473C156.396 515.396 148.266 516.84 139.318 518.918C121.471 523.063 100.19 529.772 86.9914 540.036L88.2192 541.615ZM172.799 514.689L182.756 499.667L181.089 498.562L171.132 513.584L172.799 514.689Z" fill="#564499" mask="url(#path-26-inside-1_112_1076)"/>
<mask id="path-28-inside-2_112_1076" fill="white">
<path d="M455.863 425.507C455.863 425.507 473.31 442.081 467.866 493.464C467.469 497.133 466.194 500.652 464.146 503.722L462.251 506.584C459.142 511.239 454.454 514.613 449.053 516.083C437.657 519.195 416.984 526.406 404.215 540.069C398.821 545.856 402.835 555.284 410.746 555.284C412.221 555.288 413.675 554.927 414.977 554.233C416.278 553.539 417.388 552.533 418.207 551.307C423.408 543.481 439.152 526.863 477.13 527.214C519.964 527.607 537.218 544.64 542.748 551.979C543.512 553.003 544.503 553.834 545.645 554.408C546.786 554.981 548.045 555.281 549.322 555.284C550.923 555.28 552.488 554.81 553.826 553.931C555.163 553.051 556.215 551.8 556.852 550.332C557.489 548.863 557.684 547.24 557.413 545.663C557.141 544.085 556.415 542.62 555.324 541.449C538.62 523.301 518.19 516.534 506.917 514.023C501.253 512.802 496.249 509.509 492.889 504.788C490.316 501.147 488.853 496.838 488.675 492.384C488.046 476.453 487.717 437.782 498.511 425.521"/>
</mask>
<path d="M455.863 425.507C455.863 425.507 473.31 442.081 467.866 493.464C467.469 497.133 466.194 500.652 464.146 503.722L462.251 506.584C459.142 511.239 454.454 514.613 449.053 516.083C437.657 519.195 416.984 526.406 404.215 540.069C398.821 545.856 402.835 555.284 410.746 555.284C412.221 555.288 413.675 554.927 414.977 554.233C416.278 553.539 417.388 552.533 418.207 551.307C423.408 543.481 439.152 526.863 477.13 527.214C519.964 527.607 537.218 544.64 542.748 551.979C543.512 553.003 544.503 553.834 545.645 554.408C546.786 554.981 548.045 555.281 549.322 555.284C550.923 555.28 552.488 554.81 553.826 553.931C555.163 553.051 556.215 551.8 556.852 550.332C557.489 548.863 557.684 547.24 557.413 545.663C557.141 544.085 556.415 542.62 555.324 541.449C538.62 523.301 518.19 516.534 506.917 514.023C501.253 512.802 496.249 509.509 492.889 504.788C490.316 501.147 488.853 496.838 488.675 492.384C488.046 476.453 487.717 437.782 498.511 425.521" fill="#564499"/>
<path d="M467.866 493.464L468.86 493.572L468.861 493.57L467.866 493.464ZM464.146 503.722L463.314 503.167L463.313 503.17L464.146 503.722ZM462.251 506.584L463.082 507.139L463.084 507.136L462.251 506.584ZM449.053 516.083L448.79 515.118L448.789 515.119L449.053 516.083ZM404.215 540.069L403.485 539.386L403.484 539.387L404.215 540.069ZM410.746 555.284L410.749 554.284H410.746V555.284ZM414.977 554.233L415.447 555.116L415.447 555.115L414.977 554.233ZM418.207 551.307L419.039 551.862L419.04 551.86L418.207 551.307ZM477.13 527.214L477.121 528.214L477.121 528.214L477.13 527.214ZM542.748 551.979L543.549 551.381L543.547 551.377L542.748 551.979ZM545.645 554.408L546.094 553.514L546.094 553.514L545.645 554.408ZM549.322 555.284L549.32 556.284H549.324L549.322 555.284ZM553.826 553.931L553.276 553.095L553.276 553.095L553.826 553.931ZM556.852 550.332L557.77 550.73L557.77 550.729L556.852 550.332ZM557.413 545.663L558.398 545.493L558.398 545.493L557.413 545.663ZM555.324 541.449L554.588 542.126L554.592 542.131L555.324 541.449ZM506.917 514.023L507.134 513.047L507.127 513.046L506.917 514.023ZM492.889 504.788L492.072 505.365L492.074 505.368L492.889 504.788ZM488.675 492.384L487.676 492.424L487.676 492.424L488.675 492.384ZM455.863 425.507C455.174 426.232 455.173 426.231 455.173 426.231C455.173 426.231 455.173 426.23 455.172 426.23C455.172 426.23 455.172 426.23 455.172 426.23C455.173 426.231 455.174 426.232 455.177 426.235C455.182 426.24 455.191 426.249 455.205 426.262C455.231 426.289 455.273 426.332 455.33 426.392C455.444 426.513 455.616 426.702 455.837 426.964C456.279 427.488 456.915 428.305 457.668 429.449C459.174 431.738 461.148 435.341 462.962 440.546C466.587 450.953 469.58 467.791 466.872 493.359L468.861 493.57C471.596 467.754 468.587 450.614 464.85 439.888C462.982 434.526 460.935 430.775 459.339 428.35C458.542 427.138 457.858 426.258 457.367 425.675C457.121 425.384 456.924 425.166 456.784 425.019C456.715 424.945 456.66 424.889 456.621 424.85C456.601 424.83 456.585 424.815 456.574 424.803C456.568 424.798 456.563 424.793 456.559 424.789C456.558 424.788 456.556 424.786 456.555 424.785C456.554 424.784 456.553 424.783 456.553 424.783C456.552 424.782 456.551 424.782 455.863 425.507ZM466.872 493.357C466.492 496.866 465.272 500.231 463.314 503.167L464.978 504.277C467.115 501.073 468.446 497.401 468.86 493.572L466.872 493.357ZM463.313 503.17L461.417 506.031L463.084 507.136L464.98 504.274L463.313 503.17ZM461.419 506.028C458.444 510.483 453.959 513.712 448.79 515.118L449.315 517.048C454.95 515.515 459.839 511.995 463.082 507.139L461.419 506.028ZM448.789 515.119C437.369 518.237 416.457 525.505 403.485 539.386L404.946 540.751C417.511 527.306 437.945 520.153 449.316 517.048L448.789 515.119ZM403.484 539.387C397.508 545.799 401.94 556.284 410.746 556.284V554.284C403.729 554.284 400.135 545.913 404.947 540.75L403.484 539.387ZM410.743 556.284C412.384 556.289 414 555.887 415.447 555.116L414.506 553.351C413.35 553.967 412.059 554.288 410.749 554.284L410.743 556.284ZM415.447 555.115C416.894 554.344 418.128 553.226 419.039 551.862L417.376 550.751C416.648 551.841 415.662 552.734 414.506 553.351L415.447 555.115ZM419.04 551.86C424.063 544.301 439.499 527.867 477.121 528.214L477.139 526.214C438.806 525.86 422.752 542.661 417.374 550.753L419.04 551.86ZM477.121 528.214C519.645 528.604 536.607 545.49 541.949 552.581L543.547 551.377C537.83 543.79 520.284 526.61 477.139 526.214L477.121 528.214ZM541.947 552.577C542.804 553.725 543.916 554.658 545.196 555.301L546.094 553.514C545.091 553.01 544.221 552.28 543.549 551.381L541.947 552.577ZM545.196 555.301C546.476 555.945 547.888 556.281 549.32 556.284L549.324 554.284C548.202 554.281 547.096 554.018 546.094 553.514L545.196 555.301ZM549.324 556.284C551.12 556.28 552.875 555.753 554.375 554.766L553.276 553.095C552.101 553.868 550.726 554.281 549.32 554.284L549.324 556.284ZM554.375 554.766C555.875 553.78 557.055 552.377 557.77 550.73L555.935 549.934C555.375 551.224 554.451 552.323 553.276 553.095L554.375 554.766ZM557.77 550.729C558.484 549.082 558.702 547.262 558.398 545.493L556.427 545.832C556.665 547.218 556.494 548.644 555.935 549.934L557.77 550.729ZM558.398 545.493C558.093 543.723 557.28 542.081 556.055 540.767L554.592 542.131C555.551 543.16 556.188 544.446 556.427 545.832L558.398 545.493ZM556.059 540.772C539.165 522.416 518.514 515.582 507.134 513.047L506.699 514.999C517.867 517.486 538.076 524.186 554.588 542.126L556.059 540.772ZM507.127 513.046C501.707 511.877 496.919 508.725 493.703 504.208L492.074 505.368C495.579 510.292 500.798 513.727 506.706 515.001L507.127 513.046ZM493.706 504.211C491.245 500.728 489.844 496.606 489.675 492.344L487.676 492.424C487.861 497.071 489.388 501.566 492.072 505.365L493.706 504.211ZM489.675 492.345C489.361 484.397 489.123 470.795 490.305 457.666C490.897 451.101 491.841 444.68 493.299 439.156C494.763 433.609 496.717 429.073 499.262 426.182L497.761 424.86C494.909 428.1 492.856 432.995 491.365 438.646C489.868 444.318 488.91 450.86 488.313 457.487C487.119 470.741 487.361 484.441 487.676 492.424L489.675 492.345Z" fill="#564499" mask="url(#path-28-inside-2_112_1076)"/>
<path d="M233.649 416.929C264.33 402.036 297.629 392.264 330.37 383.065C363.319 373.809 396.589 365.732 429.96 358.143C443.294 355.117 456.75 352.42 470.019 349.008" stroke="#564499" stroke-miterlimit="10"/>
<path d="M262.435 302.44H262.457H262.472" stroke="#564499" stroke-miterlimit="10"/>
<path d="M258.994 300.502C257.069 302.405 250.202 312.57 248.478 314.394C239.007 324.544 228.946 334.127 218.348 343.093C215.68 345.311 212.854 347.6 209.878 349.918C209.292 350.368 208.684 350.84 208.076 351.291C187.903 366.599 161.578 381.335 137.257 371.893C136.613 371.657 135.984 371.385 135.361 371.106C98.0562 354.403 71.982 312.57 69.7072 272.189C69.6286 270.872 69.5856 269.563 69.5713 268.269C69.371 257.231 71.002 246.193 81.5891 240.37" stroke="#564499" stroke-miterlimit="10"/>
<path d="M55.2289 257.116L55.3792 255.943C57.7541 236.9 30.7143 230.476 24.2977 248.567C9.1754 291.259 -7.73525 383.452 85.8169 461.567C146.199 512.006 243.957 512.356 304.11 461.403C312.48 454.314 321.142 446.166 326.715 436.616C340.814 412.466 319.283 393.102 294.997 399.046" stroke="#564499" stroke-miterlimit="10"/>
<path d="M203.769 499.364L213.183 512.684C213.183 512.684 270.146 514.902 301.32 541.069C307.086 545.912 303.638 555.318 296.113 555.318C294.226 555.325 292.398 554.661 290.955 553.444C283.594 547.264 255.474 527.835 191.866 527.248C129.889 526.669 106.118 545.847 99.5443 552.836C98.7947 553.626 97.8912 554.253 96.8897 554.68C95.8882 555.107 94.8102 555.324 93.7215 555.318H92.4982C84.7726 555.318 81.5035 545.561 87.6053 540.826C113.629 520.589 171.965 514.136 171.965 514.136L181.923 499.114" stroke="#564499" stroke-miterlimit="10"/>
<path d="M171.965 303.436C195.843 296.998 205.679 263.312 209.642 240.665" stroke="#564499" stroke-miterlimit="10"/>
<path d="M149.518 267.244C156.151 266.376 162.451 263.821 167.815 259.823C173.179 255.825 177.429 250.519 180.156 244.411C180.727 243.195 181.005 241.864 180.967 240.522C180.93 239.18 180.579 237.866 179.942 236.685C177.338 231.864 173.453 226.277 174.376 220.497C175.041 216.419 178.396 213.551 182.245 212.628C184.196 212.117 186.25 212.152 188.182 212.728C189.34 213.057 190.411 213.638 191.317 214.431C192.222 215.224 192.94 216.208 193.419 217.314C194.356 219.51 193.24 221.684 191.516 223.115C189.792 224.546 187.774 225.054 185.671 225.626C185.4 225.704 184.656 225.862 183.833 226.019" stroke="#564499" stroke-miterlimit="10"/>
<path d="M469.991 348.994C469.991 348.994 517.06 339.137 525.902 324.937C527.559 322.348 528.592 319.41 528.92 316.353" stroke="white" stroke-miterlimit="10"/>
<path d="M537.476 425.507H423.222" stroke="#564499" stroke-miterlimit="10"/>
<path d="M400.159 402.429C400.176 396.313 402.613 390.453 406.936 386.127C411.26 381.803 417.121 379.364 423.236 379.345H537.504C543.621 379.362 549.483 381.8 553.808 386.125C558.134 390.45 560.571 396.313 560.589 402.429" stroke="#564499" stroke-miterlimit="10"/>
<path d="M562.835 410.614C562.84 412.572 562.459 414.512 561.712 416.321C560.965 418.132 559.867 419.776 558.483 421.16C557.098 422.544 555.453 423.641 553.643 424.387C551.832 425.133 549.892 425.514 547.934 425.507H412.735C409.35 425.187 406.227 423.551 404.036 420.953C401.845 418.353 400.761 414.998 401.018 411.609C401.275 408.219 402.852 405.065 405.409 402.826C407.967 400.586 411.301 399.44 414.695 399.633H549.894C552.294 399.63 554.66 400.207 556.787 401.317C558.915 402.427 560.742 404.036 562.112 406.007C562.591 407.496 562.835 409.05 562.835 410.614Z" fill="#BBB4D6"/>
<path d="M562.835 410.613C562.84 412.571 562.458 414.511 561.711 416.321C560.965 418.13 559.867 419.775 558.482 421.159C557.098 422.543 555.452 423.64 553.642 424.386C551.832 425.132 549.892 425.513 547.934 425.506H412.735C410.751 425.55 408.778 425.197 406.933 424.468C405.088 423.738 403.406 422.648 401.988 421.26C400.57 419.872 399.442 418.216 398.673 416.386C397.903 414.558 397.507 412.594 397.507 410.609C397.507 408.625 397.903 406.661 398.673 404.831C399.442 403.002 400.57 401.346 401.988 399.958C403.406 398.57 405.088 397.48 406.933 396.751C408.778 396.022 410.751 395.669 412.735 395.712H547.934C551.082 395.711 554.149 396.706 556.695 398.555C559.243 400.404 561.138 403.012 562.112 406.006C562.591 407.495 562.834 409.049 562.835 410.613Z" stroke="#564499" stroke-miterlimit="10"/>
<path d="M209.385 240.134L209.113 242.431C208.989 243.473 208.487 244.433 207.703 245.13C206.918 245.828 205.906 246.213 204.857 246.215H189.999C188.95 246.213 187.938 245.828 187.153 245.13C186.369 244.433 185.867 243.473 185.743 242.431L183.826 225.978C184.648 225.821 185.392 225.663 185.664 225.584C187.767 225.012 189.806 224.526 191.509 223.074C193.211 221.621 194.37 219.497 193.411 217.272C192.933 216.168 192.215 215.183 191.31 214.39C190.404 213.597 189.333 213.015 188.175 212.687C186.242 212.11 184.189 212.075 182.238 212.587L181.787 208.667C181.721 208.068 181.781 207.461 181.965 206.888C182.148 206.313 182.451 205.785 182.852 205.335C183.254 204.885 183.746 204.526 184.295 204.279C184.845 204.032 185.441 203.904 186.043 203.902H208.841C209.444 203.905 210.038 204.034 210.587 204.281C211.136 204.528 211.627 204.888 212.027 205.337C212.428 205.787 212.73 206.315 212.913 206.889C213.096 207.463 213.157 208.068 213.09 208.667L212.561 213.138" stroke="#564499" stroke-miterlimit="10"/>
<path d="M211.367 223.359L211.345 223.517" stroke="#564499" stroke-miterlimit="10"/>
<path d="M210.25 232.81V232.745" stroke="#564499" stroke-miterlimit="10"/>
<path d="M211.884 232.814C208.594 232.616 208.181 233.162 207.501 233.791C206.82 234.421 206.401 235.284 206.326 236.208C206.252 237.131 206.527 238.05 207.097 238.781C207.667 239.512 208.491 240.002 209.406 240.154C209.8 240.232 210.058 240.266 210.831 240.266C212.69 240.348 213.771 239.776 215.208 237.607C216.795 234.996 217.186 234.206 217.718 232.256C218.151 230.482 218.743 227.798 218.743 227.798C219.179 225.584 219.065 224.552 218.956 222.299M218.956 222.299C218.956 221.333 218.834 220.375 218.72 219.437C218.502 217.869 217.785 216.414 216.676 215.284C215.567 214.155 214.125 213.411 212.561 213.164C212.482 213.164 212.389 213.164 212.31 213.121C209.306 212.749 205.093 213.886 204.313 217.277C203.598 220.339 206.917 222.964 209.642 223.2C209.642 223.2 210.358 223.293 211.366 223.358C213.383 223.493 216.738 223.472 218.956 222.299Z" stroke="#564499" stroke-miterlimit="10"/>
<path d="M213.546 223.417H213.052H209.239L207.535 223.417C206.398 223.421 205.382 223.966 204.559 224.75C203.735 225.533 203.243 226.602 203.183 227.737C203.127 228.84 203.482 229.924 204.181 230.78C204.878 231.637 205.868 232.204 206.96 232.373C211.896 233.167 217.532 233.331 218.498 228.911" stroke="#564499" stroke-miterlimit="10"/>
<path d="M455.863 425.507C455.863 425.507 473.31 442.081 467.866 493.464C467.469 497.133 466.194 500.652 464.146 503.722L462.251 506.584C459.142 511.239 454.454 514.613 449.053 516.083C437.657 519.195 416.984 526.406 404.215 540.069C398.821 545.856 402.835 555.284 410.746 555.284C412.221 555.288 413.675 554.927 414.977 554.233C416.278 553.539 417.388 552.533 418.207 551.307C423.408 543.481 439.152 526.863 477.13 527.214C519.964 527.607 537.218 544.64 542.748 551.979C543.512 553.003 544.503 553.834 545.645 554.408C546.786 554.981 548.045 555.281 549.322 555.284C550.923 555.28 552.488 554.81 553.826 553.931C555.163 553.051 556.215 551.8 556.852 550.332C557.489 548.863 557.684 547.24 557.413 545.663C557.141 544.085 556.415 542.62 555.324 541.449C538.62 523.301 518.19 516.534 506.917 514.023C501.253 512.802 496.249 509.509 492.889 504.788C490.316 501.147 488.853 496.838 488.675 492.384C488.046 476.453 487.717 437.782 498.511 425.521" stroke="#564499" stroke-miterlimit="10"/>
<path opacity="0.7" d="M419.595 305.407V306.566C419.595 314.499 413.2 315.865 407.677 316.001L300.798 318.491C296.113 318.605 292.171 314.513 292.071 309.392V309.177C292.071 304.17 295.762 299.985 300.383 299.878C300.383 299.878 360.179 298.189 406.475 296.916C407.363 299.72 409.509 301.88 412.198 303.576C414.427 304.909 417.002 305.546 419.595 305.407Z" stroke="#564499" stroke-miterlimit="10"/>
<path opacity="0.7" d="M476.407 192.312C476.413 193.617 476.114 194.905 475.535 196.074L427.736 294.062C427.175 295.199 426.372 296.201 425.383 296.995C424.395 297.789 423.245 298.358 422.013 298.661C420.039 299.167 417.95 298.954 416.118 298.061C414.65 297.338 413.415 296.216 412.554 294.825C411.693 293.434 411.24 291.829 411.247 290.192C411.25 289.79 411.279 289.389 411.333 288.99C411.46 288.103 411.725 287.242 412.12 286.436L459.912 188.435C460.775 186.676 462.209 185.261 463.978 184.422C465.748 183.582 467.75 183.366 469.659 183.811C471.567 184.254 473.268 185.331 474.487 186.866C475.704 188.401 476.366 190.302 476.364 192.262L476.407 192.312Z" stroke="#564499" stroke-miterlimit="10"/>
<path d="M89.4366 182.641C89.3794 182.441 89.3007 182.248 89.2363 182.055C89.172 181.861 89.079 181.64 89.0217 181.425" stroke="#564499" stroke-linecap="round" stroke-linejoin="round"/>
<path d="M89.4363 182.648L90.9027 181.174L93.7069 178.335" stroke="#564499" stroke-linecap="round" stroke-linejoin="round"/>
<path d="M105.939 186.527C105.939 186.527 107.821 192.143 115.01 192.522" stroke="#564499" stroke-miterlimit="10"/>
<path d="M73.9639 199.68C67.5258 202.935 60.2222 195.896 60.7301 190.095C61.0591 186.118 60.1578 183.371 57.2177 180.488C57.0246 180.295 56.8458 180.094 56.6741 179.901C55.5546 178.684 54.8271 177.158 54.5846 175.521C54.3421 173.885 54.5967 172.213 55.3149 170.723C56.6526 167.612 59.5354 165.788 57.5325 162.433C56.6533 160.982 56.0117 159.4 55.6297 157.747C55.2298 155.555 55.3049 153.303 55.8493 151.142C56.3937 148.982 57.3944 146.963 58.7843 145.222C61.7315 141.645 66.5315 142.632 70.473 141.38C75.2157 139.871 77.4333 134.77 82.412 133.204C84.9014 132.424 87.212 132.775 89.7014 133.34C91.7973 133.833 93.9004 134.384 95.9391 135.028C97.9778 135.672 99.8377 136.223 101.876 135.614C104.545 134.835 106.598 132.381 109.502 132.36C112.406 132.338 114.638 134.048 115.94 136.437C118 140.186 118.015 145.636 116.076 148.87C114.073 152.218 109.881 153.634 106.276 154.356C101.669 155.301 96.9048 155.551 92.2408 155.966L89.5297 156.631C88.4982 156.952 87.6362 157.667 87.1319 158.622C86.6275 159.577 86.5224 160.693 86.84 161.724C88.5175 167.497 90.8252 173.068 93.7216 178.335" stroke="#564499" stroke-miterlimit="10"/>
<path d="M93.7073 200.502C93.7073 200.502 107.9 210.896 115.99 205.166C124.081 199.437 119.51 182.64 119.51 182.64" stroke="#564499" stroke-linecap="round" stroke-linejoin="round"/>
<path d="M193.991 196.727C193.991 196.727 187.96 192.649 191.795 188.486C195.629 184.323 190.521 178.829 190.521 178.829" stroke="#564499" stroke-miterlimit="10"/>
<path d="M199.556 197.434C199.556 197.434 203.548 194.737 200.987 191.976C198.426 189.215 201.838 185.538 201.838 185.538" stroke="#564499" stroke-miterlimit="10"/>
<path d="M227.061 158.579C270.487 158.579 305.691 123.375 305.691 79.9488C305.691 36.5227 270.487 1.3186 227.061 1.3186C183.635 1.3186 148.431 36.5227 148.431 79.9488C148.431 123.375 183.635 158.579 227.061 158.579Z" stroke="#564499" stroke-miterlimit="10"/>
<path d="M227.061 123.132C250.911 123.132 270.246 103.797 270.246 79.9467C270.246 56.0958 250.911 36.7616 227.061 36.7616C203.21 36.7616 183.876 56.0958 183.876 79.9467C183.876 103.797 203.21 123.132 227.061 123.132Z" stroke="#564499" stroke-miterlimit="10"/>
<path d="M227.061 87.3498C231.15 87.3498 234.465 84.0349 234.465 79.946C234.465 75.8571 231.15 72.5422 227.061 72.5422C222.972 72.5422 219.657 75.8571 219.657 79.946C219.657 84.0349 222.972 87.3498 227.061 87.3498Z" stroke="#564499" stroke-miterlimit="10"/>
<path d="M242.391 55.226L230.959 73.6531" stroke="#564499" stroke-miterlimit="10"/>
<path d="M227.061 36.7616V44.4443" stroke="#564499" stroke-miterlimit="10"/>
<path d="M270.246 79.9473H262.964" stroke="#564499" stroke-miterlimit="10"/>
<path d="M227.061 123.14V115.672" stroke="#564499" stroke-miterlimit="10"/>
<path d="M183.869 79.9473H190.435" stroke="#564499" stroke-miterlimit="10"/>
<path d="M331.179 181.426C331.179 197.308 318.304 210.184 302.422 210.184C286.54 210.184 273.665 197.308 273.665 181.426C273.665 165.544 286.54 152.669 302.422 152.669C318.304 152.669 331.179 165.544 331.179 181.426Z" fill="url(#paint0_linear_112_1076)" stroke="#564499"/>
<path d="M311.585 171.853L311.585 171.854C312.858 174.771 312.967 178.462 312.345 182.072C311.725 185.667 310.391 189.119 308.845 191.545C308.829 191.553 308.797 191.568 308.74 191.586C308.606 191.627 308.408 191.66 308.146 191.681C307.627 191.723 306.947 191.71 306.233 191.667C305.048 191.597 303.827 191.451 303.185 191.374C303.055 191.358 302.949 191.346 302.871 191.337L302.869 191.337C301.137 191.149 299.428 190.787 297.768 190.256C294.578 189.224 291.132 187.469 289.127 184.855L289.126 184.854C288.189 183.642 287.671 182.158 287.651 180.627C287.631 179.095 288.109 177.599 289.014 176.363L289.015 176.363C289.919 175.127 291.202 174.219 292.667 173.776L292.667 173.776C294.134 173.332 295.704 173.378 297.143 173.905L297.766 174.133L297.813 173.471C297.892 172.377 298.222 171.316 298.778 170.371C299.335 169.426 300.103 168.623 301.021 168.024C302.426 167.115 304.114 166.749 305.77 166.994C307.425 167.239 308.935 168.08 310.016 169.359L310.016 169.359L310.02 169.363C310.664 170.109 311.192 170.948 311.585 171.853Z" fill="white" stroke="#564499"/>
<path opacity="0.2" d="M390.953 153.206C390.953 161.827 383.965 168.815 375.344 168.815C366.723 168.815 359.734 161.827 359.734 153.206C359.734 144.585 366.723 137.596 375.344 137.596C383.965 137.596 390.953 144.585 390.953 153.206Z" fill="url(#paint1_linear_112_1076)" stroke="#564499"/>
<path d="M381.973 155.711L381.976 155.709C382.339 155.339 382.641 154.916 382.873 154.454L382.877 154.446L382.877 154.446C383.28 153.677 383.388 152.787 383.181 151.944L383.181 151.944C382.975 151.101 382.468 150.362 381.755 149.868C381.287 149.545 380.751 149.334 380.189 149.253C379.626 149.173 379.052 149.224 378.512 149.402L377.881 149.61L377.856 148.946C377.826 148.152 377.537 147.389 377.036 146.773L381.973 155.711ZM381.973 155.711C380.797 156.927 378.987 157.739 377.041 158.177C375.143 158.603 373.175 158.66 371.66 158.423C371.626 158.375 371.58 158.299 371.526 158.191C371.404 157.945 371.273 157.604 371.147 157.233C370.938 156.616 370.759 155.968 370.664 155.624C370.645 155.556 370.629 155.499 370.617 155.458L370.617 155.458L370.616 155.454C370.354 154.552 370.183 153.627 370.105 152.691L370.104 152.682L370.103 152.673C369.879 150.812 370.2 148.926 371.028 147.246C371.425 146.563 372.031 146.027 372.757 145.717L372.758 145.717M381.973 155.711L372.758 145.717M372.758 145.717C373.489 145.405 374.301 145.339 375.073 145.53M372.758 145.717L375.073 145.53M375.073 145.53C375.845 145.72 376.533 146.156 377.036 146.773L375.073 145.53ZM371.691 158.461C371.696 158.465 371.699 158.468 371.699 158.469C371.699 158.469 371.696 158.467 371.691 158.461Z" fill="white" stroke="#564499"/>
<path d="M352.711 229.492L352.711 229.492C355.369 223.87 362.082 221.468 367.704 224.127L367.704 224.127L383.897 231.785L383.897 231.785C389.518 234.443 391.92 241.156 389.262 246.778C389.262 246.778 389.262 246.778 389.262 246.778L381.605 262.97C378.946 268.592 372.233 270.995 366.611 268.336L366.397 268.788L366.611 268.336L350.418 260.678C344.796 258.019 342.394 251.307 345.053 245.685L345.053 245.685L352.711 229.492Z" fill="url(#paint2_linear_112_1076)" stroke="#564499"/>
<path d="M347.383 253.808L347.383 253.808C346.517 251.386 346.642 248.72 347.733 246.391C347.734 246.391 347.734 246.391 347.734 246.39L348.055 245.71C349.946 244.211 352.444 242.52 354.738 241.85C355.899 241.511 356.955 241.45 357.837 241.756C358.7 242.056 359.47 242.731 360.027 244.023C360.911 246.078 361.882 247.506 362.966 248.413C364.065 249.333 365.255 249.696 366.514 249.661C367.753 249.626 369.038 249.205 370.351 248.6C371.666 247.995 373.051 247.186 374.488 246.345L374.49 246.344C376.873 244.934 379.388 244.065 381.315 244.403C382.254 244.568 383.056 245.018 383.663 245.855C384.265 246.685 384.7 247.93 384.836 249.731L379.349 261.336C379.349 261.336 379.349 261.336 379.349 261.336C378.242 263.659 376.262 265.45 373.84 266.318C371.418 267.185 368.751 267.06 366.422 265.97C366.421 265.97 366.421 265.97 366.421 265.969L352.361 259.318C352.36 259.318 352.36 259.318 352.36 259.318C350.039 258.21 348.249 256.23 347.383 253.808Z" fill="white" stroke="#564499"/>
<path d="M367.39 233.038C367.39 235.152 365.676 236.866 363.562 236.866C361.449 236.866 359.734 235.152 359.734 233.038C359.734 230.924 361.448 229.21 363.562 229.21C365.676 229.21 367.39 230.924 367.39 233.038Z" fill="white" stroke="#564499"/>
<path d="M436.961 176.408L436.961 176.408C432.959 169.101 424.136 164.996 415.897 167.462L415.894 167.463C412.727 168.389 409.793 169.956 406.821 171.543C406.453 171.739 406.085 171.936 405.715 172.132L405.712 172.133C405.51 172.239 405.307 172.344 405.105 172.449C401.475 174.339 397.883 176.208 395.108 179.036C392.154 182.052 390.334 185.996 389.956 190.2L436.961 176.408ZM436.961 176.408C437.798 177.934 438.405 179.574 438.763 181.277C439.4 184.395 439.217 187.626 438.231 190.651C437.245 193.676 435.49 196.394 433.138 198.537C432.242 199.329 431.225 200.041 430.173 200.777C430.131 200.807 430.088 200.836 430.046 200.866C428.959 201.627 427.841 202.417 426.845 203.328C425.363 204.609 424.271 206.282 423.695 208.154L423.685 208.187L423.679 208.22C423.594 208.742 423.386 209.235 423.074 209.66C422.882 209.86 422.743 209.884 422.643 209.879C422.504 209.871 422.322 209.797 422.075 209.627C421.9 209.507 421.735 209.371 421.555 209.222C421.476 209.157 421.395 209.09 421.309 209.021C421.052 208.814 420.737 208.577 420.398 208.464L420.393 208.462C418.699 207.911 416.861 208 415.228 208.714C411.334 210.341 406.998 210.572 402.954 209.368C398.909 208.163 395.405 205.596 393.035 202.102C390.666 198.609 389.579 194.403 389.956 190.2L436.961 176.408Z" fill="url(#paint3_linear_112_1076)" stroke="#564499"/>
<path d="M406.812 194.187C406.812 196.163 405.211 197.765 403.235 197.765C401.259 197.765 399.657 196.163 399.657 194.187C399.657 192.212 401.259 190.61 403.235 190.61C405.211 190.61 406.812 192.212 406.812 194.187Z" fill="white" stroke="#564499"/>
<path d="M417.793 188.314C417.793 190.289 416.191 191.891 414.216 191.891C412.24 191.891 410.638 190.289 410.638 188.314C410.638 186.338 412.24 184.736 414.216 184.736C416.191 184.736 417.793 186.338 417.793 188.314Z" fill="white" stroke="#564499"/>
<path d="M428.094 182.806C428.094 184.782 426.492 186.384 424.516 186.384C422.541 186.384 420.939 184.782 420.939 182.806C420.939 180.83 422.541 179.229 424.516 179.229C426.492 179.229 428.094 180.83 428.094 182.806Z" fill="white" stroke="#564499"/>
<path d="M300.197 51.0405C300.197 51.0405 327.044 134.077 430.389 129.592C464.726 125.3 505.593 129.592 541.982 177.52C597.3 250.427 575.088 331.646 549.951 383.201" stroke="#564499" stroke-miterlimit="10"/>
<path d="M448.516 87.2587L448.515 87.2596L445.296 101.223L445.296 101.223C444.304 105.539 443.216 109.887 440.268 112.904C437.527 115.699 433.859 116.8 429.846 116.971C425.827 117.143 421.513 116.379 417.543 115.497L417.543 115.497L398.014 111.162L398.014 111.162C393.517 110.166 389.032 109.155 385.086 106.971C381.144 104.79 377.783 101.252 376.892 96.9422L376.892 96.9422L376.891 96.938C376.203 93.7443 376.936 90.4213 377.671 87.0935L377.671 87.093L380.618 73.6891C380.618 73.6889 380.618 73.6886 380.618 73.6884C381.603 69.271 382.684 64.7855 385.735 61.707C388.437 58.9844 392.052 57.9098 396.004 57.7378C399.961 57.5655 404.202 58.3006 408.093 59.1468L428.094 63.496L428.095 63.4962C434.094 64.7915 439.588 66.819 443.454 70.0236C447.294 73.206 449.549 77.5614 449.084 83.6129C448.984 84.8407 448.795 86.0593 448.516 87.2587Z" fill="url(#paint4_linear_112_1076)" stroke="#564499"/>
<path d="M422.309 84.3909L422.307 84.3894L417.788 80.1488L417.786 80.1474L413.231 75.9068L413.231 75.9065C412.46 75.1875 411.513 74.6843 410.485 74.4472L422.309 84.3909ZM422.309 84.3909C423.081 85.1088 423.651 86.0174 423.96 87.0249L423.96 87.0251M422.309 84.3909L423.96 87.0251M423.96 87.0251C424.269 88.0333 424.308 89.1052 424.072 90.1329C423.836 91.1601 423.332 92.107 422.614 92.8791C421.895 93.6503 420.986 94.2188 419.978 94.5271L419.978 94.5272M423.96 87.0251L419.978 94.5272M419.978 94.5272L414.026 96.3513L408.075 98.1753C407.066 98.4837 405.995 98.5214 404.967 98.2843C403.94 98.0472 402.993 97.5446 402.221 96.8255L402.221 96.8255M419.978 94.5272L402.221 96.8255M402.221 96.8255C401.45 96.107 400.881 95.1984 400.572 94.1899L400.572 94.1898M402.221 96.8255L400.572 94.1898M400.572 94.1898C400.263 93.1823 400.224 92.111 400.46 91.0841C400.46 91.0837 400.46 91.0833 400.46 91.0828L401.89 85.0194L401.891 85.0168M400.572 94.1898L401.891 85.0168M401.891 85.0168L403.286 78.9579L403.286 78.9572M401.891 85.0168L403.286 78.9572M403.286 78.9572C403.521 77.9292 404.023 76.9817 404.741 76.2091C405.46 75.4369 406.369 74.8671 407.377 74.5582L407.377 74.5581M403.286 78.9572L407.377 74.5581M407.377 74.5581C408.385 74.2485 409.457 74.2108 410.484 74.4471L407.377 74.5581Z" fill="white" stroke="#564499"/>
<path d="M27.8098 555.286H645.521" stroke="#564499" stroke-miterlimit="10"/>
<defs>
<linearGradient id="paint0_linear_112_1076" x1="302.422" y1="152.169" x2="302.422" y2="210.684" gradientUnits="userSpaceOnUse">
<stop stop-color="#EF3922"/>
<stop offset="1" stop-color="#564499"/>
</linearGradient>
<linearGradient id="paint1_linear_112_1076" x1="375.344" y1="137.096" x2="375.344" y2="169.315" gradientUnits="userSpaceOnUse">
<stop stop-color="#EF3922"/>
<stop offset="1" stop-color="#564499"/>
</linearGradient>
<linearGradient id="paint2_linear_112_1076" x1="367.158" y1="222.543" x2="367.158" y2="269.92" gradientUnits="userSpaceOnUse">
<stop stop-color="#EF3922"/>
<stop offset="1" stop-color="#564499"/>
</linearGradient>
<linearGradient id="paint3_linear_112_1076" x1="414.509" y1="166.243" x2="414.509" y2="210.629" gradientUnits="userSpaceOnUse">
<stop stop-color="#EF3922"/>
<stop offset="1" stop-color="#564499"/>
</linearGradient>
<linearGradient id="paint4_linear_112_1076" x1="412.88" y1="57.2125" x2="412.88" y2="117.495" gradientUnits="userSpaceOnUse">
<stop stop-color="#EF3922"/>
<stop offset="1" stop-color="#564499"/>
</linearGradient>
</defs>
</svg>
