<svg width="21" height="21" viewBox="0 0 21 21" fill="none" xmlns="http://www.w3.org/2000/svg">
<path d="M17.9453 3.2543C17.0285 2.32822 15.9365 1.59397 14.733 1.09435C13.5294 0.594732 12.2384 0.339758 10.9353 0.344298C5.47531 0.344298 1.02531 4.7943 1.02531 10.2543C1.02531 12.0043 1.48531 13.7043 2.34531 15.2043L0.945312 20.3443L6.19531 18.9643C7.64531 19.7543 9.27531 20.1743 10.9353 20.1743C16.3953 20.1743 20.8453 15.7243 20.8453 10.2643C20.8453 7.6143 19.8153 5.1243 17.9453 3.2543ZM10.9353 18.4943C9.45531 18.4943 8.00531 18.0943 6.73531 17.3443L6.43531 17.1643L3.31531 17.9843L4.14531 14.9443L3.94531 14.6343C3.12306 13.3213 2.68645 11.8035 2.68531 10.2543C2.68531 5.7143 6.38531 2.0143 10.9253 2.0143C13.1253 2.0143 15.1953 2.8743 16.7453 4.4343C17.5128 5.19826 18.121 6.10696 18.5347 7.10772C18.9484 8.10849 19.1593 9.18141 19.1553 10.2643C19.1753 14.8043 15.4753 18.4943 10.9353 18.4943ZM15.4553 12.3343C15.2053 12.2143 13.9853 11.6143 13.7653 11.5243C13.5353 11.4443 13.3753 11.4043 13.2053 11.6443C13.0353 11.8943 12.5653 12.4543 12.4253 12.6143C12.2853 12.7843 12.1353 12.8043 11.8853 12.6743C11.6353 12.5543 10.8353 12.2843 9.89531 11.4443C9.15531 10.7843 8.66531 9.9743 8.51531 9.7243C8.37531 9.4743 8.49531 9.3443 8.62531 9.2143C8.73531 9.1043 8.87531 8.9243 8.99531 8.7843C9.11531 8.6443 9.16531 8.5343 9.24531 8.3743C9.32531 8.2043 9.28531 8.0643 9.22531 7.9443C9.16531 7.8243 8.66531 6.6043 8.46531 6.1043C8.26531 5.6243 8.05531 5.6843 7.90531 5.6743H7.42531C7.25531 5.6743 6.99531 5.7343 6.76531 5.9843C6.54531 6.2343 5.90531 6.8343 5.90531 8.0543C5.90531 9.2743 6.79531 10.4543 6.91531 10.6143C7.03531 10.7843 8.66531 13.2843 11.1453 14.3543C11.7353 14.6143 12.1953 14.7643 12.5553 14.8743C13.1453 15.0643 13.6853 15.0343 14.1153 14.9743C14.5953 14.9043 15.5853 14.3743 15.7853 13.7943C15.9953 13.2143 15.9953 12.7243 15.9253 12.6143C15.8553 12.5043 15.7053 12.4543 15.4553 12.3343Z" fill="#564499"/>
</svg>
