<svg width="25" height="18" viewBox="0 0 25 18" fill="none" xmlns="http://www.w3.org/2000/svg">
<path d="M12.972 0.342773H13.1055C14.3385 0.347273 20.586 0.392274 22.2705 0.845274C22.7797 0.983526 23.2438 1.25301 23.6162 1.62679C23.9887 2.00056 24.2566 2.46555 24.393 2.97527C24.5445 3.54527 24.651 4.29977 24.723 5.07827L24.738 5.23427L24.771 5.62427L24.783 5.78027C24.8805 7.15127 24.8925 8.43527 24.894 8.71577V8.82827C24.8925 9.11927 24.879 10.4903 24.771 11.9183L24.759 12.0758L24.7455 12.2318C24.6705 13.0898 24.5595 13.9418 24.393 14.5688C24.2566 15.0785 23.9887 15.5435 23.6162 15.9173C23.2438 16.291 22.7797 16.5605 22.2705 16.6988C20.5305 17.1668 13.917 17.1998 13.0005 17.2013H12.7875C12.324 17.2013 10.407 17.1923 8.39701 17.1233L8.14201 17.1143L8.01151 17.1083L7.75501 17.0978L7.49851 17.0873C5.83351 17.0138 4.24801 16.8953 3.51751 16.6973C3.00845 16.5592 2.54453 16.2899 2.17208 15.9164C1.79964 15.5429 1.53169 15.0782 1.39501 14.5688C1.22851 13.9433 1.11751 13.0898 1.04251 12.2318L1.03051 12.0743L1.01851 11.9183C0.944053 10.9019 0.903031 9.88335 0.895508 8.86427L0.895508 8.67977C0.898508 8.35727 0.910508 7.24277 0.991508 6.01277L1.00201 5.85827L1.00651 5.78027L1.01851 5.62427L1.05151 5.23427L1.06651 5.07827C1.13851 4.29977 1.24501 3.54377 1.39651 2.97527C1.53296 2.46555 1.80081 2.00056 2.17327 1.62679C2.54573 1.25301 3.00977 0.983526 3.51901 0.845274C4.24951 0.650274 5.83501 0.530273 7.50001 0.455273L7.75501 0.444773L8.01301 0.435774L8.14201 0.431274L8.39851 0.420774C9.82607 0.374879 11.2542 0.349376 12.6825 0.344274L12.972 0.342773ZM10.4955 5.15777V12.3848L16.731 8.77277L10.4955 5.15777Z" fill="white"/>
</svg>
